<?xml version="1.0" standalone="no"?><!DOCTYPE svg PUBLIC "-//W3C//DTD SVG 1.1//EN" "http://www.w3.org/Graphics/SVG/1.1/DTD/svg11.dtd"><svg xmlns="http://www.w3.org/2000/svg" version="1.1" width="450px" height="286.2px" viewBox="0 -1 450 286.2" style="top:-1px">  <desc>Enfin, elle monte des marches comme une championne, elle peut le faire, arriver en haut des marches, elle n’en peut p...</desc>  <defs/>  <g id="Polygon10480">    <path d="M 1.4 176.3 C 1.4 175.7 1.4 174.9 1.3 174.3 C 1.3 174.3 2.5 174.3 2.5 174.3 C 2.5 174.6 2.6 175.3 2.6 175.9 C 2.9 175.1 3.8 174.1 5.5 174.1 C 7.4 174.1 8.6 175.2 8.6 177.5 C 8.65 177.48 8.6 182.4 8.6 182.4 L 7.4 182.4 C 7.4 182.4 7.44 177.71 7.4 177.7 C 7.4 176.3 6.9 175.2 5.3 175.2 C 3.5 175.2 2.6 176.6 2.6 178.5 C 2.56 178.55 2.6 182.4 2.6 182.4 L 1.4 182.4 C 1.4 182.4 1.35 176.34 1.4 176.3 Z M 19.4 178.3 C 19.4 178.3 19.4 178.3 19.4 178.3 C 19.4 180.5 18 182.6 15.1 182.6 C 12.5 182.6 11 180.6 11 178.3 C 11 178.3 11 178.3 11 178.3 C 11 176 12.6 174.1 15.2 174.1 C 17.9 174.1 19.4 176.2 19.4 178.3 Z M 12.2 178.3 C 12.2 178.3 12.2 178.3 12.2 178.3 C 12.2 180 13.3 181.5 15.2 181.5 C 17.2 181.5 18.1 180.1 18.1 178.4 C 18.1 178.4 18.1 178.4 18.1 178.4 C 18.1 176.6 17 175.1 15.1 175.1 C 13.2 175.1 12.2 176.6 12.2 178.3 Z M 28.9 180 C 28.9 180.8 28.9 181.6 28.9 182.4 C 28.9 182.4 27.8 182.4 27.8 182.4 C 27.7 182.1 27.7 181.5 27.7 180.9 C 27.3 181.9 26.5 182.6 24.7 182.6 C 23 182.6 21.7 181.7 21.7 179.3 C 21.71 179.33 21.7 174.3 21.7 174.3 L 22.9 174.3 C 22.9 174.3 22.92 179.09 22.9 179.1 C 22.9 180.4 23.4 181.5 25 181.5 C 26.9 181.5 27.7 180.4 27.7 177.9 C 27.69 177.93 27.7 174.3 27.7 174.3 L 28.9 174.3 C 28.9 174.3 28.9 180.01 28.9 180 Z M 32.4 179.9 C 32.4 179.9 32.37 179.93 32.4 179.9 C 32.7 181 33.6 181.6 35.1 181.6 C 36.8 181.6 37.4 181 37.4 180.2 C 37.4 179.4 37 178.9 34.9 178.7 C 32.1 178.3 31.5 177.4 31.5 176.4 C 31.5 175.4 32.3 174.1 34.8 174.1 C 37.6 174.1 38.3 175.6 38.4 176.5 C 38.41 176.46 38.4 176.5 38.4 176.5 L 37.2 176.5 C 37.2 176.5 37.18 176.46 37.2 176.5 C 37.1 175.9 36.7 175.1 34.8 175.1 C 33.1 175.1 32.8 175.8 32.8 176.3 C 32.8 177 33.2 177.4 35.1 177.6 C 38.1 178 38.7 178.9 38.7 180.1 C 38.7 181.5 37.6 182.6 35.1 182.6 C 32.7 182.6 31.4 181.6 31.1 179.9 C 31.14 179.93 31.1 179.9 31.1 179.9 L 32.4 179.9 Z M 49.8 182.4 L 49.8 175.3 L 48.3 175.3 L 48.3 174.3 L 49.8 174.3 C 49.8 174.3 49.81 173.11 49.8 173.1 C 49.8 171.3 50.5 170.2 52.4 170.2 C 52.8 170.2 53.1 170.2 53.3 170.3 C 53.3 170.3 53.3 171.3 53.3 171.3 C 53.1 171.3 52.7 171.2 52.5 171.2 C 51.4 171.2 51 171.8 51 173.2 C 51.02 173.21 51 174.3 51 174.3 L 53 174.3 L 53 175.3 L 51 175.3 L 51 182.4 L 49.8 182.4 Z M 61.5 180.4 C 61.5 181.2 61.5 182.2 61.5 182.4 C 61.5 182.4 60.4 182.4 60.4 182.4 C 60.3 182 60.3 181.4 60.3 181.1 C 59.9 182 59 182.6 57.2 182.6 C 54.9 182.6 54.1 181.2 54.1 180 C 54.1 180 54.1 180 54.1 180 C 54.1 178 56 177.4 58.2 177.4 C 59.3 177.4 60 177.4 60.3 177.4 C 60.3 177.4 60.3 176.9 60.3 176.9 C 60.3 176 59.9 175.1 58 175.1 C 56.3 175.1 55.9 175.8 55.8 176.6 C 55.76 176.64 55.8 176.6 55.8 176.6 L 54.6 176.6 C 54.6 176.6 54.55 176.64 54.6 176.6 C 54.7 175.6 55.4 174.1 58 174.1 C 60.8 174.1 61.5 175.5 61.5 176.8 C 61.5 176.8 61.5 180.4 61.5 180.4 Z M 60.3 178.3 C 60 178.3 59.5 178.3 58.3 178.3 C 56.3 178.3 55.3 178.7 55.3 179.9 C 55.3 179.9 55.3 179.9 55.3 179.9 C 55.3 180.8 55.9 181.6 57.4 181.6 C 59.7 181.6 60.3 180.1 60.3 178.7 C 60.3 178.7 60.3 178.3 60.3 178.3 Z M 64.4 174.3 L 65.6 174.3 L 65.6 182.4 L 64.4 182.4 L 64.4 174.3 Z M 64.4 170.3 L 65.6 170.3 L 65.6 172.1 L 64.4 172.1 L 64.4 170.3 Z M 68.5 176.5 C 68.5 175.8 68.5 175 68.5 174.3 C 68.5 174.3 69.6 174.3 69.6 174.3 C 69.7 174.5 69.7 175.4 69.7 176.2 C 70.2 174.9 71.4 174.1 73 174.1 C 73 174.1 73 175.3 73 175.3 C 71.1 175.3 69.7 176.5 69.7 178.9 C 69.69 178.88 69.7 182.4 69.7 182.4 L 68.5 182.4 C 68.5 182.4 68.48 176.5 68.5 176.5 Z M 75.4 178.6 C 75.4 178.6 75.37 178.61 75.4 178.6 C 75.5 180.3 76.6 181.6 78.4 181.6 C 79.7 181.6 80.5 181 80.9 180.1 C 80.95 180.12 80.9 180.1 80.9 180.1 L 82.2 180.1 C 82.2 180.1 82.15 180.12 82.2 180.1 C 81.7 181.3 80.6 182.6 78.3 182.6 C 75.5 182.6 74.2 180.5 74.2 178.4 C 74.2 178.4 74.2 178.4 74.2 178.4 C 74.2 175.9 75.8 174.1 78.2 174.1 C 81.3 174.1 82.3 176.3 82.3 178.3 C 82.3 178.4 82.3 178.5 82.3 178.6 C 82.27 178.61 75.4 178.6 75.4 178.6 Z M 81 177.7 C 81 177.7 81 177.68 81 177.7 C 80.9 176.6 80.4 175.1 78.2 175.1 C 76.5 175.1 75.6 176.2 75.4 177.7 C 75.41 177.68 75.4 177.7 75.4 177.7 L 81 177.7 Z M 100.1 180 C 100.1 180.8 100.1 181.6 100.1 182.4 C 100.1 182.4 98.9 182.4 98.9 182.4 C 98.9 182.1 98.9 181.5 98.9 180.9 C 98.5 181.9 97.7 182.6 95.9 182.6 C 94.2 182.6 92.9 181.7 92.9 179.3 C 92.88 179.33 92.9 174.3 92.9 174.3 L 94.1 174.3 C 94.1 174.3 94.09 179.09 94.1 179.1 C 94.1 180.4 94.6 181.5 96.2 181.5 C 98 181.5 98.9 180.4 98.9 177.9 C 98.85 177.93 98.9 174.3 98.9 174.3 L 100.1 174.3 C 100.1 174.3 100.06 180.01 100.1 180 Z M 103 176.3 C 103 175.7 103 174.9 103 174.3 C 103 174.3 104.1 174.3 104.1 174.3 C 104.2 174.6 104.2 175.3 104.2 175.9 C 104.5 175.1 105.4 174.1 107.2 174.1 C 109 174.1 110.3 175.2 110.3 177.5 C 110.28 177.48 110.3 182.4 110.3 182.4 L 109.1 182.4 C 109.1 182.4 109.06 177.71 109.1 177.7 C 109.1 176.3 108.5 175.2 106.9 175.2 C 105.1 175.2 104.2 176.6 104.2 178.5 C 104.19 178.55 104.2 182.4 104.2 182.4 L 103 182.4 C 103 182.4 102.98 176.34 103 176.3 Z M 129.1 181.3 C 129.1 184.3 128.2 186.1 124.9 186.1 C 121.8 186.1 121.2 184.4 121 183.4 C 121.01 183.42 121 183.4 121 183.4 L 122.2 183.4 C 122.2 183.4 122.25 183.42 122.2 183.4 C 122.5 184.3 123.1 185.1 124.9 185.1 C 127.5 185.1 127.9 183.5 127.9 181.3 C 127.9 181.3 127.9 180.8 127.9 180.8 C 127.4 181.9 126.5 182.5 124.7 182.5 C 122.5 182.5 120.9 180.7 120.9 178.4 C 120.9 178.4 120.9 178.4 120.9 178.4 C 120.9 175.8 122.8 174.1 124.9 174.1 C 126.8 174.1 127.6 175 127.9 175.6 C 127.9 175.2 127.9 174.5 127.9 174.3 C 127.9 174.3 129.1 174.3 129.1 174.3 C 129.1 175.1 129.1 175.9 129.1 176.6 C 129.1 176.6 129.1 181.3 129.1 181.3 Z M 122.2 178.4 C 122.2 178.4 122.2 178.4 122.2 178.4 C 122.2 180.2 123.4 181.4 125 181.4 C 126.8 181.4 127.9 180.3 127.9 178.3 C 127.9 178.3 127.9 178.3 127.9 178.3 C 127.9 176.2 126.9 175.2 125.1 175.2 C 123.1 175.2 122.2 176.8 122.2 178.4 Z M 132.7 178.6 C 132.7 178.6 132.67 178.61 132.7 178.6 C 132.8 180.3 133.9 181.6 135.7 181.6 C 137 181.6 137.8 181 138.2 180.1 C 138.24 180.12 138.2 180.1 138.2 180.1 L 139.5 180.1 C 139.5 180.1 139.45 180.12 139.5 180.1 C 139 181.3 137.9 182.6 135.6 182.6 C 132.8 182.6 131.5 180.5 131.5 178.4 C 131.5 178.4 131.5 178.4 131.5 178.4 C 131.5 175.9 133.1 174.1 135.5 174.1 C 138.6 174.1 139.6 176.3 139.6 178.3 C 139.6 178.4 139.6 178.5 139.6 178.6 C 139.57 178.61 132.7 178.6 132.7 178.6 Z M 138.3 177.7 C 138.3 177.7 138.3 177.68 138.3 177.7 C 138.2 176.6 137.7 175.1 135.5 175.1 C 133.8 175.1 132.9 176.2 132.7 177.7 C 132.71 177.68 132.7 177.7 132.7 177.7 L 138.3 177.7 Z M 142.5 179.9 C 142.5 179.9 142.5 179.93 142.5 179.9 C 142.8 181 143.7 181.6 145.3 181.6 C 147 181.6 147.6 181 147.6 180.2 C 147.6 179.4 147.2 178.9 145 178.7 C 142.2 178.3 141.7 177.4 141.7 176.4 C 141.7 175.4 142.5 174.1 145 174.1 C 147.7 174.1 148.5 175.6 148.5 176.5 C 148.54 176.46 148.5 176.5 148.5 176.5 L 147.3 176.5 C 147.3 176.5 147.31 176.46 147.3 176.5 C 147.2 175.9 146.8 175.1 144.9 175.1 C 143.2 175.1 142.9 175.8 142.9 176.3 C 142.9 177 143.3 177.4 145.2 177.6 C 148.2 178 148.8 178.9 148.8 180.1 C 148.8 181.5 147.7 182.6 145.2 182.6 C 142.8 182.6 141.6 181.6 141.3 179.9 C 141.27 179.93 141.3 179.9 141.3 179.9 L 142.5 179.9 Z M 150.2 174.3 L 151.8 174.3 L 151.8 171.7 L 153 171.7 L 153 174.3 L 155.2 174.3 L 155.2 175.3 L 153 175.3 C 153 175.3 153.02 180.02 153 180 C 153 181 153.3 181.4 154.2 181.4 C 154.4 181.4 154.8 181.4 155 181.4 C 155 181.4 155 182.3 155 182.3 C 154.7 182.4 154.3 182.4 153.9 182.4 C 152.3 182.4 151.8 181.7 151.8 180.1 C 151.81 180.14 151.8 175.3 151.8 175.3 L 150.2 175.3 L 150.2 174.3 Z M 157.6 178.6 C 157.6 178.6 157.65 178.61 157.6 178.6 C 157.7 180.3 158.9 181.6 160.6 181.6 C 162 181.6 162.7 181 163.2 180.1 C 163.22 180.12 163.2 180.1 163.2 180.1 L 164.4 180.1 C 164.4 180.1 164.43 180.12 164.4 180.1 C 164 181.3 162.9 182.6 160.5 182.6 C 157.8 182.6 156.4 180.5 156.4 178.4 C 156.4 178.4 156.4 178.4 156.4 178.4 C 156.4 175.9 158.1 174.1 160.5 174.1 C 163.5 174.1 164.5 176.3 164.5 178.3 C 164.5 178.4 164.5 178.5 164.5 178.6 C 164.55 178.61 157.6 178.6 157.6 178.6 Z M 163.3 177.7 C 163.3 177.7 163.27 177.68 163.3 177.7 C 163.2 176.6 162.6 175.1 160.5 175.1 C 158.7 175.1 157.8 176.2 157.7 177.7 C 157.68 177.68 157.7 177.7 157.7 177.7 L 163.3 177.7 Z M 182.7 170.3 C 182.7 170.3 182.67 180 182.7 180 C 182.7 180.8 182.7 181.6 182.7 182.4 C 182.7 182.4 181.5 182.4 181.5 182.4 C 181.5 182 181.5 181.5 181.5 181 C 181.1 181.8 180.3 182.6 178.4 182.6 C 176.1 182.6 174.5 180.8 174.5 178.4 C 174.5 178.4 174.5 178.4 174.5 178.4 C 174.5 175.8 176.5 174.1 178.6 174.1 C 180.6 174.1 181.2 175 181.5 175.4 C 181.46 175.45 181.5 170.3 181.5 170.3 L 182.7 170.3 Z M 175.8 178.4 C 175.8 178.4 175.8 178.4 175.8 178.4 C 175.8 179.9 176.7 181.5 178.6 181.5 C 180.7 181.5 181.5 180.2 181.5 178.3 C 181.5 178.3 181.5 178.3 181.5 178.3 C 181.5 176.4 180.9 175.1 178.7 175.1 C 176.7 175.1 175.8 176.8 175.8 178.4 Z M 186.3 178.6 C 186.3 178.6 186.26 178.61 186.3 178.6 C 186.4 180.3 187.5 181.6 189.3 181.6 C 190.6 181.6 191.4 181 191.8 180.1 C 191.83 180.12 191.8 180.1 191.8 180.1 L 193 180.1 C 193 180.1 193.04 180.12 193 180.1 C 192.6 181.3 191.5 182.6 189.2 182.6 C 186.4 182.6 185 180.5 185 178.4 C 185 178.4 185 178.4 185 178.4 C 185 175.9 186.7 174.1 189.1 174.1 C 192.1 174.1 193.2 176.3 193.2 178.3 C 193.2 178.4 193.2 178.5 193.2 178.6 C 193.16 178.61 186.3 178.6 186.3 178.6 Z M 191.9 177.7 C 191.9 177.7 191.88 177.68 191.9 177.7 C 191.8 176.6 191.3 175.1 189.1 175.1 C 187.4 175.1 186.5 176.2 186.3 177.7 C 186.3 177.68 186.3 177.7 186.3 177.7 L 191.9 177.7 Z M 204 174.3 C 204.6 175.8 206.7 180.4 207 181.2 C 207 181.2 207 181.2 207 181.2 C 207.2 180.6 207.7 179.3 209.9 174.3 C 209.93 174.31 211.2 174.3 211.2 174.3 L 207.6 182.4 L 206.3 182.4 L 202.7 174.3 C 202.7 174.3 203.99 174.31 204 174.3 Z M 213.1 174.3 L 214.3 174.3 L 214.3 182.4 L 213.1 182.4 L 213.1 174.3 Z M 213.1 170.3 L 214.3 170.3 L 214.3 172.1 L 213.1 172.1 L 213.1 170.3 Z M 224.7 179.9 C 224.7 179.9 224.73 179.9 224.7 179.9 C 224.3 181.3 223.1 182.6 220.9 182.6 C 218.1 182.6 216.7 180.7 216.7 178.4 C 216.7 178.4 216.7 178.4 216.7 178.4 C 216.7 176.1 218.3 174.1 220.9 174.1 C 223.5 174.1 224.5 175.7 224.7 176.8 C 224.72 176.83 224.7 176.8 224.7 176.8 L 223.5 176.8 C 223.5 176.8 223.51 176.83 223.5 176.8 C 223.2 176 222.5 175.1 220.9 175.1 C 219.1 175.1 218 176.5 218 178.3 C 218 178.3 218 178.3 218 178.3 C 218 180.1 219 181.6 220.9 181.6 C 222.3 181.6 223.1 180.9 223.5 179.9 C 223.52 179.9 223.5 179.9 223.5 179.9 L 224.7 179.9 Z M 226 174.3 L 227.7 174.3 L 227.7 171.7 L 228.9 171.7 L 228.9 174.3 L 231.1 174.3 L 231.1 175.3 L 228.9 175.3 C 228.9 175.3 228.88 180.02 228.9 180 C 228.9 181 229.1 181.4 230.1 181.4 C 230.3 181.4 230.6 181.4 230.9 181.4 C 230.9 181.4 230.9 182.3 230.9 182.3 C 230.5 182.4 230.2 182.4 229.7 182.4 C 228.2 182.4 227.7 181.7 227.7 180.1 C 227.67 180.14 227.7 175.3 227.7 175.3 L 226 175.3 L 226 174.3 Z M 240.7 178.3 C 240.7 178.3 240.7 178.3 240.7 178.3 C 240.7 180.5 239.3 182.6 236.4 182.6 C 233.8 182.6 232.3 180.6 232.3 178.3 C 232.3 178.3 232.3 178.3 232.3 178.3 C 232.3 176 233.9 174.1 236.5 174.1 C 239.2 174.1 240.7 176.2 240.7 178.3 Z M 233.5 178.3 C 233.5 178.3 233.5 178.3 233.5 178.3 C 233.5 180 234.6 181.5 236.5 181.5 C 238.5 181.5 239.4 180.1 239.4 178.4 C 239.4 178.4 239.4 178.4 239.4 178.4 C 239.4 176.6 238.3 175.1 236.4 175.1 C 234.5 175.1 233.5 176.6 233.5 178.3 Z M 243 174.3 L 244.2 174.3 L 244.2 182.4 L 243 182.4 L 243 174.3 Z M 243 170.3 L 244.2 170.3 L 244.2 172.1 L 243 172.1 L 243 170.3 Z M 247.1 176.5 C 247.1 175.8 247.1 175 247.1 174.3 C 247.1 174.3 248.3 174.3 248.3 174.3 C 248.3 174.5 248.4 175.4 248.4 176.2 C 248.9 174.9 250.1 174.1 251.7 174.1 C 251.7 174.1 251.7 175.3 251.7 175.3 C 249.8 175.3 248.4 176.5 248.4 178.9 C 248.35 178.88 248.4 182.4 248.4 182.4 L 247.1 182.4 C 247.1 182.4 247.14 176.5 247.1 176.5 Z M 254 178.6 C 254 178.6 254.04 178.61 254 178.6 C 254.1 180.3 255.3 181.6 257 181.6 C 258.4 181.6 259.1 181 259.6 180.1 C 259.61 180.12 259.6 180.1 259.6 180.1 L 260.8 180.1 C 260.8 180.1 260.82 180.12 260.8 180.1 C 260.4 181.3 259.3 182.6 256.9 182.6 C 254.2 182.6 252.8 180.5 252.8 178.4 C 252.8 178.4 252.8 178.4 252.8 178.4 C 252.8 175.9 254.5 174.1 256.9 174.1 C 259.9 174.1 260.9 176.3 260.9 178.3 C 260.9 178.4 260.9 178.5 260.9 178.6 C 260.94 178.61 254 178.6 254 178.6 Z M 259.7 177.7 C 259.7 177.7 259.66 177.68 259.7 177.7 C 259.6 176.6 259 175.1 256.9 175.1 C 255.1 175.1 254.2 176.2 254.1 177.7 C 254.07 177.68 254.1 177.7 254.1 177.7 L 259.7 177.7 Z M 278.3 180.4 C 278.3 181.2 278.4 182.2 278.4 182.4 C 278.4 182.4 277.2 182.4 277.2 182.4 C 277.2 182 277.2 181.4 277.2 181.1 C 276.7 182 275.8 182.6 274.1 182.6 C 271.8 182.6 270.9 181.2 270.9 180 C 270.9 180 270.9 180 270.9 180 C 270.9 178 272.8 177.4 275.1 177.4 C 276.2 177.4 276.9 177.4 277.1 177.4 C 277.1 177.4 277.1 176.9 277.1 176.9 C 277.1 176 276.7 175.1 274.9 175.1 C 273.2 175.1 272.8 175.8 272.6 176.6 C 272.62 176.64 272.6 176.6 272.6 176.6 L 271.4 176.6 C 271.4 176.6 271.41 176.64 271.4 176.6 C 271.5 175.6 272.2 174.1 274.9 174.1 C 277.6 174.1 278.3 175.5 278.3 176.8 C 278.3 176.8 278.3 180.4 278.3 180.4 Z M 277.1 178.3 C 276.9 178.3 276.3 178.3 275.1 178.3 C 273.1 178.3 272.2 178.7 272.2 179.9 C 272.2 179.9 272.2 179.9 272.2 179.9 C 272.2 180.8 272.8 181.6 274.3 181.6 C 276.6 181.6 277.1 180.1 277.1 178.7 C 277.1 178.7 277.1 178.3 277.1 178.3 Z M 273.6 170.1 L 275.9 172.7 L 274.6 172.7 L 272.1 170.1 L 273.6 170.1 Z M 289.6 182.4 L 289.6 170.3 L 290.9 170.3 L 290.9 182.4 L 289.6 182.4 Z M 300.6 180.4 C 300.6 181.2 300.7 182.2 300.7 182.4 C 300.7 182.4 299.5 182.4 299.5 182.4 C 299.5 182 299.4 181.4 299.4 181.1 C 299 182 298.1 182.6 296.4 182.6 C 294.1 182.6 293.2 181.2 293.2 180 C 293.2 180 293.2 180 293.2 180 C 293.2 178 295.1 177.4 297.4 177.4 C 298.5 177.4 299.2 177.4 299.4 177.4 C 299.4 177.4 299.4 176.9 299.4 176.9 C 299.4 176 299 175.1 297.2 175.1 C 295.5 175.1 295.1 175.8 294.9 176.6 C 294.91 176.64 294.9 176.6 294.9 176.6 L 293.7 176.6 C 293.7 176.6 293.7 176.64 293.7 176.6 C 293.8 175.6 294.5 174.1 297.2 174.1 C 299.9 174.1 300.6 175.5 300.6 176.8 C 300.6 176.8 300.6 180.4 300.6 180.4 Z M 299.4 178.3 C 299.2 178.3 298.6 178.3 297.4 178.3 C 295.4 178.3 294.4 178.7 294.4 179.9 C 294.4 179.9 294.4 179.9 294.4 179.9 C 294.4 180.8 295.1 181.6 296.5 181.6 C 298.9 181.6 299.4 180.1 299.4 178.7 C 299.4 178.7 299.4 178.3 299.4 178.3 Z M 313.5 177.3 L 313.5 182.4 L 312.2 182.4 L 312.2 171 C 312.2 171 317.45 170.96 317.5 171 C 319.7 171 321.3 172 321.3 174 C 321.3 174 321.3 174 321.3 174 C 321.3 175.4 320.6 176.4 319.2 176.7 C 320 177 321 177.6 321 179.5 C 321 179.5 321 180 321 180 C 321 180.9 321 181.9 321.1 182.4 C 321.1 182.4 319.8 182.4 319.8 182.4 C 319.6 181.9 319.7 180.9 319.7 180.1 C 319.7 180.1 319.7 179.7 319.7 179.7 C 319.7 177.8 319 177.3 316.9 177.3 C 316.87 177.3 313.5 177.3 313.5 177.3 Z M 313.5 176.2 C 313.5 176.2 317.11 176.2 317.1 176.2 C 319 176.2 320 175.5 320 174.1 C 320 174.1 320 174.1 320 174.1 C 320 172.7 319 172.1 317.2 172.1 C 317.18 172.07 313.5 172.1 313.5 172.1 L 313.5 176.2 Z M 331.9 178.3 C 331.9 178.3 331.9 178.3 331.9 178.3 C 331.9 180.5 330.5 182.6 327.6 182.6 C 325 182.6 323.5 180.6 323.5 178.3 C 323.5 178.3 323.5 178.3 323.5 178.3 C 323.5 176 325.1 174.1 327.7 174.1 C 330.4 174.1 331.9 176.2 331.9 178.3 Z M 324.7 178.3 C 324.7 178.3 324.7 178.3 324.7 178.3 C 324.7 180 325.8 181.5 327.7 181.5 C 329.7 181.5 330.6 180.1 330.6 178.4 C 330.6 178.4 330.6 178.4 330.6 178.4 C 330.6 176.6 329.5 175.1 327.6 175.1 C 325.7 175.1 324.7 176.6 324.7 178.3 Z M 341.8 179.9 C 341.8 179.9 341.76 179.9 341.8 179.9 C 341.3 181.3 340.1 182.6 337.9 182.6 C 335.1 182.6 333.7 180.7 333.7 178.4 C 333.7 178.4 333.7 178.4 333.7 178.4 C 333.7 176.1 335.3 174.1 337.9 174.1 C 340.5 174.1 341.5 175.7 341.7 176.8 C 341.75 176.83 341.7 176.8 341.7 176.8 L 340.5 176.8 C 340.5 176.8 340.54 176.83 340.5 176.8 C 340.2 176 339.5 175.1 337.9 175.1 C 336.1 175.1 335 176.5 335 178.3 C 335 178.3 335 178.3 335 178.3 C 335 180.1 336 181.6 337.9 181.6 C 339.3 181.6 340.1 180.9 340.5 179.9 C 340.55 179.9 340.5 179.9 340.5 179.9 L 341.8 179.9 Z M 345.3 178.3 C 345.3 178.3 345.26 178.27 345.3 178.3 C 346.1 177.5 348.7 175.4 350 174.3 C 349.99 174.31 351.6 174.3 351.6 174.3 L 347.8 177.5 L 352 182.4 L 350.4 182.4 L 346.8 178.1 L 345.3 179.4 L 345.3 182.4 L 344.1 182.4 L 344.1 170.3 L 345.3 170.3 L 345.3 178.3 Z M 354.4 174.3 C 356.2 178.4 357.2 180.7 357.5 181.5 C 357.5 181.5 357.5 181.5 357.5 181.5 C 357.8 180.7 358.7 178.3 360.4 174.3 C 360.37 174.31 361.6 174.3 361.6 174.3 C 361.6 174.3 358.35 182.17 358.3 182.2 C 356.9 185.6 356.4 186.1 354.6 186.1 C 354.3 186.1 353.8 186.1 353.6 186.1 C 353.6 186.1 353.6 185 353.6 185 C 353.9 185 354.3 185 354.5 185 C 355.6 185 356 184.5 356.8 182.7 C 356.84 182.74 353.1 174.3 353.1 174.3 C 353.1 174.3 354.4 174.31 354.4 174.3 Z M 362.6 182.4 L 362.6 179.9 L 363.9 179.9 L 363.9 182.4 L 362.6 182.4 Z " stroke="none" fill="#141414"/>  </g>  <g id="Polygon10479">    <path d="M 1.4 152 C 1.4 151.3 1.4 150.6 1.3 150 C 1.3 150 2.5 150 2.5 150 C 2.5 150.3 2.6 151 2.6 151.6 C 2.9 150.8 3.8 149.8 5.5 149.8 C 7.4 149.8 8.6 150.9 8.6 153.2 C 8.65 153.16 8.6 158 8.6 158 L 7.4 158 C 7.4 158 7.44 153.39 7.4 153.4 C 7.4 152 6.9 150.8 5.3 150.8 C 3.5 150.8 2.6 152.2 2.6 154.2 C 2.56 154.23 2.6 158 2.6 158 L 1.4 158 C 1.4 158 1.35 152.02 1.4 152 Z M 10.9 150.6 C 11.3 149.2 11.6 147.5 11.7 146 C 11.7 146 13 146 13 146 C 12.9 147.2 12.4 149.5 11.9 150.6 C 11.9 150.6 10.9 150.6 10.9 150.6 Z M 15.4 154.3 C 15.4 154.3 15.37 154.29 15.4 154.3 C 15.5 156 16.6 157.2 18.4 157.2 C 19.7 157.2 20.5 156.7 20.9 155.8 C 20.94 155.8 20.9 155.8 20.9 155.8 L 22.2 155.8 C 22.2 155.8 22.15 155.8 22.2 155.8 C 21.7 156.9 20.6 158.3 18.3 158.3 C 15.5 158.3 14.2 156.2 14.2 154 C 14.2 154 14.2 154 14.2 154 C 14.2 151.6 15.8 149.8 18.2 149.8 C 21.3 149.8 22.3 152 22.3 154 C 22.3 154.1 22.3 154.2 22.3 154.3 C 22.27 154.29 15.4 154.3 15.4 154.3 Z M 21 153.4 C 21 153.4 20.99 153.36 21 153.4 C 20.9 152.3 20.4 150.8 18.2 150.8 C 16.5 150.8 15.6 151.9 15.4 153.4 C 15.4 153.36 15.4 153.4 15.4 153.4 L 21 153.4 Z M 24.6 152 C 24.6 151.3 24.6 150.6 24.6 150 C 24.6 150 25.8 150 25.8 150 C 25.8 150.3 25.8 151 25.8 151.6 C 26.2 150.8 27 149.8 28.8 149.8 C 30.7 149.8 31.9 150.9 31.9 153.2 C 31.92 153.16 31.9 158 31.9 158 L 30.7 158 C 30.7 158 30.71 153.39 30.7 153.4 C 30.7 152 30.2 150.8 28.6 150.8 C 26.7 150.8 25.8 152.2 25.8 154.2 C 25.84 154.23 25.8 158 25.8 158 L 24.6 158 C 24.6 158 24.63 152.02 24.6 152 Z M 45.1 156.7 C 45.09 156.73 45.1 161.6 45.1 161.6 L 43.9 161.6 C 43.9 161.6 43.88 152.01 43.9 152 C 43.9 151.3 43.9 150.7 43.9 150 C 43.9 150 45 150 45 150 C 45.1 150.2 45.1 150.8 45.1 151.5 C 45.6 150.6 46.5 149.8 48.3 149.8 C 50.5 149.8 52 151.6 52 153.9 C 52 153.9 52 153.9 52 153.9 C 52 156.5 50.3 158.3 48 158.3 C 46.3 158.3 45.5 157.5 45.1 156.7 Z M 50.8 153.9 C 50.8 153.9 50.8 153.9 50.8 153.9 C 50.8 152.4 49.9 150.8 47.9 150.8 C 45.9 150.8 45.1 152.3 45.1 154.1 C 45.1 154.1 45.1 154.1 45.1 154.1 C 45.1 155.8 46 157.2 47.9 157.2 C 49.8 157.2 50.8 155.6 50.8 153.9 Z M 55.1 154.3 C 55.1 154.3 55.1 154.29 55.1 154.3 C 55.2 156 56.3 157.2 58.1 157.2 C 59.4 157.2 60.2 156.7 60.7 155.8 C 60.67 155.8 60.7 155.8 60.7 155.8 L 61.9 155.8 C 61.9 155.8 61.88 155.8 61.9 155.8 C 61.5 156.9 60.3 158.3 58 158.3 C 55.2 158.3 53.9 156.2 53.9 154 C 53.9 154 53.9 154 53.9 154 C 53.9 151.6 55.5 149.8 58 149.8 C 61 149.8 62 152 62 154 C 62 154.1 62 154.2 62 154.3 C 62 154.29 55.1 154.3 55.1 154.3 Z M 60.7 153.4 C 60.7 153.4 60.72 153.36 60.7 153.4 C 60.6 152.3 60.1 150.8 57.9 150.8 C 56.2 150.8 55.3 151.9 55.1 153.4 C 55.13 153.36 55.1 153.4 55.1 153.4 L 60.7 153.4 Z M 71.5 155.7 C 71.5 156.5 71.5 157.3 71.5 158 C 71.5 158 70.4 158 70.4 158 C 70.3 157.8 70.3 157.2 70.3 156.6 C 69.9 157.6 69.1 158.3 67.4 158.3 C 65.6 158.3 64.3 157.3 64.3 155 C 64.32 155.01 64.3 150 64.3 150 L 65.5 150 C 65.5 150 65.53 154.77 65.5 154.8 C 65.5 156 66 157.2 67.6 157.2 C 69.5 157.2 70.3 156.1 70.3 153.6 C 70.3 153.61 70.3 150 70.3 150 L 71.5 150 C 71.5 150 71.51 155.69 71.5 155.7 Z M 73.5 150 L 75.1 150 L 75.1 147.3 L 76.3 147.3 L 76.3 150 L 78.5 150 L 78.5 151 L 76.3 151 C 76.3 151 76.31 155.7 76.3 155.7 C 76.3 156.7 76.6 157.1 77.5 157.1 C 77.7 157.1 78.1 157.1 78.3 157.1 C 78.3 157.1 78.3 158 78.3 158 C 78 158.1 77.6 158.1 77.2 158.1 C 75.6 158.1 75.1 157.4 75.1 155.8 C 75.1 155.82 75.1 151 75.1 151 L 73.5 151 L 73.5 150 Z M 90.7 156.7 C 90.73 156.73 90.7 161.6 90.7 161.6 L 89.5 161.6 C 89.5 161.6 89.52 152.01 89.5 152 C 89.5 151.3 89.5 150.7 89.5 150 C 89.5 150 90.7 150 90.7 150 C 90.7 150.2 90.7 150.8 90.7 151.5 C 91.2 150.6 92.2 149.8 93.9 149.8 C 96.1 149.8 97.7 151.6 97.7 153.9 C 97.7 153.9 97.7 153.9 97.7 153.9 C 97.7 156.5 95.9 158.3 93.7 158.3 C 91.9 158.3 91.2 157.5 90.7 156.7 Z M 96.4 153.9 C 96.4 153.9 96.4 153.9 96.4 153.9 C 96.4 152.4 95.5 150.8 93.6 150.8 C 91.6 150.8 90.7 152.3 90.7 154.1 C 90.7 154.1 90.7 154.1 90.7 154.1 C 90.7 155.8 91.6 157.2 93.5 157.2 C 95.5 157.2 96.4 155.6 96.4 153.9 Z M 100 158 L 100 146 L 101.2 146 L 101.2 158 L 100 158 Z M 111.3 155.7 C 111.3 156.5 111.3 157.3 111.3 158 C 111.3 158 110.2 158 110.2 158 C 110.1 157.8 110.1 157.2 110.1 156.6 C 109.7 157.6 109 158.3 107.2 158.3 C 105.5 158.3 104.1 157.3 104.1 155 C 104.14 155.01 104.1 150 104.1 150 L 105.3 150 C 105.3 150 105.35 154.77 105.3 154.8 C 105.3 156 105.9 157.2 107.4 157.2 C 109.3 157.2 110.1 156.1 110.1 153.6 C 110.11 153.61 110.1 150 110.1 150 L 111.3 150 C 111.3 150 111.32 155.69 111.3 155.7 Z M 114.8 155.6 C 114.8 155.6 114.79 155.61 114.8 155.6 C 115.1 156.7 116 157.3 117.6 157.3 C 119.2 157.3 119.9 156.7 119.9 155.9 C 119.9 155.1 119.4 154.6 117.3 154.4 C 114.5 154 114 153.1 114 152.1 C 114 151.1 114.8 149.8 117.3 149.8 C 120 149.8 120.8 151.2 120.8 152.1 C 120.83 152.14 120.8 152.1 120.8 152.1 L 119.6 152.1 C 119.6 152.1 119.6 152.14 119.6 152.1 C 119.5 151.6 119.1 150.7 117.2 150.7 C 115.5 150.7 115.2 151.5 115.2 152 C 115.2 152.6 115.6 153.1 117.5 153.3 C 120.5 153.7 121.1 154.6 121.1 155.8 C 121.1 157.2 120 158.3 117.5 158.3 C 115.1 158.3 113.8 157.3 113.6 155.6 C 113.56 155.61 113.6 155.6 113.6 155.6 L 114.8 155.6 Z M 132.4 152.1 C 132.4 151.4 132.4 150.7 132.4 150 C 132.4 150 133.6 150 133.6 150 C 133.6 150.3 133.6 150.8 133.6 151.3 C 134 150.5 134.8 149.8 136.3 149.8 C 137.6 149.8 138.4 150.4 138.8 151.4 C 139.2 150.6 139.9 149.8 141.5 149.8 C 143.1 149.8 144.4 150.7 144.4 153 C 144.39 153.03 144.4 158 144.4 158 L 143.2 158 C 143.2 158 143.19 153.09 143.2 153.1 C 143.2 152.1 142.9 150.8 141.3 150.8 C 139.9 150.8 139 151.8 139 153.6 C 139.02 153.64 139 158 139 158 L 137.8 158 C 137.8 158 137.81 153 137.8 153 C 137.8 152 137.5 150.8 135.9 150.8 C 134.3 150.8 133.6 152.1 133.6 153.8 C 133.64 153.78 133.6 158 133.6 158 L 132.4 158 C 132.4 158 132.44 152.07 132.4 152.1 Z M 154.1 156.1 C 154.1 156.8 154.2 157.9 154.2 158 C 154.2 158 153.1 158 153.1 158 C 153 157.7 153 157.1 153 156.8 C 152.5 157.7 151.6 158.3 149.9 158.3 C 147.6 158.3 146.8 156.9 146.8 155.7 C 146.8 155.7 146.8 155.7 146.8 155.7 C 146.8 153.6 148.6 153.1 150.9 153.1 C 152 153.1 152.7 153.1 153 153.1 C 153 153.1 153 152.6 153 152.6 C 153 151.7 152.6 150.7 150.7 150.7 C 149 150.7 148.6 151.5 148.4 152.3 C 148.43 152.32 148.4 152.3 148.4 152.3 L 147.2 152.3 C 147.2 152.3 147.22 152.32 147.2 152.3 C 147.3 151.2 148 149.8 150.7 149.8 C 153.4 149.8 154.1 151.1 154.1 152.5 C 154.1 152.5 154.1 156.1 154.1 156.1 Z M 153 154 C 152.7 154 152.2 154 150.9 154 C 148.9 154 148 154.4 148 155.6 C 148 155.6 148 155.6 148 155.6 C 148 156.5 148.6 157.3 150.1 157.3 C 152.4 157.3 153 155.8 153 154.4 C 153 154.4 153 154 153 154 Z M 157 150 L 158.3 150 L 158.3 158 L 157 158 L 157 150 Z M 157 146 L 158.3 146 L 158.3 147.7 L 157 147.7 L 157 146 Z M 161.7 155.6 C 161.7 155.6 161.69 155.61 161.7 155.6 C 162 156.7 162.9 157.3 164.5 157.3 C 166.2 157.3 166.8 156.7 166.8 155.9 C 166.8 155.1 166.3 154.6 164.2 154.4 C 161.4 154 160.9 153.1 160.9 152.1 C 160.9 151.1 161.7 149.8 164.2 149.8 C 166.9 149.8 167.7 151.2 167.7 152.1 C 167.73 152.14 167.7 152.1 167.7 152.1 L 166.5 152.1 C 166.5 152.1 166.51 152.14 166.5 152.1 C 166.4 151.6 166 150.7 164.1 150.7 C 162.4 150.7 162.1 151.5 162.1 152 C 162.1 152.6 162.5 153.1 164.4 153.3 C 167.4 153.7 168 154.6 168 155.8 C 168 157.2 166.9 158.3 164.4 158.3 C 162 158.3 160.7 157.3 160.5 155.6 C 160.46 155.61 160.5 155.6 160.5 155.6 L 161.7 155.6 Z M 179.9 154.3 C 179.9 154.3 179.93 154.29 179.9 154.3 C 180 156 181.2 157.2 182.9 157.2 C 184.3 157.2 185 156.7 185.5 155.8 C 185.5 155.8 185.5 155.8 185.5 155.8 L 186.7 155.8 C 186.7 155.8 186.71 155.8 186.7 155.8 C 186.3 156.9 185.2 158.3 182.8 158.3 C 180.1 158.3 178.7 156.2 178.7 154 C 178.7 154 178.7 154 178.7 154 C 178.7 151.6 180.4 149.8 182.8 149.8 C 185.8 149.8 186.8 152 186.8 154 C 186.8 154.1 186.8 154.2 186.8 154.3 C 186.83 154.29 179.9 154.3 179.9 154.3 Z M 185.5 153.4 C 185.5 153.4 185.55 153.36 185.5 153.4 C 185.5 152.3 184.9 150.8 182.8 150.8 C 181 150.8 180.1 151.9 180 153.4 C 179.96 153.36 180 153.4 180 153.4 L 185.5 153.4 Z M 189.2 158 L 189.2 146 L 190.4 146 L 190.4 158 L 189.2 158 Z M 193.3 158 L 193.3 146 L 194.5 146 L 194.5 158 L 193.3 158 Z M 198.1 154.3 C 198.1 154.3 198.11 154.29 198.1 154.3 C 198.2 156 199.3 157.2 201.1 157.2 C 202.4 157.2 203.2 156.7 203.7 155.8 C 203.68 155.8 203.7 155.8 203.7 155.8 L 204.9 155.8 C 204.9 155.8 204.89 155.8 204.9 155.8 C 204.5 156.9 203.4 158.3 201 158.3 C 198.2 158.3 196.9 156.2 196.9 154 C 196.9 154 196.9 154 196.9 154 C 196.9 151.6 198.5 149.8 201 149.8 C 204 149.8 205 152 205 154 C 205 154.1 205 154.2 205 154.3 C 205.01 154.29 198.1 154.3 198.1 154.3 Z M 203.7 153.4 C 203.7 153.4 203.73 153.36 203.7 153.4 C 203.7 152.3 203.1 150.8 200.9 150.8 C 199.2 150.8 198.3 151.9 198.1 153.4 C 198.15 153.36 198.1 153.4 198.1 153.4 L 203.7 153.4 Z M 216.9 154.3 C 216.9 154.3 216.87 154.29 216.9 154.3 C 217 156 218.1 157.2 219.9 157.2 C 221.2 157.2 222 156.7 222.4 155.8 C 222.44 155.8 222.4 155.8 222.4 155.8 L 223.7 155.8 C 223.7 155.8 223.65 155.8 223.7 155.8 C 223.2 156.9 222.1 158.3 219.8 158.3 C 217 158.3 215.7 156.2 215.7 154 C 215.7 154 215.7 154 215.7 154 C 215.7 151.6 217.3 149.8 219.7 149.8 C 222.8 149.8 223.8 152 223.8 154 C 223.8 154.1 223.8 154.2 223.8 154.3 C 223.77 154.29 216.9 154.3 216.9 154.3 Z M 222.5 153.4 C 222.5 153.4 222.49 153.36 222.5 153.4 C 222.4 152.3 221.9 150.8 219.7 150.8 C 218 150.8 217.1 151.9 216.9 153.4 C 216.9 153.36 216.9 153.4 216.9 153.4 L 222.5 153.4 Z M 226.7 155.6 C 226.7 155.6 226.7 155.61 226.7 155.6 C 227 156.7 227.9 157.3 229.5 157.3 C 231.2 157.3 231.8 156.7 231.8 155.9 C 231.8 155.1 231.4 154.6 229.2 154.4 C 226.4 154 225.9 153.1 225.9 152.1 C 225.9 151.1 226.7 149.8 229.2 149.8 C 231.9 149.8 232.7 151.2 232.7 152.1 C 232.74 152.14 232.7 152.1 232.7 152.1 L 231.5 152.1 C 231.5 152.1 231.51 152.14 231.5 152.1 C 231.4 151.6 231 150.7 229.1 150.7 C 227.4 150.7 227.1 151.5 227.1 152 C 227.1 152.6 227.5 153.1 229.4 153.3 C 232.4 153.7 233 154.6 233 155.8 C 233 157.2 231.9 158.3 229.4 158.3 C 227 158.3 225.8 157.3 225.5 155.6 C 225.47 155.61 225.5 155.6 225.5 155.6 L 226.7 155.6 Z M 234.4 150 L 236 150 L 236 147.3 L 237.2 147.3 L 237.2 150 L 239.4 150 L 239.4 151 L 237.2 151 C 237.2 151 237.22 155.7 237.2 155.7 C 237.2 156.7 237.5 157.1 238.4 157.1 C 238.6 157.1 239 157.1 239.2 157.1 C 239.2 157.1 239.2 158 239.2 158 C 238.9 158.1 238.5 158.1 238.1 158.1 C 236.5 158.1 236 157.4 236 155.8 C 236.01 155.82 236 151 236 151 L 234.4 151 L 234.4 150 Z M 250.9 158 L 250.9 151 L 249.3 151 L 249.3 150 L 250.9 150 C 250.9 150 250.88 148.79 250.9 148.8 C 250.9 147 251.6 145.9 253.4 145.9 C 253.8 145.9 254.2 145.9 254.4 145.9 C 254.4 145.9 254.4 147 254.4 147 C 254.1 146.9 253.8 146.9 253.6 146.9 C 252.4 146.9 252.1 147.4 252.1 148.9 C 252.09 148.89 252.1 150 252.1 150 L 254 150 L 254 151 L 252.1 151 L 252.1 158 L 250.9 158 Z M 256 150 L 257.2 150 L 257.2 158 L 256 158 L 256 150 Z M 256 146 L 257.2 146 L 257.2 147.7 L 256 147.7 L 256 146 Z M 260.9 154.3 C 260.9 154.3 260.85 154.29 260.9 154.3 C 260.9 156 262.1 157.2 263.8 157.2 C 265.2 157.2 266 156.7 266.4 155.8 C 266.42 155.8 266.4 155.8 266.4 155.8 L 267.6 155.8 C 267.6 155.8 267.63 155.8 267.6 155.8 C 267.2 156.9 266.1 158.3 263.7 158.3 C 261 158.3 259.6 156.2 259.6 154 C 259.6 154 259.6 154 259.6 154 C 259.6 151.6 261.3 149.8 263.7 149.8 C 266.7 149.8 267.8 152 267.8 154 C 267.8 154.1 267.8 154.2 267.8 154.3 C 267.75 154.29 260.9 154.3 260.9 154.3 Z M 266.5 153.4 C 266.5 153.4 266.48 153.36 266.5 153.4 C 266.4 152.3 265.8 150.8 263.7 150.8 C 261.9 150.8 261 151.9 260.9 153.4 C 260.89 153.36 260.9 153.4 260.9 153.4 L 266.5 153.4 Z M 262.4 145.8 L 264.7 148.4 L 263.5 148.4 L 260.9 145.8 L 262.4 145.8 Z M 270.1 152.2 C 270.1 151.5 270.1 150.7 270.1 150 C 270.1 150 271.3 150 271.3 150 C 271.3 150.2 271.3 151 271.3 151.9 C 271.9 150.6 273.1 149.8 274.6 149.8 C 274.6 149.8 274.6 151 274.6 151 C 272.8 150.9 271.3 152.2 271.3 154.6 C 271.32 154.56 271.3 158 271.3 158 L 270.1 158 C 270.1 158 270.11 152.18 270.1 152.2 Z M 277 154.3 C 277 154.3 277.01 154.29 277 154.3 C 277.1 156 278.2 157.2 280 157.2 C 281.3 157.2 282.1 156.7 282.6 155.8 C 282.58 155.8 282.6 155.8 282.6 155.8 L 283.8 155.8 C 283.8 155.8 283.79 155.8 283.8 155.8 C 283.4 156.9 282.3 158.3 279.9 158.3 C 277.1 158.3 275.8 156.2 275.8 154 C 275.8 154 275.8 154 275.8 154 C 275.8 151.6 277.4 149.8 279.9 149.8 C 282.9 149.8 283.9 152 283.9 154 C 283.9 154.1 283.9 154.2 283.9 154.3 C 283.91 154.29 277 154.3 277 154.3 Z M 282.6 153.4 C 282.6 153.4 282.63 153.36 282.6 153.4 C 282.6 152.3 282 150.8 279.8 150.8 C 278.1 150.8 277.2 151.9 277 153.4 C 277.04 153.36 277 153.4 277 153.4 L 282.6 153.4 Z M 285 160.3 C 285.9 158.5 286.3 157 286.4 155.6 C 286.4 155.6 287.6 155.6 287.6 155.6 C 287.5 156.9 287 158.9 286.1 160.3 C 286.1 160.3 285 160.3 285 160.3 Z M 299.8 154.3 C 299.8 154.3 299.83 154.29 299.8 154.3 C 299.9 156 301.1 157.2 302.8 157.2 C 304.2 157.2 304.9 156.7 305.4 155.8 C 305.4 155.8 305.4 155.8 305.4 155.8 L 306.6 155.8 C 306.6 155.8 306.61 155.8 306.6 155.8 C 306.2 156.9 305.1 158.3 302.7 158.3 C 300 158.3 298.6 156.2 298.6 154 C 298.6 154 298.6 154 298.6 154 C 298.6 151.6 300.3 149.8 302.7 149.8 C 305.7 149.8 306.7 152 306.7 154 C 306.7 154.1 306.7 154.2 306.7 154.3 C 306.73 154.29 299.8 154.3 299.8 154.3 Z M 305.5 153.4 C 305.5 153.4 305.45 153.36 305.5 153.4 C 305.4 152.3 304.8 150.8 302.7 150.8 C 300.9 150.8 300 151.9 299.9 153.4 C 299.86 153.36 299.9 153.4 299.9 153.4 L 305.5 153.4 Z M 309.1 158 L 309.1 146 L 310.3 146 L 310.3 158 L 309.1 158 Z M 313.2 158 L 313.2 146 L 314.4 146 L 314.4 158 L 313.2 158 Z M 318 154.3 C 318 154.3 318.02 154.29 318 154.3 C 318.1 156 319.2 157.2 321 157.2 C 322.3 157.2 323.1 156.7 323.6 155.8 C 323.59 155.8 323.6 155.8 323.6 155.8 L 324.8 155.8 C 324.8 155.8 324.8 155.8 324.8 155.8 C 324.4 156.9 323.3 158.3 320.9 158.3 C 318.1 158.3 316.8 156.2 316.8 154 C 316.8 154 316.8 154 316.8 154 C 316.8 151.6 318.4 149.8 320.9 149.8 C 323.9 149.8 324.9 152 324.9 154 C 324.9 154.1 324.9 154.2 324.9 154.3 C 324.92 154.29 318 154.3 318 154.3 Z M 323.6 153.4 C 323.6 153.4 323.64 153.36 323.6 153.4 C 323.6 152.3 323 150.8 320.9 150.8 C 319.1 150.8 318.2 151.9 318 153.4 C 318.05 153.36 318 153.4 318 153.4 L 323.6 153.4 Z M 337.4 156.7 C 337.4 156.73 337.4 161.6 337.4 161.6 L 336.2 161.6 C 336.2 161.6 336.2 152.01 336.2 152 C 336.2 151.3 336.2 150.7 336.2 150 C 336.2 150 337.4 150 337.4 150 C 337.4 150.2 337.4 150.8 337.4 151.5 C 337.9 150.6 338.9 149.8 340.6 149.8 C 342.8 149.8 344.3 151.6 344.3 153.9 C 344.3 153.9 344.3 153.9 344.3 153.9 C 344.3 156.5 342.6 158.3 340.4 158.3 C 338.6 158.3 337.9 157.5 337.4 156.7 Z M 343.1 153.9 C 343.1 153.9 343.1 153.9 343.1 153.9 C 343.1 152.4 342.2 150.8 340.2 150.8 C 338.3 150.8 337.4 152.3 337.4 154.1 C 337.4 154.1 337.4 154.1 337.4 154.1 C 337.4 155.8 338.3 157.2 340.2 157.2 C 342.1 157.2 343.1 155.6 343.1 153.9 Z M 354.6 154 C 354.6 154 354.6 154 354.6 154 C 354.6 156.2 353.2 158.3 350.4 158.3 C 347.7 158.3 346.2 156.3 346.2 154 C 346.2 154 346.2 154 346.2 154 C 346.2 151.7 347.8 149.8 350.4 149.8 C 353.1 149.8 354.6 151.8 354.6 154 Z M 347.4 154 C 347.4 154 347.4 154 347.4 154 C 347.4 155.6 348.5 157.2 350.4 157.2 C 352.4 157.2 353.3 155.8 353.3 154 C 353.3 154 353.3 154 353.3 154 C 353.3 152.3 352.3 150.8 350.4 150.8 C 348.4 150.8 347.4 152.3 347.4 154 Z M 364.1 155.7 C 364.1 156.5 364.1 157.3 364.1 158 C 364.1 158 363 158 363 158 C 362.9 157.8 362.9 157.2 362.9 156.6 C 362.5 157.6 361.7 158.3 360 158.3 C 358.2 158.3 356.9 157.3 356.9 155 C 356.92 155.01 356.9 150 356.9 150 L 358.1 150 C 358.1 150 358.13 154.77 358.1 154.8 C 358.1 156 358.6 157.2 360.2 157.2 C 362.1 157.2 362.9 156.1 362.9 153.6 C 362.89 153.61 362.9 150 362.9 150 L 364.1 150 C 364.1 150 364.1 155.69 364.1 155.7 Z M 367 152.2 C 367 151.5 367 150.7 367 150 C 367 150 368.2 150 368.2 150 C 368.2 150.2 368.2 151 368.2 151.9 C 368.8 150.6 370 149.8 371.5 149.8 C 371.5 149.8 371.5 151 371.5 151 C 369.7 150.9 368.2 152.2 368.2 154.6 C 368.23 154.56 368.2 158 368.2 158 L 367 158 C 367 158 367.02 152.18 367 152.2 Z M 373.5 152.2 C 373.5 151.5 373.5 150.7 373.5 150 C 373.5 150 374.6 150 374.6 150 C 374.7 150.2 374.7 151 374.7 151.9 C 375.2 150.6 376.5 149.8 378 149.8 C 378 149.8 378 151 378 151 C 376.1 150.9 374.7 152.2 374.7 154.6 C 374.7 154.56 374.7 158 374.7 158 L 373.5 158 C 373.5 158 373.49 152.18 373.5 152.2 Z M 386.6 156.1 C 386.6 156.8 386.7 157.9 386.7 158 C 386.7 158 385.5 158 385.5 158 C 385.5 157.7 385.5 157.1 385.5 156.8 C 385 157.7 384.1 158.3 382.4 158.3 C 380.1 158.3 379.2 156.9 379.2 155.7 C 379.2 155.7 379.2 155.7 379.2 155.7 C 379.2 153.6 381.1 153.1 383.4 153.1 C 384.5 153.1 385.2 153.1 385.4 153.1 C 385.4 153.1 385.4 152.6 385.4 152.6 C 385.4 151.7 385 150.7 383.2 150.7 C 381.5 150.7 381.1 151.5 380.9 152.3 C 380.92 152.32 380.9 152.3 380.9 152.3 L 379.7 152.3 C 379.7 152.3 379.71 152.32 379.7 152.3 C 379.8 151.2 380.5 149.8 383.2 149.8 C 385.9 149.8 386.6 151.1 386.6 152.5 C 386.6 152.5 386.6 156.1 386.6 156.1 Z M 385.4 154 C 385.2 154 384.6 154 383.4 154 C 381.4 154 380.5 154.4 380.5 155.6 C 380.5 155.6 380.5 155.6 380.5 155.6 C 380.5 156.5 381.1 157.3 382.5 157.3 C 384.9 157.3 385.4 155.8 385.4 154.4 C 385.4 154.4 385.4 154 385.4 154 Z M 389.5 150 L 390.7 150 L 390.7 158 L 389.5 158 L 389.5 150 Z M 389.5 146 L 390.7 146 L 390.7 147.7 L 389.5 147.7 L 389.5 146 Z M 392.7 150 L 394.3 150 L 394.3 147.3 L 395.5 147.3 L 395.5 150 L 397.7 150 L 397.7 151 L 395.5 151 C 395.5 151 395.52 155.7 395.5 155.7 C 395.5 156.7 395.8 157.1 396.7 157.1 C 396.9 157.1 397.3 157.1 397.5 157.1 C 397.5 157.1 397.5 158 397.5 158 C 397.2 158.1 396.8 158.1 396.4 158.1 C 394.8 158.1 394.3 157.4 394.3 155.8 C 394.31 155.82 394.3 151 394.3 151 L 392.7 151 L 392.7 150 Z M 408.7 158 L 408.7 146 L 409.9 146 L 409.9 158 L 408.7 158 Z M 412.8 150 L 414 150 L 414 158 L 412.8 158 L 412.8 150 Z M 412.8 146 L 414 146 L 414 147.7 L 412.8 147.7 L 412.8 146 Z M 416.9 152.1 C 416.9 151.4 416.9 150.7 416.9 150 C 416.9 150 418.1 150 418.1 150 C 418.1 150.3 418.1 150.8 418.1 151.3 C 418.5 150.5 419.3 149.8 420.8 149.8 C 422.1 149.8 422.9 150.4 423.3 151.4 C 423.7 150.6 424.5 149.8 426 149.8 C 427.6 149.8 428.9 150.7 428.9 153 C 428.89 153.03 428.9 158 428.9 158 L 427.7 158 C 427.7 158 427.69 153.09 427.7 153.1 C 427.7 152.1 427.4 150.8 425.8 150.8 C 424.4 150.8 423.5 151.8 423.5 153.6 C 423.52 153.64 423.5 158 423.5 158 L 422.3 158 C 422.3 158 422.31 153 422.3 153 C 422.3 152 422 150.8 420.4 150.8 C 418.8 150.8 418.1 152.1 418.1 153.8 C 418.14 153.78 418.1 158 418.1 158 L 416.9 158 C 416.9 158 416.94 152.07 416.9 152.1 Z M 431.8 150 L 433 150 L 433 158 L 431.8 158 L 431.8 150 Z M 431.8 146 L 433 146 L 433 147.7 L 431.8 147.7 L 431.8 146 Z M 435 150 L 436.6 150 L 436.6 147.3 L 437.8 147.3 L 437.8 150 L 440 150 L 440 151 L 437.8 151 C 437.8 151 437.81 155.7 437.8 155.7 C 437.8 156.7 438.1 157.1 439 157.1 C 439.2 157.1 439.6 157.1 439.8 157.1 C 439.8 157.1 439.8 158 439.8 158 C 439.5 158.1 439.1 158.1 438.7 158.1 C 437.1 158.1 436.6 157.4 436.6 155.8 C 436.59 155.82 436.6 151 436.6 151 L 435 151 L 435 150 Z M 442.4 154.3 C 442.4 154.3 442.43 154.29 442.4 154.3 C 442.5 156 443.7 157.2 445.4 157.2 C 446.8 157.2 447.5 156.7 448 155.8 C 448 155.8 448 155.8 448 155.8 L 449.2 155.8 C 449.2 155.8 449.21 155.8 449.2 155.8 C 448.8 156.9 447.7 158.3 445.3 158.3 C 442.6 158.3 441.2 156.2 441.2 154 C 441.2 154 441.2 154 441.2 154 C 441.2 151.6 442.9 149.8 445.3 149.8 C 448.3 149.8 449.3 152 449.3 154 C 449.3 154.1 449.3 154.2 449.3 154.3 C 449.33 154.29 442.4 154.3 442.4 154.3 Z M 448.1 153.4 C 448.1 153.4 448.05 153.36 448.1 153.4 C 448 152.3 447.4 150.8 445.3 150.8 C 443.5 150.8 442.6 151.9 442.5 153.4 C 442.46 153.36 442.5 153.4 442.5 153.4 L 448.1 153.4 Z " stroke="none" fill="#141414"/>  </g>  <g id="Polygon10478">    <path d="M 1.9 130 C 1.9 130 1.94 129.97 1.9 130 C 2 131.7 3.2 132.9 4.9 132.9 C 6.3 132.9 7 132.3 7.5 131.5 C 7.51 131.48 7.5 131.5 7.5 131.5 L 8.7 131.5 C 8.7 131.5 8.71 131.48 8.7 131.5 C 8.3 132.6 7.2 133.9 4.8 133.9 C 2.1 133.9 0.7 131.9 0.7 129.7 C 0.7 129.7 0.7 129.7 0.7 129.7 C 0.7 127.2 2.4 125.4 4.8 125.4 C 7.8 125.4 8.8 127.7 8.8 129.6 C 8.8 129.7 8.8 129.8 8.8 130 C 8.83 129.97 1.9 130 1.9 130 Z M 7.6 129 C 7.6 129 7.56 129.04 7.6 129 C 7.5 128 6.9 126.4 4.8 126.4 C 3 126.4 2.1 127.6 2 129 C 1.97 129.04 2 129 2 129 L 7.6 129 Z M 11.2 133.7 L 11.2 121.7 L 12.4 121.7 L 12.4 133.7 L 11.2 133.7 Z M 15.3 133.7 L 15.3 121.7 L 16.5 121.7 L 16.5 133.7 L 15.3 133.7 Z M 20.1 130 C 20.1 130 20.12 129.97 20.1 130 C 20.2 131.7 21.4 132.9 23.1 132.9 C 24.5 132.9 25.2 132.3 25.7 131.5 C 25.69 131.48 25.7 131.5 25.7 131.5 L 26.9 131.5 C 26.9 131.5 26.9 131.48 26.9 131.5 C 26.5 132.6 25.4 133.9 23 133.9 C 20.2 133.9 18.9 131.9 18.9 129.7 C 18.9 129.7 18.9 129.7 18.9 129.7 C 18.9 127.2 20.5 125.4 23 125.4 C 26 125.4 27 127.7 27 129.6 C 27 129.7 27 129.8 27 130 C 27.02 129.97 20.1 130 20.1 130 Z M 25.7 129 C 25.7 129 25.74 129.04 25.7 129 C 25.7 128 25.1 126.4 23 126.4 C 21.2 126.4 20.3 127.6 20.2 129 C 20.15 129.04 20.2 129 20.2 129 L 25.7 129 Z M 40.8 132.4 C 40.78 132.41 40.8 137.3 40.8 137.3 L 39.6 137.3 C 39.6 137.3 39.57 127.69 39.6 127.7 C 39.6 127 39.6 126.3 39.6 125.7 C 39.6 125.7 40.7 125.7 40.7 125.7 C 40.8 125.9 40.8 126.5 40.8 127.2 C 41.3 126.3 42.2 125.4 44 125.4 C 46.2 125.4 47.7 127.2 47.7 129.6 C 47.7 129.6 47.7 129.6 47.7 129.6 C 47.7 132.1 45.9 133.9 43.7 133.9 C 42 133.9 41.2 133.2 40.8 132.4 Z M 46.5 129.6 C 46.5 129.6 46.5 129.6 46.5 129.6 C 46.5 128.1 45.6 126.5 43.6 126.5 C 41.6 126.5 40.7 127.9 40.7 129.7 C 40.7 129.7 40.7 129.7 40.7 129.7 C 40.7 131.5 41.7 132.9 43.6 132.9 C 45.5 132.9 46.5 131.3 46.5 129.6 Z M 50.8 130 C 50.8 130 50.79 129.97 50.8 130 C 50.9 131.7 52 132.9 53.8 132.9 C 55.1 132.9 55.9 132.3 56.4 131.5 C 56.36 131.48 56.4 131.5 56.4 131.5 L 57.6 131.5 C 57.6 131.5 57.57 131.48 57.6 131.5 C 57.2 132.6 56 133.9 53.7 133.9 C 50.9 133.9 49.6 131.9 49.6 129.7 C 49.6 129.7 49.6 129.7 49.6 129.7 C 49.6 127.2 51.2 125.4 53.6 125.4 C 56.7 125.4 57.7 127.7 57.7 129.6 C 57.7 129.7 57.7 129.8 57.7 130 C 57.69 129.97 50.8 130 50.8 130 Z M 56.4 129 C 56.4 129 56.41 129.04 56.4 129 C 56.3 128 55.8 126.4 53.6 126.4 C 51.9 126.4 51 127.6 50.8 129 C 50.82 129.04 50.8 129 50.8 129 L 56.4 129 Z M 67.2 131.4 C 67.2 132.2 67.2 132.9 67.2 133.7 C 67.2 133.7 66 133.7 66 133.7 C 66 133.5 66 132.9 66 132.2 C 65.6 133.2 64.8 133.9 63 133.9 C 61.3 133.9 60 133 60 130.7 C 60.01 130.69 60 125.7 60 125.7 L 61.2 125.7 C 61.2 125.7 61.22 130.45 61.2 130.5 C 61.2 131.7 61.7 132.9 63.3 132.9 C 65.2 132.9 66 131.8 66 129.3 C 65.98 129.29 66 125.7 66 125.7 L 67.2 125.7 C 67.2 125.7 67.19 131.37 67.2 131.4 Z M 69.1 125.7 L 70.8 125.7 L 70.8 123 L 72 123 L 72 125.7 L 74.2 125.7 L 74.2 126.7 L 72 126.7 C 72 126.7 71.99 131.38 72 131.4 C 72 132.4 72.3 132.8 73.2 132.8 C 73.4 132.8 73.7 132.8 74 132.7 C 74 132.7 74 133.7 74 133.7 C 73.6 133.8 73.3 133.8 72.8 133.8 C 71.3 133.8 70.8 133.1 70.8 131.5 C 70.78 131.5 70.8 126.7 70.8 126.7 L 69.1 126.7 L 69.1 125.7 Z M 86.5 133.7 L 86.5 121.7 L 87.7 121.7 L 87.7 133.7 L 86.5 133.7 Z M 91.3 130 C 91.3 130 91.29 129.97 91.3 130 C 91.4 131.7 92.5 132.9 94.3 132.9 C 95.6 132.9 96.4 132.3 96.9 131.5 C 96.86 131.48 96.9 131.5 96.9 131.5 L 98.1 131.5 C 98.1 131.5 98.07 131.48 98.1 131.5 C 97.7 132.6 96.5 133.9 94.2 133.9 C 91.4 133.9 90.1 131.9 90.1 129.7 C 90.1 129.7 90.1 129.7 90.1 129.7 C 90.1 127.2 91.7 125.4 94.1 125.4 C 97.2 125.4 98.2 127.7 98.2 129.6 C 98.2 129.7 98.2 129.8 98.2 130 C 98.19 129.97 91.3 130 91.3 130 Z M 96.9 129 C 96.9 129 96.91 129.04 96.9 129 C 96.8 128 96.3 126.4 94.1 126.4 C 92.4 126.4 91.5 127.6 91.3 129 C 91.33 129.04 91.3 129 91.3 129 L 96.9 129 Z M 111.2 133.7 L 111.2 126.7 L 109.6 126.7 L 109.6 125.7 L 111.2 125.7 C 111.2 125.7 111.2 124.47 111.2 124.5 C 111.2 122.7 111.9 121.5 113.8 121.5 C 114.2 121.5 114.5 121.6 114.7 121.6 C 114.7 121.6 114.7 122.7 114.7 122.7 C 114.4 122.6 114.1 122.6 113.9 122.6 C 112.7 122.6 112.4 123.1 112.4 124.6 C 112.41 124.57 112.4 125.7 112.4 125.7 L 114.4 125.7 L 114.4 126.7 L 112.4 126.7 L 112.4 133.7 L 111.2 133.7 Z M 122.9 131.8 C 122.9 132.5 122.9 133.5 122.9 133.7 C 122.9 133.7 121.8 133.7 121.8 133.7 C 121.7 133.4 121.7 132.7 121.7 132.5 C 121.3 133.3 120.4 133.9 118.6 133.9 C 116.3 133.9 115.5 132.6 115.5 131.4 C 115.5 131.4 115.5 131.4 115.5 131.4 C 115.5 129.3 117.4 128.8 119.6 128.8 C 120.7 128.8 121.4 128.8 121.7 128.8 C 121.7 128.8 121.7 128.3 121.7 128.3 C 121.7 127.3 121.3 126.4 119.4 126.4 C 117.7 126.4 117.3 127.2 117.2 128 C 117.15 128 117.2 128 117.2 128 L 115.9 128 C 115.9 128 115.94 128 115.9 128 C 116 126.9 116.8 125.4 119.4 125.4 C 122.2 125.4 122.9 126.8 122.9 128.1 C 122.9 128.1 122.9 131.8 122.9 131.8 Z M 121.7 129.7 C 121.4 129.7 120.9 129.7 119.7 129.7 C 117.7 129.7 116.7 130.1 116.7 131.3 C 116.7 131.3 116.7 131.3 116.7 131.3 C 116.7 132.2 117.3 132.9 118.8 132.9 C 121.1 132.9 121.7 131.5 121.7 130.1 C 121.7 130.1 121.7 129.7 121.7 129.7 Z M 125.8 125.7 L 127 125.7 L 127 133.7 L 125.8 133.7 L 125.8 125.7 Z M 125.8 121.7 L 127 121.7 L 127 123.4 L 125.8 123.4 L 125.8 121.7 Z M 129.9 127.9 C 129.9 127.1 129.9 126.4 129.9 125.7 C 129.9 125.7 131 125.7 131 125.7 C 131 125.9 131.1 126.7 131.1 127.5 C 131.6 126.3 132.8 125.4 134.4 125.4 C 134.4 125.4 134.4 126.6 134.4 126.6 C 132.5 126.6 131.1 127.8 131.1 130.2 C 131.08 130.24 131.1 133.7 131.1 133.7 L 129.9 133.7 C 129.9 133.7 129.87 127.86 129.9 127.9 Z M 136.8 130 C 136.8 130 136.77 129.97 136.8 130 C 136.9 131.7 138 132.9 139.8 132.9 C 141.1 132.9 141.9 132.3 142.3 131.5 C 142.34 131.48 142.3 131.5 142.3 131.5 L 143.5 131.5 C 143.5 131.5 143.54 131.48 143.5 131.5 C 143.1 132.6 142 133.9 139.7 133.9 C 136.9 133.9 135.5 131.9 135.5 129.7 C 135.5 129.7 135.5 129.7 135.5 129.7 C 135.5 127.2 137.2 125.4 139.6 125.4 C 142.6 125.4 143.7 127.7 143.7 129.6 C 143.7 129.7 143.7 129.8 143.7 130 C 143.66 129.97 136.8 130 136.8 130 Z M 142.4 129 C 142.4 129 142.39 129.04 142.4 129 C 142.3 128 141.8 126.4 139.6 126.4 C 137.9 126.4 137 127.6 136.8 129 C 136.8 129.04 136.8 129 136.8 129 L 142.4 129 Z M 144.8 136 C 145.7 134.2 146 132.7 146.1 131.3 C 146.1 131.3 147.4 131.3 147.4 131.3 C 147.3 132.5 146.7 134.6 145.9 136 C 145.9 136 144.8 136 144.8 136 Z M 167.1 131.8 C 167.1 132.5 167.1 133.5 167.1 133.7 C 167.1 133.7 166 133.7 166 133.7 C 165.9 133.4 165.9 132.7 165.9 132.5 C 165.5 133.3 164.6 133.9 162.8 133.9 C 160.5 133.9 159.7 132.6 159.7 131.4 C 159.7 131.4 159.7 131.4 159.7 131.4 C 159.7 129.3 161.5 128.8 163.8 128.8 C 164.9 128.8 165.6 128.8 165.9 128.8 C 165.9 128.8 165.9 128.3 165.9 128.3 C 165.9 127.3 165.5 126.4 163.6 126.4 C 161.9 126.4 161.5 127.2 161.3 128 C 161.34 128 161.3 128 161.3 128 L 160.1 128 C 160.1 128 160.14 128 160.1 128 C 160.2 126.9 161 125.4 163.6 125.4 C 166.4 125.4 167.1 126.8 167.1 128.1 C 167.1 128.1 167.1 131.8 167.1 131.8 Z M 165.9 129.7 C 165.6 129.7 165.1 129.7 163.9 129.7 C 161.9 129.7 160.9 130.1 160.9 131.3 C 160.9 131.3 160.9 131.3 160.9 131.3 C 160.9 132.2 161.5 132.9 163 132.9 C 165.3 132.9 165.9 131.5 165.9 130.1 C 165.9 130.1 165.9 129.7 165.9 129.7 Z M 170 127.9 C 170 127.1 170 126.4 169.9 125.7 C 169.9 125.7 171.1 125.7 171.1 125.7 C 171.1 125.9 171.2 126.7 171.2 127.5 C 171.7 126.3 172.9 125.4 174.5 125.4 C 174.5 125.4 174.5 126.6 174.5 126.6 C 172.6 126.6 171.2 127.8 171.2 130.2 C 171.17 130.24 171.2 133.7 171.2 133.7 L 170 133.7 C 170 133.7 169.96 127.86 170 127.9 Z M 176.4 127.9 C 176.4 127.1 176.4 126.4 176.4 125.7 C 176.4 125.7 177.6 125.7 177.6 125.7 C 177.6 125.9 177.6 126.7 177.6 127.5 C 178.2 126.3 179.4 125.4 180.9 125.4 C 180.9 125.4 180.9 126.6 180.9 126.6 C 179.1 126.6 177.6 127.8 177.6 130.2 C 177.64 130.24 177.6 133.7 177.6 133.7 L 176.4 133.7 C 176.4 133.7 176.43 127.86 176.4 127.9 Z M 182.9 125.7 L 184.1 125.7 L 184.1 133.7 L 182.9 133.7 L 182.9 125.7 Z M 182.9 121.7 L 184.1 121.7 L 184.1 123.4 L 182.9 123.4 L 182.9 121.7 Z M 187.3 125.7 C 188 127.2 190 131.7 190.3 132.6 C 190.3 132.6 190.3 132.6 190.3 132.6 C 190.5 132 191.1 130.7 193.3 125.7 C 193.29 125.67 194.5 125.7 194.5 125.7 L 190.9 133.7 L 189.6 133.7 L 186 125.7 C 186 125.7 187.34 125.67 187.3 125.7 Z M 196.8 130 C 196.8 130 196.78 129.97 196.8 130 C 196.9 131.7 198 132.9 199.8 132.9 C 201.1 132.9 201.9 132.3 202.3 131.5 C 202.35 131.48 202.3 131.5 202.3 131.5 L 203.6 131.5 C 203.6 131.5 203.56 131.48 203.6 131.5 C 203.1 132.6 202 133.9 199.7 133.9 C 196.9 133.9 195.6 131.9 195.6 129.7 C 195.6 129.7 195.6 129.7 195.6 129.7 C 195.6 127.2 197.2 125.4 199.6 125.4 C 202.7 125.4 203.7 127.7 203.7 129.6 C 203.7 129.7 203.7 129.8 203.7 130 C 203.68 129.97 196.8 130 196.8 130 Z M 202.4 129 C 202.4 129 202.4 129.04 202.4 129 C 202.3 128 201.8 126.4 199.6 126.4 C 197.9 126.4 197 127.6 196.8 129 C 196.81 129.04 196.8 129 196.8 129 L 202.4 129 Z M 206 127.9 C 206 127.1 206 126.4 206 125.7 C 206 125.7 207.2 125.7 207.2 125.7 C 207.2 125.9 207.2 126.7 207.2 127.5 C 207.8 126.3 209 125.4 210.5 125.4 C 210.5 125.4 210.5 126.6 210.5 126.6 C 208.7 126.6 207.2 127.8 207.2 130.2 C 207.24 130.24 207.2 133.7 207.2 133.7 L 206 133.7 C 206 133.7 206.03 127.86 206 127.9 Z M 223.3 130 C 223.3 130 223.28 129.97 223.3 130 C 223.4 131.7 224.5 132.9 226.3 132.9 C 227.6 132.9 228.4 132.3 228.9 131.5 C 228.86 131.48 228.9 131.5 228.9 131.5 L 230.1 131.5 C 230.1 131.5 230.06 131.48 230.1 131.5 C 229.6 132.6 228.5 133.9 226.2 133.9 C 223.4 133.9 222.1 131.9 222.1 129.7 C 222.1 129.7 222.1 129.7 222.1 129.7 C 222.1 127.2 223.7 125.4 226.1 125.4 C 229.2 125.4 230.2 127.7 230.2 129.6 C 230.2 129.7 230.2 129.8 230.2 130 C 230.18 129.97 223.3 130 223.3 130 Z M 228.9 129 C 228.9 129 228.91 129.04 228.9 129 C 228.8 128 228.3 126.4 226.1 126.4 C 224.4 126.4 223.5 127.6 223.3 129 C 223.32 129.04 223.3 129 223.3 129 L 228.9 129 Z M 232.5 127.7 C 232.5 127 232.5 126.3 232.5 125.7 C 232.5 125.7 233.7 125.7 233.7 125.7 C 233.7 126 233.7 126.7 233.7 127.3 C 234.1 126.5 235 125.4 236.7 125.4 C 238.6 125.4 239.8 126.6 239.8 128.8 C 239.84 128.84 239.8 133.7 239.8 133.7 L 238.6 133.7 C 238.6 133.7 238.62 129.07 238.6 129.1 C 238.6 127.6 238.1 126.5 236.5 126.5 C 234.7 126.5 233.7 127.9 233.7 129.9 C 233.75 129.91 233.7 133.7 233.7 133.7 L 232.5 133.7 C 232.5 133.7 232.54 127.7 232.5 127.7 Z M 254.3 121.7 C 254.3 121.7 254.27 127.25 254.3 127.2 C 254.6 126.6 255.3 125.4 257.3 125.4 C 259.1 125.4 260.4 126.6 260.4 128.9 C 260.36 128.85 260.4 133.7 260.4 133.7 L 259.1 133.7 C 259.1 133.7 259.15 129.06 259.1 129.1 C 259.1 127.6 258.6 126.5 257 126.5 C 255.1 126.5 254.3 128 254.3 129.7 C 254.27 129.74 254.3 133.7 254.3 133.7 L 253.1 133.7 L 253.1 121.7 L 254.3 121.7 Z M 270.1 131.8 C 270.1 132.5 270.1 133.5 270.2 133.7 C 270.2 133.7 269 133.7 269 133.7 C 269 133.4 268.9 132.7 268.9 132.5 C 268.5 133.3 267.6 133.9 265.8 133.9 C 263.5 133.9 262.7 132.6 262.7 131.4 C 262.7 131.4 262.7 131.4 262.7 131.4 C 262.7 129.3 264.6 128.8 266.9 128.8 C 267.9 128.8 268.6 128.8 268.9 128.8 C 268.9 128.8 268.9 128.3 268.9 128.3 C 268.9 127.3 268.5 126.4 266.6 126.4 C 265 126.4 264.6 127.2 264.4 128 C 264.39 128 264.4 128 264.4 128 L 263.2 128 C 263.2 128 263.18 128 263.2 128 C 263.3 126.9 264 125.4 266.6 125.4 C 269.4 125.4 270.1 126.8 270.1 128.1 C 270.1 128.1 270.1 131.8 270.1 131.8 Z M 268.9 129.7 C 268.6 129.7 268.1 129.7 266.9 129.7 C 264.9 129.7 263.9 130.1 263.9 131.3 C 263.9 131.3 263.9 131.3 263.9 131.3 C 263.9 132.2 264.6 132.9 266 132.9 C 268.4 132.9 268.9 131.5 268.9 130.1 C 268.9 130.1 268.9 129.7 268.9 129.7 Z M 280.1 131.4 C 280.1 132.2 280.1 132.9 280.1 133.7 C 280.1 133.7 279 133.7 279 133.7 C 278.9 133.5 278.9 132.9 278.9 132.2 C 278.5 133.2 277.7 133.9 276 133.9 C 274.2 133.9 272.9 133 272.9 130.7 C 272.93 130.69 272.9 125.7 272.9 125.7 L 274.1 125.7 C 274.1 125.7 274.14 130.45 274.1 130.5 C 274.1 131.7 274.6 132.9 276.2 132.9 C 278.1 132.9 278.9 131.8 278.9 129.3 C 278.9 129.29 278.9 125.7 278.9 125.7 L 280.1 125.7 C 280.1 125.7 280.11 131.37 280.1 131.4 Z M 282.1 125.7 L 283.7 125.7 L 283.7 123 L 284.9 123 L 284.9 125.7 L 287.1 125.7 L 287.1 126.7 L 284.9 126.7 C 284.9 126.7 284.91 131.38 284.9 131.4 C 284.9 132.4 285.2 132.8 286.1 132.8 C 286.3 132.8 286.7 132.8 286.9 132.7 C 286.9 132.7 286.9 133.7 286.9 133.7 C 286.6 133.8 286.2 133.8 285.8 133.8 C 284.2 133.8 283.7 133.1 283.7 131.5 C 283.7 131.5 283.7 126.7 283.7 126.7 L 282.1 126.7 L 282.1 125.7 Z M 306.9 121.7 C 306.9 121.7 306.9 131.36 306.9 131.4 C 306.9 132.1 306.9 132.9 306.9 133.7 C 306.9 133.7 305.8 133.7 305.8 133.7 C 305.7 133.3 305.7 132.8 305.7 132.4 C 305.3 133.1 304.6 133.9 302.6 133.9 C 300.3 133.9 298.8 132.2 298.8 129.8 C 298.8 129.8 298.8 129.8 298.8 129.8 C 298.8 127.1 300.7 125.4 302.8 125.4 C 304.8 125.4 305.5 126.4 305.7 126.8 C 305.69 126.81 305.7 121.7 305.7 121.7 L 306.9 121.7 Z M 300 129.7 C 300 129.7 300 129.7 300 129.7 C 300 131.3 300.9 132.9 302.8 132.9 C 304.9 132.9 305.8 131.6 305.8 129.7 C 305.8 129.7 305.8 129.7 305.8 129.7 C 305.8 127.8 305.1 126.5 302.9 126.5 C 300.9 126.5 300 128.1 300 129.7 Z M 310.5 130 C 310.5 130 310.49 129.97 310.5 130 C 310.6 131.7 311.7 132.9 313.5 132.9 C 314.8 132.9 315.6 132.3 316.1 131.5 C 316.06 131.48 316.1 131.5 316.1 131.5 L 317.3 131.5 C 317.3 131.5 317.27 131.48 317.3 131.5 C 316.9 132.6 315.7 133.9 313.4 133.9 C 310.6 133.9 309.3 131.9 309.3 129.7 C 309.3 129.7 309.3 129.7 309.3 129.7 C 309.3 127.2 310.9 125.4 313.3 125.4 C 316.4 125.4 317.4 127.7 317.4 129.6 C 317.4 129.7 317.4 129.8 317.4 130 C 317.39 129.97 310.5 130 310.5 130 Z M 316.1 129 C 316.1 129 316.12 129.04 316.1 129 C 316 128 315.5 126.4 313.3 126.4 C 311.6 126.4 310.7 127.6 310.5 129 C 310.53 129.04 310.5 129 310.5 129 L 316.1 129 Z M 320.3 131.3 C 320.3 131.3 320.32 131.29 320.3 131.3 C 320.6 132.4 321.5 133 323.1 133 C 324.8 133 325.4 132.4 325.4 131.5 C 325.4 130.8 325 130.3 322.8 130 C 320 129.7 319.5 128.8 319.5 127.8 C 319.5 126.8 320.3 125.4 322.8 125.4 C 325.6 125.4 326.3 126.9 326.4 127.8 C 326.36 127.82 326.4 127.8 326.4 127.8 L 325.1 127.8 C 325.1 127.8 325.13 127.82 325.1 127.8 C 325 127.3 324.7 126.4 322.7 126.4 C 321.1 126.4 320.7 127.1 320.7 127.7 C 320.7 128.3 321.1 128.7 323.1 129 C 326 129.4 326.6 130.2 326.6 131.5 C 326.6 132.9 325.5 133.9 323 133.9 C 320.6 133.9 319.4 132.9 319.1 131.3 C 319.09 131.29 319.1 131.3 319.1 131.3 L 320.3 131.3 Z M 339.2 127.7 C 339.2 127.1 339.2 126.4 339.2 125.7 C 339.2 125.7 340.4 125.7 340.4 125.7 C 340.4 126 340.5 126.5 340.4 126.9 C 340.8 126.2 341.6 125.4 343.1 125.4 C 344.4 125.4 345.2 126.1 345.6 127.1 C 346 126.3 346.8 125.4 348.4 125.4 C 349.9 125.4 351.2 126.3 351.2 128.7 C 351.19 128.71 351.2 133.7 351.2 133.7 L 350 133.7 C 350 133.7 349.99 128.77 350 128.8 C 350 127.8 349.7 126.5 348.1 126.5 C 346.7 126.5 345.8 127.5 345.8 129.3 C 345.82 129.32 345.8 133.7 345.8 133.7 L 344.6 133.7 C 344.6 133.7 344.62 128.68 344.6 128.7 C 344.6 127.7 344.3 126.5 342.7 126.5 C 341.1 126.5 340.4 127.8 340.4 129.5 C 340.45 129.46 340.4 133.7 340.4 133.7 L 339.2 133.7 C 339.2 133.7 339.24 127.75 339.2 127.7 Z M 360.9 131.8 C 360.9 132.5 361 133.5 361 133.7 C 361 133.7 359.9 133.7 359.9 133.7 C 359.8 133.4 359.8 132.7 359.8 132.5 C 359.3 133.3 358.4 133.9 356.7 133.9 C 354.4 133.9 353.6 132.6 353.6 131.4 C 353.6 131.4 353.6 131.4 353.6 131.4 C 353.6 129.3 355.4 128.8 357.7 128.8 C 358.8 128.8 359.5 128.8 359.8 128.8 C 359.8 128.8 359.8 128.3 359.8 128.3 C 359.8 127.3 359.4 126.4 357.5 126.4 C 355.8 126.4 355.4 127.2 355.2 128 C 355.24 128 355.2 128 355.2 128 L 354 128 C 354 128 354.03 128 354 128 C 354.1 126.9 354.9 125.4 357.5 125.4 C 360.3 125.4 360.9 126.8 360.9 128.1 C 360.9 128.1 360.9 131.8 360.9 131.8 Z M 359.8 129.7 C 359.5 129.7 359 129.7 357.8 129.7 C 355.7 129.7 354.8 130.1 354.8 131.3 C 354.8 131.3 354.8 131.3 354.8 131.3 C 354.8 132.2 355.4 132.9 356.9 132.9 C 359.2 132.9 359.8 131.5 359.8 130.1 C 359.8 130.1 359.8 129.7 359.8 129.7 Z M 363.9 127.9 C 363.9 127.1 363.9 126.4 363.8 125.7 C 363.8 125.7 365 125.7 365 125.7 C 365 125.9 365.1 126.7 365.1 127.5 C 365.6 126.3 366.8 125.4 368.4 125.4 C 368.4 125.4 368.4 126.6 368.4 126.6 C 366.5 126.6 365.1 127.8 365.1 130.2 C 365.06 130.24 365.1 133.7 365.1 133.7 L 363.9 133.7 C 363.9 133.7 363.85 127.86 363.9 127.9 Z M 377.5 131.3 C 377.5 131.3 377.53 131.26 377.5 131.3 C 377.1 132.7 375.9 133.9 373.7 133.9 C 370.9 133.9 369.5 132 369.5 129.7 C 369.5 129.7 369.5 129.7 369.5 129.7 C 369.5 127.4 371.1 125.4 373.7 125.4 C 376.3 125.4 377.3 127.1 377.5 128.2 C 377.52 128.19 377.5 128.2 377.5 128.2 L 376.3 128.2 C 376.3 128.2 376.31 128.19 376.3 128.2 C 376 127.3 375.3 126.5 373.7 126.5 C 371.9 126.5 370.8 127.8 370.8 129.7 C 370.8 129.7 370.8 129.7 370.8 129.7 C 370.8 131.5 371.8 132.9 373.7 132.9 C 375.1 132.9 375.9 132.2 376.3 131.3 C 376.32 131.26 376.3 131.3 376.3 131.3 L 377.5 131.3 Z M 381 121.7 C 381 121.7 381.03 127.25 381 127.2 C 381.3 126.6 382.1 125.4 384.1 125.4 C 385.9 125.4 387.1 126.6 387.1 128.9 C 387.12 128.85 387.1 133.7 387.1 133.7 L 385.9 133.7 C 385.9 133.7 385.91 129.06 385.9 129.1 C 385.9 127.6 385.4 126.5 383.8 126.5 C 381.9 126.5 381 128 381 129.7 C 381.04 129.74 381 133.7 381 133.7 L 379.8 133.7 L 379.8 121.7 L 381 121.7 Z M 390.7 130 C 390.7 130 390.68 129.97 390.7 130 C 390.8 131.7 391.9 132.9 393.7 132.9 C 395 132.9 395.8 132.3 396.3 131.5 C 396.25 131.48 396.3 131.5 396.3 131.5 L 397.5 131.5 C 397.5 131.5 397.46 131.48 397.5 131.5 C 397 132.6 395.9 133.9 393.6 133.9 C 390.8 133.9 389.5 131.9 389.5 129.7 C 389.5 129.7 389.5 129.7 389.5 129.7 C 389.5 127.2 391.1 125.4 393.5 125.4 C 396.6 125.4 397.6 127.7 397.6 129.6 C 397.6 129.7 397.6 129.8 397.6 130 C 397.58 129.97 390.7 130 390.7 130 Z M 396.3 129 C 396.3 129 396.3 129.04 396.3 129 C 396.2 128 395.7 126.4 393.5 126.4 C 391.8 126.4 390.9 127.6 390.7 129 C 390.72 129.04 390.7 129 390.7 129 L 396.3 129 Z M 400.5 131.3 C 400.5 131.3 400.51 131.29 400.5 131.3 C 400.8 132.4 401.7 133 403.3 133 C 405 133 405.6 132.4 405.6 131.5 C 405.6 130.8 405.2 130.3 403 130 C 400.2 129.7 399.7 128.8 399.7 127.8 C 399.7 126.8 400.5 125.4 403 125.4 C 405.8 125.4 406.5 126.9 406.6 127.8 C 406.55 127.82 406.6 127.8 406.6 127.8 L 405.3 127.8 C 405.3 127.8 405.32 127.82 405.3 127.8 C 405.2 127.3 404.9 126.4 402.9 126.4 C 401.3 126.4 400.9 127.1 400.9 127.7 C 400.9 128.3 401.3 128.7 403.3 129 C 406.2 129.4 406.8 130.2 406.8 131.5 C 406.8 132.9 405.7 133.9 403.2 133.9 C 400.8 133.9 399.6 132.9 399.3 131.3 C 399.28 131.29 399.3 131.3 399.3 131.3 L 400.5 131.3 Z M 408.2 136 C 409.1 134.2 409.4 132.7 409.5 131.3 C 409.5 131.3 410.8 131.3 410.8 131.3 C 410.7 132.5 410.1 134.6 409.3 136 C 409.3 136 408.2 136 408.2 136 Z M 424.2 130 C 424.2 130 424.24 129.97 424.2 130 C 424.3 131.7 425.5 132.9 427.2 132.9 C 428.6 132.9 429.3 132.3 429.8 131.5 C 429.82 131.48 429.8 131.5 429.8 131.5 L 431 131.5 C 431 131.5 431.02 131.48 431 131.5 C 430.6 132.6 429.5 133.9 427.1 133.9 C 424.4 133.9 423 131.9 423 129.7 C 423 129.7 423 129.7 423 129.7 C 423 127.2 424.7 125.4 427.1 125.4 C 430.1 125.4 431.1 127.7 431.1 129.6 C 431.1 129.7 431.1 129.8 431.1 130 C 431.14 129.97 424.2 130 424.2 130 Z M 429.9 129 C 429.9 129 429.87 129.04 429.9 129 C 429.8 128 429.2 126.4 427.1 126.4 C 425.3 126.4 424.4 127.6 424.3 129 C 424.28 129.04 424.3 129 424.3 129 L 429.9 129 Z M 433.5 133.7 L 433.5 121.7 L 434.7 121.7 L 434.7 133.7 L 433.5 133.7 Z M 437.6 133.7 L 437.6 121.7 L 438.8 121.7 L 438.8 133.7 L 437.6 133.7 Z M 442.4 130 C 442.4 130 442.43 129.97 442.4 130 C 442.5 131.7 443.7 132.9 445.4 132.9 C 446.8 132.9 447.5 132.3 448 131.5 C 448 131.48 448 131.5 448 131.5 L 449.2 131.5 C 449.2 131.5 449.21 131.48 449.2 131.5 C 448.8 132.6 447.7 133.9 445.3 133.9 C 442.6 133.9 441.2 131.9 441.2 129.7 C 441.2 129.7 441.2 129.7 441.2 129.7 C 441.2 127.2 442.9 125.4 445.3 125.4 C 448.3 125.4 449.3 127.7 449.3 129.6 C 449.3 129.7 449.3 129.8 449.3 130 C 449.33 129.97 442.4 130 442.4 130 Z M 448.1 129 C 448.1 129 448.05 129.04 448.1 129 C 448 128 447.4 126.4 445.3 126.4 C 443.5 126.4 442.6 127.6 442.5 129 C 442.46 129.04 442.5 129 442.5 129 L 448.1 129 Z " stroke="none" fill="#141414"/>  </g>  <g id="Polygon10477">    <path d="M 9.9 104 L 2.9 104 L 2.9 108.3 L 10.6 108.3 L 10.4 109.4 L 1.6 109.4 L 1.6 98 L 10.3 98 L 10.3 99.1 L 2.9 99.1 L 2.9 102.8 L 9.9 102.8 L 9.9 104 Z M 12.8 103.4 C 12.8 102.7 12.8 102 12.8 101.4 C 12.8 101.4 14 101.4 14 101.4 C 14 101.6 14 102.4 14 103 C 14.4 102.1 15.2 101.1 17 101.1 C 18.9 101.1 20.1 102.3 20.1 104.5 C 20.12 104.52 20.1 109.4 20.1 109.4 L 18.9 109.4 C 18.9 109.4 18.91 104.75 18.9 104.8 C 18.9 103.3 18.4 102.2 16.8 102.2 C 14.9 102.2 14 103.6 14 105.6 C 14.03 105.59 14 109.4 14 109.4 L 12.8 109.4 C 12.8 109.4 12.82 103.38 12.8 103.4 Z M 23.4 109.4 L 23.4 102.4 L 21.8 102.4 L 21.8 101.4 L 23.4 101.4 C 23.4 101.4 23.4 100.15 23.4 100.1 C 23.4 98.4 24.1 97.2 26 97.2 C 26.4 97.2 26.7 97.2 26.9 97.3 C 26.9 97.3 26.9 98.4 26.9 98.4 C 26.7 98.3 26.3 98.3 26.1 98.3 C 25 98.3 24.6 98.8 24.6 100.3 C 24.61 100.25 24.6 101.4 24.6 101.4 L 26.6 101.4 L 26.6 102.4 L 24.6 102.4 L 24.6 109.4 L 23.4 109.4 Z M 28.6 101.4 L 29.8 101.4 L 29.8 109.4 L 28.6 109.4 L 28.6 101.4 Z M 28.6 97.3 L 29.8 97.3 L 29.8 99.1 L 28.6 99.1 L 28.6 97.3 Z M 32.7 103.4 C 32.7 102.7 32.7 102 32.6 101.4 C 32.6 101.4 33.8 101.4 33.8 101.4 C 33.8 101.6 33.9 102.4 33.9 103 C 34.2 102.1 35.1 101.1 36.9 101.1 C 38.7 101.1 40 102.3 40 104.5 C 39.95 104.52 40 109.4 40 109.4 L 38.7 109.4 C 38.7 109.4 38.74 104.75 38.7 104.8 C 38.7 103.3 38.2 102.2 36.6 102.2 C 34.8 102.2 33.9 103.6 33.9 105.6 C 33.87 105.59 33.9 109.4 33.9 109.4 L 32.7 109.4 C 32.7 109.4 32.66 103.38 32.7 103.4 Z M 41.8 111.7 C 42.7 109.8 43 108.4 43.1 107 C 43.1 107 44.4 107 44.4 107 C 44.3 108.2 43.7 110.3 42.9 111.7 C 42.9 111.7 41.8 111.7 41.8 111.7 Z M 52.3 105.6 C 52.3 105.6 52.34 105.65 52.3 105.6 C 52.4 107.4 53.6 108.6 55.3 108.6 C 56.7 108.6 57.4 108 57.9 107.2 C 57.91 107.16 57.9 107.2 57.9 107.2 L 59.1 107.2 C 59.1 107.2 59.12 107.16 59.1 107.2 C 58.7 108.3 57.6 109.6 55.2 109.6 C 52.5 109.6 51.1 107.5 51.1 105.4 C 51.1 105.4 51.1 105.4 51.1 105.4 C 51.1 102.9 52.8 101.1 55.2 101.1 C 58.2 101.1 59.2 103.4 59.2 105.3 C 59.2 105.4 59.2 105.5 59.2 105.6 C 59.24 105.65 52.3 105.6 52.3 105.6 Z M 58 104.7 C 58 104.7 57.96 104.72 58 104.7 C 57.9 103.7 57.3 102.1 55.2 102.1 C 53.4 102.1 52.5 103.2 52.4 104.7 C 52.37 104.72 52.4 104.7 52.4 104.7 L 58 104.7 Z M 61.6 109.4 L 61.6 97.3 L 62.8 97.3 L 62.8 109.4 L 61.6 109.4 Z M 65.7 109.4 L 65.7 97.3 L 66.9 97.3 L 66.9 109.4 L 65.7 109.4 Z M 70.5 105.6 C 70.5 105.6 70.53 105.65 70.5 105.6 C 70.6 107.4 71.8 108.6 73.5 108.6 C 74.9 108.6 75.6 108 76.1 107.2 C 76.1 107.16 76.1 107.2 76.1 107.2 L 77.3 107.2 C 77.3 107.2 77.31 107.16 77.3 107.2 C 76.9 108.3 75.8 109.6 73.4 109.6 C 70.7 109.6 69.3 107.5 69.3 105.4 C 69.3 105.4 69.3 105.4 69.3 105.4 C 69.3 102.9 71 101.1 73.4 101.1 C 76.4 101.1 77.4 103.4 77.4 105.3 C 77.4 105.4 77.4 105.5 77.4 105.6 C 77.43 105.65 70.5 105.6 70.5 105.6 Z M 76.1 104.7 C 76.1 104.7 76.15 104.72 76.1 104.7 C 76.1 103.7 75.5 102.1 73.4 102.1 C 71.6 102.1 70.7 103.2 70.6 104.7 C 70.56 104.72 70.6 104.7 70.6 104.7 L 76.1 104.7 Z M 84.4 103.4 C 84.4 102.7 84.4 102 84.4 101.4 C 84.4 101.4 85.6 101.4 85.6 101.4 C 85.6 101.7 85.7 102.2 85.6 102.6 C 86 101.9 86.8 101.1 88.3 101.1 C 89.6 101.1 90.4 101.8 90.8 102.7 C 91.2 102 92 101.1 93.6 101.1 C 95.1 101.1 96.4 102 96.4 104.4 C 96.4 104.39 96.4 109.4 96.4 109.4 L 95.2 109.4 C 95.2 109.4 95.19 104.45 95.2 104.4 C 95.2 103.4 94.9 102.2 93.3 102.2 C 91.9 102.2 91 103.1 91 105 C 91.03 105 91 109.4 91 109.4 L 89.8 109.4 C 89.8 109.4 89.82 104.36 89.8 104.4 C 89.8 103.4 89.5 102.2 87.9 102.2 C 86.3 102.2 85.6 103.5 85.6 105.1 C 85.65 105.14 85.6 109.4 85.6 109.4 L 84.4 109.4 C 84.4 109.4 84.45 103.43 84.4 103.4 Z M 107.1 105.4 C 107.1 105.4 107.1 105.4 107.1 105.4 C 107.1 107.5 105.8 109.6 102.9 109.6 C 100.3 109.6 98.8 107.6 98.8 105.4 C 98.8 105.4 98.8 105.4 98.8 105.4 C 98.8 103.1 100.4 101.1 103 101.1 C 105.7 101.1 107.1 103.2 107.1 105.4 Z M 100 105.4 C 100 105.4 100 105.4 100 105.4 C 100 107 101.1 108.6 103 108.6 C 104.9 108.6 105.9 107.1 105.9 105.4 C 105.9 105.4 105.9 105.4 105.9 105.4 C 105.9 103.7 104.8 102.2 102.9 102.2 C 101 102.2 100 103.7 100 105.4 Z M 109.5 103.4 C 109.5 102.7 109.5 102 109.5 101.4 C 109.5 101.4 110.7 101.4 110.7 101.4 C 110.7 101.6 110.7 102.4 110.7 103 C 111.1 102.1 111.9 101.1 113.7 101.1 C 115.6 101.1 116.8 102.3 116.8 104.5 C 116.81 104.52 116.8 109.4 116.8 109.4 L 115.6 109.4 C 115.6 109.4 115.6 104.75 115.6 104.8 C 115.6 103.3 115 102.2 113.4 102.2 C 111.6 102.2 110.7 103.6 110.7 105.6 C 110.72 105.59 110.7 109.4 110.7 109.4 L 109.5 109.4 C 109.5 109.4 109.51 103.38 109.5 103.4 Z M 118.5 101.4 L 120.2 101.4 L 120.2 98.7 L 121.4 98.7 L 121.4 101.4 L 123.6 101.4 L 123.6 102.4 L 121.4 102.4 C 121.4 102.4 121.39 107.06 121.4 107.1 C 121.4 108 121.7 108.5 122.6 108.5 C 122.8 108.5 123.1 108.5 123.4 108.4 C 123.4 108.4 123.4 109.3 123.4 109.3 C 123 109.5 122.7 109.5 122.2 109.5 C 120.7 109.5 120.2 108.8 120.2 107.2 C 120.18 107.18 120.2 102.4 120.2 102.4 L 118.5 102.4 L 118.5 101.4 Z M 126 105.6 C 126 105.6 126.02 105.65 126 105.6 C 126.1 107.4 127.3 108.6 129 108.6 C 130.4 108.6 131.1 108 131.6 107.2 C 131.59 107.16 131.6 107.2 131.6 107.2 L 132.8 107.2 C 132.8 107.2 132.8 107.16 132.8 107.2 C 132.4 108.3 131.3 109.6 128.9 109.6 C 126.1 109.6 124.8 107.5 124.8 105.4 C 124.8 105.4 124.8 105.4 124.8 105.4 C 124.8 102.9 126.4 101.1 128.9 101.1 C 131.9 101.1 132.9 103.4 132.9 105.3 C 132.9 105.4 132.9 105.5 132.9 105.6 C 132.92 105.65 126 105.6 126 105.6 Z M 131.6 104.7 C 131.6 104.7 131.64 104.72 131.6 104.7 C 131.6 103.7 131 102.1 128.9 102.1 C 127.1 102.1 126.2 103.2 126.1 104.7 C 126.05 104.72 126.1 104.7 126.1 104.7 L 131.6 104.7 Z M 147.5 97.3 C 147.5 97.3 147.45 107.04 147.5 107 C 147.5 107.8 147.5 108.6 147.5 109.4 C 147.5 109.4 146.3 109.4 146.3 109.4 C 146.3 109 146.2 108.5 146.2 108.1 C 145.8 108.8 145.1 109.6 143.2 109.6 C 140.8 109.6 139.3 107.9 139.3 105.4 C 139.3 105.4 139.3 105.4 139.3 105.4 C 139.3 102.8 141.2 101.1 143.4 101.1 C 145.4 101.1 146 102.1 146.2 102.5 C 146.24 102.49 146.2 97.3 146.2 97.3 L 147.5 97.3 Z M 140.6 105.4 C 140.6 105.4 140.6 105.4 140.6 105.4 C 140.6 107 141.5 108.6 143.4 108.6 C 145.5 108.6 146.3 107.2 146.3 105.3 C 146.3 105.3 146.3 105.3 146.3 105.3 C 146.3 103.5 145.7 102.2 143.5 102.2 C 141.5 102.2 140.6 103.8 140.6 105.4 Z M 151 105.6 C 151 105.6 151.05 105.65 151 105.6 C 151.1 107.4 152.3 108.6 154 108.6 C 155.4 108.6 156.1 108 156.6 107.2 C 156.62 107.16 156.6 107.2 156.6 107.2 L 157.8 107.2 C 157.8 107.2 157.82 107.16 157.8 107.2 C 157.4 108.3 156.3 109.6 153.9 109.6 C 151.2 109.6 149.8 107.5 149.8 105.4 C 149.8 105.4 149.8 105.4 149.8 105.4 C 149.8 102.9 151.5 101.1 153.9 101.1 C 156.9 101.1 157.9 103.4 157.9 105.3 C 157.9 105.4 157.9 105.5 157.9 105.6 C 157.94 105.65 151 105.6 151 105.6 Z M 156.7 104.7 C 156.7 104.7 156.67 104.72 156.7 104.7 C 156.6 103.7 156 102.1 153.9 102.1 C 152.1 102.1 151.2 103.2 151.1 104.7 C 151.08 104.72 151.1 104.7 151.1 104.7 L 156.7 104.7 Z M 160.9 107 C 160.9 107 160.87 106.97 160.9 107 C 161.2 108 162.1 108.6 163.6 108.6 C 165.3 108.6 165.9 108 165.9 107.2 C 165.9 106.5 165.5 106 163.4 105.7 C 160.6 105.4 160 104.4 160 103.4 C 160 102.4 160.8 101.1 163.3 101.1 C 166.1 101.1 166.8 102.6 166.9 103.5 C 166.91 103.5 166.9 103.5 166.9 103.5 L 165.7 103.5 C 165.7 103.5 165.69 103.5 165.7 103.5 C 165.6 103 165.2 102.1 163.3 102.1 C 161.6 102.1 161.3 102.8 161.3 103.3 C 161.3 104 161.7 104.4 163.6 104.7 C 166.6 105 167.2 105.9 167.2 107.1 C 167.2 108.6 166.1 109.6 163.6 109.6 C 161.2 109.6 159.9 108.6 159.6 107 C 159.64 106.97 159.6 107 159.6 107 L 160.9 107 Z M 174.3 103.4 C 174.3 102.7 174.3 102 174.2 101.4 C 174.2 101.4 175.4 101.4 175.4 101.4 C 175.5 101.7 175.5 102.2 175.5 102.6 C 175.9 101.9 176.7 101.1 178.1 101.1 C 179.4 101.1 180.2 101.8 180.6 102.7 C 181 102 181.8 101.1 183.4 101.1 C 184.9 101.1 186.2 102 186.2 104.4 C 186.21 104.39 186.2 109.4 186.2 109.4 L 185 109.4 C 185 109.4 185.01 104.45 185 104.4 C 185 103.4 184.7 102.2 183.1 102.2 C 181.8 102.2 180.8 103.1 180.8 105 C 180.84 105 180.8 109.4 180.8 109.4 L 179.6 109.4 C 179.6 109.4 179.64 104.36 179.6 104.4 C 179.6 103.4 179.3 102.2 177.8 102.2 C 176.1 102.2 175.5 103.5 175.5 105.1 C 175.47 105.14 175.5 109.4 175.5 109.4 L 174.3 109.4 C 174.3 109.4 174.26 103.43 174.3 103.4 Z M 196 107.5 C 196 108.2 196 109.2 196 109.4 C 196 109.4 194.9 109.4 194.9 109.4 C 194.8 109.1 194.8 108.4 194.8 108.1 C 194.4 109 193.5 109.6 191.7 109.6 C 189.4 109.6 188.6 108.2 188.6 107.1 C 188.6 107.1 188.6 107.1 188.6 107.1 C 188.6 105 190.5 104.4 192.7 104.4 C 193.8 104.4 194.5 104.4 194.8 104.4 C 194.8 104.4 194.8 104 194.8 104 C 194.8 103 194.4 102.1 192.5 102.1 C 190.8 102.1 190.4 102.9 190.3 103.7 C 190.26 103.68 190.3 103.7 190.3 103.7 L 189.1 103.7 C 189.1 103.7 189.05 103.68 189.1 103.7 C 189.2 102.6 189.9 101.1 192.5 101.1 C 195.3 101.1 196 102.5 196 103.8 C 196 103.8 196 107.5 196 107.5 Z M 194.8 105.4 C 194.5 105.4 194 105.4 192.8 105.4 C 190.8 105.4 189.8 105.8 189.8 107 C 189.8 107 189.8 107 189.8 107 C 189.8 107.9 190.4 108.6 191.9 108.6 C 194.2 108.6 194.8 107.2 194.8 105.8 C 194.8 105.8 194.8 105.4 194.8 105.4 Z M 198.9 103.5 C 198.9 102.8 198.9 102.1 198.9 101.4 C 198.9 101.4 200 101.4 200 101.4 C 200.1 101.6 200.1 102.4 200.1 103.2 C 200.6 101.9 201.8 101.1 203.4 101.1 C 203.4 101.1 203.4 102.3 203.4 102.3 C 201.5 102.3 200.1 103.5 200.1 105.9 C 200.08 105.92 200.1 109.4 200.1 109.4 L 198.9 109.4 C 198.9 109.4 198.87 103.54 198.9 103.5 Z M 212.6 106.9 C 212.6 106.9 212.56 106.94 212.6 106.9 C 212.1 108.4 210.9 109.6 208.7 109.6 C 205.9 109.6 204.5 107.7 204.5 105.4 C 204.5 105.4 204.5 105.4 204.5 105.4 C 204.5 103.1 206.1 101.1 208.7 101.1 C 211.3 101.1 212.3 102.7 212.5 103.9 C 212.55 103.87 212.5 103.9 212.5 103.9 L 211.3 103.9 C 211.3 103.9 211.34 103.87 211.3 103.9 C 211 103 210.3 102.2 208.7 102.2 C 206.9 102.2 205.8 103.5 205.8 105.4 C 205.8 105.4 205.8 105.4 205.8 105.4 C 205.8 107.2 206.8 108.6 208.7 108.6 C 210.1 108.6 210.9 107.9 211.3 106.9 C 211.35 106.94 211.3 106.9 211.3 106.9 L 212.6 106.9 Z M 216.1 97.3 C 216.1 97.3 216.06 102.93 216.1 102.9 C 216.3 102.3 217.1 101.1 219.1 101.1 C 220.9 101.1 222.1 102.3 222.1 104.5 C 222.15 104.53 222.1 109.4 222.1 109.4 L 220.9 109.4 C 220.9 109.4 220.93 104.74 220.9 104.7 C 220.9 103.3 220.4 102.2 218.8 102.2 C 216.9 102.2 216.1 103.7 216.1 105.4 C 216.06 105.42 216.1 109.4 216.1 109.4 L 214.9 109.4 L 214.9 97.3 L 216.1 97.3 Z M 225.7 105.6 C 225.7 105.6 225.71 105.65 225.7 105.6 C 225.8 107.4 226.9 108.6 228.7 108.6 C 230 108.6 230.8 108 231.3 107.2 C 231.28 107.16 231.3 107.2 231.3 107.2 L 232.5 107.2 C 232.5 107.2 232.49 107.16 232.5 107.2 C 232.1 108.3 231 109.6 228.6 109.6 C 225.8 109.6 224.5 107.5 224.5 105.4 C 224.5 105.4 224.5 105.4 224.5 105.4 C 224.5 102.9 226.1 101.1 228.6 101.1 C 231.6 101.1 232.6 103.4 232.6 105.3 C 232.6 105.4 232.6 105.5 232.6 105.6 C 232.61 105.65 225.7 105.6 225.7 105.6 Z M 231.3 104.7 C 231.3 104.7 231.33 104.72 231.3 104.7 C 231.3 103.7 230.7 102.1 228.5 102.1 C 226.8 102.1 225.9 103.2 225.7 104.7 C 225.74 104.72 225.7 104.7 225.7 104.7 L 231.3 104.7 Z M 235.5 107 C 235.5 107 235.53 106.97 235.5 107 C 235.8 108 236.7 108.6 238.3 108.6 C 240 108.6 240.6 108 240.6 107.2 C 240.6 106.5 240.2 106 238 105.7 C 235.3 105.4 234.7 104.4 234.7 103.4 C 234.7 102.4 235.5 101.1 238 101.1 C 240.8 101.1 241.5 102.6 241.6 103.5 C 241.57 103.5 241.6 103.5 241.6 103.5 L 240.3 103.5 C 240.3 103.5 240.35 103.5 240.3 103.5 C 240.2 103 239.9 102.1 237.9 102.1 C 236.3 102.1 235.9 102.8 235.9 103.3 C 235.9 104 236.3 104.4 238.3 104.7 C 241.2 105 241.8 105.9 241.8 107.1 C 241.8 108.6 240.7 109.6 238.2 109.6 C 235.8 109.6 234.6 108.6 234.3 107 C 234.3 106.97 234.3 107 234.3 107 L 235.5 107 Z M 256.3 106.9 C 256.3 106.9 256.31 106.94 256.3 106.9 C 255.9 108.4 254.6 109.6 252.5 109.6 C 249.7 109.6 248.3 107.7 248.3 105.4 C 248.3 105.4 248.3 105.4 248.3 105.4 C 248.3 103.1 249.8 101.1 252.5 101.1 C 255.1 101.1 256.1 102.7 256.3 103.9 C 256.3 103.87 256.3 103.9 256.3 103.9 L 255.1 103.9 C 255.1 103.9 255.09 103.87 255.1 103.9 C 254.8 103 254.1 102.2 252.5 102.2 C 250.6 102.2 249.5 103.5 249.5 105.4 C 249.5 105.4 249.5 105.4 249.5 105.4 C 249.5 107.2 250.6 108.6 252.5 108.6 C 253.9 108.6 254.7 107.9 255.1 106.9 C 255.1 106.94 255.1 106.9 255.1 106.9 L 256.3 106.9 Z M 266.4 105.4 C 266.4 105.4 266.4 105.4 266.4 105.4 C 266.4 107.5 265.1 109.6 262.2 109.6 C 259.6 109.6 258.1 107.6 258.1 105.4 C 258.1 105.4 258.1 105.4 258.1 105.4 C 258.1 103.1 259.7 101.1 262.3 101.1 C 265 101.1 266.4 103.2 266.4 105.4 Z M 259.3 105.4 C 259.3 105.4 259.3 105.4 259.3 105.4 C 259.3 107 260.4 108.6 262.3 108.6 C 264.2 108.6 265.2 107.1 265.2 105.4 C 265.2 105.4 265.2 105.4 265.2 105.4 C 265.2 103.7 264.1 102.2 262.2 102.2 C 260.3 102.2 259.3 103.7 259.3 105.4 Z M 268.8 103.4 C 268.8 102.7 268.8 102 268.8 101.4 C 268.8 101.4 270 101.4 270 101.4 C 270 101.7 270 102.2 270 102.6 C 270.4 101.9 271.2 101.1 272.7 101.1 C 274 101.1 274.8 101.8 275.1 102.7 C 275.6 102 276.3 101.1 277.9 101.1 C 279.5 101.1 280.8 102 280.8 104.4 C 280.76 104.39 280.8 109.4 280.8 109.4 L 279.6 109.4 C 279.6 109.4 279.56 104.45 279.6 104.4 C 279.6 103.4 279.2 102.2 277.7 102.2 C 276.3 102.2 275.4 103.1 275.4 105 C 275.39 105 275.4 109.4 275.4 109.4 L 274.2 109.4 C 274.2 109.4 274.19 104.36 274.2 104.4 C 274.2 103.4 273.8 102.2 272.3 102.2 C 270.7 102.2 270 103.5 270 105.1 C 270.02 105.14 270 109.4 270 109.4 L 268.8 109.4 C 268.8 109.4 268.81 103.43 268.8 103.4 Z M 283.7 103.4 C 283.7 102.7 283.7 102 283.6 101.4 C 283.6 101.4 284.8 101.4 284.8 101.4 C 284.9 101.7 284.9 102.2 284.9 102.6 C 285.3 101.9 286.1 101.1 287.5 101.1 C 288.8 101.1 289.6 101.8 290 102.7 C 290.4 102 291.2 101.1 292.8 101.1 C 294.3 101.1 295.6 102 295.6 104.4 C 295.61 104.39 295.6 109.4 295.6 109.4 L 294.4 109.4 C 294.4 109.4 294.41 104.45 294.4 104.4 C 294.4 103.4 294.1 102.2 292.5 102.2 C 291.2 102.2 290.2 103.1 290.2 105 C 290.24 105 290.2 109.4 290.2 109.4 L 289 109.4 C 289 109.4 289.04 104.36 289 104.4 C 289 103.4 288.7 102.2 287.2 102.2 C 285.5 102.2 284.9 103.5 284.9 105.1 C 284.87 105.14 284.9 109.4 284.9 109.4 L 283.7 109.4 C 283.7 109.4 283.67 103.43 283.7 103.4 Z M 299.2 105.6 C 299.2 105.6 299.22 105.65 299.2 105.6 C 299.3 107.4 300.5 108.6 302.2 108.6 C 303.6 108.6 304.3 108 304.8 107.2 C 304.79 107.16 304.8 107.2 304.8 107.2 L 306 107.2 C 306 107.2 306 107.16 306 107.2 C 305.6 108.3 304.5 109.6 302.1 109.6 C 299.3 109.6 298 107.5 298 105.4 C 298 105.4 298 105.4 298 105.4 C 298 102.9 299.6 101.1 302.1 101.1 C 305.1 101.1 306.1 103.4 306.1 105.3 C 306.1 105.4 306.1 105.5 306.1 105.6 C 306.12 105.65 299.2 105.6 299.2 105.6 Z M 304.8 104.7 C 304.8 104.7 304.84 104.72 304.8 104.7 C 304.8 103.7 304.2 102.1 302.1 102.1 C 300.3 102.1 299.4 103.2 299.3 104.7 C 299.25 104.72 299.3 104.7 299.3 104.7 L 304.8 104.7 Z M 320.3 107.1 C 320.3 107.8 320.3 108.6 320.3 109.4 C 320.3 109.4 319.2 109.4 319.2 109.4 C 319.1 109.2 319.1 108.5 319.1 107.9 C 318.7 108.9 318 109.6 316.2 109.6 C 314.5 109.6 313.1 108.7 313.1 106.4 C 313.14 106.37 313.1 101.4 313.1 101.4 L 314.3 101.4 C 314.3 101.4 314.34 106.13 314.3 106.1 C 314.3 107.4 314.8 108.5 316.4 108.5 C 318.3 108.5 319.1 107.5 319.1 105 C 319.11 104.97 319.1 101.4 319.1 101.4 L 320.3 101.4 C 320.3 101.4 320.32 107.05 320.3 107.1 Z M 323.2 103.4 C 323.2 102.7 323.2 102 323.2 101.4 C 323.2 101.4 324.4 101.4 324.4 101.4 C 324.4 101.6 324.4 102.4 324.4 103 C 324.8 102.1 325.7 101.1 327.4 101.1 C 329.3 101.1 330.5 102.3 330.5 104.5 C 330.53 104.52 330.5 109.4 330.5 109.4 L 329.3 109.4 C 329.3 109.4 329.32 104.75 329.3 104.8 C 329.3 103.3 328.8 102.2 327.2 102.2 C 325.3 102.2 324.4 103.6 324.4 105.6 C 324.44 105.59 324.4 109.4 324.4 109.4 L 323.2 109.4 C 323.2 109.4 323.23 103.38 323.2 103.4 Z M 334.1 105.6 C 334.1 105.6 334.09 105.65 334.1 105.6 C 334.2 107.4 335.3 108.6 337.1 108.6 C 338.4 108.6 339.2 108 339.7 107.2 C 339.66 107.16 339.7 107.2 339.7 107.2 L 340.9 107.2 C 340.9 107.2 340.87 107.16 340.9 107.2 C 340.4 108.3 339.3 109.6 337 109.6 C 334.2 109.6 332.9 107.5 332.9 105.4 C 332.9 105.4 332.9 105.4 332.9 105.4 C 332.9 102.9 334.5 101.1 336.9 101.1 C 340 101.1 341 103.4 341 105.3 C 341 105.4 341 105.5 341 105.6 C 340.99 105.65 334.1 105.6 334.1 105.6 Z M 339.7 104.7 C 339.7 104.7 339.71 104.72 339.7 104.7 C 339.6 103.7 339.1 102.1 336.9 102.1 C 335.2 102.1 334.3 103.2 334.1 104.7 C 334.12 104.72 334.1 104.7 334.1 104.7 L 339.7 104.7 Z M 355.4 106.9 C 355.4 106.9 355.39 106.94 355.4 106.9 C 355 108.4 353.7 109.6 351.5 109.6 C 348.7 109.6 347.4 107.7 347.4 105.4 C 347.4 105.4 347.4 105.4 347.4 105.4 C 347.4 103.1 348.9 101.1 351.6 101.1 C 354.1 101.1 355.2 102.7 355.4 103.9 C 355.38 103.87 355.4 103.9 355.4 103.9 L 354.2 103.9 C 354.2 103.9 354.17 103.87 354.2 103.9 C 353.9 103 353.2 102.2 351.5 102.2 C 349.7 102.2 348.6 103.5 348.6 105.4 C 348.6 105.4 348.6 105.4 348.6 105.4 C 348.6 107.2 349.7 108.6 351.5 108.6 C 353 108.6 353.8 107.9 354.2 106.9 C 354.18 106.94 354.2 106.9 354.2 106.9 L 355.4 106.9 Z M 358.9 97.3 C 358.9 97.3 358.89 102.93 358.9 102.9 C 359.2 102.3 359.9 101.1 362 101.1 C 363.8 101.1 365 102.3 365 104.5 C 364.98 104.53 365 109.4 365 109.4 L 363.8 109.4 C 363.8 109.4 363.77 104.74 363.8 104.7 C 363.8 103.3 363.2 102.2 361.6 102.2 C 359.8 102.2 358.9 103.7 358.9 105.4 C 358.89 105.42 358.9 109.4 358.9 109.4 L 357.7 109.4 L 357.7 97.3 L 358.9 97.3 Z M 374.7 107.5 C 374.7 108.2 374.8 109.2 374.8 109.4 C 374.8 109.4 373.6 109.4 373.6 109.4 C 373.6 109.1 373.5 108.4 373.5 108.1 C 373.1 109 372.2 109.6 370.5 109.6 C 368.2 109.6 367.3 108.2 367.3 107.1 C 367.3 107.1 367.3 107.1 367.3 107.1 C 367.3 105 369.2 104.4 371.5 104.4 C 372.6 104.4 373.3 104.4 373.5 104.4 C 373.5 104.4 373.5 104 373.5 104 C 373.5 103 373.1 102.1 371.3 102.1 C 369.6 102.1 369.2 102.9 369 103.7 C 369.01 103.68 369 103.7 369 103.7 L 367.8 103.7 C 367.8 103.7 367.8 103.68 367.8 103.7 C 367.9 102.6 368.6 101.1 371.3 101.1 C 374 101.1 374.7 102.5 374.7 103.8 C 374.7 103.8 374.7 107.5 374.7 107.5 Z M 373.5 105.4 C 373.3 105.4 372.7 105.4 371.5 105.4 C 369.5 105.4 368.5 105.8 368.5 107 C 368.5 107 368.5 107 368.5 107 C 368.5 107.9 369.2 108.6 370.6 108.6 C 373 108.6 373.5 107.2 373.5 105.8 C 373.5 105.8 373.5 105.4 373.5 105.4 Z M 377.6 103.4 C 377.6 102.7 377.6 102 377.6 101.4 C 377.6 101.4 378.8 101.4 378.8 101.4 C 378.8 101.7 378.8 102.2 378.8 102.6 C 379.2 101.9 380 101.1 381.5 101.1 C 382.8 101.1 383.6 101.8 383.9 102.7 C 384.4 102 385.1 101.1 386.7 101.1 C 388.3 101.1 389.6 102 389.6 104.4 C 389.57 104.39 389.6 109.4 389.6 109.4 L 388.4 109.4 C 388.4 109.4 388.37 104.45 388.4 104.4 C 388.4 103.4 388 102.2 386.5 102.2 C 385.1 102.2 384.2 103.1 384.2 105 C 384.2 105 384.2 109.4 384.2 109.4 L 383 109.4 C 383 109.4 383 104.36 383 104.4 C 383 103.4 382.7 102.2 381.1 102.2 C 379.5 102.2 378.8 103.5 378.8 105.1 C 378.82 105.14 378.8 109.4 378.8 109.4 L 377.6 109.4 C 377.6 109.4 377.62 103.43 377.6 103.4 Z M 393.7 108.1 C 393.68 108.09 393.7 113 393.7 113 L 392.5 113 C 392.5 113 392.47 103.37 392.5 103.4 C 392.5 102.7 392.5 102 392.5 101.4 C 392.5 101.4 393.6 101.4 393.6 101.4 C 393.7 101.6 393.7 102.1 393.7 102.8 C 394.2 101.9 395.1 101.1 396.9 101.1 C 399.1 101.1 400.6 102.9 400.6 105.2 C 400.6 105.2 400.6 105.2 400.6 105.2 C 400.6 107.8 398.8 109.6 396.6 109.6 C 394.9 109.6 394.1 108.8 393.7 108.1 Z M 399.4 105.3 C 399.4 105.3 399.4 105.3 399.4 105.3 C 399.4 103.8 398.5 102.2 396.5 102.2 C 394.5 102.2 393.6 103.6 393.6 105.4 C 393.6 105.4 393.6 105.4 393.6 105.4 C 393.6 107.2 394.6 108.6 396.5 108.6 C 398.4 108.6 399.4 107 399.4 105.3 Z M 403 101.4 L 404.2 101.4 L 404.2 109.4 L 403 109.4 L 403 101.4 Z M 403 97.3 L 404.2 97.3 L 404.2 99.1 L 403 99.1 L 403 97.3 Z M 415 105.4 C 415 105.4 415 105.4 415 105.4 C 415 107.5 413.6 109.6 410.7 109.6 C 408.1 109.6 406.6 107.6 406.6 105.4 C 406.6 105.4 406.6 105.4 406.6 105.4 C 406.6 103.1 408.2 101.1 410.8 101.1 C 413.5 101.1 415 103.2 415 105.4 Z M 407.8 105.4 C 407.8 105.4 407.8 105.4 407.8 105.4 C 407.8 107 408.9 108.6 410.8 108.6 C 412.8 108.6 413.7 107.1 413.7 105.4 C 413.7 105.4 413.7 105.4 413.7 105.4 C 413.7 103.7 412.6 102.2 410.7 102.2 C 408.8 102.2 407.8 103.7 407.8 105.4 Z M 417.3 103.4 C 417.3 102.7 417.3 102 417.3 101.4 C 417.3 101.4 418.5 101.4 418.5 101.4 C 418.5 101.6 418.5 102.4 418.5 103 C 418.9 102.1 419.8 101.1 421.5 101.1 C 423.4 101.1 424.6 102.3 424.6 104.5 C 424.63 104.52 424.6 109.4 424.6 109.4 L 423.4 109.4 C 423.4 109.4 423.42 104.75 423.4 104.8 C 423.4 103.3 422.9 102.2 421.3 102.2 C 419.4 102.2 418.5 103.6 418.5 105.6 C 418.54 105.59 418.5 109.4 418.5 109.4 L 417.3 109.4 C 417.3 109.4 417.33 103.38 417.3 103.4 Z M 427.5 103.4 C 427.5 102.7 427.5 102 427.5 101.4 C 427.5 101.4 428.7 101.4 428.7 101.4 C 428.7 101.6 428.7 102.4 428.7 103 C 429.1 102.1 429.9 101.1 431.7 101.1 C 433.6 101.1 434.8 102.3 434.8 104.5 C 434.81 104.52 434.8 109.4 434.8 109.4 L 433.6 109.4 C 433.6 109.4 433.6 104.75 433.6 104.8 C 433.6 103.3 433 102.2 431.4 102.2 C 429.6 102.2 428.7 103.6 428.7 105.6 C 428.72 105.59 428.7 109.4 428.7 109.4 L 427.5 109.4 C 427.5 109.4 427.51 103.38 427.5 103.4 Z M 438.4 105.6 C 438.4 105.6 438.37 105.65 438.4 105.6 C 438.5 107.4 439.6 108.6 441.4 108.6 C 442.7 108.6 443.5 108 443.9 107.2 C 443.94 107.16 443.9 107.2 443.9 107.2 L 445.1 107.2 C 445.1 107.2 445.15 107.16 445.1 107.2 C 444.7 108.3 443.6 109.6 441.3 109.6 C 438.5 109.6 437.1 107.5 437.1 105.4 C 437.1 105.4 437.1 105.4 437.1 105.4 C 437.1 102.9 438.8 101.1 441.2 101.1 C 444.2 101.1 445.3 103.4 445.3 105.3 C 445.3 105.4 445.3 105.5 445.3 105.6 C 445.27 105.65 438.4 105.6 438.4 105.6 Z M 444 104.7 C 444 104.7 443.99 104.72 444 104.7 C 443.9 103.7 443.4 102.1 441.2 102.1 C 439.5 102.1 438.6 103.2 438.4 104.7 C 438.4 104.72 438.4 104.7 438.4 104.7 L 444 104.7 Z M 446.4 111.7 C 447.3 109.8 447.6 108.4 447.7 107 C 447.7 107 449 107 449 107 C 448.9 108.2 448.3 110.3 447.5 111.7 C 447.5 111.7 446.4 111.7 446.4 111.7 Z " stroke="none" fill="#141414"/>  </g></svg>