<?xml version="1.0" standalone="no"?><!DOCTYPE svg PUBLIC "-//W3C//DTD SVG 1.1//EN" "http://www.w3.org/Graphics/SVG/1.1/DTD/svg11.dtd"><svg xmlns="http://www.w3.org/2000/svg" version="1.1" width="90px" height="14.8px" viewBox="0 -2 90 14.8" style="top:-2px">  <desc>Page</desc>  <defs/>  <g id="Polygon3068">    <path d="M 44.3 6.6 C 44 6.6 43.7 6.6 43.4 6.5 C 43.1 6.5 42.9 6.4 42.7 6.3 C 42.7 6.3 43 5 43 5 C 43.4 5.3 43.9 5.4 44.3 5.4 C 44.9 5.4 45.2 5.2 45.2 4.9 C 45.2 4.8 45.2 4.7 45 4.7 C 44.9 4.7 44.8 4.6 44.5 4.6 C 44.51 4.64 43.8 4.6 43.8 4.6 L 44 3.4 C 44 3.4 44.74 3.43 44.7 3.4 C 45 3.4 45.1 3.4 45.3 3.3 C 45.4 3.3 45.5 3.2 45.5 3.1 C 45.5 3.1 45.5 3 45.5 3 C 45.5 2.8 45.3 2.7 44.9 2.7 C 44.7 2.7 44.4 2.8 44.2 2.8 C 43.9 2.9 43.7 3 43.4 3.1 C 43.4 3.1 43.7 1.9 43.7 1.9 C 44 1.7 44.2 1.7 44.5 1.6 C 44.8 1.5 45.1 1.5 45.4 1.5 C 46 1.5 46.5 1.6 46.8 1.8 C 47.1 2 47.2 2.3 47.2 2.7 C 47.2 2.8 47.2 2.9 47.2 3 C 47.2 3.2 47.1 3.4 47 3.6 C 46.9 3.7 46.7 3.9 46.5 4 C 46.8 4.2 46.9 4.5 46.9 4.8 C 46.9 4.9 46.9 5 46.9 5.1 C 46.7 6.1 45.8 6.6 44.3 6.6 C 44.3 6.6 44.3 6.6 44.3 6.6 Z " stroke="none" fill="#fafafa"/>  </g></svg>