<?xml version="1.0" standalone="no"?><!DOCTYPE svg PUBLIC "-//W3C//DTD SVG 1.1//EN" "http://www.w3.org/Graphics/SVG/1.1/DTD/svg11.dtd"><svg xmlns="http://www.w3.org/2000/svg" version="1.1" width="855px" height="40.5px" viewBox="0 -9 855 40.5" style="top:-9px">  <desc>Retrouvez l’op ration BINGE-FIT sur canalplus.com/Binge-fit</desc>  <defs/>  <g id="Polygon10754">    <path d="M 91.7 1.1 C 91.7 1.1 98.61 1.12 98.6 1.1 C 100.4 1.1 101.8 1.6 102.8 2.5 C 103.9 3.4 104.4 4.7 104.4 6.4 C 104.4 7.5 104.1 8.5 103.6 9.3 C 103.1 10.1 102.4 10.7 101.5 11.1 C 101.52 11.13 104.2 16.5 104.2 16.5 L 100.2 16.5 L 97.8 11.7 L 95.6 11.7 L 95.6 16.5 L 91.7 16.5 L 91.7 1.1 Z M 97.9 8.4 C 98.7 8.4 99.3 8.3 99.7 8 C 100.2 7.7 100.4 7.1 100.4 6.4 C 100.4 5.6 100.2 5.1 99.7 4.8 C 99.3 4.5 98.7 4.4 97.9 4.4 C 97.93 4.4 95.6 4.4 95.6 4.4 L 95.6 8.4 C 95.6 8.4 97.93 8.4 97.9 8.4 Z M 112 16.8 C 109.9 16.8 108.3 16.3 107.1 15.4 C 105.9 14.4 105.3 13 105.3 11.3 C 105.3 9.5 105.9 8.1 106.9 7.1 C 108 6.1 109.5 5.6 111.4 5.6 C 112.7 5.6 113.8 5.8 114.7 6.3 C 115.6 6.8 116.3 7.5 116.7 8.3 C 117.2 9.1 117.4 10 117.4 11.1 C 117.43 11.09 117.4 12.5 117.4 12.5 C 117.4 12.5 109 12.52 109 12.5 C 109.2 13.1 109.5 13.5 110.1 13.8 C 110.7 14.1 111.5 14.2 112.5 14.2 C 113.2 14.2 113.9 14.1 114.6 14 C 115.4 13.9 116 13.7 116.5 13.5 C 116.5 13.5 116.5 16.1 116.5 16.1 C 116 16.3 115.3 16.5 114.5 16.6 C 113.7 16.8 112.8 16.8 112 16.8 C 112 16.8 112 16.8 112 16.8 Z M 113.8 10.1 C 113.7 9.5 113.5 9.1 113.1 8.8 C 112.7 8.4 112.1 8.3 111.4 8.3 C 110.7 8.3 110.1 8.4 109.7 8.8 C 109.3 9.1 109.1 9.5 109 10.1 C 109 10.1 113.8 10.1 113.8 10.1 Z M 123.5 16.8 C 122.2 16.8 121.2 16.5 120.6 15.7 C 119.9 15 119.6 14 119.6 12.8 C 119.56 12.76 119.6 8.6 119.6 8.6 L 118.1 8.6 L 118.1 5.9 L 119.6 5.9 L 119.6 2.8 L 123.4 2.8 L 123.4 5.9 L 125.9 5.9 L 125.9 8.6 L 123.4 8.6 C 123.4 8.6 123.43 12.23 123.4 12.2 C 123.4 12.8 123.5 13.2 123.8 13.5 C 124 13.7 124.3 13.8 124.9 13.8 C 125.4 13.8 125.9 13.7 126.3 13.4 C 126.3 13.4 126.3 16.3 126.3 16.3 C 126 16.5 125.5 16.6 125.1 16.7 C 124.7 16.8 124.2 16.8 123.5 16.8 C 123.5 16.8 123.5 16.8 123.5 16.8 Z M 127.8 5.9 L 131.5 5.9 C 131.5 5.9 131.53 7.26 131.5 7.3 C 131.9 6.8 132.5 6.4 133.3 6.2 C 134 5.9 134.8 5.8 135.8 5.8 C 135.8 5.8 135.8 8.8 135.8 8.8 C 134.8 8.8 133.9 8.9 133.2 9.2 C 132.4 9.5 131.9 9.9 131.7 10.4 C 131.66 10.43 131.7 16.5 131.7 16.5 L 127.8 16.5 L 127.8 5.9 Z M 142.9 16.8 C 141.6 16.8 140.4 16.6 139.4 16.1 C 138.4 15.6 137.7 15 137.2 14.1 C 136.6 13.3 136.3 12.3 136.3 11.2 C 136.3 10.1 136.6 9.1 137.2 8.3 C 137.7 7.5 138.4 6.8 139.4 6.3 C 140.4 5.8 141.6 5.6 142.9 5.6 C 144.2 5.6 145.3 5.8 146.3 6.3 C 147.3 6.8 148 7.5 148.6 8.3 C 149.1 9.1 149.4 10.1 149.4 11.2 C 149.4 12.3 149.1 13.3 148.6 14.1 C 148 15 147.3 15.6 146.3 16.1 C 145.3 16.6 144.2 16.8 142.9 16.8 C 142.9 16.8 142.9 16.8 142.9 16.8 Z M 142.9 13.8 C 143.6 13.8 144.3 13.6 144.7 13.1 C 145.2 12.7 145.4 12 145.4 11.2 C 145.4 10.4 145.2 9.8 144.7 9.3 C 144.3 8.9 143.6 8.6 142.9 8.6 C 142.1 8.6 141.5 8.9 141 9.3 C 140.5 9.8 140.3 10.4 140.3 11.2 C 140.3 12 140.5 12.7 141 13.1 C 141.5 13.6 142.1 13.8 142.9 13.8 C 142.9 13.8 142.9 13.8 142.9 13.8 Z M 155.2 16.8 C 153.7 16.8 152.6 16.4 151.9 15.6 C 151.2 14.8 150.8 13.8 150.8 12.4 C 150.81 12.43 150.8 5.9 150.8 5.9 L 154.7 5.9 C 154.7 5.9 154.69 11.99 154.7 12 C 154.7 13.2 155.2 13.8 156.3 13.8 C 156.8 13.8 157.3 13.7 157.7 13.5 C 158.1 13.2 158.4 12.9 158.7 12.4 C 158.71 12.43 158.7 5.9 158.7 5.9 L 162.6 5.9 L 162.6 16.5 L 158.8 16.5 C 158.8 16.5 158.84 15.36 158.8 15.4 C 158.4 15.8 157.8 16.2 157.2 16.5 C 156.5 16.7 155.9 16.8 155.2 16.8 C 155.2 16.8 155.2 16.8 155.2 16.8 Z M 163.8 5.9 L 167.7 5.9 L 170.1 12.1 L 172.5 5.9 L 176.4 5.9 L 171.9 16.5 L 168.3 16.5 L 163.8 5.9 Z M 183.3 16.8 C 181.2 16.8 179.6 16.3 178.4 15.4 C 177.3 14.4 176.7 13 176.7 11.3 C 176.7 9.5 177.2 8.1 178.2 7.1 C 179.3 6.1 180.8 5.6 182.8 5.6 C 184 5.6 185.1 5.8 186 6.3 C 186.9 6.8 187.6 7.5 188.1 8.3 C 188.5 9.1 188.8 10 188.8 11.1 C 188.76 11.09 188.8 12.5 188.8 12.5 C 188.8 12.5 180.34 12.52 180.3 12.5 C 180.5 13.1 180.8 13.5 181.4 13.8 C 182 14.1 182.8 14.2 183.8 14.2 C 184.5 14.2 185.2 14.1 186 14 C 186.7 13.9 187.3 13.7 187.8 13.5 C 187.8 13.5 187.8 16.1 187.8 16.1 C 187.3 16.3 186.6 16.5 185.8 16.6 C 185 16.8 184.2 16.8 183.3 16.8 C 183.3 16.8 183.3 16.8 183.3 16.8 Z M 185.1 10.1 C 185.1 9.5 184.8 9.1 184.4 8.8 C 184 8.4 183.4 8.3 182.7 8.3 C 182 8.3 181.5 8.4 181 8.8 C 180.6 9.1 180.4 9.5 180.3 10.1 C 180.3 10.1 185.1 10.1 185.1 10.1 Z M 189.7 14.4 L 194.8 8.6 L 189.9 8.6 L 189.9 5.9 L 199.9 5.9 L 199.9 8.1 L 194.9 13.8 L 200 13.8 L 200 16.5 L 189.7 16.5 L 189.7 14.4 Z M 213.6 0.2 L 217.4 0.2 L 217.4 16.5 L 213.6 16.5 L 213.6 0.2 Z M 220.7 0.8 L 224.4 0.8 L 222.6 5.2 L 219.3 5.2 L 220.7 0.8 Z M 230.6 16.8 C 229.3 16.8 228.2 16.6 227.2 16.1 C 226.2 15.6 225.5 15 224.9 14.1 C 224.4 13.3 224.1 12.3 224.1 11.2 C 224.1 10.1 224.4 9.1 224.9 8.3 C 225.5 7.5 226.2 6.8 227.2 6.3 C 228.2 5.8 229.3 5.6 230.6 5.6 C 231.9 5.6 233.1 5.8 234.1 6.3 C 235 6.8 235.8 7.5 236.3 8.3 C 236.9 9.1 237.1 10.1 237.1 11.2 C 237.1 12.3 236.9 13.3 236.3 14.1 C 235.8 15 235 15.6 234.1 16.1 C 233.1 16.6 231.9 16.8 230.6 16.8 C 230.6 16.8 230.6 16.8 230.6 16.8 Z M 230.6 13.8 C 231.4 13.8 232 13.6 232.5 13.1 C 232.9 12.7 233.2 12 233.2 11.2 C 233.2 10.4 232.9 9.8 232.5 9.3 C 232 8.9 231.4 8.6 230.6 8.6 C 229.8 8.6 229.2 8.9 228.8 9.3 C 228.3 9.8 228.1 10.4 228.1 11.2 C 228.1 12 228.3 12.7 228.8 13.1 C 229.2 13.6 229.8 13.8 230.6 13.8 C 230.6 13.8 230.6 13.8 230.6 13.8 Z M 238.7 5.9 L 242.5 5.9 C 242.5 5.9 242.46 7 242.5 7 C 243.4 6.1 244.7 5.6 246.2 5.6 C 247.3 5.6 248.3 5.8 249.1 6.3 C 250 6.8 250.6 7.4 251.1 8.3 C 251.6 9.1 251.8 10.1 251.8 11.2 C 251.8 12.3 251.6 13.3 251.1 14.1 C 250.6 15 250 15.7 249.1 16.1 C 248.3 16.6 247.3 16.8 246.2 16.8 C 245.5 16.8 244.8 16.7 244.2 16.5 C 243.5 16.3 243 16 242.6 15.6 C 242.59 15.64 242.6 21.3 242.6 21.3 L 238.7 21.3 L 238.7 5.9 Z M 245.2 13.8 C 246 13.8 246.6 13.6 247.1 13.1 C 247.6 12.6 247.8 12 247.8 11.2 C 247.8 10.4 247.6 9.8 247.1 9.3 C 246.6 8.8 246 8.6 245.2 8.6 C 244.6 8.6 244.1 8.8 243.6 9.1 C 243.1 9.4 242.8 9.8 242.6 10.3 C 242.6 10.3 242.6 12.1 242.6 12.1 C 242.8 12.7 243.1 13.1 243.6 13.4 C 244.1 13.7 244.6 13.8 245.2 13.8 C 245.2 13.8 245.2 13.8 245.2 13.8 Z M 258.7 1.2 L 262.8 1.2 L 260.8 5.1 L 257.2 5.1 L 258.7 1.2 Z M 259.5 16.8 C 257.5 16.8 255.9 16.3 254.7 15.4 C 253.5 14.4 252.9 13 252.9 11.3 C 252.9 9.5 253.4 8.1 254.5 7.1 C 255.5 6.1 257 5.6 259 5.6 C 260.3 5.6 261.4 5.8 262.3 6.3 C 263.2 6.8 263.8 7.5 264.3 8.3 C 264.8 9.1 265 10 265 11.1 C 265 11.09 265 12.5 265 12.5 C 265 12.5 256.57 12.52 256.6 12.5 C 256.7 13.1 257.1 13.5 257.7 13.8 C 258.3 14.1 259.1 14.2 260.1 14.2 C 260.8 14.2 261.5 14.1 262.2 14 C 262.9 13.9 263.5 13.7 264.1 13.5 C 264.1 13.5 264.1 16.1 264.1 16.1 C 263.5 16.3 262.9 16.5 262 16.6 C 261.2 16.8 260.4 16.8 259.5 16.8 C 259.5 16.8 259.5 16.8 259.5 16.8 Z M 261.3 10.1 C 261.3 9.5 261.1 9.1 260.6 8.8 C 260.2 8.4 259.7 8.3 258.9 8.3 C 258.2 8.3 257.7 8.4 257.3 8.8 C 256.9 9.1 256.6 9.5 256.6 10.1 C 256.6 10.1 261.3 10.1 261.3 10.1 Z M 266.6 5.9 L 270.4 5.9 C 270.4 5.9 270.39 7.26 270.4 7.3 C 270.8 6.8 271.4 6.4 272.1 6.2 C 272.9 5.9 273.7 5.8 274.6 5.8 C 274.6 5.8 274.6 8.8 274.6 8.8 C 273.6 8.8 272.8 8.9 272 9.2 C 271.3 9.5 270.8 9.9 270.5 10.4 C 270.52 10.43 270.5 16.5 270.5 16.5 L 266.6 16.5 L 266.6 5.9 Z M 279.1 16.8 C 277.8 16.8 276.7 16.5 275.9 15.9 C 275.1 15.2 274.7 14.3 274.7 13.2 C 274.7 12 275.1 11.1 275.9 10.5 C 276.7 9.8 277.8 9.5 279.3 9.5 C 279.8 9.5 280.4 9.6 281 9.7 C 281.5 9.8 282 10 282.4 10.2 C 282.4 10.2 282.4 10 282.4 10 C 282.4 8.8 281.5 8.3 279.7 8.3 C 278.4 8.3 277.2 8.5 276.1 9 C 276.1 9 276.1 6.4 276.1 6.4 C 276.6 6.1 277.2 6 278 5.8 C 278.7 5.7 279.5 5.6 280.4 5.6 C 282.3 5.6 283.8 6 284.8 6.8 C 285.8 7.6 286.3 8.7 286.3 10.1 C 286.31 10.08 286.3 16.5 286.3 16.5 L 282.7 16.5 C 282.7 16.5 282.68 15.6 282.7 15.6 C 282.3 16 281.8 16.3 281.2 16.5 C 280.6 16.7 279.9 16.8 279.1 16.8 C 279.1 16.8 279.1 16.8 279.1 16.8 Z M 280.3 14.5 C 280.7 14.5 281.1 14.4 281.5 14.2 C 281.9 14 282.2 13.8 282.4 13.5 C 282.4 13.5 282.4 12.5 282.4 12.5 C 281.8 12.1 281.1 11.9 280.3 11.9 C 279.8 11.9 279.4 12 279.1 12.2 C 278.8 12.5 278.7 12.8 278.7 13.2 C 278.7 13.6 278.8 13.9 279.1 14.1 C 279.4 14.3 279.7 14.5 280.3 14.5 C 280.3 14.5 280.3 14.5 280.3 14.5 Z M 292.8 16.8 C 291.4 16.8 290.5 16.5 289.8 15.7 C 289.1 15 288.8 14 288.8 12.8 C 288.79 12.76 288.8 8.6 288.8 8.6 L 287.3 8.6 L 287.3 5.9 L 288.8 5.9 L 288.8 2.8 L 292.7 2.8 L 292.7 5.9 L 295.1 5.9 L 295.1 8.6 L 292.7 8.6 C 292.7 8.6 292.67 12.23 292.7 12.2 C 292.7 12.8 292.8 13.2 293 13.5 C 293.2 13.7 293.6 13.8 294.1 13.8 C 294.6 13.8 295.1 13.7 295.6 13.4 C 295.6 13.4 295.6 16.3 295.6 16.3 C 295.2 16.5 294.8 16.6 294.3 16.7 C 293.9 16.8 293.4 16.8 292.8 16.8 C 292.8 16.8 292.8 16.8 292.8 16.8 Z M 299 4.5 C 298.4 4.5 297.9 4.3 297.5 4 C 297.1 3.6 296.9 3.1 296.9 2.5 C 296.9 1.9 297.1 1.5 297.5 1.1 C 297.9 0.7 298.4 0.5 299 0.5 C 299.6 0.5 300 0.7 300.4 1.1 C 300.9 1.5 301.1 1.9 301.1 2.5 C 301.1 3.1 300.9 3.6 300.4 3.9 C 300 4.3 299.6 4.5 299 4.5 C 299 4.5 299 4.5 299 4.5 Z M 297.1 5.9 L 300.9 5.9 L 300.9 16.5 L 297.1 16.5 L 297.1 5.9 Z M 309.1 16.8 C 307.8 16.8 306.6 16.6 305.6 16.1 C 304.6 15.6 303.9 15 303.4 14.1 C 302.8 13.3 302.6 12.3 302.6 11.2 C 302.6 10.1 302.8 9.1 303.4 8.3 C 303.9 7.5 304.6 6.8 305.6 6.3 C 306.6 5.8 307.8 5.6 309.1 5.6 C 310.4 5.6 311.5 5.8 312.5 6.3 C 313.5 6.8 314.2 7.5 314.8 8.3 C 315.3 9.1 315.6 10.1 315.6 11.2 C 315.6 12.3 315.3 13.3 314.8 14.1 C 314.2 15 313.5 15.6 312.5 16.1 C 311.5 16.6 310.4 16.8 309.1 16.8 C 309.1 16.8 309.1 16.8 309.1 16.8 Z M 309.1 13.8 C 309.8 13.8 310.5 13.6 310.9 13.1 C 311.4 12.7 311.6 12 311.6 11.2 C 311.6 10.4 311.4 9.8 310.9 9.3 C 310.5 8.9 309.8 8.6 309.1 8.6 C 308.3 8.6 307.7 8.9 307.2 9.3 C 306.7 9.8 306.5 10.4 306.5 11.2 C 306.5 12 306.7 12.7 307.2 13.1 C 307.7 13.6 308.3 13.8 309.1 13.8 C 309.1 13.8 309.1 13.8 309.1 13.8 Z M 317.2 5.9 L 320.9 5.9 C 320.9 5.9 320.89 7.11 320.9 7.1 C 321.3 6.6 321.9 6.2 322.5 6 C 323.2 5.7 323.9 5.6 324.6 5.6 C 326 5.6 327.1 6 327.9 6.8 C 328.6 7.5 328.9 8.6 328.9 9.9 C 328.92 9.9 328.9 16.5 328.9 16.5 L 325 16.5 C 325 16.5 325.05 10.41 325 10.4 C 325 9.2 324.5 8.6 323.4 8.6 C 322.9 8.6 322.5 8.7 322.1 9 C 321.6 9.2 321.3 9.5 321 10 C 321.02 10.01 321 16.5 321 16.5 L 317.2 16.5 L 317.2 5.9 Z M 342.8 1.1 C 342.8 1.1 350.55 1.12 350.5 1.1 C 352 1.1 353.2 1.5 354.1 2.2 C 354.9 3 355.3 4 355.3 5.4 C 355.3 6 355.2 6.6 354.9 7.2 C 354.6 7.7 354.2 8.2 353.6 8.5 C 354.4 8.8 354.9 9.2 355.3 9.8 C 355.7 10.3 355.8 11 355.8 11.9 C 355.8 12.8 355.6 13.7 355.2 14.4 C 354.7 15.1 354.1 15.6 353.4 15.9 C 352.7 16.3 351.8 16.5 350.9 16.5 C 350.92 16.5 342.8 16.5 342.8 16.5 L 342.8 1.1 Z M 349.7 7.2 C 350.8 7.2 351.4 6.7 351.4 5.6 C 351.4 5 351.3 4.6 351 4.4 C 350.7 4.1 350.2 4 349.6 4 C 349.62 4.03 346.7 4 346.7 4 L 346.7 7.2 C 346.7 7.2 349.69 7.22 349.7 7.2 Z M 349.9 13.6 C 350.6 13.6 351.1 13.5 351.4 13.2 C 351.7 13 351.9 12.5 351.9 11.9 C 351.9 11.3 351.7 10.8 351.4 10.5 C 351 10.2 350.5 10.1 349.8 10.1 C 349.84 10.1 346.7 10.1 346.7 10.1 L 346.7 13.6 C 346.7 13.6 349.93 13.6 349.9 13.6 Z M 357.7 1.1 L 361.6 1.1 L 361.6 16.5 L 357.7 16.5 L 357.7 1.1 Z M 364 1.1 L 367.8 1.1 L 373.5 10.3 L 373.5 1.1 L 377.4 1.1 L 377.4 16.5 L 373.6 16.5 L 367.9 7.3 L 367.9 16.5 L 364 16.5 L 364 1.1 Z M 387.6 16.8 C 385.9 16.8 384.4 16.5 383.2 15.9 C 381.9 15.2 380.9 14.3 380.2 13.1 C 379.5 11.9 379.2 10.4 379.2 8.8 C 379.2 7.2 379.5 5.8 380.2 4.6 C 380.9 3.4 381.9 2.4 383.2 1.8 C 384.4 1.1 385.9 0.8 387.6 0.8 C 388.7 0.8 389.7 0.9 390.5 1.1 C 391.4 1.3 392.2 1.7 392.9 2.1 C 392.9 2.1 392.9 5.8 392.9 5.8 C 392.3 5.3 391.5 4.9 390.7 4.7 C 389.9 4.5 389 4.4 387.9 4.4 C 387 4.4 386.2 4.6 385.5 4.9 C 384.8 5.3 384.2 5.8 383.8 6.5 C 383.4 7.1 383.2 7.9 383.2 8.8 C 383.2 10.2 383.6 11.3 384.4 12.1 C 385.2 12.9 386.3 13.3 387.7 13.3 C 388.5 13.3 389.1 13.2 389.7 12.9 C 389.68 12.94 389.7 10.5 389.7 10.5 L 387.3 10.5 L 387.3 7.7 L 393.4 7.7 C 393.4 7.7 393.37 15.4 393.4 15.4 C 391.8 16.4 389.9 16.8 387.6 16.8 C 387.6 16.8 387.6 16.8 387.6 16.8 Z M 395.5 1.1 L 406.4 1.1 L 406.4 4.4 L 399.4 4.4 L 399.4 7.3 L 404.5 7.3 L 404.5 10.3 L 399.4 10.3 L 399.4 13.2 L 406.4 13.2 L 406.4 16.5 L 395.5 16.5 L 395.5 1.1 Z M 407.4 8.3 L 415.2 8.3 L 415.2 11.4 L 407.4 11.4 L 407.4 8.3 Z M 417.4 1.1 L 428.3 1.1 L 428.3 4.4 L 421.3 4.4 L 421.3 7.3 L 426.4 7.3 L 426.4 10.3 L 421.3 10.3 L 421.3 16.5 L 417.4 16.5 L 417.4 1.1 Z M 429.4 1.1 L 433.2 1.1 L 433.2 16.5 L 429.4 16.5 L 429.4 1.1 Z M 438.7 4.4 L 434.3 4.4 L 434.3 1.1 L 446.9 1.1 L 446.9 4.4 L 442.6 4.4 L 442.6 16.5 L 438.7 16.5 L 438.7 4.4 Z M 464.7 16.8 C 463.8 16.8 462.9 16.7 462 16.6 C 461.1 16.4 460.3 16.2 459.8 15.9 C 459.8 15.9 459.8 13 459.8 13 C 460.4 13.4 461.1 13.7 462 13.9 C 462.8 14.1 463.6 14.2 464.3 14.2 C 464.8 14.2 465.2 14.2 465.4 14.1 C 465.6 14.1 465.8 13.9 465.8 13.7 C 465.8 13.5 465.7 13.4 465.5 13.3 C 465.4 13.1 465.1 13 464.7 12.9 C 464.3 12.8 463.8 12.6 463.3 12.5 C 462.4 12.2 461.7 12 461.2 11.7 C 460.7 11.4 460.3 11.1 460 10.6 C 459.8 10.2 459.7 9.7 459.7 9 C 459.7 7.9 460.1 7 461 6.5 C 461.9 5.9 463.2 5.6 464.7 5.6 C 465.5 5.6 466.3 5.7 467.1 5.9 C 468 6 468.6 6.2 469 6.5 C 469 6.5 469 9.3 469 9.3 C 468.6 9 468 8.7 467.3 8.6 C 466.6 8.4 465.9 8.3 465.3 8.3 C 464.8 8.3 464.4 8.3 464.1 8.4 C 463.8 8.5 463.7 8.7 463.7 8.9 C 463.7 9.1 463.8 9.3 464.1 9.4 C 464.4 9.5 464.9 9.7 465.6 9.9 C 466.1 10 466.2 10 466.2 10 C 467.1 10.3 467.8 10.5 468.4 10.8 C 468.9 11.2 469.2 11.5 469.4 11.9 C 469.7 12.4 469.8 12.9 469.8 13.5 C 469.8 14.5 469.3 15.3 468.5 15.9 C 467.6 16.5 466.3 16.8 464.7 16.8 C 464.7 16.8 464.7 16.8 464.7 16.8 Z M 475.6 16.8 C 474.1 16.8 473.1 16.4 472.3 15.6 C 471.6 14.8 471.2 13.8 471.2 12.4 C 471.24 12.43 471.2 5.9 471.2 5.9 L 475.1 5.9 C 475.1 5.9 475.12 11.99 475.1 12 C 475.1 13.2 475.7 13.8 476.8 13.8 C 477.3 13.8 477.7 13.7 478.1 13.5 C 478.5 13.2 478.9 12.9 479.1 12.4 C 479.14 12.43 479.1 5.9 479.1 5.9 L 483 5.9 L 483 16.5 L 479.3 16.5 C 479.3 16.5 479.27 15.36 479.3 15.4 C 478.8 15.8 478.3 16.2 477.6 16.5 C 477 16.7 476.3 16.8 475.6 16.8 C 475.6 16.8 475.6 16.8 475.6 16.8 Z M 485.1 5.9 L 488.9 5.9 C 488.9 5.9 488.87 7.26 488.9 7.3 C 489.3 6.8 489.9 6.4 490.6 6.2 C 491.4 5.9 492.2 5.8 493.1 5.8 C 493.1 5.8 493.1 8.8 493.1 8.8 C 492.1 8.8 491.3 8.9 490.5 9.2 C 489.8 9.5 489.3 9.9 489 10.4 C 489 10.43 489 16.5 489 16.5 L 485.1 16.5 L 485.1 5.9 Z M 512 16.8 C 510.1 16.8 508.5 16.3 507.4 15.4 C 506.3 14.4 505.7 13 505.7 11.2 C 505.7 9.5 506.3 8.1 507.4 7.1 C 508.6 6.1 510.1 5.6 512 5.6 C 512.9 5.6 513.7 5.7 514.5 5.9 C 515.2 6 515.8 6.3 516.3 6.6 C 516.3 6.6 516.3 9.6 516.3 9.6 C 515.5 8.9 514.3 8.6 512.8 8.6 C 511.9 8.6 511.1 8.8 510.6 9.3 C 510 9.7 509.7 10.4 509.7 11.2 C 509.7 12.1 510 12.8 510.5 13.2 C 511.1 13.6 511.8 13.8 512.8 13.8 C 514.2 13.8 515.4 13.5 516.5 12.8 C 516.5 12.8 516.5 15.8 516.5 15.8 C 515.4 16.5 513.9 16.8 512 16.8 C 512 16.8 512 16.8 512 16.8 Z M 522.1 16.8 C 520.8 16.8 519.7 16.5 518.9 15.9 C 518.1 15.2 517.7 14.3 517.7 13.2 C 517.7 12 518.1 11.1 518.8 10.5 C 519.6 9.8 520.7 9.5 522.2 9.5 C 522.8 9.5 523.4 9.6 523.9 9.7 C 524.5 9.8 525 10 525.4 10.2 C 525.4 10.2 525.4 10 525.4 10 C 525.4 8.8 524.5 8.3 522.6 8.3 C 521.3 8.3 520.2 8.5 519.1 9 C 519.1 9 519.1 6.4 519.1 6.4 C 519.6 6.1 520.2 6 520.9 5.8 C 521.7 5.7 522.5 5.6 523.3 5.6 C 525.3 5.6 526.8 6 527.8 6.8 C 528.8 7.6 529.3 8.7 529.3 10.1 C 529.28 10.08 529.3 16.5 529.3 16.5 L 525.6 16.5 C 525.6 16.5 525.65 15.6 525.6 15.6 C 525.2 16 524.8 16.3 524.1 16.5 C 523.5 16.7 522.9 16.8 522.1 16.8 C 522.1 16.8 522.1 16.8 522.1 16.8 Z M 523.2 14.5 C 523.7 14.5 524.1 14.4 524.5 14.2 C 524.9 14 525.2 13.8 525.4 13.5 C 525.4 13.5 525.4 12.5 525.4 12.5 C 524.8 12.1 524.1 11.9 523.2 11.9 C 522.7 11.9 522.3 12 522.1 12.2 C 521.8 12.5 521.6 12.8 521.6 13.2 C 521.6 13.6 521.8 13.9 522 14.1 C 522.3 14.3 522.7 14.5 523.2 14.5 C 523.2 14.5 523.2 14.5 523.2 14.5 Z M 531.3 5.9 L 535 5.9 C 535 5.9 535.04 7.11 535 7.1 C 535.5 6.6 536 6.2 536.7 6 C 537.3 5.7 538 5.6 538.7 5.6 C 540.2 5.6 541.3 6 542 6.8 C 542.7 7.5 543.1 8.6 543.1 9.9 C 543.07 9.9 543.1 16.5 543.1 16.5 L 539.2 16.5 C 539.2 16.5 539.19 10.41 539.2 10.4 C 539.2 9.2 538.7 8.6 537.6 8.6 C 537.1 8.6 536.6 8.7 536.2 9 C 535.8 9.2 535.4 9.5 535.2 10 C 535.17 10.01 535.2 16.5 535.2 16.5 L 531.3 16.5 L 531.3 5.9 Z M 548.9 16.8 C 547.6 16.8 546.5 16.5 545.7 15.9 C 544.9 15.2 544.5 14.3 544.5 13.2 C 544.5 12 544.9 11.1 545.7 10.5 C 546.5 9.8 547.6 9.5 549.1 9.5 C 549.6 9.5 550.2 9.6 550.8 9.7 C 551.3 9.8 551.8 10 552.3 10.2 C 552.3 10.2 552.3 10 552.3 10 C 552.3 8.8 551.3 8.3 549.5 8.3 C 548.2 8.3 547 8.5 545.9 9 C 545.9 9 545.9 6.4 545.9 6.4 C 546.4 6.1 547 6 547.8 5.8 C 548.5 5.7 549.3 5.6 550.2 5.6 C 552.1 5.6 553.6 6 554.6 6.8 C 555.6 7.6 556.1 8.7 556.1 10.1 C 556.12 10.08 556.1 16.5 556.1 16.5 L 552.5 16.5 C 552.5 16.5 552.49 15.6 552.5 15.6 C 552.1 16 551.6 16.3 551 16.5 C 550.4 16.7 549.7 16.8 548.9 16.8 C 548.9 16.8 548.9 16.8 548.9 16.8 Z M 550.1 14.5 C 550.5 14.5 551 14.4 551.3 14.2 C 551.7 14 552 13.8 552.3 13.5 C 552.3 13.5 552.3 12.5 552.3 12.5 C 551.6 12.1 550.9 11.9 550.1 11.9 C 549.6 11.9 549.2 12 548.9 12.2 C 548.6 12.5 548.5 12.8 548.5 13.2 C 548.5 13.6 548.6 13.9 548.9 14.1 C 549.2 14.3 549.6 14.5 550.1 14.5 C 550.1 14.5 550.1 14.5 550.1 14.5 Z M 558.2 0.2 L 562 0.2 L 562 16.5 L 558.2 16.5 L 558.2 0.2 Z M 564.1 5.9 L 567.9 5.9 C 567.9 5.9 567.88 7 567.9 7 C 568.9 6.1 570.1 5.6 571.6 5.6 C 572.7 5.6 573.7 5.8 574.5 6.3 C 575.4 6.8 576.1 7.4 576.5 8.3 C 577 9.1 577.2 10.1 577.2 11.2 C 577.2 12.3 577 13.3 576.5 14.1 C 576.1 15 575.4 15.7 574.6 16.1 C 573.7 16.6 572.7 16.8 571.6 16.8 C 570.9 16.8 570.2 16.7 569.6 16.5 C 569 16.3 568.4 16 568 15.6 C 568.01 15.64 568 21.3 568 21.3 L 564.1 21.3 L 564.1 5.9 Z M 570.6 13.8 C 571.4 13.8 572 13.6 572.5 13.1 C 573 12.6 573.2 12 573.2 11.2 C 573.2 10.4 573 9.8 572.5 9.3 C 572 8.8 571.4 8.6 570.6 8.6 C 570 8.6 569.5 8.8 569 9.1 C 568.6 9.4 568.2 9.8 568 10.3 C 568 10.3 568 12.1 568 12.1 C 568.2 12.7 568.6 13.1 569 13.4 C 569.5 13.7 570 13.8 570.6 13.8 C 570.6 13.8 570.6 13.8 570.6 13.8 Z M 578.8 0.2 L 582.7 0.2 L 582.7 16.5 L 578.8 16.5 L 578.8 0.2 Z M 589.1 16.8 C 587.7 16.8 586.6 16.4 585.8 15.6 C 585.1 14.8 584.8 13.8 584.8 12.4 C 584.75 12.43 584.8 5.9 584.8 5.9 L 588.6 5.9 C 588.6 5.9 588.63 11.99 588.6 12 C 588.6 13.2 589.2 13.8 590.3 13.8 C 590.8 13.8 591.2 13.7 591.6 13.5 C 592 13.2 592.4 12.9 592.7 12.4 C 592.65 12.43 592.7 5.9 592.7 5.9 L 596.5 5.9 L 596.5 16.5 L 592.8 16.5 C 592.8 16.5 592.78 15.36 592.8 15.4 C 592.3 15.8 591.8 16.2 591.1 16.5 C 590.5 16.7 589.8 16.8 589.1 16.8 C 589.1 16.8 589.1 16.8 589.1 16.8 Z M 603.3 16.8 C 602.4 16.8 601.5 16.7 600.6 16.6 C 599.7 16.4 599 16.2 598.4 15.9 C 598.4 15.9 598.4 13 598.4 13 C 599 13.4 599.7 13.7 600.6 13.9 C 601.4 14.1 602.2 14.2 602.9 14.2 C 603.4 14.2 603.8 14.2 604 14.1 C 604.3 14.1 604.4 13.9 604.4 13.7 C 604.4 13.5 604.3 13.4 604.2 13.3 C 604 13.1 603.7 13 603.3 12.9 C 602.9 12.8 602.4 12.6 601.9 12.5 C 601 12.2 600.3 12 599.8 11.7 C 599.3 11.4 598.9 11.1 598.7 10.6 C 598.4 10.2 598.3 9.7 598.3 9 C 598.3 7.9 598.7 7 599.6 6.5 C 600.5 5.9 601.8 5.6 603.3 5.6 C 604.1 5.6 604.9 5.7 605.8 5.9 C 606.6 6 607.2 6.2 607.7 6.5 C 607.7 6.5 607.7 9.3 607.7 9.3 C 607.2 9 606.6 8.7 605.9 8.6 C 605.2 8.4 604.5 8.3 603.9 8.3 C 603.4 8.3 603 8.3 602.7 8.4 C 602.4 8.5 602.3 8.7 602.3 8.9 C 602.3 9.1 602.4 9.3 602.7 9.4 C 603 9.5 603.5 9.7 604.2 9.9 C 604.7 10 604.9 10 604.8 10 C 605.7 10.3 606.5 10.5 607 10.8 C 607.5 11.2 607.9 11.5 608.1 11.9 C 608.3 12.4 608.4 12.9 608.4 13.5 C 608.4 14.5 607.9 15.3 607.1 15.9 C 606.2 16.5 604.9 16.8 603.3 16.8 C 603.3 16.8 603.3 16.8 603.3 16.8 Z M 611.1 16.5 C 610.7 16.5 610.3 16.4 610.1 16.1 C 609.8 15.8 609.7 15.5 609.7 15.1 C 609.7 14.7 609.8 14.4 610.1 14.1 C 610.3 13.8 610.7 13.7 611.1 13.7 C 611.4 13.7 611.8 13.8 612.1 14.1 C 612.3 14.4 612.5 14.7 612.5 15.1 C 612.5 15.5 612.3 15.8 612.1 16.1 C 611.8 16.4 611.4 16.5 611.1 16.5 C 611.1 16.5 611.1 16.5 611.1 16.5 Z M 619.7 16.8 C 617.8 16.8 616.3 16.3 615.1 15.4 C 614 14.4 613.4 13 613.4 11.2 C 613.4 9.5 614 8.1 615.2 7.1 C 616.3 6.1 617.8 5.6 619.8 5.6 C 620.6 5.6 621.4 5.7 622.2 5.9 C 622.9 6 623.6 6.3 624.1 6.6 C 624.1 6.6 624.1 9.6 624.1 9.6 C 623.2 8.9 622 8.6 620.5 8.6 C 619.6 8.6 618.8 8.8 618.3 9.3 C 617.7 9.7 617.4 10.4 617.4 11.2 C 617.4 12.1 617.7 12.8 618.3 13.2 C 618.8 13.6 619.6 13.8 620.5 13.8 C 621.9 13.8 623.2 13.5 624.2 12.8 C 624.2 12.8 624.2 15.8 624.2 15.8 C 623.1 16.5 621.6 16.8 619.7 16.8 C 619.7 16.8 619.7 16.8 619.7 16.8 Z M 631.8 16.8 C 630.5 16.8 629.4 16.6 628.4 16.1 C 627.4 15.6 626.7 15 626.1 14.1 C 625.6 13.3 625.3 12.3 625.3 11.2 C 625.3 10.1 625.6 9.1 626.1 8.3 C 626.7 7.5 627.4 6.8 628.4 6.3 C 629.4 5.8 630.5 5.6 631.8 5.6 C 633.2 5.6 634.3 5.8 635.3 6.3 C 636.3 6.8 637 7.5 637.6 8.3 C 638.1 9.1 638.4 10.1 638.4 11.2 C 638.4 12.3 638.1 13.3 637.6 14.1 C 637 15 636.3 15.6 635.3 16.1 C 634.3 16.6 633.2 16.8 631.8 16.8 C 631.8 16.8 631.8 16.8 631.8 16.8 Z M 631.8 13.8 C 632.6 13.8 633.2 13.6 633.7 13.1 C 634.2 12.7 634.4 12 634.4 11.2 C 634.4 10.4 634.2 9.8 633.7 9.3 C 633.2 8.9 632.6 8.6 631.8 8.6 C 631.1 8.6 630.4 8.9 630 9.3 C 629.5 9.8 629.3 10.4 629.3 11.2 C 629.3 12 629.5 12.7 630 13.1 C 630.4 13.6 631.1 13.8 631.8 13.8 C 631.8 13.8 631.8 13.8 631.8 13.8 Z M 639.9 5.9 L 643.5 5.9 C 643.5 5.9 643.52 7.08 643.5 7.1 C 644 6.6 644.5 6.3 645 6 C 645.6 5.7 646.2 5.6 646.9 5.6 C 647.7 5.6 648.3 5.7 648.8 6 C 649.2 6.2 649.6 6.5 649.9 7 C 650.4 6.6 650.9 6.2 651.5 6 C 652.2 5.7 652.8 5.6 653.4 5.6 C 654.8 5.6 655.8 6 656.4 6.7 C 657 7.4 657.3 8.4 657.3 9.7 C 657.29 9.75 657.3 16.5 657.3 16.5 L 653.6 16.5 C 653.6 16.5 653.6 10.3 653.6 10.3 C 653.6 9.7 653.5 9.3 653.3 9 C 653 8.8 652.7 8.6 652.2 8.6 C 651.5 8.6 651 8.9 650.6 9.3 C 650.6 9.6 650.6 10 650.6 10.5 C 650.58 10.47 650.6 16.5 650.6 16.5 L 646.9 16.5 C 646.9 16.5 646.89 10.14 646.9 10.1 C 646.9 9.6 646.8 9.2 646.6 9 C 646.4 8.7 646.1 8.6 645.6 8.6 C 644.8 8.6 644.2 9 643.7 9.9 C 643.65 9.88 643.7 16.5 643.7 16.5 L 639.9 16.5 L 639.9 5.9 Z M 664.8 0.8 L 668.7 0.8 L 662.5 16.5 L 658.5 16.5 L 664.8 0.8 Z M 669.9 1.1 C 669.9 1.1 677.7 1.12 677.7 1.1 C 679.2 1.1 680.4 1.5 681.2 2.2 C 682.1 3 682.5 4 682.5 5.4 C 682.5 6 682.4 6.6 682.1 7.2 C 681.8 7.7 681.3 8.2 680.8 8.5 C 681.6 8.8 682.1 9.2 682.5 9.8 C 682.8 10.3 683 11 683 11.9 C 683 12.8 682.8 13.7 682.3 14.4 C 681.9 15.1 681.3 15.6 680.6 15.9 C 679.8 16.3 679 16.5 678.1 16.5 C 678.08 16.5 669.9 16.5 669.9 16.5 L 669.9 1.1 Z M 676.8 7.2 C 678 7.2 678.6 6.7 678.6 5.6 C 678.6 5 678.4 4.6 678.1 4.4 C 677.8 4.1 677.4 4 676.8 4 C 676.78 4.03 673.8 4 673.8 4 L 673.8 7.2 C 673.8 7.2 676.84 7.22 676.8 7.2 Z M 677.1 13.6 C 677.7 13.6 678.2 13.5 678.6 13.2 C 678.9 13 679 12.5 679 11.9 C 679 11.3 678.9 10.8 678.5 10.5 C 678.2 10.2 677.7 10.1 677 10.1 C 677 10.1 673.8 10.1 673.8 10.1 L 673.8 13.6 C 673.8 13.6 677.09 13.6 677.1 13.6 Z M 686.7 4.5 C 686.1 4.5 685.7 4.3 685.3 4 C 684.9 3.6 684.7 3.1 684.7 2.5 C 684.7 1.9 684.9 1.5 685.3 1.1 C 685.7 0.7 686.1 0.5 686.7 0.5 C 687.3 0.5 687.8 0.7 688.2 1.1 C 688.6 1.5 688.8 1.9 688.8 2.5 C 688.8 3.1 688.6 3.6 688.2 3.9 C 687.8 4.3 687.3 4.5 686.7 4.5 C 686.7 4.5 686.7 4.5 686.7 4.5 Z M 684.8 5.9 L 688.7 5.9 L 688.7 16.5 L 684.8 16.5 L 684.8 5.9 Z M 690.9 5.9 L 694.6 5.9 C 694.6 5.9 694.6 7.11 694.6 7.1 C 695.1 6.6 695.6 6.2 696.3 6 C 696.9 5.7 697.6 5.6 698.3 5.6 C 699.8 5.6 700.9 6 701.6 6.8 C 702.3 7.5 702.6 8.6 702.6 9.9 C 702.63 9.9 702.6 16.5 702.6 16.5 L 698.8 16.5 C 698.8 16.5 698.76 10.41 698.8 10.4 C 698.8 9.2 698.2 8.6 697.1 8.6 C 696.6 8.6 696.2 8.7 695.8 9 C 695.4 9.2 695 9.5 694.7 10 C 694.74 10.01 694.7 16.5 694.7 16.5 L 690.9 16.5 L 690.9 5.9 Z M 710.3 21.6 C 709.6 21.6 708.9 21.5 708.2 21.4 C 707.5 21.2 706.9 21.1 706.4 20.8 C 706.4 20.8 706.4 18.1 706.4 18.1 C 707.5 18.6 708.9 18.9 710.3 18.9 C 711.4 18.9 712.2 18.7 712.7 18.2 C 713.1 17.8 713.4 17.2 713.4 16.3 C 713.4 16.3 713.4 15.7 713.4 15.7 C 712.9 16 712.4 16.3 711.8 16.5 C 711.2 16.7 710.5 16.8 709.8 16.8 C 708.7 16.8 707.7 16.6 706.9 16.1 C 706 15.7 705.3 15 704.9 14.1 C 704.4 13.3 704.2 12.3 704.2 11.2 C 704.2 10.1 704.4 9.1 704.9 8.3 C 705.3 7.4 706 6.8 706.8 6.3 C 707.7 5.8 708.7 5.6 709.8 5.6 C 711.3 5.6 712.5 6.1 713.5 7 C 713.51 7 713.5 5.9 713.5 5.9 L 717.2 5.9 C 717.2 5.9 717.25 15.77 717.2 15.8 C 717.2 17.6 716.7 19 715.6 20 C 714.4 21.1 712.7 21.6 710.3 21.6 C 710.3 21.6 710.3 21.6 710.3 21.6 Z M 710.8 13.8 C 711.4 13.8 711.9 13.7 712.4 13.4 C 712.9 13.1 713.2 12.7 713.4 12.1 C 713.4 12.1 713.4 10.3 713.4 10.3 C 713.2 9.8 712.8 9.4 712.4 9.1 C 711.9 8.8 711.4 8.6 710.8 8.6 C 710 8.6 709.3 8.9 708.9 9.3 C 708.4 9.8 708.1 10.4 708.1 11.2 C 708.1 12 708.4 12.6 708.9 13.1 C 709.3 13.6 710 13.8 710.8 13.8 C 710.8 13.8 710.8 13.8 710.8 13.8 Z M 725.5 16.8 C 723.4 16.8 721.8 16.3 720.6 15.4 C 719.4 14.4 718.9 13 718.9 11.3 C 718.9 9.5 719.4 8.1 720.4 7.1 C 721.5 6.1 723 5.6 725 5.6 C 726.2 5.6 727.3 5.8 728.2 6.3 C 729.1 6.8 729.8 7.5 730.3 8.3 C 730.7 9.1 731 10 731 11.1 C 730.95 11.09 731 12.5 731 12.5 C 731 12.5 722.52 12.52 722.5 12.5 C 722.7 13.1 723 13.5 723.6 13.8 C 724.2 14.1 725 14.2 726 14.2 C 726.7 14.2 727.4 14.1 728.1 14 C 728.9 13.9 729.5 13.7 730 13.5 C 730 13.5 730 16.1 730 16.1 C 729.5 16.3 728.8 16.5 728 16.6 C 727.2 16.8 726.3 16.8 725.5 16.8 C 725.5 16.8 725.5 16.8 725.5 16.8 Z M 727.3 10.1 C 727.2 9.5 727 9.1 726.6 8.8 C 726.2 8.4 725.6 8.3 724.9 8.3 C 724.2 8.3 723.6 8.4 723.2 8.8 C 722.8 9.1 722.6 9.5 722.5 10.1 C 722.5 10.1 727.3 10.1 727.3 10.1 Z M 732.5 8.3 L 740.3 8.3 L 740.3 11.4 L 732.5 11.4 L 732.5 8.3 Z M 742.8 8.6 L 741.4 8.6 L 741.4 5.9 L 742.8 5.9 C 742.8 5.9 742.83 4.66 742.8 4.7 C 742.8 3.7 743 2.9 743.5 2.2 C 743.9 1.5 744.5 1 745.3 0.7 C 746 0.3 746.9 0.1 747.8 0.1 C 748.6 0.1 749.3 0.3 749.9 0.5 C 749.9 0.5 749.9 3.6 749.9 3.6 C 749.5 3.4 749 3.3 748.5 3.3 C 747.3 3.3 746.7 3.9 746.7 5 C 746.7 4.99 746.7 5.9 746.7 5.9 L 754.6 5.9 L 754.6 16.5 L 750.7 16.5 L 750.7 8.6 L 746.7 8.6 L 746.7 16.5 L 742.8 16.5 L 742.8 8.6 Z M 752.6 4.5 C 752.1 4.5 751.6 4.3 751.2 4 C 750.8 3.6 750.6 3.1 750.6 2.5 C 750.6 1.9 750.8 1.5 751.2 1.1 C 751.6 0.7 752.1 0.5 752.6 0.5 C 753.2 0.5 753.7 0.7 754.1 1.1 C 754.5 1.5 754.7 2 754.7 2.5 C 754.7 3.1 754.5 3.6 754.1 3.9 C 753.7 4.3 753.2 4.5 752.6 4.5 C 752.6 4.5 752.6 4.5 752.6 4.5 Z M 761.4 16.8 C 760.1 16.8 759.1 16.5 758.4 15.7 C 757.7 15 757.4 14 757.4 12.8 C 757.4 12.76 757.4 8.6 757.4 8.6 L 755.9 8.6 L 755.9 5.9 L 757.4 5.9 L 757.4 2.8 L 761.3 2.8 L 761.3 5.9 L 763.7 5.9 L 763.7 8.6 L 761.3 8.6 C 761.3 8.6 761.27 12.23 761.3 12.2 C 761.3 12.8 761.4 13.2 761.6 13.5 C 761.8 13.7 762.2 13.8 762.7 13.8 C 763.2 13.8 763.7 13.7 764.2 13.4 C 764.2 13.4 764.2 16.3 764.2 16.3 C 763.8 16.5 763.4 16.6 763 16.7 C 762.5 16.8 762 16.8 761.4 16.8 C 761.4 16.8 761.4 16.8 761.4 16.8 Z " stroke="none" fill="#fafafa"/>  </g></svg>