<?xml version="1.0" standalone="no"?><!DOCTYPE svg PUBLIC "-//W3C//DTD SVG 1.1//EN" "http://www.w3.org/Graphics/SVG/1.1/DTD/svg11.dtd"><svg xmlns="http://www.w3.org/2000/svg" version="1.1" width="495px" height="95px" viewBox="0 -1 495 95" style="top:-1px">  <desc>rani bourenane</desc>  <defs/>  <g id="Polygon2911">    <path d="M 403.2 43 C 403.2 43 405.41 42.98 405.4 43 C 406 43 406.5 43.1 406.8 43.4 C 407.1 43.7 407.3 44.1 407.3 44.7 C 407.3 45.1 407.2 45.4 406.9 45.7 C 406.7 46 406.4 46.2 406 46.3 C 406.01 46.3 407.2 48.6 407.2 48.6 L 406.4 48.6 L 405.2 46.4 L 404 46.4 L 404 48.6 L 403.2 48.6 L 403.2 43 Z M 405.3 45.7 C 405.6 45.7 405.9 45.6 406.1 45.4 C 406.3 45.3 406.4 45 406.4 44.7 C 406.4 44.3 406.3 44.1 406.1 43.9 C 405.9 43.7 405.6 43.7 405.3 43.7 C 405.28 43.67 404 43.7 404 43.7 L 404 45.7 C 404 45.7 405.28 45.68 405.3 45.7 Z M 412 43 L 412.7 43 L 415 48.6 L 414.1 48.6 L 413.6 47.2 L 411.1 47.2 L 410.6 48.6 L 409.7 48.6 L 412 43 Z M 413.4 46.5 L 412.3 43.9 L 411.3 46.5 L 413.4 46.5 Z M 417.5 43 L 418.3 43 L 421.1 47.2 L 421.1 43 L 422 43 L 422 48.6 L 421.2 48.6 L 418.3 44.4 L 418.3 48.6 L 417.5 48.6 L 417.5 43 Z M 424.9 43 L 425.7 43 L 425.7 48.6 L 424.9 48.6 L 424.9 43 Z M 432.9 43 C 432.9 43 435.49 42.98 435.5 43 C 436 43 436.4 43.1 436.6 43.4 C 436.9 43.6 437.1 44 437.1 44.5 C 437.1 44.8 437 45 436.9 45.2 C 436.7 45.4 436.6 45.6 436.3 45.7 C 436.9 45.9 437.2 46.3 437.2 47 C 437.2 47.3 437.2 47.6 437 47.8 C 436.9 48.1 436.7 48.3 436.4 48.4 C 436.2 48.5 435.9 48.6 435.6 48.6 C 435.63 48.57 432.9 48.6 432.9 48.6 L 432.9 43 Z M 435.4 45.4 C 435.6 45.4 435.9 45.3 436 45.2 C 436.2 45 436.2 44.8 436.2 44.5 C 436.2 44.2 436.2 44 436 43.8 C 435.9 43.7 435.6 43.6 435.3 43.6 C 435.33 43.65 433.7 43.6 433.7 43.6 L 433.7 45.4 C 433.7 45.4 435.39 45.38 435.4 45.4 Z M 435.4 47.9 C 435.8 47.9 436 47.8 436.2 47.7 C 436.3 47.6 436.4 47.3 436.4 47 C 436.4 46.7 436.3 46.4 436.2 46.3 C 436 46.1 435.7 46.1 435.4 46.1 C 435.37 46.05 433.7 46.1 433.7 46.1 L 433.7 47.9 C 433.7 47.9 435.44 47.91 435.4 47.9 Z M 442.6 48.7 C 442.1 48.7 441.6 48.6 441.1 48.3 C 440.7 48.1 440.3 47.7 440.1 47.3 C 439.8 46.9 439.7 46.4 439.7 45.8 C 439.7 45.2 439.8 44.7 440.1 44.3 C 440.3 43.8 440.7 43.5 441.1 43.2 C 441.6 43 442.1 42.9 442.6 42.9 C 443.2 42.9 443.7 43 444.2 43.2 C 444.6 43.5 445 43.8 445.2 44.3 C 445.5 44.7 445.6 45.2 445.6 45.8 C 445.6 46.4 445.5 46.9 445.2 47.3 C 445 47.7 444.6 48.1 444.2 48.3 C 443.7 48.6 443.2 48.7 442.6 48.7 C 442.6 48.7 442.6 48.7 442.6 48.7 Z M 442.6 48 C 443 48 443.4 47.9 443.7 47.7 C 444 47.5 444.3 47.3 444.5 46.9 C 444.7 46.6 444.8 46.2 444.8 45.8 C 444.8 45.4 444.7 45 444.5 44.6 C 444.3 44.3 444.1 44.1 443.7 43.9 C 443.4 43.7 443.1 43.6 442.7 43.6 C 442.3 43.6 441.9 43.7 441.6 43.9 C 441.3 44.1 441 44.3 440.8 44.6 C 440.6 45 440.5 45.4 440.5 45.8 C 440.5 46.2 440.6 46.6 440.8 46.9 C 441 47.3 441.2 47.5 441.6 47.7 C 441.9 47.9 442.3 48 442.6 48 C 442.6 48 442.6 48 442.6 48 Z M 450.6 48.7 C 449.8 48.7 449.2 48.5 448.8 48.1 C 448.4 47.7 448.2 47.2 448.2 46.5 C 448.25 46.49 448.2 43 448.2 43 L 449.1 43 C 449.1 43 449.06 46.52 449.1 46.5 C 449.1 47 449.2 47.4 449.5 47.6 C 449.7 47.8 450.1 48 450.6 48 C 451 48 451.4 47.8 451.6 47.6 C 451.9 47.4 452 47 452 46.5 C 452.05 46.52 452 43 452 43 L 452.9 43 C 452.9 43 452.86 46.49 452.9 46.5 C 452.9 47.2 452.7 47.7 452.3 48.1 C 451.9 48.5 451.3 48.7 450.6 48.7 C 450.6 48.7 450.6 48.7 450.6 48.7 Z M 455.8 43 C 455.8 43 458 42.98 458 43 C 458.6 43 459.1 43.1 459.4 43.4 C 459.7 43.7 459.9 44.1 459.9 44.7 C 459.9 45.1 459.7 45.4 459.5 45.7 C 459.3 46 459 46.2 458.6 46.3 C 458.6 46.3 459.8 48.6 459.8 48.6 L 459 48.6 L 457.8 46.4 L 456.6 46.4 L 456.6 48.6 L 455.8 48.6 L 455.8 43 Z M 457.9 45.7 C 458.2 45.7 458.5 45.6 458.7 45.4 C 458.9 45.3 459 45 459 44.7 C 459 44.3 458.9 44.1 458.7 43.9 C 458.5 43.7 458.2 43.7 457.9 43.7 C 457.87 43.67 456.6 43.7 456.6 43.7 L 456.6 45.7 C 456.6 45.7 457.87 45.68 457.9 45.7 Z M 462.6 43 L 466.3 43 L 466.3 43.7 L 463.4 43.7 L 463.4 45.4 L 465.5 45.4 L 465.5 46.1 L 463.4 46.1 L 463.4 47.9 L 466.3 47.9 L 466.3 48.6 L 462.6 48.6 L 462.6 43 Z M 468.8 43 L 469.6 43 L 472.4 47.2 L 472.4 43 L 473.3 43 L 473.3 48.6 L 472.5 48.6 L 469.6 44.4 L 469.6 48.6 L 468.8 48.6 L 468.8 43 Z M 478 43 L 478.8 43 L 481.1 48.6 L 480.2 48.6 L 479.7 47.2 L 477.2 47.2 L 476.7 48.6 L 475.8 48.6 L 478 43 Z M 479.4 46.5 L 478.4 43.9 L 477.4 46.5 L 479.4 46.5 Z M 483.6 43 L 484.4 43 L 487.2 47.2 L 487.2 43 L 488.1 43 L 488.1 48.6 L 487.3 48.6 L 484.4 44.4 L 484.4 48.6 L 483.6 48.6 L 483.6 43 Z M 491 43 L 494.7 43 L 494.7 43.7 L 491.8 43.7 L 491.8 45.4 L 494 45.4 L 494 46.1 L 491.8 46.1 L 491.8 47.9 L 494.7 47.9 L 494.7 48.6 L 491 48.6 L 491 43 Z " stroke="none" fill="#141414"/>  </g></svg>