<?xml version="1.0" standalone="no"?><!DOCTYPE svg PUBLIC "-//W3C//DTD SVG 1.1//EN" "http://www.w3.org/Graphics/SVG/1.1/DTD/svg11.dtd"><svg xmlns="http://www.w3.org/2000/svg" version="1.1" width="90px" height="14.8px" viewBox="0 -2 90 14.8" style="top:-2px">  <desc>Page</desc>  <defs/>  <g id="Polygon9180">    <path d="M 42.8 5.7 C 42.8 5.7 43.54 5.13 43.5 5.1 C 43.7 5 43.9 4.9 44.2 4.7 C 44.6 4.4 44.9 4.2 45 4 C 45.2 3.8 45.3 3.7 45.4 3.5 C 45.4 3.5 45.4 3.4 45.4 3.4 C 45.4 3.2 45.2 3.1 44.8 3.1 C 44.6 3.1 44.4 3.1 44.1 3.2 C 43.9 3.3 43.6 3.4 43.4 3.6 C 43.4 3.6 43.8 2 43.8 2 C 44 1.8 44.3 1.7 44.6 1.6 C 45 1.5 45.3 1.5 45.6 1.5 C 46.1 1.5 46.5 1.6 46.8 1.8 C 47.1 2.1 47.2 2.4 47.2 2.7 C 47.2 2.8 47.2 2.9 47.2 3 C 47.1 3.4 46.9 3.8 46.7 4 C 46.5 4.3 46.3 4.6 45.9 4.9 C 45.87 4.88 45.4 5.2 45.4 5.2 L 46.8 5.2 L 46.6 6.5 L 42.7 6.5 L 42.8 5.7 Z " stroke="none" fill="#fafafa"/>  </g></svg>