<?xml version="1.0" standalone="no"?><!DOCTYPE svg PUBLIC "-//W3C//DTD SVG 1.1//EN" "http://www.w3.org/Graphics/SVG/1.1/DTD/svg11.dtd"><svg xmlns="http://www.w3.org/2000/svg" version="1.1" width="90px" height="14.8px" viewBox="0 -2 90 14.8" style="top:-2px">  <desc>Page</desc>  <defs/>  <g id="Polygon4376">    <path d="M 42 3.3 L 40.9 4 L 41.2 2.5 L 42.6 1.6 L 44 1.6 L 43 6.5 L 41.3 6.5 L 42 3.3 Z M 46.6 6.6 C 46.3 6.6 46 6.6 45.7 6.5 C 45.4 6.5 45.2 6.4 45 6.3 C 45 6.3 45.3 5 45.3 5 C 45.7 5.3 46.2 5.4 46.6 5.4 C 47.2 5.4 47.5 5.2 47.5 4.9 C 47.5 4.8 47.5 4.7 47.4 4.7 C 47.2 4.7 47.1 4.6 46.8 4.6 C 46.82 4.64 46.1 4.6 46.1 4.6 L 46.3 3.4 C 46.3 3.4 47.05 3.43 47 3.4 C 47.3 3.4 47.5 3.4 47.6 3.3 C 47.7 3.3 47.8 3.2 47.8 3.1 C 47.8 3.1 47.8 3 47.8 3 C 47.8 2.8 47.6 2.7 47.2 2.7 C 47 2.7 46.7 2.8 46.5 2.8 C 46.2 2.9 46 3 45.8 3.1 C 45.8 3.1 46 1.9 46 1.9 C 46.3 1.7 46.5 1.7 46.8 1.6 C 47.1 1.5 47.4 1.5 47.7 1.5 C 48.3 1.5 48.8 1.6 49.1 1.8 C 49.4 2 49.5 2.3 49.5 2.7 C 49.5 2.8 49.5 2.9 49.5 3 C 49.5 3.2 49.4 3.4 49.3 3.6 C 49.2 3.7 49 3.9 48.9 4 C 49.1 4.2 49.2 4.5 49.2 4.8 C 49.2 4.9 49.2 5 49.2 5.1 C 49 6.1 48.1 6.6 46.6 6.6 C 46.6 6.6 46.6 6.6 46.6 6.6 Z " stroke="none" fill="#fafafa"/>  </g></svg>