<?xml version="1.0" standalone="no"?><!DOCTYPE svg PUBLIC "-//W3C//DTD SVG 1.1//EN" "http://www.w3.org/Graphics/SVG/1.1/DTD/svg11.dtd"><svg xmlns="http://www.w3.org/2000/svg" version="1.1" width="90px" height="14.8px" viewBox="0 -2 90 14.8" style="top:-2px">  <desc>Page</desc>  <defs/>  <g id="Polygon10149">    <path d="M 41.6 3.3 L 40.5 4 L 40.8 2.5 L 42.2 1.6 L 43.6 1.6 L 42.6 6.5 L 40.9 6.5 L 41.6 3.3 Z M 46.9 6.6 C 46.3 6.6 45.8 6.4 45.5 6.1 C 45.1 5.8 44.9 5.3 44.9 4.8 C 44.9 4.5 45 4.3 45 4.1 C 45.1 3.5 45.3 3.1 45.6 2.7 C 45.9 2.3 46.2 2 46.6 1.8 C 47 1.6 47.5 1.5 47.9 1.5 C 48.6 1.5 49 1.7 49.4 2 C 49.7 2.3 49.9 2.7 49.9 3.3 C 49.9 3.6 49.9 3.8 49.8 4.1 C 49.7 4.6 49.5 5 49.2 5.4 C 48.9 5.8 48.6 6.1 48.2 6.3 C 47.8 6.5 47.3 6.6 46.9 6.6 C 46.9 6.6 46.9 6.6 46.9 6.6 Z M 47.2 5.1 C 47.4 5.1 47.6 5 47.8 4.8 C 47.9 4.6 48 4.4 48.1 4.1 C 48.1 3.9 48.2 3.8 48.2 3.6 C 48.2 3.3 48 3.1 47.6 3.1 C 47.4 3.1 47.2 3.2 47 3.3 C 46.9 3.5 46.8 3.8 46.7 4.1 C 46.7 4.2 46.6 4.4 46.6 4.5 C 46.6 4.7 46.7 4.8 46.8 4.9 C 46.9 5 47 5.1 47.2 5.1 C 47.2 5.1 47.2 5.1 47.2 5.1 Z " stroke="none" fill="#fafafa"/>  </g></svg>