<?xml version="1.0" standalone="no"?><!DOCTYPE svg PUBLIC "-//W3C//DTD SVG 1.1//EN" "http://www.w3.org/Graphics/SVG/1.1/DTD/svg11.dtd"><svg xmlns="http://www.w3.org/2000/svg" version="1.1" width="450px" height="286.2px" viewBox="0 -1 450 286.2" style="top:-1px">  <desc>En haut des marches, elle s’arr te devant un mur d’affiches sauvages. Comme souvent, la m me affiche se r p te de fa ...</desc>  <defs/>  <g id="Polygon10476">    <path d="M 6.5 194.9 C 5 196.6 3.7 199 3.7 202 C 3.7 204.8 4.7 207.3 6.5 209.4 C 6.5 209.4 3.5 209.4 3.5 209.4 C 2 207.8 0.8 205.1 0.8 202 C 0.8 199 2.1 196.4 3.5 194.9 C 3.5 194.9 6.5 194.9 6.5 194.9 Z M 11.7 206.7 L 7.3 195.4 L 11.3 195.4 C 11.3 195.4 12.91 200.48 12.9 200.5 C 13.5 202.3 13.8 203.3 14 204.1 C 14 204.1 14 204.1 14 204.1 C 14.2 203.4 14.3 202.9 15.1 200.3 C 15.13 200.3 16.7 195.4 16.7 195.4 L 20.6 195.4 L 16.1 206.7 L 11.7 206.7 Z M 33.9 201 C 33.9 201 33.9 201 33.9 201 C 33.9 204.2 31.8 206.9 27.4 206.9 C 23.3 206.9 21.1 204.3 21.1 201 C 21.1 201 21.1 201 21.1 201 C 21.1 197.9 23.2 195.2 27.5 195.2 C 31.6 195.2 33.9 197.8 33.9 201 Z M 24.9 201 C 24.9 201 24.9 201 24.9 201 C 24.9 202.9 25.7 204.4 27.6 204.4 C 29.4 204.4 30 202.7 30 201.1 C 30 201.1 30 201.1 30 201.1 C 30 199.1 29.4 197.7 27.5 197.7 C 25.6 197.7 24.9 199.2 24.9 201 Z M 34.5 209.4 C 35.9 207.7 37.3 205.3 37.3 202.2 C 37.3 199.4 36.2 197 34.5 194.9 C 34.5 194.9 37.5 194.9 37.5 194.9 C 39 196.5 40.2 199.2 40.2 202.3 C 40.2 205.3 38.8 207.9 37.5 209.4 C 37.5 209.4 34.5 209.4 34.5 209.4 Z M 49.4 206.7 L 49.4 203 L 53 203 L 53 206.7 L 49.4 206.7 Z M 55.4 206.7 L 55.4 203 L 59 203 L 59 206.7 L 55.4 206.7 Z M 61.4 206.7 L 61.4 203 L 65 203 L 65 206.7 L 61.4 206.7 Z M 83.7 203.7 C 83.7 203.7 83.73 203.7 83.7 203.7 C 83.4 205.3 82.1 206.9 78.9 206.9 C 75.3 206.9 74 204.7 74 202.5 C 74 202.5 74 202.5 74 202.5 C 74 200.1 75.7 198.1 78.9 198.1 C 82.7 198.1 83.6 200.4 83.7 201.3 C 83.67 201.3 83.7 201.3 83.7 201.3 L 80.3 201.3 C 80.3 201.3 80.29 201.3 80.3 201.3 C 80.2 200.8 79.9 200.3 79 200.3 C 78 200.3 77.6 201.1 77.6 202.4 C 77.6 202.4 77.6 202.4 77.6 202.4 C 77.6 203.8 78 204.7 79 204.7 C 79.8 204.7 80.1 204.4 80.3 203.7 C 80.34 203.7 80.3 203.7 80.3 203.7 L 83.7 203.7 Z M 95.4 202.5 C 95.4 202.5 95.4 202.5 95.4 202.5 C 95.4 205.1 93.6 206.9 90.2 206.9 C 86.7 206.9 85.2 204.7 85.2 202.5 C 85.2 202.5 85.2 202.5 85.2 202.5 C 85.2 200.1 86.9 198.1 90.3 198.1 C 93.9 198.1 95.4 200.4 95.4 202.5 Z M 88.8 202.5 C 88.8 202.5 88.8 202.5 88.8 202.5 C 88.8 203.8 89.3 204.7 90.3 204.7 C 91.4 204.7 91.8 203.8 91.8 202.5 C 91.8 202.5 91.8 202.5 91.8 202.5 C 91.8 201.2 91.4 200.3 90.3 200.3 C 89.3 200.3 88.8 201.1 88.8 202.5 Z M 97.3 200.5 C 97.3 199.7 97.3 198.8 97.3 198.3 C 97.3 198.3 100.8 198.3 100.8 198.3 C 100.9 198.5 100.9 199 100.9 199.2 C 101.3 198.7 102.1 198.1 103.6 198.1 C 105.8 198.1 106.9 199.3 106.9 201.5 C 106.93 201.5 106.9 206.7 106.9 206.7 L 103.4 206.7 C 103.4 206.7 103.35 201.85 103.4 201.8 C 103.4 201.1 103.1 200.5 102.2 200.5 C 101.3 200.5 100.9 201 100.9 202.3 C 100.91 202.3 100.9 206.7 100.9 206.7 L 97.3 206.7 C 97.3 206.7 97.35 200.47 97.3 200.5 Z M 111.6 198.3 C 112.5 201.2 113 202.6 113.3 204 C 113.3 204 113.3 204 113.3 204 C 113.6 202.8 114.1 200.9 114.9 198.3 C 114.88 198.29 118.5 198.3 118.5 198.3 L 115.2 206.7 L 111.1 206.7 L 107.8 198.3 C 107.8 198.3 111.63 198.29 111.6 198.3 Z M 122.6 203.3 C 122.6 203.3 122.62 203.25 122.6 203.3 C 122.7 204.1 123.2 204.7 124.1 204.7 C 124.9 204.7 125.3 204.5 125.5 204.1 C 125.49 204.06 125.5 204.1 125.5 204.1 L 128.9 204.1 C 128.9 204.1 128.93 204.06 128.9 204.1 C 128.4 205.5 127.3 206.9 124.1 206.9 C 120.3 206.9 119.1 204.6 119.1 202.5 C 119.1 202.5 119.1 202.5 119.1 202.5 C 119.1 200.2 120.6 198.1 124.1 198.1 C 127.7 198.1 129 200.3 129 202.5 C 129 202.7 129 203.1 129 203.3 C 129 203.25 122.6 203.3 122.6 203.3 Z M 125.5 201.5 C 125.5 201.5 125.54 201.45 125.5 201.5 C 125.5 200.8 125.2 200.1 124.1 200.1 C 123.1 200.1 122.7 200.7 122.6 201.5 C 122.64 201.45 122.6 201.5 122.6 201.5 L 125.5 201.5 Z M 130.9 200.7 C 130.9 199.9 130.9 199 130.9 198.3 C 130.9 198.3 134.3 198.3 134.3 198.3 C 134.4 198.6 134.4 199.5 134.4 199.9 C 134.8 199 135.7 198 137.5 198.1 C 137.5 198.1 137.5 201.2 137.5 201.2 C 135.6 201.1 134.4 201.6 134.4 203.9 C 134.45 203.93 134.4 206.7 134.4 206.7 L 130.9 206.7 C 130.9 206.7 130.89 200.7 130.9 200.7 Z M 139 198.3 L 140.4 198.3 L 140.4 195.9 L 144 195.9 L 144 198.3 L 145.7 198.3 L 145.7 200.6 L 144 200.6 C 144 200.6 143.98 203.59 144 203.6 C 144 204.2 144.1 204.5 144.8 204.5 C 145 204.5 145.2 204.5 145.4 204.4 C 145.4 204.4 145.4 206.6 145.4 206.6 C 145 206.7 144.1 206.8 143.4 206.8 C 141 206.8 140.4 205.7 140.4 204.1 C 140.41 204.09 140.4 200.6 140.4 200.6 L 139 200.6 L 139 198.3 Z M 147.5 198.3 L 151 198.3 L 151 206.7 L 147.5 206.7 L 147.5 198.3 Z M 147.5 194.9 L 151 194.9 L 151 197.1 L 147.5 197.1 L 147.5 194.9 Z M 156.1 204.1 C 156.1 204.1 156.11 204.1 156.1 204.1 C 156.3 204.6 156.7 204.8 157.5 204.8 C 158.3 204.8 158.5 204.6 158.5 204.3 C 158.5 203.9 158.2 203.8 156.9 203.6 C 153.5 203.1 153 201.9 153 200.9 C 153 199.5 154.1 198.1 157.2 198.1 C 160.5 198.1 161.6 199.5 161.7 200.7 C 161.69 200.74 161.7 200.7 161.7 200.7 L 158.5 200.7 C 158.5 200.7 158.5 200.74 158.5 200.7 C 158.4 200.4 158.1 200.1 157.3 200.1 C 156.5 200.1 156.4 200.3 156.4 200.6 C 156.4 200.8 156.7 201 158 201.2 C 161.4 201.7 162 202.8 162 204 C 162 205.5 160.9 206.9 157.5 206.9 C 154.8 206.9 153.1 205.8 152.8 204.1 C 152.81 204.1 152.8 204.1 152.8 204.1 L 156.1 204.1 Z M 166.8 204.1 C 166.8 204.1 166.76 204.1 166.8 204.1 C 166.9 204.6 167.4 204.8 168.2 204.8 C 168.9 204.8 169.2 204.6 169.2 204.3 C 169.2 203.9 168.8 203.8 167.5 203.6 C 164.1 203.1 163.7 201.9 163.7 200.9 C 163.7 199.5 164.8 198.1 167.9 198.1 C 171.1 198.1 172.2 199.5 172.3 200.7 C 172.35 200.74 172.3 200.7 172.3 200.7 L 169.2 200.7 C 169.2 200.7 169.15 200.74 169.2 200.7 C 169.1 200.4 168.8 200.1 167.9 200.1 C 167.2 200.1 167 200.3 167 200.6 C 167 200.8 167.4 201 168.6 201.2 C 172.1 201.7 172.6 202.8 172.6 204 C 172.6 205.5 171.6 206.9 168.1 206.9 C 165.5 206.9 163.7 205.8 163.5 204.1 C 163.46 204.1 163.5 204.1 163.5 204.1 L 166.8 204.1 Z M 177.6 203.3 C 177.6 203.3 177.59 203.25 177.6 203.3 C 177.6 204.1 178.1 204.7 179.1 204.7 C 179.9 204.7 180.2 204.5 180.5 204.1 C 180.47 204.06 180.5 204.1 180.5 204.1 L 183.9 204.1 C 183.9 204.1 183.9 204.06 183.9 204.1 C 183.4 205.5 182.3 206.9 179.1 206.9 C 175.3 206.9 174.1 204.6 174.1 202.5 C 174.1 202.5 174.1 202.5 174.1 202.5 C 174.1 200.2 175.6 198.1 179.1 198.1 C 182.6 198.1 184 200.3 184 202.5 C 184 202.7 184 203.1 184 203.3 C 183.97 203.25 177.6 203.3 177.6 203.3 Z M 180.5 201.5 C 180.5 201.5 180.51 201.45 180.5 201.5 C 180.5 200.8 180.2 200.1 179.1 200.1 C 178 200.1 177.7 200.7 177.6 201.5 C 177.61 201.45 177.6 201.5 177.6 201.5 L 180.5 201.5 Z M 185.3 204.5 C 185.6 204.2 188.9 201.2 189.5 200.7 C 189.54 200.71 185.5 200.7 185.5 200.7 L 185.5 198.3 L 193.8 198.3 C 193.8 198.3 193.81 200.57 193.8 200.6 C 193.5 200.9 190.1 204 189.7 204.3 C 189.73 204.26 194.2 204.3 194.2 204.3 L 193.8 206.7 L 185.3 206.7 C 185.3 206.7 185.27 204.47 185.3 204.5 Z M 205.9 198.3 C 206.9 201.2 207.3 202.6 207.6 204 C 207.6 204 207.6 204 207.6 204 C 207.9 202.8 208.4 200.9 209.2 198.3 C 209.2 198.29 212.8 198.3 212.8 198.3 L 209.5 206.7 L 205.4 206.7 L 202.1 198.3 C 202.1 198.3 205.94 198.29 205.9 198.3 Z M 223.6 202.5 C 223.6 202.5 223.6 202.5 223.6 202.5 C 223.6 205.1 221.8 206.9 218.4 206.9 C 214.9 206.9 213.4 204.7 213.4 202.5 C 213.4 202.5 213.4 202.5 213.4 202.5 C 213.4 200.1 215.1 198.1 218.5 198.1 C 222.1 198.1 223.6 200.4 223.6 202.5 Z M 217 202.5 C 217 202.5 217 202.5 217 202.5 C 217 203.8 217.5 204.7 218.5 204.7 C 219.6 204.7 220 203.8 220 202.5 C 220 202.5 220 202.5 220 202.5 C 220 201.2 219.6 200.3 218.5 200.3 C 217.5 200.3 217 201.1 217 202.5 Z M 228.4 204.1 C 228.4 204.1 228.45 204.1 228.4 204.1 C 228.6 204.6 229.1 204.8 229.8 204.8 C 230.6 204.8 230.9 204.6 230.9 204.3 C 230.9 203.9 230.5 203.8 229.2 203.6 C 225.8 203.1 225.4 201.9 225.4 200.9 C 225.4 199.5 226.5 198.1 229.6 198.1 C 232.8 198.1 233.9 199.5 234 200.7 C 234.04 200.74 234 200.7 234 200.7 L 230.8 200.7 C 230.8 200.7 230.84 200.74 230.8 200.7 C 230.8 200.4 230.5 200.1 229.6 200.1 C 228.9 200.1 228.7 200.3 228.7 200.6 C 228.7 200.8 229 201 230.3 201.2 C 233.7 201.7 234.3 202.8 234.3 204 C 234.3 205.5 233.2 206.9 229.8 206.9 C 227.2 206.9 225.4 205.8 225.1 204.1 C 225.15 204.1 225.1 204.1 225.1 204.1 L 228.4 204.1 Z M 252.7 203.7 C 252.7 203.7 252.72 203.7 252.7 203.7 C 252.4 205.3 251.1 206.9 247.9 206.9 C 244.3 206.9 243 204.7 243 202.5 C 243 202.5 243 202.5 243 202.5 C 243 200.1 244.7 198.1 247.9 198.1 C 251.7 198.1 252.6 200.4 252.7 201.3 C 252.66 201.3 252.7 201.3 252.7 201.3 L 249.3 201.3 C 249.3 201.3 249.28 201.3 249.3 201.3 C 249.2 200.8 248.9 200.3 248 200.3 C 247 200.3 246.6 201.1 246.6 202.4 C 246.6 202.4 246.6 202.4 246.6 202.4 C 246.6 203.8 247 204.7 248 204.7 C 248.8 204.7 249.1 204.4 249.3 203.7 C 249.33 203.7 249.3 203.7 249.3 203.7 L 252.7 203.7 Z M 263.7 204 C 263.7 205.3 263.8 206.5 263.8 206.7 C 263.8 206.7 260.5 206.7 260.5 206.7 C 260.4 206.5 260.4 206 260.4 205.8 C 259.9 206.5 258.9 206.9 257.5 206.9 C 255.3 206.9 254.2 205.7 254.2 204.2 C 254.2 204.2 254.2 204.2 254.2 204.2 C 254.2 202.1 256.1 201.3 258.8 201.3 C 259.4 201.3 260 201.3 260.3 201.4 C 260.3 201.4 260.3 201.1 260.3 201.1 C 260.3 200.5 260.1 200.1 259.2 200.1 C 258.3 200.1 258.1 200.4 258 200.8 C 258.02 200.83 258 200.8 258 200.8 L 254.7 200.8 C 254.7 200.8 254.7 200.83 254.7 200.8 C 254.7 199.8 255.5 198.1 259.1 198.1 C 263.1 198.1 263.7 199.8 263.7 201.2 C 263.7 201.2 263.7 204 263.7 204 Z M 260.3 203.1 C 260.1 203.1 259.7 203.1 259 203.1 C 258 203.1 257.6 203.4 257.6 203.9 C 257.6 203.9 257.6 203.9 257.6 203.9 C 257.6 204.4 258 204.7 258.7 204.7 C 259.7 204.7 260.3 204.3 260.3 203.2 C 260.3 203.2 260.3 203.1 260.3 203.1 Z M 265.9 206.7 L 265.9 194.9 L 269.4 194.9 L 269.4 206.7 L 265.9 206.7 Z M 281.6 202.5 C 281.6 202.5 281.6 202.5 281.6 202.5 C 281.6 205.1 279.8 206.9 276.4 206.9 C 272.8 206.9 271.3 204.7 271.3 202.5 C 271.3 202.5 271.3 202.5 271.3 202.5 C 271.3 200.1 273 198.1 276.5 198.1 C 280 198.1 281.6 200.4 281.6 202.5 Z M 274.9 202.5 C 274.9 202.5 274.9 202.5 274.9 202.5 C 274.9 203.8 275.4 204.7 276.4 204.7 C 277.5 204.7 277.9 203.8 277.9 202.5 C 277.9 202.5 277.9 202.5 277.9 202.5 C 277.9 201.2 277.5 200.3 276.4 200.3 C 275.4 200.3 274.9 201.1 274.9 202.5 Z M 283.5 200.7 C 283.5 199.9 283.5 199 283.5 198.3 C 283.5 198.3 286.9 198.3 286.9 198.3 C 287 198.6 287 199.5 287 199.9 C 287.4 199 288.3 198 290.1 198.1 C 290.1 198.1 290.1 201.2 290.1 201.2 C 288.2 201.1 287.1 201.6 287.1 203.9 C 287.05 203.93 287.1 206.7 287.1 206.7 L 283.5 206.7 C 283.5 206.7 283.49 200.7 283.5 200.7 Z M 291.8 198.3 L 295.4 198.3 L 295.4 206.7 L 291.8 206.7 L 291.8 198.3 Z M 291.8 194.9 L 295.4 194.9 L 295.4 197.1 L 291.8 197.1 L 291.8 194.9 Z M 300.8 203.3 C 300.8 203.3 300.79 203.25 300.8 203.3 C 300.8 204.1 301.4 204.7 302.3 204.7 C 303.1 204.7 303.4 204.5 303.7 204.1 C 303.67 204.06 303.7 204.1 303.7 204.1 L 307.1 204.1 C 307.1 204.1 307.1 204.06 307.1 204.1 C 306.6 205.5 305.5 206.9 302.3 206.9 C 298.5 206.9 297.3 204.6 297.3 202.5 C 297.3 202.5 297.3 202.5 297.3 202.5 C 297.3 200.2 298.8 198.1 302.3 198.1 C 305.8 198.1 307.2 200.3 307.2 202.5 C 307.2 202.7 307.2 203.1 307.2 203.3 C 307.18 203.25 300.8 203.3 300.8 203.3 Z M 303.7 201.5 C 303.7 201.5 303.72 201.45 303.7 201.5 C 303.7 200.8 303.4 200.1 302.3 200.1 C 301.2 200.1 300.9 200.7 300.8 201.5 C 300.81 201.45 300.8 201.5 300.8 201.5 L 303.7 201.5 Z M 312 204.1 C 312 204.1 311.98 204.1 312 204.1 C 312.1 204.6 312.6 204.8 313.4 204.8 C 314.2 204.8 314.4 204.6 314.4 204.3 C 314.4 203.9 314.1 203.8 312.7 203.6 C 309.4 203.1 308.9 201.9 308.9 200.9 C 308.9 199.5 310 198.1 313.1 198.1 C 316.3 198.1 317.4 199.5 317.6 200.7 C 317.57 200.74 317.6 200.7 317.6 200.7 L 314.4 200.7 C 314.4 200.7 314.37 200.74 314.4 200.7 C 314.3 200.4 314 200.1 313.2 200.1 C 312.4 200.1 312.3 200.3 312.3 200.6 C 312.3 200.8 312.6 201 313.8 201.2 C 317.3 201.7 317.8 202.8 317.8 204 C 317.8 205.5 316.8 206.9 313.3 206.9 C 310.7 206.9 308.9 205.8 308.7 204.1 C 308.68 204.1 308.7 204.1 308.7 204.1 L 312 204.1 Z M 330 203.3 C 330 203.3 330.05 203.25 330 203.3 C 330.1 204.1 330.6 204.7 331.6 204.7 C 332.4 204.7 332.7 204.5 332.9 204.1 C 332.92 204.06 332.9 204.1 332.9 204.1 L 336.4 204.1 C 336.4 204.1 336.36 204.06 336.4 204.1 C 335.9 205.5 334.7 206.9 331.5 206.9 C 327.7 206.9 326.5 204.6 326.5 202.5 C 326.5 202.5 326.5 202.5 326.5 202.5 C 326.5 200.2 328.1 198.1 331.5 198.1 C 335.1 198.1 336.4 200.3 336.4 202.5 C 336.4 202.7 336.4 203.1 336.4 203.3 C 336.43 203.25 330 203.3 330 203.3 Z M 333 201.5 C 333 201.5 332.97 201.45 333 201.5 C 332.9 200.8 332.7 200.1 331.6 200.1 C 330.5 200.1 330.1 200.7 330.1 201.5 C 330.07 201.45 330.1 201.5 330.1 201.5 L 333 201.5 Z M 338.3 200.5 C 338.3 199.7 338.3 198.8 338.3 198.3 C 338.3 198.3 341.8 198.3 341.8 198.3 C 341.8 198.5 341.9 199 341.9 199.2 C 342.3 198.7 343 198.1 344.6 198.1 C 346.7 198.1 347.9 199.3 347.9 201.5 C 347.9 201.5 347.9 206.7 347.9 206.7 L 344.3 206.7 C 344.3 206.7 344.32 201.85 344.3 201.8 C 344.3 201.1 344 200.5 343.2 200.5 C 342.3 200.5 341.9 201 341.9 202.3 C 341.88 202.3 341.9 206.7 341.9 206.7 L 338.3 206.7 C 338.3 206.7 338.31 200.47 338.3 200.5 Z M 360.3 204.1 C 360.3 204.1 360.29 204.1 360.3 204.1 C 360.4 204.6 360.9 204.8 361.7 204.8 C 362.5 204.8 362.7 204.6 362.7 204.3 C 362.7 203.9 362.4 203.8 361 203.6 C 357.7 203.1 357.2 201.9 357.2 200.9 C 357.2 199.5 358.3 198.1 361.4 198.1 C 364.6 198.1 365.7 199.5 365.9 200.7 C 365.87 200.74 365.9 200.7 365.9 200.7 L 362.7 200.7 C 362.7 200.7 362.68 200.74 362.7 200.7 C 362.6 200.4 362.3 200.1 361.5 200.1 C 360.7 200.1 360.6 200.3 360.6 200.6 C 360.6 200.8 360.9 201 362.2 201.2 C 365.6 201.7 366.1 202.8 366.1 204 C 366.1 205.5 365.1 206.9 361.6 206.9 C 359 206.9 357.2 205.8 357 204.1 C 356.99 204.1 357 204.1 357 204.1 L 360.3 204.1 Z M 371.1 203.3 C 371.1 203.3 371.12 203.25 371.1 203.3 C 371.2 204.1 371.7 204.7 372.6 204.7 C 373.4 204.7 373.8 204.5 374 204.1 C 373.99 204.06 374 204.1 374 204.1 L 377.4 204.1 C 377.4 204.1 377.42 204.06 377.4 204.1 C 376.9 205.5 375.8 206.9 372.6 206.9 C 368.8 206.9 367.6 204.6 367.6 202.5 C 367.6 202.5 367.6 202.5 367.6 202.5 C 367.6 200.2 369.1 198.1 372.6 198.1 C 376.1 198.1 377.5 200.3 377.5 202.5 C 377.5 202.7 377.5 203.1 377.5 203.3 C 377.5 203.25 371.1 203.3 371.1 203.3 Z M 374 201.5 C 374 201.5 374.04 201.45 374 201.5 C 374 200.8 373.7 200.1 372.6 200.1 C 371.6 200.1 371.2 200.7 371.1 201.5 C 371.14 201.45 371.1 201.5 371.1 201.5 L 374 201.5 Z M 376.6 194.5 L 373.6 197.1 L 370.8 197.1 L 373 194.5 L 376.6 194.5 Z M 379.4 200.7 C 379.4 199.9 379.4 199 379.4 198.3 C 379.4 198.3 382.8 198.3 382.8 198.3 C 382.9 198.6 382.9 199.5 382.9 199.9 C 383.3 199 384.2 198 386 198.1 C 386 198.1 386 201.2 386 201.2 C 384.1 201.1 382.9 201.6 382.9 203.9 C 382.95 203.93 382.9 206.7 382.9 206.7 L 379.4 206.7 C 379.4 206.7 379.39 200.7 379.4 200.7 Z M 387.7 198.3 L 391.3 198.3 L 391.3 206.7 L 387.7 206.7 L 387.7 198.3 Z M 387.7 194.9 L 391.3 194.9 L 391.3 197.1 L 387.7 197.1 L 387.7 194.9 Z M 396.7 203.3 C 396.7 203.3 396.69 203.25 396.7 203.3 C 396.7 204.1 397.2 204.7 398.2 204.7 C 399 204.7 399.3 204.5 399.6 204.1 C 399.57 204.06 399.6 204.1 399.6 204.1 L 403 204.1 C 403 204.1 403 204.06 403 204.1 C 402.5 205.5 401.4 206.9 398.2 206.9 C 394.4 206.9 393.2 204.6 393.2 202.5 C 393.2 202.5 393.2 202.5 393.2 202.5 C 393.2 200.2 394.7 198.1 398.2 198.1 C 401.7 198.1 403.1 200.3 403.1 202.5 C 403.1 202.7 403.1 203.1 403.1 203.3 C 403.07 203.25 396.7 203.3 396.7 203.3 Z M 399.6 201.5 C 399.6 201.5 399.61 201.45 399.6 201.5 C 399.6 200.8 399.3 200.1 398.2 200.1 C 397.1 200.1 396.8 200.7 396.7 201.5 C 396.71 201.45 396.7 201.5 396.7 201.5 L 399.6 201.5 Z M 407.9 204.1 C 407.9 204.1 407.88 204.1 407.9 204.1 C 408 204.6 408.5 204.8 409.3 204.8 C 410.1 204.8 410.3 204.6 410.3 204.3 C 410.3 203.9 410 203.8 408.6 203.6 C 405.3 203.1 404.8 201.9 404.8 200.9 C 404.8 199.5 405.9 198.1 409 198.1 C 412.2 198.1 413.3 199.5 413.5 200.7 C 413.46 200.74 413.5 200.7 413.5 200.7 L 410.3 200.7 C 410.3 200.7 410.27 200.74 410.3 200.7 C 410.2 200.4 409.9 200.1 409.1 200.1 C 408.3 200.1 408.2 200.3 408.2 200.6 C 408.2 200.8 408.5 201 409.7 201.2 C 413.2 201.7 413.7 202.8 413.7 204 C 413.7 205.5 412.7 206.9 409.2 206.9 C 406.6 206.9 404.8 205.8 404.6 204.1 C 404.58 204.1 404.6 204.1 404.6 204.1 L 407.9 204.1 Z M 415.8 206.7 L 415.8 203 L 419.4 203 L 419.4 206.7 L 415.8 206.7 Z M 421.8 206.7 L 421.8 203 L 425.4 203 L 425.4 206.7 L 421.8 206.7 Z M 427.8 206.7 L 427.8 203 L 431.4 203 L 431.4 206.7 L 427.8 206.7 Z " stroke="none" fill="#141414"/>  </g>  <g id="Polygon10475">    <path d="M 9.9 152.6 L 2.9 152.6 L 2.9 156.9 L 10.6 156.9 L 10.4 158 L 1.6 158 L 1.6 146.6 L 10.3 146.6 L 10.3 147.8 L 2.9 147.8 L 2.9 151.5 L 9.9 151.5 L 9.9 152.6 Z M 13.1 146.6 C 13.1 146.6 18.25 146.64 18.3 146.6 C 21.1 146.6 22.3 148.1 22.3 149.9 C 22.3 149.9 22.3 149.9 22.3 149.9 C 22.3 152.1 20.8 153.4 18.3 153.4 C 18.34 153.35 14.3 153.4 14.3 153.4 L 14.3 158 L 13.1 158 L 13.1 146.6 Z M 14.3 152.2 C 14.3 152.2 18.1 152.22 18.1 152.2 C 19.8 152.2 21 151.7 21 150 C 21 150 21 150 21 150 C 21 148.6 20 147.8 18.1 147.8 C 18.1 147.77 14.3 147.8 14.3 147.8 L 14.3 152.2 Z M 26.1 146.6 L 26.1 158 L 24.8 158 L 24.8 146.6 L 26.1 146.6 Z M 30.2 154.8 C 30.2 154.8 30.16 154.76 30.2 154.8 C 30.6 156.2 31.6 157.2 34 157.2 C 36.3 157.2 37.3 156.2 37.3 155.1 C 37.3 153.9 36.6 153.1 33.6 152.6 C 30.3 152 29.4 151 29.4 149.5 C 29.4 147.5 31.3 146.4 33.7 146.4 C 37.3 146.4 38.1 148.3 38.3 149.4 C 38.27 149.43 38.3 149.4 38.3 149.4 L 37 149.4 C 37 149.4 36.96 149.43 37 149.4 C 36.7 148.6 36.2 147.5 33.6 147.5 C 31.9 147.5 30.8 148.1 30.8 149.3 C 30.8 150.4 31.2 151 33.9 151.5 C 38 152.1 38.6 153.4 38.6 155 C 38.6 156.7 37.2 158.3 33.9 158.3 C 30.8 158.3 29.2 156.9 28.8 154.8 C 28.84 154.76 28.8 154.8 28.8 154.8 L 30.2 154.8 Z M 52.7 152.3 C 52.7 152.3 52.7 152.3 52.7 152.3 C 52.7 155.5 50.5 158.3 46.7 158.3 C 43.1 158.3 40.8 155.6 40.8 152.3 C 40.8 152.3 40.8 152.3 40.8 152.3 C 40.8 149.1 43.2 146.4 46.8 146.4 C 50.3 146.4 52.7 149.1 52.7 152.3 Z M 42.2 152.3 C 42.2 152.3 42.2 152.3 42.2 152.3 C 42.2 154.8 43.8 157.2 46.8 157.2 C 49.7 157.2 51.3 155 51.3 152.3 C 51.3 152.3 51.3 152.3 51.3 152.3 C 51.3 149.9 49.7 147.5 46.7 147.5 C 43.9 147.5 42.2 149.7 42.2 152.3 Z M 55.6 146.6 C 55.6 146.6 60.18 146.64 60.2 146.6 C 63.8 146.6 66 149 66 152.2 C 66 152.2 66 152.2 66 152.2 C 66 155.8 63.4 158 60.2 158 C 60.16 158.04 55.6 158 55.6 158 L 55.6 146.6 Z M 56.9 156.9 C 56.9 156.9 59.85 156.93 59.8 156.9 C 63.1 156.9 64.6 154.9 64.6 152.2 C 64.6 152.2 64.6 152.2 64.6 152.2 C 64.6 149.4 62.7 147.8 60 147.7 C 60 147.75 56.9 147.7 56.9 147.7 L 56.9 156.9 Z M 77.2 152.6 L 70.2 152.6 L 70.2 156.9 L 77.9 156.9 L 77.7 158 L 68.9 158 L 68.9 146.6 L 77.6 146.6 L 77.6 147.8 L 70.2 147.8 L 70.2 151.5 L 77.2 151.5 L 77.2 152.6 Z M 88.3 149.8 C 88.3 149.8 88.26 149.81 88.3 149.8 C 88.4 148.6 89.4 147 92 147 C 94.6 147 95.7 148.5 95.7 149.8 C 95.7 149.8 95.7 149.8 95.7 149.8 C 95.7 151.3 94.6 151.9 93.9 152.1 C 93.9 152.1 93.9 152.1 93.9 152.1 C 94.7 152.3 96.1 153.1 96.1 154.9 C 96.1 154.9 96.1 154.9 96.1 154.9 C 96.1 156.9 94.6 158.3 92.1 158.3 C 89.4 158.3 88.2 156.7 87.9 155.2 C 87.95 155.19 87.9 155.2 87.9 155.2 L 89.2 155.2 C 89.2 155.2 89.2 155.19 89.2 155.2 C 89.5 156.4 90.5 157.2 92.1 157.2 C 93.6 157.2 94.8 156.5 94.8 154.8 C 94.8 154.8 94.8 154.8 94.8 154.8 C 94.8 153.5 93.9 152.7 92 152.7 C 92.05 152.7 91.2 152.7 91.2 152.7 L 91.2 151.6 C 91.2 151.6 91.91 151.6 91.9 151.6 C 93.8 151.6 94.4 150.9 94.4 149.9 C 94.4 149.9 94.4 149.9 94.4 149.9 C 94.4 148.9 93.7 148 92 148 C 90.4 148 89.7 148.8 89.5 149.8 C 89.46 149.81 89.5 149.8 89.5 149.8 L 88.3 149.8 Z M 97.8 160.3 C 98.7 158.5 99 157 99.1 155.6 C 99.1 155.6 100.4 155.6 100.4 155.6 C 100.3 156.9 99.7 158.9 98.9 160.3 C 98.9 160.3 97.8 160.3 97.8 160.3 Z M 119.9 152.6 L 112.9 152.6 L 112.9 156.9 L 120.6 156.9 L 120.4 158 L 111.6 158 L 111.6 146.6 L 120.2 146.6 L 120.2 147.8 L 112.9 147.8 L 112.9 151.5 L 119.9 151.5 L 119.9 152.6 Z M 123 146.6 C 123 146.6 128.24 146.64 128.2 146.6 C 131.1 146.6 132.3 148.1 132.3 149.9 C 132.3 149.9 132.3 149.9 132.3 149.9 C 132.3 152.1 130.8 153.4 128.3 153.4 C 128.33 153.35 124.3 153.4 124.3 153.4 L 124.3 158 L 123 158 L 123 146.6 Z M 124.3 152.2 C 124.3 152.2 128.09 152.22 128.1 152.2 C 129.8 152.2 131 151.7 131 150 C 131 150 131 150 131 150 C 131 148.6 130 147.8 128.1 147.8 C 128.09 147.77 124.3 147.8 124.3 147.8 L 124.3 152.2 Z M 136.1 146.6 L 136.1 158 L 134.8 158 L 134.8 146.6 L 136.1 146.6 Z M 140.2 154.8 C 140.2 154.8 140.15 154.76 140.2 154.8 C 140.6 156.2 141.6 157.2 144 157.2 C 146.3 157.2 147.3 156.2 147.3 155.1 C 147.3 153.9 146.6 153.1 143.5 152.6 C 140.3 152 139.4 151 139.4 149.5 C 139.4 147.5 141.2 146.4 143.7 146.4 C 147.3 146.4 148.1 148.3 148.3 149.4 C 148.26 149.43 148.3 149.4 148.3 149.4 L 147 149.4 C 147 149.4 146.95 149.43 147 149.4 C 146.7 148.6 146.2 147.5 143.6 147.5 C 141.9 147.5 140.7 148.1 140.7 149.3 C 140.7 150.4 141.2 151 143.9 151.5 C 148 152.1 148.6 153.4 148.6 155 C 148.6 156.7 147.2 158.3 143.9 158.3 C 140.8 158.3 139.2 156.9 138.8 154.8 C 138.83 154.76 138.8 154.8 138.8 154.8 L 140.2 154.8 Z M 162.6 152.3 C 162.6 152.3 162.6 152.3 162.6 152.3 C 162.6 155.5 160.5 158.3 156.7 158.3 C 153.1 158.3 150.8 155.6 150.8 152.3 C 150.8 152.3 150.8 152.3 150.8 152.3 C 150.8 149.1 153.1 146.4 156.7 146.4 C 160.3 146.4 162.6 149.1 162.6 152.3 Z M 152.1 152.3 C 152.1 152.3 152.1 152.3 152.1 152.3 C 152.1 154.8 153.8 157.2 156.7 157.2 C 159.7 157.2 161.3 155 161.3 152.3 C 161.3 152.3 161.3 152.3 161.3 152.3 C 161.3 149.9 159.7 147.5 156.6 147.5 C 153.9 147.5 152.1 149.7 152.1 152.3 Z M 165.6 146.6 C 165.6 146.6 170.17 146.64 170.2 146.6 C 173.8 146.6 176 149 176 152.2 C 176 152.2 176 152.2 176 152.2 C 176 155.8 173.4 158 170.2 158 C 170.15 158.04 165.6 158 165.6 158 L 165.6 146.6 Z M 166.9 156.9 C 166.9 156.9 169.84 156.93 169.8 156.9 C 173.1 156.9 174.6 154.9 174.6 152.2 C 174.6 152.2 174.6 152.2 174.6 152.2 C 174.6 149.4 172.7 147.8 170 147.7 C 169.99 147.75 166.9 147.7 166.9 147.7 L 166.9 156.9 Z M 187.2 152.6 L 180.2 152.6 L 180.2 156.9 L 187.9 156.9 L 187.7 158 L 178.9 158 L 178.9 146.6 L 187.6 146.6 L 187.6 147.8 L 180.2 147.8 L 180.2 151.5 L 187.2 151.5 L 187.2 152.6 Z M 198.2 149.8 C 198.2 149.8 198.25 149.81 198.2 149.8 C 198.4 148.6 199.4 147 202 147 C 204.6 147 205.6 148.5 205.6 149.8 C 205.6 149.8 205.6 149.8 205.6 149.8 C 205.6 151.3 204.6 151.9 203.9 152.1 C 203.9 152.1 203.9 152.1 203.9 152.1 C 204.7 152.3 206.1 153.1 206.1 154.9 C 206.1 154.9 206.1 154.9 206.1 154.9 C 206.1 156.9 204.6 158.3 202.1 158.3 C 199.4 158.3 198.2 156.7 197.9 155.2 C 197.94 155.19 197.9 155.2 197.9 155.2 L 199.2 155.2 C 199.2 155.2 199.19 155.19 199.2 155.2 C 199.5 156.4 200.5 157.2 202.1 157.2 C 203.6 157.2 204.8 156.5 204.8 154.8 C 204.8 154.8 204.8 154.8 204.8 154.8 C 204.8 153.5 203.9 152.7 202 152.7 C 202.04 152.7 201.2 152.7 201.2 152.7 L 201.2 151.6 C 201.2 151.6 201.9 151.6 201.9 151.6 C 203.8 151.6 204.3 150.9 204.3 149.9 C 204.3 149.9 204.3 149.9 204.3 149.9 C 204.3 148.9 203.7 148 202 148 C 200.4 148 199.7 148.8 199.4 149.8 C 199.45 149.81 199.4 149.8 199.4 149.8 L 198.2 149.8 Z M 208.8 158 L 208.8 155.6 L 210.1 155.6 L 210.1 158 L 208.8 158 Z M 212.8 158 L 212.8 155.6 L 214.1 155.6 L 214.1 158 L 212.8 158 Z M 216.8 158 L 216.8 155.6 L 218.1 155.6 L 218.1 158 L 216.8 158 Z " stroke="none" fill="#141414"/>  </g>  <g id="Polygon10474">    <path d="M 1.8 131.3 C 1.8 131.3 1.79 131.29 1.8 131.3 C 2.1 132.4 3 133 4.6 133 C 6.2 133 6.9 132.4 6.9 131.5 C 6.9 130.8 6.4 130.3 4.3 130 C 1.5 129.7 1 128.8 1 127.8 C 1 126.8 1.8 125.4 4.3 125.4 C 7 125.4 7.8 126.9 7.8 127.8 C 7.83 127.82 7.8 127.8 7.8 127.8 L 6.6 127.8 C 6.6 127.8 6.6 127.82 6.6 127.8 C 6.5 127.3 6.1 126.4 4.2 126.4 C 2.5 126.4 2.2 127.1 2.2 127.7 C 2.2 128.3 2.6 128.7 4.5 129 C 7.5 129.4 8.1 130.2 8.1 131.5 C 8.1 132.9 7 133.9 4.5 133.9 C 2.1 133.9 0.8 132.9 0.6 131.3 C 0.56 131.29 0.6 131.3 0.6 131.3 L 1.8 131.3 Z M 11.1 130 C 11.1 130 11.12 129.97 11.1 130 C 11.2 131.7 12.3 132.9 14.1 132.9 C 15.4 132.9 16.2 132.3 16.7 131.5 C 16.69 131.48 16.7 131.5 16.7 131.5 L 17.9 131.5 C 17.9 131.5 17.9 131.48 17.9 131.5 C 17.5 132.6 16.4 133.9 14 133.9 C 11.2 133.9 9.9 131.9 9.9 129.7 C 9.9 129.7 9.9 129.7 9.9 129.7 C 9.9 127.2 11.5 125.4 14 125.4 C 17 125.4 18 127.7 18 129.6 C 18 129.7 18 129.8 18 130 C 18.02 129.97 11.1 130 11.1 130 Z M 16.7 129 C 16.7 129 16.74 129.04 16.7 129 C 16.7 128 16.1 126.4 14 126.4 C 12.2 126.4 11.3 127.6 11.1 129 C 11.15 129.04 11.1 129 11.1 129 L 16.7 129 Z M 28.9 127.9 C 28.9 127.1 28.9 126.4 28.9 125.7 C 28.9 125.7 30.1 125.7 30.1 125.7 C 30.1 125.9 30.1 126.7 30.1 127.5 C 30.7 126.3 31.9 125.4 33.4 125.4 C 33.4 125.4 33.4 126.6 33.4 126.6 C 31.6 126.6 30.1 127.8 30.1 130.2 C 30.11 130.24 30.1 133.7 30.1 133.7 L 28.9 133.7 C 28.9 133.7 28.9 127.86 28.9 127.9 Z M 35.8 130 C 35.8 130 35.8 129.97 35.8 130 C 35.9 131.7 37 132.9 38.8 132.9 C 40.1 132.9 40.9 132.3 41.4 131.5 C 41.37 131.48 41.4 131.5 41.4 131.5 L 42.6 131.5 C 42.6 131.5 42.58 131.48 42.6 131.5 C 42.2 132.6 41 133.9 38.7 133.9 C 35.9 133.9 34.6 131.9 34.6 129.7 C 34.6 129.7 34.6 129.7 34.6 129.7 C 34.6 127.2 36.2 125.4 38.6 125.4 C 41.7 125.4 42.7 127.7 42.7 129.6 C 42.7 129.7 42.7 129.8 42.7 130 C 42.7 129.97 35.8 130 35.8 130 Z M 41.4 129 C 41.4 129 41.42 129.04 41.4 129 C 41.3 128 40.8 126.4 38.6 126.4 C 36.9 126.4 36 127.6 35.8 129 C 35.83 129.04 35.8 129 35.8 129 L 41.4 129 Z M 41.3 121.5 L 38.8 124.1 L 37.6 124.1 L 39.8 121.5 L 41.3 121.5 Z M 46.3 132.4 C 46.26 132.41 46.3 137.3 46.3 137.3 L 45.1 137.3 C 45.1 137.3 45.05 127.69 45.1 127.7 C 45.1 127 45.1 126.3 45 125.7 C 45 125.7 46.2 125.7 46.2 125.7 C 46.2 125.9 46.3 126.5 46.3 127.2 C 46.7 126.3 47.7 125.4 49.4 125.4 C 51.6 125.4 53.2 127.2 53.2 129.6 C 53.2 129.6 53.2 129.6 53.2 129.6 C 53.2 132.1 51.4 133.9 49.2 133.9 C 47.4 133.9 46.7 133.2 46.3 132.4 Z M 51.9 129.6 C 51.9 129.6 51.9 129.6 51.9 129.6 C 51.9 128.1 51.1 126.5 49.1 126.5 C 47.1 126.5 46.2 127.9 46.2 129.7 C 46.2 129.7 46.2 129.7 46.2 129.7 C 46.2 131.5 47.2 132.9 49.1 132.9 C 51 132.9 51.9 131.3 51.9 129.6 Z M 56.3 130 C 56.3 130 56.27 129.97 56.3 130 C 56.4 131.7 57.5 132.9 59.3 132.9 C 60.6 132.9 61.4 132.3 61.8 131.5 C 61.84 131.48 61.8 131.5 61.8 131.5 L 63 131.5 C 63 131.5 63.05 131.48 63 131.5 C 62.6 132.6 61.5 133.9 59.2 133.9 C 56.4 133.9 55.1 131.9 55.1 129.7 C 55.1 129.7 55.1 129.7 55.1 129.7 C 55.1 127.2 56.7 125.4 59.1 125.4 C 62.2 125.4 63.2 127.7 63.2 129.6 C 63.2 129.7 63.2 129.8 63.2 130 C 63.17 129.97 56.3 130 56.3 130 Z M 61.9 129 C 61.9 129 61.89 129.04 61.9 129 C 61.8 128 61.3 126.4 59.1 126.4 C 57.4 126.4 56.5 127.6 56.3 129 C 56.3 129.04 56.3 129 56.3 129 L 61.9 129 Z M 57.9 121.5 L 60.1 124.1 L 58.9 124.1 L 56.4 121.5 L 57.9 121.5 Z M 64.4 125.7 L 66 125.7 L 66 123 L 67.2 123 L 67.2 125.7 L 69.4 125.7 L 69.4 126.7 L 67.2 126.7 C 67.2 126.7 67.21 131.38 67.2 131.4 C 67.2 132.4 67.5 132.8 68.4 132.8 C 68.6 132.8 69 132.8 69.2 132.7 C 69.2 132.7 69.2 133.7 69.2 133.7 C 68.9 133.8 68.5 133.8 68.1 133.8 C 66.5 133.8 66 133.1 66 131.5 C 66 131.5 66 126.7 66 126.7 L 64.4 126.7 L 64.4 125.7 Z M 71.8 130 C 71.8 130 71.84 129.97 71.8 130 C 71.9 131.7 73.1 132.9 74.8 132.9 C 76.2 132.9 76.9 132.3 77.4 131.5 C 77.41 131.48 77.4 131.5 77.4 131.5 L 78.6 131.5 C 78.6 131.5 78.61 131.48 78.6 131.5 C 78.2 132.6 77.1 133.9 74.7 133.9 C 72 133.9 70.6 131.9 70.6 129.7 C 70.6 129.7 70.6 129.7 70.6 129.7 C 70.6 127.2 72.3 125.4 74.7 125.4 C 77.7 125.4 78.7 127.7 78.7 129.6 C 78.7 129.7 78.7 129.8 78.7 130 C 78.74 129.97 71.8 130 71.8 130 Z M 77.5 129 C 77.5 129 77.46 129.04 77.5 129 C 77.4 128 76.8 126.4 74.7 126.4 C 72.9 126.4 72 127.6 71.9 129 C 71.87 129.04 71.9 129 71.9 129 L 77.5 129 Z M 97.1 121.7 C 97.1 121.7 97.13 131.36 97.1 131.4 C 97.1 132.1 97.1 132.9 97.1 133.7 C 97.1 133.7 96 133.7 96 133.7 C 95.9 133.3 95.9 132.8 95.9 132.4 C 95.5 133.1 94.8 133.9 92.9 133.9 C 90.5 133.9 89 132.2 89 129.8 C 89 129.8 89 129.8 89 129.8 C 89 127.1 90.9 125.4 93.1 125.4 C 95 125.4 95.7 126.4 95.9 126.8 C 95.92 126.81 95.9 121.7 95.9 121.7 L 97.1 121.7 Z M 90.2 129.7 C 90.2 129.7 90.2 129.7 90.2 129.7 C 90.2 131.3 91.2 132.9 93.1 132.9 C 95.2 132.9 96 131.6 96 129.7 C 96 129.7 96 129.7 96 129.7 C 96 127.8 95.3 126.5 93.1 126.5 C 91.2 126.5 90.2 128.1 90.2 129.7 Z M 100.7 130 C 100.7 130 100.72 129.97 100.7 130 C 100.8 131.7 102 132.9 103.7 132.9 C 105.1 132.9 105.8 132.3 106.3 131.5 C 106.29 131.48 106.3 131.5 106.3 131.5 L 107.5 131.5 C 107.5 131.5 107.5 131.48 107.5 131.5 C 107.1 132.6 106 133.9 103.6 133.9 C 100.9 133.9 99.5 131.9 99.5 129.7 C 99.5 129.7 99.5 129.7 99.5 129.7 C 99.5 127.2 101.1 125.4 103.6 125.4 C 106.6 125.4 107.6 127.7 107.6 129.6 C 107.6 129.7 107.6 129.8 107.6 130 C 107.62 129.97 100.7 130 100.7 130 Z M 106.3 129 C 106.3 129 106.34 129.04 106.3 129 C 106.3 128 105.7 126.4 103.6 126.4 C 101.8 126.4 100.9 127.6 100.8 129 C 100.76 129.04 100.8 129 100.8 129 L 106.3 129 Z M 119 133.7 L 119 126.7 L 117.4 126.7 L 117.4 125.7 L 119 125.7 C 119 125.7 118.96 124.47 119 124.5 C 119 122.7 119.7 121.5 121.5 121.5 C 121.9 121.5 122.2 121.6 122.4 121.6 C 122.4 121.6 122.4 122.7 122.4 122.7 C 122.2 122.6 121.9 122.6 121.7 122.6 C 120.5 122.6 120.2 123.1 120.2 124.6 C 120.17 124.57 120.2 125.7 120.2 125.7 L 122.1 125.7 L 122.1 126.7 L 120.2 126.7 L 120.2 133.7 L 119 133.7 Z M 130.6 131.8 C 130.6 132.5 130.7 133.5 130.7 133.7 C 130.7 133.7 129.5 133.7 129.5 133.7 C 129.5 133.4 129.4 132.7 129.4 132.5 C 129 133.3 128.1 133.9 126.4 133.9 C 124.1 133.9 123.2 132.6 123.2 131.4 C 123.2 131.4 123.2 131.4 123.2 131.4 C 123.2 129.3 125.1 128.8 127.4 128.8 C 128.5 128.8 129.2 128.8 129.4 128.8 C 129.4 128.8 129.4 128.3 129.4 128.3 C 129.4 127.3 129 126.4 127.2 126.4 C 125.5 126.4 125.1 127.2 124.9 128 C 124.91 128 124.9 128 124.9 128 L 123.7 128 C 123.7 128 123.7 128 123.7 128 C 123.8 126.9 124.5 125.4 127.2 125.4 C 129.9 125.4 130.6 126.8 130.6 128.1 C 130.6 128.1 130.6 131.8 130.6 131.8 Z M 129.4 129.7 C 129.2 129.7 128.6 129.7 127.4 129.7 C 125.4 129.7 124.4 130.1 124.4 131.3 C 124.4 131.3 124.4 131.3 124.4 131.3 C 124.4 132.2 125.1 132.9 126.5 132.9 C 128.9 132.9 129.4 131.5 129.4 130.1 C 129.4 130.1 129.4 129.7 129.4 129.7 Z M 141 131.3 C 141 131.3 141 131.26 141 131.3 C 140.6 132.7 139.3 133.9 137.2 133.9 C 134.4 133.9 133 132 133 129.7 C 133 129.7 133 129.7 133 129.7 C 133 127.4 134.5 125.4 137.2 125.4 C 139.8 125.4 140.8 127.1 141 128.2 C 140.99 128.19 141 128.2 141 128.2 L 139.8 128.2 C 139.8 128.2 139.78 128.19 139.8 128.2 C 139.5 127.3 138.8 126.5 137.1 126.5 C 135.3 126.5 134.2 127.8 134.2 129.7 C 134.2 129.7 134.2 129.7 134.2 129.7 C 134.2 131.5 135.3 132.9 137.2 132.9 C 138.6 132.9 139.4 132.2 139.8 131.3 C 139.79 131.26 139.8 131.3 139.8 131.3 L 141 131.3 Z M 138 133.7 C 138 133.7 137.23 134.63 137.2 134.6 C 138 134.7 139.1 135.1 139.1 136.1 C 139.1 137.4 137.8 137.7 136.9 137.7 C 136.2 137.7 135.8 137.6 135.6 137.5 C 135.6 137.5 135.6 136.7 135.6 136.7 C 136 136.8 136.4 136.8 136.8 136.8 C 137.6 136.8 138 136.6 138 136.2 C 138 135.5 137 135.4 135.9 135.4 C 135.87 135.39 135.9 135 135.9 135 L 137.1 133.5 L 138 133.7 Z M 151.1 129.7 C 151.1 129.7 151.1 129.7 151.1 129.7 C 151.1 131.9 149.8 133.9 146.9 133.9 C 144.3 133.9 142.7 131.9 142.7 129.7 C 142.7 129.7 142.7 129.7 142.7 129.7 C 142.7 127.4 144.4 125.4 147 125.4 C 149.7 125.4 151.1 127.5 151.1 129.7 Z M 144 129.7 C 144 129.7 144 129.7 144 129.7 C 144 131.3 145 132.9 146.9 132.9 C 148.9 132.9 149.9 131.4 149.9 129.7 C 149.9 129.7 149.9 129.7 149.9 129.7 C 149.9 128 148.8 126.5 146.9 126.5 C 144.9 126.5 144 128 144 129.7 Z M 153.5 127.7 C 153.5 127 153.5 126.3 153.5 125.7 C 153.5 125.7 154.7 125.7 154.7 125.7 C 154.7 126 154.7 126.7 154.7 127.3 C 155.1 126.5 155.9 125.4 157.7 125.4 C 159.6 125.4 160.8 126.6 160.8 128.8 C 160.8 128.84 160.8 133.7 160.8 133.7 L 159.6 133.7 C 159.6 133.7 159.59 129.07 159.6 129.1 C 159.6 127.6 159 126.5 157.4 126.5 C 155.6 126.5 154.7 127.9 154.7 129.9 C 154.72 129.91 154.7 133.7 154.7 133.7 L 153.5 133.7 C 153.5 133.7 153.5 127.7 153.5 127.7 Z M 179.9 132.6 C 179.9 135.7 178.9 137.5 175.7 137.5 C 172.6 137.5 172 135.7 171.8 134.8 C 171.81 134.78 171.8 134.8 171.8 134.8 L 173 134.8 C 173 134.8 173.05 134.78 173 134.8 C 173.3 135.7 173.9 136.5 175.7 136.5 C 178.3 136.5 178.7 134.8 178.7 132.7 C 178.7 132.7 178.7 132.2 178.7 132.2 C 178.2 133.2 177.2 133.9 175.5 133.9 C 173.3 133.9 171.7 132.1 171.7 129.8 C 171.7 129.8 171.7 129.8 171.7 129.8 C 171.7 127.2 173.6 125.4 175.7 125.4 C 177.6 125.4 178.4 126.3 178.7 127 C 178.7 126.6 178.7 125.9 178.7 125.7 C 178.7 125.7 179.9 125.7 179.9 125.7 C 179.9 126.4 179.9 127.2 179.9 128 C 179.9 128 179.9 132.6 179.9 132.6 Z M 173 129.7 C 173 129.7 173 129.7 173 129.7 C 173 131.5 174.2 132.8 175.8 132.8 C 177.6 132.8 178.7 131.7 178.7 129.6 C 178.7 129.6 178.7 129.6 178.7 129.6 C 178.7 127.6 177.7 126.5 175.9 126.5 C 173.9 126.5 173 128.2 173 129.7 Z M 182.8 127.9 C 182.8 127.1 182.8 126.4 182.8 125.7 C 182.8 125.7 184 125.7 184 125.7 C 184 125.9 184 126.7 184 127.5 C 184.5 126.3 185.8 125.4 187.3 125.4 C 187.3 125.4 187.3 126.6 187.3 126.6 C 185.4 126.6 184 127.8 184 130.2 C 184 130.24 184 133.7 184 133.7 L 182.8 133.7 C 182.8 133.7 182.8 127.86 182.8 127.9 Z M 195.9 131.8 C 195.9 132.5 196 133.5 196 133.7 C 196 133.7 194.9 133.7 194.9 133.7 C 194.8 133.4 194.8 132.7 194.8 132.5 C 194.3 133.3 193.4 133.9 191.7 133.9 C 189.4 133.9 188.6 132.6 188.6 131.4 C 188.6 131.4 188.6 131.4 188.6 131.4 C 188.6 129.3 190.4 128.8 192.7 128.8 C 193.8 128.8 194.5 128.8 194.7 128.8 C 194.7 128.8 194.7 128.3 194.7 128.3 C 194.7 127.3 194.3 126.4 192.5 126.4 C 190.8 126.4 190.4 127.2 190.2 128 C 190.23 128 190.2 128 190.2 128 L 189 128 C 189 128 189.02 128 189 128 C 189.1 126.9 189.8 125.4 192.5 125.4 C 195.2 125.4 195.9 126.8 195.9 128.1 C 195.9 128.1 195.9 131.8 195.9 131.8 Z M 194.7 129.7 C 194.5 129.7 193.9 129.7 192.7 129.7 C 190.7 129.7 189.8 130.1 189.8 131.3 C 189.8 131.3 189.8 131.3 189.8 131.3 C 189.8 132.2 190.4 132.9 191.9 132.9 C 194.2 132.9 194.7 131.5 194.7 130.1 C 194.7 130.1 194.7 129.7 194.7 129.7 Z M 200 132.4 C 200.05 132.41 200 137.3 200 137.3 L 198.8 137.3 C 198.8 137.3 198.84 127.69 198.8 127.7 C 198.8 127 198.8 126.3 198.8 125.7 C 198.8 125.7 200 125.7 200 125.7 C 200 125.9 200 126.5 200 127.2 C 200.5 126.3 201.5 125.4 203.2 125.4 C 205.4 125.4 207 127.2 207 129.6 C 207 129.6 207 129.6 207 129.6 C 207 132.1 205.2 133.9 203 133.9 C 201.2 133.9 200.5 133.2 200 132.4 Z M 205.7 129.6 C 205.7 129.6 205.7 129.6 205.7 129.6 C 205.7 128.1 204.9 126.5 202.9 126.5 C 200.9 126.5 200 127.9 200 129.7 C 200 129.7 200 129.7 200 129.7 C 200 131.5 201 132.9 202.9 132.9 C 204.8 132.9 205.7 131.3 205.7 129.6 Z M 210.6 121.7 C 210.6 121.7 210.58 127.25 210.6 127.2 C 210.9 126.6 211.6 125.4 213.6 125.4 C 215.4 125.4 216.7 126.6 216.7 128.9 C 216.67 128.85 216.7 133.7 216.7 133.7 L 215.5 133.7 C 215.5 133.7 215.45 129.06 215.5 129.1 C 215.5 127.6 214.9 126.5 213.3 126.5 C 211.5 126.5 210.6 128 210.6 129.7 C 210.58 129.74 210.6 133.7 210.6 133.7 L 209.4 133.7 L 209.4 121.7 L 210.6 121.7 Z M 219.6 125.7 L 220.8 125.7 L 220.8 133.7 L 219.6 133.7 L 219.6 125.7 Z M 219.6 121.7 L 220.8 121.7 L 220.8 123.4 L 219.6 123.4 L 219.6 121.7 Z M 230.1 132.4 C 229.7 133.2 228.8 133.9 227.1 133.9 C 224.8 133.9 223.2 132.2 223.2 129.8 C 223.2 129.8 223.2 129.8 223.2 129.8 C 223.2 127.1 225.2 125.4 227.2 125.4 C 229.2 125.4 229.9 126.5 230.1 126.9 C 230.2 126.3 230.2 125.9 230.2 125.7 C 230.2 125.7 231.4 125.7 231.4 125.7 C 231.4 126.3 231.3 127.2 231.3 127.9 C 231.34 127.95 231.3 137.3 231.3 137.3 L 230.1 137.3 C 230.1 137.3 230.13 132.37 230.1 132.4 Z M 224.4 129.7 C 224.4 129.7 224.4 129.7 224.4 129.7 C 224.4 131.5 225.5 132.9 227.2 132.9 C 229.1 132.9 230.2 131.8 230.2 129.7 C 230.2 129.7 230.2 129.7 230.2 129.7 C 230.2 127.8 229.3 126.5 227.4 126.5 C 225.4 126.5 224.4 128 224.4 129.7 Z M 241.4 131.4 C 241.4 132.2 241.4 132.9 241.4 133.7 C 241.4 133.7 240.3 133.7 240.3 133.7 C 240.2 133.5 240.2 132.9 240.2 132.2 C 239.8 133.2 239 133.9 237.3 133.9 C 235.6 133.9 234.2 133 234.2 130.7 C 234.23 130.69 234.2 125.7 234.2 125.7 L 235.4 125.7 C 235.4 125.7 235.44 130.45 235.4 130.5 C 235.4 131.7 235.9 132.9 237.5 132.9 C 239.4 132.9 240.2 131.8 240.2 129.3 C 240.2 129.29 240.2 125.7 240.2 125.7 L 241.4 125.7 C 241.4 125.7 241.41 131.37 241.4 131.4 Z M 245 130 C 245 130 245 129.97 245 130 C 245.1 131.7 246.2 132.9 248 132.9 C 249.3 132.9 250.1 132.3 250.6 131.5 C 250.57 131.48 250.6 131.5 250.6 131.5 L 251.8 131.5 C 251.8 131.5 251.78 131.48 251.8 131.5 C 251.4 132.6 250.2 133.9 247.9 133.9 C 245.1 133.9 243.8 131.9 243.8 129.7 C 243.8 129.7 243.8 129.7 243.8 129.7 C 243.8 127.2 245.4 125.4 247.9 125.4 C 250.9 125.4 251.9 127.7 251.9 129.6 C 251.9 129.7 251.9 129.8 251.9 130 C 251.9 129.97 245 130 245 130 Z M 250.6 129 C 250.6 129 250.63 129.04 250.6 129 C 250.6 128 250 126.4 247.8 126.4 C 246.1 126.4 245.2 127.6 245 129 C 245.04 129.04 245 129 245 129 L 250.6 129 Z M 253 136 C 253.9 134.2 254.3 132.7 254.4 131.3 C 254.4 131.3 255.6 131.3 255.6 131.3 C 255.5 132.5 255 134.6 254.1 136 C 254.1 136 253 136 253 136 Z M 274.6 129.7 C 274.6 129.7 274.6 129.7 274.6 129.7 C 274.6 131.9 273.2 133.9 270.4 133.9 C 267.7 133.9 266.2 131.9 266.2 129.7 C 266.2 129.7 266.2 129.7 266.2 129.7 C 266.2 127.4 267.8 125.4 270.4 125.4 C 273.1 125.4 274.6 127.5 274.6 129.7 Z M 267.5 129.7 C 267.5 129.7 267.5 129.7 267.5 129.7 C 267.5 131.3 268.5 132.9 270.4 132.9 C 272.4 132.9 273.4 131.4 273.4 129.7 C 273.4 129.7 273.4 129.7 273.4 129.7 C 273.4 128 272.3 126.5 270.4 126.5 C 268.4 126.5 267.5 128 267.5 129.7 Z M 277 127.7 C 277 127 277 126.3 277 125.7 C 277 125.7 278.1 125.7 278.1 125.7 C 278.2 126 278.2 126.7 278.2 127.3 C 278.5 126.5 279.4 125.4 281.2 125.4 C 283 125.4 284.3 126.6 284.3 128.8 C 284.27 128.84 284.3 133.7 284.3 133.7 L 283.1 133.7 C 283.1 133.7 283.06 129.07 283.1 129.1 C 283.1 127.6 282.5 126.5 280.9 126.5 C 279.1 126.5 278.2 127.9 278.2 129.9 C 278.18 129.91 278.2 133.7 278.2 133.7 L 277 133.7 C 277 133.7 276.97 127.7 277 127.7 Z M 296.1 125.7 C 297.9 129.8 298.9 132.1 299.2 132.8 C 299.2 132.8 299.2 132.8 299.2 132.8 C 299.5 132 300.4 129.7 302.1 125.7 C 302.06 125.67 303.3 125.7 303.3 125.7 C 303.3 125.7 300.04 133.53 300 133.5 C 298.6 137 298 137.5 296.2 137.5 C 296 137.5 295.5 137.5 295.2 137.4 C 295.2 137.4 295.2 136.3 295.2 136.3 C 295.5 136.4 296 136.4 296.2 136.4 C 297.2 136.4 297.7 135.9 298.5 134.1 C 298.53 134.1 294.8 125.7 294.8 125.7 C 294.8 125.7 296.09 125.67 296.1 125.7 Z M 313.8 133.7 L 313.8 121.7 L 315 121.7 L 315 133.7 L 313.8 133.7 Z M 317.9 125.7 L 319.1 125.7 L 319.1 133.7 L 317.9 133.7 L 317.9 125.7 Z M 317.9 121.7 L 319.1 121.7 L 319.1 123.4 L 317.9 123.4 L 317.9 121.7 Z M 321.1 125.7 L 322.7 125.7 L 322.7 123 L 323.9 123 L 323.9 125.7 L 326.1 125.7 L 326.1 126.7 L 323.9 126.7 C 323.9 126.7 323.93 131.38 323.9 131.4 C 323.9 132.4 324.2 132.8 325.1 132.8 C 325.3 132.8 325.7 132.8 325.9 132.7 C 325.9 132.7 325.9 133.7 325.9 133.7 C 325.6 133.8 325.2 133.8 324.8 133.8 C 323.2 133.8 322.7 133.1 322.7 131.5 C 322.72 131.5 322.7 126.7 322.7 126.7 L 321.1 126.7 L 321.1 125.7 Z M 336.8 133.7 L 336.8 131.4 L 338.1 131.4 L 338.1 133.7 L 336.8 133.7 Z M 336.8 127.9 L 336.8 125.6 L 338.1 125.6 L 338.1 127.9 L 336.8 127.9 Z M 358.2 128.3 L 351.3 128.3 L 351.3 132.6 L 358.9 132.6 L 358.7 133.7 L 350 133.7 L 350 122.3 L 358.6 122.3 L 358.6 123.4 L 351.3 123.4 L 351.3 127.2 L 358.2 127.2 L 358.2 128.3 Z M 361.4 122.3 C 361.4 122.3 366.58 122.32 366.6 122.3 C 369.5 122.3 370.6 123.8 370.6 125.6 C 370.6 125.6 370.6 125.6 370.6 125.6 C 370.6 127.8 369.1 129 366.7 129 C 366.67 129.03 362.7 129 362.7 129 L 362.7 133.7 L 361.4 133.7 L 361.4 122.3 Z M 362.7 127.9 C 362.7 127.9 366.43 127.9 366.4 127.9 C 368.1 127.9 369.3 127.4 369.3 125.6 C 369.3 125.6 369.3 125.6 369.3 125.6 C 369.3 124.2 368.3 123.5 366.4 123.5 C 366.43 123.45 362.7 123.5 362.7 123.5 L 362.7 127.9 Z M 374.4 122.3 L 374.4 133.7 L 373.1 133.7 L 373.1 122.3 L 374.4 122.3 Z M 378.5 130.4 C 378.5 130.4 378.49 130.44 378.5 130.4 C 378.9 131.9 380 132.9 382.3 132.9 C 384.7 132.9 385.6 131.9 385.6 130.8 C 385.6 129.6 385 128.8 381.9 128.3 C 378.6 127.7 377.8 126.7 377.8 125.2 C 377.8 123.2 379.6 122.1 382 122.1 C 385.7 122.1 386.5 124 386.6 125.1 C 386.6 125.11 386.6 125.1 386.6 125.1 L 385.3 125.1 C 385.3 125.1 385.29 125.11 385.3 125.1 C 385 124.3 384.5 123.2 382 123.2 C 380.2 123.2 379.1 123.8 379.1 125 C 379.1 126 379.5 126.7 382.3 127.1 C 386.3 127.8 387 129.1 387 130.6 C 387 132.4 385.6 134 382.2 134 C 379.2 134 377.5 132.5 377.2 130.4 C 377.17 130.44 377.2 130.4 377.2 130.4 L 378.5 130.4 Z M 401 128 C 401 128 401 128 401 128 C 401 131.2 398.8 134 395.1 134 C 391.4 134 389.1 131.3 389.1 128 C 389.1 128 389.1 128 389.1 128 C 389.1 124.8 391.5 122.1 395.1 122.1 C 398.6 122.1 401 124.8 401 128 Z M 390.5 127.9 C 390.5 127.9 390.5 127.9 390.5 127.9 C 390.5 130.5 392.1 132.8 395.1 132.8 C 398 132.8 399.6 130.7 399.6 128 C 399.6 128 399.6 128 399.6 128 C 399.6 125.6 398 123.2 395 123.2 C 392.2 123.2 390.5 125.4 390.5 127.9 Z M 404 122.3 C 404 122.3 408.51 122.32 408.5 122.3 C 412.1 122.3 414.3 124.7 414.3 127.8 C 414.3 127.8 414.3 127.8 414.3 127.8 C 414.3 131.5 411.8 133.7 408.5 133.7 C 408.49 133.72 404 133.7 404 133.7 L 404 122.3 Z M 405.2 132.6 C 405.2 132.6 408.17 132.61 408.2 132.6 C 411.4 132.6 412.9 130.5 412.9 127.9 C 412.9 127.9 412.9 127.9 412.9 127.9 C 412.9 125.1 411.1 123.4 408.3 123.4 C 408.33 123.43 405.2 123.4 405.2 123.4 L 405.2 132.6 Z M 425.5 128.3 L 418.6 128.3 L 418.6 132.6 L 426.2 132.6 L 426 133.7 L 417.3 133.7 L 417.3 122.3 L 425.9 122.3 L 425.9 123.4 L 418.6 123.4 L 418.6 127.2 L 425.5 127.2 L 425.5 128.3 Z M 436.9 125.5 C 436.9 125.5 436.86 125.49 436.9 125.5 C 437 124.3 438 122.6 440.6 122.6 C 443.2 122.6 444.3 124.1 444.3 125.5 C 444.3 125.5 444.3 125.5 444.3 125.5 C 444.3 127 443.2 127.6 442.5 127.7 C 442.5 127.7 442.5 127.8 442.5 127.8 C 443.3 128 444.7 128.7 444.7 130.6 C 444.7 130.6 444.7 130.6 444.7 130.6 C 444.7 132.6 443.2 133.9 440.7 133.9 C 438 133.9 436.8 132.4 436.5 130.9 C 436.55 130.87 436.5 130.9 436.5 130.9 L 437.8 130.9 C 437.8 130.9 437.8 130.87 437.8 130.9 C 438.1 132.1 439.1 132.9 440.7 132.9 C 442.2 132.9 443.4 132.2 443.4 130.5 C 443.4 130.5 443.4 130.5 443.4 130.5 C 443.4 129.2 442.5 128.4 440.6 128.4 C 440.65 128.38 439.8 128.4 439.8 128.4 L 439.8 127.3 C 439.8 127.3 440.51 127.28 440.5 127.3 C 442.4 127.3 443 126.6 443 125.5 C 443 125.5 443 125.5 443 125.5 C 443 124.6 442.3 123.7 440.6 123.7 C 439 123.7 438.3 124.5 438.1 125.5 C 438.06 125.49 438.1 125.5 438.1 125.5 L 436.9 125.5 Z M 446.4 136 C 447.3 134.2 447.6 132.7 447.7 131.3 C 447.7 131.3 449 131.3 449 131.3 C 448.9 132.5 448.3 134.6 447.5 136 C 447.5 136 446.4 136 446.4 136 Z " stroke="none" fill="#141414"/>  </g>  <g id="Polygon10473">    <path d="M 8.9 97.3 C 8.9 97.3 8.86 107.04 8.9 107 C 8.9 107.8 8.9 108.6 8.9 109.4 C 8.9 109.4 7.7 109.4 7.7 109.4 C 7.7 109 7.7 108.5 7.7 108.1 C 7.3 108.8 6.5 109.6 4.6 109.6 C 2.3 109.6 0.7 107.9 0.7 105.4 C 0.7 105.4 0.7 105.4 0.7 105.4 C 0.7 102.8 2.7 101.1 4.8 101.1 C 6.8 101.1 7.4 102.1 7.7 102.5 C 7.65 102.49 7.7 97.3 7.7 97.3 L 8.9 97.3 Z M 2 105.4 C 2 105.4 2 105.4 2 105.4 C 2 107 2.9 108.6 4.8 108.6 C 6.9 108.6 7.7 107.2 7.7 105.3 C 7.7 105.3 7.7 105.3 7.7 105.3 C 7.7 103.5 7.1 102.2 4.9 102.2 C 2.9 102.2 2 103.8 2 105.4 Z M 11.5 101.9 C 11.9 100.6 12.3 98.8 12.4 97.3 C 12.4 97.3 13.6 97.3 13.6 97.3 C 13.5 98.6 13 100.8 12.5 101.9 C 12.5 101.9 11.5 101.9 11.5 101.9 Z M 22.2 107.5 C 22.2 108.2 22.2 109.2 22.3 109.4 C 22.3 109.4 21.1 109.4 21.1 109.4 C 21 109.1 21 108.4 21 108.1 C 20.6 109 19.7 109.6 17.9 109.6 C 15.6 109.6 14.8 108.2 14.8 107.1 C 14.8 107.1 14.8 107.1 14.8 107.1 C 14.8 105 16.7 104.4 19 104.4 C 20 104.4 20.7 104.4 21 104.4 C 21 104.4 21 104 21 104 C 21 103 20.6 102.1 18.7 102.1 C 17.1 102.1 16.7 102.9 16.5 103.7 C 16.48 103.68 16.5 103.7 16.5 103.7 L 15.3 103.7 C 15.3 103.7 15.27 103.68 15.3 103.7 C 15.4 102.6 16.1 101.1 18.7 101.1 C 21.5 101.1 22.2 102.5 22.2 103.8 C 22.2 103.8 22.2 107.5 22.2 107.5 Z M 21 105.4 C 20.7 105.4 20.2 105.4 19 105.4 C 17 105.4 16 105.8 16 107 C 16 107 16 107 16 107 C 16 107.9 16.7 108.6 18.1 108.6 C 20.5 108.6 21 107.2 21 105.8 C 21 105.8 21 105.4 21 105.4 Z M 25.6 109.4 L 25.6 102.4 L 24 102.4 L 24 101.4 L 25.6 101.4 C 25.6 101.4 25.55 100.15 25.6 100.1 C 25.6 98.4 26.3 97.2 28.1 97.2 C 28.5 97.2 28.8 97.2 29 97.3 C 29 97.3 29 98.4 29 98.4 C 28.8 98.3 28.5 98.3 28.3 98.3 C 27.1 98.3 26.8 98.8 26.8 100.3 C 26.77 100.25 26.8 101.4 26.8 101.4 L 28.7 101.4 L 28.7 102.4 L 26.8 102.4 L 26.8 109.4 L 25.6 109.4 Z M 31.5 109.4 L 31.5 102.4 L 30 102.4 L 30 101.4 L 31.5 101.4 C 31.5 101.4 31.55 100.15 31.5 100.1 C 31.5 98.4 32.3 97.2 34.1 97.2 C 34.5 97.2 34.8 97.2 35 97.3 C 35 97.3 35 98.4 35 98.4 C 34.8 98.3 34.5 98.3 34.3 98.3 C 33.1 98.3 32.8 98.8 32.8 100.3 C 32.76 100.25 32.8 101.4 32.8 101.4 L 34.7 101.4 L 34.7 102.4 L 32.8 102.4 L 32.8 109.4 L 31.5 109.4 Z M 36.7 101.4 L 37.9 101.4 L 37.9 109.4 L 36.7 109.4 L 36.7 101.4 Z M 36.7 97.3 L 37.9 97.3 L 37.9 99.1 L 36.7 99.1 L 36.7 97.3 Z M 48.3 106.9 C 48.3 106.9 48.32 106.94 48.3 106.9 C 47.9 108.4 46.7 109.6 44.5 109.6 C 41.7 109.6 40.3 107.7 40.3 105.4 C 40.3 105.4 40.3 105.4 40.3 105.4 C 40.3 103.1 41.9 101.1 44.5 101.1 C 47.1 101.1 48.1 102.7 48.3 103.9 C 48.31 103.87 48.3 103.9 48.3 103.9 L 47.1 103.9 C 47.1 103.9 47.1 103.87 47.1 103.9 C 46.8 103 46.1 102.2 44.5 102.2 C 42.7 102.2 41.5 103.5 41.5 105.4 C 41.5 105.4 41.5 105.4 41.5 105.4 C 41.5 107.2 42.6 108.6 44.5 108.6 C 45.9 108.6 46.7 107.9 47.1 106.9 C 47.11 106.94 47.1 106.9 47.1 106.9 L 48.3 106.9 Z M 51.8 97.3 C 51.8 97.3 51.82 102.93 51.8 102.9 C 52.1 102.3 52.9 101.1 54.9 101.1 C 56.7 101.1 57.9 102.3 57.9 104.5 C 57.91 104.53 57.9 109.4 57.9 109.4 L 56.7 109.4 C 56.7 109.4 56.7 104.74 56.7 104.7 C 56.7 103.3 56.1 102.2 54.5 102.2 C 52.7 102.2 51.8 103.7 51.8 105.4 C 51.83 105.42 51.8 109.4 51.8 109.4 L 50.6 109.4 L 50.6 97.3 L 51.8 97.3 Z M 61.5 105.6 C 61.5 105.6 61.47 105.65 61.5 105.6 C 61.6 107.4 62.7 108.6 64.5 108.6 C 65.8 108.6 66.6 108 67 107.2 C 67.04 107.16 67 107.2 67 107.2 L 68.3 107.2 C 68.3 107.2 68.25 107.16 68.3 107.2 C 67.8 108.3 66.7 109.6 64.4 109.6 C 61.6 109.6 60.3 107.5 60.3 105.4 C 60.3 105.4 60.3 105.4 60.3 105.4 C 60.3 102.9 61.9 101.1 64.3 101.1 C 67.4 101.1 68.4 103.4 68.4 105.3 C 68.4 105.4 68.4 105.5 68.4 105.6 C 68.37 105.65 61.5 105.6 61.5 105.6 Z M 67.1 104.7 C 67.1 104.7 67.09 104.72 67.1 104.7 C 67 103.7 66.5 102.1 64.3 102.1 C 62.6 102.1 61.7 103.2 61.5 104.7 C 61.5 104.72 61.5 104.7 61.5 104.7 L 67.1 104.7 Z M 71.3 107 C 71.3 107 71.3 106.97 71.3 107 C 71.6 108 72.5 108.6 74.1 108.6 C 75.8 108.6 76.4 108 76.4 107.2 C 76.4 106.5 76 106 73.8 105.7 C 71 105.4 70.5 104.4 70.5 103.4 C 70.5 102.4 71.3 101.1 73.8 101.1 C 76.5 101.1 77.3 102.6 77.3 103.5 C 77.34 103.5 77.3 103.5 77.3 103.5 L 76.1 103.5 C 76.1 103.5 76.11 103.5 76.1 103.5 C 76 103 75.6 102.1 73.7 102.1 C 72 102.1 71.7 102.8 71.7 103.3 C 71.7 104 72.1 104.4 74 104.7 C 77 105 77.6 105.9 77.6 107.1 C 77.6 108.6 76.5 109.6 74 109.6 C 71.6 109.6 70.3 108.6 70.1 107 C 70.07 106.97 70.1 107 70.1 107 L 71.3 107 Z M 87 107 C 87 107 87.05 106.97 87 107 C 87.4 108 88.3 108.6 89.8 108.6 C 91.5 108.6 92.1 108 92.1 107.2 C 92.1 106.5 91.7 106 89.5 105.7 C 86.8 105.4 86.2 104.4 86.2 103.4 C 86.2 102.4 87 101.1 89.5 101.1 C 92.3 101.1 93 102.6 93.1 103.5 C 93.09 103.5 93.1 103.5 93.1 103.5 L 91.9 103.5 C 91.9 103.5 91.86 103.5 91.9 103.5 C 91.7 103 91.4 102.1 89.4 102.1 C 87.8 102.1 87.4 102.8 87.4 103.3 C 87.4 104 87.8 104.4 89.8 104.7 C 92.7 105 93.3 105.9 93.3 107.1 C 93.3 108.6 92.3 109.6 89.8 109.6 C 87.4 109.6 86.1 108.6 85.8 107 C 85.82 106.97 85.8 107 85.8 107 L 87 107 Z M 102.6 107.5 C 102.6 108.2 102.7 109.2 102.7 109.4 C 102.7 109.4 101.5 109.4 101.5 109.4 C 101.5 109.1 101.4 108.4 101.4 108.1 C 101 109 100.1 109.6 98.4 109.6 C 96.1 109.6 95.2 108.2 95.2 107.1 C 95.2 107.1 95.2 107.1 95.2 107.1 C 95.2 105 97.1 104.4 99.4 104.4 C 100.5 104.4 101.2 104.4 101.4 104.4 C 101.4 104.4 101.4 104 101.4 104 C 101.4 103 101 102.1 99.2 102.1 C 97.5 102.1 97.1 102.9 96.9 103.7 C 96.91 103.68 96.9 103.7 96.9 103.7 L 95.7 103.7 C 95.7 103.7 95.7 103.68 95.7 103.7 C 95.8 102.6 96.5 101.1 99.2 101.1 C 101.9 101.1 102.6 102.5 102.6 103.8 C 102.6 103.8 102.6 107.5 102.6 107.5 Z M 101.4 105.4 C 101.2 105.4 100.6 105.4 99.4 105.4 C 97.4 105.4 96.4 105.8 96.4 107 C 96.4 107 96.4 107 96.4 107 C 96.4 107.9 97.1 108.6 98.5 108.6 C 100.9 108.6 101.4 107.2 101.4 105.8 C 101.4 105.8 101.4 105.4 101.4 105.4 Z M 112.6 107.1 C 112.6 107.8 112.6 108.6 112.6 109.4 C 112.6 109.4 111.5 109.4 111.5 109.4 C 111.4 109.2 111.4 108.5 111.4 107.9 C 111 108.9 110.3 109.6 108.5 109.6 C 106.8 109.6 105.4 108.7 105.4 106.4 C 105.45 106.37 105.4 101.4 105.4 101.4 L 106.7 101.4 C 106.7 101.4 106.65 106.13 106.7 106.1 C 106.7 107.4 107.2 108.5 108.7 108.5 C 110.6 108.5 111.4 107.5 111.4 105 C 111.42 104.97 111.4 101.4 111.4 101.4 L 112.6 101.4 C 112.6 101.4 112.63 107.05 112.6 107.1 Z M 115.9 101.4 C 116.5 102.8 118.6 107.4 118.9 108.2 C 118.9 108.2 118.9 108.2 118.9 108.2 C 119.1 107.6 119.6 106.3 121.8 101.4 C 121.83 101.35 123.1 101.4 123.1 101.4 L 119.5 109.4 L 118.2 109.4 L 114.6 101.4 C 114.6 101.4 115.89 101.35 115.9 101.4 Z M 131.5 107.5 C 131.5 108.2 131.5 109.2 131.6 109.4 C 131.6 109.4 130.4 109.4 130.4 109.4 C 130.4 109.1 130.3 108.4 130.3 108.1 C 129.9 109 129 109.6 127.2 109.6 C 124.9 109.6 124.1 108.2 124.1 107.1 C 124.1 107.1 124.1 107.1 124.1 107.1 C 124.1 105 126 104.4 128.3 104.4 C 129.3 104.4 130 104.4 130.3 104.4 C 130.3 104.4 130.3 104 130.3 104 C 130.3 103 129.9 102.1 128 102.1 C 126.4 102.1 126 102.9 125.8 103.7 C 125.79 103.68 125.8 103.7 125.8 103.7 L 124.6 103.7 C 124.6 103.7 124.58 103.68 124.6 103.7 C 124.7 102.6 125.4 101.1 128 101.1 C 130.8 101.1 131.5 102.5 131.5 103.8 C 131.5 103.8 131.5 107.5 131.5 107.5 Z M 130.3 105.4 C 130 105.4 129.5 105.4 128.3 105.4 C 126.3 105.4 125.3 105.8 125.3 107 C 125.3 107 125.3 107 125.3 107 C 125.3 107.9 126 108.6 127.4 108.6 C 129.8 108.6 130.3 107.2 130.3 105.8 C 130.3 105.8 130.3 105.4 130.3 105.4 Z M 142 108.3 C 142 111.4 141.1 113.2 137.8 113.2 C 134.7 113.2 134.1 111.4 133.9 110.5 C 133.91 110.46 133.9 110.5 133.9 110.5 L 135.1 110.5 C 135.1 110.5 135.15 110.46 135.1 110.5 C 135.4 111.4 136 112.2 137.8 112.2 C 140.4 112.2 140.8 110.5 140.8 108.4 C 140.8 108.4 140.8 107.9 140.8 107.9 C 140.3 108.9 139.4 109.5 137.6 109.5 C 135.4 109.5 133.8 107.8 133.8 105.5 C 133.8 105.5 133.8 105.5 133.8 105.5 C 133.8 102.9 135.7 101.1 137.8 101.1 C 139.7 101.1 140.5 102 140.8 102.7 C 140.8 102.3 140.8 101.6 140.8 101.4 C 140.8 101.4 142 101.4 142 101.4 C 142 102.1 142 102.9 142 103.7 C 142 103.7 142 108.3 142 108.3 Z M 135.1 105.4 C 135.1 105.4 135.1 105.4 135.1 105.4 C 135.1 107.2 136.3 108.5 137.9 108.5 C 139.7 108.5 140.8 107.4 140.8 105.3 C 140.8 105.3 140.8 105.3 140.8 105.3 C 140.8 103.3 139.8 102.2 138 102.2 C 136 102.2 135.1 103.8 135.1 105.4 Z M 145.6 105.6 C 145.6 105.6 145.57 105.65 145.6 105.6 C 145.7 107.4 146.8 108.6 148.6 108.6 C 149.9 108.6 150.7 108 151.1 107.2 C 151.14 107.16 151.1 107.2 151.1 107.2 L 152.4 107.2 C 152.4 107.2 152.35 107.16 152.4 107.2 C 151.9 108.3 150.8 109.6 148.5 109.6 C 145.7 109.6 144.4 107.5 144.4 105.4 C 144.4 105.4 144.4 105.4 144.4 105.4 C 144.4 102.9 146 101.1 148.4 101.1 C 151.5 101.1 152.5 103.4 152.5 105.3 C 152.5 105.4 152.5 105.5 152.5 105.6 C 152.47 105.65 145.6 105.6 145.6 105.6 Z M 151.2 104.7 C 151.2 104.7 151.2 104.72 151.2 104.7 C 151.1 103.7 150.6 102.1 148.4 102.1 C 146.7 102.1 145.8 103.2 145.6 104.7 C 145.61 104.72 145.6 104.7 145.6 104.7 L 151.2 104.7 Z M 155.4 107 C 155.4 107 155.4 106.97 155.4 107 C 155.7 108 156.6 108.6 158.2 108.6 C 159.9 108.6 160.5 108 160.5 107.2 C 160.5 106.5 160.1 106 157.9 105.7 C 155.1 105.4 154.6 104.4 154.6 103.4 C 154.6 102.4 155.4 101.1 157.9 101.1 C 160.6 101.1 161.4 102.6 161.4 103.5 C 161.44 103.5 161.4 103.5 161.4 103.5 L 160.2 103.5 C 160.2 103.5 160.21 103.5 160.2 103.5 C 160.1 103 159.7 102.1 157.8 102.1 C 156.1 102.1 155.8 102.8 155.8 103.3 C 155.8 104 156.2 104.4 158.1 104.7 C 161.1 105 161.7 105.9 161.7 107.1 C 161.7 108.6 160.6 109.6 158.1 109.6 C 155.7 109.6 154.5 108.6 154.2 107 C 154.17 106.97 154.2 107 154.2 107 L 155.4 107 Z M 164.1 109.4 L 164.1 107 L 165.4 107 L 165.4 109.4 L 164.1 109.4 Z M 185.2 106.1 C 185.2 106.1 185.23 106.14 185.2 106.1 C 184.5 108.1 183.2 109.6 180 109.6 C 176.3 109.6 174.2 107 174.2 103.7 C 174.2 103.7 174.2 103.7 174.2 103.7 C 174.2 100.4 176.5 97.8 180.1 97.8 C 183.3 97.8 184.8 99.5 185.3 101.3 C 185.27 101.35 185.3 101.3 185.3 101.3 L 183.9 101.3 C 183.9 101.3 183.94 101.35 183.9 101.3 C 183.4 100 182.4 98.9 180 98.9 C 177.3 98.9 175.6 100.9 175.6 103.7 C 175.6 103.7 175.6 103.7 175.6 103.7 C 175.6 106.4 177.3 108.5 180.1 108.5 C 182.4 108.5 183.3 107.5 183.9 106.1 C 183.93 106.14 183.9 106.1 183.9 106.1 L 185.2 106.1 Z M 195.6 105.4 C 195.6 105.4 195.6 105.4 195.6 105.4 C 195.6 107.5 194.2 109.6 191.4 109.6 C 188.7 109.6 187.2 107.6 187.2 105.4 C 187.2 105.4 187.2 105.4 187.2 105.4 C 187.2 103.1 188.8 101.1 191.5 101.1 C 194.1 101.1 195.6 103.2 195.6 105.4 Z M 188.5 105.4 C 188.5 105.4 188.5 105.4 188.5 105.4 C 188.5 107 189.5 108.6 191.4 108.6 C 193.4 108.6 194.4 107.1 194.4 105.4 C 194.4 105.4 194.4 105.4 194.4 105.4 C 194.4 103.7 193.3 102.2 191.4 102.2 C 189.4 102.2 188.5 103.7 188.5 105.4 Z M 198 103.4 C 198 102.7 198 102 198 101.4 C 198 101.4 199.1 101.4 199.1 101.4 C 199.2 101.7 199.2 102.2 199.2 102.6 C 199.6 101.9 200.4 101.1 201.8 101.1 C 203.1 101.1 204 101.8 204.3 102.7 C 204.7 102 205.5 101.1 207.1 101.1 C 208.7 101.1 209.9 102 209.9 104.4 C 209.94 104.39 209.9 109.4 209.9 109.4 L 208.7 109.4 C 208.7 109.4 208.74 104.45 208.7 104.4 C 208.7 103.4 208.4 102.2 206.9 102.2 C 205.5 102.2 204.6 103.1 204.6 105 C 204.57 105 204.6 109.4 204.6 109.4 L 203.4 109.4 C 203.4 109.4 203.36 104.36 203.4 104.4 C 203.4 103.4 203 102.2 201.5 102.2 C 199.8 102.2 199.2 103.5 199.2 105.1 C 199.19 105.14 199.2 109.4 199.2 109.4 L 198 109.4 C 198 109.4 197.99 103.43 198 103.4 Z M 212.8 103.4 C 212.8 102.7 212.8 102 212.8 101.4 C 212.8 101.4 214 101.4 214 101.4 C 214 101.7 214 102.2 214 102.6 C 214.4 101.9 215.2 101.1 216.7 101.1 C 218 101.1 218.8 101.8 219.2 102.7 C 219.6 102 220.4 101.1 221.9 101.1 C 223.5 101.1 224.8 102 224.8 104.4 C 224.79 104.39 224.8 109.4 224.8 109.4 L 223.6 109.4 C 223.6 109.4 223.59 104.45 223.6 104.4 C 223.6 103.4 223.3 102.2 221.7 102.2 C 220.3 102.2 219.4 103.1 219.4 105 C 219.42 105 219.4 109.4 219.4 109.4 L 218.2 109.4 C 218.2 109.4 218.22 104.36 218.2 104.4 C 218.2 103.4 217.9 102.2 216.3 102.2 C 214.7 102.2 214 103.5 214 105.1 C 214.04 105.14 214 109.4 214 109.4 L 212.8 109.4 C 212.8 109.4 212.84 103.43 212.8 103.4 Z M 228.4 105.6 C 228.4 105.6 228.4 105.65 228.4 105.6 C 228.5 107.4 229.6 108.6 231.4 108.6 C 232.7 108.6 233.5 108 234 107.2 C 233.97 107.16 234 107.2 234 107.2 L 235.2 107.2 C 235.2 107.2 235.17 107.16 235.2 107.2 C 234.8 108.3 233.6 109.6 231.3 109.6 C 228.5 109.6 227.2 107.5 227.2 105.4 C 227.2 105.4 227.2 105.4 227.2 105.4 C 227.2 102.9 228.8 101.1 231.2 101.1 C 234.3 101.1 235.3 103.4 235.3 105.3 C 235.3 105.4 235.3 105.5 235.3 105.6 C 235.3 105.65 228.4 105.6 228.4 105.6 Z M 234 104.7 C 234 104.7 234.02 104.72 234 104.7 C 233.9 103.7 233.4 102.1 231.2 102.1 C 229.5 102.1 228.6 103.2 228.4 104.7 C 228.43 104.72 228.4 104.7 228.4 104.7 L 234 104.7 Z M 244.7 107 C 244.7 107 244.67 106.97 244.7 107 C 245 108 245.9 108.6 247.4 108.6 C 249.1 108.6 249.7 108 249.7 107.2 C 249.7 106.5 249.3 106 247.2 105.7 C 244.4 105.4 243.8 104.4 243.8 103.4 C 243.8 102.4 244.6 101.1 247.1 101.1 C 249.9 101.1 250.6 102.6 250.7 103.5 C 250.71 103.5 250.7 103.5 250.7 103.5 L 249.5 103.5 C 249.5 103.5 249.48 103.5 249.5 103.5 C 249.4 103 249 102.1 247.1 102.1 C 245.4 102.1 245.1 102.8 245.1 103.3 C 245.1 104 245.5 104.4 247.4 104.7 C 250.4 105 251 105.9 251 107.1 C 251 108.6 249.9 109.6 247.4 109.6 C 245 109.6 243.7 108.6 243.4 107 C 243.44 106.97 243.4 107 243.4 107 L 244.7 107 Z M 261.2 105.4 C 261.2 105.4 261.2 105.4 261.2 105.4 C 261.2 107.5 259.8 109.6 256.9 109.6 C 254.3 109.6 252.8 107.6 252.8 105.4 C 252.8 105.4 252.8 105.4 252.8 105.4 C 252.8 103.1 254.4 101.1 257 101.1 C 259.7 101.1 261.2 103.2 261.2 105.4 Z M 254 105.4 C 254 105.4 254 105.4 254 105.4 C 254 107 255.1 108.6 257 108.6 C 259 108.6 259.9 107.1 259.9 105.4 C 259.9 105.4 259.9 105.4 259.9 105.4 C 259.9 103.7 258.8 102.2 256.9 102.2 C 255 102.2 254 103.7 254 105.4 Z M 270.7 107.1 C 270.7 107.8 270.7 108.6 270.7 109.4 C 270.7 109.4 269.5 109.4 269.5 109.4 C 269.5 109.2 269.5 108.5 269.5 107.9 C 269.1 108.9 268.3 109.6 266.5 109.6 C 264.8 109.6 263.5 108.7 263.5 106.4 C 263.51 106.37 263.5 101.4 263.5 101.4 L 264.7 101.4 C 264.7 101.4 264.72 106.13 264.7 106.1 C 264.7 107.4 265.2 108.5 266.8 108.5 C 268.7 108.5 269.5 107.5 269.5 105 C 269.48 104.97 269.5 101.4 269.5 101.4 L 270.7 101.4 C 270.7 101.4 270.69 107.05 270.7 107.1 Z M 273.9 101.4 C 274.6 102.8 276.6 107.4 276.9 108.2 C 276.9 108.2 277 108.2 277 108.2 C 277.2 107.6 277.7 106.3 279.9 101.4 C 279.89 101.35 281.1 101.4 281.1 101.4 L 277.6 109.4 L 276.3 109.4 L 272.6 101.4 C 272.6 101.4 273.95 101.35 273.9 101.4 Z M 283.4 105.6 C 283.4 105.6 283.39 105.65 283.4 105.6 C 283.5 107.4 284.6 108.6 286.4 108.6 C 287.7 108.6 288.5 108 289 107.2 C 288.96 107.16 289 107.2 289 107.2 L 290.2 107.2 C 290.2 107.2 290.17 107.16 290.2 107.2 C 289.7 108.3 288.6 109.6 286.3 109.6 C 283.5 109.6 282.2 107.5 282.2 105.4 C 282.2 105.4 282.2 105.4 282.2 105.4 C 282.2 102.9 283.8 101.1 286.2 101.1 C 289.3 101.1 290.3 103.4 290.3 105.3 C 290.3 105.4 290.3 105.5 290.3 105.6 C 290.29 105.65 283.4 105.6 283.4 105.6 Z M 289 104.7 C 289 104.7 289.01 104.72 289 104.7 C 288.9 103.7 288.4 102.1 286.2 102.1 C 284.5 102.1 283.6 103.2 283.4 104.7 C 283.42 104.72 283.4 104.7 283.4 104.7 L 289 104.7 Z M 292.6 103.4 C 292.6 102.7 292.6 102 292.6 101.4 C 292.6 101.4 293.8 101.4 293.8 101.4 C 293.8 101.6 293.8 102.4 293.9 103 C 294.2 102.1 295.1 101.1 296.8 101.1 C 298.7 101.1 299.9 102.3 299.9 104.5 C 299.94 104.52 299.9 109.4 299.9 109.4 L 298.7 109.4 C 298.7 109.4 298.72 104.75 298.7 104.8 C 298.7 103.3 298.2 102.2 296.6 102.2 C 294.8 102.2 293.9 103.6 293.9 105.6 C 293.85 105.59 293.9 109.4 293.9 109.4 L 292.6 109.4 C 292.6 109.4 292.64 103.38 292.6 103.4 Z M 301.7 101.4 L 303.3 101.4 L 303.3 98.7 L 304.5 98.7 L 304.5 101.4 L 306.7 101.4 L 306.7 102.4 L 304.5 102.4 C 304.5 102.4 304.52 107.06 304.5 107.1 C 304.5 108 304.8 108.5 305.7 108.5 C 305.9 108.5 306.3 108.5 306.5 108.4 C 306.5 108.4 306.5 109.3 306.5 109.3 C 306.2 109.5 305.8 109.5 305.4 109.5 C 303.8 109.5 303.3 108.8 303.3 107.2 C 303.31 107.18 303.3 102.4 303.3 102.4 L 301.7 102.4 L 301.7 101.4 Z M 307.7 111.7 C 308.6 109.8 308.9 108.4 309 107 C 309 107 310.3 107 310.3 107 C 310.2 108.2 309.6 110.3 308.8 111.7 C 308.8 111.7 307.7 111.7 307.7 111.7 Z M 319.6 109.4 L 319.6 97.3 L 320.8 97.3 L 320.8 109.4 L 319.6 109.4 Z M 330.5 107.5 C 330.5 108.2 330.6 109.2 330.6 109.4 C 330.6 109.4 329.4 109.4 329.4 109.4 C 329.4 109.1 329.4 108.4 329.4 108.1 C 328.9 109 328 109.6 326.3 109.6 C 324 109.6 323.1 108.2 323.1 107.1 C 323.1 107.1 323.1 107.1 323.1 107.1 C 323.1 105 325 104.4 327.3 104.4 C 328.4 104.4 329.1 104.4 329.3 104.4 C 329.3 104.4 329.3 104 329.3 104 C 329.3 103 328.9 102.1 327.1 102.1 C 325.4 102.1 325 102.9 324.8 103.7 C 324.82 103.68 324.8 103.7 324.8 103.7 L 323.6 103.7 C 323.6 103.7 323.61 103.68 323.6 103.7 C 323.7 102.6 324.4 101.1 327.1 101.1 C 329.8 101.1 330.5 102.5 330.5 103.8 C 330.5 103.8 330.5 107.5 330.5 107.5 Z M 329.3 105.4 C 329.1 105.4 328.5 105.4 327.3 105.4 C 325.3 105.4 324.4 105.8 324.4 107 C 324.4 107 324.4 107 324.4 107 C 324.4 107.9 325 108.6 326.4 108.6 C 328.8 108.6 329.3 107.2 329.3 105.8 C 329.3 105.8 329.3 105.4 329.3 105.4 Z M 340.2 103.4 C 340.2 102.7 340.2 102 340.2 101.4 C 340.2 101.4 341.3 101.4 341.3 101.4 C 341.4 101.7 341.4 102.2 341.4 102.6 C 341.8 101.9 342.6 101.1 344 101.1 C 345.3 101.1 346.1 101.8 346.5 102.7 C 346.9 102 347.7 101.1 349.3 101.1 C 350.8 101.1 352.1 102 352.1 104.4 C 352.12 104.39 352.1 109.4 352.1 109.4 L 350.9 109.4 C 350.9 109.4 350.92 104.45 350.9 104.4 C 350.9 103.4 350.6 102.2 349.1 102.2 C 347.7 102.2 346.7 103.1 346.7 105 C 346.75 105 346.7 109.4 346.7 109.4 L 345.5 109.4 C 345.5 109.4 345.54 104.36 345.5 104.4 C 345.5 103.4 345.2 102.2 343.7 102.2 C 342 102.2 341.4 103.5 341.4 105.1 C 341.37 105.14 341.4 109.4 341.4 109.4 L 340.2 109.4 C 340.2 109.4 340.17 103.43 340.2 103.4 Z M 355.7 105.6 C 355.7 105.6 355.72 105.65 355.7 105.6 C 355.8 107.4 357 108.6 358.7 108.6 C 360.1 108.6 360.8 108 361.3 107.2 C 361.29 107.16 361.3 107.2 361.3 107.2 L 362.5 107.2 C 362.5 107.2 362.5 107.16 362.5 107.2 C 362.1 108.3 361 109.6 358.6 109.6 C 355.9 109.6 354.5 107.5 354.5 105.4 C 354.5 105.4 354.5 105.4 354.5 105.4 C 354.5 102.9 356.2 101.1 358.6 101.1 C 361.6 101.1 362.6 103.4 362.6 105.3 C 362.6 105.4 362.6 105.5 362.6 105.6 C 362.62 105.65 355.7 105.6 355.7 105.6 Z M 361.3 104.7 C 361.3 104.7 361.35 104.72 361.3 104.7 C 361.3 103.7 360.7 102.1 358.6 102.1 C 356.8 102.1 355.9 103.2 355.8 104.7 C 355.76 104.72 355.8 104.7 355.8 104.7 L 361.3 104.7 Z M 359.2 97.2 L 361.2 99.8 L 360 99.8 L 358.5 97.9 L 357 99.8 L 355.8 99.8 L 357.9 97.2 L 359.2 97.2 Z M 365 103.4 C 365 102.7 365 102 365 101.4 C 365 101.4 366.1 101.4 366.1 101.4 C 366.2 101.7 366.2 102.2 366.2 102.6 C 366.6 101.9 367.4 101.1 368.8 101.1 C 370.1 101.1 370.9 101.8 371.3 102.7 C 371.7 102 372.5 101.1 374.1 101.1 C 375.6 101.1 376.9 102 376.9 104.4 C 376.93 104.39 376.9 109.4 376.9 109.4 L 375.7 109.4 C 375.7 109.4 375.73 104.45 375.7 104.4 C 375.7 103.4 375.4 102.2 373.9 102.2 C 372.5 102.2 371.6 103.1 371.6 105 C 371.56 105 371.6 109.4 371.6 109.4 L 370.4 109.4 C 370.4 109.4 370.35 104.36 370.4 104.4 C 370.4 103.4 370 102.2 368.5 102.2 C 366.8 102.2 366.2 103.5 366.2 105.1 C 366.18 105.14 366.2 109.4 366.2 109.4 L 365 109.4 C 365 109.4 364.98 103.43 365 103.4 Z M 380.5 105.6 C 380.5 105.6 380.53 105.65 380.5 105.6 C 380.6 107.4 381.8 108.6 383.5 108.6 C 384.9 108.6 385.6 108 386.1 107.2 C 386.1 107.16 386.1 107.2 386.1 107.2 L 387.3 107.2 C 387.3 107.2 387.31 107.16 387.3 107.2 C 386.9 108.3 385.8 109.6 383.4 109.6 C 380.7 109.6 379.3 107.5 379.3 105.4 C 379.3 105.4 379.3 105.4 379.3 105.4 C 379.3 102.9 381 101.1 383.4 101.1 C 386.4 101.1 387.4 103.4 387.4 105.3 C 387.4 105.4 387.4 105.5 387.4 105.6 C 387.43 105.65 380.5 105.6 380.5 105.6 Z M 386.2 104.7 C 386.2 104.7 386.15 104.72 386.2 104.7 C 386.1 103.7 385.5 102.1 383.4 102.1 C 381.6 102.1 380.7 103.2 380.6 104.7 C 380.57 104.72 380.6 104.7 380.6 104.7 L 386.2 104.7 Z M 403.1 107.5 C 403.1 108.2 403.2 109.2 403.2 109.4 C 403.2 109.4 402.1 109.4 402.1 109.4 C 402 109.1 402 108.4 402 108.1 C 401.6 109 400.6 109.6 398.9 109.6 C 396.6 109.6 395.8 108.2 395.8 107.1 C 395.8 107.1 395.8 107.1 395.8 107.1 C 395.8 105 397.6 104.4 399.9 104.4 C 401 104.4 401.7 104.4 402 104.4 C 402 104.4 402 104 402 104 C 402 103 401.6 102.1 399.7 102.1 C 398 102.1 397.6 102.9 397.4 103.7 C 397.44 103.68 397.4 103.7 397.4 103.7 L 396.2 103.7 C 396.2 103.7 396.23 103.68 396.2 103.7 C 396.3 102.6 397.1 101.1 399.7 101.1 C 402.5 101.1 403.1 102.5 403.1 103.8 C 403.1 103.8 403.1 107.5 403.1 107.5 Z M 402 105.4 C 401.7 105.4 401.2 105.4 400 105.4 C 397.9 105.4 397 105.8 397 107 C 397 107 397 107 397 107 C 397 107.9 397.6 108.6 399.1 108.6 C 401.4 108.6 402 107.2 402 105.8 C 402 105.8 402 105.4 402 105.4 Z M 406.5 109.4 L 406.5 102.4 L 405 102.4 L 405 101.4 L 406.5 101.4 C 406.5 101.4 406.52 100.15 406.5 100.1 C 406.5 98.4 407.3 97.2 409.1 97.2 C 409.5 97.2 409.8 97.2 410 97.3 C 410 97.3 410 98.4 410 98.4 C 409.8 98.3 409.4 98.3 409.2 98.3 C 408.1 98.3 407.7 98.8 407.7 100.3 C 407.73 100.25 407.7 101.4 407.7 101.4 L 409.7 101.4 L 409.7 102.4 L 407.7 102.4 L 407.7 109.4 L 406.5 109.4 Z M 412.5 109.4 L 412.5 102.4 L 411 102.4 L 411 101.4 L 412.5 101.4 C 412.5 101.4 412.51 100.15 412.5 100.1 C 412.5 98.4 413.2 97.2 415.1 97.2 C 415.5 97.2 415.8 97.2 416 97.3 C 416 97.3 416 98.4 416 98.4 C 415.8 98.3 415.4 98.3 415.2 98.3 C 414.1 98.3 413.7 98.8 413.7 100.3 C 413.72 100.25 413.7 101.4 413.7 101.4 L 415.7 101.4 L 415.7 102.4 L 413.7 102.4 L 413.7 109.4 L 412.5 109.4 Z M 417.7 101.4 L 418.9 101.4 L 418.9 109.4 L 417.7 109.4 L 417.7 101.4 Z M 417.7 97.3 L 418.9 97.3 L 418.9 99.1 L 417.7 99.1 L 417.7 97.3 Z M 429.3 106.9 C 429.3 106.9 429.28 106.94 429.3 106.9 C 428.9 108.4 427.6 109.6 425.4 109.6 C 422.6 109.6 421.3 107.7 421.3 105.4 C 421.3 105.4 421.3 105.4 421.3 105.4 C 421.3 103.1 422.8 101.1 425.5 101.1 C 428 101.1 429.1 102.7 429.3 103.9 C 429.27 103.87 429.3 103.9 429.3 103.9 L 428.1 103.9 C 428.1 103.9 428.06 103.87 428.1 103.9 C 427.7 103 427 102.2 425.4 102.2 C 423.6 102.2 422.5 103.5 422.5 105.4 C 422.5 105.4 422.5 105.4 422.5 105.4 C 422.5 107.2 423.6 108.6 425.4 108.6 C 426.9 108.6 427.6 107.9 428.1 106.9 C 428.07 106.94 428.1 106.9 428.1 106.9 L 429.3 106.9 Z M 432.8 97.3 C 432.8 97.3 432.78 102.93 432.8 102.9 C 433.1 102.3 433.8 101.1 435.8 101.1 C 437.6 101.1 438.9 102.3 438.9 104.5 C 438.87 104.53 438.9 109.4 438.9 109.4 L 437.7 109.4 C 437.7 109.4 437.66 104.74 437.7 104.7 C 437.7 103.3 437.1 102.2 435.5 102.2 C 433.7 102.2 432.8 103.7 432.8 105.4 C 432.79 105.42 432.8 109.4 432.8 109.4 L 431.6 109.4 L 431.6 97.3 L 432.8 97.3 Z M 442.4 105.6 C 442.4 105.6 442.43 105.65 442.4 105.6 C 442.5 107.4 443.7 108.6 445.4 108.6 C 446.8 108.6 447.5 108 448 107.2 C 448 107.16 448 107.2 448 107.2 L 449.2 107.2 C 449.2 107.2 449.21 107.16 449.2 107.2 C 448.8 108.3 447.7 109.6 445.3 109.6 C 442.6 109.6 441.2 107.5 441.2 105.4 C 441.2 105.4 441.2 105.4 441.2 105.4 C 441.2 102.9 442.9 101.1 445.3 101.1 C 448.3 101.1 449.3 103.4 449.3 105.3 C 449.3 105.4 449.3 105.5 449.3 105.6 C 449.33 105.65 442.4 105.6 442.4 105.6 Z M 448.1 104.7 C 448.1 104.7 448.05 104.72 448.1 104.7 C 448 103.7 447.4 102.1 445.3 102.1 C 443.5 102.1 442.6 103.2 442.5 104.7 C 442.46 104.72 442.5 104.7 442.5 104.7 L 448.1 104.7 Z " stroke="none" fill="#141414"/>  </g>  <g id="Polygon10472">    <path d="M 9.9 79.6 L 2.9 79.6 L 2.9 84 L 10.6 84 L 10.4 85.1 L 1.6 85.1 L 1.6 73.7 L 10.3 73.7 L 10.3 74.8 L 2.9 74.8 L 2.9 78.5 L 9.9 78.5 L 9.9 79.6 Z M 12.8 79.1 C 12.8 78.4 12.8 77.6 12.8 77 C 12.8 77 14 77 14 77 C 14 77.3 14 78 14 78.7 C 14.4 77.8 15.2 76.8 17 76.8 C 18.9 76.8 20.1 78 20.1 80.2 C 20.12 80.2 20.1 85.1 20.1 85.1 L 18.9 85.1 C 18.9 85.1 18.91 80.43 18.9 80.4 C 18.9 79 18.4 77.9 16.8 77.9 C 14.9 77.9 14 79.3 14 81.3 C 14.03 81.27 14 85.1 14 85.1 L 12.8 85.1 C 12.8 85.1 12.82 79.06 12.8 79.1 Z M 36 73 C 36 73 36.02 78.61 36 78.6 C 36.3 78 37.1 76.8 39.1 76.8 C 40.9 76.8 42.1 77.9 42.1 80.2 C 42.11 80.21 42.1 85.1 42.1 85.1 L 40.9 85.1 C 40.9 85.1 40.9 80.42 40.9 80.4 C 40.9 79 40.4 77.9 38.7 77.9 C 36.9 77.9 36 79.4 36 81.1 C 36.03 81.1 36 85.1 36 85.1 L 34.8 85.1 L 34.8 73 L 36 73 Z M 51.8 83.2 C 51.8 83.9 51.9 84.9 51.9 85.1 C 51.9 85.1 50.8 85.1 50.8 85.1 C 50.7 84.8 50.7 84.1 50.7 83.8 C 50.3 84.7 49.3 85.3 47.6 85.3 C 45.3 85.3 44.5 83.9 44.5 82.7 C 44.5 82.7 44.5 82.7 44.5 82.7 C 44.5 80.7 46.3 80.1 48.6 80.1 C 49.7 80.1 50.4 80.1 50.7 80.1 C 50.7 80.1 50.7 79.6 50.7 79.6 C 50.7 78.7 50.3 77.8 48.4 77.8 C 46.7 77.8 46.3 78.5 46.1 79.4 C 46.14 79.36 46.1 79.4 46.1 79.4 L 44.9 79.4 C 44.9 79.4 44.93 79.36 44.9 79.4 C 45 78.3 45.8 76.8 48.4 76.8 C 51.2 76.8 51.8 78.2 51.8 79.5 C 51.8 79.5 51.8 83.2 51.8 83.2 Z M 50.7 81 C 50.4 81 49.9 81 48.7 81 C 46.6 81 45.7 81.5 45.7 82.7 C 45.7 82.7 45.7 82.7 45.7 82.7 C 45.7 83.6 46.3 84.3 47.8 84.3 C 50.1 84.3 50.7 82.9 50.7 81.5 C 50.7 81.5 50.7 81 50.7 81 Z M 61.9 82.7 C 61.9 83.5 61.9 84.3 61.9 85.1 C 61.9 85.1 60.7 85.1 60.7 85.1 C 60.7 84.9 60.7 84.2 60.7 83.6 C 60.3 84.6 59.5 85.3 57.7 85.3 C 56 85.3 54.7 84.4 54.7 82 C 54.68 82.05 54.7 77 54.7 77 L 55.9 77 C 55.9 77 55.89 81.81 55.9 81.8 C 55.9 83.1 56.4 84.2 58 84.2 C 59.8 84.2 60.7 83.1 60.7 80.6 C 60.65 80.65 60.7 77 60.7 77 L 61.9 77 C 61.9 77 61.86 82.73 61.9 82.7 Z M 63.8 77 L 65.5 77 L 65.5 74.4 L 66.7 74.4 L 66.7 77 L 68.8 77 L 68.8 78 L 66.7 78 C 66.7 78 66.66 82.74 66.7 82.7 C 66.7 83.7 66.9 84.2 67.8 84.2 C 68.1 84.2 68.4 84.2 68.7 84.1 C 68.7 84.1 68.7 85 68.7 85 C 68.3 85.1 67.9 85.2 67.5 85.2 C 65.9 85.2 65.5 84.4 65.5 82.9 C 65.45 82.86 65.5 78 65.5 78 L 63.8 78 L 63.8 77 Z M 90.1 73 C 90.1 73 90.12 82.72 90.1 82.7 C 90.1 83.5 90.1 84.3 90.1 85.1 C 90.1 85.1 89 85.1 89 85.1 C 88.9 84.7 88.9 84.2 88.9 83.8 C 88.5 84.5 87.8 85.3 85.9 85.3 C 83.5 85.3 82 83.5 82 81.1 C 82 81.1 82 81.1 82 81.1 C 82 78.5 83.9 76.8 86 76.8 C 88 76.8 88.7 77.8 88.9 78.2 C 88.91 78.17 88.9 73 88.9 73 L 90.1 73 Z M 83.2 81.1 C 83.2 81.1 83.2 81.1 83.2 81.1 C 83.2 82.6 84.2 84.3 86.1 84.3 C 88.2 84.3 89 82.9 89 81 C 89 81 89 81 89 81 C 89 79.1 88.3 77.9 86.1 77.9 C 84.2 77.9 83.2 79.5 83.2 81.1 Z M 93.7 81.3 C 93.7 81.3 93.72 81.33 93.7 81.3 C 93.8 83 94.9 84.3 96.7 84.3 C 98 84.3 98.8 83.7 99.3 82.8 C 99.29 82.84 99.3 82.8 99.3 82.8 L 100.5 82.8 C 100.5 82.8 100.5 82.84 100.5 82.8 C 100.1 84 99 85.3 96.6 85.3 C 93.8 85.3 92.5 83.2 92.5 81.1 C 92.5 81.1 92.5 81.1 92.5 81.1 C 92.5 78.6 94.1 76.8 96.6 76.8 C 99.6 76.8 100.6 79.1 100.6 81 C 100.6 81.1 100.6 81.2 100.6 81.3 C 100.62 81.33 93.7 81.3 93.7 81.3 Z M 99.3 80.4 C 99.3 80.4 99.34 80.4 99.3 80.4 C 99.3 79.3 98.7 77.8 96.6 77.8 C 94.8 77.8 93.9 78.9 93.7 80.4 C 93.75 80.4 93.7 80.4 93.7 80.4 L 99.3 80.4 Z M 103.5 82.7 C 103.5 82.7 103.54 82.65 103.5 82.7 C 103.9 83.7 104.8 84.3 106.3 84.3 C 108 84.3 108.6 83.7 108.6 82.9 C 108.6 82.2 108.2 81.6 106 81.4 C 103.3 81.1 102.7 80.1 102.7 79.1 C 102.7 78.1 103.5 76.8 106 76.8 C 108.8 76.8 109.5 78.3 109.6 79.2 C 109.59 79.18 109.6 79.2 109.6 79.2 L 108.4 79.2 C 108.4 79.2 108.36 79.18 108.4 79.2 C 108.2 78.7 107.9 77.8 105.9 77.8 C 104.3 77.8 103.9 78.5 103.9 79 C 103.9 79.7 104.3 80.1 106.3 80.3 C 109.2 80.7 109.8 81.6 109.8 82.8 C 109.8 84.3 108.7 85.3 106.2 85.3 C 103.9 85.3 102.6 84.3 102.3 82.7 C 102.31 82.65 102.3 82.7 102.3 82.7 L 103.5 82.7 Z M 123.9 79.1 C 123.9 78.4 123.9 77.7 123.9 77 C 123.9 77 125.1 77 125.1 77 C 125.1 77.4 125.1 77.8 125.1 78.3 C 125.5 77.6 126.3 76.8 127.8 76.8 C 129.1 76.8 129.9 77.4 130.3 78.4 C 130.7 77.7 131.4 76.8 133 76.8 C 134.6 76.8 135.9 77.7 135.9 80.1 C 135.88 80.07 135.9 85.1 135.9 85.1 L 134.7 85.1 C 134.7 85.1 134.68 80.13 134.7 80.1 C 134.7 79.1 134.4 77.9 132.8 77.9 C 131.4 77.9 130.5 78.8 130.5 80.7 C 130.51 80.68 130.5 85.1 130.5 85.1 L 129.3 85.1 C 129.3 85.1 129.31 80.04 129.3 80 C 129.3 79 129 77.9 127.4 77.9 C 125.8 77.9 125.1 79.2 125.1 80.8 C 125.14 80.82 125.1 85.1 125.1 85.1 L 123.9 85.1 C 123.9 85.1 123.93 79.11 123.9 79.1 Z M 145.6 83.2 C 145.6 83.9 145.7 84.9 145.7 85.1 C 145.7 85.1 144.6 85.1 144.6 85.1 C 144.5 84.8 144.5 84.1 144.5 83.8 C 144 84.7 143.1 85.3 141.4 85.3 C 139.1 85.3 138.3 83.9 138.3 82.7 C 138.3 82.7 138.3 82.7 138.3 82.7 C 138.3 80.7 140.1 80.1 142.4 80.1 C 143.5 80.1 144.2 80.1 144.5 80.1 C 144.5 80.1 144.5 79.6 144.5 79.6 C 144.5 78.7 144 77.8 142.2 77.8 C 140.5 77.8 140.1 78.5 139.9 79.4 C 139.93 79.36 139.9 79.4 139.9 79.4 L 138.7 79.4 C 138.7 79.4 138.72 79.36 138.7 79.4 C 138.8 78.3 139.5 76.8 142.2 76.8 C 144.9 76.8 145.6 78.2 145.6 79.5 C 145.6 79.5 145.6 83.2 145.6 83.2 Z M 144.5 81 C 144.2 81 143.6 81 142.4 81 C 140.4 81 139.5 81.5 139.5 82.7 C 139.5 82.7 139.5 82.7 139.5 82.7 C 139.5 83.6 140.1 84.3 141.6 84.3 C 143.9 84.3 144.5 82.9 144.5 81.5 C 144.5 81.5 144.5 81 144.5 81 Z M 148.5 79.2 C 148.5 78.5 148.5 77.8 148.5 77 C 148.5 77 149.7 77 149.7 77 C 149.7 77.3 149.8 78.1 149.8 78.9 C 150.3 77.6 151.5 76.8 153.1 76.8 C 153.1 76.8 153.1 78 153.1 78 C 151.2 78 149.8 79.2 149.8 81.6 C 149.75 81.6 149.8 85.1 149.8 85.1 L 148.5 85.1 C 148.5 85.1 148.54 79.22 148.5 79.2 Z M 162.2 82.6 C 162.2 82.6 162.23 82.62 162.2 82.6 C 161.8 84.1 160.6 85.3 158.4 85.3 C 155.6 85.3 154.2 83.4 154.2 81.1 C 154.2 81.1 154.2 81.1 154.2 81.1 C 154.2 78.8 155.8 76.8 158.4 76.8 C 161 76.8 162 78.4 162.2 79.5 C 162.22 79.55 162.2 79.5 162.2 79.5 L 161 79.5 C 161 79.5 161.01 79.55 161 79.5 C 160.7 78.7 160 77.8 158.4 77.8 C 156.6 77.8 155.4 79.2 155.4 81.1 C 155.4 81.1 155.4 81.1 155.4 81.1 C 155.4 82.9 156.5 84.3 158.4 84.3 C 159.8 84.3 160.6 83.6 161 82.6 C 161.02 82.62 161 82.6 161 82.6 L 162.2 82.6 Z M 165.7 73 C 165.7 73 165.73 78.61 165.7 78.6 C 166 78 166.8 76.8 168.8 76.8 C 170.6 76.8 171.8 77.9 171.8 80.2 C 171.82 80.21 171.8 85.1 171.8 85.1 L 170.6 85.1 C 170.6 85.1 170.6 80.42 170.6 80.4 C 170.6 79 170.1 77.9 168.4 77.9 C 166.6 77.9 165.7 79.4 165.7 81.1 C 165.73 81.1 165.7 85.1 165.7 85.1 L 164.5 85.1 L 164.5 73 L 165.7 73 Z M 175.4 81.3 C 175.4 81.3 175.38 81.33 175.4 81.3 C 175.5 83 176.6 84.3 178.4 84.3 C 179.7 84.3 180.5 83.7 180.9 82.8 C 180.95 82.84 180.9 82.8 180.9 82.8 L 182.2 82.8 C 182.2 82.8 182.16 82.84 182.2 82.8 C 181.7 84 180.6 85.3 178.3 85.3 C 175.5 85.3 174.2 83.2 174.2 81.1 C 174.2 81.1 174.2 81.1 174.2 81.1 C 174.2 78.6 175.8 76.8 178.2 76.8 C 181.3 76.8 182.3 79.1 182.3 81 C 182.3 81.1 182.3 81.2 182.3 81.3 C 182.28 81.33 175.4 81.3 175.4 81.3 Z M 181 80.4 C 181 80.4 181 80.4 181 80.4 C 180.9 79.3 180.4 77.8 178.2 77.8 C 176.5 77.8 175.6 78.9 175.4 80.4 C 175.41 80.4 175.4 80.4 175.4 80.4 L 181 80.4 Z M 185.2 82.7 C 185.2 82.7 185.2 82.65 185.2 82.7 C 185.5 83.7 186.4 84.3 188 84.3 C 189.7 84.3 190.3 83.7 190.3 82.9 C 190.3 82.2 189.9 81.6 187.7 81.4 C 184.9 81.1 184.4 80.1 184.4 79.1 C 184.4 78.1 185.2 76.8 187.7 76.8 C 190.4 76.8 191.2 78.3 191.2 79.2 C 191.24 79.18 191.2 79.2 191.2 79.2 L 190 79.2 C 190 79.2 190.02 79.18 190 79.2 C 189.9 78.7 189.5 77.8 187.6 77.8 C 185.9 77.8 185.6 78.5 185.6 79 C 185.6 79.7 186 80.1 187.9 80.3 C 190.9 80.7 191.5 81.6 191.5 82.8 C 191.5 84.3 190.4 85.3 187.9 85.3 C 185.5 85.3 184.3 84.3 184 82.7 C 183.97 82.65 184 82.7 184 82.7 L 185.2 82.7 Z M 192.9 87.4 C 193.8 85.5 194.1 84.1 194.2 82.7 C 194.2 82.7 195.5 82.7 195.5 82.7 C 195.4 83.9 194.8 86 194 87.4 C 194 87.4 192.9 87.4 192.9 87.4 Z M 210.4 81.3 C 210.4 81.3 210.41 81.33 210.4 81.3 C 210.5 83 211.6 84.3 213.4 84.3 C 214.7 84.3 215.5 83.7 216 82.8 C 215.98 82.84 216 82.8 216 82.8 L 217.2 82.8 C 217.2 82.8 217.19 82.84 217.2 82.8 C 216.8 84 215.7 85.3 213.3 85.3 C 210.5 85.3 209.2 83.2 209.2 81.1 C 209.2 81.1 209.2 81.1 209.2 81.1 C 209.2 78.6 210.8 76.8 213.3 76.8 C 216.3 76.8 217.3 79.1 217.3 81 C 217.3 81.1 217.3 81.2 217.3 81.3 C 217.31 81.33 210.4 81.3 210.4 81.3 Z M 216 80.4 C 216 80.4 216.03 80.4 216 80.4 C 216 79.3 215.4 77.8 213.2 77.8 C 211.5 77.8 210.6 78.9 210.4 80.4 C 210.44 80.4 210.4 80.4 210.4 80.4 L 216 80.4 Z M 219.7 85.1 L 219.7 73 L 220.9 73 L 220.9 85.1 L 219.7 85.1 Z M 223.8 85.1 L 223.8 73 L 225 73 L 225 85.1 L 223.8 85.1 Z M 228.6 81.3 C 228.6 81.3 228.59 81.33 228.6 81.3 C 228.7 83 229.8 84.3 231.6 84.3 C 232.9 84.3 233.7 83.7 234.2 82.8 C 234.16 82.84 234.2 82.8 234.2 82.8 L 235.4 82.8 C 235.4 82.8 235.37 82.84 235.4 82.8 C 235 84 233.8 85.3 231.5 85.3 C 228.7 85.3 227.4 83.2 227.4 81.1 C 227.4 81.1 227.4 81.1 227.4 81.1 C 227.4 78.6 229 76.8 231.4 76.8 C 234.5 76.8 235.5 79.1 235.5 81 C 235.5 81.1 235.5 81.2 235.5 81.3 C 235.49 81.33 228.6 81.3 228.6 81.3 Z M 234.2 80.4 C 234.2 80.4 234.21 80.4 234.2 80.4 C 234.1 79.3 233.6 77.8 231.4 77.8 C 229.7 77.8 228.8 78.9 228.6 80.4 C 228.63 80.4 228.6 80.4 228.6 80.4 L 234.2 80.4 Z M 249.9 82.7 C 249.9 82.7 249.95 82.65 249.9 82.7 C 250.3 83.7 251.2 84.3 252.7 84.3 C 254.4 84.3 255 83.7 255 82.9 C 255 82.2 254.6 81.6 252.4 81.4 C 249.7 81.1 249.1 80.1 249.1 79.1 C 249.1 78.1 249.9 76.8 252.4 76.8 C 255.2 76.8 255.9 78.3 256 79.2 C 255.99 79.18 256 79.2 256 79.2 L 254.8 79.2 C 254.8 79.2 254.76 79.18 254.8 79.2 C 254.6 78.7 254.3 77.8 252.3 77.8 C 250.7 77.8 250.3 78.5 250.3 79 C 250.3 79.7 250.7 80.1 252.7 80.3 C 255.6 80.7 256.2 81.6 256.2 82.8 C 256.2 84.3 255.2 85.3 252.7 85.3 C 250.3 85.3 249 84.3 248.7 82.7 C 248.72 82.65 248.7 82.7 248.7 82.7 L 249.9 82.7 Z M 258.1 77.6 C 258.5 76.3 258.9 74.5 258.9 73 C 258.9 73 260.2 73 260.2 73 C 260.1 74.3 259.6 76.5 259.1 77.6 C 259.1 77.6 258.1 77.6 258.1 77.6 Z M 268.8 83.2 C 268.8 83.9 268.8 84.9 268.8 85.1 C 268.8 85.1 267.7 85.1 267.7 85.1 C 267.6 84.8 267.6 84.1 267.6 83.8 C 267.2 84.7 266.3 85.3 264.5 85.3 C 262.2 85.3 261.4 83.9 261.4 82.7 C 261.4 82.7 261.4 82.7 261.4 82.7 C 261.4 80.7 263.3 80.1 265.5 80.1 C 266.6 80.1 267.3 80.1 267.6 80.1 C 267.6 80.1 267.6 79.6 267.6 79.6 C 267.6 78.7 267.2 77.8 265.3 77.8 C 263.6 77.8 263.2 78.5 263.1 79.4 C 263.06 79.36 263.1 79.4 263.1 79.4 L 261.9 79.4 C 261.9 79.4 261.85 79.36 261.9 79.4 C 262 78.3 262.7 76.8 265.3 76.8 C 268.1 76.8 268.8 78.2 268.8 79.5 C 268.8 79.5 268.8 83.2 268.8 83.2 Z M 267.6 81 C 267.3 81 266.8 81 265.6 81 C 263.6 81 262.6 81.5 262.6 82.7 C 262.6 82.7 262.6 82.7 262.6 82.7 C 262.6 83.6 263.2 84.3 264.7 84.3 C 267 84.3 267.6 82.9 267.6 81.5 C 267.6 81.5 267.6 81 267.6 81 Z M 271.7 79.2 C 271.7 78.5 271.7 77.8 271.7 77 C 271.7 77 272.8 77 272.8 77 C 272.9 77.3 272.9 78.1 272.9 78.9 C 273.4 77.6 274.6 76.8 276.2 76.8 C 276.2 76.8 276.2 78 276.2 78 C 274.3 78 272.9 79.2 272.9 81.6 C 272.88 81.6 272.9 85.1 272.9 85.1 L 271.7 85.1 C 271.7 85.1 271.67 79.22 271.7 79.2 Z M 278.1 79.2 C 278.1 78.5 278.1 77.8 278.1 77 C 278.1 77 279.3 77 279.3 77 C 279.3 77.3 279.3 78.1 279.3 78.9 C 279.9 77.6 281.1 76.8 282.7 76.8 C 282.7 76.8 282.7 78 282.7 78 C 280.8 78 279.3 79.2 279.3 81.6 C 279.35 81.6 279.3 85.1 279.3 85.1 L 278.1 85.1 C 278.1 85.1 278.14 79.22 278.1 79.2 Z M 285 81.3 C 285 81.3 285.04 81.33 285 81.3 C 285.1 83 286.3 84.3 288 84.3 C 289.4 84.3 290.1 83.7 290.6 82.8 C 290.61 82.84 290.6 82.8 290.6 82.8 L 291.8 82.8 C 291.8 82.8 291.82 82.84 291.8 82.8 C 291.4 84 290.3 85.3 287.9 85.3 C 285.2 85.3 283.8 83.2 283.8 81.1 C 283.8 81.1 283.8 81.1 283.8 81.1 C 283.8 78.6 285.5 76.8 287.9 76.8 C 290.9 76.8 291.9 79.1 291.9 81 C 291.9 81.1 291.9 81.2 291.9 81.3 C 291.94 81.33 285 81.3 285 81.3 Z M 290.7 80.4 C 290.7 80.4 290.66 80.4 290.7 80.4 C 290.6 79.3 290 77.8 287.9 77.8 C 286.1 77.8 285.2 78.9 285.1 80.4 C 285.07 80.4 285.1 80.4 285.1 80.4 L 290.7 80.4 Z M 288.5 72.9 L 290.5 75.4 L 289.4 75.4 L 287.8 73.6 L 286.3 75.4 L 285.1 75.4 L 287.2 72.9 L 288.5 72.9 Z M 293.1 77 L 294.8 77 L 294.8 74.4 L 296 74.4 L 296 77 L 298.1 77 L 298.1 78 L 296 78 C 296 78 295.98 82.74 296 82.7 C 296 83.7 296.2 84.2 297.1 84.2 C 297.4 84.2 297.7 84.2 298 84.1 C 298 84.1 298 85 298 85 C 297.6 85.1 297.3 85.2 296.8 85.2 C 295.3 85.2 294.8 84.4 294.8 82.9 C 294.77 82.86 294.8 78 294.8 78 L 293.1 78 L 293.1 77 Z M 300.6 81.3 C 300.6 81.3 300.6 81.33 300.6 81.3 C 300.7 83 301.8 84.3 303.6 84.3 C 304.9 84.3 305.7 83.7 306.2 82.8 C 306.17 82.84 306.2 82.8 306.2 82.8 L 307.4 82.8 C 307.4 82.8 307.38 82.84 307.4 82.8 C 307 84 305.8 85.3 303.5 85.3 C 300.7 85.3 299.4 83.2 299.4 81.1 C 299.4 81.1 299.4 81.1 299.4 81.1 C 299.4 78.6 301 76.8 303.5 76.8 C 306.5 76.8 307.5 79.1 307.5 81 C 307.5 81.1 307.5 81.2 307.5 81.3 C 307.5 81.33 300.6 81.3 300.6 81.3 Z M 306.2 80.4 C 306.2 80.4 306.22 80.4 306.2 80.4 C 306.1 79.3 305.6 77.8 303.4 77.8 C 301.7 77.8 300.8 78.9 300.6 80.4 C 300.63 80.4 300.6 80.4 300.6 80.4 L 306.2 80.4 Z M 329 73 C 329 73 329.03 82.72 329 82.7 C 329 83.5 329 84.3 329 85.1 C 329 85.1 327.9 85.1 327.9 85.1 C 327.8 84.7 327.8 84.2 327.8 83.8 C 327.4 84.5 326.7 85.3 324.8 85.3 C 322.4 85.3 320.9 83.5 320.9 81.1 C 320.9 81.1 320.9 81.1 320.9 81.1 C 320.9 78.5 322.8 76.8 325 76.8 C 326.9 76.8 327.6 77.8 327.8 78.2 C 327.82 78.17 327.8 73 327.8 73 L 329 73 Z M 322.1 81.1 C 322.1 81.1 322.1 81.1 322.1 81.1 C 322.1 82.6 323.1 84.3 325 84.3 C 327.1 84.3 327.9 82.9 327.9 81 C 327.9 81 327.9 81 327.9 81 C 327.9 79.1 327.2 77.9 325 77.9 C 323.1 77.9 322.1 79.5 322.1 81.1 Z M 332.6 81.3 C 332.6 81.3 332.63 81.33 332.6 81.3 C 332.7 83 333.9 84.3 335.6 84.3 C 337 84.3 337.7 83.7 338.2 82.8 C 338.2 82.84 338.2 82.8 338.2 82.8 L 339.4 82.8 C 339.4 82.8 339.41 82.84 339.4 82.8 C 339 84 337.9 85.3 335.5 85.3 C 332.8 85.3 331.4 83.2 331.4 81.1 C 331.4 81.1 331.4 81.1 331.4 81.1 C 331.4 78.6 333.1 76.8 335.5 76.8 C 338.5 76.8 339.5 79.1 339.5 81 C 339.5 81.1 339.5 81.2 339.5 81.3 C 339.53 81.33 332.6 81.3 332.6 81.3 Z M 338.2 80.4 C 338.2 80.4 338.25 80.4 338.2 80.4 C 338.2 79.3 337.6 77.8 335.5 77.8 C 333.7 77.8 332.8 78.9 332.7 80.4 C 332.66 80.4 332.7 80.4 332.7 80.4 L 338.2 80.4 Z M 341.9 77 C 342.5 78.5 344.6 83.1 344.9 83.9 C 344.9 83.9 344.9 83.9 344.9 83.9 C 345.1 83.3 345.6 82 347.8 77 C 347.82 77.03 349.1 77 349.1 77 L 345.5 85.1 L 344.2 85.1 L 340.6 77 C 340.6 77 341.88 77.03 341.9 77 Z M 357.5 83.2 C 357.5 83.9 357.5 84.9 357.6 85.1 C 357.6 85.1 356.4 85.1 356.4 85.1 C 356.3 84.8 356.3 84.1 356.3 83.8 C 355.9 84.7 355 85.3 353.2 85.3 C 350.9 85.3 350.1 83.9 350.1 82.7 C 350.1 82.7 350.1 82.7 350.1 82.7 C 350.1 80.7 352 80.1 354.3 80.1 C 355.3 80.1 356 80.1 356.3 80.1 C 356.3 80.1 356.3 79.6 356.3 79.6 C 356.3 78.7 355.9 77.8 354 77.8 C 352.3 77.8 352 78.5 351.8 79.4 C 351.77 79.36 351.8 79.4 351.8 79.4 L 350.6 79.4 C 350.6 79.4 350.57 79.36 350.6 79.4 C 350.7 78.3 351.4 76.8 354 76.8 C 356.8 76.8 357.5 78.2 357.5 79.5 C 357.5 79.5 357.5 83.2 357.5 83.2 Z M 356.3 81 C 356 81 355.5 81 354.3 81 C 352.3 81 351.3 81.5 351.3 82.7 C 351.3 82.7 351.3 82.7 351.3 82.7 C 351.3 83.6 352 84.3 353.4 84.3 C 355.8 84.3 356.3 82.9 356.3 81.5 C 356.3 81.5 356.3 81 356.3 81 Z M 360.4 79.1 C 360.4 78.4 360.4 77.6 360.4 77 C 360.4 77 361.5 77 361.5 77 C 361.6 77.3 361.6 78 361.6 78.7 C 361.9 77.8 362.8 76.8 364.6 76.8 C 366.4 76.8 367.7 78 367.7 80.2 C 367.68 80.2 367.7 85.1 367.7 85.1 L 366.5 85.1 C 366.5 85.1 366.47 80.43 366.5 80.4 C 366.5 79 365.9 77.9 364.3 77.9 C 362.5 77.9 361.6 79.3 361.6 81.3 C 361.6 81.27 361.6 85.1 361.6 85.1 L 360.4 85.1 C 360.4 85.1 360.39 79.06 360.4 79.1 Z M 369.4 77 L 371.1 77 L 371.1 74.4 L 372.3 74.4 L 372.3 77 L 374.4 77 L 374.4 78 L 372.3 78 C 372.3 78 372.27 82.74 372.3 82.7 C 372.3 83.7 372.5 84.2 373.4 84.2 C 373.7 84.2 374 84.2 374.3 84.1 C 374.3 84.1 374.3 85 374.3 85 C 373.9 85.1 373.5 85.2 373.1 85.2 C 371.5 85.2 371.1 84.4 371.1 82.9 C 371.06 82.86 371.1 78 371.1 78 L 369.4 78 L 369.4 77 Z M 395.4 82.7 C 395.4 83.5 395.4 84.3 395.4 85.1 C 395.4 85.1 394.2 85.1 394.2 85.1 C 394.2 84.9 394.2 84.2 394.2 83.6 C 393.8 84.6 393 85.3 391.2 85.3 C 389.5 85.3 388.2 84.4 388.2 82 C 388.21 82.05 388.2 77 388.2 77 L 389.4 77 C 389.4 77 389.42 81.81 389.4 81.8 C 389.4 83.1 389.9 84.2 391.5 84.2 C 393.4 84.2 394.2 83.1 394.2 80.6 C 394.18 80.65 394.2 77 394.2 77 L 395.4 77 C 395.4 77 395.39 82.73 395.4 82.7 Z M 398.3 79.1 C 398.3 78.4 398.3 77.6 398.3 77 C 398.3 77 399.5 77 399.5 77 C 399.5 77.3 399.5 78 399.5 78.7 C 399.9 77.8 400.7 76.8 402.5 76.8 C 404.4 76.8 405.6 78 405.6 80.2 C 405.61 80.2 405.6 85.1 405.6 85.1 L 404.4 85.1 C 404.4 85.1 404.39 80.43 404.4 80.4 C 404.4 79 403.8 77.9 402.2 77.9 C 400.4 77.9 399.5 79.3 399.5 81.3 C 399.52 81.27 399.5 85.1 399.5 85.1 L 398.3 85.1 C 398.3 85.1 398.31 79.06 398.3 79.1 Z M 420.3 79.1 C 420.3 78.4 420.3 77.7 420.3 77 C 420.3 77 421.5 77 421.5 77 C 421.5 77.4 421.5 77.8 421.5 78.3 C 421.9 77.6 422.7 76.8 424.1 76.8 C 425.4 76.8 426.3 77.4 426.6 78.4 C 427.1 77.7 427.8 76.8 429.4 76.8 C 431 76.8 432.3 77.7 432.3 80.1 C 432.25 80.07 432.3 85.1 432.3 85.1 L 431.1 85.1 C 431.1 85.1 431.05 80.13 431.1 80.1 C 431.1 79.1 430.7 77.9 429.2 77.9 C 427.8 77.9 426.9 78.8 426.9 80.7 C 426.88 80.68 426.9 85.1 426.9 85.1 L 425.7 85.1 C 425.7 85.1 425.68 80.04 425.7 80 C 425.7 79 425.3 77.9 423.8 77.9 C 422.1 77.9 421.5 79.2 421.5 80.8 C 421.51 80.82 421.5 85.1 421.5 85.1 L 420.3 85.1 C 420.3 85.1 420.3 79.11 420.3 79.1 Z M 442.3 82.7 C 442.3 83.5 442.3 84.3 442.3 85.1 C 442.3 85.1 441.1 85.1 441.1 85.1 C 441.1 84.9 441.1 84.2 441.1 83.6 C 440.7 84.6 439.9 85.3 438.1 85.3 C 436.4 85.3 435.1 84.4 435.1 82 C 435.11 82.05 435.1 77 435.1 77 L 436.3 77 C 436.3 77 436.32 81.81 436.3 81.8 C 436.3 83.1 436.8 84.2 438.4 84.2 C 440.3 84.2 441.1 83.1 441.1 80.6 C 441.08 80.65 441.1 77 441.1 77 L 442.3 77 C 442.3 77 442.29 82.73 442.3 82.7 Z M 445.2 79.2 C 445.2 78.5 445.2 77.8 445.2 77 C 445.2 77 446.4 77 446.4 77 C 446.4 77.3 446.4 78.1 446.4 78.9 C 447 77.6 448.2 76.8 449.7 76.8 C 449.7 76.8 449.7 78 449.7 78 C 447.9 78 446.4 79.2 446.4 81.6 C 446.42 81.6 446.4 85.1 446.4 85.1 L 445.2 85.1 C 445.2 85.1 445.21 79.22 445.2 79.2 Z " stroke="none" fill="#141414"/>  </g></svg>