<?xml version="1.0" standalone="no"?><!DOCTYPE svg PUBLIC "-//W3C//DTD SVG 1.1//EN" "http://www.w3.org/Graphics/SVG/1.1/DTD/svg11.dtd"><svg xmlns="http://www.w3.org/2000/svg" version="1.1" width="90px" height="14.8px" viewBox="0 -2 90 14.8" style="top:-2px">  <desc>Page</desc>  <defs/>  <g id="Polygon4581">    <path d="M 44.2 6.6 C 43.8 6.6 43.4 6.6 43.2 6.5 C 43.2 6.5 43.5 5.1 43.5 5.1 C 43.7 5.3 43.9 5.3 44.3 5.3 C 44.5 5.3 44.8 5.3 45 5.2 C 45.2 5 45.4 4.9 45.5 4.7 C 45.3 4.8 45.2 4.8 45 4.9 C 44.8 4.9 44.6 4.9 44.5 4.9 C 44 4.9 43.7 4.8 43.5 4.6 C 43.2 4.4 43.1 4.1 43.1 3.7 C 43.1 3.6 43.1 3.4 43.2 3.3 C 43.2 2.9 43.4 2.6 43.6 2.4 C 43.8 2.1 44.1 1.9 44.4 1.7 C 44.8 1.6 45.2 1.5 45.7 1.5 C 46.2 1.5 46.7 1.6 47 1.9 C 47.3 2.2 47.4 2.6 47.4 3.1 C 47.4 3.4 47.4 3.6 47.3 3.8 C 47.2 4.4 47 4.9 46.7 5.3 C 46.3 5.8 46 6.1 45.5 6.3 C 45.1 6.5 44.6 6.6 44.2 6.6 C 44.2 6.6 44.2 6.6 44.2 6.6 Z M 45.2 3.7 C 45.3 3.7 45.5 3.7 45.6 3.6 C 45.7 3.5 45.7 3.4 45.8 3.2 C 45.8 3.2 45.8 3.1 45.8 3.1 C 45.8 3 45.7 2.9 45.7 2.8 C 45.6 2.8 45.5 2.7 45.4 2.7 C 45.3 2.7 45.1 2.8 45 2.9 C 44.9 2.9 44.9 3.1 44.8 3.2 C 44.8 3.3 44.8 3.3 44.8 3.4 C 44.8 3.5 44.8 3.6 44.9 3.6 C 45 3.7 45.1 3.7 45.2 3.7 C 45.2 3.7 45.2 3.7 45.2 3.7 Z " stroke="none" fill="#fafafa"/>  </g></svg>