<?xml version="1.0" standalone="no"?><!DOCTYPE svg PUBLIC "-//W3C//DTD SVG 1.1//EN" "http://www.w3.org/Graphics/SVG/1.1/DTD/svg11.dtd"><svg xmlns="http://www.w3.org/2000/svg" version="1.1" width="450px" height="286.2px" viewBox="0 -1 450 286.2" style="top:-1px">  <desc>Souriante et d ter, Anna semble pr te relever le d fi. C’est une vraie bascule d’ nergie, aussi puissante que celle...</desc>  <defs/>  <g id="Polygon9715">    <path d="M 1.9 178.6 C 1.9 178.6 1.94 178.61 1.9 178.6 C 2 180.3 3.2 181.6 4.9 181.6 C 6.3 181.6 7 181 7.5 180.1 C 7.51 180.12 7.5 180.1 7.5 180.1 L 8.7 180.1 C 8.7 180.1 8.71 180.12 8.7 180.1 C 8.3 181.3 7.2 182.6 4.8 182.6 C 2.1 182.6 0.7 180.5 0.7 178.4 C 0.7 178.4 0.7 178.4 0.7 178.4 C 0.7 175.9 2.4 174.1 4.8 174.1 C 7.8 174.1 8.8 176.3 8.8 178.3 C 8.8 178.4 8.8 178.5 8.8 178.6 C 8.83 178.61 1.9 178.6 1.9 178.6 Z M 7.6 177.7 C 7.6 177.7 7.56 177.68 7.6 177.7 C 7.5 176.6 6.9 175.1 4.8 175.1 C 3 175.1 2.1 176.2 2 177.7 C 1.97 177.68 2 177.7 2 177.7 L 7.6 177.7 Z M 7.4 170.1 L 4.9 172.7 L 3.7 172.7 L 5.9 170.1 L 7.4 170.1 Z M 12.4 181 C 12.4 181.05 12.4 185.9 12.4 185.9 L 11.2 185.9 C 11.2 185.9 11.19 176.33 11.2 176.3 C 11.2 175.7 11.2 175 11.2 174.3 C 11.2 174.3 12.3 174.3 12.3 174.3 C 12.4 174.6 12.4 175.1 12.4 175.8 C 12.9 174.9 13.9 174.1 15.6 174.1 C 17.8 174.1 19.3 175.9 19.3 178.2 C 19.3 178.2 19.3 178.2 19.3 178.2 C 19.3 180.8 17.6 182.6 15.4 182.6 C 13.6 182.6 12.9 181.8 12.4 181 Z M 18.1 178.2 C 18.1 178.2 18.1 178.2 18.1 178.2 C 18.1 176.7 17.2 175.2 15.2 175.2 C 13.3 175.2 12.4 176.6 12.4 178.4 C 12.4 178.4 12.4 178.4 12.4 178.4 C 12.4 180.2 13.3 181.5 15.2 181.5 C 17.1 181.5 18.1 179.9 18.1 178.2 Z M 29.6 178.3 C 29.6 178.3 29.6 178.3 29.6 178.3 C 29.6 180.5 28.2 182.6 25.3 182.6 C 22.7 182.6 21.2 180.6 21.2 178.3 C 21.2 178.3 21.2 178.3 21.2 178.3 C 21.2 176 22.8 174.1 25.4 174.1 C 28.1 174.1 29.6 176.2 29.6 178.3 Z M 22.4 178.3 C 22.4 178.3 22.4 178.3 22.4 178.3 C 22.4 180 23.5 181.5 25.4 181.5 C 27.4 181.5 28.3 180.1 28.3 178.4 C 28.3 178.4 28.3 178.4 28.3 178.4 C 28.3 176.6 27.2 175.1 25.3 175.1 C 23.4 175.1 22.4 176.6 22.4 178.3 Z M 39.1 180 C 39.1 180.8 39.1 181.6 39.1 182.4 C 39.1 182.4 38 182.4 38 182.4 C 37.9 182.1 37.9 181.5 37.9 180.9 C 37.5 181.9 36.7 182.6 35 182.6 C 33.2 182.6 31.9 181.7 31.9 179.3 C 31.92 179.33 31.9 174.3 31.9 174.3 L 33.1 174.3 C 33.1 174.3 33.13 179.09 33.1 179.1 C 33.1 180.4 33.6 181.5 35.2 181.5 C 37.1 181.5 37.9 180.4 37.9 177.9 C 37.89 177.93 37.9 174.3 37.9 174.3 L 39.1 174.3 C 39.1 174.3 39.1 180.01 39.1 180 Z M 42.6 179.9 C 42.6 179.9 42.57 179.93 42.6 179.9 C 42.9 181 43.8 181.6 45.3 181.6 C 47 181.6 47.6 181 47.6 180.2 C 47.6 179.4 47.2 178.9 45.1 178.7 C 42.3 178.3 41.7 177.4 41.7 176.4 C 41.7 175.4 42.5 174.1 45 174.1 C 47.8 174.1 48.5 175.6 48.6 176.5 C 48.61 176.46 48.6 176.5 48.6 176.5 L 47.4 176.5 C 47.4 176.5 47.38 176.46 47.4 176.5 C 47.3 175.9 46.9 175.1 45 175.1 C 43.3 175.1 43 175.8 43 176.3 C 43 177 43.4 177.4 45.3 177.6 C 48.3 178 48.9 178.9 48.9 180.1 C 48.9 181.5 47.8 182.6 45.3 182.6 C 42.9 182.6 41.6 181.6 41.3 179.9 C 41.34 179.93 41.3 179.9 41.3 179.9 L 42.6 179.9 Z M 51.9 178.6 C 51.9 178.6 51.9 178.61 51.9 178.6 C 52 180.3 53.1 181.6 54.9 181.6 C 56.2 181.6 57 181 57.5 180.1 C 57.47 180.12 57.5 180.1 57.5 180.1 L 58.7 180.1 C 58.7 180.1 58.68 180.12 58.7 180.1 C 58.3 181.3 57.1 182.6 54.8 182.6 C 52 182.6 50.7 180.5 50.7 178.4 C 50.7 178.4 50.7 178.4 50.7 178.4 C 50.7 175.9 52.3 174.1 54.7 174.1 C 57.8 174.1 58.8 176.3 58.8 178.3 C 58.8 178.4 58.8 178.5 58.8 178.6 C 58.8 178.61 51.9 178.6 51.9 178.6 Z M 57.5 177.7 C 57.5 177.7 57.52 177.68 57.5 177.7 C 57.4 176.6 56.9 175.1 54.7 175.1 C 53 175.1 52.1 176.2 51.9 177.7 C 51.93 177.68 51.9 177.7 51.9 177.7 L 57.5 177.7 Z M 69.8 179.9 C 69.8 179.9 69.84 179.93 69.8 179.9 C 70.2 181 71.1 181.6 72.6 181.6 C 74.3 181.6 74.9 181 74.9 180.2 C 74.9 179.4 74.5 178.9 72.3 178.7 C 69.6 178.3 69 177.4 69 176.4 C 69 175.4 69.8 174.1 72.3 174.1 C 75.1 174.1 75.8 175.6 75.9 176.5 C 75.89 176.46 75.9 176.5 75.9 176.5 L 74.7 176.5 C 74.7 176.5 74.66 176.46 74.7 176.5 C 74.5 175.9 74.2 175.1 72.2 175.1 C 70.6 175.1 70.2 175.8 70.2 176.3 C 70.2 177 70.6 177.4 72.6 177.6 C 75.5 178 76.1 178.9 76.1 180.1 C 76.1 181.5 75 182.6 72.5 182.6 C 70.2 182.6 68.9 181.6 68.6 179.9 C 68.61 179.93 68.6 179.9 68.6 179.9 L 69.8 179.9 Z M 86.3 178.3 C 86.3 178.3 86.3 178.3 86.3 178.3 C 86.3 180.5 85 182.6 82.1 182.6 C 79.5 182.6 78 180.6 78 178.3 C 78 178.3 78 178.3 78 178.3 C 78 176 79.6 174.1 82.2 174.1 C 84.9 174.1 86.3 176.2 86.3 178.3 Z M 79.2 178.3 C 79.2 178.3 79.2 178.3 79.2 178.3 C 79.2 180 80.3 181.5 82.2 181.5 C 84.1 181.5 85.1 180.1 85.1 178.4 C 85.1 178.4 85.1 178.4 85.1 178.4 C 85.1 176.6 84 175.1 82.1 175.1 C 80.1 175.1 79.2 176.6 79.2 178.3 Z M 88.7 176.3 C 88.7 175.7 88.7 174.9 88.7 174.3 C 88.7 174.3 89.9 174.3 89.9 174.3 C 89.9 174.6 89.9 175.3 89.9 175.9 C 90.3 175.1 91.1 174.1 92.9 174.1 C 94.8 174.1 96 175.2 96 177.5 C 96.01 177.48 96 182.4 96 182.4 L 94.8 182.4 C 94.8 182.4 94.79 177.71 94.8 177.7 C 94.8 176.3 94.2 175.2 92.6 175.2 C 90.8 175.2 89.9 176.6 89.9 178.5 C 89.92 178.55 89.9 182.4 89.9 182.4 L 88.7 182.4 C 88.7 182.4 88.71 176.34 88.7 176.3 Z M 107.3 174.3 L 108.5 174.3 L 108.5 182.4 L 107.3 182.4 L 107.3 174.3 Z M 107.3 170.3 L 108.5 170.3 L 108.5 172.1 L 107.3 172.1 L 107.3 170.3 Z M 111.4 176.4 C 111.4 175.7 111.4 175 111.4 174.3 C 111.4 174.3 112.6 174.3 112.6 174.3 C 112.6 174.6 112.6 175.1 112.6 175.6 C 113 174.9 113.8 174.1 115.2 174.1 C 116.5 174.1 117.4 174.7 117.7 175.7 C 118.2 175 118.9 174.1 120.5 174.1 C 122.1 174.1 123.4 175 123.4 177.4 C 123.36 177.35 123.4 182.4 123.4 182.4 L 122.2 182.4 C 122.2 182.4 122.15 177.41 122.2 177.4 C 122.2 176.4 121.8 175.1 120.3 175.1 C 118.9 175.1 118 176.1 118 178 C 117.99 177.96 118 182.4 118 182.4 L 116.8 182.4 C 116.8 182.4 116.78 177.32 116.8 177.3 C 116.8 176.3 116.4 175.1 114.9 175.1 C 113.2 175.1 112.6 176.5 112.6 178.1 C 112.61 178.1 112.6 182.4 112.6 182.4 L 111.4 182.4 C 111.4 182.4 111.41 176.39 111.4 176.4 Z M 127.5 181 C 127.47 181.05 127.5 185.9 127.5 185.9 L 126.3 185.9 C 126.3 185.9 126.26 176.33 126.3 176.3 C 126.3 175.7 126.3 175 126.2 174.3 C 126.2 174.3 127.4 174.3 127.4 174.3 C 127.5 174.6 127.5 175.1 127.5 175.8 C 127.9 174.9 128.9 174.1 130.7 174.1 C 132.8 174.1 134.4 175.9 134.4 178.2 C 134.4 178.2 134.4 178.2 134.4 178.2 C 134.4 180.8 132.6 182.6 130.4 182.6 C 128.7 182.6 127.9 181.8 127.5 181 Z M 133.1 178.2 C 133.1 178.2 133.1 178.2 133.1 178.2 C 133.1 176.7 132.3 175.2 130.3 175.2 C 128.3 175.2 127.4 176.6 127.4 178.4 C 127.4 178.4 127.4 178.4 127.4 178.4 C 127.4 180.2 128.4 181.5 130.3 181.5 C 132.2 181.5 133.1 179.9 133.1 178.2 Z M 143.9 180 C 143.9 180.8 143.9 181.6 143.9 182.4 C 143.9 182.4 142.8 182.4 142.8 182.4 C 142.7 182.1 142.7 181.5 142.7 180.9 C 142.3 181.9 141.6 182.6 139.8 182.6 C 138.1 182.6 136.7 181.7 136.7 179.3 C 136.74 179.33 136.7 174.3 136.7 174.3 L 138 174.3 C 138 174.3 137.95 179.09 138 179.1 C 138 180.4 138.5 181.5 140 181.5 C 141.9 181.5 142.7 180.4 142.7 177.9 C 142.71 177.93 142.7 174.3 142.7 174.3 L 143.9 174.3 C 143.9 174.3 143.92 180.01 143.9 180 Z M 146.8 182.4 L 146.8 170.3 L 148 170.3 L 148 182.4 L 146.8 182.4 Z M 151.5 179.9 C 151.5 179.9 151.48 179.93 151.5 179.9 C 151.8 181 152.7 181.6 154.3 181.6 C 155.9 181.6 156.6 181 156.6 180.2 C 156.6 179.4 156.1 178.9 154 178.7 C 151.2 178.3 150.6 177.4 150.6 176.4 C 150.6 175.4 151.4 174.1 154 174.1 C 156.7 174.1 157.5 175.6 157.5 176.5 C 157.52 176.46 157.5 176.5 157.5 176.5 L 156.3 176.5 C 156.3 176.5 156.3 176.46 156.3 176.5 C 156.2 175.9 155.8 175.1 153.9 175.1 C 152.2 175.1 151.9 175.8 151.9 176.3 C 151.9 177 152.3 177.4 154.2 177.6 C 157.2 178 157.8 178.9 157.8 180.1 C 157.8 181.5 156.7 182.6 154.2 182.6 C 151.8 182.6 150.5 181.6 150.3 179.9 C 150.25 179.93 150.3 179.9 150.3 179.9 L 151.5 179.9 Z M 160.2 174.3 L 161.4 174.3 L 161.4 182.4 L 160.2 182.4 L 160.2 174.3 Z M 160.2 170.3 L 161.4 170.3 L 161.4 172.1 L 160.2 172.1 L 160.2 170.3 Z M 172.1 178.3 C 172.1 178.3 172.1 178.3 172.1 178.3 C 172.1 180.5 170.8 182.6 167.9 182.6 C 165.3 182.6 163.8 180.6 163.8 178.3 C 163.8 178.3 163.8 178.3 163.8 178.3 C 163.8 176 165.4 174.1 168 174.1 C 170.7 174.1 172.1 176.2 172.1 178.3 Z M 165 178.3 C 165 178.3 165 178.3 165 178.3 C 165 180 166.1 181.5 168 181.5 C 169.9 181.5 170.9 180.1 170.9 178.4 C 170.9 178.4 170.9 178.4 170.9 178.4 C 170.9 176.6 169.8 175.1 167.9 175.1 C 166 175.1 165 176.6 165 178.3 Z M 174.5 176.3 C 174.5 175.7 174.5 174.9 174.5 174.3 C 174.5 174.3 175.7 174.3 175.7 174.3 C 175.7 174.6 175.7 175.3 175.7 175.9 C 176.1 175.1 176.9 174.1 178.7 174.1 C 180.6 174.1 181.8 175.2 181.8 177.5 C 181.81 177.48 181.8 182.4 181.8 182.4 L 180.6 182.4 C 180.6 182.4 180.6 177.71 180.6 177.7 C 180.6 176.3 180 175.2 178.4 175.2 C 176.6 175.2 175.7 176.6 175.7 178.5 C 175.73 178.55 175.7 182.4 175.7 182.4 L 174.5 182.4 C 174.5 182.4 174.52 176.34 174.5 176.3 Z M 199.9 180.4 C 199.9 181.2 199.9 182.2 200 182.4 C 200 182.4 198.8 182.4 198.8 182.4 C 198.7 182 198.7 181.4 198.7 181.1 C 198.3 182 197.4 182.6 195.6 182.6 C 193.3 182.6 192.5 181.2 192.5 180 C 192.5 180 192.5 180 192.5 180 C 192.5 178 194.4 177.4 196.7 177.4 C 197.7 177.4 198.4 177.4 198.7 177.4 C 198.7 177.4 198.7 176.9 198.7 176.9 C 198.7 176 198.3 175.1 196.4 175.1 C 194.7 175.1 194.4 175.8 194.2 176.6 C 194.17 176.64 194.2 176.6 194.2 176.6 L 193 176.6 C 193 176.6 192.97 176.64 193 176.6 C 193.1 175.6 193.8 174.1 196.4 174.1 C 199.2 174.1 199.9 175.5 199.9 176.8 C 199.9 176.8 199.9 180.4 199.9 180.4 Z M 198.7 178.3 C 198.4 178.3 197.9 178.3 196.7 178.3 C 194.7 178.3 193.7 178.7 193.7 179.9 C 193.7 179.9 193.7 179.9 193.7 179.9 C 193.7 180.8 194.4 181.6 195.8 181.6 C 198.2 181.6 198.7 180.1 198.7 178.7 C 198.7 178.7 198.7 178.3 198.7 178.3 Z M 202.8 182.4 L 202.8 170.3 L 204 170.3 L 204 182.4 L 202.8 182.4 Z M 214.7 178.3 C 214.7 178.3 214.7 178.3 214.7 178.3 C 214.7 180.5 213.4 182.6 210.5 182.6 C 207.9 182.6 206.4 180.6 206.4 178.3 C 206.4 178.3 206.4 178.3 206.4 178.3 C 206.4 176 208 174.1 210.6 174.1 C 213.3 174.1 214.7 176.2 214.7 178.3 Z M 207.6 178.3 C 207.6 178.3 207.6 178.3 207.6 178.3 C 207.6 180 208.7 181.5 210.6 181.5 C 212.5 181.5 213.5 180.1 213.5 178.4 C 213.5 178.4 213.5 178.4 213.5 178.4 C 213.5 176.6 212.4 175.1 210.5 175.1 C 208.6 175.1 207.6 176.6 207.6 178.3 Z M 217.1 176.5 C 217.1 175.8 217.1 175 217.1 174.3 C 217.1 174.3 218.3 174.3 218.3 174.3 C 218.3 174.5 218.3 175.4 218.3 176.2 C 218.9 174.9 220.1 174.1 221.6 174.1 C 221.6 174.1 221.6 175.3 221.6 175.3 C 219.8 175.3 218.3 176.5 218.3 178.9 C 218.33 178.88 218.3 182.4 218.3 182.4 L 217.1 182.4 C 217.1 182.4 217.12 176.5 217.1 176.5 Z M 224.1 179.9 C 224.1 179.9 224.12 179.93 224.1 179.9 C 224.4 181 225.3 181.6 226.9 181.6 C 228.6 181.6 229.2 181 229.2 180.2 C 229.2 179.4 228.8 178.9 226.6 178.7 C 223.8 178.3 223.3 177.4 223.3 176.4 C 223.3 175.4 224.1 174.1 226.6 174.1 C 229.4 174.1 230.1 175.6 230.2 176.5 C 230.16 176.46 230.2 176.5 230.2 176.5 L 228.9 176.5 C 228.9 176.5 228.94 176.46 228.9 176.5 C 228.8 175.9 228.5 175.1 226.5 175.1 C 224.9 175.1 224.5 175.8 224.5 176.3 C 224.5 177 224.9 177.4 226.9 177.6 C 229.8 178 230.4 178.9 230.4 180.1 C 230.4 181.5 229.3 182.6 226.8 182.6 C 224.4 182.6 223.2 181.6 222.9 179.9 C 222.89 179.93 222.9 179.9 222.9 179.9 L 224.1 179.9 Z M 247.4 181 C 247 181.8 246.1 182.6 244.4 182.6 C 242.1 182.6 240.5 180.8 240.5 178.4 C 240.5 178.4 240.5 178.4 240.5 178.4 C 240.5 175.7 242.5 174.1 244.5 174.1 C 246.5 174.1 247.2 175.1 247.4 175.6 C 247.5 175 247.5 174.6 247.5 174.3 C 247.5 174.3 248.7 174.3 248.7 174.3 C 248.7 174.9 248.6 175.8 248.6 176.6 C 248.65 176.59 248.6 185.9 248.6 185.9 L 247.4 185.9 C 247.4 185.9 247.44 181.01 247.4 181 Z M 241.7 178.4 C 241.7 178.4 241.7 178.4 241.7 178.4 C 241.7 180.1 242.8 181.5 244.5 181.5 C 246.4 181.5 247.5 180.4 247.5 178.3 C 247.5 178.3 247.5 178.3 247.5 178.3 C 247.5 176.4 246.6 175.2 244.7 175.2 C 242.7 175.2 241.7 176.6 241.7 178.4 Z M 258.7 180 C 258.7 180.8 258.7 181.6 258.7 182.4 C 258.7 182.4 257.6 182.4 257.6 182.4 C 257.5 182.1 257.5 181.5 257.5 180.9 C 257.1 181.9 256.3 182.6 254.6 182.6 C 252.9 182.6 251.5 181.7 251.5 179.3 C 251.53 179.33 251.5 174.3 251.5 174.3 L 252.7 174.3 C 252.7 174.3 252.74 179.09 252.7 179.1 C 252.7 180.4 253.2 181.5 254.8 181.5 C 256.7 181.5 257.5 180.4 257.5 177.9 C 257.51 177.93 257.5 174.3 257.5 174.3 L 258.7 174.3 C 258.7 174.3 258.71 180.01 258.7 180 Z M 261.2 174.9 C 261.6 173.6 261.9 171.8 262 170.3 C 262 170.3 263.3 170.3 263.3 170.3 C 263.2 171.5 262.7 173.8 262.2 174.9 C 262.2 174.9 261.2 174.9 261.2 174.9 Z M 265.7 178.6 C 265.7 178.6 265.68 178.61 265.7 178.6 C 265.8 180.3 266.9 181.6 268.7 181.6 C 270 181.6 270.8 181 271.2 180.1 C 271.25 180.12 271.2 180.1 271.2 180.1 L 272.5 180.1 C 272.5 180.1 272.46 180.12 272.5 180.1 C 272 181.3 270.9 182.6 268.6 182.6 C 265.8 182.6 264.5 180.5 264.5 178.4 C 264.5 178.4 264.5 178.4 264.5 178.4 C 264.5 175.9 266.1 174.1 268.5 174.1 C 271.6 174.1 272.6 176.3 272.6 178.3 C 272.6 178.4 272.6 178.5 272.6 178.6 C 272.58 178.61 265.7 178.6 265.7 178.6 Z M 271.3 177.7 C 271.3 177.7 271.3 177.68 271.3 177.7 C 271.2 176.6 270.7 175.1 268.5 175.1 C 266.8 175.1 265.9 176.2 265.7 177.7 C 265.71 177.68 265.7 177.7 265.7 177.7 L 271.3 177.7 Z M 274.9 182.4 L 274.9 170.3 L 276.1 170.3 L 276.1 182.4 L 274.9 182.4 Z M 279 182.4 L 279 170.3 L 280.3 170.3 L 280.3 182.4 L 279 182.4 Z M 283.9 178.6 C 283.9 178.6 283.86 178.61 283.9 178.6 C 284 180.3 285.1 181.6 286.9 181.6 C 288.2 181.6 289 181 289.4 180.1 C 289.43 180.12 289.4 180.1 289.4 180.1 L 290.6 180.1 C 290.6 180.1 290.64 180.12 290.6 180.1 C 290.2 181.3 289.1 182.6 286.8 182.6 C 284 182.6 282.6 180.5 282.6 178.4 C 282.6 178.4 282.6 178.4 282.6 178.4 C 282.6 175.9 284.3 174.1 286.7 174.1 C 289.7 174.1 290.8 176.3 290.8 178.3 C 290.8 178.4 290.8 178.5 290.8 178.6 C 290.76 178.61 283.9 178.6 283.9 178.6 Z M 289.5 177.7 C 289.5 177.7 289.48 177.68 289.5 177.7 C 289.4 176.6 288.9 175.1 286.7 175.1 C 285 175.1 284.1 176.2 283.9 177.7 C 283.9 177.68 283.9 177.7 283.9 177.7 L 289.5 177.7 Z M 301.8 179.9 C 301.8 179.9 301.81 179.93 301.8 179.9 C 302.1 181 303 181.6 304.6 181.6 C 306.3 181.6 306.9 181 306.9 180.2 C 306.9 179.4 306.5 178.9 304.3 178.7 C 301.5 178.3 301 177.4 301 176.4 C 301 175.4 301.8 174.1 304.3 174.1 C 307.1 174.1 307.8 175.6 307.9 176.5 C 307.85 176.46 307.9 176.5 307.9 176.5 L 306.6 176.5 C 306.6 176.5 306.62 176.46 306.6 176.5 C 306.5 175.9 306.2 175.1 304.2 175.1 C 302.6 175.1 302.2 175.8 302.2 176.3 C 302.2 177 302.6 177.4 304.6 177.6 C 307.5 178 308.1 178.9 308.1 180.1 C 308.1 181.5 307 182.6 304.5 182.6 C 302.1 182.6 300.9 181.6 300.6 179.9 C 300.58 179.93 300.6 179.9 300.6 179.9 L 301.8 179.9 Z M 311.1 178.6 C 311.1 178.6 311.14 178.61 311.1 178.6 C 311.2 180.3 312.4 181.6 314.1 181.6 C 315.5 181.6 316.2 181 316.7 180.1 C 316.71 180.12 316.7 180.1 316.7 180.1 L 317.9 180.1 C 317.9 180.1 317.92 180.12 317.9 180.1 C 317.5 181.3 316.4 182.6 314 182.6 C 311.3 182.6 309.9 180.5 309.9 178.4 C 309.9 178.4 309.9 178.4 309.9 178.4 C 309.9 175.9 311.6 174.1 314 174.1 C 317 174.1 318 176.3 318 178.3 C 318 178.4 318 178.5 318 178.6 C 318.04 178.61 311.1 178.6 311.1 178.6 Z M 316.8 177.7 C 316.8 177.7 316.76 177.68 316.8 177.7 C 316.7 176.6 316.1 175.1 314 175.1 C 312.2 175.1 311.3 176.2 311.2 177.7 C 311.17 177.68 311.2 177.7 311.2 177.7 L 316.8 177.7 Z M 328.7 176.5 C 328.7 175.8 328.7 175 328.6 174.3 C 328.6 174.3 329.8 174.3 329.8 174.3 C 329.8 174.5 329.9 175.4 329.9 176.2 C 330.4 174.9 331.6 174.1 333.2 174.1 C 333.2 174.1 333.2 175.3 333.2 175.3 C 331.3 175.3 329.9 176.5 329.9 178.9 C 329.86 178.88 329.9 182.4 329.9 182.4 L 328.7 182.4 C 328.7 182.4 328.65 176.5 328.7 176.5 Z M 335.5 178.6 C 335.5 178.6 335.55 178.61 335.5 178.6 C 335.6 180.3 336.8 181.6 338.5 181.6 C 339.9 181.6 340.6 181 341.1 180.1 C 341.12 180.12 341.1 180.1 341.1 180.1 L 342.3 180.1 C 342.3 180.1 342.33 180.12 342.3 180.1 C 341.9 181.3 340.8 182.6 338.4 182.6 C 335.7 182.6 334.3 180.5 334.3 178.4 C 334.3 178.4 334.3 178.4 334.3 178.4 C 334.3 175.9 336 174.1 338.4 174.1 C 341.4 174.1 342.4 176.3 342.4 178.3 C 342.4 178.4 342.4 178.5 342.4 178.6 C 342.45 178.61 335.5 178.6 335.5 178.6 Z M 341.2 177.7 C 341.2 177.7 341.17 177.68 341.2 177.7 C 341.1 176.6 340.5 175.1 338.4 175.1 C 336.6 175.1 335.7 176.2 335.6 177.7 C 335.58 177.68 335.6 177.7 335.6 177.7 L 341.2 177.7 Z M 352.4 170.3 C 352.4 170.3 352.43 180 352.4 180 C 352.4 180.8 352.4 181.6 352.4 182.4 C 352.4 182.4 351.3 182.4 351.3 182.4 C 351.2 182 351.2 181.5 351.2 181 C 350.8 181.8 350.1 182.6 348.2 182.6 C 345.8 182.6 344.3 180.8 344.3 178.4 C 344.3 178.4 344.3 178.4 344.3 178.4 C 344.3 175.8 346.2 174.1 348.4 174.1 C 350.3 174.1 351 175 351.2 175.4 C 351.22 175.45 351.2 170.3 351.2 170.3 L 352.4 170.3 Z M 345.5 178.4 C 345.5 178.4 345.5 178.4 345.5 178.4 C 345.5 179.9 346.5 181.5 348.4 181.5 C 350.5 181.5 351.3 180.2 351.3 178.3 C 351.3 178.3 351.3 178.3 351.3 178.3 C 351.3 176.4 350.6 175.1 348.4 175.1 C 346.5 175.1 345.5 176.8 345.5 178.4 Z M 355.4 176.5 C 355.4 175.8 355.4 175 355.3 174.3 C 355.3 174.3 356.5 174.3 356.5 174.3 C 356.5 174.5 356.6 175.4 356.6 176.2 C 357.1 174.9 358.3 174.1 359.9 174.1 C 359.9 174.1 359.9 175.3 359.9 175.3 C 358 175.3 356.6 176.5 356.6 178.9 C 356.56 178.88 356.6 182.4 356.6 182.4 L 355.4 182.4 C 355.4 182.4 355.35 176.5 355.4 176.5 Z M 362.2 178.6 C 362.2 178.6 362.25 178.61 362.2 178.6 C 362.3 180.3 363.5 181.6 365.2 181.6 C 366.6 181.6 367.3 181 367.8 180.1 C 367.82 180.12 367.8 180.1 367.8 180.1 L 369 180.1 C 369 180.1 369.03 180.12 369 180.1 C 368.6 181.3 367.5 182.6 365.1 182.6 C 362.4 182.6 361 180.5 361 178.4 C 361 178.4 361 178.4 361 178.4 C 361 175.9 362.7 174.1 365.1 174.1 C 368.1 174.1 369.2 176.3 369.2 178.3 C 369.2 178.4 369.2 178.5 369.1 178.6 C 369.15 178.61 362.2 178.6 362.2 178.6 Z M 367.9 177.7 C 367.9 177.7 367.87 177.68 367.9 177.7 C 367.8 176.6 367.2 175.1 365.1 175.1 C 363.3 175.1 362.4 176.2 362.3 177.7 C 362.28 177.68 362.3 177.7 362.3 177.7 L 367.9 177.7 Z M 372.1 179.9 C 372.1 179.9 372.08 179.93 372.1 179.9 C 372.4 181 373.3 181.6 374.9 181.6 C 376.5 181.6 377.2 181 377.2 180.2 C 377.2 179.4 376.7 178.9 374.6 178.7 C 371.8 178.3 371.2 177.4 371.2 176.4 C 371.2 175.4 372 174.1 374.6 174.1 C 377.3 174.1 378 175.6 378.1 176.5 C 378.12 176.46 378.1 176.5 378.1 176.5 L 376.9 176.5 C 376.9 176.5 376.89 176.46 376.9 176.5 C 376.8 175.9 376.4 175.1 374.5 175.1 C 372.8 175.1 372.5 175.8 372.5 176.3 C 372.5 177 372.9 177.4 374.8 177.6 C 377.8 178 378.4 178.9 378.4 180.1 C 378.4 181.5 377.3 182.6 374.8 182.6 C 372.4 182.6 371.1 181.6 370.8 179.9 C 370.84 179.93 370.8 179.9 370.8 179.9 L 372.1 179.9 Z M 381.4 179.9 C 381.4 179.9 381.4 179.93 381.4 179.9 C 381.7 181 382.6 181.6 384.2 181.6 C 385.9 181.6 386.5 181 386.5 180.2 C 386.5 179.4 386.1 178.9 383.9 178.7 C 381.1 178.3 380.6 177.4 380.6 176.4 C 380.6 175.4 381.4 174.1 383.9 174.1 C 386.6 174.1 387.4 175.6 387.4 176.5 C 387.44 176.46 387.4 176.5 387.4 176.5 L 386.2 176.5 C 386.2 176.5 386.21 176.46 386.2 176.5 C 386.1 175.9 385.7 175.1 383.8 175.1 C 382.1 175.1 381.8 175.8 381.8 176.3 C 381.8 177 382.2 177.4 384.1 177.6 C 387.1 178 387.7 178.9 387.7 180.1 C 387.7 181.5 386.6 182.6 384.1 182.6 C 381.7 182.6 380.5 181.6 380.2 179.9 C 380.17 179.93 380.2 179.9 380.2 179.9 L 381.4 179.9 Z M 390.7 178.6 C 390.7 178.6 390.73 178.61 390.7 178.6 C 390.8 180.3 392 181.6 393.7 181.6 C 395.1 181.6 395.8 181 396.3 180.1 C 396.3 180.12 396.3 180.1 396.3 180.1 L 397.5 180.1 C 397.5 180.1 397.51 180.12 397.5 180.1 C 397.1 181.3 396 182.6 393.6 182.6 C 390.9 182.6 389.5 180.5 389.5 178.4 C 389.5 178.4 389.5 178.4 389.5 178.4 C 389.5 175.9 391.2 174.1 393.6 174.1 C 396.6 174.1 397.6 176.3 397.6 178.3 C 397.6 178.4 397.6 178.5 397.6 178.6 C 397.63 178.61 390.7 178.6 390.7 178.6 Z M 396.3 177.7 C 396.3 177.7 396.35 177.68 396.3 177.7 C 396.3 176.6 395.7 175.1 393.6 175.1 C 391.8 175.1 390.9 176.2 390.8 177.7 C 390.76 177.68 390.8 177.7 390.8 177.7 L 396.3 177.7 Z M 399.8 182.4 L 399.8 179.9 L 401.1 179.9 L 401.1 182.4 L 399.8 182.4 Z " stroke="none" fill="#141414"/>  </g>  <g id="Polygon9714">    <path d="M 7.7 156.7 C 7.2 157.5 6.4 158.3 4.6 158.3 C 2.4 158.3 0.7 156.5 0.7 154.1 C 0.7 154.1 0.7 154.1 0.7 154.1 C 0.7 151.4 2.7 149.8 4.7 149.8 C 6.7 149.8 7.5 150.8 7.7 151.3 C 7.7 150.7 7.7 150.2 7.7 150 C 7.7 150 8.9 150 8.9 150 C 8.9 150.6 8.9 151.5 8.9 152.3 C 8.89 152.27 8.9 161.6 8.9 161.6 L 7.7 161.6 C 7.7 161.6 7.68 156.69 7.7 156.7 Z M 2 154.1 C 2 154.1 2 154.1 2 154.1 C 2 155.8 3.1 157.2 4.8 157.2 C 6.7 157.2 7.7 156.1 7.7 154 C 7.7 154 7.7 154 7.7 154 C 7.7 152.1 6.8 150.8 4.9 150.8 C 3 150.8 2 152.3 2 154.1 Z M 19 155.7 C 19 156.5 19 157.3 19 158 C 19 158 17.8 158 17.8 158 C 17.8 157.8 17.8 157.2 17.8 156.6 C 17.3 157.6 16.6 158.3 14.8 158.3 C 13.1 158.3 11.8 157.3 11.8 155 C 11.78 155.01 11.8 150 11.8 150 L 13 150 C 13 150 12.99 154.77 13 154.8 C 13 156 13.5 157.2 15.1 157.2 C 16.9 157.2 17.7 156.1 17.7 153.6 C 17.75 153.61 17.7 150 17.7 150 L 19 150 C 19 150 18.96 155.69 19 155.7 Z M 22.6 154.3 C 22.6 154.3 22.55 154.29 22.6 154.3 C 22.6 156 23.8 157.2 25.5 157.2 C 26.9 157.2 27.6 156.7 28.1 155.8 C 28.12 155.8 28.1 155.8 28.1 155.8 L 29.3 155.8 C 29.3 155.8 29.33 155.8 29.3 155.8 C 28.9 156.9 27.8 158.3 25.4 158.3 C 22.7 158.3 21.3 156.2 21.3 154 C 21.3 154 21.3 154 21.3 154 C 21.3 151.6 23 149.8 25.4 149.8 C 28.4 149.8 29.5 152 29.5 154 C 29.5 154.1 29.5 154.2 29.5 154.3 C 29.45 154.29 22.6 154.3 22.6 154.3 Z M 28.2 153.4 C 28.2 153.4 28.17 153.36 28.2 153.4 C 28.1 152.3 27.5 150.8 25.4 150.8 C 23.6 150.8 22.7 151.9 22.6 153.4 C 22.58 153.36 22.6 153.4 22.6 153.4 L 28.2 153.4 Z M 45.7 155.6 C 45.7 155.6 45.7 155.58 45.7 155.6 C 45.3 157 44 158.3 41.9 158.3 C 39.1 158.3 37.7 156.3 37.7 154.1 C 37.7 154.1 37.7 154.1 37.7 154.1 C 37.7 151.7 39.2 149.8 41.9 149.8 C 44.5 149.8 45.5 151.4 45.7 152.5 C 45.69 152.51 45.7 152.5 45.7 152.5 L 44.5 152.5 C 44.5 152.5 44.48 152.51 44.5 152.5 C 44.2 151.7 43.5 150.8 41.8 150.8 C 40 150.8 38.9 152.1 38.9 154 C 38.9 154 38.9 154 38.9 154 C 38.9 155.8 40 157.2 41.9 157.2 C 43.3 157.2 44.1 156.6 44.5 155.6 C 44.49 155.58 44.5 155.6 44.5 155.6 L 45.7 155.6 Z M 48.7 154.3 C 48.7 154.3 48.67 154.29 48.7 154.3 C 48.8 156 49.9 157.2 51.7 157.2 C 53 157.2 53.8 156.7 54.2 155.8 C 54.24 155.8 54.2 155.8 54.2 155.8 L 55.4 155.8 C 55.4 155.8 55.44 155.8 55.4 155.8 C 55 156.9 53.9 158.3 51.6 158.3 C 48.8 158.3 47.4 156.2 47.4 154 C 47.4 154 47.4 154 47.4 154 C 47.4 151.6 49.1 149.8 51.5 149.8 C 54.5 149.8 55.6 152 55.6 154 C 55.6 154.1 55.6 154.2 55.6 154.3 C 55.56 154.29 48.7 154.3 48.7 154.3 Z M 54.3 153.4 C 54.3 153.4 54.29 153.36 54.3 153.4 C 54.2 152.3 53.7 150.8 51.5 150.8 C 49.8 150.8 48.9 151.9 48.7 153.4 C 48.7 153.36 48.7 153.4 48.7 153.4 L 54.3 153.4 Z M 57.9 158 L 57.9 146 L 59.1 146 L 59.1 158 L 57.9 158 Z M 62 158 L 62 146 L 63.2 146 L 63.2 158 L 62 158 Z M 66.9 154.3 C 66.9 154.3 66.85 154.29 66.9 154.3 C 66.9 156 68.1 157.2 69.8 157.2 C 71.2 157.2 71.9 156.7 72.4 155.8 C 72.42 155.8 72.4 155.8 72.4 155.8 L 73.6 155.8 C 73.6 155.8 73.63 155.8 73.6 155.8 C 73.2 156.9 72.1 158.3 69.7 158.3 C 67 158.3 65.6 156.2 65.6 154 C 65.6 154 65.6 154 65.6 154 C 65.6 151.6 67.3 149.8 69.7 149.8 C 72.7 149.8 73.8 152 73.8 154 C 73.8 154.1 73.8 154.2 73.8 154.3 C 73.75 154.29 66.9 154.3 66.9 154.3 Z M 72.5 153.4 C 72.5 153.4 72.47 153.36 72.5 153.4 C 72.4 152.3 71.8 150.8 69.7 150.8 C 67.9 150.8 67 151.9 66.9 153.4 C 66.88 153.36 66.9 153.4 66.9 153.4 L 72.5 153.4 Z M 88.9 156.7 C 88.5 157.5 87.6 158.3 85.9 158.3 C 83.7 158.3 82 156.5 82 154.1 C 82 154.1 82 154.1 82 154.1 C 82 151.4 84 149.8 86 149.8 C 88 149.8 88.8 150.8 88.9 151.3 C 89 150.7 89 150.2 89 150 C 89 150 90.2 150 90.2 150 C 90.2 150.6 90.2 151.5 90.2 152.3 C 90.16 152.27 90.2 161.6 90.2 161.6 L 88.9 161.6 C 88.9 161.6 88.95 156.69 88.9 156.7 Z M 83.2 154.1 C 83.2 154.1 83.2 154.1 83.2 154.1 C 83.2 155.8 84.3 157.2 86 157.2 C 87.9 157.2 89 156.1 89 154 C 89 154 89 154 89 154 C 89 152.1 88.1 150.8 86.2 150.8 C 84.2 150.8 83.2 152.3 83.2 154.1 Z M 100.2 155.7 C 100.2 156.5 100.2 157.3 100.2 158 C 100.2 158 99.1 158 99.1 158 C 99 157.8 99 157.2 99 156.6 C 98.6 157.6 97.9 158.3 96.1 158.3 C 94.4 158.3 93 157.3 93 155 C 93.04 155.01 93 150 93 150 L 94.3 150 C 94.3 150 94.25 154.77 94.3 154.8 C 94.3 156 94.8 157.2 96.3 157.2 C 98.2 157.2 99 156.1 99 153.6 C 99.01 153.61 99 150 99 150 L 100.2 150 C 100.2 150 100.22 155.69 100.2 155.7 Z M 103.1 150 L 104.3 150 L 104.3 158 L 103.1 158 L 103.1 150 Z M 103.1 146 L 104.3 146 L 104.3 147.7 L 103.1 147.7 L 103.1 146 Z M 113.9 158 L 113.9 146 L 115.1 146 L 115.1 158 L 113.9 158 Z M 117.7 150.6 C 118.2 149.2 118.5 147.5 118.6 146 C 118.6 146 119.8 146 119.8 146 C 119.8 147.2 119.2 149.5 118.8 150.6 C 118.8 150.6 117.7 150.6 117.7 150.6 Z M 128.4 156.1 C 128.4 156.8 128.5 157.9 128.5 158 C 128.5 158 127.3 158 127.3 158 C 127.3 157.7 127.2 157.1 127.2 156.8 C 126.8 157.7 125.9 158.3 124.2 158.3 C 121.9 158.3 121 156.9 121 155.7 C 121 155.7 121 155.7 121 155.7 C 121 153.6 122.9 153.1 125.2 153.1 C 126.3 153.1 127 153.1 127.2 153.1 C 127.2 153.1 127.2 152.6 127.2 152.6 C 127.2 151.7 126.8 150.7 125 150.7 C 123.3 150.7 122.9 151.5 122.7 152.3 C 122.71 152.32 122.7 152.3 122.7 152.3 L 121.5 152.3 C 121.5 152.3 121.5 152.32 121.5 152.3 C 121.6 151.2 122.3 149.8 125 149.8 C 127.7 149.8 128.4 151.1 128.4 152.5 C 128.4 152.5 128.4 156.1 128.4 156.1 Z M 127.2 154 C 127 154 126.4 154 125.2 154 C 123.2 154 122.2 154.4 122.2 155.6 C 122.2 155.6 122.2 155.6 122.2 155.6 C 122.2 156.5 122.9 157.3 124.3 157.3 C 126.7 157.3 127.2 155.8 127.2 154.4 C 127.2 154.4 127.2 154 127.2 154 Z M 131.4 150 C 132 151.5 134 156.1 134.3 156.9 C 134.3 156.9 134.4 156.9 134.4 156.9 C 134.6 156.3 135.1 155 137.3 150 C 137.3 149.99 138.5 150 138.5 150 L 135 158 L 133.7 158 L 130 150 C 130 150 131.35 149.99 131.4 150 Z M 147 156.1 C 147 156.8 147 157.9 147 158 C 147 158 145.9 158 145.9 158 C 145.8 157.7 145.8 157.1 145.8 156.8 C 145.4 157.7 144.5 158.3 142.7 158.3 C 140.4 158.3 139.6 156.9 139.6 155.7 C 139.6 155.7 139.6 155.7 139.6 155.7 C 139.6 153.6 141.5 153.1 143.7 153.1 C 144.8 153.1 145.5 153.1 145.8 153.1 C 145.8 153.1 145.8 152.6 145.8 152.6 C 145.8 151.7 145.4 150.7 143.5 150.7 C 141.8 150.7 141.4 151.5 141.3 152.3 C 141.25 152.32 141.3 152.3 141.3 152.3 L 140 152.3 C 140 152.3 140.04 152.32 140 152.3 C 140.1 151.2 140.9 149.8 143.5 149.8 C 146.3 149.8 147 151.1 147 152.5 C 147 152.5 147 156.1 147 156.1 Z M 145.8 154 C 145.5 154 145 154 143.8 154 C 141.8 154 140.8 154.4 140.8 155.6 C 140.8 155.6 140.8 155.6 140.8 155.6 C 140.8 156.5 141.4 157.3 142.9 157.3 C 145.2 157.3 145.8 155.8 145.8 154.4 C 145.8 154.4 145.8 154 145.8 154 Z M 149.9 150 L 151.1 150 L 151.1 158 L 149.9 158 L 149.9 150 Z M 149.9 146 L 151.1 146 L 151.1 147.7 L 149.9 147.7 L 149.9 146 Z M 153 150 L 154.6 150 L 154.6 147.3 L 155.9 147.3 L 155.9 150 L 158 150 L 158 151 L 155.9 151 C 155.9 151 155.86 155.7 155.9 155.7 C 155.9 156.7 156.1 157.1 157 157.1 C 157.3 157.1 157.6 157.1 157.8 157.1 C 157.8 157.1 157.8 158 157.8 158 C 157.5 158.1 157.1 158.1 156.7 158.1 C 155.1 158.1 154.6 157.4 154.6 155.8 C 154.65 155.82 154.6 151 154.6 151 L 153 151 L 153 150 Z M 167.1 155.6 C 167.1 155.6 167.09 155.61 167.1 155.6 C 167.4 156.7 168.3 157.3 169.9 157.3 C 171.5 157.3 172.2 156.7 172.2 155.9 C 172.2 155.1 171.7 154.6 169.6 154.4 C 166.8 154 166.3 153.1 166.3 152.1 C 166.3 151.1 167.1 149.8 169.6 149.8 C 172.3 149.8 173.1 151.2 173.1 152.1 C 173.13 152.14 173.1 152.1 173.1 152.1 L 171.9 152.1 C 171.9 152.1 171.9 152.14 171.9 152.1 C 171.8 151.6 171.4 150.7 169.5 150.7 C 167.8 150.7 167.5 151.5 167.5 152 C 167.5 152.6 167.9 153.1 169.8 153.3 C 172.8 153.7 173.4 154.6 173.4 155.8 C 173.4 157.2 172.3 158.3 169.8 158.3 C 167.4 158.3 166.1 157.3 165.9 155.6 C 165.86 155.61 165.9 155.6 165.9 155.6 L 167.1 155.6 Z M 183.2 155.6 C 183.2 155.6 183.23 155.58 183.2 155.6 C 182.8 157 181.6 158.3 179.4 158.3 C 176.6 158.3 175.2 156.3 175.2 154.1 C 175.2 154.1 175.2 154.1 175.2 154.1 C 175.2 151.7 176.8 149.8 179.4 149.8 C 182 149.8 183 151.4 183.2 152.5 C 183.22 152.51 183.2 152.5 183.2 152.5 L 182 152.5 C 182 152.5 182.01 152.51 182 152.5 C 181.7 151.7 181 150.8 179.4 150.8 C 177.6 150.8 176.5 152.1 176.5 154 C 176.5 154 176.5 154 176.5 154 C 176.5 155.8 177.5 157.2 179.4 157.2 C 180.8 157.2 181.6 156.6 182 155.6 C 182.02 155.58 182 155.6 182 155.6 L 183.2 155.6 Z M 193.4 154 C 193.4 154 193.4 154 193.4 154 C 193.4 156.2 192 158.3 189.1 158.3 C 186.5 158.3 185 156.3 185 154 C 185 154 185 154 185 154 C 185 151.7 186.6 149.8 189.2 149.8 C 191.9 149.8 193.4 151.8 193.4 154 Z M 186.2 154 C 186.2 154 186.2 154 186.2 154 C 186.2 155.6 187.3 157.2 189.2 157.2 C 191.2 157.2 192.1 155.8 192.1 154 C 192.1 154 192.1 154 192.1 154 C 192.1 152.3 191 150.8 189.1 150.8 C 187.2 150.8 186.2 152.3 186.2 154 Z M 194.5 150 L 196.2 150 L 196.2 147.3 L 197.4 147.3 L 197.4 150 L 199.5 150 L 199.5 151 L 197.4 151 C 197.4 151 197.36 155.7 197.4 155.7 C 197.4 156.7 197.6 157.1 198.5 157.1 C 198.8 157.1 199.1 157.1 199.4 157.1 C 199.4 157.1 199.4 158 199.4 158 C 199 158.1 198.6 158.1 198.2 158.1 C 196.6 158.1 196.2 157.4 196.2 155.8 C 196.15 155.82 196.2 151 196.2 151 L 194.5 151 L 194.5 150 Z M 208.8 155.6 C 208.8 155.6 208.77 155.58 208.8 155.6 C 208.4 157 207.1 158.3 204.9 158.3 C 202.1 158.3 200.8 156.3 200.8 154.1 C 200.8 154.1 200.8 154.1 200.8 154.1 C 200.8 151.7 202.3 149.8 205 149.8 C 207.5 149.8 208.6 151.4 208.8 152.5 C 208.76 152.51 208.8 152.5 208.8 152.5 L 207.6 152.5 C 207.6 152.5 207.56 152.51 207.6 152.5 C 207.2 151.7 206.5 150.8 204.9 150.8 C 203.1 150.8 202 152.1 202 154 C 202 154 202 154 202 154 C 202 155.8 203.1 157.2 204.9 157.2 C 206.3 157.2 207.1 156.6 207.6 155.6 C 207.57 155.58 207.6 155.6 207.6 155.6 L 208.8 155.6 Z M 212.3 146 C 212.3 146 212.28 151.57 212.3 151.6 C 212.6 150.9 213.3 149.8 215.3 149.8 C 217.1 149.8 218.4 150.9 218.4 153.2 C 218.37 153.17 218.4 158 218.4 158 L 217.2 158 C 217.2 158 217.15 153.38 217.2 153.4 C 217.2 151.9 216.6 150.8 215 150.8 C 213.2 150.8 212.3 152.3 212.3 154.1 C 212.28 154.06 212.3 158 212.3 158 L 211.1 158 L 211.1 146 L 212.3 146 Z M 221.9 154.3 C 221.9 154.3 221.92 154.29 221.9 154.3 C 222 156 223.2 157.2 224.9 157.2 C 226.3 157.2 227 156.7 227.5 155.8 C 227.5 155.8 227.5 155.8 227.5 155.8 L 228.7 155.8 C 228.7 155.8 228.7 155.8 228.7 155.8 C 228.3 156.9 227.2 158.3 224.8 158.3 C 222.1 158.3 220.7 156.2 220.7 154 C 220.7 154 220.7 154 220.7 154 C 220.7 151.6 222.4 149.8 224.8 149.8 C 227.8 149.8 228.8 152 228.8 154 C 228.8 154.1 228.8 154.2 228.8 154.3 C 228.82 154.29 221.9 154.3 221.9 154.3 Z M 227.5 153.4 C 227.5 153.4 227.55 153.36 227.5 153.4 C 227.5 152.3 226.9 150.8 224.8 150.8 C 223 150.8 222.1 151.9 222 153.4 C 221.96 153.36 222 153.4 222 153.4 L 227.5 153.4 Z M 227.4 145.8 L 224.9 148.4 L 223.7 148.4 L 225.9 145.8 L 227.4 145.8 Z M 231.9 154.3 C 231.9 154.3 231.88 154.29 231.9 154.3 C 232 156 233.1 157.2 234.9 157.2 C 236.2 157.2 237 156.7 237.5 155.8 C 237.45 155.8 237.5 155.8 237.5 155.8 L 238.7 155.8 C 238.7 155.8 238.66 155.8 238.7 155.8 C 238.2 156.9 237.1 158.3 234.8 158.3 C 232 158.3 230.7 156.2 230.7 154 C 230.7 154 230.7 154 230.7 154 C 230.7 151.6 232.3 149.8 234.7 149.8 C 237.8 149.8 238.8 152 238.8 154 C 238.8 154.1 238.8 154.2 238.8 154.3 C 238.78 154.29 231.9 154.3 231.9 154.3 Z M 237.5 153.4 C 237.5 153.4 237.5 153.36 237.5 153.4 C 237.4 152.3 236.9 150.8 234.7 150.8 C 233 150.8 232.1 151.9 231.9 153.4 C 231.91 153.36 231.9 153.4 231.9 153.4 L 237.5 153.4 Z M 254.4 156.1 C 254.4 156.8 254.5 157.9 254.5 158 C 254.5 158 253.3 158 253.3 158 C 253.3 157.7 253.3 157.1 253.2 156.8 C 252.8 157.7 251.9 158.3 250.2 158.3 C 247.9 158.3 247 156.9 247 155.7 C 247 155.7 247 155.7 247 155.7 C 247 153.6 248.9 153.1 251.2 153.1 C 252.3 153.1 253 153.1 253.2 153.1 C 253.2 153.1 253.2 152.6 253.2 152.6 C 253.2 151.7 252.8 150.7 251 150.7 C 249.3 150.7 248.9 151.5 248.7 152.3 C 248.72 152.32 248.7 152.3 248.7 152.3 L 247.5 152.3 C 247.5 152.3 247.51 152.32 247.5 152.3 C 247.6 151.2 248.3 149.8 251 149.8 C 253.7 149.8 254.4 151.1 254.4 152.5 C 254.4 152.5 254.4 156.1 254.4 156.1 Z M 253.2 154 C 253 154 252.4 154 251.2 154 C 249.2 154 248.2 154.4 248.2 155.6 C 248.2 155.6 248.2 155.6 248.2 155.6 C 248.2 156.5 248.9 157.3 250.3 157.3 C 252.7 157.3 253.2 155.8 253.2 154.4 C 253.2 154.4 253.2 154 253.2 154 Z M 249.7 145.8 L 252 148.4 L 250.7 148.4 L 248.2 145.8 L 249.7 145.8 Z M 264.4 155.6 C 264.4 155.6 264.43 155.61 264.4 155.6 C 264.7 156.7 265.6 157.3 267.2 157.3 C 268.9 157.3 269.5 156.7 269.5 155.9 C 269.5 155.1 269.1 154.6 266.9 154.4 C 264.2 154 263.6 153.1 263.6 152.1 C 263.6 151.1 264.4 149.8 266.9 149.8 C 269.7 149.8 270.4 151.2 270.5 152.1 C 270.47 152.14 270.5 152.1 270.5 152.1 L 269.2 152.1 C 269.2 152.1 269.24 152.14 269.2 152.1 C 269.1 151.6 268.8 150.7 266.8 150.7 C 265.2 150.7 264.8 151.5 264.8 152 C 264.8 152.6 265.2 153.1 267.2 153.3 C 270.1 153.7 270.7 154.6 270.7 155.8 C 270.7 157.2 269.6 158.3 267.1 158.3 C 264.7 158.3 263.5 157.3 263.2 155.6 C 263.2 155.61 263.2 155.6 263.2 155.6 L 264.4 155.6 Z M 280.9 154 C 280.9 154 280.9 154 280.9 154 C 280.9 156.2 279.6 158.3 276.7 158.3 C 274.1 158.3 272.5 156.3 272.5 154 C 272.5 154 272.5 154 272.5 154 C 272.5 151.7 274.2 149.8 276.8 149.8 C 279.4 149.8 280.9 151.8 280.9 154 Z M 273.8 154 C 273.8 154 273.8 154 273.8 154 C 273.8 155.6 274.8 157.2 276.7 157.2 C 278.7 157.2 279.7 155.8 279.7 154 C 279.7 154 279.7 154 279.7 154 C 279.7 152.3 278.6 150.8 276.7 150.8 C 274.7 150.8 273.8 152.3 273.8 154 Z M 283.3 152 C 283.3 151.3 283.3 150.6 283.3 150 C 283.3 150 284.5 150 284.5 150 C 284.5 150.3 284.5 151 284.5 151.6 C 284.9 150.8 285.7 149.8 287.5 149.8 C 289.4 149.8 290.6 150.9 290.6 153.2 C 290.6 153.16 290.6 158 290.6 158 L 289.4 158 C 289.4 158 289.38 153.39 289.4 153.4 C 289.4 152 288.8 150.8 287.2 150.8 C 285.4 150.8 284.5 152.2 284.5 154.2 C 284.51 154.23 284.5 158 284.5 158 L 283.3 158 C 283.3 158 283.3 152.02 283.3 152 Z M 307.5 155.6 C 307.5 155.6 307.53 155.58 307.5 155.6 C 307.1 157 305.9 158.3 303.7 158.3 C 300.9 158.3 299.5 156.3 299.5 154.1 C 299.5 154.1 299.5 154.1 299.5 154.1 C 299.5 151.7 301.1 149.8 303.7 149.8 C 306.3 149.8 307.3 151.4 307.5 152.5 C 307.52 152.51 307.5 152.5 307.5 152.5 L 306.3 152.5 C 306.3 152.5 306.31 152.51 306.3 152.5 C 306 151.7 305.3 150.8 303.7 150.8 C 301.9 150.8 300.8 152.1 300.8 154 C 300.8 154 300.8 154 300.8 154 C 300.8 155.8 301.8 157.2 303.7 157.2 C 305.1 157.2 305.9 156.6 306.3 155.6 C 306.32 155.58 306.3 155.6 306.3 155.6 L 307.5 155.6 Z M 316.7 156.1 C 316.7 156.8 316.8 157.9 316.8 158 C 316.8 158 315.7 158 315.7 158 C 315.6 157.7 315.6 157.1 315.6 156.8 C 315.1 157.7 314.2 158.3 312.5 158.3 C 310.2 158.3 309.4 156.9 309.4 155.7 C 309.4 155.7 309.4 155.7 309.4 155.7 C 309.4 153.6 311.2 153.1 313.5 153.1 C 314.6 153.1 315.3 153.1 315.6 153.1 C 315.6 153.1 315.6 152.6 315.6 152.6 C 315.6 151.7 315.1 150.7 313.3 150.7 C 311.6 150.7 311.2 151.5 311 152.3 C 311.03 152.32 311 152.3 311 152.3 L 309.8 152.3 C 309.8 152.3 309.82 152.32 309.8 152.3 C 309.9 151.2 310.6 149.8 313.3 149.8 C 316 149.8 316.7 151.1 316.7 152.5 C 316.7 152.5 316.7 156.1 316.7 156.1 Z M 315.6 154 C 315.3 154 314.8 154 313.5 154 C 311.5 154 310.6 154.4 310.6 155.6 C 310.6 155.6 310.6 155.6 310.6 155.6 C 310.6 156.5 311.2 157.3 312.7 157.3 C 315 157.3 315.6 155.8 315.6 154.4 C 315.6 154.4 315.6 154 315.6 154 Z M 319.6 152 C 319.6 151.3 319.6 150.6 319.6 150 C 319.6 150 320.8 150 320.8 150 C 320.8 150.3 320.9 151 320.9 151.6 C 321.2 150.8 322.1 149.8 323.8 149.8 C 325.7 149.8 326.9 150.9 326.9 153.2 C 326.94 153.16 326.9 158 326.9 158 L 325.7 158 C 325.7 158 325.73 153.39 325.7 153.4 C 325.7 152 325.2 150.8 323.6 150.8 C 321.8 150.8 320.9 152.2 320.9 154.2 C 320.86 154.23 320.9 158 320.9 158 L 319.6 158 C 319.6 158 319.64 152.02 319.6 152 Z M 336.7 156.1 C 336.7 156.8 336.7 157.9 336.8 158 C 336.8 158 335.6 158 335.6 158 C 335.5 157.7 335.5 157.1 335.5 156.8 C 335.1 157.7 334.2 158.3 332.4 158.3 C 330.1 158.3 329.3 156.9 329.3 155.7 C 329.3 155.7 329.3 155.7 329.3 155.7 C 329.3 153.6 331.2 153.1 333.4 153.1 C 334.5 153.1 335.2 153.1 335.5 153.1 C 335.5 153.1 335.5 152.6 335.5 152.6 C 335.5 151.7 335.1 150.7 333.2 150.7 C 331.5 150.7 331.1 151.5 331 152.3 C 330.97 152.32 331 152.3 331 152.3 L 329.8 152.3 C 329.8 152.3 329.76 152.32 329.8 152.3 C 329.9 151.2 330.6 149.8 333.2 149.8 C 336 149.8 336.7 151.1 336.7 152.5 C 336.7 152.5 336.7 156.1 336.7 156.1 Z M 335.5 154 C 335.2 154 334.7 154 333.5 154 C 331.5 154 330.5 154.4 330.5 155.6 C 330.5 155.6 330.5 155.6 330.5 155.6 C 330.5 156.5 331.1 157.3 332.6 157.3 C 335 157.3 335.5 155.8 335.5 154.4 C 335.5 154.4 335.5 154 335.5 154 Z M 340.8 156.7 C 340.79 156.73 340.8 161.6 340.8 161.6 L 339.6 161.6 C 339.6 161.6 339.58 152.01 339.6 152 C 339.6 151.3 339.6 150.7 339.6 150 C 339.6 150 340.7 150 340.7 150 C 340.8 150.2 340.8 150.8 340.8 151.5 C 341.3 150.6 342.2 149.8 344 149.8 C 346.2 149.8 347.7 151.6 347.7 153.9 C 347.7 153.9 347.7 153.9 347.7 153.9 C 347.7 156.5 346 158.3 343.7 158.3 C 342 158.3 341.2 157.5 340.8 156.7 Z M 346.5 153.9 C 346.5 153.9 346.5 153.9 346.5 153.9 C 346.5 152.4 345.6 150.8 343.6 150.8 C 341.6 150.8 340.8 152.3 340.8 154.1 C 340.8 154.1 340.8 154.1 340.8 154.1 C 340.8 155.8 341.7 157.2 343.6 157.2 C 345.5 157.2 346.5 155.6 346.5 153.9 Z M 350.8 154.3 C 350.8 154.3 350.8 154.29 350.8 154.3 C 350.9 156 352 157.2 353.8 157.2 C 355.1 157.2 355.9 156.7 356.4 155.8 C 356.37 155.8 356.4 155.8 356.4 155.8 L 357.6 155.8 C 357.6 155.8 357.58 155.8 357.6 155.8 C 357.2 156.9 356 158.3 353.7 158.3 C 350.9 158.3 349.6 156.2 349.6 154 C 349.6 154 349.6 154 349.6 154 C 349.6 151.6 351.2 149.8 353.6 149.8 C 356.7 149.8 357.7 152 357.7 154 C 357.7 154.1 357.7 154.2 357.7 154.3 C 357.7 154.29 350.8 154.3 350.8 154.3 Z M 356.4 153.4 C 356.4 153.4 356.42 153.36 356.4 153.4 C 356.3 152.3 355.8 150.8 353.6 150.8 C 351.9 150.8 351 151.9 350.8 153.4 C 350.83 153.36 350.8 153.4 350.8 153.4 L 356.4 153.4 Z M 356.3 145.8 L 353.8 148.4 L 352.6 148.4 L 354.8 145.8 L 356.3 145.8 Z M 358.8 160.3 C 359.7 158.5 360.1 157 360.2 155.6 C 360.2 155.6 361.4 155.6 361.4 155.6 C 361.3 156.9 360.8 158.9 359.9 160.3 C 359.9 160.3 358.8 160.3 358.8 160.3 Z M 370.6 158 L 370.6 146 L 371.8 146 L 371.8 158 L 370.6 158 Z M 381.6 156.1 C 381.6 156.8 381.7 157.9 381.7 158 C 381.7 158 380.5 158 380.5 158 C 380.5 157.7 380.4 157.1 380.4 156.8 C 380 157.7 379.1 158.3 377.3 158.3 C 375 158.3 374.2 156.9 374.2 155.7 C 374.2 155.7 374.2 155.7 374.2 155.7 C 374.2 153.6 376.1 153.1 378.4 153.1 C 379.4 153.1 380.1 153.1 380.4 153.1 C 380.4 153.1 380.4 152.6 380.4 152.6 C 380.4 151.7 380 150.7 378.1 150.7 C 376.5 150.7 376.1 151.5 375.9 152.3 C 375.9 152.32 375.9 152.3 375.9 152.3 L 374.7 152.3 C 374.7 152.3 374.69 152.32 374.7 152.3 C 374.8 151.2 375.5 149.8 378.1 149.8 C 380.9 149.8 381.6 151.1 381.6 152.5 C 381.6 152.5 381.6 156.1 381.6 156.1 Z M 380.4 154 C 380.1 154 379.6 154 378.4 154 C 376.4 154 375.4 154.4 375.4 155.6 C 375.4 155.6 375.4 155.6 375.4 155.6 C 375.4 156.5 376.1 157.3 377.5 157.3 C 379.9 157.3 380.4 155.8 380.4 154.4 C 380.4 154.4 380.4 154 380.4 154 Z M 398.6 155.6 C 398.6 155.6 398.56 155.58 398.6 155.6 C 398.1 157 396.9 158.3 394.7 158.3 C 391.9 158.3 390.5 156.3 390.5 154.1 C 390.5 154.1 390.5 154.1 390.5 154.1 C 390.5 151.7 392.1 149.8 394.7 149.8 C 397.3 149.8 398.3 151.4 398.5 152.5 C 398.55 152.51 398.5 152.5 398.5 152.5 L 397.3 152.5 C 397.3 152.5 397.34 152.51 397.3 152.5 C 397 151.7 396.3 150.8 394.7 150.8 C 392.9 150.8 391.8 152.1 391.8 154 C 391.8 154 391.8 154 391.8 154 C 391.8 155.8 392.9 157.2 394.7 157.2 C 396.1 157.2 396.9 156.6 397.4 155.6 C 397.35 155.58 397.4 155.6 397.4 155.6 L 398.6 155.6 Z M 407.8 156.1 C 407.8 156.8 407.8 157.9 407.8 158 C 407.8 158 406.7 158 406.7 158 C 406.6 157.7 406.6 157.1 406.6 156.8 C 406.2 157.7 405.3 158.3 403.5 158.3 C 401.2 158.3 400.4 156.9 400.4 155.7 C 400.4 155.7 400.4 155.7 400.4 155.7 C 400.4 153.6 402.3 153.1 404.5 153.1 C 405.6 153.1 406.3 153.1 406.6 153.1 C 406.6 153.1 406.6 152.6 406.6 152.6 C 406.6 151.7 406.2 150.7 404.3 150.7 C 402.6 150.7 402.2 151.5 402.1 152.3 C 402.06 152.32 402.1 152.3 402.1 152.3 L 400.9 152.3 C 400.9 152.3 400.86 152.32 400.9 152.3 C 401 151.2 401.7 149.8 404.3 149.8 C 407.1 149.8 407.8 151.1 407.8 152.5 C 407.8 152.5 407.8 156.1 407.8 156.1 Z M 406.6 154 C 406.3 154 405.8 154 404.6 154 C 402.6 154 401.6 154.4 401.6 155.6 C 401.6 155.6 401.6 155.6 401.6 155.6 C 401.6 156.5 402.2 157.3 403.7 157.3 C 406.1 157.3 406.6 155.8 406.6 154.4 C 406.6 154.4 406.6 154 406.6 154 Z M 410.7 152.1 C 410.7 151.4 410.7 150.7 410.7 150 C 410.7 150 411.8 150 411.8 150 C 411.9 150.3 411.9 150.8 411.9 151.3 C 412.3 150.5 413.1 149.8 414.5 149.8 C 415.8 149.8 416.6 150.4 417 151.4 C 417.4 150.6 418.2 149.8 419.8 149.8 C 421.3 149.8 422.6 150.7 422.6 153 C 422.63 153.03 422.6 158 422.6 158 L 421.4 158 C 421.4 158 421.42 153.09 421.4 153.1 C 421.4 152.1 421.1 150.8 419.6 150.8 C 418.2 150.8 417.3 151.8 417.3 153.6 C 417.25 153.64 417.3 158 417.3 158 L 416.1 158 C 416.1 158 416.05 153 416.1 153 C 416.1 152 415.7 150.8 414.2 150.8 C 412.5 150.8 411.9 152.1 411.9 153.8 C 411.88 153.78 411.9 158 411.9 158 L 410.7 158 C 410.7 158 410.68 152.07 410.7 152.1 Z M 426.2 154.3 C 426.2 154.3 426.23 154.29 426.2 154.3 C 426.3 156 427.5 157.2 429.2 157.2 C 430.6 157.2 431.3 156.7 431.8 155.8 C 431.8 155.8 431.8 155.8 431.8 155.8 L 433 155.8 C 433 155.8 433.01 155.8 433 155.8 C 432.6 156.9 431.5 158.3 429.1 158.3 C 426.4 158.3 425 156.2 425 154 C 425 154 425 154 425 154 C 425 151.6 426.7 149.8 429.1 149.8 C 432.1 149.8 433.1 152 433.1 154 C 433.1 154.1 433.1 154.2 433.1 154.3 C 433.13 154.29 426.2 154.3 426.2 154.3 Z M 431.9 153.4 C 431.9 153.4 431.85 153.36 431.9 153.4 C 431.8 152.3 431.2 150.8 429.1 150.8 C 427.3 150.8 426.4 151.9 426.3 153.4 C 426.26 153.36 426.3 153.4 426.3 153.4 L 431.9 153.4 Z M 431.7 145.8 L 429.2 148.4 L 428 148.4 L 430.2 145.8 L 431.7 145.8 Z M 435.5 152.2 C 435.5 151.5 435.5 150.7 435.5 150 C 435.5 150 436.6 150 436.6 150 C 436.7 150.2 436.7 151 436.7 151.9 C 437.2 150.6 438.5 149.8 440 149.8 C 440 149.8 440 151 440 151 C 438.1 150.9 436.7 152.2 436.7 154.6 C 436.7 154.56 436.7 158 436.7 158 L 435.5 158 C 435.5 158 435.49 152.18 435.5 152.2 Z M 448.6 156.1 C 448.6 156.8 448.7 157.9 448.7 158 C 448.7 158 447.5 158 447.5 158 C 447.5 157.7 447.5 157.1 447.4 156.8 C 447 157.7 446.1 158.3 444.4 158.3 C 442.1 158.3 441.2 156.9 441.2 155.7 C 441.2 155.7 441.2 155.7 441.2 155.7 C 441.2 153.6 443.1 153.1 445.4 153.1 C 446.5 153.1 447.2 153.1 447.4 153.1 C 447.4 153.1 447.4 152.6 447.4 152.6 C 447.4 151.7 447 150.7 445.2 150.7 C 443.5 150.7 443.1 151.5 442.9 152.3 C 442.92 152.32 442.9 152.3 442.9 152.3 L 441.7 152.3 C 441.7 152.3 441.71 152.32 441.7 152.3 C 441.8 151.2 442.5 149.8 445.2 149.8 C 447.9 149.8 448.6 151.1 448.6 152.5 C 448.6 152.5 448.6 156.1 448.6 156.1 Z M 447.4 154 C 447.2 154 446.6 154 445.4 154 C 443.4 154 442.5 154.4 442.5 155.6 C 442.5 155.6 442.5 155.6 442.5 155.6 C 442.5 156.5 443.1 157.3 444.5 157.3 C 446.9 157.3 447.4 155.8 447.4 154.4 C 447.4 154.4 447.4 154 447.4 154 Z " stroke="none" fill="#141414"/>  </g>  <g id="Polygon9713">    <path d="M 8.9 121.7 C 8.9 121.7 8.86 131.36 8.9 131.4 C 8.9 132.1 8.9 132.9 8.9 133.7 C 8.9 133.7 7.7 133.7 7.7 133.7 C 7.7 133.3 7.7 132.8 7.7 132.4 C 7.3 133.1 6.5 133.9 4.6 133.9 C 2.3 133.9 0.7 132.2 0.7 129.8 C 0.7 129.8 0.7 129.8 0.7 129.8 C 0.7 127.1 2.7 125.4 4.8 125.4 C 6.8 125.4 7.4 126.4 7.7 126.8 C 7.65 126.81 7.7 121.7 7.7 121.7 L 8.9 121.7 Z M 2 129.7 C 2 129.7 2 129.7 2 129.7 C 2 131.3 2.9 132.9 4.8 132.9 C 6.9 132.9 7.7 131.6 7.7 129.7 C 7.7 129.7 7.7 129.7 7.7 129.7 C 7.7 127.8 7.1 126.5 4.9 126.5 C 2.9 126.5 2 128.1 2 129.7 Z M 12.5 130 C 12.5 130 12.46 129.97 12.5 130 C 12.5 131.7 13.7 132.9 15.4 132.9 C 16.8 132.9 17.6 132.3 18 131.5 C 18.03 131.48 18 131.5 18 131.5 L 19.2 131.5 C 19.2 131.5 19.24 131.48 19.2 131.5 C 18.8 132.6 17.7 133.9 15.3 133.9 C 12.6 133.9 11.2 131.9 11.2 129.7 C 11.2 129.7 11.2 129.7 11.2 129.7 C 11.2 127.2 12.9 125.4 15.3 125.4 C 18.3 125.4 19.4 127.7 19.4 129.6 C 19.4 129.7 19.4 129.8 19.4 130 C 19.36 129.97 12.5 130 12.5 130 Z M 18.1 129 C 18.1 129 18.08 129.04 18.1 129 C 18 128 17.4 126.4 15.3 126.4 C 13.6 126.4 12.6 127.6 12.5 129 C 12.49 129.04 12.5 129 12.5 129 L 18.1 129 Z M 18 121.5 L 15.4 124.1 L 14.2 124.1 L 16.5 121.5 L 18 121.5 Z M 22.1 133.7 L 22.1 126.7 L 20.5 126.7 L 20.5 125.7 L 22.1 125.7 C 22.1 125.7 22.09 124.47 22.1 124.5 C 22.1 122.7 22.8 121.5 24.7 121.5 C 25.1 121.5 25.4 121.6 25.6 121.6 C 25.6 121.6 25.6 122.7 25.6 122.7 C 25.3 122.6 25 122.6 24.8 122.6 C 23.6 122.6 23.3 123.1 23.3 124.6 C 23.31 124.57 23.3 125.7 23.3 125.7 L 25.3 125.7 L 25.3 126.7 L 23.3 126.7 L 23.3 133.7 L 22.1 133.7 Z M 27.2 125.7 L 28.5 125.7 L 28.5 133.7 L 27.2 133.7 L 27.2 125.7 Z M 27.2 121.7 L 28.5 121.7 L 28.5 123.4 L 27.2 123.4 L 27.2 121.7 Z M 31.2 133.7 L 31.2 131.3 L 32.5 131.3 L 32.5 133.7 L 31.2 133.7 Z M 51.7 130.5 C 51.7 130.5 51.68 130.46 51.7 130.5 C 51 132.4 49.6 134 46.5 134 C 42.8 134 40.7 131.4 40.7 128.1 C 40.7 128.1 40.7 128.1 40.7 128.1 C 40.7 124.7 43 122.1 46.5 122.1 C 49.8 122.1 51.2 123.8 51.7 125.7 C 51.72 125.67 51.7 125.7 51.7 125.7 L 50.4 125.7 C 50.4 125.7 50.4 125.67 50.4 125.7 C 49.8 124.3 48.8 123.2 46.5 123.2 C 43.8 123.2 42 125.2 42 128 C 42 128 42 128 42 128 C 42 130.7 43.8 132.8 46.5 132.8 C 48.8 132.8 49.7 131.8 50.4 130.5 C 50.38 130.46 50.4 130.5 50.4 130.5 L 51.7 130.5 Z M 54 126.2 C 54.4 124.9 54.7 123.1 54.8 121.7 C 54.8 121.7 56.1 121.7 56.1 121.7 C 56 122.9 55.5 125.1 55 126.2 C 55 126.2 54 126.2 54 126.2 Z M 58.5 130 C 58.5 130 58.48 129.97 58.5 130 C 58.6 131.7 59.7 132.9 61.5 132.9 C 62.8 132.9 63.6 132.3 64.1 131.5 C 64.05 131.48 64.1 131.5 64.1 131.5 L 65.3 131.5 C 65.3 131.5 65.26 131.48 65.3 131.5 C 64.8 132.6 63.7 133.9 61.4 133.9 C 58.6 133.9 57.3 131.9 57.3 129.7 C 57.3 129.7 57.3 129.7 57.3 129.7 C 57.3 127.2 58.9 125.4 61.3 125.4 C 64.4 125.4 65.4 127.7 65.4 129.6 C 65.4 129.7 65.4 129.8 65.4 130 C 65.38 129.97 58.5 130 58.5 130 Z M 64.1 129 C 64.1 129 64.1 129.04 64.1 129 C 64 128 63.5 126.4 61.3 126.4 C 59.6 126.4 58.7 127.6 58.5 129 C 58.51 129.04 58.5 129 58.5 129 L 64.1 129 Z M 68.3 131.3 C 68.3 131.3 68.31 131.29 68.3 131.3 C 68.6 132.4 69.5 133 71.1 133 C 72.8 133 73.4 132.4 73.4 131.5 C 73.4 130.8 73 130.3 70.8 130 C 68 129.7 67.5 128.8 67.5 127.8 C 67.5 126.8 68.3 125.4 70.8 125.4 C 73.6 125.4 74.3 126.9 74.3 127.8 C 74.35 127.82 74.3 127.8 74.3 127.8 L 73.1 127.8 C 73.1 127.8 73.12 127.82 73.1 127.8 C 73 127.3 72.7 126.4 70.7 126.4 C 69.1 126.4 68.7 127.1 68.7 127.7 C 68.7 128.3 69.1 128.7 71.1 129 C 74 129.4 74.6 130.2 74.6 131.5 C 74.6 132.9 73.5 133.9 71 133.9 C 68.6 133.9 67.4 132.9 67.1 131.3 C 67.08 131.29 67.1 131.3 67.1 131.3 L 68.3 131.3 Z M 76 125.7 L 77.6 125.7 L 77.6 123 L 78.8 123 L 78.8 125.7 L 81 125.7 L 81 126.7 L 78.8 126.7 C 78.8 126.7 78.83 131.38 78.8 131.4 C 78.8 132.4 79.1 132.8 80 132.8 C 80.2 132.8 80.6 132.8 80.8 132.7 C 80.8 132.7 80.8 133.7 80.8 133.7 C 80.5 133.8 80.1 133.8 79.7 133.8 C 78.1 133.8 77.6 133.1 77.6 131.5 C 77.61 131.5 77.6 126.7 77.6 126.7 L 76 126.7 L 76 125.7 Z M 96.2 131.4 C 96.2 132.2 96.2 132.9 96.2 133.7 C 96.2 133.7 95.1 133.7 95.1 133.7 C 95 133.5 95 132.9 95 132.2 C 94.6 133.2 93.8 133.9 92.1 133.9 C 90.4 133.9 89 133 89 130.7 C 89.03 130.69 89 125.7 89 125.7 L 90.2 125.7 C 90.2 125.7 90.24 130.45 90.2 130.5 C 90.2 131.7 90.7 132.9 92.3 132.9 C 94.2 132.9 95 131.8 95 129.3 C 95.01 129.29 95 125.7 95 125.7 L 96.2 125.7 C 96.2 125.7 96.21 131.37 96.2 131.4 Z M 99.1 127.7 C 99.1 127 99.1 126.3 99.1 125.7 C 99.1 125.7 100.3 125.7 100.3 125.7 C 100.3 126 100.3 126.7 100.3 127.3 C 100.7 126.5 101.6 125.4 103.3 125.4 C 105.2 125.4 106.4 126.6 106.4 128.8 C 106.43 128.84 106.4 133.7 106.4 133.7 L 105.2 133.7 C 105.2 133.7 105.21 129.07 105.2 129.1 C 105.2 127.6 104.7 126.5 103.1 126.5 C 101.2 126.5 100.3 127.9 100.3 129.9 C 100.34 129.91 100.3 133.7 100.3 133.7 L 99.1 133.7 C 99.1 133.7 99.13 127.7 99.1 127.7 Z M 110 130 C 110 130 109.98 129.97 110 130 C 110.1 131.7 111.2 132.9 113 132.9 C 114.3 132.9 115.1 132.3 115.6 131.5 C 115.55 131.48 115.6 131.5 115.6 131.5 L 116.8 131.5 C 116.8 131.5 116.76 131.48 116.8 131.5 C 116.3 132.6 115.2 133.9 112.9 133.9 C 110.1 133.9 108.8 131.9 108.8 129.7 C 108.8 129.7 108.8 129.7 108.8 129.7 C 108.8 127.2 110.4 125.4 112.8 125.4 C 115.9 125.4 116.9 127.7 116.9 129.6 C 116.9 129.7 116.9 129.8 116.9 130 C 116.88 129.97 110 130 110 130 Z M 115.6 129 C 115.6 129 115.6 129.04 115.6 129 C 115.5 128 115 126.4 112.8 126.4 C 111.1 126.4 110.2 127.6 110 129 C 110.02 129.04 110 129 110 129 L 115.6 129 Z M 125.4 125.7 C 126 127.2 128.1 131.7 128.4 132.6 C 128.4 132.6 128.4 132.6 128.4 132.6 C 128.6 132 129.1 130.7 131.3 125.7 C 131.32 125.67 132.6 125.7 132.6 125.7 L 129 133.7 L 127.7 133.7 L 124.1 125.7 C 124.1 125.7 125.38 125.67 125.4 125.7 Z M 134.5 127.9 C 134.5 127.1 134.5 126.4 134.5 125.7 C 134.5 125.7 135.7 125.7 135.7 125.7 C 135.7 125.9 135.7 126.7 135.7 127.5 C 136.3 126.3 137.5 125.4 139 125.4 C 139 125.4 139 126.6 139 126.6 C 137.2 126.6 135.7 127.8 135.7 130.2 C 135.71 130.24 135.7 133.7 135.7 133.7 L 134.5 133.7 C 134.5 133.7 134.5 127.86 134.5 127.9 Z M 147.6 131.8 C 147.6 132.5 147.7 133.5 147.7 133.7 C 147.7 133.7 146.6 133.7 146.6 133.7 C 146.5 133.4 146.5 132.7 146.5 132.5 C 146 133.3 145.1 133.9 143.4 133.9 C 141.1 133.9 140.3 132.6 140.3 131.4 C 140.3 131.4 140.3 131.4 140.3 131.4 C 140.3 129.3 142.1 128.8 144.4 128.8 C 145.5 128.8 146.2 128.8 146.5 128.8 C 146.5 128.8 146.5 128.3 146.5 128.3 C 146.5 127.3 146.1 126.4 144.2 126.4 C 142.5 126.4 142.1 127.2 141.9 128 C 141.93 128 141.9 128 141.9 128 L 140.7 128 C 140.7 128 140.72 128 140.7 128 C 140.8 126.9 141.5 125.4 144.2 125.4 C 146.9 125.4 147.6 126.8 147.6 128.1 C 147.6 128.1 147.6 131.8 147.6 131.8 Z M 146.5 129.7 C 146.2 129.7 145.7 129.7 144.4 129.7 C 142.4 129.7 141.5 130.1 141.5 131.3 C 141.5 131.3 141.5 131.3 141.5 131.3 C 141.5 132.2 142.1 132.9 143.6 132.9 C 145.9 132.9 146.5 131.5 146.5 130.1 C 146.5 130.1 146.5 129.7 146.5 129.7 Z M 150.5 125.7 L 151.8 125.7 L 151.8 133.7 L 150.5 133.7 L 150.5 125.7 Z M 150.5 121.7 L 151.8 121.7 L 151.8 123.4 L 150.5 123.4 L 150.5 121.7 Z M 155.4 130 C 155.4 130 155.37 129.97 155.4 130 C 155.5 131.7 156.6 132.9 158.4 132.9 C 159.7 132.9 160.5 132.3 160.9 131.5 C 160.94 131.48 160.9 131.5 160.9 131.5 L 162.1 131.5 C 162.1 131.5 162.15 131.48 162.1 131.5 C 161.7 132.6 160.6 133.9 158.3 133.9 C 155.5 133.9 154.1 131.9 154.1 129.7 C 154.1 129.7 154.1 129.7 154.1 129.7 C 154.1 127.2 155.8 125.4 158.2 125.4 C 161.2 125.4 162.3 127.7 162.3 129.6 C 162.3 129.7 162.3 129.8 162.3 130 C 162.27 129.97 155.4 130 155.4 130 Z M 161 129 C 161 129 160.99 129.04 161 129 C 160.9 128 160.4 126.4 158.2 126.4 C 156.5 126.4 155.6 127.6 155.4 129 C 155.4 129.04 155.4 129 155.4 129 L 161 129 Z M 170.5 121.7 L 171.8 121.7 C 171.8 121.7 171.75 127.02 171.8 127 C 172.2 126.4 173.1 125.4 174.8 125.4 C 177.1 125.4 178.7 127.2 178.7 129.6 C 178.7 129.6 178.7 129.6 178.7 129.6 C 178.7 132.2 177.1 133.9 174.8 133.9 C 173 133.9 172.2 133.1 171.7 132.4 C 171.7 132.8 171.7 133.4 171.7 133.7 C 171.7 133.7 170.5 133.7 170.5 133.7 C 170.5 132.7 170.5 131.9 170.5 130.9 C 170.54 130.93 170.5 121.7 170.5 121.7 Z M 177.4 129.6 C 177.4 129.6 177.4 129.6 177.4 129.6 C 177.4 128.2 176.6 126.5 174.6 126.5 C 172.6 126.5 171.7 127.9 171.7 129.7 C 171.7 129.7 171.7 129.7 171.7 129.7 C 171.7 131.7 172.9 132.9 174.6 132.9 C 176.7 132.9 177.4 131.3 177.4 129.6 Z M 187.9 131.8 C 187.9 132.5 187.9 133.5 188 133.7 C 188 133.7 186.8 133.7 186.8 133.7 C 186.7 133.4 186.7 132.7 186.7 132.5 C 186.3 133.3 185.4 133.9 183.6 133.9 C 181.3 133.9 180.5 132.6 180.5 131.4 C 180.5 131.4 180.5 131.4 180.5 131.4 C 180.5 129.3 182.4 128.8 184.7 128.8 C 185.7 128.8 186.4 128.8 186.7 128.8 C 186.7 128.8 186.7 128.3 186.7 128.3 C 186.7 127.3 186.3 126.4 184.4 126.4 C 182.8 126.4 182.4 127.2 182.2 128 C 182.18 128 182.2 128 182.2 128 L 181 128 C 181 128 180.97 128 181 128 C 181.1 126.9 181.8 125.4 184.4 125.4 C 187.2 125.4 187.9 126.8 187.9 128.1 C 187.9 128.1 187.9 131.8 187.9 131.8 Z M 186.7 129.7 C 186.4 129.7 185.9 129.7 184.7 129.7 C 182.7 129.7 181.7 130.1 181.7 131.3 C 181.7 131.3 181.7 131.3 181.7 131.3 C 181.7 132.2 182.4 132.9 183.8 132.9 C 186.2 132.9 186.7 131.5 186.7 130.1 C 186.7 130.1 186.7 129.7 186.7 129.7 Z M 191.3 131.3 C 191.3 131.3 191.3 131.29 191.3 131.3 C 191.6 132.4 192.5 133 194.1 133 C 195.8 133 196.4 132.4 196.4 131.5 C 196.4 130.8 196 130.3 193.8 130 C 191 129.7 190.5 128.8 190.5 127.8 C 190.5 126.8 191.3 125.4 193.8 125.4 C 196.5 125.4 197.3 126.9 197.3 127.8 C 197.34 127.82 197.3 127.8 197.3 127.8 L 196.1 127.8 C 196.1 127.8 196.11 127.82 196.1 127.8 C 196 127.3 195.6 126.4 193.7 126.4 C 192 126.4 191.7 127.1 191.7 127.7 C 191.7 128.3 192.1 128.7 194 129 C 197 129.4 197.6 130.2 197.6 131.5 C 197.6 132.9 196.5 133.9 194 133.9 C 191.6 133.9 190.4 132.9 190.1 131.3 C 190.07 131.29 190.1 131.3 190.1 131.3 L 191.3 131.3 Z M 207.4 131.3 C 207.4 131.3 207.44 131.26 207.4 131.3 C 207 132.7 205.8 133.9 203.6 133.9 C 200.8 133.9 199.4 132 199.4 129.7 C 199.4 129.7 199.4 129.7 199.4 129.7 C 199.4 127.4 201 125.4 203.6 125.4 C 206.2 125.4 207.2 127.1 207.4 128.2 C 207.43 128.19 207.4 128.2 207.4 128.2 L 206.2 128.2 C 206.2 128.2 206.22 128.19 206.2 128.2 C 205.9 127.3 205.2 126.5 203.6 126.5 C 201.8 126.5 200.7 127.8 200.7 129.7 C 200.7 129.7 200.7 129.7 200.7 129.7 C 200.7 131.5 201.7 132.9 203.6 132.9 C 205 132.9 205.8 132.2 206.2 131.3 C 206.23 131.26 206.2 131.3 206.2 131.3 L 207.4 131.3 Z M 216.9 131.4 C 216.9 132.2 216.9 132.9 216.9 133.7 C 216.9 133.7 215.7 133.7 215.7 133.7 C 215.7 133.5 215.7 132.9 215.7 132.2 C 215.2 133.2 214.5 133.9 212.7 133.9 C 211 133.9 209.7 133 209.7 130.7 C 209.68 130.69 209.7 125.7 209.7 125.7 L 210.9 125.7 C 210.9 125.7 210.88 130.45 210.9 130.5 C 210.9 131.7 211.4 132.9 212.9 132.9 C 214.8 132.9 215.6 131.8 215.6 129.3 C 215.65 129.29 215.6 125.7 215.6 125.7 L 216.9 125.7 C 216.9 125.7 216.86 131.37 216.9 131.4 Z M 219.8 133.7 L 219.8 121.7 L 221 121.7 L 221 133.7 L 219.8 133.7 Z M 224.6 130 C 224.6 130 224.59 129.97 224.6 130 C 224.7 131.7 225.8 132.9 227.6 132.9 C 228.9 132.9 229.7 132.3 230.2 131.5 C 230.16 131.48 230.2 131.5 230.2 131.5 L 231.4 131.5 C 231.4 131.5 231.37 131.48 231.4 131.5 C 231 132.6 229.8 133.9 227.5 133.9 C 224.7 133.9 223.4 131.9 223.4 129.7 C 223.4 129.7 223.4 129.7 223.4 129.7 C 223.4 127.2 225 125.4 227.4 125.4 C 230.5 125.4 231.5 127.7 231.5 129.6 C 231.5 129.7 231.5 129.8 231.5 130 C 231.49 129.97 224.6 130 224.6 130 Z M 230.2 129 C 230.2 129 230.21 129.04 230.2 129 C 230.1 128 229.6 126.4 227.4 126.4 C 225.7 126.4 224.8 127.6 224.6 129 C 224.62 129.04 224.6 129 224.6 129 L 230.2 129 Z M 247.3 121.7 C 247.3 121.7 247.28 131.36 247.3 131.4 C 247.3 132.1 247.3 132.9 247.3 133.7 C 247.3 133.7 246.1 133.7 246.1 133.7 C 246.1 133.3 246.1 132.8 246.1 132.4 C 245.7 133.1 245 133.9 243 133.9 C 240.7 133.9 239.1 132.2 239.1 129.8 C 239.1 129.8 239.1 129.8 239.1 129.8 C 239.1 127.1 241.1 125.4 243.2 125.4 C 245.2 125.4 245.8 126.4 246.1 126.8 C 246.07 126.81 246.1 121.7 246.1 121.7 L 247.3 121.7 Z M 240.4 129.7 C 240.4 129.7 240.4 129.7 240.4 129.7 C 240.4 131.3 241.3 132.9 243.2 132.9 C 245.3 132.9 246.1 131.6 246.1 129.7 C 246.1 129.7 246.1 129.7 246.1 129.7 C 246.1 127.8 245.5 126.5 243.3 126.5 C 241.3 126.5 240.4 128.1 240.4 129.7 Z M 249.9 126.2 C 250.3 124.9 250.7 123.1 250.8 121.7 C 250.8 121.7 252 121.7 252 121.7 C 251.9 122.9 251.4 125.1 250.9 126.2 C 250.9 126.2 249.9 126.2 249.9 126.2 Z M 254.3 130 C 254.3 130 254.3 129.97 254.3 130 C 254.4 131.7 255.5 132.9 257.3 132.9 C 258.6 132.9 259.4 132.3 259.9 131.5 C 259.87 131.48 259.9 131.5 259.9 131.5 L 261.1 131.5 C 261.1 131.5 261.08 131.48 261.1 131.5 C 260.7 132.6 259.5 133.9 257.2 133.9 C 254.4 133.9 253.1 131.9 253.1 129.7 C 253.1 129.7 253.1 129.7 253.1 129.7 C 253.1 127.2 254.7 125.4 257.1 125.4 C 260.2 125.4 261.2 127.7 261.2 129.6 C 261.2 129.7 261.2 129.8 261.2 130 C 261.2 129.97 254.3 130 254.3 130 Z M 259.9 129 C 259.9 129 259.92 129.04 259.9 129 C 259.8 128 259.3 126.4 257.1 126.4 C 255.4 126.4 254.5 127.6 254.3 129 C 254.33 129.04 254.3 129 254.3 129 L 259.9 129 Z M 259.8 121.5 L 257.3 124.1 L 256.1 124.1 L 258.3 121.5 L 259.8 121.5 Z M 263.6 127.7 C 263.6 127 263.6 126.3 263.5 125.7 C 263.5 125.7 264.7 125.7 264.7 125.7 C 264.7 126 264.8 126.7 264.8 127.3 C 265.1 126.5 266 125.4 267.7 125.4 C 269.6 125.4 270.9 126.6 270.9 128.8 C 270.85 128.84 270.9 133.7 270.9 133.7 L 269.6 133.7 C 269.6 133.7 269.64 129.07 269.6 129.1 C 269.6 127.6 269.1 126.5 267.5 126.5 C 265.7 126.5 264.8 127.9 264.8 129.9 C 264.77 129.91 264.8 133.7 264.8 133.7 L 263.6 133.7 C 263.6 133.7 263.55 127.7 263.6 127.7 Z M 274.4 130 C 274.4 130 274.41 129.97 274.4 130 C 274.5 131.7 275.6 132.9 277.4 132.9 C 278.7 132.9 279.5 132.3 280 131.5 C 279.98 131.48 280 131.5 280 131.5 L 281.2 131.5 C 281.2 131.5 281.19 131.48 281.2 131.5 C 280.8 132.6 279.7 133.9 277.3 133.9 C 274.5 133.9 273.2 131.9 273.2 129.7 C 273.2 129.7 273.2 129.7 273.2 129.7 C 273.2 127.2 274.8 125.4 277.3 125.4 C 280.3 125.4 281.3 127.7 281.3 129.6 C 281.3 129.7 281.3 129.8 281.3 130 C 281.31 129.97 274.4 130 274.4 130 Z M 280 129 C 280 129 280.03 129.04 280 129 C 280 128 279.4 126.4 277.2 126.4 C 275.5 126.4 274.6 127.6 274.4 129 C 274.44 129.04 274.4 129 274.4 129 L 280 129 Z M 283.7 127.9 C 283.7 127.1 283.7 126.4 283.6 125.7 C 283.6 125.7 284.8 125.7 284.8 125.7 C 284.8 125.9 284.9 126.7 284.9 127.5 C 285.4 126.3 286.6 125.4 288.2 125.4 C 288.2 125.4 288.2 126.6 288.2 126.6 C 286.3 126.6 284.9 127.8 284.9 130.2 C 284.87 130.24 284.9 133.7 284.9 133.7 L 283.7 133.7 C 283.7 133.7 283.66 127.86 283.7 127.9 Z M 297.5 132.6 C 297.5 135.7 296.5 137.5 293.2 137.5 C 290.2 137.5 289.6 135.7 289.4 134.8 C 289.39 134.78 289.4 134.8 289.4 134.8 L 290.6 134.8 C 290.6 134.8 290.64 134.78 290.6 134.8 C 290.9 135.7 291.5 136.5 293.3 136.5 C 295.9 136.5 296.3 134.8 296.3 132.7 C 296.3 132.7 296.3 132.2 296.3 132.2 C 295.8 133.2 294.8 133.9 293.1 133.9 C 290.9 133.9 289.3 132.1 289.3 129.8 C 289.3 129.8 289.3 129.8 289.3 129.8 C 289.3 127.2 291.2 125.4 293.3 125.4 C 295.2 125.4 296 126.3 296.3 127 C 296.3 126.6 296.3 125.9 296.3 125.7 C 296.3 125.7 297.5 125.7 297.5 125.7 C 297.5 126.4 297.5 127.2 297.5 128 C 297.5 128 297.5 132.6 297.5 132.6 Z M 290.5 129.7 C 290.5 129.7 290.5 129.7 290.5 129.7 C 290.5 131.5 291.8 132.8 293.4 132.8 C 295.2 132.8 296.3 131.7 296.3 129.6 C 296.3 129.6 296.3 129.6 296.3 129.6 C 296.3 127.6 295.3 126.5 293.5 126.5 C 291.5 126.5 290.5 128.2 290.5 129.7 Z M 300.4 125.7 L 301.6 125.7 L 301.6 133.7 L 300.4 133.7 L 300.4 125.7 Z M 300.4 121.7 L 301.6 121.7 L 301.6 123.4 L 300.4 123.4 L 300.4 121.7 Z M 305.2 130 C 305.2 130 305.2 129.97 305.2 130 C 305.3 131.7 306.4 132.9 308.2 132.9 C 309.5 132.9 310.3 132.3 310.8 131.5 C 310.77 131.48 310.8 131.5 310.8 131.5 L 312 131.5 C 312 131.5 311.98 131.48 312 131.5 C 311.6 132.6 310.4 133.9 308.1 133.9 C 305.3 133.9 304 131.9 304 129.7 C 304 129.7 304 129.7 304 129.7 C 304 127.2 305.6 125.4 308 125.4 C 311.1 125.4 312.1 127.7 312.1 129.6 C 312.1 129.7 312.1 129.8 312.1 130 C 312.1 129.97 305.2 130 305.2 130 Z M 310.8 129 C 310.8 129 310.82 129.04 310.8 129 C 310.7 128 310.2 126.4 308 126.4 C 306.3 126.4 305.4 127.6 305.2 129 C 305.23 129.04 305.2 129 305.2 129 L 310.8 129 Z M 313.2 136 C 314.1 134.2 314.5 132.7 314.6 131.3 C 314.6 131.3 315.8 131.3 315.8 131.3 C 315.7 132.5 315.2 134.6 314.3 136 C 314.3 136 313.2 136 313.2 136 Z M 331.2 131.8 C 331.2 132.5 331.3 133.5 331.3 133.7 C 331.3 133.7 330.1 133.7 330.1 133.7 C 330.1 133.4 330 132.7 330 132.5 C 329.6 133.3 328.7 133.9 327 133.9 C 324.7 133.9 323.8 132.6 323.8 131.4 C 323.8 131.4 323.8 131.4 323.8 131.4 C 323.8 129.3 325.7 128.8 328 128.8 C 329.1 128.8 329.8 128.8 330 128.8 C 330 128.8 330 128.3 330 128.3 C 330 127.3 329.6 126.4 327.8 126.4 C 326.1 126.4 325.7 127.2 325.5 128 C 325.51 128 325.5 128 325.5 128 L 324.3 128 C 324.3 128 324.3 128 324.3 128 C 324.4 126.9 325.1 125.4 327.8 125.4 C 330.5 125.4 331.2 126.8 331.2 128.1 C 331.2 128.1 331.2 131.8 331.2 131.8 Z M 330 129.7 C 329.8 129.7 329.2 129.7 328 129.7 C 326 129.7 325 130.1 325 131.3 C 325 131.3 325 131.3 325 131.3 C 325 132.2 325.7 132.9 327.1 132.9 C 329.5 132.9 330 131.5 330 130.1 C 330 130.1 330 129.7 330 129.7 Z M 341.2 131.4 C 341.2 132.2 341.2 132.9 341.2 133.7 C 341.2 133.7 340.1 133.7 340.1 133.7 C 340.1 133.5 340 132.9 340 132.2 C 339.6 133.2 338.9 133.9 337.1 133.9 C 335.4 133.9 334.1 133 334.1 130.7 C 334.05 130.69 334.1 125.7 334.1 125.7 L 335.3 125.7 C 335.3 125.7 335.26 130.45 335.3 130.5 C 335.3 131.7 335.8 132.9 337.3 132.9 C 339.2 132.9 340 131.8 340 129.3 C 340.02 129.29 340 125.7 340 125.7 L 341.2 125.7 C 341.2 125.7 341.23 131.37 341.2 131.4 Z M 344.7 131.3 C 344.7 131.3 344.7 131.29 344.7 131.3 C 345 132.4 345.9 133 347.5 133 C 349.2 133 349.8 132.4 349.8 131.5 C 349.8 130.8 349.4 130.3 347.2 130 C 344.4 129.7 343.9 128.8 343.9 127.8 C 343.9 126.8 344.7 125.4 347.2 125.4 C 349.9 125.4 350.7 126.9 350.7 127.8 C 350.74 127.82 350.7 127.8 350.7 127.8 L 349.5 127.8 C 349.5 127.8 349.52 127.82 349.5 127.8 C 349.4 127.3 349 126.4 347.1 126.4 C 345.4 126.4 345.1 127.1 345.1 127.7 C 345.1 128.3 345.5 128.7 347.4 129 C 350.4 129.4 351 130.2 351 131.5 C 351 132.9 349.9 133.9 347.4 133.9 C 345 133.9 343.8 132.9 343.5 131.3 C 343.47 131.29 343.5 131.3 343.5 131.3 L 344.7 131.3 Z M 354 131.3 C 354 131.3 354.03 131.29 354 131.3 C 354.3 132.4 355.2 133 356.8 133 C 358.5 133 359.1 132.4 359.1 131.5 C 359.1 130.8 358.7 130.3 356.5 130 C 353.8 129.7 353.2 128.8 353.2 127.8 C 353.2 126.8 354 125.4 356.5 125.4 C 359.3 125.4 360 126.9 360.1 127.8 C 360.07 127.82 360.1 127.8 360.1 127.8 L 358.8 127.8 C 358.8 127.8 358.84 127.82 358.8 127.8 C 358.7 127.3 358.4 126.4 356.4 126.4 C 354.8 126.4 354.4 127.1 354.4 127.7 C 354.4 128.3 354.8 128.7 356.8 129 C 359.7 129.4 360.3 130.2 360.3 131.5 C 360.3 132.9 359.2 133.9 356.7 133.9 C 354.3 133.9 353.1 132.9 352.8 131.3 C 352.8 131.29 352.8 131.3 352.8 131.3 L 354 131.3 Z M 362.7 125.7 L 363.9 125.7 L 363.9 133.7 L 362.7 133.7 L 362.7 125.7 Z M 362.7 121.7 L 363.9 121.7 L 363.9 123.4 L 362.7 123.4 L 362.7 121.7 Z M 374.1 132.4 C 374.11 132.41 374.1 137.3 374.1 137.3 L 372.9 137.3 C 372.9 137.3 372.9 127.69 372.9 127.7 C 372.9 127 372.9 126.3 372.9 125.7 C 372.9 125.7 374.1 125.7 374.1 125.7 C 374.1 125.9 374.1 126.5 374.1 127.2 C 374.6 126.3 375.6 125.4 377.3 125.4 C 379.5 125.4 381 127.2 381 129.6 C 381 129.6 381 129.6 381 129.6 C 381 132.1 379.3 133.9 377.1 133.9 C 375.3 133.9 374.6 133.2 374.1 132.4 Z M 379.8 129.6 C 379.8 129.6 379.8 129.6 379.8 129.6 C 379.8 128.1 378.9 126.5 377 126.5 C 375 126.5 374.1 127.9 374.1 129.7 C 374.1 129.7 374.1 129.7 374.1 129.7 C 374.1 131.5 375 132.9 376.9 132.9 C 378.8 132.9 379.8 131.3 379.8 129.6 Z M 390.6 131.4 C 390.6 132.2 390.6 132.9 390.6 133.7 C 390.6 133.7 389.4 133.7 389.4 133.7 C 389.4 133.5 389.4 132.9 389.4 132.2 C 389 133.2 388.2 133.9 386.4 133.9 C 384.7 133.9 383.4 133 383.4 130.7 C 383.39 130.69 383.4 125.7 383.4 125.7 L 384.6 125.7 C 384.6 125.7 384.59 130.45 384.6 130.5 C 384.6 131.7 385.1 132.9 386.7 132.9 C 388.5 132.9 389.4 131.8 389.4 129.3 C 389.36 129.29 389.4 125.7 389.4 125.7 L 390.6 125.7 C 390.6 125.7 390.57 131.37 390.6 131.4 Z M 393.5 125.7 L 394.7 125.7 L 394.7 133.7 L 393.5 133.7 L 393.5 125.7 Z M 393.5 121.7 L 394.7 121.7 L 394.7 123.4 L 393.5 123.4 L 393.5 121.7 Z M 398.1 131.3 C 398.1 131.3 398.13 131.29 398.1 131.3 C 398.4 132.4 399.3 133 400.9 133 C 402.6 133 403.2 132.4 403.2 131.5 C 403.2 130.8 402.8 130.3 400.6 130 C 397.9 129.7 397.3 128.8 397.3 127.8 C 397.3 126.8 398.1 125.4 400.6 125.4 C 403.4 125.4 404.1 126.9 404.2 127.8 C 404.17 127.82 404.2 127.8 404.2 127.8 L 402.9 127.8 C 402.9 127.8 402.94 127.82 402.9 127.8 C 402.8 127.3 402.5 126.4 400.5 126.4 C 398.9 126.4 398.5 127.1 398.5 127.7 C 398.5 128.3 398.9 128.7 400.9 129 C 403.8 129.4 404.4 130.2 404.4 131.5 C 404.4 132.9 403.3 133.9 400.8 133.9 C 398.4 133.9 397.2 132.9 396.9 131.3 C 396.9 131.29 396.9 131.3 396.9 131.3 L 398.1 131.3 Z M 407.5 131.3 C 407.5 131.3 407.45 131.29 407.5 131.3 C 407.8 132.4 408.7 133 410.2 133 C 411.9 133 412.5 132.4 412.5 131.5 C 412.5 130.8 412.1 130.3 409.9 130 C 407.2 129.7 406.6 128.8 406.6 127.8 C 406.6 126.8 407.4 125.4 409.9 125.4 C 412.7 125.4 413.4 126.9 413.5 127.8 C 413.49 127.82 413.5 127.8 413.5 127.8 L 412.3 127.8 C 412.3 127.8 412.26 127.82 412.3 127.8 C 412.1 127.3 411.8 126.4 409.8 126.4 C 408.2 126.4 407.8 127.1 407.8 127.7 C 407.8 128.3 408.3 128.7 410.2 129 C 413.1 129.4 413.8 130.2 413.8 131.5 C 413.8 132.9 412.7 133.9 410.2 133.9 C 407.8 133.9 406.5 132.9 406.2 131.3 C 406.22 131.29 406.2 131.3 406.2 131.3 L 407.5 131.3 Z M 423 131.8 C 423 132.5 423.1 133.5 423.1 133.7 C 423.1 133.7 421.9 133.7 421.9 133.7 C 421.9 133.4 421.8 132.7 421.8 132.5 C 421.4 133.3 420.5 133.9 418.8 133.9 C 416.5 133.9 415.6 132.6 415.6 131.4 C 415.6 131.4 415.6 131.4 415.6 131.4 C 415.6 129.3 417.5 128.8 419.8 128.8 C 420.9 128.8 421.6 128.8 421.8 128.8 C 421.8 128.8 421.8 128.3 421.8 128.3 C 421.8 127.3 421.4 126.4 419.6 126.4 C 417.9 126.4 417.5 127.2 417.3 128 C 417.31 128 417.3 128 417.3 128 L 416.1 128 C 416.1 128 416.1 128 416.1 128 C 416.2 126.9 416.9 125.4 419.6 125.4 C 422.3 125.4 423 126.8 423 128.1 C 423 128.1 423 131.8 423 131.8 Z M 421.8 129.7 C 421.6 129.7 421 129.7 419.8 129.7 C 417.8 129.7 416.8 130.1 416.8 131.3 C 416.8 131.3 416.8 131.3 416.8 131.3 C 416.8 132.2 417.5 132.9 418.9 132.9 C 421.3 132.9 421.8 131.5 421.8 130.1 C 421.8 130.1 421.8 129.7 421.8 129.7 Z M 425.9 127.7 C 425.9 127 425.9 126.3 425.9 125.7 C 425.9 125.7 427.1 125.7 427.1 125.7 C 427.1 126 427.1 126.7 427.1 127.3 C 427.5 126.5 428.3 125.4 430.1 125.4 C 432 125.4 433.2 126.6 433.2 128.8 C 433.22 128.84 433.2 133.7 433.2 133.7 L 432 133.7 C 432 133.7 432.01 129.07 432 129.1 C 432 127.6 431.5 126.5 429.9 126.5 C 428 126.5 427.1 127.9 427.1 129.9 C 427.14 129.91 427.1 133.7 427.1 133.7 L 425.9 133.7 C 425.9 133.7 425.92 127.7 425.9 127.7 Z M 435 125.7 L 436.6 125.7 L 436.6 123 L 437.8 123 L 437.8 125.7 L 440 125.7 L 440 126.7 L 437.8 126.7 C 437.8 126.7 437.81 131.38 437.8 131.4 C 437.8 132.4 438.1 132.8 439 132.8 C 439.2 132.8 439.6 132.8 439.8 132.7 C 439.8 132.7 439.8 133.7 439.8 133.7 C 439.5 133.8 439.1 133.8 438.7 133.8 C 437.1 133.8 436.6 133.1 436.6 131.5 C 436.59 131.5 436.6 126.7 436.6 126.7 L 435 126.7 L 435 125.7 Z M 442.4 130 C 442.4 130 442.43 129.97 442.4 130 C 442.5 131.7 443.7 132.9 445.4 132.9 C 446.8 132.9 447.5 132.3 448 131.5 C 448 131.48 448 131.5 448 131.5 L 449.2 131.5 C 449.2 131.5 449.21 131.48 449.2 131.5 C 448.8 132.6 447.7 133.9 445.3 133.9 C 442.6 133.9 441.2 131.9 441.2 129.7 C 441.2 129.7 441.2 129.7 441.2 129.7 C 441.2 127.2 442.9 125.4 445.3 125.4 C 448.3 125.4 449.3 127.7 449.3 129.6 C 449.3 129.7 449.3 129.8 449.3 130 C 449.33 129.97 442.4 130 442.4 130 Z M 448.1 129 C 448.1 129 448.05 129.04 448.1 129 C 448 128 447.4 126.4 445.3 126.4 C 443.5 126.4 442.6 127.6 442.5 129 C 442.46 129.04 442.5 129 442.5 129 L 448.1 129 Z " stroke="none" fill="#141414"/>  </g>  <g id="Polygon9712">    <path d="M 2.1 106.1 C 2.1 106.1 2.1 106.12 2.1 106.1 C 2.5 107.5 3.6 108.6 5.9 108.6 C 8.3 108.6 9.2 107.6 9.2 106.5 C 9.2 105.2 8.6 104.5 5.5 104 C 2.2 103.4 1.4 102.4 1.4 100.8 C 1.4 98.9 3.2 97.8 5.6 97.8 C 9.3 97.8 10.1 99.7 10.2 100.8 C 10.2 100.79 10.2 100.8 10.2 100.8 L 8.9 100.8 C 8.9 100.8 8.89 100.79 8.9 100.8 C 8.6 100 8.1 98.8 5.6 98.8 C 3.8 98.8 2.7 99.4 2.7 100.7 C 2.7 101.7 3.1 102.4 5.9 102.8 C 9.9 103.5 10.6 104.8 10.6 106.3 C 10.6 108.1 9.2 109.6 5.8 109.6 C 2.8 109.6 1.1 108.2 0.8 106.1 C 0.77 106.12 0.8 106.1 0.8 106.1 L 2.1 106.1 Z M 21 105.4 C 21 105.4 21 105.4 21 105.4 C 21 107.5 19.7 109.6 16.8 109.6 C 14.2 109.6 12.6 107.6 12.6 105.4 C 12.6 105.4 12.6 105.4 12.6 105.4 C 12.6 103.1 14.3 101.1 16.9 101.1 C 19.5 101.1 21 103.2 21 105.4 Z M 13.9 105.4 C 13.9 105.4 13.9 105.4 13.9 105.4 C 13.9 107 14.9 108.6 16.8 108.6 C 18.8 108.6 19.8 107.1 19.8 105.4 C 19.8 105.4 19.8 105.4 19.8 105.4 C 19.8 103.7 18.7 102.2 16.8 102.2 C 14.8 102.2 13.9 103.7 13.9 105.4 Z M 30.5 107.1 C 30.5 107.8 30.5 108.6 30.6 109.4 C 30.6 109.4 29.4 109.4 29.4 109.4 C 29.4 109.2 29.3 108.5 29.3 107.9 C 28.9 108.9 28.2 109.6 26.4 109.6 C 24.7 109.6 23.4 108.7 23.4 106.4 C 23.36 106.37 23.4 101.4 23.4 101.4 L 24.6 101.4 C 24.6 101.4 24.57 106.13 24.6 106.1 C 24.6 107.4 25.1 108.5 26.6 108.5 C 28.5 108.5 29.3 107.5 29.3 105 C 29.33 104.97 29.3 101.4 29.3 101.4 L 30.5 101.4 C 30.5 101.4 30.54 107.05 30.5 107.1 Z M 33.5 103.5 C 33.5 102.8 33.5 102.1 33.4 101.4 C 33.4 101.4 34.6 101.4 34.6 101.4 C 34.6 101.6 34.7 102.4 34.7 103.2 C 35.2 101.9 36.4 101.1 38 101.1 C 38 101.1 38 102.3 38 102.3 C 36.1 102.3 34.7 103.5 34.7 105.9 C 34.67 105.92 34.7 109.4 34.7 109.4 L 33.5 109.4 C 33.5 109.4 33.46 103.54 33.5 103.5 Z M 39.9 101.4 L 41.1 101.4 L 41.1 109.4 L 39.9 109.4 L 39.9 101.4 Z M 39.9 97.3 L 41.1 97.3 L 41.1 99.1 L 39.9 99.1 L 39.9 97.3 Z M 50.9 107.5 C 50.9 108.2 50.9 109.2 51 109.4 C 51 109.4 49.8 109.4 49.8 109.4 C 49.7 109.1 49.7 108.4 49.7 108.1 C 49.3 109 48.4 109.6 46.6 109.6 C 44.3 109.6 43.5 108.2 43.5 107.1 C 43.5 107.1 43.5 107.1 43.5 107.1 C 43.5 105 45.4 104.4 47.7 104.4 C 48.7 104.4 49.4 104.4 49.7 104.4 C 49.7 104.4 49.7 104 49.7 104 C 49.7 103 49.3 102.1 47.4 102.1 C 45.8 102.1 45.4 102.9 45.2 103.7 C 45.18 103.68 45.2 103.7 45.2 103.7 L 44 103.7 C 44 103.7 43.97 103.68 44 103.7 C 44.1 102.6 44.8 101.1 47.4 101.1 C 50.2 101.1 50.9 102.5 50.9 103.8 C 50.9 103.8 50.9 107.5 50.9 107.5 Z M 49.7 105.4 C 49.4 105.4 48.9 105.4 47.7 105.4 C 45.7 105.4 44.7 105.8 44.7 107 C 44.7 107 44.7 107 44.7 107 C 44.7 107.9 45.4 108.6 46.8 108.6 C 49.2 108.6 49.7 107.2 49.7 105.8 C 49.7 105.8 49.7 105.4 49.7 105.4 Z M 53.8 103.4 C 53.8 102.7 53.8 102 53.8 101.4 C 53.8 101.4 55 101.4 55 101.4 C 55 101.6 55 102.4 55 103 C 55.3 102.1 56.2 101.1 58 101.1 C 59.9 101.1 61.1 102.3 61.1 104.5 C 61.09 104.52 61.1 109.4 61.1 109.4 L 59.9 109.4 C 59.9 109.4 59.88 104.75 59.9 104.8 C 59.9 103.3 59.3 102.2 57.7 102.2 C 55.9 102.2 55 103.6 55 105.6 C 55.01 105.59 55 109.4 55 109.4 L 53.8 109.4 C 53.8 109.4 53.8 103.38 53.8 103.4 Z M 62.8 101.4 L 64.5 101.4 L 64.5 98.7 L 65.7 98.7 L 65.7 101.4 L 67.8 101.4 L 67.8 102.4 L 65.7 102.4 C 65.7 102.4 65.68 107.06 65.7 107.1 C 65.7 108 65.9 108.5 66.8 108.5 C 67.1 108.5 67.4 108.5 67.7 108.4 C 67.7 108.4 67.7 109.3 67.7 109.3 C 67.3 109.5 67 109.5 66.5 109.5 C 65 109.5 64.5 108.8 64.5 107.2 C 64.47 107.18 64.5 102.4 64.5 102.4 L 62.8 102.4 L 62.8 101.4 Z M 70.3 105.6 C 70.3 105.6 70.3 105.65 70.3 105.6 C 70.4 107.4 71.5 108.6 73.3 108.6 C 74.6 108.6 75.4 108 75.9 107.2 C 75.87 107.16 75.9 107.2 75.9 107.2 L 77.1 107.2 C 77.1 107.2 77.08 107.16 77.1 107.2 C 76.7 108.3 75.5 109.6 73.2 109.6 C 70.4 109.6 69.1 107.5 69.1 105.4 C 69.1 105.4 69.1 105.4 69.1 105.4 C 69.1 102.9 70.7 101.1 73.2 101.1 C 76.2 101.1 77.2 103.4 77.2 105.3 C 77.2 105.4 77.2 105.5 77.2 105.6 C 77.2 105.65 70.3 105.6 70.3 105.6 Z M 75.9 104.7 C 75.9 104.7 75.92 104.72 75.9 104.7 C 75.8 103.7 75.3 102.1 73.1 102.1 C 71.4 102.1 70.5 103.2 70.3 104.7 C 70.33 104.72 70.3 104.7 70.3 104.7 L 75.9 104.7 Z M 91.1 105.6 C 91.1 105.6 91.14 105.65 91.1 105.6 C 91.2 107.4 92.4 108.6 94.1 108.6 C 95.5 108.6 96.2 108 96.7 107.2 C 96.71 107.16 96.7 107.2 96.7 107.2 L 97.9 107.2 C 97.9 107.2 97.92 107.16 97.9 107.2 C 97.5 108.3 96.4 109.6 94 109.6 C 91.3 109.6 89.9 107.5 89.9 105.4 C 89.9 105.4 89.9 105.4 89.9 105.4 C 89.9 102.9 91.6 101.1 94 101.1 C 97 101.1 98 103.4 98 105.3 C 98 105.4 98 105.5 98 105.6 C 98.04 105.65 91.1 105.6 91.1 105.6 Z M 96.8 104.7 C 96.8 104.7 96.76 104.72 96.8 104.7 C 96.7 103.7 96.1 102.1 94 102.1 C 92.2 102.1 91.3 103.2 91.2 104.7 C 91.17 104.72 91.2 104.7 91.2 104.7 L 96.8 104.7 Z M 99.2 101.4 L 100.9 101.4 L 100.9 98.7 L 102.1 98.7 L 102.1 101.4 L 104.2 101.4 L 104.2 102.4 L 102.1 102.4 C 102.1 102.4 102.08 107.06 102.1 107.1 C 102.1 108 102.3 108.5 103.2 108.5 C 103.5 108.5 103.8 108.5 104.1 108.4 C 104.1 108.4 104.1 109.3 104.1 109.3 C 103.7 109.5 103.4 109.5 102.9 109.5 C 101.4 109.5 100.9 108.8 100.9 107.2 C 100.87 107.18 100.9 102.4 100.9 102.4 L 99.2 102.4 L 99.2 101.4 Z M 124.9 97.3 C 124.9 97.3 124.88 107.04 124.9 107 C 124.9 107.8 124.9 108.6 124.9 109.4 C 124.9 109.4 123.7 109.4 123.7 109.4 C 123.7 109 123.7 108.5 123.7 108.1 C 123.3 108.8 122.5 109.6 120.6 109.6 C 118.3 109.6 116.7 107.9 116.7 105.4 C 116.7 105.4 116.7 105.4 116.7 105.4 C 116.7 102.8 118.7 101.1 120.8 101.1 C 122.8 101.1 123.4 102.1 123.7 102.5 C 123.66 102.49 123.7 97.3 123.7 97.3 L 124.9 97.3 Z M 118 105.4 C 118 105.4 118 105.4 118 105.4 C 118 107 118.9 108.6 120.8 108.6 C 122.9 108.6 123.7 107.2 123.7 105.3 C 123.7 105.3 123.7 105.3 123.7 105.3 C 123.7 103.5 123.1 102.2 120.9 102.2 C 118.9 102.2 118 103.8 118 105.4 Z M 128.5 105.6 C 128.5 105.6 128.47 105.65 128.5 105.6 C 128.6 107.4 129.7 108.6 131.5 108.6 C 132.8 108.6 133.6 108 134 107.2 C 134.04 107.16 134 107.2 134 107.2 L 135.2 107.2 C 135.2 107.2 135.25 107.16 135.2 107.2 C 134.8 108.3 133.7 109.6 131.4 109.6 C 128.6 109.6 127.2 107.5 127.2 105.4 C 127.2 105.4 127.2 105.4 127.2 105.4 C 127.2 102.9 128.9 101.1 131.3 101.1 C 134.4 101.1 135.4 103.4 135.4 105.3 C 135.4 105.4 135.4 105.5 135.4 105.6 C 135.37 105.65 128.5 105.6 128.5 105.6 Z M 134.1 104.7 C 134.1 104.7 134.09 104.72 134.1 104.7 C 134 103.7 133.5 102.1 131.3 102.1 C 129.6 102.1 128.7 103.2 128.5 104.7 C 128.5 104.72 128.5 104.7 128.5 104.7 L 134.1 104.7 Z M 134 97.2 L 131.4 99.8 L 130.2 99.8 L 132.5 97.2 L 134 97.2 Z M 136.6 101.4 L 138.2 101.4 L 138.2 98.7 L 139.4 98.7 L 139.4 101.4 L 141.6 101.4 L 141.6 102.4 L 139.4 102.4 C 139.4 102.4 139.41 107.06 139.4 107.1 C 139.4 108 139.7 108.5 140.6 108.5 C 140.8 108.5 141.2 108.5 141.4 108.4 C 141.4 108.4 141.4 109.3 141.4 109.3 C 141.1 109.5 140.7 109.5 140.3 109.5 C 138.7 109.5 138.2 108.8 138.2 107.2 C 138.2 107.18 138.2 102.4 138.2 102.4 L 136.6 102.4 L 136.6 101.4 Z M 144 105.6 C 144 105.6 144.04 105.65 144 105.6 C 144.1 107.4 145.3 108.6 147 108.6 C 148.4 108.6 149.1 108 149.6 107.2 C 149.61 107.16 149.6 107.2 149.6 107.2 L 150.8 107.2 C 150.8 107.2 150.81 107.16 150.8 107.2 C 150.4 108.3 149.3 109.6 146.9 109.6 C 144.2 109.6 142.8 107.5 142.8 105.4 C 142.8 105.4 142.8 105.4 142.8 105.4 C 142.8 102.9 144.5 101.1 146.9 101.1 C 149.9 101.1 150.9 103.4 150.9 105.3 C 150.9 105.4 150.9 105.5 150.9 105.6 C 150.93 105.65 144 105.6 144 105.6 Z M 149.7 104.7 C 149.7 104.7 149.66 104.72 149.7 104.7 C 149.6 103.7 149 102.1 146.9 102.1 C 145.1 102.1 144.2 103.2 144.1 104.7 C 144.07 104.72 144.1 104.7 144.1 104.7 L 149.7 104.7 Z M 153.3 103.5 C 153.3 102.8 153.3 102.1 153.3 101.4 C 153.3 101.4 154.4 101.4 154.4 101.4 C 154.5 101.6 154.5 102.4 154.5 103.2 C 155 101.9 156.3 101.1 157.8 101.1 C 157.8 101.1 157.8 102.3 157.8 102.3 C 155.9 102.3 154.5 103.5 154.5 105.9 C 154.5 105.92 154.5 109.4 154.5 109.4 L 153.3 109.4 C 153.3 109.4 153.29 103.54 153.3 103.5 Z M 157.5 111.7 C 158.4 109.8 158.7 108.4 158.8 107 C 158.8 107 160.1 107 160.1 107 C 160 108.2 159.4 110.3 158.6 111.7 C 158.6 111.7 157.5 111.7 157.5 111.7 Z M 175.6 105.7 L 174 109.4 L 172.7 109.4 L 177.6 98 L 179.2 98 L 184.3 109.4 L 182.9 109.4 L 181.3 105.7 L 175.6 105.7 Z M 180.8 104.6 C 179.3 101.3 178.6 99.7 178.4 99 C 178.4 99 178.3 99 178.3 99 C 178.1 99.7 177.3 101.7 176.1 104.6 C 176.1 104.6 180.8 104.6 180.8 104.6 Z M 186.4 103.4 C 186.4 102.7 186.4 102 186.4 101.4 C 186.4 101.4 187.5 101.4 187.5 101.4 C 187.6 101.6 187.6 102.4 187.6 103 C 187.9 102.1 188.8 101.1 190.6 101.1 C 192.4 101.1 193.7 102.3 193.7 104.5 C 193.66 104.52 193.7 109.4 193.7 109.4 L 192.5 109.4 C 192.5 109.4 192.45 104.75 192.5 104.8 C 192.5 103.3 191.9 102.2 190.3 102.2 C 188.5 102.2 187.6 103.6 187.6 105.6 C 187.58 105.59 187.6 109.4 187.6 109.4 L 186.4 109.4 C 186.4 109.4 186.37 103.38 186.4 103.4 Z M 196.5 103.4 C 196.5 102.7 196.5 102 196.5 101.4 C 196.5 101.4 197.7 101.4 197.7 101.4 C 197.7 101.6 197.8 102.4 197.8 103 C 198.1 102.1 199 101.1 200.7 101.1 C 202.6 101.1 203.8 102.3 203.8 104.5 C 203.84 104.52 203.8 109.4 203.8 109.4 L 202.6 109.4 C 202.6 109.4 202.63 104.75 202.6 104.8 C 202.6 103.3 202.1 102.2 200.5 102.2 C 198.7 102.2 197.8 103.6 197.8 105.6 C 197.76 105.59 197.8 109.4 197.8 109.4 L 196.5 109.4 C 196.5 109.4 196.55 103.38 196.5 103.4 Z M 213.6 107.5 C 213.6 108.2 213.6 109.2 213.7 109.4 C 213.7 109.4 212.5 109.4 212.5 109.4 C 212.4 109.1 212.4 108.4 212.4 108.1 C 212 109 211.1 109.6 209.3 109.6 C 207 109.6 206.2 108.2 206.2 107.1 C 206.2 107.1 206.2 107.1 206.2 107.1 C 206.2 105 208.1 104.4 210.3 104.4 C 211.4 104.4 212.1 104.4 212.4 104.4 C 212.4 104.4 212.4 104 212.4 104 C 212.4 103 212 102.1 210.1 102.1 C 208.4 102.1 208 102.9 207.9 103.7 C 207.87 103.68 207.9 103.7 207.9 103.7 L 206.7 103.7 C 206.7 103.7 206.66 103.68 206.7 103.7 C 206.8 102.6 207.5 101.1 210.1 101.1 C 212.9 101.1 213.6 102.5 213.6 103.8 C 213.6 103.8 213.6 107.5 213.6 107.5 Z M 212.4 105.4 C 212.1 105.4 211.6 105.4 210.4 105.4 C 208.4 105.4 207.4 105.8 207.4 107 C 207.4 107 207.4 107 207.4 107 C 207.4 107.9 208 108.6 209.5 108.6 C 211.9 108.6 212.4 107.2 212.4 105.8 C 212.4 105.8 212.4 105.4 212.4 105.4 Z M 228.1 107 C 228.1 107 228.07 106.97 228.1 107 C 228.4 108 229.3 108.6 230.9 108.6 C 232.5 108.6 233.2 108 233.2 107.2 C 233.2 106.5 232.7 106 230.6 105.7 C 227.8 105.4 227.2 104.4 227.2 103.4 C 227.2 102.4 228 101.1 230.5 101.1 C 233.3 101.1 234 102.6 234.1 103.5 C 234.12 103.5 234.1 103.5 234.1 103.5 L 232.9 103.5 C 232.9 103.5 232.89 103.5 232.9 103.5 C 232.8 103 232.4 102.1 230.5 102.1 C 228.8 102.1 228.5 102.8 228.5 103.3 C 228.5 104 228.9 104.4 230.8 104.7 C 233.8 105 234.4 105.9 234.4 107.1 C 234.4 108.6 233.3 109.6 230.8 109.6 C 228.4 109.6 227.1 108.6 226.8 107 C 226.84 106.97 226.8 107 226.8 107 L 228.1 107 Z M 237.4 105.6 C 237.4 105.6 237.4 105.65 237.4 105.6 C 237.5 107.4 238.6 108.6 240.4 108.6 C 241.7 108.6 242.5 108 243 107.2 C 242.97 107.16 243 107.2 243 107.2 L 244.2 107.2 C 244.2 107.2 244.18 107.16 244.2 107.2 C 243.8 108.3 242.6 109.6 240.3 109.6 C 237.5 109.6 236.2 107.5 236.2 105.4 C 236.2 105.4 236.2 105.4 236.2 105.4 C 236.2 102.9 237.8 101.1 240.2 101.1 C 243.3 101.1 244.3 103.4 244.3 105.3 C 244.3 105.4 244.3 105.5 244.3 105.6 C 244.3 105.65 237.4 105.6 237.4 105.6 Z M 243 104.7 C 243 104.7 243.02 104.72 243 104.7 C 242.9 103.7 242.4 102.1 240.2 102.1 C 238.5 102.1 237.6 103.2 237.4 104.7 C 237.43 104.72 237.4 104.7 237.4 104.7 L 243 104.7 Z M 246.7 103.4 C 246.7 102.7 246.7 102 246.6 101.4 C 246.6 101.4 247.8 101.4 247.8 101.4 C 247.8 101.7 247.9 102.2 247.9 102.6 C 248.3 101.9 249 101.1 250.5 101.1 C 251.8 101.1 252.6 101.8 253 102.7 C 253.4 102 254.2 101.1 255.8 101.1 C 257.3 101.1 258.6 102 258.6 104.4 C 258.6 104.39 258.6 109.4 258.6 109.4 L 257.4 109.4 C 257.4 109.4 257.4 104.45 257.4 104.4 C 257.4 103.4 257.1 102.2 255.5 102.2 C 254.1 102.2 253.2 103.1 253.2 105 C 253.23 105 253.2 109.4 253.2 109.4 L 252 109.4 C 252 109.4 252.03 104.36 252 104.4 C 252 103.4 251.7 102.2 250.2 102.2 C 248.5 102.2 247.9 103.5 247.9 105.1 C 247.86 105.14 247.9 109.4 247.9 109.4 L 246.7 109.4 C 246.7 109.4 246.66 103.43 246.7 103.4 Z M 261.5 97.3 L 262.7 97.3 C 262.7 97.3 262.73 102.7 262.7 102.7 C 263.1 102 264 101.1 265.8 101.1 C 268.1 101.1 269.7 102.9 269.7 105.2 C 269.7 105.2 269.7 105.2 269.7 105.2 C 269.7 107.9 268 109.6 265.7 109.6 C 264 109.6 263.1 108.8 262.7 108.1 C 262.7 108.5 262.7 109.1 262.7 109.4 C 262.7 109.4 261.5 109.4 261.5 109.4 C 261.5 108.4 261.5 107.5 261.5 106.6 C 261.52 106.61 261.5 97.3 261.5 97.3 Z M 268.4 105.3 C 268.4 105.3 268.4 105.3 268.4 105.3 C 268.4 103.8 267.6 102.2 265.6 102.2 C 263.6 102.2 262.7 103.6 262.7 105.4 C 262.7 105.4 262.7 105.4 262.7 105.4 C 262.7 107.4 263.8 108.6 265.6 108.6 C 267.6 108.6 268.4 107 268.4 105.3 Z M 272.1 109.4 L 272.1 97.3 L 273.3 97.3 L 273.3 109.4 L 272.1 109.4 Z M 276.9 105.6 C 276.9 105.6 276.89 105.65 276.9 105.6 C 277 107.4 278.1 108.6 279.9 108.6 C 281.2 108.6 282 108 282.5 107.2 C 282.46 107.16 282.5 107.2 282.5 107.2 L 283.7 107.2 C 283.7 107.2 283.67 107.16 283.7 107.2 C 283.3 108.3 282.1 109.6 279.8 109.6 C 277 109.6 275.7 107.5 275.7 105.4 C 275.7 105.4 275.7 105.4 275.7 105.4 C 275.7 102.9 277.3 101.1 279.7 101.1 C 282.8 101.1 283.8 103.4 283.8 105.3 C 283.8 105.4 283.8 105.5 283.8 105.6 C 283.79 105.65 276.9 105.6 276.9 105.6 Z M 282.5 104.7 C 282.5 104.7 282.51 104.72 282.5 104.7 C 282.4 103.7 281.9 102.1 279.7 102.1 C 278 102.1 277.1 103.2 276.9 104.7 C 276.92 104.72 276.9 104.7 276.9 104.7 L 282.5 104.7 Z M 298.4 108.1 C 298.35 108.09 298.4 113 298.4 113 L 297.1 113 C 297.1 113 297.14 103.37 297.1 103.4 C 297.1 102.7 297.1 102 297.1 101.4 C 297.1 101.4 298.3 101.4 298.3 101.4 C 298.3 101.6 298.4 102.1 298.4 102.8 C 298.8 101.9 299.8 101.1 301.5 101.1 C 303.7 101.1 305.3 102.9 305.3 105.2 C 305.3 105.2 305.3 105.2 305.3 105.2 C 305.3 107.8 303.5 109.6 301.3 109.6 C 299.5 109.6 298.8 108.8 298.4 108.1 Z M 304 105.3 C 304 105.3 304 105.3 304 105.3 C 304 103.8 303.2 102.2 301.2 102.2 C 299.2 102.2 298.3 103.6 298.3 105.4 C 298.3 105.4 298.3 105.4 298.3 105.4 C 298.3 107.2 299.3 108.6 301.2 108.6 C 303.1 108.6 304 107 304 105.3 Z M 307.7 103.5 C 307.7 102.8 307.7 102.1 307.6 101.4 C 307.6 101.4 308.8 101.4 308.8 101.4 C 308.8 101.6 308.9 102.4 308.9 103.2 C 309.4 101.9 310.6 101.1 312.2 101.1 C 312.2 101.1 312.2 102.3 312.2 102.3 C 310.3 102.3 308.9 103.5 308.9 105.9 C 308.87 105.92 308.9 109.4 308.9 109.4 L 307.7 109.4 C 307.7 109.4 307.66 103.54 307.7 103.5 Z M 314.6 105.6 C 314.6 105.6 314.56 105.65 314.6 105.6 C 314.6 107.4 315.8 108.6 317.5 108.6 C 318.9 108.6 319.7 108 320.1 107.2 C 320.13 107.16 320.1 107.2 320.1 107.2 L 321.3 107.2 C 321.3 107.2 321.34 107.16 321.3 107.2 C 320.9 108.3 319.8 109.6 317.4 109.6 C 314.7 109.6 313.3 107.5 313.3 105.4 C 313.3 105.4 313.3 105.4 313.3 105.4 C 313.3 102.9 315 101.1 317.4 101.1 C 320.4 101.1 321.5 103.4 321.5 105.3 C 321.5 105.4 321.5 105.5 321.5 105.6 C 321.46 105.65 314.6 105.6 314.6 105.6 Z M 320.2 104.7 C 320.2 104.7 320.18 104.72 320.2 104.7 C 320.1 103.7 319.5 102.1 317.4 102.1 C 315.6 102.1 314.7 103.2 314.6 104.7 C 314.59 104.72 314.6 104.7 314.6 104.7 L 320.2 104.7 Z M 318 97.2 L 320.1 99.8 L 318.9 99.8 L 317.3 97.9 L 315.9 99.8 L 314.7 99.8 L 316.7 97.2 L 318 97.2 Z M 322.6 101.4 L 324.3 101.4 L 324.3 98.7 L 325.5 98.7 L 325.5 101.4 L 327.7 101.4 L 327.7 102.4 L 325.5 102.4 C 325.5 102.4 325.5 107.06 325.5 107.1 C 325.5 108 325.8 108.5 326.7 108.5 C 326.9 108.5 327.2 108.5 327.5 108.4 C 327.5 108.4 327.5 109.3 327.5 109.3 C 327.1 109.5 326.8 109.5 326.3 109.5 C 324.8 109.5 324.3 108.8 324.3 107.2 C 324.28 107.18 324.3 102.4 324.3 102.4 L 322.6 102.4 L 322.6 101.4 Z M 330.1 105.6 C 330.1 105.6 330.12 105.65 330.1 105.6 C 330.2 107.4 331.4 108.6 333.1 108.6 C 334.5 108.6 335.2 108 335.7 107.2 C 335.69 107.16 335.7 107.2 335.7 107.2 L 336.9 107.2 C 336.9 107.2 336.9 107.16 336.9 107.2 C 336.5 108.3 335.4 109.6 333 109.6 C 330.2 109.6 328.9 107.5 328.9 105.4 C 328.9 105.4 328.9 105.4 328.9 105.4 C 328.9 102.9 330.5 101.1 333 101.1 C 336 101.1 337 103.4 337 105.3 C 337 105.4 337 105.5 337 105.6 C 337.02 105.65 330.1 105.6 330.1 105.6 Z M 335.7 104.7 C 335.7 104.7 335.74 104.72 335.7 104.7 C 335.7 103.7 335.1 102.1 333 102.1 C 331.2 102.1 330.3 103.2 330.2 104.7 C 330.15 104.72 330.2 104.7 330.2 104.7 L 335.7 104.7 Z M 357.2 107.5 C 357.2 108.2 357.2 109.2 357.2 109.4 C 357.2 109.4 356.1 109.4 356.1 109.4 C 356 109.1 356 108.4 356 108.1 C 355.6 109 354.6 109.6 352.9 109.6 C 350.6 109.6 349.8 108.2 349.8 107.1 C 349.8 107.1 349.8 107.1 349.8 107.1 C 349.8 105 351.6 104.4 353.9 104.4 C 355 104.4 355.7 104.4 356 104.4 C 356 104.4 356 104 356 104 C 356 103 355.6 102.1 353.7 102.1 C 352 102.1 351.6 102.9 351.4 103.7 C 351.44 103.68 351.4 103.7 351.4 103.7 L 350.2 103.7 C 350.2 103.7 350.23 103.68 350.2 103.7 C 350.3 102.6 351.1 101.1 353.7 101.1 C 356.5 101.1 357.2 102.5 357.2 103.8 C 357.2 103.8 357.2 107.5 357.2 107.5 Z M 356 105.4 C 355.7 105.4 355.2 105.4 354 105.4 C 351.9 105.4 351 105.8 351 107 C 351 107 351 107 351 107 C 351 107.9 351.6 108.6 353.1 108.6 C 355.4 108.6 356 107.2 356 105.8 C 356 105.8 356 105.4 356 105.4 Z M 352.4 97.2 L 354.7 99.8 L 353.5 99.8 L 350.9 97.2 L 352.4 97.2 Z M 371.2 103.5 C 371.2 102.8 371.2 102.1 371.2 101.4 C 371.2 101.4 372.4 101.4 372.4 101.4 C 372.4 101.6 372.4 102.4 372.4 103.2 C 373 101.9 374.2 101.1 375.7 101.1 C 375.7 101.1 375.7 102.3 375.7 102.3 C 373.9 102.3 372.4 103.5 372.4 105.9 C 372.42 105.92 372.4 109.4 372.4 109.4 L 371.2 109.4 C 371.2 109.4 371.21 103.54 371.2 103.5 Z M 378.1 105.6 C 378.1 105.6 378.11 105.65 378.1 105.6 C 378.2 107.4 379.3 108.6 381.1 108.6 C 382.4 108.6 383.2 108 383.7 107.2 C 383.68 107.16 383.7 107.2 383.7 107.2 L 384.9 107.2 C 384.9 107.2 384.89 107.16 384.9 107.2 C 384.5 108.3 383.4 109.6 381 109.6 C 378.2 109.6 376.9 107.5 376.9 105.4 C 376.9 105.4 376.9 105.4 376.9 105.4 C 376.9 102.9 378.5 101.1 381 101.1 C 384 101.1 385 103.4 385 105.3 C 385 105.4 385 105.5 385 105.6 C 385.01 105.65 378.1 105.6 378.1 105.6 Z M 383.7 104.7 C 383.7 104.7 383.73 104.72 383.7 104.7 C 383.7 103.7 383.1 102.1 380.9 102.1 C 379.2 102.1 378.3 103.2 378.1 104.7 C 378.14 104.72 378.1 104.7 378.1 104.7 L 383.7 104.7 Z M 387.4 109.4 L 387.4 97.3 L 388.6 97.3 L 388.6 109.4 L 387.4 109.4 Z M 392.2 105.6 C 392.2 105.6 392.19 105.65 392.2 105.6 C 392.3 107.4 393.4 108.6 395.2 108.6 C 396.5 108.6 397.3 108 397.8 107.2 C 397.76 107.16 397.8 107.2 397.8 107.2 L 399 107.2 C 399 107.2 398.97 107.16 399 107.2 C 398.6 108.3 397.4 109.6 395.1 109.6 C 392.3 109.6 391 107.5 391 105.4 C 391 105.4 391 105.4 391 105.4 C 391 102.9 392.6 101.1 395 101.1 C 398.1 101.1 399.1 103.4 399.1 105.3 C 399.1 105.4 399.1 105.5 399.1 105.6 C 399.09 105.65 392.2 105.6 392.2 105.6 Z M 397.8 104.7 C 397.8 104.7 397.81 104.72 397.8 104.7 C 397.7 103.7 397.2 102.1 395 102.1 C 393.3 102.1 392.4 103.2 392.2 104.7 C 392.22 104.72 392.2 104.7 392.2 104.7 L 397.8 104.7 Z M 401.4 101.4 C 402.1 102.8 404.1 107.4 404.4 108.2 C 404.4 108.2 404.5 108.2 404.5 108.2 C 404.7 107.6 405.2 106.3 407.4 101.4 C 407.39 101.35 408.6 101.4 408.6 101.4 L 405.1 109.4 L 403.7 109.4 L 400.1 101.4 C 400.1 101.4 401.44 101.35 401.4 101.4 Z M 410.9 105.6 C 410.9 105.6 410.88 105.65 410.9 105.6 C 411 107.4 412.1 108.6 413.9 108.6 C 415.2 108.6 416 108 416.5 107.2 C 416.45 107.16 416.5 107.2 416.5 107.2 L 417.7 107.2 C 417.7 107.2 417.66 107.16 417.7 107.2 C 417.2 108.3 416.1 109.6 413.8 109.6 C 411 109.6 409.7 107.5 409.7 105.4 C 409.7 105.4 409.7 105.4 409.7 105.4 C 409.7 102.9 411.3 101.1 413.7 101.1 C 416.8 101.1 417.8 103.4 417.8 105.3 C 417.8 105.4 417.8 105.5 417.8 105.6 C 417.78 105.65 410.9 105.6 410.9 105.6 Z M 416.5 104.7 C 416.5 104.7 416.5 104.72 416.5 104.7 C 416.4 103.7 415.9 102.1 413.7 102.1 C 412 102.1 411.1 103.2 410.9 104.7 C 410.91 104.72 410.9 104.7 410.9 104.7 L 416.5 104.7 Z M 420.1 103.5 C 420.1 102.8 420.1 102.1 420.1 101.4 C 420.1 101.4 421.3 101.4 421.3 101.4 C 421.3 101.6 421.3 102.4 421.3 103.2 C 421.9 101.9 423.1 101.1 424.6 101.1 C 424.6 101.1 424.6 102.3 424.6 102.3 C 422.8 102.3 421.3 103.5 421.3 105.9 C 421.34 105.92 421.3 109.4 421.3 109.4 L 420.1 109.4 C 420.1 109.4 420.14 103.54 420.1 103.5 Z M 437.6 109.4 L 437.6 97.3 L 438.8 97.3 L 438.8 109.4 L 437.6 109.4 Z M 442.4 105.6 C 442.4 105.6 442.43 105.65 442.4 105.6 C 442.5 107.4 443.7 108.6 445.4 108.6 C 446.8 108.6 447.5 108 448 107.2 C 448 107.16 448 107.2 448 107.2 L 449.2 107.2 C 449.2 107.2 449.21 107.16 449.2 107.2 C 448.8 108.3 447.7 109.6 445.3 109.6 C 442.6 109.6 441.2 107.5 441.2 105.4 C 441.2 105.4 441.2 105.4 441.2 105.4 C 441.2 102.9 442.9 101.1 445.3 101.1 C 448.3 101.1 449.3 103.4 449.3 105.3 C 449.3 105.4 449.3 105.5 449.3 105.6 C 449.33 105.65 442.4 105.6 442.4 105.6 Z M 448.1 104.7 C 448.1 104.7 448.05 104.72 448.1 104.7 C 448 103.7 447.4 102.1 445.3 102.1 C 443.5 102.1 442.6 103.2 442.5 104.7 C 442.46 104.72 442.5 104.7 442.5 104.7 L 448.1 104.7 Z " stroke="none" fill="#141414"/>  </g></svg>