<?xml version="1.0" standalone="no"?><!DOCTYPE svg PUBLIC "-//W3C//DTD SVG 1.1//EN" "http://www.w3.org/Graphics/SVG/1.1/DTD/svg11.dtd"><svg xmlns="http://www.w3.org/2000/svg" version="1.1" width="90px" height="14.8px" viewBox="0 -2 90 14.8" style="top:-2px">  <desc>Page</desc>  <defs/>  <g id="Polygon4312">    <path d="M 42 3.3 L 40.9 4 L 41.2 2.5 L 42.7 1.6 L 44 1.6 L 43 6.5 L 41.3 6.5 L 42 3.3 Z M 45.1 5.7 C 45.1 5.7 45.82 5.13 45.8 5.1 C 46 5 46.2 4.9 46.4 4.7 C 46.8 4.4 47.1 4.2 47.3 4 C 47.5 3.8 47.6 3.7 47.7 3.5 C 47.7 3.5 47.7 3.4 47.7 3.4 C 47.7 3.2 47.5 3.1 47.1 3.1 C 46.9 3.1 46.7 3.1 46.4 3.2 C 46.2 3.3 45.9 3.4 45.7 3.6 C 45.7 3.6 46 2 46 2 C 46.3 1.8 46.6 1.7 46.9 1.6 C 47.2 1.5 47.6 1.5 47.9 1.5 C 48.4 1.5 48.8 1.6 49.1 1.8 C 49.4 2.1 49.5 2.4 49.5 2.7 C 49.5 2.8 49.5 2.9 49.5 3 C 49.4 3.4 49.2 3.8 49 4 C 48.8 4.3 48.5 4.6 48.1 4.9 C 48.15 4.88 47.7 5.2 47.7 5.2 L 49.1 5.2 L 48.9 6.5 L 44.9 6.5 L 45.1 5.7 Z " stroke="none" fill="#fafafa"/>  </g></svg>