<?xml version="1.0" standalone="no"?><!DOCTYPE svg PUBLIC "-//W3C//DTD SVG 1.1//EN" "http://www.w3.org/Graphics/SVG/1.1/DTD/svg11.dtd"><svg xmlns="http://www.w3.org/2000/svg" version="1.1" width="90px" height="14.8px" viewBox="0 -2 90 14.8" style="top:-2px">  <desc>Page</desc>  <defs/>  <g id="Polygon9469">    <path d="M 44.2 6.6 C 43.9 6.6 43.7 6.6 43.4 6.5 C 43.1 6.4 42.9 6.3 42.7 6.2 C 42.7 6.2 43 4.8 43 4.8 C 43.2 5 43.4 5.1 43.7 5.2 C 43.9 5.3 44.2 5.3 44.4 5.3 C 44.9 5.3 45.2 5.2 45.2 4.9 C 45.3 4.8 45.3 4.8 45.3 4.8 C 45.3 4.5 45.1 4.4 44.6 4.4 C 44.5 4.4 44.3 4.4 44.1 4.5 C 44 4.5 43.8 4.5 43.7 4.6 C 43.65 4.58 43.1 4.3 43.1 4.3 L 43.9 1.6 L 47.3 1.6 L 47 2.9 L 45.2 2.9 C 45.2 2.9 45.06 3.29 45.1 3.3 C 45.2 3.2 45.4 3.2 45.6 3.2 C 46.1 3.2 46.4 3.3 46.6 3.5 C 46.9 3.7 47 4 47 4.4 C 47 4.5 47 4.6 46.9 4.8 C 46.8 5.4 46.5 5.8 46.1 6.1 C 45.6 6.4 45 6.6 44.2 6.6 C 44.2 6.6 44.2 6.6 44.2 6.6 Z " stroke="none" fill="#fafafa"/>  </g></svg>