<?xml version="1.0" standalone="no"?><!DOCTYPE svg PUBLIC "-//W3C//DTD SVG 1.1//EN" "http://www.w3.org/Graphics/SVG/1.1/DTD/svg11.dtd"><svg xmlns="http://www.w3.org/2000/svg" version="1.1" width="450px" height="286.2px" viewBox="0 -1 450 286.2" style="top:-1px">  <desc>Au sol, la paire de basket d’Anna flotte litt ralement jusqu’ ses pieds (en POV camera rig e aux basket). (VO) CANAL...</desc>  <defs/>  <g id="Polygon9768">    <path d="M 13 190.7 C 13 190.7 12.97 190.7 13 190.7 C 12.5 193.1 10.6 194.8 6.9 194.8 C 2.8 194.8 0.7 192.1 0.7 188.9 C 0.7 188.9 0.7 188.9 0.7 188.9 C 0.7 185.8 2.7 183 7.1 183 C 10.9 183 12.7 185 13 187 C 13 187.04 13 187 13 187 L 9.3 187 C 9.3 187 9.31 187.04 9.3 187 C 9.2 186.4 8.7 185.5 7.1 185.5 C 5.4 185.5 4.5 186.8 4.5 188.8 C 4.5 188.8 4.5 188.8 4.5 188.8 C 4.5 190.6 5.2 192.3 7.1 192.3 C 8.5 192.3 9 191.7 9.3 190.7 C 9.33 190.7 9.3 190.7 9.3 190.7 L 13 190.7 Z M 24.9 190.3 C 24.9 190.3 24.9 190.3 24.9 190.3 C 24.9 193 23.1 194.7 19.7 194.7 C 16.2 194.7 14.7 192.5 14.7 190.3 C 14.7 190.3 14.7 190.3 14.7 190.3 C 14.7 188 16.3 185.9 19.8 185.9 C 23.3 185.9 24.9 188.2 24.9 190.3 Z M 18.3 190.3 C 18.3 190.3 18.3 190.3 18.3 190.3 C 18.3 191.6 18.8 192.5 19.8 192.5 C 20.8 192.5 21.3 191.6 21.3 190.4 C 21.3 190.4 21.3 190.4 21.3 190.4 C 21.3 189.1 20.9 188.1 19.8 188.1 C 18.7 188.1 18.3 189 18.3 190.3 Z M 26.8 188.3 C 26.8 187.6 26.8 186.7 26.8 186.1 C 26.8 186.1 30.3 186.1 30.3 186.1 C 30.3 186.4 30.3 186.8 30.4 187.1 C 30.7 186.6 31.5 185.9 33.1 185.9 C 35.2 185.9 36.4 187.2 36.4 189.3 C 36.4 189.34 36.4 194.5 36.4 194.5 L 32.8 194.5 C 32.8 194.5 32.81 189.69 32.8 189.7 C 32.8 188.9 32.5 188.3 31.7 188.3 C 30.8 188.3 30.4 188.9 30.4 190.1 C 30.38 190.14 30.4 194.5 30.4 194.5 L 26.8 194.5 C 26.8 194.5 26.81 188.31 26.8 188.3 Z M 41.1 186.1 C 42 189 42.4 190.4 42.7 191.8 C 42.7 191.8 42.8 191.8 42.8 191.8 C 43.1 190.6 43.5 188.8 44.3 186.1 C 44.34 186.13 47.9 186.1 47.9 186.1 L 44.7 194.5 L 40.5 194.5 L 37.3 186.1 C 37.3 186.1 41.09 186.13 41.1 186.1 Z M 52.1 191.1 C 52.1 191.1 52.08 191.09 52.1 191.1 C 52.1 191.9 52.6 192.6 53.6 192.6 C 54.4 192.6 54.7 192.3 55 191.9 C 54.96 191.9 55 191.9 55 191.9 L 58.4 191.9 C 58.4 191.9 58.39 191.9 58.4 191.9 C 57.9 193.3 56.8 194.7 53.6 194.7 C 49.8 194.7 48.6 192.5 48.6 190.3 C 48.6 190.3 48.6 190.3 48.6 190.3 C 48.6 188 50.1 185.9 53.6 185.9 C 57.1 185.9 58.5 188.2 58.5 190.3 C 58.5 190.5 58.5 190.9 58.5 191.1 C 58.46 191.09 52.1 191.1 52.1 191.1 Z M 55 189.3 C 55 189.3 55 189.29 55 189.3 C 55 188.7 54.7 188 53.6 188 C 52.5 188 52.1 188.5 52.1 189.3 C 52.1 189.29 52.1 189.3 52.1 189.3 L 55 189.3 Z M 60.4 188.5 C 60.4 187.7 60.4 186.8 60.3 186.1 C 60.3 186.1 63.8 186.1 63.8 186.1 C 63.9 186.5 63.9 187.3 63.9 187.7 C 64.3 186.8 65.1 185.9 67 185.9 C 67 185.9 67 189 67 189 C 65 188.9 63.9 189.5 63.9 191.8 C 63.91 191.77 63.9 194.5 63.9 194.5 L 60.4 194.5 C 60.4 194.5 60.36 188.54 60.4 188.5 Z M 68.5 186.1 L 69.9 186.1 L 69.9 183.8 L 73.4 183.8 L 73.4 186.1 L 75.2 186.1 L 75.2 188.4 L 73.4 188.4 C 73.4 188.4 73.44 191.43 73.4 191.4 C 73.4 192 73.6 192.3 74.3 192.3 C 74.5 192.3 74.7 192.3 74.9 192.3 C 74.9 192.3 74.9 194.4 74.9 194.4 C 74.4 194.6 73.6 194.6 72.8 194.6 C 70.4 194.6 69.9 193.6 69.9 191.9 C 69.87 191.93 69.9 188.4 69.9 188.4 L 68.5 188.4 L 68.5 186.1 Z M 76.9 186.1 L 80.5 186.1 L 80.5 194.5 L 76.9 194.5 L 76.9 186.1 Z M 76.9 182.7 L 80.5 182.7 L 80.5 185 L 76.9 185 L 76.9 182.7 Z M 85.6 191.9 C 85.6 191.9 85.57 191.94 85.6 191.9 C 85.7 192.4 86.2 192.7 87 192.7 C 87.8 192.7 88 192.5 88 192.2 C 88 191.8 87.7 191.6 86.3 191.5 C 82.9 191 82.5 189.8 82.5 188.7 C 82.5 187.3 83.6 185.9 86.7 185.9 C 89.9 185.9 91 187.3 91.2 188.6 C 91.16 188.58 91.2 188.6 91.2 188.6 L 88 188.6 C 88 188.6 87.96 188.58 88 188.6 C 87.9 188.2 87.6 187.9 86.7 187.9 C 86 187.9 85.9 188.2 85.9 188.4 C 85.9 188.7 86.2 188.8 87.4 189 C 90.9 189.5 91.4 190.7 91.4 191.9 C 91.4 193.4 90.4 194.7 86.9 194.7 C 84.3 194.7 82.5 193.7 82.3 191.9 C 82.27 191.94 82.3 191.9 82.3 191.9 L 85.6 191.9 Z M 96.2 191.9 C 96.2 191.9 96.22 191.94 96.2 191.9 C 96.4 192.4 96.8 192.7 97.6 192.7 C 98.4 192.7 98.7 192.5 98.7 192.2 C 98.7 191.8 98.3 191.6 97 191.5 C 93.6 191 93.2 189.8 93.2 188.7 C 93.2 187.3 94.2 185.9 97.3 185.9 C 100.6 185.9 101.7 187.3 101.8 188.6 C 101.81 188.58 101.8 188.6 101.8 188.6 L 98.6 188.6 C 98.6 188.6 98.62 188.58 98.6 188.6 C 98.5 188.2 98.2 187.9 97.4 187.9 C 96.7 187.9 96.5 188.2 96.5 188.4 C 96.5 188.7 96.8 188.8 98.1 189 C 101.5 189.5 102.1 190.7 102.1 191.9 C 102.1 193.4 101 194.7 97.6 194.7 C 94.9 194.7 93.2 193.7 92.9 191.9 C 92.92 191.94 92.9 191.9 92.9 191.9 L 96.2 191.9 Z M 107.1 191.1 C 107.1 191.1 107.05 191.09 107.1 191.1 C 107.1 191.9 107.6 192.6 108.6 192.6 C 109.4 192.6 109.7 192.3 109.9 191.9 C 109.93 191.9 109.9 191.9 109.9 191.9 L 113.4 191.9 C 113.4 191.9 113.36 191.9 113.4 191.9 C 112.9 193.3 111.7 194.7 108.5 194.7 C 104.7 194.7 103.5 192.5 103.5 190.3 C 103.5 190.3 103.5 190.3 103.5 190.3 C 103.5 188 105.1 185.9 108.5 185.9 C 112.1 185.9 113.4 188.2 113.4 190.3 C 113.4 190.5 113.4 190.9 113.4 191.1 C 113.43 191.09 107.1 191.1 107.1 191.1 Z M 110 189.3 C 110 189.3 109.98 189.29 110 189.3 C 109.9 188.7 109.7 188 108.6 188 C 107.5 188 107.1 188.5 107.1 189.3 C 107.07 189.29 107.1 189.3 107.1 189.3 L 110 189.3 Z M 114.7 192.3 C 115.1 192 118.4 189.1 119 188.6 C 119 188.55 114.9 188.6 114.9 188.6 L 114.9 186.1 L 123.3 186.1 C 123.3 186.1 123.27 188.41 123.3 188.4 C 122.9 188.7 119.5 191.8 119.2 192.1 C 119.19 192.1 123.7 192.1 123.7 192.1 L 123.3 194.5 L 114.7 194.5 C 114.7 194.5 114.73 192.31 114.7 192.3 Z M 133.3 186.1 C 134.2 189 134.6 190.4 134.9 191.8 C 134.9 191.8 135 191.8 135 191.8 C 135.3 190.6 135.8 188.8 136.5 186.1 C 136.55 186.13 140.1 186.1 140.1 186.1 L 136.9 194.5 L 132.7 194.5 L 129.5 186.1 C 129.5 186.1 133.3 186.13 133.3 186.1 Z M 151 190.3 C 151 190.3 151 190.3 151 190.3 C 151 193 149.2 194.7 145.8 194.7 C 142.2 194.7 140.7 192.5 140.7 190.3 C 140.7 190.3 140.7 190.3 140.7 190.3 C 140.7 188 142.4 185.9 145.9 185.9 C 149.4 185.9 151 188.2 151 190.3 Z M 144.3 190.3 C 144.3 190.3 144.3 190.3 144.3 190.3 C 144.3 191.6 144.8 192.5 145.9 192.5 C 146.9 192.5 147.4 191.6 147.4 190.4 C 147.4 190.4 147.4 190.4 147.4 190.4 C 147.4 189.1 147 188.1 145.9 188.1 C 144.8 188.1 144.3 189 144.3 190.3 Z M 155.8 191.9 C 155.8 191.9 155.8 191.94 155.8 191.9 C 156 192.4 156.4 192.7 157.2 192.7 C 158 192.7 158.2 192.5 158.2 192.2 C 158.2 191.8 157.9 191.6 156.6 191.5 C 153.2 191 152.7 189.8 152.7 188.7 C 152.7 187.3 153.8 185.9 156.9 185.9 C 160.2 185.9 161.2 187.3 161.4 188.6 C 161.39 188.58 161.4 188.6 161.4 188.6 L 158.2 188.6 C 158.2 188.6 158.2 188.58 158.2 188.6 C 158.1 188.2 157.8 187.9 157 187.9 C 156.2 187.9 156.1 188.2 156.1 188.4 C 156.1 188.7 156.4 188.8 157.7 189 C 161.1 189.5 161.7 190.7 161.7 191.9 C 161.7 193.4 160.6 194.7 157.1 194.7 C 154.5 194.7 152.8 193.7 152.5 191.9 C 152.5 191.94 152.5 191.9 152.5 191.9 L 155.8 191.9 Z M 178 191.5 C 178 191.5 177.96 191.54 178 191.5 C 177.7 193.2 176.3 194.7 173.2 194.7 C 169.5 194.7 168.2 192.6 168.2 190.3 C 168.2 190.3 168.2 190.3 168.2 190.3 C 168.2 188 169.9 185.9 173.2 185.9 C 177 185.9 177.8 188.2 177.9 189.1 C 177.9 189.14 177.9 189.1 177.9 189.1 L 174.5 189.1 C 174.5 189.1 174.52 189.14 174.5 189.1 C 174.4 188.7 174.2 188.1 173.3 188.1 C 172.2 188.1 171.8 188.9 171.8 190.3 C 171.8 190.3 171.8 190.3 171.8 190.3 C 171.8 191.7 172.2 192.6 173.3 192.6 C 174 192.6 174.3 192.3 174.6 191.5 C 174.57 191.54 174.6 191.5 174.6 191.5 L 178 191.5 Z M 188.9 191.9 C 188.9 193.1 189 194.4 189 194.5 C 189 194.5 185.7 194.5 185.7 194.5 C 185.7 194.3 185.7 193.9 185.6 193.7 C 185.1 194.4 184.2 194.7 182.7 194.7 C 180.6 194.7 179.5 193.5 179.5 192 C 179.5 192 179.5 192 179.5 192 C 179.5 189.9 181.3 189.2 184 189.2 C 184.6 189.2 185.2 189.2 185.5 189.2 C 185.5 189.2 185.5 188.9 185.5 188.9 C 185.5 188.3 185.3 187.9 184.4 187.9 C 183.5 187.9 183.3 188.3 183.3 188.7 C 183.26 188.67 183.3 188.7 183.3 188.7 L 179.9 188.7 C 179.9 188.7 179.94 188.67 179.9 188.7 C 180 187.6 180.7 185.9 184.4 185.9 C 188.4 185.9 188.9 187.7 188.9 189.1 C 188.9 189.1 188.9 191.9 188.9 191.9 Z M 185.5 191 C 185.4 191 185 191 184.3 191 C 183.3 191 182.8 191.3 182.8 191.8 C 182.8 191.8 182.8 191.8 182.8 191.8 C 182.8 192.2 183.2 192.6 183.9 192.6 C 184.9 192.6 185.5 192.1 185.5 191.1 C 185.5 191.1 185.5 191 185.5 191 Z M 191.1 194.5 L 191.1 182.7 L 194.7 182.7 L 194.7 194.5 L 191.1 194.5 Z M 206.8 190.3 C 206.8 190.3 206.8 190.3 206.8 190.3 C 206.8 193 205 194.7 201.6 194.7 C 198.1 194.7 196.6 192.5 196.6 190.3 C 196.6 190.3 196.6 190.3 196.6 190.3 C 196.6 188 198.2 185.9 201.7 185.9 C 205.2 185.9 206.8 188.2 206.8 190.3 Z M 200.2 190.3 C 200.2 190.3 200.2 190.3 200.2 190.3 C 200.2 191.6 200.7 192.5 201.7 192.5 C 202.7 192.5 203.2 191.6 203.2 190.4 C 203.2 190.4 203.2 190.4 203.2 190.4 C 203.2 189.1 202.8 188.1 201.7 188.1 C 200.6 188.1 200.2 189 200.2 190.3 Z M 208.7 188.5 C 208.7 187.7 208.7 186.8 208.7 186.1 C 208.7 186.1 212.2 186.1 212.2 186.1 C 212.2 186.5 212.3 187.3 212.3 187.7 C 212.7 186.8 213.5 185.9 215.3 185.9 C 215.3 185.9 215.3 189 215.3 189 C 213.4 188.9 212.3 189.5 212.3 191.8 C 212.29 191.77 212.3 194.5 212.3 194.5 L 208.7 194.5 C 208.7 194.5 208.73 188.54 208.7 188.5 Z M 217 186.1 L 220.6 186.1 L 220.6 194.5 L 217 194.5 L 217 186.1 Z M 217 182.7 L 220.6 182.7 L 220.6 185 L 217 185 L 217 182.7 Z M 226 191.1 C 226 191.1 226.03 191.09 226 191.1 C 226.1 191.9 226.6 192.6 227.6 192.6 C 228.4 192.6 228.7 192.3 228.9 191.9 C 228.91 191.9 228.9 191.9 228.9 191.9 L 232.3 191.9 C 232.3 191.9 232.34 191.9 232.3 191.9 C 231.9 193.3 230.7 194.7 227.5 194.7 C 223.7 194.7 222.5 192.5 222.5 190.3 C 222.5 190.3 222.5 190.3 222.5 190.3 C 222.5 188 224 185.9 227.5 185.9 C 231.1 185.9 232.4 188.2 232.4 190.3 C 232.4 190.5 232.4 190.9 232.4 191.1 C 232.42 191.09 226 191.1 226 191.1 Z M 229 189.3 C 229 189.3 228.96 189.29 229 189.3 C 228.9 188.7 228.7 188 227.5 188 C 226.5 188 226.1 188.5 226.1 189.3 C 226.06 189.29 226.1 189.3 226.1 189.3 L 229 189.3 Z M 237.2 191.9 C 237.2 191.9 237.22 191.94 237.2 191.9 C 237.4 192.4 237.8 192.7 238.6 192.7 C 239.4 192.7 239.7 192.5 239.7 192.2 C 239.7 191.8 239.3 191.6 238 191.5 C 234.6 191 234.2 189.8 234.2 188.7 C 234.2 187.3 235.2 185.9 238.3 185.9 C 241.6 185.9 242.7 187.3 242.8 188.6 C 242.81 188.58 242.8 188.6 242.8 188.6 L 239.6 188.6 C 239.6 188.6 239.62 188.58 239.6 188.6 C 239.5 188.2 239.2 187.9 238.4 187.9 C 237.6 187.9 237.5 188.2 237.5 188.4 C 237.5 188.7 237.8 188.8 239.1 189 C 242.5 189.5 243.1 190.7 243.1 191.9 C 243.1 193.4 242 194.7 238.6 194.7 C 235.9 194.7 234.2 193.7 233.9 191.9 C 233.92 191.94 233.9 191.9 233.9 191.9 L 237.2 191.9 Z M 253.2 191.1 C 253.2 191.1 253.18 191.09 253.2 191.1 C 253.2 191.9 253.7 192.6 254.7 192.6 C 255.5 192.6 255.8 192.3 256.1 191.9 C 256.05 191.9 256.1 191.9 256.1 191.9 L 259.5 191.9 C 259.5 191.9 259.49 191.9 259.5 191.9 C 259 193.3 257.9 194.7 254.7 194.7 C 250.9 194.7 249.7 192.5 249.7 190.3 C 249.7 190.3 249.7 190.3 249.7 190.3 C 249.7 188 251.2 185.9 254.7 185.9 C 258.2 185.9 259.6 188.2 259.6 190.3 C 259.6 190.5 259.6 190.9 259.6 191.1 C 259.56 191.09 253.2 191.1 253.2 191.1 Z M 256.1 189.3 C 256.1 189.3 256.1 189.29 256.1 189.3 C 256.1 188.7 255.8 188 254.7 188 C 253.6 188 253.2 188.5 253.2 189.3 C 253.2 189.29 253.2 189.3 253.2 189.3 L 256.1 189.3 Z M 261.4 188.3 C 261.4 187.6 261.4 186.7 261.4 186.1 C 261.4 186.1 264.9 186.1 264.9 186.1 C 265 186.4 265 186.8 265 187.1 C 265.4 186.6 266.2 185.9 267.7 185.9 C 269.9 185.9 271 187.2 271 189.3 C 271.03 189.34 271 194.5 271 194.5 L 267.4 194.5 C 267.4 194.5 267.45 189.69 267.4 189.7 C 267.4 188.9 267.2 188.3 266.3 188.3 C 265.4 188.3 265 188.9 265 190.1 C 265.01 190.14 265 194.5 265 194.5 L 261.4 194.5 C 261.4 194.5 261.44 188.31 261.4 188.3 Z M 281.6 191.1 C 281.6 191.1 281.63 191.09 281.6 191.1 C 281.7 191.9 282.2 192.6 283.1 192.6 C 284 192.6 284.3 192.3 284.5 191.9 C 284.5 191.9 284.5 191.9 284.5 191.9 L 287.9 191.9 C 287.9 191.9 287.94 191.9 287.9 191.9 C 287.5 193.3 286.3 194.7 283.1 194.7 C 279.3 194.7 278.1 192.5 278.1 190.3 C 278.1 190.3 278.1 190.3 278.1 190.3 C 278.1 188 279.6 185.9 283.1 185.9 C 286.7 185.9 288 188.2 288 190.3 C 288 190.5 288 190.9 288 191.1 C 288.01 191.09 281.6 191.1 281.6 191.1 Z M 284.6 189.3 C 284.6 189.3 284.55 189.29 284.6 189.3 C 284.5 188.7 284.2 188 283.1 188 C 282.1 188 281.7 188.5 281.6 189.3 C 281.65 189.29 281.6 189.3 281.6 189.3 L 284.6 189.3 Z M 287.2 182.4 L 284.1 185 L 281.3 185 L 283.5 182.4 L 287.2 182.4 Z M 293.4 193.9 C 293.45 193.88 293.4 197.9 293.4 197.9 L 289.9 197.9 C 289.9 197.9 289.9 188.43 289.9 188.4 C 289.9 187.7 289.9 186.8 289.9 186.1 C 289.9 186.1 293.4 186.1 293.4 186.1 C 293.4 186.3 293.4 186.8 293.4 187.1 C 293.9 186.5 294.7 185.9 296.3 185.9 C 298.3 185.9 300.1 187.6 300.1 190.2 C 300.1 190.2 300.1 190.2 300.1 190.2 C 300.1 193.2 298 194.7 295.8 194.7 C 294.5 194.7 293.8 194.3 293.4 193.9 Z M 296.5 190.3 C 296.5 190.3 296.5 190.3 296.5 190.3 C 296.5 189.1 295.9 188.3 294.9 188.3 C 293.8 188.3 293.4 189.1 293.4 190.3 C 293.4 190.3 293.4 190.3 293.4 190.3 C 293.4 191.6 293.9 192.3 294.9 192.3 C 295.9 192.3 296.5 191.5 296.5 190.3 Z M 302 186.1 L 305.6 186.1 L 305.6 194.5 L 302 194.5 L 302 186.1 Z M 302 182.7 L 305.6 182.7 L 305.6 185 L 302 185 L 302 182.7 Z M 310.7 191.9 C 310.7 191.9 310.68 191.94 310.7 191.9 C 310.8 192.4 311.3 192.7 312.1 192.7 C 312.9 192.7 313.1 192.5 313.1 192.2 C 313.1 191.8 312.8 191.6 311.4 191.5 C 308.1 191 307.6 189.8 307.6 188.7 C 307.6 187.3 308.7 185.9 311.8 185.9 C 315 185.9 316.1 187.3 316.3 188.6 C 316.27 188.58 316.3 188.6 316.3 188.6 L 313.1 188.6 C 313.1 188.6 313.07 188.58 313.1 188.6 C 313 188.2 312.7 187.9 311.9 187.9 C 311.1 187.9 311 188.2 311 188.4 C 311 188.7 311.3 188.8 312.5 189 C 316 189.5 316.5 190.7 316.5 191.9 C 316.5 193.4 315.5 194.7 312 194.7 C 309.4 194.7 307.6 193.7 307.4 191.9 C 307.38 191.94 307.4 191.9 307.4 191.9 L 310.7 191.9 Z M 328.2 190.3 C 328.2 190.3 328.2 190.3 328.2 190.3 C 328.2 193 326.4 194.7 323 194.7 C 319.5 194.7 318 192.5 318 190.3 C 318 190.3 318 190.3 318 190.3 C 318 188 319.7 185.9 323.1 185.9 C 326.7 185.9 328.2 188.2 328.2 190.3 Z M 321.6 190.3 C 321.6 190.3 321.6 190.3 321.6 190.3 C 321.6 191.6 322.1 192.5 323.1 192.5 C 324.1 192.5 324.6 191.6 324.6 190.4 C 324.6 190.4 324.6 190.4 324.6 190.4 C 324.6 189.1 324.2 188.1 323.1 188.1 C 322.1 188.1 321.6 189 321.6 190.3 Z M 340.1 182.7 C 340.1 182.7 340.06 191.94 340.1 191.9 C 340.1 192.8 340.1 193.8 340.1 194.5 C 340.1 194.5 336.6 194.5 336.6 194.5 C 336.5 194.3 336.5 193.9 336.5 193.7 C 335.9 194.3 335.3 194.7 333.8 194.7 C 331.4 194.7 329.8 192.9 329.8 190.4 C 329.8 190.4 329.8 190.4 329.8 190.4 C 329.8 187.5 331.9 185.9 334.1 185.9 C 335.6 185.9 336.2 186.4 336.5 186.7 C 336.49 186.68 336.5 182.7 336.5 182.7 L 340.1 182.7 Z M 333.5 190.3 C 333.5 190.3 333.5 190.3 333.5 190.3 C 333.5 191.5 334 192.3 335.1 192.3 C 336.1 192.3 336.6 191.6 336.6 190.3 C 336.6 190.3 336.6 190.3 336.6 190.3 C 336.6 189.1 336.2 188.3 335.1 188.3 C 334 188.3 333.5 189.2 333.5 190.3 Z M 345.5 191.1 C 345.5 191.1 345.48 191.09 345.5 191.1 C 345.5 191.9 346 192.6 347 192.6 C 347.8 192.6 348.1 192.3 348.4 191.9 C 348.35 191.9 348.4 191.9 348.4 191.9 L 351.8 191.9 C 351.8 191.9 351.78 191.9 351.8 191.9 C 351.3 193.3 350.2 194.7 347 194.7 C 343.2 194.7 341.9 192.5 341.9 190.3 C 341.9 190.3 341.9 190.3 341.9 190.3 C 341.9 188 343.5 185.9 347 185.9 C 350.5 185.9 351.9 188.2 351.9 190.3 C 351.9 190.5 351.9 190.9 351.9 191.1 C 351.86 191.09 345.5 191.1 345.5 191.1 Z M 348.4 189.3 C 348.4 189.3 348.4 189.29 348.4 189.3 C 348.4 188.7 348.1 188 347 188 C 345.9 188 345.5 188.5 345.5 189.3 C 345.5 189.29 345.5 189.3 345.5 189.3 L 348.4 189.3 Z M 356.7 191.9 C 356.7 191.9 356.66 191.94 356.7 191.9 C 356.8 192.4 357.3 192.7 358.1 192.7 C 358.9 192.7 359.1 192.5 359.1 192.2 C 359.1 191.8 358.7 191.6 357.4 191.5 C 354 191 353.6 189.8 353.6 188.7 C 353.6 187.3 354.7 185.9 357.8 185.9 C 361 185.9 362.1 187.3 362.2 188.6 C 362.25 188.58 362.2 188.6 362.2 188.6 L 359.1 188.6 C 359.1 188.6 359.06 188.58 359.1 188.6 C 359 188.2 358.7 187.9 357.8 187.9 C 357.1 187.9 357 188.2 357 188.4 C 357 188.7 357.3 188.8 358.5 189 C 362 189.5 362.5 190.7 362.5 191.9 C 362.5 193.4 361.5 194.7 358 194.7 C 355.4 194.7 353.6 193.7 353.4 191.9 C 353.36 191.94 353.4 191.9 353.4 191.9 L 356.7 191.9 Z M 379.3 182.7 C 379.3 182.7 379.31 191.94 379.3 191.9 C 379.3 192.8 379.3 193.8 379.3 194.5 C 379.3 194.5 375.8 194.5 375.8 194.5 C 375.8 194.3 375.8 193.9 375.7 193.7 C 375.2 194.3 374.6 194.7 373.1 194.7 C 370.7 194.7 369.1 192.9 369.1 190.4 C 369.1 190.4 369.1 190.4 369.1 190.4 C 369.1 187.5 371.2 185.9 373.3 185.9 C 374.8 185.9 375.5 186.4 375.7 186.7 C 375.74 186.68 375.7 182.7 375.7 182.7 L 379.3 182.7 Z M 372.7 190.3 C 372.7 190.3 372.7 190.3 372.7 190.3 C 372.7 191.5 373.3 192.3 374.3 192.3 C 375.4 192.3 375.8 191.6 375.8 190.3 C 375.8 190.3 375.8 190.3 375.8 190.3 C 375.8 189.1 375.4 188.3 374.3 188.3 C 373.2 188.3 372.7 189.2 372.7 190.3 Z M 384.7 191.1 C 384.7 191.1 384.73 191.09 384.7 191.1 C 384.8 191.9 385.3 192.6 386.2 192.6 C 387 192.6 387.4 192.3 387.6 191.9 C 387.6 191.9 387.6 191.9 387.6 191.9 L 391 191.9 C 391 191.9 391.04 191.9 391 191.9 C 390.6 193.3 389.4 194.7 386.2 194.7 C 382.4 194.7 381.2 192.5 381.2 190.3 C 381.2 190.3 381.2 190.3 381.2 190.3 C 381.2 188 382.7 185.9 386.2 185.9 C 389.8 185.9 391.1 188.2 391.1 190.3 C 391.1 190.5 391.1 190.9 391.1 191.1 C 391.11 191.09 384.7 191.1 384.7 191.1 Z M 387.6 189.3 C 387.6 189.3 387.65 189.29 387.6 189.3 C 387.6 188.7 387.3 188 386.2 188 C 385.2 188 384.8 188.5 384.7 189.3 C 384.75 189.29 384.7 189.3 384.7 189.3 L 387.6 189.3 Z M 400.9 191.9 C 400.9 191.9 400.92 191.94 400.9 191.9 C 401.1 192.4 401.5 192.7 402.3 192.7 C 403.1 192.7 403.4 192.5 403.4 192.2 C 403.4 191.8 403 191.6 401.7 191.5 C 398.3 191 397.9 189.8 397.9 188.7 C 397.9 187.3 398.9 185.9 402 185.9 C 405.3 185.9 406.4 187.3 406.5 188.6 C 406.51 188.58 406.5 188.6 406.5 188.6 L 403.3 188.6 C 403.3 188.6 403.32 188.58 403.3 188.6 C 403.2 188.2 402.9 187.9 402.1 187.9 C 401.3 187.9 401.2 188.2 401.2 188.4 C 401.2 188.7 401.5 188.8 402.8 189 C 406.2 189.5 406.8 190.7 406.8 191.9 C 406.8 193.4 405.7 194.7 402.3 194.7 C 399.6 194.7 397.9 193.7 397.6 191.9 C 397.62 191.94 397.6 191.9 397.6 191.9 L 400.9 191.9 Z M 411.8 191.1 C 411.8 191.1 411.75 191.09 411.8 191.1 C 411.8 191.9 412.3 192.6 413.3 192.6 C 414.1 192.6 414.4 192.3 414.6 191.9 C 414.63 191.9 414.6 191.9 414.6 191.9 L 418.1 191.9 C 418.1 191.9 418.06 191.9 418.1 191.9 C 417.6 193.3 416.4 194.7 413.2 194.7 C 409.4 194.7 408.2 192.5 408.2 190.3 C 408.2 190.3 408.2 190.3 408.2 190.3 C 408.2 188 409.8 185.9 413.2 185.9 C 416.8 185.9 418.1 188.2 418.1 190.3 C 418.1 190.5 418.1 190.9 418.1 191.1 C 418.13 191.09 411.8 191.1 411.8 191.1 Z M 414.7 189.3 C 414.7 189.3 414.67 189.29 414.7 189.3 C 414.6 188.7 414.4 188 413.3 188 C 412.2 188 411.8 188.5 411.8 189.3 C 411.77 189.29 411.8 189.3 411.8 189.3 L 414.7 189.3 Z M 417.3 182.4 L 414.2 185 L 411.5 185 L 413.6 182.4 L 417.3 182.4 Z M 420 188.5 C 420 187.7 420 186.8 420 186.1 C 420 186.1 423.5 186.1 423.5 186.1 C 423.5 186.5 423.6 187.3 423.6 187.7 C 424 186.8 424.8 185.9 426.6 185.9 C 426.6 185.9 426.6 189 426.6 189 C 424.7 188.9 423.6 189.5 423.6 191.8 C 423.58 191.77 423.6 194.5 423.6 194.5 L 420 194.5 C 420 194.5 420.03 188.54 420 188.5 Z M 428.3 186.1 L 431.9 186.1 L 431.9 194.5 L 428.3 194.5 L 428.3 186.1 Z M 428.3 182.7 L 431.9 182.7 L 431.9 185 L 428.3 185 L 428.3 182.7 Z M 437.3 191.1 C 437.3 191.1 437.33 191.09 437.3 191.1 C 437.4 191.9 437.9 192.6 438.8 192.6 C 439.6 192.6 440 192.3 440.2 191.9 C 440.2 191.9 440.2 191.9 440.2 191.9 L 443.6 191.9 C 443.6 191.9 443.63 191.9 443.6 191.9 C 443.2 193.3 442 194.7 438.8 194.7 C 435 194.7 433.8 192.5 433.8 190.3 C 433.8 190.3 433.8 190.3 433.8 190.3 C 433.8 188 435.3 185.9 438.8 185.9 C 442.4 185.9 443.7 188.2 443.7 190.3 C 443.7 190.5 443.7 190.9 443.7 191.1 C 443.71 191.09 437.3 191.1 437.3 191.1 Z M 440.2 189.3 C 440.2 189.3 440.25 189.29 440.2 189.3 C 440.2 188.7 439.9 188 438.8 188 C 437.8 188 437.4 188.5 437.3 189.3 C 437.35 189.29 437.3 189.3 437.3 189.3 L 440.2 189.3 Z M 445.6 194.5 L 445.6 190.8 L 449.2 190.8 L 449.2 194.5 L 445.6 194.5 Z " stroke="none" fill="#141414"/>  </g>  <g id="Polygon9767">    <path d="M 6.5 158.4 C 5 160.1 3.7 162.5 3.7 165.6 C 3.7 168.4 4.7 170.8 6.5 172.9 C 6.5 172.9 3.5 172.9 3.5 172.9 C 2 171.3 0.8 168.6 0.8 165.5 C 0.8 162.5 2.1 159.9 3.5 158.4 C 3.5 158.4 6.5 158.4 6.5 158.4 Z M 11.7 170.2 L 7.3 158.9 L 11.3 158.9 C 11.3 158.9 12.91 164 12.9 164 C 13.5 165.8 13.8 166.8 14 167.6 C 14 167.6 14 167.6 14 167.6 C 14.2 166.9 14.3 166.4 15.1 163.8 C 15.13 163.82 16.7 158.9 16.7 158.9 L 20.6 158.9 L 16.1 170.2 L 11.7 170.2 Z M 33.9 164.5 C 33.9 164.5 33.9 164.5 33.9 164.5 C 33.9 167.7 31.8 170.5 27.4 170.5 C 23.3 170.5 21.1 167.9 21.1 164.6 C 21.1 164.6 21.1 164.6 21.1 164.6 C 21.1 161.5 23.2 158.7 27.5 158.7 C 31.6 158.7 33.9 161.4 33.9 164.5 Z M 24.9 164.5 C 24.9 164.5 24.9 164.5 24.9 164.5 C 24.9 166.5 25.7 167.9 27.6 167.9 C 29.4 167.9 30 166.3 30 164.6 C 30 164.6 30 164.6 30 164.6 C 30 162.6 29.4 161.2 27.5 161.2 C 25.6 161.2 24.9 162.7 24.9 164.5 Z M 34.5 172.9 C 35.9 171.2 37.3 168.8 37.3 165.8 C 37.3 163 36.2 160.5 34.5 158.4 C 34.5 158.4 37.5 158.4 37.5 158.4 C 39 160 40.2 162.7 40.2 165.8 C 40.2 168.8 38.8 171.4 37.5 172.9 C 37.5 172.9 34.5 172.9 34.5 172.9 Z M 61.6 166.4 C 61.6 166.4 61.55 166.38 61.6 166.4 C 61 168.8 59.1 170.5 55.5 170.5 C 51.3 170.5 49.3 167.8 49.3 164.6 C 49.3 164.6 49.3 164.6 49.3 164.6 C 49.3 161.5 51.3 158.7 55.7 158.7 C 59.5 158.7 61.3 160.7 61.6 162.7 C 61.58 162.72 61.6 162.7 61.6 162.7 L 57.9 162.7 C 57.9 162.7 57.89 162.72 57.9 162.7 C 57.7 162.1 57.3 161.2 55.7 161.2 C 53.9 161.2 53.1 162.5 53.1 164.5 C 53.1 164.5 53.1 164.5 53.1 164.5 C 53.1 166.3 53.8 167.9 55.7 167.9 C 57 167.9 57.6 167.3 57.9 166.4 C 57.91 166.38 57.9 166.4 57.9 166.4 L 61.6 166.4 Z M 66.6 168.1 L 65.9 170.2 L 62.2 170.2 L 66.5 158.9 L 71.3 158.9 L 75.8 170.2 L 71.9 170.2 L 71.1 168.1 L 66.6 168.1 Z M 70.3 165.5 C 69.5 163.5 69.1 162.2 68.8 161.3 C 68.8 161.3 68.8 161.3 68.8 161.3 C 68.5 162.2 68 163.8 67.4 165.5 C 67.4 165.5 70.3 165.5 70.3 165.5 Z M 77.4 170.2 L 77.4 158.9 C 77.4 158.9 81.71 158.95 81.7 158.9 C 84.2 163 85 164.4 85.8 165.9 C 85.8 165.9 85.8 165.9 85.8 165.9 C 85.7 164.8 85.7 162.8 85.7 160.9 C 85.73 160.93 85.7 158.9 85.7 158.9 L 89 158.9 L 89 170.2 C 89 170.2 85 170.2 85 170.2 C 84.1 168.6 81.4 163.8 80.7 162.5 C 80.7 162.5 80.6 162.5 80.6 162.5 C 80.7 163.8 80.7 165.3 80.7 167.5 C 80.75 167.46 80.7 170.2 80.7 170.2 L 77.4 170.2 Z M 95.1 168.1 L 94.3 170.2 L 90.7 170.2 L 94.9 158.9 L 99.7 158.9 L 104.2 170.2 L 100.3 170.2 L 99.5 168.1 L 95.1 168.1 Z M 98.7 165.5 C 98 163.5 97.5 162.2 97.2 161.3 C 97.2 161.3 97.2 161.3 97.2 161.3 C 96.9 162.2 96.5 163.8 95.9 165.5 C 95.9 165.5 98.7 165.5 98.7 165.5 Z M 105.9 158.9 L 109.5 158.9 L 109.5 167.6 L 115.6 167.6 L 115.2 170.2 L 105.9 170.2 L 105.9 158.9 Z M 122.2 160.4 L 122.2 164.1 L 125.8 164.1 L 125.8 166.5 L 122.2 166.5 L 122.2 170.2 L 119.6 170.2 L 119.6 166.5 L 116 166.5 L 116 164.1 L 119.6 164.1 L 119.6 160.4 L 122.2 160.4 Z M 135.7 170.2 L 135.7 158.4 L 139.3 158.4 L 139.3 170.2 L 135.7 170.2 Z M 150.6 167.6 C 150.6 168.8 150.7 170 150.7 170.2 C 150.7 170.2 147.4 170.2 147.4 170.2 C 147.4 170 147.3 169.6 147.3 169.3 C 146.8 170 145.8 170.4 144.4 170.4 C 142.2 170.4 141.2 169.2 141.2 167.7 C 141.2 167.7 141.2 167.7 141.2 167.7 C 141.2 165.6 143 164.9 145.7 164.9 C 146.3 164.9 146.9 164.9 147.2 164.9 C 147.2 164.9 147.2 164.6 147.2 164.6 C 147.2 164 147 163.6 146.1 163.6 C 145.2 163.6 145 164 144.9 164.3 C 144.94 164.35 144.9 164.3 144.9 164.3 L 141.6 164.3 C 141.6 164.3 141.62 164.35 141.6 164.3 C 141.7 163.3 142.4 161.6 146.1 161.6 C 150 161.6 150.6 163.3 150.6 164.7 C 150.6 164.7 150.6 167.6 150.6 167.6 Z M 147.2 166.6 C 147.1 166.6 146.6 166.6 145.9 166.6 C 144.9 166.6 144.5 166.9 144.5 167.5 C 144.5 167.5 144.5 167.5 144.5 167.5 C 144.5 167.9 144.9 168.2 145.6 168.2 C 146.6 168.2 147.2 167.8 147.2 166.7 C 147.2 166.7 147.2 166.6 147.2 166.6 Z M 152.8 164 C 152.8 163.3 152.8 162.4 152.8 161.8 C 152.8 161.8 156.3 161.8 156.3 161.8 C 156.3 162 156.3 162.5 156.4 162.7 C 156.7 162.2 157.5 161.6 159.1 161.6 C 161.2 161.6 162.4 162.9 162.4 165 C 162.39 165.02 162.4 170.2 162.4 170.2 L 158.8 170.2 C 158.8 170.2 158.81 165.37 158.8 165.4 C 158.8 164.6 158.5 164 157.7 164 C 156.8 164 156.4 164.5 156.4 165.8 C 156.37 165.82 156.4 170.2 156.4 170.2 L 152.8 170.2 C 152.8 170.2 152.81 163.99 152.8 164 Z M 174 167.2 C 174 167.2 173.98 167.22 174 167.2 C 173.7 168.9 172.3 170.4 169.2 170.4 C 165.5 170.4 164.3 168.3 164.3 166 C 164.3 166 164.3 166 164.3 166 C 164.3 163.6 165.9 161.6 169.2 161.6 C 173 161.6 173.9 163.9 173.9 164.8 C 173.93 164.82 173.9 164.8 173.9 164.8 L 170.5 164.8 C 170.5 164.8 170.55 164.82 170.5 164.8 C 170.4 164.4 170.2 163.8 169.3 163.8 C 168.3 163.8 167.9 164.6 167.9 166 C 167.9 166 167.9 166 167.9 166 C 167.9 167.3 168.2 168.2 169.3 168.2 C 170 168.2 170.4 167.9 170.6 167.2 C 170.6 167.22 170.6 167.2 170.6 167.2 L 174 167.2 Z M 179 166.8 C 179 166.8 178.97 166.77 179 166.8 C 179 167.6 179.5 168.2 180.5 168.2 C 181.3 168.2 181.6 168 181.8 167.6 C 181.85 167.58 181.8 167.6 181.8 167.6 L 185.3 167.6 C 185.3 167.6 185.28 167.58 185.3 167.6 C 184.8 169 183.7 170.4 180.5 170.4 C 176.6 170.4 175.4 168.1 175.4 166 C 175.4 166 175.4 166 175.4 166 C 175.4 163.7 177 161.6 180.4 161.6 C 184 161.6 185.4 163.9 185.4 166 C 185.4 166.2 185.4 166.6 185.4 166.8 C 185.36 166.77 179 166.8 179 166.8 Z M 181.9 165 C 181.9 165 181.9 164.97 181.9 165 C 181.9 164.3 181.6 163.7 180.5 163.7 C 179.4 163.7 179 164.2 179 165 C 178.99 164.97 179 165 179 165 L 181.9 165 Z M 194.8 158.9 C 194.8 158.9 201.77 158.95 201.8 158.9 C 204.6 158.9 205.8 160.3 205.8 161.9 C 205.8 161.9 205.8 161.9 205.8 161.9 C 205.8 163.2 205 163.9 204.1 164.3 C 205.2 164.6 206.3 165.4 206.3 166.9 C 206.3 166.9 206.3 166.9 206.3 166.9 C 206.3 168.8 204.8 170.2 201.7 170.2 C 201.69 170.2 194.8 170.2 194.8 170.2 L 194.8 158.9 Z M 200.9 163.3 C 201.9 163.3 202.2 162.8 202.2 162.3 C 202.2 162.3 202.2 162.3 202.2 162.3 C 202.2 161.6 201.7 161.3 200.9 161.3 C 200.87 161.28 198.4 161.3 198.4 161.3 L 198.4 163.3 C 198.4 163.3 200.86 163.26 200.9 163.3 Z M 198.4 167.9 C 198.4 167.9 200.91 167.88 200.9 167.9 C 201.9 167.9 202.4 167.5 202.4 166.7 C 202.4 166.7 202.4 166.7 202.4 166.7 C 202.4 166 202 165.6 201 165.6 C 200.99 165.57 198.4 165.6 198.4 165.6 L 198.4 167.9 Z M 212.4 158.9 L 212.4 170.2 L 208.8 170.2 L 208.8 158.9 L 212.4 158.9 Z M 215.4 170.2 L 215.4 158.9 C 215.4 158.9 219.7 158.95 219.7 158.9 C 222.2 163 223 164.4 223.8 165.9 C 223.8 165.9 223.8 165.9 223.8 165.9 C 223.7 164.8 223.7 162.8 223.7 160.9 C 223.73 160.93 223.7 158.9 223.7 158.9 L 227 158.9 L 227 170.2 C 227 170.2 223 170.2 223 170.2 C 222.1 168.6 219.4 163.8 218.7 162.5 C 218.7 162.5 218.6 162.5 218.6 162.5 C 218.7 163.8 218.7 165.3 218.7 167.5 C 218.74 167.46 218.7 170.2 218.7 170.2 L 215.4 170.2 Z M 241.7 170.2 C 241.7 170.2 239.21 170.2 239.2 170.2 C 239.1 170 239 169.6 239 169.2 C 238.3 170 237.3 170.5 235.3 170.5 C 231.5 170.5 229.5 168 229.5 164.7 C 229.5 164.7 229.5 164.7 229.5 164.7 C 229.5 161.5 231.5 158.7 236 158.7 C 239.5 158.7 241.4 160.5 241.7 162.4 C 241.73 162.39 241.7 162.4 241.7 162.4 L 238.1 162.4 C 238.1 162.4 238.07 162.39 238.1 162.4 C 237.9 161.9 237.4 161.1 236 161.1 C 234 161.1 233.4 162.7 233.4 164.5 C 233.4 164.5 233.4 164.5 233.4 164.5 C 233.4 166.5 234.1 168 236 168 C 237.6 168 238.2 167.1 238.2 166.2 C 238.2 166.22 238.2 166.1 238.2 166.1 L 236 166.1 L 236 163.6 L 241.7 163.6 L 241.7 170.2 Z M 254.2 165.7 L 248.2 165.7 L 248.2 167.6 L 254.9 167.6 L 254.5 170.2 L 244.6 170.2 L 244.6 158.9 L 254.5 158.9 L 254.5 161.6 L 248.2 161.6 L 248.2 163.1 L 254.2 163.1 L 254.2 165.7 Z M 261.9 164.7 L 261.9 167.4 L 256.3 167.4 L 256.3 164.7 L 261.9 164.7 Z M 264.6 158.9 L 274.4 158.9 L 274.4 161.5 L 268.2 161.5 L 268.2 163.6 L 274 163.6 L 274 166.2 L 268.2 166.2 L 268.2 170.2 L 264.6 170.2 L 264.6 158.9 Z M 280.1 158.9 L 280.1 170.2 L 276.4 170.2 L 276.4 158.9 L 280.1 158.9 Z M 285.7 161.5 L 282 161.5 L 282 158.9 L 293.1 158.9 L 293.1 161.5 L 289.4 161.5 L 289.4 170.2 L 285.7 170.2 L 285.7 161.5 Z " stroke="none" fill="#141414"/>  </g>  <g id="Polygon9766">    <path d="M 2.7 113.5 C 2.7 113.5 2.67 122.03 2.7 122 C 2.7 123.9 2.3 125.3 -0.1 125.3 C -0.1 125.3 -0.2 125.3 -0.2 125.3 C -0.2 125.3 -0.2 124.3 -0.2 124.3 C -0.2 124.3 -0.1 124.3 -0.1 124.3 C 1.1 124.3 1.5 123.6 1.5 122.3 C 1.46 122.26 1.5 113.5 1.5 113.5 L 2.7 113.5 Z M 1.5 111.3 L 1.5 109.5 L 2.7 109.5 L 2.7 111.3 L 1.5 111.3 Z M 12.7 119.2 C 12.7 120 12.7 120.8 12.7 121.6 C 12.7 121.6 11.6 121.6 11.6 121.6 C 11.6 121.3 11.5 120.7 11.5 120.1 C 11.1 121.1 10.4 121.8 8.6 121.8 C 6.9 121.8 5.5 120.9 5.5 118.5 C 5.55 118.53 5.5 113.5 5.5 113.5 L 6.8 113.5 C 6.8 113.5 6.76 118.29 6.8 118.3 C 6.8 119.6 7.3 120.7 8.8 120.7 C 10.7 120.7 11.5 119.6 11.5 117.1 C 11.52 117.13 11.5 113.5 11.5 113.5 L 12.7 113.5 C 12.7 113.5 12.73 119.21 12.7 119.2 Z M 16.2 119.1 C 16.2 119.1 16.2 119.13 16.2 119.1 C 16.5 120.2 17.4 120.8 19 120.8 C 20.7 120.8 21.3 120.2 21.3 119.4 C 21.3 118.6 20.9 118.1 18.7 117.9 C 15.9 117.5 15.4 116.6 15.4 115.6 C 15.4 114.6 16.2 113.3 18.7 113.3 C 21.4 113.3 22.2 114.8 22.2 115.7 C 22.24 115.66 22.2 115.7 22.2 115.7 L 21 115.7 C 21 115.7 21.01 115.66 21 115.7 C 20.9 115.1 20.5 114.3 18.6 114.3 C 16.9 114.3 16.6 115 16.6 115.5 C 16.6 116.2 17 116.6 18.9 116.8 C 21.9 117.2 22.5 118.1 22.5 119.3 C 22.5 120.7 21.4 121.8 18.9 121.8 C 16.5 121.8 15.3 120.8 15 119.1 C 14.97 119.13 15 119.1 15 119.1 L 16.2 119.1 Z M 31.3 120.2 C 30.8 121 30 121.8 28.2 121.8 C 26 121.8 24.3 120 24.3 117.6 C 24.3 117.6 24.3 117.6 24.3 117.6 C 24.3 114.9 26.3 113.3 28.3 113.3 C 30.3 113.3 31.1 114.3 31.3 114.8 C 31.3 114.2 31.3 113.8 31.3 113.5 C 31.3 113.5 32.5 113.5 32.5 113.5 C 32.5 114.1 32.5 115 32.5 115.8 C 32.49 115.79 32.5 125.1 32.5 125.1 L 31.3 125.1 C 31.3 125.1 31.28 120.21 31.3 120.2 Z M 25.6 117.6 C 25.6 117.6 25.6 117.6 25.6 117.6 C 25.6 119.3 26.7 120.7 28.4 120.7 C 30.3 120.7 31.3 119.6 31.3 117.5 C 31.3 117.5 31.3 117.5 31.3 117.5 C 31.3 115.6 30.4 114.4 28.5 114.4 C 26.6 114.4 25.6 115.8 25.6 117.6 Z M 42.6 119.2 C 42.6 120 42.6 120.8 42.6 121.6 C 42.6 121.6 41.4 121.6 41.4 121.6 C 41.4 121.3 41.4 120.7 41.4 120.1 C 40.9 121.1 40.2 121.8 38.4 121.8 C 36.7 121.8 35.4 120.9 35.4 118.5 C 35.38 118.53 35.4 113.5 35.4 113.5 L 36.6 113.5 C 36.6 113.5 36.59 118.29 36.6 118.3 C 36.6 119.6 37.1 120.7 38.7 120.7 C 40.5 120.7 41.3 119.6 41.3 117.1 C 41.35 117.13 41.3 113.5 41.3 113.5 L 42.6 113.5 C 42.6 113.5 42.56 119.21 42.6 119.2 Z M 45 114.1 C 45.4 112.8 45.8 111 45.9 109.5 C 45.9 109.5 47.1 109.5 47.1 109.5 C 47 110.7 46.5 113 46 114.1 C 46 114.1 45 114.1 45 114.1 Z M 55.8 119.6 C 55.8 120.4 55.8 121.4 55.9 121.6 C 55.9 121.6 54.7 121.6 54.7 121.6 C 54.6 121.2 54.6 120.6 54.6 120.3 C 54.2 121.2 53.3 121.8 51.5 121.8 C 49.2 121.8 48.4 120.4 48.4 119.2 C 48.4 119.2 48.4 119.2 48.4 119.2 C 48.4 117.2 50.3 116.6 52.5 116.6 C 53.6 116.6 54.3 116.6 54.6 116.6 C 54.6 116.6 54.6 116.1 54.6 116.1 C 54.6 115.2 54.2 114.3 52.3 114.3 C 50.6 114.3 50.2 115 50.1 115.8 C 50.07 115.84 50.1 115.8 50.1 115.8 L 48.9 115.8 C 48.9 115.8 48.86 115.84 48.9 115.8 C 49 114.8 49.7 113.3 52.3 113.3 C 55.1 113.3 55.8 114.7 55.8 116 C 55.8 116 55.8 119.6 55.8 119.6 Z M 54.6 117.5 C 54.3 117.5 53.8 117.5 52.6 117.5 C 50.6 117.5 49.6 117.9 49.6 119.1 C 49.6 119.1 49.6 119.1 49.6 119.1 C 49.6 120 50.2 120.8 51.7 120.8 C 54.1 120.8 54.6 119.3 54.6 117.9 C 54.6 117.9 54.6 117.5 54.6 117.5 Z M 51 109.3 L 53.3 111.9 L 52.1 111.9 L 49.5 109.3 L 51 109.3 Z M 67.1 119.1 C 67.1 119.1 67.09 119.13 67.1 119.1 C 67.4 120.2 68.3 120.8 69.9 120.8 C 71.5 120.8 72.2 120.2 72.2 119.4 C 72.2 118.6 71.7 118.1 69.6 117.9 C 66.8 117.5 66.2 116.6 66.2 115.6 C 66.2 114.6 67.1 113.3 69.6 113.3 C 72.3 113.3 73.1 114.8 73.1 115.7 C 73.13 115.66 73.1 115.7 73.1 115.7 L 71.9 115.7 C 71.9 115.7 71.9 115.66 71.9 115.7 C 71.8 115.1 71.4 114.3 69.5 114.3 C 67.8 114.3 67.5 115 67.5 115.5 C 67.5 116.2 67.9 116.6 69.8 116.8 C 72.8 117.2 73.4 118.1 73.4 119.3 C 73.4 120.7 72.3 121.8 69.8 121.8 C 67.4 121.8 66.1 120.8 65.9 119.1 C 65.86 119.13 65.9 119.1 65.9 119.1 L 67.1 119.1 Z M 76.4 117.8 C 76.4 117.8 76.41 117.81 76.4 117.8 C 76.5 119.5 77.6 120.8 79.4 120.8 C 80.7 120.8 81.5 120.2 82 119.3 C 81.99 119.32 82 119.3 82 119.3 L 83.2 119.3 C 83.2 119.3 83.19 119.32 83.2 119.3 C 82.8 120.5 81.7 121.8 79.3 121.8 C 76.5 121.8 75.2 119.7 75.2 117.6 C 75.2 117.6 75.2 117.6 75.2 117.6 C 75.2 115.1 76.8 113.3 79.3 113.3 C 82.3 113.3 83.3 115.5 83.3 117.5 C 83.3 117.6 83.3 117.7 83.3 117.8 C 83.31 117.81 76.4 117.8 76.4 117.8 Z M 82 116.9 C 82 116.9 82.04 116.88 82 116.9 C 82 115.8 81.4 114.3 79.2 114.3 C 77.5 114.3 76.6 115.4 76.4 116.9 C 76.45 116.88 76.4 116.9 76.4 116.9 L 82 116.9 Z M 86.2 119.1 C 86.2 119.1 86.24 119.13 86.2 119.1 C 86.6 120.2 87.5 120.8 89 120.8 C 90.7 120.8 91.3 120.2 91.3 119.4 C 91.3 118.6 90.9 118.1 88.7 117.9 C 86 117.5 85.4 116.6 85.4 115.6 C 85.4 114.6 86.2 113.3 88.7 113.3 C 91.5 113.3 92.2 114.8 92.3 115.7 C 92.28 115.66 92.3 115.7 92.3 115.7 L 91.1 115.7 C 91.1 115.7 91.05 115.66 91.1 115.7 C 90.9 115.1 90.6 114.3 88.6 114.3 C 87 114.3 86.6 115 86.6 115.5 C 86.6 116.2 87 116.6 89 116.8 C 91.9 117.2 92.5 118.1 92.5 119.3 C 92.5 120.7 91.4 121.8 88.9 121.8 C 86.6 121.8 85.3 120.8 85 119.1 C 85.01 119.13 85 119.1 85 119.1 L 86.2 119.1 Z M 104 120.2 C 104 120.25 104 125.1 104 125.1 L 102.8 125.1 C 102.8 125.1 102.79 115.53 102.8 115.5 C 102.8 114.9 102.8 114.2 102.8 113.5 C 102.8 113.5 103.9 113.5 103.9 113.5 C 104 113.8 104 114.3 104 115 C 104.5 114.1 105.4 113.3 107.2 113.3 C 109.4 113.3 110.9 115.1 110.9 117.4 C 110.9 117.4 110.9 117.4 110.9 117.4 C 110.9 120 109.2 121.8 106.9 121.8 C 105.2 121.8 104.4 121 104 120.2 Z M 109.7 117.4 C 109.7 117.4 109.7 117.4 109.7 117.4 C 109.7 115.9 108.8 114.4 106.8 114.4 C 104.8 114.4 104 115.8 104 117.6 C 104 117.6 104 117.6 104 117.6 C 104 119.4 104.9 120.7 106.8 120.7 C 108.7 120.7 109.7 119.1 109.7 117.4 Z M 113.3 113.5 L 114.5 113.5 L 114.5 121.6 L 113.3 121.6 L 113.3 113.5 Z M 113.3 109.5 L 114.5 109.5 L 114.5 111.3 L 113.3 111.3 L 113.3 109.5 Z M 118.1 117.8 C 118.1 117.8 118.13 117.81 118.1 117.8 C 118.2 119.5 119.4 120.8 121.1 120.8 C 122.5 120.8 123.2 120.2 123.7 119.3 C 123.7 119.32 123.7 119.3 123.7 119.3 L 124.9 119.3 C 124.9 119.3 124.91 119.32 124.9 119.3 C 124.5 120.5 123.4 121.8 121 121.8 C 118.3 121.8 116.9 119.7 116.9 117.6 C 116.9 117.6 116.9 117.6 116.9 117.6 C 116.9 115.1 118.6 113.3 121 113.3 C 124 113.3 125 115.5 125 117.5 C 125 117.6 125 117.7 125 117.8 C 125.03 117.81 118.1 117.8 118.1 117.8 Z M 123.8 116.9 C 123.8 116.9 123.75 116.88 123.8 116.9 C 123.7 115.8 123.1 114.3 121 114.3 C 119.2 114.3 118.3 115.4 118.2 116.9 C 118.16 116.88 118.2 116.9 118.2 116.9 L 123.8 116.9 Z M 135 109.5 C 135 109.5 135.02 119.2 135 119.2 C 135 120 135 120.8 135 121.6 C 135 121.6 133.9 121.6 133.9 121.6 C 133.8 121.2 133.8 120.7 133.8 120.2 C 133.4 121 132.7 121.8 130.8 121.8 C 128.4 121.8 126.9 120 126.9 117.6 C 126.9 117.6 126.9 117.6 126.9 117.6 C 126.9 115 128.8 113.3 130.9 113.3 C 132.9 113.3 133.6 114.2 133.8 114.6 C 133.81 114.65 133.8 109.5 133.8 109.5 L 135 109.5 Z M 128.1 117.6 C 128.1 117.6 128.1 117.6 128.1 117.6 C 128.1 119.1 129.1 120.7 131 120.7 C 133.1 120.7 133.9 119.4 133.9 117.5 C 133.9 117.5 133.9 117.5 133.9 117.5 C 133.9 115.6 133.2 114.3 131 114.3 C 129.1 114.3 128.1 116 128.1 117.6 Z M 138.5 119.1 C 138.5 119.1 138.49 119.13 138.5 119.1 C 138.8 120.2 139.7 120.8 141.3 120.8 C 142.9 120.8 143.6 120.2 143.6 119.4 C 143.6 118.6 143.1 118.1 141 117.9 C 138.2 117.5 137.7 116.6 137.7 115.6 C 137.7 114.6 138.5 113.3 141 113.3 C 143.7 113.3 144.5 114.8 144.5 115.7 C 144.53 115.66 144.5 115.7 144.5 115.7 L 143.3 115.7 C 143.3 115.7 143.3 115.66 143.3 115.7 C 143.2 115.1 142.8 114.3 140.9 114.3 C 139.2 114.3 138.9 115 138.9 115.5 C 138.9 116.2 139.3 116.6 141.2 116.8 C 144.2 117.2 144.8 118.1 144.8 119.3 C 144.8 120.7 143.7 121.8 141.2 121.8 C 138.8 121.8 137.5 120.8 137.3 119.1 C 137.26 119.13 137.3 119.1 137.3 119.1 L 138.5 119.1 Z M 158.8 109.5 C 157.1 111.3 155.8 113.6 155.8 116.7 C 155.8 119.6 156.9 121.9 158.8 124.1 C 158.8 124.1 157.5 124.1 157.5 124.1 C 156.1 122.5 154.7 120 154.7 116.7 C 154.7 113.4 156.1 110.9 157.5 109.5 C 157.5 109.5 158.8 109.5 158.8 109.5 Z M 160.7 117.8 C 160.7 117.8 160.72 117.81 160.7 117.8 C 160.8 119.5 162 120.8 163.7 120.8 C 165.1 120.8 165.8 120.2 166.3 119.3 C 166.29 119.32 166.3 119.3 166.3 119.3 L 167.5 119.3 C 167.5 119.3 167.5 119.32 167.5 119.3 C 167.1 120.5 166 121.8 163.6 121.8 C 160.9 121.8 159.5 119.7 159.5 117.6 C 159.5 117.6 159.5 117.6 159.5 117.6 C 159.5 115.1 161.1 113.3 163.6 113.3 C 166.6 113.3 167.6 115.5 167.6 117.5 C 167.6 117.6 167.6 117.7 167.6 117.8 C 167.62 117.81 160.7 117.8 160.7 117.8 Z M 166.3 116.9 C 166.3 116.9 166.34 116.88 166.3 116.9 C 166.3 115.8 165.7 114.3 163.6 114.3 C 161.8 114.3 160.9 115.4 160.8 116.9 C 160.76 116.88 160.8 116.9 160.8 116.9 L 166.3 116.9 Z M 170 115.5 C 170 114.9 170 114.1 170 113.5 C 170 113.5 171.1 113.5 171.1 113.5 C 171.2 113.8 171.2 114.5 171.2 115.1 C 171.5 114.3 172.4 113.3 174.2 113.3 C 176 113.3 177.3 114.4 177.3 116.7 C 177.27 116.68 177.3 121.6 177.3 121.6 L 176.1 121.6 C 176.1 121.6 176.06 116.91 176.1 116.9 C 176.1 115.5 175.5 114.4 173.9 114.4 C 172.1 114.4 171.2 115.8 171.2 117.7 C 171.19 117.75 171.2 121.6 171.2 121.6 L 170 121.6 C 170 121.6 169.98 115.54 170 115.5 Z M 188.4 110.2 C 188.4 110.2 193.61 110.16 193.6 110.2 C 196.5 110.2 197.7 111.7 197.7 113.5 C 197.7 113.5 197.7 113.5 197.7 113.5 C 197.7 115.7 196.1 116.9 193.7 116.9 C 193.7 116.87 189.7 116.9 189.7 116.9 L 189.7 121.6 L 188.4 121.6 L 188.4 110.2 Z M 189.7 115.7 C 189.7 115.7 193.46 115.74 193.5 115.7 C 195.1 115.7 196.3 115.3 196.3 113.5 C 196.3 113.5 196.3 113.5 196.3 113.5 C 196.3 112.1 195.4 111.3 193.5 111.3 C 193.46 111.29 189.7 111.3 189.7 111.3 L 189.7 115.7 Z M 211.6 115.8 C 211.6 115.8 211.6 115.8 211.6 115.8 C 211.6 119.1 209.4 121.8 205.6 121.8 C 202 121.8 199.7 119.2 199.7 115.8 C 199.7 115.8 199.7 115.8 199.7 115.8 C 199.7 112.6 202.1 109.9 205.7 109.9 C 209.2 109.9 211.6 112.7 211.6 115.8 Z M 201.1 115.8 C 201.1 115.8 201.1 115.8 201.1 115.8 C 201.1 118.3 202.7 120.7 205.7 120.7 C 208.6 120.7 210.2 118.5 210.2 115.9 C 210.2 115.9 210.2 115.9 210.2 115.9 C 210.2 113.4 208.6 111 205.6 111 C 202.8 111 201.1 113.2 201.1 115.8 Z M 217.7 121.6 L 212.6 110.2 L 214 110.2 C 214 110.2 216.76 116.43 216.8 116.4 C 217.8 118.7 218.2 119.7 218.4 120.4 C 218.4 120.4 218.4 120.4 218.4 120.4 C 218.6 119.8 219.2 118.4 219.9 116.8 C 219.89 116.82 222.9 110.2 222.9 110.2 L 224.2 110.2 L 219.1 121.6 L 217.7 121.6 Z M 241.4 119.1 C 241.4 119.1 241.36 119.1 241.4 119.1 C 240.9 120.5 239.7 121.8 237.5 121.8 C 234.7 121.8 233.3 119.9 233.3 117.6 C 233.3 117.6 233.3 117.6 233.3 117.6 C 233.3 115.3 234.9 113.3 237.5 113.3 C 240.1 113.3 241.1 114.9 241.3 116 C 241.35 116.03 241.3 116 241.3 116 L 240.1 116 C 240.1 116 240.14 116.03 240.1 116 C 239.8 115.2 239.1 114.3 237.5 114.3 C 235.7 114.3 234.6 115.7 234.6 117.5 C 234.6 117.5 234.6 117.5 234.6 117.5 C 234.6 119.3 235.7 120.8 237.5 120.8 C 238.9 120.8 239.7 120.1 240.2 119.1 C 240.15 119.1 240.2 119.1 240.2 119.1 L 241.4 119.1 Z M 250.6 119.6 C 250.6 120.4 250.6 121.4 250.7 121.6 C 250.7 121.6 249.5 121.6 249.5 121.6 C 249.4 121.2 249.4 120.6 249.4 120.3 C 249 121.2 248.1 121.8 246.3 121.8 C 244 121.8 243.2 120.4 243.2 119.2 C 243.2 119.2 243.2 119.2 243.2 119.2 C 243.2 117.2 245.1 116.6 247.3 116.6 C 248.4 116.6 249.1 116.6 249.4 116.6 C 249.4 116.6 249.4 116.1 249.4 116.1 C 249.4 115.2 249 114.3 247.1 114.3 C 245.4 114.3 245 115 244.9 115.8 C 244.87 115.84 244.9 115.8 244.9 115.8 L 243.7 115.8 C 243.7 115.8 243.66 115.84 243.7 115.8 C 243.8 114.8 244.5 113.3 247.1 113.3 C 249.9 113.3 250.6 114.7 250.6 116 C 250.6 116 250.6 119.6 250.6 119.6 Z M 249.4 117.5 C 249.1 117.5 248.6 117.5 247.4 117.5 C 245.4 117.5 244.4 117.9 244.4 119.1 C 244.4 119.1 244.4 119.1 244.4 119.1 C 244.4 120 245 120.8 246.5 120.8 C 248.9 120.8 249.4 119.3 249.4 117.9 C 249.4 117.9 249.4 117.5 249.4 117.5 Z M 253.5 115.6 C 253.5 114.9 253.5 114.2 253.5 113.5 C 253.5 113.5 254.6 113.5 254.6 113.5 C 254.7 113.8 254.7 114.3 254.7 114.8 C 255.1 114.1 255.9 113.3 257.3 113.3 C 258.6 113.3 259.4 113.9 259.8 114.9 C 260.2 114.2 261 113.3 262.6 113.3 C 264.1 113.3 265.4 114.2 265.4 116.6 C 265.43 116.55 265.4 121.6 265.4 121.6 L 264.2 121.6 C 264.2 121.6 264.22 116.61 264.2 116.6 C 264.2 115.6 263.9 114.3 262.4 114.3 C 261 114.3 260.1 115.3 260.1 117.2 C 260.06 117.16 260.1 121.6 260.1 121.6 L 258.9 121.6 C 258.9 121.6 258.85 116.52 258.9 116.5 C 258.9 115.5 258.5 114.3 257 114.3 C 255.3 114.3 254.7 115.7 254.7 117.3 C 254.68 117.3 254.7 121.6 254.7 121.6 L 253.5 121.6 C 253.5 121.6 253.48 115.59 253.5 115.6 Z M 269 117.8 C 269 117.8 269.03 117.81 269 117.8 C 269.1 119.5 270.3 120.8 272 120.8 C 273.4 120.8 274.1 120.2 274.6 119.3 C 274.6 119.32 274.6 119.3 274.6 119.3 L 275.8 119.3 C 275.8 119.3 275.81 119.32 275.8 119.3 C 275.4 120.5 274.3 121.8 271.9 121.8 C 269.2 121.8 267.8 119.7 267.8 117.6 C 267.8 117.6 267.8 117.6 267.8 117.6 C 267.8 115.1 269.5 113.3 271.9 113.3 C 274.9 113.3 275.9 115.5 275.9 117.5 C 275.9 117.6 275.9 117.7 275.9 117.8 C 275.93 117.81 269 117.8 269 117.8 Z M 274.7 116.9 C 274.7 116.9 274.65 116.88 274.7 116.9 C 274.6 115.8 274 114.3 271.9 114.3 C 270.1 114.3 269.2 115.4 269.1 116.9 C 269.06 116.88 269.1 116.9 269.1 116.9 L 274.7 116.9 Z M 278.3 115.7 C 278.3 115 278.3 114.2 278.3 113.5 C 278.3 113.5 279.4 113.5 279.4 113.5 C 279.5 113.7 279.5 114.6 279.5 115.4 C 280 114.1 281.3 113.3 282.8 113.3 C 282.8 113.3 282.8 114.5 282.8 114.5 C 280.9 114.5 279.5 115.7 279.5 118.1 C 279.5 118.08 279.5 121.6 279.5 121.6 L 278.3 121.6 C 278.3 121.6 278.29 115.7 278.3 115.7 Z M 291.4 119.6 C 291.4 120.4 291.5 121.4 291.5 121.6 C 291.5 121.6 290.3 121.6 290.3 121.6 C 290.3 121.2 290.3 120.6 290.3 120.3 C 289.8 121.2 288.9 121.8 287.2 121.8 C 284.9 121.8 284 120.4 284 119.2 C 284 119.2 284 119.2 284 119.2 C 284 117.2 285.9 116.6 288.2 116.6 C 289.3 116.6 290 116.6 290.2 116.6 C 290.2 116.6 290.2 116.1 290.2 116.1 C 290.2 115.2 289.8 114.3 288 114.3 C 286.3 114.3 285.9 115 285.7 115.8 C 285.72 115.84 285.7 115.8 285.7 115.8 L 284.5 115.8 C 284.5 115.8 284.51 115.84 284.5 115.8 C 284.6 114.8 285.3 113.3 288 113.3 C 290.7 113.3 291.4 114.7 291.4 116 C 291.4 116 291.4 119.6 291.4 119.6 Z M 290.2 117.5 C 290 117.5 289.4 117.5 288.2 117.5 C 286.2 117.5 285.3 117.9 285.3 119.1 C 285.3 119.1 285.3 119.1 285.3 119.1 C 285.3 120 285.9 120.8 287.3 120.8 C 289.7 120.8 290.2 119.3 290.2 117.9 C 290.2 117.9 290.2 117.5 290.2 117.5 Z M 302.3 115.7 C 302.3 115 302.3 114.2 302.3 113.5 C 302.3 113.5 303.5 113.5 303.5 113.5 C 303.5 113.7 303.5 114.6 303.5 115.4 C 304.1 114.1 305.3 113.3 306.8 113.3 C 306.8 113.3 306.8 114.5 306.8 114.5 C 305 114.5 303.5 115.7 303.5 118.1 C 303.51 118.08 303.5 121.6 303.5 121.6 L 302.3 121.6 C 302.3 121.6 302.3 115.7 302.3 115.7 Z M 308.8 113.5 L 310 113.5 L 310 121.6 L 308.8 121.6 L 308.8 113.5 Z M 308.8 109.5 L 310 109.5 L 310 111.3 L 308.8 111.3 L 308.8 109.5 Z M 320.5 120.5 C 320.5 123.5 319.6 125.3 316.3 125.3 C 313.2 125.3 312.6 123.6 312.4 122.6 C 312.42 122.62 312.4 122.6 312.4 122.6 L 313.7 122.6 C 313.7 122.6 313.66 122.62 313.7 122.6 C 313.9 123.5 314.6 124.3 316.3 124.3 C 318.9 124.3 319.3 122.7 319.3 120.5 C 319.3 120.5 319.3 120 319.3 120 C 318.8 121.1 317.9 121.7 316.2 121.7 C 313.9 121.7 312.3 119.9 312.3 117.6 C 312.3 117.6 312.3 117.6 312.3 117.6 C 312.3 115 314.2 113.3 316.4 113.3 C 318.2 113.3 319 114.2 319.3 114.8 C 319.3 114.4 319.3 113.7 319.3 113.5 C 319.3 113.5 320.5 113.5 320.5 113.5 C 320.5 114.3 320.5 115.1 320.5 115.8 C 320.5 115.8 320.5 120.5 320.5 120.5 Z M 313.6 117.6 C 313.6 117.6 313.6 117.6 313.6 117.6 C 313.6 119.4 314.8 120.6 316.4 120.6 C 318.2 120.6 319.3 119.5 319.3 117.5 C 319.3 117.5 319.3 117.5 319.3 117.5 C 319.3 115.4 318.3 114.4 316.5 114.4 C 314.5 114.4 313.6 116 313.6 117.6 Z M 324.1 117.8 C 324.1 117.8 324.09 117.81 324.1 117.8 C 324.2 119.5 325.3 120.8 327.1 120.8 C 328.4 120.8 329.2 120.2 329.7 119.3 C 329.66 119.32 329.7 119.3 329.7 119.3 L 330.9 119.3 C 330.9 119.3 330.87 119.32 330.9 119.3 C 330.4 120.5 329.3 121.8 327 121.8 C 324.2 121.8 322.9 119.7 322.9 117.6 C 322.9 117.6 322.9 117.6 322.9 117.6 C 322.9 115.1 324.5 113.3 326.9 113.3 C 330 113.3 331 115.5 331 117.5 C 331 117.6 331 117.7 331 117.8 C 330.99 117.81 324.1 117.8 324.1 117.8 Z M 329.7 116.9 C 329.7 116.9 329.71 116.88 329.7 116.9 C 329.6 115.8 329.1 114.3 326.9 114.3 C 325.2 114.3 324.3 115.4 324.1 116.9 C 324.12 116.88 324.1 116.9 324.1 116.9 L 329.7 116.9 Z M 329.6 109.3 L 327.1 111.9 L 325.9 111.9 L 328.1 109.3 L 329.6 109.3 Z M 334 117.8 C 334 117.8 334.05 117.81 334 117.8 C 334.1 119.5 335.3 120.8 337 120.8 C 338.4 120.8 339.1 120.2 339.6 119.3 C 339.62 119.32 339.6 119.3 339.6 119.3 L 340.8 119.3 C 340.8 119.3 340.82 119.32 340.8 119.3 C 340.4 120.5 339.3 121.8 336.9 121.8 C 334.2 121.8 332.8 119.7 332.8 117.6 C 332.8 117.6 332.8 117.6 332.8 117.6 C 332.8 115.1 334.5 113.3 336.9 113.3 C 339.9 113.3 340.9 115.5 340.9 117.5 C 340.9 117.6 340.9 117.7 340.9 117.8 C 340.94 117.81 334 117.8 334 117.8 Z M 339.7 116.9 C 339.7 116.9 339.67 116.88 339.7 116.9 C 339.6 115.8 339 114.3 336.9 114.3 C 335.1 114.3 334.2 115.4 334.1 116.9 C 334.08 116.88 334.1 116.9 334.1 116.9 L 339.7 116.9 Z M 357.9 119.6 C 357.9 120.4 357.9 121.4 358 121.6 C 358 121.6 356.8 121.6 356.8 121.6 C 356.7 121.2 356.7 120.6 356.7 120.3 C 356.3 121.2 355.4 121.8 353.6 121.8 C 351.3 121.8 350.5 120.4 350.5 119.2 C 350.5 119.2 350.5 119.2 350.5 119.2 C 350.5 117.2 352.4 116.6 354.7 116.6 C 355.7 116.6 356.4 116.6 356.7 116.6 C 356.7 116.6 356.7 116.1 356.7 116.1 C 356.7 115.2 356.3 114.3 354.4 114.3 C 352.8 114.3 352.4 115 352.2 115.8 C 352.18 115.84 352.2 115.8 352.2 115.8 L 351 115.8 C 351 115.8 350.97 115.84 351 115.8 C 351.1 114.8 351.8 113.3 354.4 113.3 C 357.2 113.3 357.9 114.7 357.9 116 C 357.9 116 357.9 119.6 357.9 119.6 Z M 356.7 117.5 C 356.4 117.5 355.9 117.5 354.7 117.5 C 352.7 117.5 351.7 117.9 351.7 119.1 C 351.7 119.1 351.7 119.1 351.7 119.1 C 351.7 120 352.4 120.8 353.8 120.8 C 356.2 120.8 356.7 119.3 356.7 117.9 C 356.7 117.9 356.7 117.5 356.7 117.5 Z M 367.9 119.2 C 367.9 120 367.9 120.8 367.9 121.6 C 367.9 121.6 366.8 121.6 366.8 121.6 C 366.7 121.3 366.7 120.7 366.7 120.1 C 366.3 121.1 365.5 121.8 363.8 121.8 C 362 121.8 360.7 120.9 360.7 118.5 C 360.72 118.53 360.7 113.5 360.7 113.5 L 361.9 113.5 C 361.9 113.5 361.93 118.29 361.9 118.3 C 361.9 119.6 362.4 120.7 364 120.7 C 365.9 120.7 366.7 119.6 366.7 117.1 C 366.69 117.13 366.7 113.5 366.7 113.5 L 367.9 113.5 C 367.9 113.5 367.9 119.21 367.9 119.2 Z M 371.4 113.5 C 372.9 115.3 373.8 116.3 374.2 116.7 C 374.2 116.7 374.2 116.7 374.2 116.7 C 374.7 116.2 375.6 115 377 113.5 C 376.99 113.51 378.4 113.5 378.4 113.5 L 374.9 117.4 L 378.5 121.6 C 378.5 121.6 377.03 121.56 377 121.6 C 375.7 120 374.6 118.8 374.1 118.2 C 374.1 118.2 374.1 118.2 374.1 118.2 C 373.7 118.7 372.8 119.8 371.2 121.6 C 371.25 121.56 369.8 121.6 369.8 121.6 L 373.4 117.5 L 369.9 113.5 C 369.9 113.5 371.37 113.51 371.4 113.5 Z M 388.1 109.5 L 389.3 109.5 C 389.3 109.5 389.28 114.86 389.3 114.9 C 389.7 114.2 390.6 113.3 392.4 113.3 C 394.6 113.3 396.2 115.1 396.2 117.4 C 396.2 117.4 396.2 117.4 396.2 117.4 C 396.2 120.1 394.6 121.8 392.3 121.8 C 390.5 121.8 389.7 121 389.3 120.2 C 389.2 120.7 389.2 121.2 389.2 121.6 C 389.2 121.6 388.1 121.6 388.1 121.6 C 388.1 120.6 388.1 119.7 388.1 118.8 C 388.07 118.77 388.1 109.5 388.1 109.5 Z M 395 117.4 C 395 117.4 395 117.4 395 117.4 C 395 116 394.1 114.4 392.1 114.4 C 390.2 114.4 389.2 115.7 389.2 117.5 C 389.2 117.5 389.2 117.5 389.2 117.5 C 389.2 119.5 390.4 120.7 392.1 120.7 C 394.2 120.7 395 119.1 395 117.4 Z M 405.4 119.6 C 405.4 120.4 405.5 121.4 405.5 121.6 C 405.5 121.6 404.3 121.6 404.3 121.6 C 404.3 121.2 404.2 120.6 404.2 120.3 C 403.8 121.2 402.9 121.8 401.1 121.8 C 398.8 121.8 398 120.4 398 119.2 C 398 119.2 398 119.2 398 119.2 C 398 117.2 399.9 116.6 402.2 116.6 C 403.3 116.6 404 116.6 404.2 116.6 C 404.2 116.6 404.2 116.1 404.2 116.1 C 404.2 115.2 403.8 114.3 401.9 114.3 C 400.3 114.3 399.9 115 399.7 115.8 C 399.7 115.84 399.7 115.8 399.7 115.8 L 398.5 115.8 C 398.5 115.8 398.49 115.84 398.5 115.8 C 398.6 114.8 399.3 113.3 402 113.3 C 404.7 113.3 405.4 114.7 405.4 116 C 405.4 116 405.4 119.6 405.4 119.6 Z M 404.2 117.5 C 404 117.5 403.4 117.5 402.2 117.5 C 400.2 117.5 399.2 117.9 399.2 119.1 C 399.2 119.1 399.2 119.1 399.2 119.1 C 399.2 120 399.9 120.8 401.3 120.8 C 403.7 120.8 404.2 119.3 404.2 117.9 C 404.2 117.9 404.2 117.5 404.2 117.5 Z M 408.8 119.1 C 408.8 119.1 408.82 119.13 408.8 119.1 C 409.1 120.2 410 120.8 411.6 120.8 C 413.3 120.8 413.9 120.2 413.9 119.4 C 413.9 118.6 413.5 118.1 411.3 117.9 C 408.5 117.5 408 116.6 408 115.6 C 408 114.6 408.8 113.3 411.3 113.3 C 414.1 113.3 414.8 114.8 414.9 115.7 C 414.86 115.66 414.9 115.7 414.9 115.7 L 413.6 115.7 C 413.6 115.7 413.64 115.66 413.6 115.7 C 413.5 115.1 413.2 114.3 411.2 114.3 C 409.6 114.3 409.2 115 409.2 115.5 C 409.2 116.2 409.6 116.6 411.6 116.8 C 414.5 117.2 415.1 118.1 415.1 119.3 C 415.1 120.7 414 121.8 411.5 121.8 C 409.1 121.8 407.9 120.8 407.6 119.1 C 407.59 119.13 407.6 119.1 407.6 119.1 L 408.8 119.1 Z M 418.7 117.5 C 418.7 117.5 418.71 117.47 418.7 117.5 C 419.6 116.7 422.1 114.6 423.4 113.5 C 423.44 113.51 425 113.5 425 113.5 L 421.2 116.7 L 425.4 121.6 L 423.9 121.6 L 420.3 117.3 L 418.7 118.6 L 418.7 121.6 L 417.5 121.6 L 417.5 109.5 L 418.7 109.5 L 418.7 117.5 Z M 427.3 117.8 C 427.3 117.8 427.31 117.81 427.3 117.8 C 427.4 119.5 428.5 120.8 430.3 120.8 C 431.6 120.8 432.4 120.2 432.9 119.3 C 432.88 119.32 432.9 119.3 432.9 119.3 L 434.1 119.3 C 434.1 119.3 434.09 119.32 434.1 119.3 C 433.7 120.5 432.6 121.8 430.2 121.8 C 427.4 121.8 426.1 119.7 426.1 117.6 C 426.1 117.6 426.1 117.6 426.1 117.6 C 426.1 115.1 427.7 113.3 430.2 113.3 C 433.2 113.3 434.2 115.5 434.2 117.5 C 434.2 117.6 434.2 117.7 434.2 117.8 C 434.21 117.81 427.3 117.8 427.3 117.8 Z M 432.9 116.9 C 432.9 116.9 432.93 116.88 432.9 116.9 C 432.9 115.8 432.3 114.3 430.1 114.3 C 428.4 114.3 427.5 115.4 427.3 116.9 C 427.34 116.88 427.3 116.9 427.3 116.9 L 432.9 116.9 Z M 435.4 113.5 L 437 113.5 L 437 110.9 L 438.3 110.9 L 438.3 113.5 L 440.4 113.5 L 440.4 114.5 L 438.3 114.5 C 438.3 114.5 438.25 119.22 438.3 119.2 C 438.3 120.2 438.5 120.6 439.4 120.6 C 439.7 120.6 440 120.6 440.2 120.6 C 440.2 120.6 440.2 121.5 440.2 121.5 C 439.9 121.6 439.5 121.6 439.1 121.6 C 437.5 121.6 437 120.9 437 119.3 C 437.04 119.34 437 114.5 437 114.5 L 435.4 114.5 L 435.4 113.5 Z M 441.2 124.1 C 442.9 122.2 444.2 120 444.2 116.9 C 444.2 113.9 443.1 111.7 441.2 109.5 C 441.2 109.5 442.5 109.5 442.5 109.5 C 443.9 111 445.3 113.6 445.3 116.9 C 445.3 120.2 443.9 122.7 442.5 124.1 C 442.5 124.1 441.2 124.1 441.2 124.1 Z M 447.7 121.6 L 447.7 119.1 L 449.1 119.1 L 449.1 121.6 L 447.7 121.6 Z " stroke="none" fill="#141414"/>  </g>  <g id="Polygon9765">    <path d="M 3.2 93.5 L 1.6 97.2 L 0.2 97.2 L 5.2 85.8 L 6.7 85.8 L 11.9 97.2 L 10.5 97.2 L 8.8 93.5 L 3.2 93.5 Z M 8.4 92.4 C 6.9 89.1 6.2 87.6 5.9 86.8 C 5.9 86.8 5.9 86.8 5.9 86.8 C 5.7 87.5 4.9 89.6 3.6 92.4 C 3.6 92.4 8.4 92.4 8.4 92.4 Z M 20.8 94.9 C 20.8 95.7 20.8 96.5 20.8 97.2 C 20.8 97.2 19.7 97.2 19.7 97.2 C 19.6 97 19.6 96.4 19.6 95.8 C 19.2 96.8 18.4 97.5 16.7 97.5 C 14.9 97.5 13.6 96.5 13.6 94.2 C 13.63 94.21 13.6 89.2 13.6 89.2 L 14.8 89.2 C 14.8 89.2 14.84 93.97 14.8 94 C 14.8 95.2 15.3 96.4 16.9 96.4 C 18.8 96.4 19.6 95.3 19.6 92.8 C 19.6 92.81 19.6 89.2 19.6 89.2 L 20.8 89.2 C 20.8 89.2 20.81 94.89 20.8 94.9 Z M 33.1 94.8 C 33.1 94.8 33.15 94.81 33.1 94.8 C 33.5 95.9 34.4 96.5 35.9 96.5 C 37.6 96.5 38.2 95.9 38.2 95.1 C 38.2 94.3 37.8 93.8 35.6 93.6 C 32.9 93.2 32.3 92.3 32.3 91.3 C 32.3 90.3 33.1 89 35.6 89 C 38.4 89 39.1 90.4 39.2 91.3 C 39.19 91.34 39.2 91.3 39.2 91.3 L 38 91.3 C 38 91.3 37.96 91.34 38 91.3 C 37.8 90.8 37.5 89.9 35.5 89.9 C 33.9 89.9 33.5 90.7 33.5 91.2 C 33.5 91.8 34 92.3 35.9 92.5 C 38.8 92.9 39.5 93.8 39.5 95 C 39.5 96.4 38.4 97.5 35.9 97.5 C 33.5 97.5 32.2 96.5 31.9 94.8 C 31.92 94.81 31.9 94.8 31.9 94.8 L 33.1 94.8 Z M 49.6 93.2 C 49.6 93.2 49.6 93.2 49.6 93.2 C 49.6 95.4 48.3 97.5 45.4 97.5 C 42.8 97.5 41.3 95.5 41.3 93.2 C 41.3 93.2 41.3 93.2 41.3 93.2 C 41.3 90.9 42.9 89 45.5 89 C 48.2 89 49.6 91 49.6 93.2 Z M 42.5 93.2 C 42.5 93.2 42.5 93.2 42.5 93.2 C 42.5 94.8 43.6 96.4 45.5 96.4 C 47.4 96.4 48.4 95 48.4 93.2 C 48.4 93.2 48.4 93.2 48.4 93.2 C 48.4 91.5 47.3 90 45.4 90 C 43.5 90 42.5 91.5 42.5 93.2 Z M 52 97.2 L 52 85.2 L 53.2 85.2 L 53.2 97.2 L 52 97.2 Z M 55.1 99.5 C 55.9 97.7 56.3 96.2 56.4 94.8 C 56.4 94.8 57.6 94.8 57.6 94.8 C 57.6 96.1 57 98.1 56.2 99.5 C 56.2 99.5 55.1 99.5 55.1 99.5 Z M 69.2 97.2 L 69.2 85.2 L 70.4 85.2 L 70.4 97.2 L 69.2 97.2 Z M 80.2 95.3 C 80.2 96 80.2 97.1 80.3 97.2 C 80.3 97.2 79.1 97.2 79.1 97.2 C 79 96.9 79 96.3 79 96 C 78.6 96.9 77.7 97.5 75.9 97.5 C 73.6 97.5 72.8 96.1 72.8 94.9 C 72.8 94.9 72.8 94.9 72.8 94.9 C 72.8 92.8 74.7 92.3 77 92.3 C 78 92.3 78.7 92.3 79 92.3 C 79 92.3 79 91.8 79 91.8 C 79 90.9 78.6 89.9 76.7 89.9 C 75.1 89.9 74.7 90.7 74.5 91.5 C 74.48 91.52 74.5 91.5 74.5 91.5 L 73.3 91.5 C 73.3 91.5 73.27 91.52 73.3 91.5 C 73.4 90.4 74.1 89 76.7 89 C 79.5 89 80.2 90.3 80.2 91.7 C 80.2 91.7 80.2 95.3 80.2 95.3 Z M 79 93.2 C 78.7 93.2 78.2 93.2 77 93.2 C 75 93.2 74 93.6 74 94.8 C 74 94.8 74 94.8 74 94.8 C 74 95.7 74.7 96.5 76.1 96.5 C 78.5 96.5 79 95 79 93.6 C 79 93.6 79 93.2 79 93.2 Z M 93.3 95.9 C 93.32 95.93 93.3 100.8 93.3 100.8 L 92.1 100.8 C 92.1 100.8 92.11 91.21 92.1 91.2 C 92.1 90.5 92.1 89.9 92.1 89.2 C 92.1 89.2 93.3 89.2 93.3 89.2 C 93.3 89.4 93.3 90 93.3 90.7 C 93.8 89.8 94.8 89 96.5 89 C 98.7 89 100.2 90.8 100.2 93.1 C 100.2 93.1 100.2 93.1 100.2 93.1 C 100.2 95.7 98.5 97.5 96.3 97.5 C 94.5 97.5 93.8 96.7 93.3 95.9 Z M 99 93.1 C 99 93.1 99 93.1 99 93.1 C 99 91.6 98.1 90 96.2 90 C 94.2 90 93.3 91.5 93.3 93.3 C 93.3 93.3 93.3 93.3 93.3 93.3 C 93.3 95 94.2 96.4 96.1 96.4 C 98 96.4 99 94.8 99 93.1 Z M 109.4 95.3 C 109.4 96 109.5 97.1 109.5 97.2 C 109.5 97.2 108.4 97.2 108.4 97.2 C 108.3 96.9 108.3 96.3 108.3 96 C 107.8 96.9 106.9 97.5 105.2 97.5 C 102.9 97.5 102.1 96.1 102.1 94.9 C 102.1 94.9 102.1 94.9 102.1 94.9 C 102.1 92.8 103.9 92.3 106.2 92.3 C 107.3 92.3 108 92.3 108.3 92.3 C 108.3 92.3 108.3 91.8 108.3 91.8 C 108.3 90.9 107.8 89.9 106 89.9 C 104.3 89.9 103.9 90.7 103.7 91.5 C 103.73 91.52 103.7 91.5 103.7 91.5 L 102.5 91.5 C 102.5 91.5 102.52 91.52 102.5 91.5 C 102.6 90.4 103.3 89 106 89 C 108.7 89 109.4 90.3 109.4 91.7 C 109.4 91.7 109.4 95.3 109.4 95.3 Z M 108.3 93.2 C 108 93.2 107.4 93.2 106.2 93.2 C 104.2 93.2 103.3 93.6 103.3 94.8 C 103.3 94.8 103.3 94.8 103.3 94.8 C 103.3 95.7 103.9 96.5 105.4 96.5 C 107.7 96.5 108.3 95 108.3 93.6 C 108.3 93.6 108.3 93.2 108.3 93.2 Z M 112.3 89.2 L 113.6 89.2 L 113.6 97.2 L 112.3 97.2 L 112.3 89.2 Z M 112.3 85.2 L 113.6 85.2 L 113.6 86.9 L 112.3 86.9 L 112.3 85.2 Z M 116.5 91.4 C 116.5 90.7 116.5 89.9 116.4 89.2 C 116.4 89.2 117.6 89.2 117.6 89.2 C 117.6 89.4 117.7 90.2 117.7 91.1 C 118.2 89.8 119.4 89 121 89 C 121 89 121 90.2 121 90.2 C 119.1 90.1 117.7 91.4 117.7 93.8 C 117.66 93.76 117.7 97.2 117.7 97.2 L 116.5 97.2 C 116.5 97.2 116.45 91.38 116.5 91.4 Z M 123.3 93.5 C 123.3 93.5 123.35 93.49 123.3 93.5 C 123.4 95.2 124.6 96.4 126.3 96.4 C 127.7 96.4 128.4 95.9 128.9 95 C 128.92 95 128.9 95 128.9 95 L 130.1 95 C 130.1 95 130.13 95 130.1 95 C 129.7 96.1 128.6 97.5 126.2 97.5 C 123.5 97.5 122.1 95.4 122.1 93.2 C 122.1 93.2 122.1 93.2 122.1 93.2 C 122.1 90.8 123.8 89 126.2 89 C 129.2 89 130.2 91.2 130.2 93.2 C 130.2 93.3 130.2 93.4 130.2 93.5 C 130.25 93.49 123.3 93.5 123.3 93.5 Z M 129 92.6 C 129 92.6 128.97 92.56 129 92.6 C 128.9 91.5 128.3 90 126.2 90 C 124.4 90 123.5 91.1 123.4 92.6 C 123.38 92.56 123.4 92.6 123.4 92.6 L 129 92.6 Z M 149 85.2 C 149 85.2 148.97 94.88 149 94.9 C 149 95.7 149 96.5 149 97.2 C 149 97.2 147.8 97.2 147.8 97.2 C 147.8 96.9 147.8 96.4 147.8 95.9 C 147.4 96.6 146.6 97.5 144.7 97.5 C 142.4 97.5 140.8 95.7 140.8 93.3 C 140.8 93.3 140.8 93.3 140.8 93.3 C 140.8 90.7 142.8 89 144.9 89 C 146.9 89 147.5 89.9 147.8 90.3 C 147.76 90.33 147.8 85.2 147.8 85.2 L 149 85.2 Z M 142.1 93.3 C 142.1 93.3 142.1 93.3 142.1 93.3 C 142.1 94.8 143 96.4 144.9 96.4 C 147 96.4 147.8 95.1 147.8 93.2 C 147.8 93.2 147.8 93.2 147.8 93.2 C 147.8 91.3 147.2 90 145 90 C 143 90 142.1 91.6 142.1 93.3 Z M 152.6 93.5 C 152.6 93.5 152.57 93.49 152.6 93.5 C 152.7 95.2 153.8 96.4 155.6 96.4 C 156.9 96.4 157.7 95.9 158.1 95 C 158.14 95 158.1 95 158.1 95 L 159.3 95 C 159.3 95 159.35 95 159.3 95 C 158.9 96.1 157.8 97.5 155.5 97.5 C 152.7 97.5 151.3 95.4 151.3 93.2 C 151.3 93.2 151.3 93.2 151.3 93.2 C 151.3 90.8 153 89 155.4 89 C 158.4 89 159.5 91.2 159.5 93.2 C 159.5 93.3 159.5 93.4 159.5 93.5 C 159.47 93.49 152.6 93.5 152.6 93.5 Z M 158.2 92.6 C 158.2 92.6 158.19 92.56 158.2 92.6 C 158.1 91.5 157.6 90 155.4 90 C 153.7 90 152.8 91.1 152.6 92.6 C 152.6 92.56 152.6 92.6 152.6 92.6 L 158.2 92.6 Z M 170.7 85.2 L 171.9 85.2 C 171.9 85.2 171.89 90.54 171.9 90.5 C 172.3 89.9 173.2 89 175 89 C 177.2 89 178.8 90.7 178.8 93.1 C 178.8 93.1 178.8 93.1 178.8 93.1 C 178.8 95.8 177.2 97.5 174.9 97.5 C 173.1 97.5 172.3 96.7 171.9 95.9 C 171.9 96.3 171.9 96.9 171.8 97.2 C 171.8 97.2 170.7 97.2 170.7 97.2 C 170.7 96.3 170.7 95.4 170.7 94.4 C 170.68 94.45 170.7 85.2 170.7 85.2 Z M 177.6 93.1 C 177.6 93.1 177.6 93.1 177.6 93.1 C 177.6 91.7 176.7 90 174.7 90 C 172.8 90 171.8 91.4 171.8 93.2 C 171.8 93.2 171.8 93.2 171.8 93.2 C 171.8 95.2 173 96.4 174.8 96.4 C 176.8 96.4 177.6 94.8 177.6 93.1 Z M 188 95.3 C 188 96 188.1 97.1 188.1 97.2 C 188.1 97.2 186.9 97.2 186.9 97.2 C 186.9 96.9 186.8 96.3 186.8 96 C 186.4 96.9 185.5 97.5 183.8 97.5 C 181.5 97.5 180.6 96.1 180.6 94.9 C 180.6 94.9 180.6 94.9 180.6 94.9 C 180.6 92.8 182.5 92.3 184.8 92.3 C 185.9 92.3 186.6 92.3 186.8 92.3 C 186.8 92.3 186.8 91.8 186.8 91.8 C 186.8 90.9 186.4 89.9 184.6 89.9 C 182.9 89.9 182.5 90.7 182.3 91.5 C 182.31 91.52 182.3 91.5 182.3 91.5 L 181.1 91.5 C 181.1 91.5 181.1 91.52 181.1 91.5 C 181.2 90.4 181.9 89 184.6 89 C 187.3 89 188 90.3 188 91.7 C 188 91.7 188 95.3 188 95.3 Z M 186.8 93.2 C 186.6 93.2 186 93.2 184.8 93.2 C 182.8 93.2 181.8 93.6 181.8 94.8 C 181.8 94.8 181.8 94.8 181.8 94.8 C 181.8 95.7 182.5 96.5 183.9 96.5 C 186.3 96.5 186.8 95 186.8 93.6 C 186.8 93.6 186.8 93.2 186.8 93.2 Z M 191.4 94.8 C 191.4 94.8 191.43 94.81 191.4 94.8 C 191.7 95.9 192.6 96.5 194.2 96.5 C 195.9 96.5 196.5 95.9 196.5 95.1 C 196.5 94.3 196.1 93.8 193.9 93.6 C 191.2 93.2 190.6 92.3 190.6 91.3 C 190.6 90.3 191.4 89 193.9 89 C 196.7 89 197.4 90.4 197.5 91.3 C 197.48 91.34 197.5 91.3 197.5 91.3 L 196.2 91.3 C 196.2 91.3 196.25 91.34 196.2 91.3 C 196.1 90.8 195.8 89.9 193.8 89.9 C 192.2 89.9 191.8 90.7 191.8 91.2 C 191.8 91.8 192.2 92.3 194.2 92.5 C 197.1 92.9 197.7 93.8 197.7 95 C 197.7 96.4 196.6 97.5 194.1 97.5 C 191.8 97.5 190.5 96.5 190.2 94.8 C 190.2 94.81 190.2 94.8 190.2 94.8 L 191.4 94.8 Z M 201.3 93.2 C 201.3 93.2 201.32 93.15 201.3 93.2 C 202.2 92.4 204.7 90.3 206 89.2 C 206.05 89.19 207.6 89.2 207.6 89.2 L 203.8 92.3 L 208.1 97.2 L 206.5 97.2 L 202.9 93 L 201.3 94.3 L 201.3 97.2 L 200.1 97.2 L 200.1 85.2 L 201.3 85.2 L 201.3 93.2 Z M 209.9 93.5 C 209.9 93.5 209.92 93.49 209.9 93.5 C 210 95.2 211.2 96.4 212.9 96.4 C 214.3 96.4 215 95.9 215.5 95 C 215.49 95 215.5 95 215.5 95 L 216.7 95 C 216.7 95 216.7 95 216.7 95 C 216.3 96.1 215.2 97.5 212.8 97.5 C 210.1 97.5 208.7 95.4 208.7 93.2 C 208.7 93.2 208.7 93.2 208.7 93.2 C 208.7 90.8 210.3 89 212.8 89 C 215.8 89 216.8 91.2 216.8 93.2 C 216.8 93.3 216.8 93.4 216.8 93.5 C 216.82 93.49 209.9 93.5 209.9 93.5 Z M 215.5 92.6 C 215.5 92.6 215.54 92.56 215.5 92.6 C 215.5 91.5 214.9 90 212.8 90 C 211 90 210.1 91.1 210 92.6 C 209.95 92.56 210 92.6 210 92.6 L 215.5 92.6 Z M 218 89.2 L 219.7 89.2 L 219.7 86.5 L 220.9 86.5 L 220.9 89.2 L 223 89.2 L 223 90.2 L 220.9 90.2 C 220.9 90.2 220.86 94.9 220.9 94.9 C 220.9 95.9 221.1 96.3 222 96.3 C 222.3 96.3 222.6 96.3 222.9 96.3 C 222.9 96.3 222.9 97.2 222.9 97.2 C 222.5 97.3 222.1 97.3 221.7 97.3 C 220.1 97.3 219.7 96.6 219.7 95 C 219.65 95.02 219.7 90.2 219.7 90.2 L 218 90.2 L 218 89.2 Z M 241.5 85.2 C 241.5 85.2 241.52 94.88 241.5 94.9 C 241.5 95.7 241.5 96.5 241.5 97.2 C 241.5 97.2 240.4 97.2 240.4 97.2 C 240.3 96.9 240.3 96.4 240.3 95.9 C 239.9 96.6 239.2 97.5 237.3 97.5 C 234.9 97.5 233.4 95.7 233.4 93.3 C 233.4 93.3 233.4 93.3 233.4 93.3 C 233.4 90.7 235.3 89 237.4 89 C 239.4 89 240.1 89.9 240.3 90.3 C 240.31 90.33 240.3 85.2 240.3 85.2 L 241.5 85.2 Z M 234.6 93.3 C 234.6 93.3 234.6 93.3 234.6 93.3 C 234.6 94.8 235.6 96.4 237.5 96.4 C 239.6 96.4 240.4 95.1 240.4 93.2 C 240.4 93.2 240.4 93.2 240.4 93.2 C 240.4 91.3 239.7 90 237.5 90 C 235.6 90 234.6 91.6 234.6 93.3 Z M 244.2 89.8 C 244.6 88.4 244.9 86.7 245 85.2 C 245 85.2 246.3 85.2 246.3 85.2 C 246.2 86.4 245.6 88.7 245.2 89.8 C 245.2 89.8 244.2 89.8 244.2 89.8 Z M 249.4 93.5 L 247.8 97.2 L 246.5 97.2 L 251.4 85.8 L 252.9 85.8 L 258.1 97.2 L 256.7 97.2 L 255.1 93.5 L 249.4 93.5 Z M 254.6 92.4 C 253.1 89.1 252.4 87.6 252.2 86.8 C 252.2 86.8 252.1 86.8 252.1 86.8 C 251.9 87.5 251.1 89.6 249.9 92.4 C 249.9 92.4 254.6 92.4 254.6 92.4 Z M 260.2 91.2 C 260.2 90.5 260.2 89.8 260.1 89.2 C 260.1 89.2 261.3 89.2 261.3 89.2 C 261.4 89.5 261.4 90.2 261.4 90.8 C 261.7 90 262.6 89 264.4 89 C 266.2 89 267.5 90.1 267.5 92.4 C 267.46 92.36 267.5 97.2 267.5 97.2 L 266.2 97.2 C 266.2 97.2 266.25 92.59 266.2 92.6 C 266.2 91.2 265.7 90 264.1 90 C 262.3 90 261.4 91.4 261.4 93.4 C 261.38 93.43 261.4 97.2 261.4 97.2 L 260.2 97.2 C 260.2 97.2 260.16 91.22 260.2 91.2 Z M 270.3 91.2 C 270.3 90.5 270.3 89.8 270.3 89.2 C 270.3 89.2 271.5 89.2 271.5 89.2 C 271.5 89.5 271.6 90.2 271.6 90.8 C 271.9 90 272.8 89 274.5 89 C 276.4 89 277.6 90.1 277.6 92.4 C 277.64 92.36 277.6 97.2 277.6 97.2 L 276.4 97.2 C 276.4 97.2 276.43 92.59 276.4 92.6 C 276.4 91.2 275.9 90 274.3 90 C 272.5 90 271.6 91.4 271.6 93.4 C 271.56 93.43 271.6 97.2 271.6 97.2 L 270.3 97.2 C 270.3 97.2 270.34 91.22 270.3 91.2 Z M 287.4 95.3 C 287.4 96 287.4 97.1 287.5 97.2 C 287.5 97.2 286.3 97.2 286.3 97.2 C 286.2 96.9 286.2 96.3 286.2 96 C 285.8 96.9 284.9 97.5 283.1 97.5 C 280.8 97.5 280 96.1 280 94.9 C 280 94.9 280 94.9 280 94.9 C 280 92.8 281.9 92.3 284.1 92.3 C 285.2 92.3 285.9 92.3 286.2 92.3 C 286.2 92.3 286.2 91.8 286.2 91.8 C 286.2 90.9 285.8 89.9 283.9 89.9 C 282.2 89.9 281.8 90.7 281.7 91.5 C 281.67 91.52 281.7 91.5 281.7 91.5 L 280.5 91.5 C 280.5 91.5 280.46 91.52 280.5 91.5 C 280.6 90.4 281.3 89 283.9 89 C 286.7 89 287.4 90.3 287.4 91.7 C 287.4 91.7 287.4 95.3 287.4 95.3 Z M 286.2 93.2 C 285.9 93.2 285.4 93.2 284.2 93.2 C 282.2 93.2 281.2 93.6 281.2 94.8 C 281.2 94.8 281.2 94.8 281.2 94.8 C 281.2 95.7 281.8 96.5 283.3 96.5 C 285.7 96.5 286.2 95 286.2 93.6 C 286.2 93.6 286.2 93.2 286.2 93.2 Z M 299.8 97.2 L 299.8 90.2 L 298.2 90.2 L 298.2 89.2 L 299.8 89.2 C 299.8 89.2 299.75 87.99 299.8 88 C 299.8 86.2 300.5 85.1 302.3 85.1 C 302.7 85.1 303 85.1 303.2 85.1 C 303.2 85.1 303.2 86.2 303.2 86.2 C 303 86.1 302.7 86.1 302.5 86.1 C 301.3 86.1 301 86.6 301 88.1 C 300.96 88.09 301 89.2 301 89.2 L 302.9 89.2 L 302.9 90.2 L 301 90.2 L 301 97.2 L 299.8 97.2 Z M 304.9 97.2 L 304.9 85.2 L 306.1 85.2 L 306.1 97.2 L 304.9 97.2 Z M 316.9 93.2 C 316.9 93.2 316.9 93.2 316.9 93.2 C 316.9 95.4 315.5 97.5 312.6 97.5 C 310 97.5 308.5 95.5 308.5 93.2 C 308.5 93.2 308.5 93.2 308.5 93.2 C 308.5 90.9 310.1 89 312.7 89 C 315.4 89 316.9 91 316.9 93.2 Z M 309.7 93.2 C 309.7 93.2 309.7 93.2 309.7 93.2 C 309.7 94.8 310.8 96.4 312.7 96.4 C 314.7 96.4 315.6 95 315.6 93.2 C 315.6 93.2 315.6 93.2 315.6 93.2 C 315.6 91.5 314.5 90 312.6 90 C 310.7 90 309.7 91.5 309.7 93.2 Z M 318 89.2 L 319.7 89.2 L 319.7 86.5 L 320.9 86.5 L 320.9 89.2 L 323 89.2 L 323 90.2 L 320.9 90.2 C 320.9 90.2 320.87 94.9 320.9 94.9 C 320.9 95.9 321.1 96.3 322 96.3 C 322.3 96.3 322.6 96.3 322.9 96.3 C 322.9 96.3 322.9 97.2 322.9 97.2 C 322.5 97.3 322.1 97.3 321.7 97.3 C 320.1 97.3 319.7 96.6 319.7 95 C 319.66 95.02 319.7 90.2 319.7 90.2 L 318 90.2 L 318 89.2 Z M 324.5 89.2 L 326.2 89.2 L 326.2 86.5 L 327.4 86.5 L 327.4 89.2 L 329.5 89.2 L 329.5 90.2 L 327.4 90.2 C 327.4 90.2 327.37 94.9 327.4 94.9 C 327.4 95.9 327.6 96.3 328.5 96.3 C 328.8 96.3 329.1 96.3 329.4 96.3 C 329.4 96.3 329.4 97.2 329.4 97.2 C 329 97.3 328.6 97.3 328.2 97.3 C 326.6 97.3 326.2 96.6 326.2 95 C 326.16 95.02 326.2 90.2 326.2 90.2 L 324.5 90.2 L 324.5 89.2 Z M 332 93.5 C 332 93.5 332 93.49 332 93.5 C 332.1 95.2 333.2 96.4 335 96.4 C 336.3 96.4 337.1 95.9 337.6 95 C 337.57 95 337.6 95 337.6 95 L 338.8 95 C 338.8 95 338.78 95 338.8 95 C 338.4 96.1 337.2 97.5 334.9 97.5 C 332.1 97.5 330.8 95.4 330.8 93.2 C 330.8 93.2 330.8 93.2 330.8 93.2 C 330.8 90.8 332.4 89 334.8 89 C 337.9 89 338.9 91.2 338.9 93.2 C 338.9 93.3 338.9 93.4 338.9 93.5 C 338.9 93.49 332 93.5 332 93.5 Z M 337.6 92.6 C 337.6 92.6 337.62 92.56 337.6 92.6 C 337.5 91.5 337 90 334.8 90 C 333.1 90 332.2 91.1 332 92.6 C 332.03 92.56 332 92.6 332 92.6 L 337.6 92.6 Z M 350.1 97.2 L 350.1 85.2 L 351.3 85.2 L 351.3 97.2 L 350.1 97.2 Z M 354.2 89.2 L 355.4 89.2 L 355.4 97.2 L 354.2 97.2 L 354.2 89.2 Z M 354.2 85.2 L 355.4 85.2 L 355.4 86.9 L 354.2 86.9 L 354.2 85.2 Z M 357.4 89.2 L 359 89.2 L 359 86.5 L 360.2 86.5 L 360.2 89.2 L 362.4 89.2 L 362.4 90.2 L 360.2 90.2 C 360.2 90.2 360.21 94.9 360.2 94.9 C 360.2 95.9 360.5 96.3 361.4 96.3 C 361.6 96.3 362 96.3 362.2 96.3 C 362.2 96.3 362.2 97.2 362.2 97.2 C 361.9 97.3 361.5 97.3 361.1 97.3 C 359.5 97.3 359 96.6 359 95 C 359 95.02 359 90.2 359 90.2 L 357.4 90.2 L 357.4 89.2 Z M 363.9 89.2 L 365.5 89.2 L 365.5 86.5 L 366.7 86.5 L 366.7 89.2 L 368.9 89.2 L 368.9 90.2 L 366.7 90.2 C 366.7 90.2 366.71 94.9 366.7 94.9 C 366.7 95.9 367 96.3 367.9 96.3 C 368.1 96.3 368.5 96.3 368.7 96.3 C 368.7 96.3 368.7 97.2 368.7 97.2 C 368.4 97.3 368 97.3 367.6 97.3 C 366 97.3 365.5 96.6 365.5 95 C 365.5 95.02 365.5 90.2 365.5 90.2 L 363.9 90.2 L 363.9 89.2 Z M 371.3 93.5 C 371.3 93.5 371.34 93.49 371.3 93.5 C 371.4 95.2 372.6 96.4 374.3 96.4 C 375.7 96.4 376.4 95.9 376.9 95 C 376.91 95 376.9 95 376.9 95 L 378.1 95 C 378.1 95 378.12 95 378.1 95 C 377.7 96.1 376.6 97.5 374.2 97.5 C 371.5 97.5 370.1 95.4 370.1 93.2 C 370.1 93.2 370.1 93.2 370.1 93.2 C 370.1 90.8 371.8 89 374.2 89 C 377.2 89 378.2 91.2 378.2 93.2 C 378.2 93.3 378.2 93.4 378.2 93.5 C 378.24 93.49 371.3 93.5 371.3 93.5 Z M 377 92.6 C 377 92.6 376.96 92.56 377 92.6 C 376.9 91.5 376.3 90 374.2 90 C 372.4 90 371.5 91.1 371.4 92.6 C 371.37 92.56 371.4 92.6 371.4 92.6 L 377 92.6 Z M 376.8 85 L 374.3 87.6 L 373.1 87.6 L 375.3 85 L 376.8 85 Z M 380.6 91.4 C 380.6 90.7 380.6 89.9 380.6 89.2 C 380.6 89.2 381.7 89.2 381.7 89.2 C 381.8 89.4 381.8 90.2 381.8 91.1 C 382.3 89.8 383.6 89 385.1 89 C 385.1 89 385.1 90.2 385.1 90.2 C 383.2 90.1 381.8 91.4 381.8 93.8 C 381.8 93.76 381.8 97.2 381.8 97.2 L 380.6 97.2 C 380.6 97.2 380.59 91.38 380.6 91.4 Z M 393.7 95.3 C 393.7 96 393.8 97.1 393.8 97.2 C 393.8 97.2 392.7 97.2 392.7 97.2 C 392.6 96.9 392.6 96.3 392.6 96 C 392.1 96.9 391.2 97.5 389.5 97.5 C 387.2 97.5 386.4 96.1 386.4 94.9 C 386.4 94.9 386.4 94.9 386.4 94.9 C 386.4 92.8 388.2 92.3 390.5 92.3 C 391.6 92.3 392.3 92.3 392.5 92.3 C 392.5 92.3 392.5 91.8 392.5 91.8 C 392.5 90.9 392.1 89.9 390.3 89.9 C 388.6 89.9 388.2 90.7 388 91.5 C 388.02 91.52 388 91.5 388 91.5 L 386.8 91.5 C 386.8 91.5 386.81 91.52 386.8 91.5 C 386.9 90.4 387.6 89 390.3 89 C 393 89 393.7 90.3 393.7 91.7 C 393.7 91.7 393.7 95.3 393.7 95.3 Z M 392.5 93.2 C 392.3 93.2 391.7 93.2 390.5 93.2 C 388.5 93.2 387.6 93.6 387.6 94.8 C 387.6 94.8 387.6 94.8 387.6 94.8 C 387.6 95.7 388.2 96.5 389.7 96.5 C 392 96.5 392.5 95 392.5 93.6 C 392.5 93.6 392.5 93.2 392.5 93.2 Z M 396.6 97.2 L 396.6 85.2 L 397.8 85.2 L 397.8 97.2 L 396.6 97.2 Z M 401.5 93.5 C 401.5 93.5 401.46 93.49 401.5 93.5 C 401.5 95.2 402.7 96.4 404.4 96.4 C 405.8 96.4 406.6 95.9 407 95 C 407.03 95 407 95 407 95 L 408.2 95 C 408.2 95 408.24 95 408.2 95 C 407.8 96.1 406.7 97.5 404.3 97.5 C 401.6 97.5 400.2 95.4 400.2 93.2 C 400.2 93.2 400.2 93.2 400.2 93.2 C 400.2 90.8 401.9 89 404.3 89 C 407.3 89 408.4 91.2 408.4 93.2 C 408.4 93.3 408.4 93.4 408.4 93.5 C 408.36 93.49 401.5 93.5 401.5 93.5 Z M 407.1 92.6 C 407.1 92.6 407.08 92.56 407.1 92.6 C 407 91.5 406.4 90 404.3 90 C 402.5 90 401.6 91.1 401.5 92.6 C 401.49 92.56 401.5 92.6 401.5 92.6 L 407.1 92.6 Z M 410.7 91.3 C 410.7 90.6 410.7 89.9 410.7 89.2 C 410.7 89.2 411.9 89.2 411.9 89.2 C 411.9 89.5 411.9 90 411.9 90.5 C 412.3 89.7 413.1 89 414.6 89 C 415.9 89 416.7 89.6 417 90.6 C 417.5 89.8 418.2 89 419.8 89 C 421.4 89 422.7 89.9 422.7 92.2 C 422.66 92.23 422.7 97.2 422.7 97.2 L 421.5 97.2 C 421.5 97.2 421.46 92.29 421.5 92.3 C 421.5 91.3 421.1 90 419.6 90 C 418.2 90 417.3 91 417.3 92.8 C 417.29 92.84 417.3 97.2 417.3 97.2 L 416.1 97.2 C 416.1 97.2 416.08 92.2 416.1 92.2 C 416.1 91.2 415.7 90 414.2 90 C 412.5 90 411.9 91.3 411.9 93 C 411.91 92.98 411.9 97.2 411.9 97.2 L 410.7 97.2 C 410.7 97.2 410.71 91.27 410.7 91.3 Z M 426.3 93.5 C 426.3 93.5 426.26 93.49 426.3 93.5 C 426.4 95.2 427.5 96.4 429.3 96.4 C 430.6 96.4 431.4 95.9 431.8 95 C 431.83 95 431.8 95 431.8 95 L 433 95 C 433 95 433.04 95 433 95 C 432.6 96.1 431.5 97.5 429.2 97.5 C 426.4 97.5 425 95.4 425 93.2 C 425 93.2 425 93.2 425 93.2 C 425 90.8 426.7 89 429.1 89 C 432.1 89 433.2 91.2 433.2 93.2 C 433.2 93.3 433.2 93.4 433.2 93.5 C 433.16 93.49 426.3 93.5 426.3 93.5 Z M 431.9 92.6 C 431.9 92.6 431.89 92.56 431.9 92.6 C 431.8 91.5 431.3 90 429.1 90 C 427.4 90 426.5 91.1 426.3 92.6 C 426.3 92.56 426.3 92.6 426.3 92.6 L 431.9 92.6 Z M 435.5 91.2 C 435.5 90.5 435.5 89.8 435.5 89.2 C 435.5 89.2 436.7 89.2 436.7 89.2 C 436.7 89.5 436.7 90.2 436.7 90.8 C 437.1 90 437.9 89 439.7 89 C 441.6 89 442.8 90.1 442.8 92.4 C 442.82 92.36 442.8 97.2 442.8 97.2 L 441.6 97.2 C 441.6 97.2 441.6 92.59 441.6 92.6 C 441.6 91.2 441.1 90 439.4 90 C 437.6 90 436.7 91.4 436.7 93.4 C 436.73 93.43 436.7 97.2 436.7 97.2 L 435.5 97.2 C 435.5 97.2 435.52 91.22 435.5 91.2 Z M 444.5 89.2 L 446.2 89.2 L 446.2 86.5 L 447.4 86.5 L 447.4 89.2 L 449.6 89.2 L 449.6 90.2 L 447.4 90.2 C 447.4 90.2 447.4 94.9 447.4 94.9 C 447.4 95.9 447.7 96.3 448.6 96.3 C 448.8 96.3 449.2 96.3 449.4 96.3 C 449.4 96.3 449.4 97.2 449.4 97.2 C 449 97.3 448.7 97.3 448.2 97.3 C 446.7 97.3 446.2 96.6 446.2 95 C 446.19 95.02 446.2 90.2 446.2 90.2 L 444.5 90.2 L 444.5 89.2 Z " stroke="none" fill="#141414"/>  </g></svg>