<?xml version="1.0" standalone="no"?><!DOCTYPE svg PUBLIC "-//W3C//DTD SVG 1.1//EN" "http://www.w3.org/Graphics/SVG/1.1/DTD/svg11.dtd"><svg xmlns="http://www.w3.org/2000/svg" version="1.1" width="90px" height="14.8px" viewBox="0 -2 90 14.8" style="top:-2px">  <desc>Page</desc>  <defs/>  <g id="Polygon12039">    <path d="M 39.8 5.7 C 39.8 5.7 40.52 5.13 40.5 5.1 C 40.6 5 40.9 4.9 41.1 4.7 C 41.5 4.4 41.8 4.2 42 4 C 42.2 3.8 42.3 3.7 42.4 3.5 C 42.4 3.5 42.4 3.4 42.4 3.4 C 42.4 3.2 42.2 3.1 41.8 3.1 C 41.6 3.1 41.4 3.1 41.1 3.2 C 40.9 3.3 40.6 3.4 40.4 3.6 C 40.4 3.6 40.7 2 40.7 2 C 41 1.8 41.3 1.7 41.6 1.6 C 41.9 1.5 42.3 1.5 42.6 1.5 C 43.1 1.5 43.5 1.6 43.8 1.8 C 44 2.1 44.2 2.4 44.2 2.7 C 44.2 2.8 44.2 2.9 44.2 3 C 44.1 3.4 43.9 3.8 43.7 4 C 43.5 4.3 43.2 4.6 42.8 4.9 C 42.84 4.88 42.3 5.2 42.3 5.2 L 43.8 5.2 L 43.5 6.5 L 39.6 6.5 L 39.8 5.7 Z M 47.4 6.6 C 47.1 6.6 46.8 6.5 46.5 6.4 C 46.3 6.2 46.1 6 45.9 5.8 C 45.8 5.5 45.7 5.2 45.7 4.8 C 45.7 4.7 45.7 4.5 45.8 4.3 C 45.9 3.7 46.1 3.2 46.4 2.8 C 46.7 2.4 47.1 2 47.6 1.8 C 48 1.6 48.5 1.5 48.9 1.5 C 49.3 1.5 49.7 1.6 49.9 1.7 C 49.9 1.7 49.7 3 49.7 3 C 49.4 2.9 49.1 2.8 48.8 2.8 C 48.6 2.8 48.3 2.8 48.1 2.9 C 47.9 3.1 47.7 3.2 47.6 3.4 C 47.8 3.3 47.9 3.3 48.1 3.2 C 48.3 3.2 48.5 3.2 48.7 3.2 C 49.1 3.2 49.4 3.3 49.7 3.5 C 49.9 3.7 50 4 50 4.4 C 50 4.5 50 4.7 50 4.8 C 49.9 5.1 49.7 5.4 49.5 5.7 C 49.3 6 49 6.2 48.7 6.4 C 48.3 6.5 47.9 6.6 47.4 6.6 C 47.4 6.6 47.4 6.6 47.4 6.6 Z M 47.7 5.4 C 47.9 5.4 48 5.3 48.1 5.2 C 48.2 5.2 48.2 5 48.3 4.9 C 48.3 4.8 48.3 4.8 48.3 4.7 C 48.3 4.5 48.2 4.4 47.9 4.4 C 47.8 4.4 47.6 4.4 47.5 4.5 C 47.4 4.6 47.4 4.7 47.3 4.9 C 47.3 4.9 47.3 5 47.3 5 C 47.3 5.1 47.4 5.2 47.4 5.3 C 47.5 5.3 47.6 5.4 47.7 5.4 C 47.7 5.4 47.7 5.4 47.7 5.4 Z " stroke="none" fill="#fafafa"/>  </g></svg>