<?xml version="1.0" standalone="no"?><!DOCTYPE svg PUBLIC "-//W3C//DTD SVG 1.1//EN" "http://www.w3.org/Graphics/SVG/1.1/DTD/svg11.dtd"><svg xmlns="http://www.w3.org/2000/svg" version="1.1" width="90px" height="14.8px" viewBox="0 -2 90 14.8" style="top:-2px">  <desc>Page</desc>  <defs/>  <g id="Polygon11721">    <path d="M 40 5.7 C 40 5.7 40.67 5.13 40.7 5.1 C 40.8 5 41 4.9 41.3 4.7 C 41.7 4.4 42 4.2 42.2 4 C 42.4 3.8 42.5 3.7 42.5 3.5 C 42.5 3.5 42.5 3.4 42.5 3.4 C 42.5 3.2 42.3 3.1 42 3.1 C 41.8 3.1 41.5 3.1 41.3 3.2 C 41 3.3 40.8 3.4 40.6 3.6 C 40.6 3.6 40.9 2 40.9 2 C 41.1 1.8 41.4 1.7 41.8 1.6 C 42.1 1.5 42.4 1.5 42.8 1.5 C 43.3 1.5 43.7 1.6 43.9 1.8 C 44.2 2.1 44.3 2.4 44.3 2.7 C 44.3 2.8 44.3 2.9 44.3 3 C 44.2 3.4 44.1 3.8 43.9 4 C 43.7 4.3 43.4 4.6 43 4.9 C 43 4.88 42.5 5.2 42.5 5.2 L 44 5.2 L 43.7 6.5 L 39.8 6.5 L 40 5.7 Z M 47.2 6.6 C 46.9 6.6 46.5 6.6 46.3 6.5 C 46 6.5 45.7 6.4 45.6 6.3 C 45.6 6.3 45.8 5 45.8 5 C 46.3 5.3 46.7 5.4 47.2 5.4 C 47.8 5.4 48.1 5.2 48.1 4.9 C 48.1 4.8 48 4.7 47.9 4.7 C 47.8 4.7 47.6 4.6 47.4 4.6 C 47.38 4.64 46.6 4.6 46.6 4.6 L 46.9 3.4 C 46.9 3.4 47.6 3.43 47.6 3.4 C 47.8 3.4 48 3.4 48.1 3.3 C 48.2 3.3 48.3 3.2 48.3 3.1 C 48.3 3.1 48.3 3 48.3 3 C 48.3 2.8 48.2 2.7 47.8 2.7 C 47.5 2.7 47.3 2.8 47 2.8 C 46.8 2.9 46.5 3 46.3 3.1 C 46.3 3.1 46.6 1.9 46.6 1.9 C 46.8 1.7 47.1 1.7 47.4 1.6 C 47.7 1.5 48 1.5 48.3 1.5 C 48.9 1.5 49.4 1.6 49.6 1.8 C 49.9 2 50.1 2.3 50.1 2.7 C 50.1 2.8 50.1 2.9 50 3 C 50 3.2 49.9 3.4 49.8 3.6 C 49.7 3.7 49.6 3.9 49.4 4 C 49.7 4.2 49.8 4.5 49.8 4.8 C 49.8 4.9 49.8 5 49.7 5.1 C 49.5 6.1 48.7 6.6 47.2 6.6 C 47.2 6.6 47.2 6.6 47.2 6.6 Z " stroke="none" fill="#fafafa"/>  </g></svg>