<?xml version="1.0" standalone="no"?><!DOCTYPE svg PUBLIC "-//W3C//DTD SVG 1.1//EN" "http://www.w3.org/Graphics/SVG/1.1/DTD/svg11.dtd"><svg xmlns="http://www.w3.org/2000/svg" version="1.1" width="450px" height="286.2px" viewBox="0 -1 450 286.2" style="top:-1px">  <desc>Anna court, la cam ra la suit, immerg e dans un mouvement qui nous donne l’impression qu’elle est port e par quelque ...</desc>  <defs/>  <g id="Polygon9994">    <path d="M 13 202.9 C 13 202.9 12.97 202.86 13 202.9 C 12.5 205.2 10.6 206.9 6.9 206.9 C 2.8 206.9 0.7 204.3 0.7 201 C 0.7 201 0.7 201 0.7 201 C 0.7 198 2.7 195.2 7.1 195.2 C 10.9 195.2 12.7 197.2 13 199.2 C 13 199.2 13 199.2 13 199.2 L 9.3 199.2 C 9.3 199.2 9.31 199.2 9.3 199.2 C 9.2 198.6 8.7 197.7 7.1 197.7 C 5.4 197.7 4.5 199 4.5 201 C 4.5 201 4.5 201 4.5 201 C 4.5 202.8 5.2 204.4 7.1 204.4 C 8.5 204.4 9 203.8 9.3 202.9 C 9.33 202.86 9.3 202.9 9.3 202.9 L 13 202.9 Z M 18 204.6 L 17.3 206.7 L 13.7 206.7 L 17.9 195.4 L 22.7 195.4 L 27.2 206.7 L 23.3 206.7 L 22.5 204.6 L 18 204.6 Z M 21.7 202 C 20.9 200 20.5 198.7 20.2 197.7 C 20.2 197.7 20.2 197.7 20.2 197.7 C 19.9 198.7 19.4 200.3 18.8 202 C 18.8 202 21.7 202 21.7 202 Z M 28.9 206.7 L 28.9 195.4 C 28.9 195.4 33.13 195.43 33.1 195.4 C 35.6 199.5 36.5 200.9 37.2 202.4 C 37.2 202.4 37.2 202.4 37.2 202.4 C 37.1 201.3 37.2 199.3 37.2 197.4 C 37.15 197.41 37.2 195.4 37.2 195.4 L 40.4 195.4 L 40.4 206.7 C 40.4 206.7 36.42 206.68 36.4 206.7 C 35.5 205.1 32.8 200.3 32.1 199 C 32.1 199 32.1 199 32.1 199 C 32.2 200.2 32.2 201.7 32.2 203.9 C 32.17 203.94 32.2 206.7 32.2 206.7 L 28.9 206.7 Z M 46.5 204.6 L 45.8 206.7 L 42.1 206.7 L 46.4 195.4 L 51.1 195.4 L 55.7 206.7 L 51.7 206.7 L 51 204.6 L 46.5 204.6 Z M 50.1 202 C 49.4 200 49 198.7 48.7 197.7 C 48.7 197.7 48.6 197.7 48.6 197.7 C 48.4 198.7 47.9 200.3 47.3 202 C 47.3 202 50.1 202 50.1 202 Z M 57.3 195.4 L 61 195.4 L 61 204.1 L 67 204.1 L 66.6 206.7 L 57.3 206.7 L 57.3 195.4 Z M 73.6 196.9 L 73.6 200.5 L 77.2 200.5 L 77.2 203 L 73.6 203 L 73.6 206.7 L 71 206.7 L 71 203 L 67.4 203 L 67.4 200.5 L 71 200.5 L 71 196.9 L 73.6 196.9 Z M 89.9 204.1 C 89.9 204.1 89.94 204.1 89.9 204.1 C 90.1 204.6 90.5 204.8 91.3 204.8 C 92.1 204.8 92.4 204.6 92.4 204.3 C 92.4 203.9 92 203.8 90.7 203.6 C 87.3 203.1 86.9 201.9 86.9 200.9 C 86.9 199.5 88 198.1 91 198.1 C 94.3 198.1 95.4 199.5 95.5 200.7 C 95.52 200.74 95.5 200.7 95.5 200.7 L 92.3 200.7 C 92.3 200.7 92.33 200.74 92.3 200.7 C 92.2 200.4 92 200.1 91.1 200.1 C 90.4 200.1 90.2 200.3 90.2 200.6 C 90.2 200.8 90.5 201 91.8 201.2 C 95.2 201.7 95.8 202.8 95.8 204 C 95.8 205.5 94.7 206.9 91.3 206.9 C 88.6 206.9 86.9 205.8 86.6 204.1 C 86.64 204.1 86.6 204.1 86.6 204.1 L 89.9 204.1 Z M 107 204 C 107 204.9 107 206 107 206.7 C 107 206.7 103.5 206.7 103.5 206.7 C 103.5 206.5 103.5 206.1 103.5 205.8 C 103 206.4 102.4 206.9 100.7 206.9 C 98.8 206.9 97.5 205.8 97.5 203.5 C 97.51 203.49 97.5 198.3 97.5 198.3 L 101.1 198.3 C 101.1 198.3 101.07 203.02 101.1 203 C 101.1 204 101.4 204.5 102.2 204.5 C 103.1 204.5 103.4 203.9 103.4 202.5 C 103.45 202.47 103.4 198.3 103.4 198.3 L 107 198.3 C 107 198.3 107 203.99 107 204 Z M 109.2 200.7 C 109.2 199.9 109.2 199 109.2 198.3 C 109.2 198.3 112.7 198.3 112.7 198.3 C 112.7 198.6 112.8 199.5 112.8 199.9 C 113.2 199 114 198 115.8 198.1 C 115.8 198.1 115.8 201.2 115.8 201.2 C 113.9 201.1 112.8 201.6 112.8 203.9 C 112.79 203.93 112.8 206.7 112.8 206.7 L 109.2 206.7 C 109.2 206.7 109.23 200.7 109.2 200.7 Z M 124.8 206.7 L 124.8 194.9 L 128.3 194.9 L 128.3 206.7 L 124.8 206.7 Z M 130.5 200.1 C 130.8 198.8 131.2 197 131.3 194.9 C 131.3 194.9 134.4 194.9 134.4 194.9 C 134.2 197 133.5 198.9 132.8 200.1 C 132.8 200.1 130.5 200.1 130.5 200.1 Z M 144.8 204 C 144.8 205.3 144.8 206.5 144.8 206.7 C 144.8 206.7 141.6 206.7 141.6 206.7 C 141.5 206.5 141.5 206 141.5 205.8 C 140.9 206.5 140 206.9 138.5 206.9 C 136.4 206.9 135.3 205.7 135.3 204.2 C 135.3 204.2 135.3 204.2 135.3 204.2 C 135.3 202.1 137.1 201.3 139.9 201.3 C 140.5 201.3 141.1 201.3 141.4 201.4 C 141.4 201.4 141.4 201.1 141.4 201.1 C 141.4 200.5 141.1 200.1 140.2 200.1 C 139.4 200.1 139.2 200.4 139.1 200.8 C 139.08 200.83 139.1 200.8 139.1 200.8 L 135.8 200.8 C 135.8 200.8 135.76 200.83 135.8 200.8 C 135.8 199.8 136.5 198.1 140.2 198.1 C 144.2 198.1 144.8 199.8 144.8 201.2 C 144.8 201.2 144.8 204 144.8 204 Z M 141.4 203.1 C 141.2 203.1 140.8 203.1 140.1 203.1 C 139.1 203.1 138.7 203.4 138.7 203.9 C 138.7 203.9 138.7 203.9 138.7 203.9 C 138.7 204.4 139 204.7 139.7 204.7 C 140.7 204.7 141.4 204.3 141.4 203.2 C 141.4 203.2 141.4 203.1 141.4 203.1 Z M 150.5 206 C 150.5 206.04 150.5 210 150.5 210 L 147 210 C 147 210 146.96 200.59 147 200.6 C 147 199.8 147 199 146.9 198.3 C 146.9 198.3 150.4 198.3 150.4 198.3 C 150.5 198.4 150.5 199 150.5 199.2 C 151 198.6 151.8 198.1 153.3 198.1 C 155.4 198.1 157.2 199.8 157.2 202.3 C 157.2 202.3 157.2 202.3 157.2 202.3 C 157.2 205.3 155 206.9 152.9 206.9 C 151.6 206.9 150.9 206.5 150.5 206 Z M 153.5 202.5 C 153.5 202.5 153.5 202.5 153.5 202.5 C 153.5 201.3 153 200.5 152 200.5 C 150.8 200.5 150.4 201.2 150.4 202.5 C 150.4 202.5 150.4 202.5 150.4 202.5 C 150.4 203.8 150.9 204.5 152 204.5 C 153 204.5 153.5 203.7 153.5 202.5 Z M 162.6 206 C 162.62 206.04 162.6 210 162.6 210 L 159.1 210 C 159.1 210 159.07 200.59 159.1 200.6 C 159.1 199.8 159.1 199 159.1 198.3 C 159.1 198.3 162.5 198.3 162.5 198.3 C 162.6 198.4 162.6 199 162.6 199.2 C 163.1 198.6 163.9 198.1 165.4 198.1 C 167.5 198.1 169.3 199.8 169.3 202.3 C 169.3 202.3 169.3 202.3 169.3 202.3 C 169.3 205.3 167.1 206.9 165 206.9 C 163.7 206.9 163 206.5 162.6 206 Z M 165.6 202.5 C 165.6 202.5 165.6 202.5 165.6 202.5 C 165.6 201.3 165.1 200.5 164.1 200.5 C 163 200.5 162.5 201.2 162.5 202.5 C 162.5 202.5 162.5 202.5 162.5 202.5 C 162.5 203.8 163 204.5 164.1 204.5 C 165.1 204.5 165.6 203.7 165.6 202.5 Z M 171.2 206.7 L 171.2 194.9 L 174.7 194.9 L 174.7 206.7 L 171.2 206.7 Z M 177 198.3 L 180.5 198.3 L 180.5 206.7 L 177 206.7 L 177 198.3 Z M 177 194.9 L 180.5 194.9 L 180.5 197.1 L 177 197.1 L 177 194.9 Z M 192.1 203.7 C 192.1 203.7 192.15 203.7 192.1 203.7 C 191.8 205.3 190.5 206.9 187.4 206.9 C 183.7 206.9 182.4 204.7 182.4 202.5 C 182.4 202.5 182.4 202.5 182.4 202.5 C 182.4 200.1 184.1 198.1 187.4 198.1 C 191.2 198.1 192 200.4 192.1 201.3 C 192.09 201.3 192.1 201.3 192.1 201.3 L 188.7 201.3 C 188.7 201.3 188.71 201.3 188.7 201.3 C 188.6 200.8 188.3 200.3 187.5 200.3 C 186.4 200.3 186 201.1 186 202.4 C 186 202.4 186 202.4 186 202.4 C 186 203.8 186.4 204.7 187.5 204.7 C 188.2 204.7 188.5 204.4 188.8 203.7 C 188.77 203.7 188.8 203.7 188.8 203.7 L 192.1 203.7 Z M 203.1 204 C 203.1 205.3 203.2 206.5 203.2 206.7 C 203.2 206.7 199.9 206.7 199.9 206.7 C 199.9 206.5 199.8 206 199.8 205.8 C 199.3 206.5 198.4 206.9 196.9 206.9 C 194.7 206.9 193.7 205.7 193.7 204.2 C 193.7 204.2 193.7 204.2 193.7 204.2 C 193.7 202.1 195.5 201.3 198.2 201.3 C 198.8 201.3 199.4 201.3 199.7 201.4 C 199.7 201.4 199.7 201.1 199.7 201.1 C 199.7 200.5 199.5 200.1 198.6 200.1 C 197.7 200.1 197.5 200.4 197.4 200.8 C 197.45 200.83 197.4 200.8 197.4 200.8 L 194.1 200.8 C 194.1 200.8 194.13 200.83 194.1 200.8 C 194.2 199.8 194.9 198.1 198.6 198.1 C 202.5 198.1 203.1 199.8 203.1 201.2 C 203.1 201.2 203.1 204 203.1 204 Z M 199.7 203.1 C 199.6 203.1 199.1 203.1 198.5 203.1 C 197.4 203.1 197 203.4 197 203.9 C 197 203.9 197 203.9 197 203.9 C 197 204.4 197.4 204.7 198.1 204.7 C 199.1 204.7 199.7 204.3 199.7 203.2 C 199.7 203.2 199.7 203.1 199.7 203.1 Z M 204.6 198.3 L 206 198.3 L 206 195.9 L 209.6 195.9 L 209.6 198.3 L 211.3 198.3 L 211.3 200.6 L 209.6 200.6 C 209.6 200.6 209.57 203.59 209.6 203.6 C 209.6 204.2 209.7 204.5 210.4 204.5 C 210.6 204.5 210.8 204.5 211 204.4 C 211 204.4 211 206.6 211 206.6 C 210.5 206.7 209.7 206.8 209 206.8 C 206.5 206.8 206 205.7 206 204.1 C 206 204.09 206 200.6 206 200.6 L 204.6 200.6 L 204.6 198.3 Z M 213 198.3 L 216.6 198.3 L 216.6 206.7 L 213 206.7 L 213 198.3 Z M 213 194.9 L 216.6 194.9 L 216.6 197.1 L 213 197.1 L 213 194.9 Z M 228.8 202.5 C 228.8 202.5 228.8 202.5 228.8 202.5 C 228.8 205.1 226.9 206.9 223.5 206.9 C 220 206.9 218.5 204.7 218.5 202.5 C 218.5 202.5 218.5 202.5 218.5 202.5 C 218.5 200.1 220.2 198.1 223.6 198.1 C 227.2 198.1 228.8 200.4 228.8 202.5 Z M 222.1 202.5 C 222.1 202.5 222.1 202.5 222.1 202.5 C 222.1 203.8 222.6 204.7 223.6 204.7 C 224.7 204.7 225.1 203.8 225.1 202.5 C 225.1 202.5 225.1 202.5 225.1 202.5 C 225.1 201.2 224.7 200.3 223.6 200.3 C 222.6 200.3 222.1 201.1 222.1 202.5 Z M 230.6 200.5 C 230.6 199.7 230.6 198.8 230.6 198.3 C 230.6 198.3 234.1 198.3 234.1 198.3 C 234.2 198.5 234.2 199 234.2 199.2 C 234.6 198.7 235.4 198.1 236.9 198.1 C 239.1 198.1 240.2 199.3 240.2 201.5 C 240.24 201.5 240.2 206.7 240.2 206.7 L 236.7 206.7 C 236.7 206.7 236.65 201.85 236.7 201.8 C 236.7 201.1 236.4 200.5 235.5 200.5 C 234.6 200.5 234.2 201 234.2 202.3 C 234.22 202.3 234.2 206.7 234.2 206.7 L 230.6 206.7 C 230.6 206.7 230.65 200.47 230.6 200.5 Z M 253.8 202.5 L 253.8 206.7 L 250.2 206.7 L 250.2 195.4 C 250.2 195.4 256.99 195.43 257 195.4 C 259.8 195.4 261.2 196.8 261.2 198.7 C 261.2 198.7 261.2 198.7 261.2 198.7 C 261.2 200.1 260.4 201 259.3 201.4 C 259.9 201.6 260.9 202.2 260.9 204.1 C 260.9 204.1 260.9 204.7 260.9 204.7 C 260.9 205.3 260.9 206.1 261.1 206.7 C 261.1 206.7 257.5 206.7 257.5 206.7 C 257.3 206.2 257.2 205.5 257.2 204.4 C 257.2 204.4 257.2 204 257.2 204 C 257.2 202.9 256.9 202.5 255.5 202.5 C 255.48 202.54 253.8 202.5 253.8 202.5 Z M 253.8 200.2 C 253.8 200.2 256.01 200.2 256 200.2 C 257 200.2 257.6 199.8 257.6 199 C 257.6 199 257.6 199 257.6 199 C 257.6 198.3 257.1 197.9 256 197.9 C 256.01 197.85 253.8 197.9 253.8 197.9 L 253.8 200.2 Z M 272.7 204 C 272.7 204.9 272.7 206 272.7 206.7 C 272.7 206.7 269.2 206.7 269.2 206.7 C 269.2 206.5 269.2 206.1 269.2 205.8 C 268.7 206.4 268.1 206.9 266.4 206.9 C 264.5 206.9 263.2 205.8 263.2 203.5 C 263.22 203.49 263.2 198.3 263.2 198.3 L 266.8 198.3 C 266.8 198.3 266.78 203.02 266.8 203 C 266.8 204 267.1 204.5 267.9 204.5 C 268.8 204.5 269.2 203.9 269.2 202.5 C 269.16 202.47 269.2 198.3 269.2 198.3 L 272.7 198.3 C 272.7 198.3 272.71 203.99 272.7 204 Z M 274.9 200.5 C 274.9 199.7 274.9 198.8 274.9 198.3 C 274.9 198.3 278.4 198.3 278.4 198.3 C 278.4 198.5 278.5 199 278.5 199.2 C 278.9 198.7 279.6 198.1 281.2 198.1 C 283.3 198.1 284.5 199.3 284.5 201.5 C 284.51 201.5 284.5 206.7 284.5 206.7 L 280.9 206.7 C 280.9 206.7 280.93 201.85 280.9 201.8 C 280.9 201.1 280.7 200.5 279.8 200.5 C 278.9 200.5 278.5 201 278.5 202.3 C 278.49 202.3 278.5 206.7 278.5 206.7 L 274.9 206.7 C 274.9 206.7 274.93 200.47 274.9 200.5 Z M 286.7 200.5 C 286.7 199.7 286.7 198.8 286.7 198.3 C 286.7 198.3 290.2 198.3 290.2 198.3 C 290.2 198.5 290.2 199 290.3 199.2 C 290.6 198.7 291.4 198.1 293 198.1 C 295.1 198.1 296.3 199.3 296.3 201.5 C 296.29 201.5 296.3 206.7 296.3 206.7 L 292.7 206.7 C 292.7 206.7 292.71 201.85 292.7 201.8 C 292.7 201.1 292.4 200.5 291.6 200.5 C 290.7 200.5 290.3 201 290.3 202.3 C 290.27 202.3 290.3 206.7 290.3 206.7 L 286.7 206.7 C 286.7 206.7 286.71 200.47 286.7 200.5 Z M 298.5 198.3 L 302.1 198.3 L 302.1 206.7 L 298.5 206.7 L 298.5 198.3 Z M 298.5 194.9 L 302.1 194.9 L 302.1 197.1 L 298.5 197.1 L 298.5 194.9 Z M 304.3 200.5 C 304.3 199.7 304.3 198.8 304.3 198.3 C 304.3 198.3 307.7 198.3 307.7 198.3 C 307.8 198.5 307.8 199 307.8 199.2 C 308.2 198.7 309 198.1 310.6 198.1 C 312.7 198.1 313.9 199.3 313.9 201.5 C 313.86 201.5 313.9 206.7 313.9 206.7 L 310.3 206.7 C 310.3 206.7 310.27 201.85 310.3 201.8 C 310.3 201.1 310 200.5 309.1 200.5 C 308.3 200.5 307.8 201 307.8 202.3 C 307.84 202.3 307.8 206.7 307.8 206.7 L 304.3 206.7 C 304.3 206.7 304.27 200.47 304.3 200.5 Z M 325.9 205.8 C 325.9 208.8 324.4 210.3 320.7 210.3 C 316.6 210.3 315.9 208.3 315.8 207.3 C 315.78 207.29 315.8 207.3 315.8 207.3 L 319.3 207.3 C 319.3 207.3 319.29 207.29 319.3 207.3 C 319.4 207.7 319.8 208.1 320.8 208.1 C 322 208.1 322.4 207.3 322.4 206.2 C 322.4 206.2 322.4 205.7 322.4 205.7 C 321.9 206.2 321.3 206.7 319.7 206.7 C 317.3 206.7 315.7 204.8 315.7 202.6 C 315.7 202.6 315.7 202.6 315.7 202.6 C 315.7 199.9 317.5 198.1 319.9 198.1 C 321.6 198.1 322.1 198.7 322.4 199.1 C 322.4 198.9 322.4 198.5 322.4 198.3 C 322.4 198.3 325.9 198.3 325.9 198.3 C 325.9 198.9 325.9 199.9 325.9 200.8 C 325.9 200.8 325.9 205.8 325.9 205.8 Z M 319.4 202.5 C 319.4 202.5 319.4 202.5 319.4 202.5 C 319.4 203.5 319.8 204.3 320.9 204.3 C 322 204.3 322.5 203.6 322.5 202.4 C 322.5 202.4 322.5 202.4 322.5 202.4 C 322.5 201.2 322 200.5 321 200.5 C 320 200.5 319.4 201.2 319.4 202.5 Z M 335.8 195.4 L 339.5 195.4 L 339.5 199.5 L 343.5 199.5 L 343.5 195.4 L 347.2 195.4 L 347.2 206.7 L 343.5 206.7 L 343.5 202.1 L 339.5 202.1 L 339.5 206.7 L 335.8 206.7 L 335.8 195.4 Z M 353 203.3 C 353 203.3 353.04 203.25 353 203.3 C 353.1 204.1 353.6 204.7 354.6 204.7 C 355.4 204.7 355.7 204.5 355.9 204.1 C 355.92 204.06 355.9 204.1 355.9 204.1 L 359.4 204.1 C 359.4 204.1 359.35 204.06 359.4 204.1 C 358.9 205.5 357.7 206.9 354.5 206.9 C 350.7 206.9 349.5 204.6 349.5 202.5 C 349.5 202.5 349.5 202.5 349.5 202.5 C 349.5 200.2 351 198.1 354.5 198.1 C 358.1 198.1 359.4 200.3 359.4 202.5 C 359.4 202.7 359.4 203.1 359.4 203.3 C 359.43 203.25 353 203.3 353 203.3 Z M 356 201.5 C 356 201.5 355.97 201.45 356 201.5 C 355.9 200.8 355.7 200.1 354.6 200.1 C 353.5 200.1 353.1 200.7 353.1 201.5 C 353.06 201.45 353.1 201.5 353.1 201.5 L 356 201.5 Z M 361.3 200.7 C 361.3 199.9 361.3 199 361.3 198.3 C 361.3 198.3 364.8 198.3 364.8 198.3 C 364.8 198.6 364.9 199.5 364.9 199.9 C 365.2 199 366.1 198 367.9 198.1 C 367.9 198.1 367.9 201.2 367.9 201.2 C 366 201.1 364.9 201.6 364.9 203.9 C 364.87 203.93 364.9 206.7 364.9 206.7 L 361.3 206.7 C 361.3 206.7 361.32 200.7 361.3 200.7 Z M 379.3 202.5 C 379.3 202.5 379.3 202.5 379.3 202.5 C 379.3 205.1 377.4 206.9 374.1 206.9 C 370.5 206.9 369 204.7 369 202.5 C 369 202.5 369 202.5 369 202.5 C 369 200.1 370.7 198.1 374.2 198.1 C 377.7 198.1 379.3 200.4 379.3 202.5 Z M 372.6 202.5 C 372.6 202.5 372.6 202.5 372.6 202.5 C 372.6 203.8 373.1 204.7 374.1 204.7 C 375.2 204.7 375.6 203.8 375.6 202.5 C 375.6 202.5 375.6 202.5 375.6 202.5 C 375.6 201.2 375.2 200.3 374.1 200.3 C 373.1 200.3 372.6 201.1 372.6 202.5 Z M 384.4 203.3 C 384.4 203.3 384.41 203.25 384.4 203.3 C 384.4 204.1 385 204.7 385.9 204.7 C 386.7 204.7 387.1 204.5 387.3 204.1 C 387.28 204.06 387.3 204.1 387.3 204.1 L 390.7 204.1 C 390.7 204.1 390.72 204.06 390.7 204.1 C 390.2 205.5 389.1 206.9 385.9 206.9 C 382.1 206.9 380.9 204.6 380.9 202.5 C 380.9 202.5 380.9 202.5 380.9 202.5 C 380.9 200.2 382.4 198.1 385.9 198.1 C 389.4 198.1 390.8 200.3 390.8 202.5 C 390.8 202.7 390.8 203.1 390.8 203.3 C 390.79 203.25 384.4 203.3 384.4 203.3 Z M 387.3 201.5 C 387.3 201.5 387.33 201.45 387.3 201.5 C 387.3 200.8 387 200.1 385.9 200.1 C 384.9 200.1 384.5 200.7 384.4 201.5 C 384.43 201.45 384.4 201.5 384.4 201.5 L 387.3 201.5 Z M 395.6 204.1 C 395.6 204.1 395.59 204.1 395.6 204.1 C 395.8 204.6 396.2 204.8 397 204.8 C 397.8 204.8 398 204.6 398 204.3 C 398 203.9 397.7 203.8 396.4 203.6 C 393 203.1 392.5 201.9 392.5 200.9 C 392.5 199.5 393.6 198.1 396.7 198.1 C 399.9 198.1 401 199.5 401.2 200.7 C 401.18 200.74 401.2 200.7 401.2 200.7 L 398 200.7 C 398 200.7 397.99 200.74 398 200.7 C 397.9 200.4 397.6 200.1 396.8 200.1 C 396 200.1 395.9 200.3 395.9 200.6 C 395.9 200.8 396.2 201 397.5 201.2 C 400.9 201.7 401.5 202.8 401.5 204 C 401.5 205.5 400.4 206.9 396.9 206.9 C 394.3 206.9 392.6 205.8 392.3 204.1 C 392.29 204.1 392.3 204.1 392.3 204.1 L 395.6 204.1 Z M 403.5 206.7 L 403.5 203 L 407.1 203 L 407.1 206.7 L 403.5 206.7 Z M 409.5 206.7 L 409.5 203 L 413.1 203 L 413.1 206.7 L 409.5 206.7 Z M 415.6 206.7 L 415.6 203 L 419.1 203 L 419.1 206.7 L 415.6 206.7 Z " stroke="none" fill="#141414"/>  </g>  <g id="Polygon9993">    <path d="M 6.5 170.5 C 5 172.3 3.7 174.6 3.7 177.7 C 3.7 180.5 4.7 183 6.5 185.1 C 6.5 185.1 3.5 185.1 3.5 185.1 C 2 183.5 0.8 180.8 0.8 177.7 C 0.8 174.7 2.1 172.1 3.5 170.5 C 3.5 170.5 6.5 170.5 6.5 170.5 Z M 11.7 182.4 L 7.3 171.1 L 11.3 171.1 C 11.3 171.1 12.91 176.16 12.9 176.2 C 13.5 178 13.8 179 14 179.8 C 14 179.8 14 179.8 14 179.8 C 14.2 179 14.3 178.6 15.1 176 C 15.13 175.98 16.7 171.1 16.7 171.1 L 20.6 171.1 L 16.1 182.4 L 11.7 182.4 Z M 33.9 176.7 C 33.9 176.7 33.9 176.7 33.9 176.7 C 33.9 179.9 31.8 182.6 27.4 182.6 C 23.3 182.6 21.1 180 21.1 176.7 C 21.1 176.7 21.1 176.7 21.1 176.7 C 21.1 173.6 23.2 170.8 27.5 170.8 C 31.6 170.8 33.9 173.5 33.9 176.7 Z M 24.9 176.7 C 24.9 176.7 24.9 176.7 24.9 176.7 C 24.9 178.6 25.7 180.1 27.6 180.1 C 29.4 180.1 30 178.4 30 176.7 C 30 176.7 30 176.7 30 176.7 C 30 174.8 29.4 173.3 27.5 173.3 C 25.6 173.3 24.9 174.8 24.9 176.7 Z M 34.5 185.1 C 35.9 183.4 37.3 181 37.3 177.9 C 37.3 175.1 36.2 172.6 34.5 170.5 C 34.5 170.5 37.5 170.5 37.5 170.5 C 39 172.2 40.2 174.9 40.2 177.9 C 40.2 181 38.8 183.6 37.5 185.1 C 37.5 185.1 34.5 185.1 34.5 185.1 Z M 53.1 171.1 C 53.1 171.1 59.43 171.11 59.4 171.1 C 62.1 171.1 64 172.5 64 174.8 C 64 174.8 64 174.8 64 174.8 C 64 177.2 62.2 178.5 59.4 178.5 C 59.44 178.54 56.7 178.5 56.7 178.5 L 56.7 182.4 L 53.1 182.4 L 53.1 171.1 Z M 56.7 176.1 C 56.7 176.1 58.86 176.07 58.9 176.1 C 59.8 176.1 60.4 175.7 60.4 174.8 C 60.4 174.8 60.4 174.8 60.4 174.8 C 60.4 174.1 60 173.6 58.9 173.6 C 58.86 173.57 56.7 173.6 56.7 173.6 L 56.7 176.1 Z M 74.6 179.7 C 74.6 181 74.7 182.2 74.7 182.4 C 74.7 182.4 71.4 182.4 71.4 182.4 C 71.4 182.2 71.3 181.7 71.3 181.5 C 70.8 182.2 69.8 182.6 68.4 182.6 C 66.2 182.6 65.2 181.3 65.2 179.9 C 65.2 179.9 65.2 179.9 65.2 179.9 C 65.2 177.8 67 177 69.7 177 C 70.3 177 70.9 177 71.2 177 C 71.2 177 71.2 176.8 71.2 176.8 C 71.2 176.2 71 175.8 70.1 175.8 C 69.2 175.8 69 176.1 68.9 176.5 C 68.94 176.51 68.9 176.5 68.9 176.5 L 65.6 176.5 C 65.6 176.5 65.62 176.51 65.6 176.5 C 65.7 175.5 66.4 173.7 70.1 173.7 C 74 173.7 74.6 175.5 74.6 176.9 C 74.6 176.9 74.6 179.7 74.6 179.7 Z M 71.2 178.8 C 71.1 178.8 70.6 178.8 69.9 178.8 C 68.9 178.8 68.5 179.1 68.5 179.6 C 68.5 179.6 68.5 179.6 68.5 179.6 C 68.5 180.1 68.9 180.4 69.6 180.4 C 70.6 180.4 71.2 180 71.2 178.9 C 71.2 178.9 71.2 178.8 71.2 178.8 Z M 76.8 176.4 C 76.8 175.6 76.8 174.7 76.8 174 C 76.8 174 80.3 174 80.3 174 C 80.3 174.3 80.4 175.2 80.4 175.6 C 80.7 174.7 81.6 173.7 83.4 173.8 C 83.4 173.8 83.4 176.8 83.4 176.8 C 81.5 176.8 80.4 177.3 80.4 179.6 C 80.37 179.61 80.4 182.4 80.4 182.4 L 76.8 182.4 C 76.8 182.4 76.82 176.38 76.8 176.4 Z M 84.9 174 L 86.3 174 L 86.3 171.6 L 89.9 171.6 L 89.9 174 L 91.6 174 L 91.6 176.2 L 89.9 176.2 C 89.9 176.2 89.9 179.27 89.9 179.3 C 89.9 179.9 90 180.1 90.8 180.1 C 90.9 180.1 91.1 180.1 91.3 180.1 C 91.3 180.1 91.3 182.3 91.3 182.3 C 90.9 182.4 90.1 182.5 89.3 182.5 C 86.9 182.5 86.3 181.4 86.3 179.8 C 86.33 179.77 86.3 176.2 86.3 176.2 L 84.9 176.2 L 84.9 174 Z M 93.4 174 L 96.9 174 L 96.9 182.4 L 93.4 182.4 L 93.4 174 Z M 93.4 170.5 L 96.9 170.5 L 96.9 172.8 L 93.4 172.8 L 93.4 170.5 Z M 108.6 179.4 C 108.6 179.4 108.58 179.38 108.6 179.4 C 108.3 181 106.9 182.6 103.8 182.6 C 100.1 182.6 98.9 180.4 98.9 178.1 C 98.9 178.1 98.9 178.1 98.9 178.1 C 98.9 175.8 100.5 173.7 103.8 173.7 C 107.6 173.7 108.5 176.1 108.5 177 C 108.52 176.98 108.5 177 108.5 177 L 105.1 177 C 105.1 177 105.14 176.98 105.1 177 C 105 176.5 104.8 175.9 103.9 175.9 C 102.9 175.9 102.5 176.8 102.5 178.1 C 102.5 178.1 102.5 178.1 102.5 178.1 C 102.5 179.5 102.8 180.4 103.9 180.4 C 104.6 180.4 105 180.1 105.2 179.4 C 105.19 179.38 105.2 179.4 105.2 179.4 L 108.6 179.4 Z M 110.4 174 L 113.9 174 L 113.9 182.4 L 110.4 182.4 L 110.4 174 Z M 110.4 170.5 L 113.9 170.5 L 113.9 172.8 L 110.4 172.8 L 110.4 170.5 Z M 119.7 181.7 C 119.69 181.72 119.7 185.7 119.7 185.7 L 116.1 185.7 C 116.1 185.7 116.14 176.27 116.1 176.3 C 116.1 175.5 116.1 174.7 116.1 174 C 116.1 174 119.6 174 119.6 174 C 119.6 174.1 119.7 174.7 119.7 174.9 C 120.2 174.3 120.9 173.7 122.5 173.7 C 124.6 173.7 126.3 175.5 126.3 178 C 126.3 178 126.3 178 126.3 178 C 126.3 181 124.2 182.6 122.1 182.6 C 120.8 182.6 120.1 182.1 119.7 181.7 Z M 122.7 178.2 C 122.7 178.2 122.7 178.2 122.7 178.2 C 122.7 177 122.2 176.1 121.2 176.1 C 120 176.1 119.6 176.9 119.6 178.2 C 119.6 178.2 119.6 178.2 119.6 178.2 C 119.6 179.4 120.1 180.2 121.1 180.2 C 122.2 180.2 122.7 179.4 122.7 178.2 Z M 131.5 178.9 C 131.5 178.9 131.48 178.93 131.5 178.9 C 131.5 179.8 132 180.4 133 180.4 C 133.8 180.4 134.1 180.1 134.4 179.7 C 134.35 179.74 134.4 179.7 134.4 179.7 L 137.8 179.7 C 137.8 179.7 137.79 179.74 137.8 179.7 C 137.3 181.2 136.2 182.6 133 182.6 C 129.2 182.6 128 180.3 128 178.2 C 128 178.2 128 178.2 128 178.2 C 128 175.8 129.5 173.7 133 173.7 C 136.5 173.7 137.9 176 137.9 178.2 C 137.9 178.3 137.9 178.7 137.9 178.9 C 137.86 178.93 131.5 178.9 131.5 178.9 Z M 134.4 177.1 C 134.4 177.1 134.4 177.13 134.4 177.1 C 134.4 176.5 134.1 175.8 133 175.8 C 131.9 175.8 131.5 176.4 131.5 177.1 C 131.5 177.13 131.5 177.1 131.5 177.1 L 134.4 177.1 Z M 139.2 180.1 C 139.5 179.9 142.8 176.9 143.4 176.4 C 143.42 176.39 139.4 176.4 139.4 176.4 L 139.4 174 L 147.7 174 C 147.7 174 147.7 176.25 147.7 176.2 C 147.4 176.6 144 179.7 143.6 179.9 C 143.62 179.94 148.1 179.9 148.1 179.9 L 147.7 182.4 L 139.2 182.4 C 139.2 182.4 139.16 180.15 139.2 180.1 Z M 169.3 179.7 C 169.3 181 169.4 182.2 169.4 182.4 C 169.4 182.4 166.1 182.4 166.1 182.4 C 166.1 182.2 166 181.7 166 181.5 C 165.5 182.2 164.5 182.6 163.1 182.6 C 160.9 182.6 159.9 181.3 159.9 179.9 C 159.9 179.9 159.9 179.9 159.9 179.9 C 159.9 177.8 161.7 177 164.4 177 C 165 177 165.6 177 165.9 177 C 165.9 177 165.9 176.8 165.9 176.8 C 165.9 176.2 165.7 175.8 164.8 175.8 C 163.9 175.8 163.7 176.1 163.6 176.5 C 163.64 176.51 163.6 176.5 163.6 176.5 L 160.3 176.5 C 160.3 176.5 160.32 176.51 160.3 176.5 C 160.4 175.5 161.1 173.7 164.8 173.7 C 168.7 173.7 169.3 175.5 169.3 176.9 C 169.3 176.9 169.3 179.7 169.3 179.7 Z M 165.9 178.8 C 165.8 178.8 165.3 178.8 164.6 178.8 C 163.6 178.8 163.2 179.1 163.2 179.6 C 163.2 179.6 163.2 179.6 163.2 179.6 C 163.2 180.1 163.6 180.4 164.3 180.4 C 165.3 180.4 165.9 180 165.9 178.9 C 165.9 178.9 165.9 178.8 165.9 178.8 Z M 180.9 179.7 C 180.9 180.6 180.9 181.6 180.9 182.4 C 180.9 182.4 177.4 182.4 177.4 182.4 C 177.4 182.1 177.4 181.8 177.4 181.5 C 176.9 182.1 176.3 182.6 174.6 182.6 C 172.7 182.6 171.4 181.5 171.4 179.2 C 171.41 179.17 171.4 174 171.4 174 L 175 174 C 175 174 174.97 178.7 175 178.7 C 175 179.6 175.3 180.2 176.1 180.2 C 177 180.2 177.3 179.6 177.3 178.1 C 177.34 178.15 177.3 174 177.3 174 L 180.9 174 C 180.9 174 180.9 179.67 180.9 179.7 Z M 186.1 174 C 186.8 175 187.4 175.9 187.6 176.4 C 187.6 176.4 187.6 176.4 187.6 176.4 C 187.9 175.7 188.5 174.8 189 174 C 189.04 173.97 192.8 174 192.8 174 L 189.6 178 L 192.9 182.4 C 192.9 182.4 188.96 182.36 189 182.4 C 188.2 181.2 187.7 180.3 187.4 180 C 187.4 180 187.4 180 187.4 180 C 187.2 180.4 186.7 181.2 185.9 182.4 C 185.89 182.36 182.1 182.4 182.1 182.4 L 185.3 178.2 L 182.1 174 C 182.1 174 186.09 173.97 186.1 174 Z M 213.7 179.4 C 213.7 179.4 213.73 179.38 213.7 179.4 C 213.4 181 212.1 182.6 208.9 182.6 C 205.3 182.6 204 180.4 204 178.1 C 204 178.1 204 178.1 204 178.1 C 204 175.8 205.7 173.7 209 173.7 C 212.8 173.7 213.6 176.1 213.7 177 C 213.68 176.98 213.7 177 213.7 177 L 210.3 177 C 210.3 177 210.3 176.98 210.3 177 C 210.2 176.5 209.9 175.9 209.1 175.9 C 208 175.9 207.6 176.8 207.6 178.1 C 207.6 178.1 207.6 178.1 207.6 178.1 C 207.6 179.5 208 180.4 209 180.4 C 209.8 180.4 210.1 180.1 210.4 179.4 C 210.35 179.38 210.4 179.4 210.4 179.4 L 213.7 179.4 Z M 219.1 170.5 C 219.1 170.5 219.08 174.85 219.1 174.9 C 219.4 174.4 220.2 173.7 221.8 173.7 C 223.9 173.7 225.1 174.9 225.1 177.3 C 225.11 177.26 225.1 182.4 225.1 182.4 L 221.5 182.4 C 221.5 182.4 221.53 177.54 221.5 177.5 C 221.5 176.7 221.3 176.1 220.4 176.1 C 219.5 176.1 219.1 176.9 219.1 178.1 C 219.09 178.11 219.1 182.4 219.1 182.4 L 215.5 182.4 L 215.5 170.5 L 219.1 170.5 Z M 236.4 179.7 C 236.4 181 236.5 182.2 236.5 182.4 C 236.5 182.4 233.2 182.4 233.2 182.4 C 233.2 182.2 233.1 181.7 233.1 181.5 C 232.6 182.2 231.6 182.6 230.2 182.6 C 228 182.6 226.9 181.3 226.9 179.9 C 226.9 179.9 226.9 179.9 226.9 179.9 C 226.9 177.8 228.8 177 231.5 177 C 232.1 177 232.7 177 233 177 C 233 177 233 176.8 233 176.8 C 233 176.2 232.8 175.8 231.9 175.8 C 231 175.8 230.8 176.1 230.7 176.5 C 230.73 176.51 230.7 176.5 230.7 176.5 L 227.4 176.5 C 227.4 176.5 227.41 176.51 227.4 176.5 C 227.5 175.5 228.2 173.7 231.9 173.7 C 235.8 173.7 236.4 175.5 236.4 176.9 C 236.4 176.9 236.4 179.7 236.4 179.7 Z M 233 178.8 C 232.9 178.8 232.4 178.8 231.7 178.8 C 230.7 178.8 230.3 179.1 230.3 179.6 C 230.3 179.6 230.3 179.6 230.3 179.6 C 230.3 180.1 230.7 180.4 231.4 180.4 C 232.4 180.4 233 180 233 178.9 C 233 178.9 233 178.8 233 178.8 Z M 238.6 182.4 L 238.6 170.5 L 242.2 170.5 L 242.2 182.4 L 238.6 182.4 Z M 244.4 182.4 L 244.4 170.5 L 247.9 170.5 L 247.9 182.4 L 244.4 182.4 Z M 253.3 178.9 C 253.3 178.9 253.35 178.93 253.3 178.9 C 253.4 179.8 253.9 180.4 254.9 180.4 C 255.7 180.4 256 180.1 256.2 179.7 C 256.22 179.74 256.2 179.7 256.2 179.7 L 259.7 179.7 C 259.7 179.7 259.65 179.74 259.7 179.7 C 259.2 181.2 258 182.6 254.8 182.6 C 251 182.6 249.8 180.3 249.8 178.2 C 249.8 178.2 249.8 178.2 249.8 178.2 C 249.8 175.8 251.4 173.7 254.8 173.7 C 258.4 173.7 259.7 176 259.7 178.2 C 259.7 178.3 259.7 178.7 259.7 178.9 C 259.73 178.93 253.3 178.9 253.3 178.9 Z M 256.3 177.1 C 256.3 177.1 256.27 177.13 256.3 177.1 C 256.2 176.5 256 175.8 254.9 175.8 C 253.8 175.8 253.4 176.4 253.4 177.1 C 253.37 177.13 253.4 177.1 253.4 177.1 L 256.3 177.1 Z M 261.6 176.2 C 261.6 175.4 261.6 174.5 261.6 174 C 261.6 174 265.1 174 265.1 174 C 265.1 174.2 265.1 174.7 265.2 174.9 C 265.5 174.4 266.3 173.7 267.9 173.7 C 270 173.7 271.2 175 271.2 177.2 C 271.2 177.18 271.2 182.4 271.2 182.4 L 267.6 182.4 C 267.6 182.4 267.61 177.53 267.6 177.5 C 267.6 176.8 267.3 176.1 266.5 176.1 C 265.6 176.1 265.2 176.7 265.2 178 C 265.18 177.98 265.2 182.4 265.2 182.4 L 261.6 182.4 C 261.6 182.4 261.61 176.15 261.6 176.2 Z M 283.2 181.4 C 283.2 184.5 281.7 185.9 278 185.9 C 273.9 185.9 273.3 184 273.1 183 C 273.12 182.97 273.1 183 273.1 183 L 276.6 183 C 276.6 183 276.63 182.97 276.6 183 C 276.8 183.4 277.1 183.8 278.1 183.8 C 279.3 183.8 279.7 183 279.7 181.8 C 279.7 181.8 279.7 181.3 279.7 181.3 C 279.2 181.9 278.6 182.4 277 182.4 C 274.6 182.4 273.1 180.5 273.1 178.2 C 273.1 178.2 273.1 178.2 273.1 178.2 C 273.1 175.6 274.9 173.7 277.2 173.7 C 278.9 173.7 279.5 174.3 279.7 174.8 C 279.7 174.5 279.7 174.2 279.8 174 C 279.8 174 283.3 174 283.3 174 C 283.2 174.6 283.2 175.5 283.2 176.5 C 283.2 176.5 283.2 181.4 283.2 181.4 Z M 276.7 178.1 C 276.7 178.1 276.7 178.1 276.7 178.1 C 276.7 179.1 277.2 180 278.2 180 C 279.3 180 279.8 179.3 279.8 178.1 C 279.8 178.1 279.8 178.1 279.8 178.1 C 279.8 176.9 279.4 176.1 278.3 176.1 C 277.3 176.1 276.7 176.9 276.7 178.1 Z M 288.6 178.9 C 288.6 178.9 288.62 178.93 288.6 178.9 C 288.7 179.8 289.2 180.4 290.1 180.4 C 290.9 180.4 291.3 180.1 291.5 179.7 C 291.5 179.74 291.5 179.7 291.5 179.7 L 294.9 179.7 C 294.9 179.7 294.93 179.74 294.9 179.7 C 294.5 181.2 293.3 182.6 290.1 182.6 C 286.3 182.6 285.1 180.3 285.1 178.2 C 285.1 178.2 285.1 178.2 285.1 178.2 C 285.1 175.8 286.6 173.7 290.1 173.7 C 293.7 173.7 295 176 295 178.2 C 295 178.3 295 178.7 295 178.9 C 295.01 178.93 288.6 178.9 288.6 178.9 Z M 291.5 177.1 C 291.5 177.1 291.55 177.13 291.5 177.1 C 291.5 176.5 291.2 175.8 290.1 175.8 C 289.1 175.8 288.7 176.4 288.6 177.1 C 288.64 177.13 288.6 177.1 288.6 177.1 L 291.5 177.1 Z M 299.8 179.8 C 299.8 179.8 299.81 179.78 299.8 179.8 C 300 180.2 300.4 180.5 301.2 180.5 C 302 180.5 302.2 180.3 302.2 180 C 302.2 179.6 301.9 179.5 300.6 179.3 C 297.2 178.8 296.7 177.6 296.7 176.5 C 296.7 175.2 297.8 173.7 300.9 173.7 C 304.2 173.7 305.3 175.2 305.4 176.4 C 305.4 176.42 305.4 176.4 305.4 176.4 L 302.2 176.4 C 302.2 176.4 302.2 176.42 302.2 176.4 C 302.1 176.1 301.8 175.7 301 175.7 C 300.2 175.7 300.1 176 300.1 176.2 C 300.1 176.5 300.4 176.7 301.7 176.9 C 305.1 177.4 305.7 178.5 305.7 179.7 C 305.7 181.2 304.6 182.6 301.2 182.6 C 298.5 182.6 296.8 181.5 296.5 179.8 C 296.51 179.78 296.5 179.8 296.5 179.8 L 299.8 179.8 Z M 318.3 171.1 C 318.3 171.1 325.25 171.11 325.2 171.1 C 328.1 171.1 329.3 172.5 329.3 174 C 329.3 174 329.3 174 329.3 174 C 329.3 175.3 328.5 176.1 327.6 176.4 C 328.7 176.8 329.8 177.6 329.8 179 C 329.8 179 329.8 179 329.8 179 C 329.8 181 328.3 182.4 325.2 182.4 C 325.17 182.36 318.3 182.4 318.3 182.4 L 318.3 171.1 Z M 324.3 175.4 C 325.4 175.4 325.7 175 325.7 174.4 C 325.7 174.4 325.7 174.4 325.7 174.4 C 325.7 173.8 325.2 173.4 324.3 173.4 C 324.35 173.44 321.9 173.4 321.9 173.4 L 321.9 175.4 C 321.9 175.4 324.34 175.42 324.3 175.4 Z M 321.9 180 C 321.9 180 324.39 180.04 324.4 180 C 325.4 180 325.9 179.7 325.9 178.8 C 325.9 178.8 325.9 178.8 325.9 178.8 C 325.9 178.2 325.5 177.7 324.5 177.7 C 324.47 177.73 321.9 177.7 321.9 177.7 L 321.9 180 Z M 335.9 171.1 L 335.9 182.4 L 332.2 182.4 L 332.2 171.1 L 335.9 171.1 Z M 338.9 182.4 L 338.9 171.1 C 338.9 171.1 343.18 171.11 343.2 171.1 C 345.7 175.1 346.5 176.6 347.2 178 C 347.2 178 347.3 178 347.3 178 C 347.2 177 347.2 175 347.2 173.1 C 347.21 173.09 347.2 171.1 347.2 171.1 L 350.5 171.1 L 350.5 182.4 C 350.5 182.4 346.47 182.36 346.5 182.4 C 345.6 180.8 342.8 176 342.2 174.6 C 342.2 174.6 342.1 174.6 342.1 174.6 C 342.2 175.9 342.2 177.4 342.2 179.6 C 342.22 179.62 342.2 182.4 342.2 182.4 L 338.9 182.4 Z M 365.2 182.4 C 365.2 182.4 362.68 182.36 362.7 182.4 C 362.6 182.1 362.5 181.7 362.5 181.3 C 361.7 182.1 360.8 182.6 358.7 182.6 C 355 182.6 353 180.1 353 176.8 C 353 176.8 353 176.8 353 176.8 C 353 173.6 355 170.8 359.4 170.8 C 363 170.8 364.9 172.7 365.2 174.5 C 365.21 174.55 365.2 174.5 365.2 174.5 L 361.5 174.5 C 361.5 174.5 361.54 174.55 361.5 174.5 C 361.4 174 360.9 173.3 359.4 173.3 C 357.5 173.3 356.8 174.8 356.8 176.6 C 356.8 176.6 356.8 176.6 356.8 176.6 C 356.8 178.6 357.6 180.2 359.5 180.2 C 361.1 180.2 361.7 179.2 361.7 178.4 C 361.67 178.38 361.7 178.3 361.7 178.3 L 359.5 178.3 L 359.5 175.8 L 365.2 175.8 L 365.2 182.4 Z M 377.7 177.9 L 371.6 177.9 L 371.6 179.8 L 378.4 179.8 L 377.9 182.4 L 368 182.4 L 368 171.1 L 378 171.1 L 378 173.7 L 371.6 173.7 L 371.6 175.3 L 377.7 175.3 L 377.7 177.9 Z M 385.4 176.9 L 385.4 179.6 L 379.7 179.6 L 379.7 176.9 L 385.4 176.9 Z M 388.1 171.1 L 397.9 171.1 L 397.9 173.7 L 391.7 173.7 L 391.7 175.7 L 397.5 175.7 L 397.5 178.3 L 391.7 178.3 L 391.7 182.4 L 388.1 182.4 L 388.1 171.1 Z M 403.6 171.1 L 403.6 182.4 L 399.9 182.4 L 399.9 171.1 L 403.6 171.1 Z M 409.2 173.7 L 405.5 173.7 L 405.5 171.1 L 416.5 171.1 L 416.5 173.7 L 412.9 173.7 L 412.9 182.4 L 409.2 182.4 L 409.2 173.7 Z M 428.5 170.5 L 432 170.5 C 432 170.5 432.05 174.75 432 174.8 C 432.5 174.3 433.2 173.7 434.7 173.7 C 436.9 173.7 438.7 175.4 438.7 178 C 438.7 178 438.7 178 438.7 178 C 438.7 180.9 436.8 182.6 434.5 182.6 C 433 182.6 432.3 182.1 431.9 181.5 C 431.9 181.7 431.8 182.2 431.8 182.4 C 431.8 182.4 428.5 182.4 428.5 182.4 C 428.5 181.3 428.5 180.5 428.5 179.6 C 428.49 179.62 428.5 170.5 428.5 170.5 Z M 435.1 178.1 C 435.1 178.1 435.1 178.1 435.1 178.1 C 435.1 177 434.6 176.1 433.5 176.1 C 432.4 176.1 432 176.9 432 178.1 C 432 178.1 432 178.1 432 178.1 C 432 179.2 432.4 180.2 433.5 180.2 C 434.6 180.2 435.1 179.3 435.1 178.1 Z M 443.2 174 C 444.3 177.2 444.7 179.2 444.9 179.8 C 444.9 179.8 444.9 179.8 444.9 179.8 C 445.1 178.9 445.6 176.5 446.4 174 C 446.4 173.97 450 174 450 174 C 450 174 447.25 181.35 447.2 181.3 C 446 184.8 445.3 185.9 442.3 185.9 C 441.7 185.9 441 185.9 440.7 185.8 C 440.7 185.8 440.7 183.3 440.7 183.3 C 441 183.4 441.2 183.4 441.5 183.4 C 442.4 183.4 442.6 183.1 442.9 182.6 C 442.92 182.59 439.3 174 439.3 174 C 439.3 174 443.17 173.97 443.2 174 Z " stroke="none" fill="#141414"/>  </g>  <g id="Polygon9992">    <path d="M 2.6 132.4 C 2.56 132.41 2.6 137.3 2.6 137.3 L 1.4 137.3 C 1.4 137.3 1.35 127.69 1.4 127.7 C 1.4 127 1.4 126.3 1.3 125.7 C 1.3 125.7 2.5 125.7 2.5 125.7 C 2.5 125.9 2.6 126.5 2.6 127.2 C 3 126.3 4 125.4 5.7 125.4 C 7.9 125.4 9.5 127.2 9.5 129.6 C 9.5 129.6 9.5 129.6 9.5 129.6 C 9.5 132.1 7.7 133.9 5.5 133.9 C 3.7 133.9 3 133.2 2.6 132.4 Z M 8.2 129.6 C 8.2 129.6 8.2 129.6 8.2 129.6 C 8.2 128.1 7.4 126.5 5.4 126.5 C 3.4 126.5 2.5 127.9 2.5 129.7 C 2.5 129.7 2.5 129.7 2.5 129.7 C 2.5 131.5 3.5 132.9 5.4 132.9 C 7.3 132.9 8.2 131.3 8.2 129.6 Z M 19.7 129.7 C 19.7 129.7 19.7 129.7 19.7 129.7 C 19.7 131.9 18.4 133.9 15.5 133.9 C 12.9 133.9 11.4 131.9 11.4 129.7 C 11.4 129.7 11.4 129.7 11.4 129.7 C 11.4 127.4 13 125.4 15.6 125.4 C 18.3 125.4 19.7 127.5 19.7 129.7 Z M 12.6 129.7 C 12.6 129.7 12.6 129.7 12.6 129.7 C 12.6 131.3 13.7 132.9 15.6 132.9 C 17.5 132.9 18.5 131.4 18.5 129.7 C 18.5 129.7 18.5 129.7 18.5 129.7 C 18.5 128 17.4 126.5 15.5 126.5 C 13.6 126.5 12.6 128 12.6 129.7 Z M 22.1 127.9 C 22.1 127.1 22.1 126.4 22.1 125.7 C 22.1 125.7 23.3 125.7 23.3 125.7 C 23.3 125.9 23.3 126.7 23.3 127.5 C 23.9 126.3 25.1 125.4 26.6 125.4 C 26.6 125.4 26.6 126.6 26.6 126.6 C 24.8 126.6 23.3 127.8 23.3 130.2 C 23.32 130.24 23.3 133.7 23.3 133.7 L 22.1 133.7 C 22.1 133.7 22.11 127.86 22.1 127.9 Z M 28 125.7 L 29.7 125.7 L 29.7 123 L 30.9 123 L 30.9 125.7 L 33.1 125.7 L 33.1 126.7 L 30.9 126.7 C 30.9 126.7 30.89 131.38 30.9 131.4 C 30.9 132.4 31.2 132.8 32.1 132.8 C 32.3 132.8 32.6 132.8 32.9 132.7 C 32.9 132.7 32.9 133.7 32.9 133.7 C 32.5 133.8 32.2 133.8 31.7 133.8 C 30.2 133.8 29.7 133.1 29.7 131.5 C 29.68 131.5 29.7 126.7 29.7 126.7 L 28 126.7 L 28 125.7 Z M 35.5 130 C 35.5 130 35.51 129.97 35.5 130 C 35.6 131.7 36.7 132.9 38.5 132.9 C 39.8 132.9 40.6 132.3 41.1 131.5 C 41.08 131.48 41.1 131.5 41.1 131.5 L 42.3 131.5 C 42.3 131.5 42.29 131.48 42.3 131.5 C 41.9 132.6 40.8 133.9 38.4 133.9 C 35.6 133.9 34.3 131.9 34.3 129.7 C 34.3 129.7 34.3 129.7 34.3 129.7 C 34.3 127.2 35.9 125.4 38.4 125.4 C 41.4 125.4 42.4 127.7 42.4 129.6 C 42.4 129.7 42.4 129.8 42.4 130 C 42.41 129.97 35.5 130 35.5 130 Z M 41.1 129 C 41.1 129 41.13 129.04 41.1 129 C 41.1 128 40.5 126.4 38.3 126.4 C 36.6 126.4 35.7 127.6 35.5 129 C 35.55 129.04 35.5 129 35.5 129 L 41.1 129 Z M 41 121.5 L 38.5 124.1 L 37.3 124.1 L 39.5 121.5 L 41 121.5 Z M 45.5 130 C 45.5 130 45.47 129.97 45.5 130 C 45.6 131.7 46.7 132.9 48.5 132.9 C 49.8 132.9 50.6 132.3 51 131.5 C 51.04 131.48 51 131.5 51 131.5 L 52.3 131.5 C 52.3 131.5 52.25 131.48 52.3 131.5 C 51.8 132.6 50.7 133.9 48.4 133.9 C 45.6 133.9 44.3 131.9 44.3 129.7 C 44.3 129.7 44.3 129.7 44.3 129.7 C 44.3 127.2 45.9 125.4 48.3 125.4 C 51.4 125.4 52.4 127.7 52.4 129.6 C 52.4 129.7 52.4 129.8 52.4 130 C 52.37 129.97 45.5 130 45.5 130 Z M 51.1 129 C 51.1 129 51.09 129.04 51.1 129 C 51 128 50.5 126.4 48.3 126.4 C 46.6 126.4 45.7 127.6 45.5 129 C 45.5 129.04 45.5 129 45.5 129 L 51.1 129 Z M 64.2 132.4 C 64.19 132.41 64.2 137.3 64.2 137.3 L 63 137.3 C 63 137.3 62.98 127.69 63 127.7 C 63 127 63 126.3 63 125.7 C 63 125.7 64.1 125.7 64.1 125.7 C 64.2 125.9 64.2 126.5 64.2 127.2 C 64.7 126.3 65.6 125.4 67.4 125.4 C 69.6 125.4 71.1 127.2 71.1 129.6 C 71.1 129.6 71.1 129.6 71.1 129.6 C 71.1 132.1 69.4 133.9 67.1 133.9 C 65.4 133.9 64.6 133.2 64.2 132.4 Z M 69.9 129.6 C 69.9 129.6 69.9 129.6 69.9 129.6 C 69.9 128.1 69 126.5 67 126.5 C 65 126.5 64.2 127.9 64.2 129.7 C 64.2 129.7 64.2 129.7 64.2 129.7 C 64.2 131.5 65.1 132.9 67 132.9 C 68.9 132.9 69.9 131.3 69.9 129.6 Z M 80.3 131.8 C 80.3 132.5 80.4 133.5 80.4 133.7 C 80.4 133.7 79.2 133.7 79.2 133.7 C 79.2 133.4 79.1 132.7 79.1 132.5 C 78.7 133.3 77.8 133.9 76.1 133.9 C 73.8 133.9 72.9 132.6 72.9 131.4 C 72.9 131.4 72.9 131.4 72.9 131.4 C 72.9 129.3 74.8 128.8 77.1 128.8 C 78.2 128.8 78.9 128.8 79.1 128.8 C 79.1 128.8 79.1 128.3 79.1 128.3 C 79.1 127.3 78.7 126.4 76.9 126.4 C 75.2 126.4 74.8 127.2 74.6 128 C 74.61 128 74.6 128 74.6 128 L 73.4 128 C 73.4 128 73.4 128 73.4 128 C 73.5 126.9 74.2 125.4 76.9 125.4 C 79.6 125.4 80.3 126.8 80.3 128.1 C 80.3 128.1 80.3 131.8 80.3 131.8 Z M 79.1 129.7 C 78.9 129.7 78.3 129.7 77.1 129.7 C 75.1 129.7 74.1 130.1 74.1 131.3 C 74.1 131.3 74.1 131.3 74.1 131.3 C 74.1 132.2 74.8 132.9 76.2 132.9 C 78.6 132.9 79.1 131.5 79.1 130.1 C 79.1 130.1 79.1 129.7 79.1 129.7 Z M 83.2 127.9 C 83.2 127.1 83.2 126.4 83.2 125.7 C 83.2 125.7 84.4 125.7 84.4 125.7 C 84.4 125.9 84.4 126.7 84.4 127.5 C 85 126.3 86.2 125.4 87.7 125.4 C 87.7 125.4 87.7 126.6 87.7 126.6 C 85.9 126.6 84.4 127.8 84.4 130.2 C 84.43 130.24 84.4 133.7 84.4 133.7 L 83.2 133.7 C 83.2 133.7 83.22 127.86 83.2 127.9 Z M 104.3 132.4 C 103.8 133.2 103 133.9 101.2 133.9 C 99 133.9 97.3 132.2 97.3 129.8 C 97.3 129.8 97.3 129.8 97.3 129.8 C 97.3 127.1 99.3 125.4 101.3 125.4 C 103.3 125.4 104.1 126.5 104.3 126.9 C 104.3 126.3 104.3 125.9 104.3 125.7 C 104.3 125.7 105.5 125.7 105.5 125.7 C 105.5 126.3 105.5 127.2 105.5 127.9 C 105.49 127.95 105.5 137.3 105.5 137.3 L 104.3 137.3 C 104.3 137.3 104.28 132.37 104.3 132.4 Z M 98.6 129.7 C 98.6 129.7 98.6 129.7 98.6 129.7 C 98.6 131.5 99.7 132.9 101.4 132.9 C 103.3 132.9 104.3 131.8 104.3 129.7 C 104.3 129.7 104.3 129.7 104.3 129.7 C 104.3 127.8 103.4 126.5 101.5 126.5 C 99.6 126.5 98.6 128 98.6 129.7 Z M 115.6 131.4 C 115.6 132.2 115.6 132.9 115.6 133.7 C 115.6 133.7 114.4 133.7 114.4 133.7 C 114.4 133.5 114.4 132.9 114.4 132.2 C 113.9 133.2 113.2 133.9 111.4 133.9 C 109.7 133.9 108.4 133 108.4 130.7 C 108.38 130.69 108.4 125.7 108.4 125.7 L 109.6 125.7 C 109.6 125.7 109.59 130.45 109.6 130.5 C 109.6 131.7 110.1 132.9 111.7 132.9 C 113.5 132.9 114.3 131.8 114.3 129.3 C 114.35 129.29 114.3 125.7 114.3 125.7 L 115.6 125.7 C 115.6 125.7 115.56 131.37 115.6 131.4 Z M 119.2 130 C 119.2 130 119.15 129.97 119.2 130 C 119.2 131.7 120.4 132.9 122.1 132.9 C 123.5 132.9 124.2 132.3 124.7 131.5 C 124.72 131.48 124.7 131.5 124.7 131.5 L 125.9 131.5 C 125.9 131.5 125.93 131.48 125.9 131.5 C 125.5 132.6 124.4 133.9 122 133.9 C 119.3 133.9 117.9 131.9 117.9 129.7 C 117.9 129.7 117.9 129.7 117.9 129.7 C 117.9 127.2 119.6 125.4 122 125.4 C 125 125.4 126.1 127.7 126.1 129.6 C 126.1 129.7 126.1 129.8 126.1 130 C 126.05 129.97 119.2 130 119.2 130 Z M 124.8 129 C 124.8 129 124.77 129.04 124.8 129 C 124.7 128 124.1 126.4 122 126.4 C 120.2 126.4 119.3 127.6 119.2 129 C 119.18 129.04 119.2 129 119.2 129 L 124.8 129 Z M 128.4 133.7 L 128.4 121.7 L 129.6 121.7 L 129.6 133.7 L 128.4 133.7 Z M 139 132.4 C 138.5 133.2 137.7 133.9 135.9 133.9 C 133.7 133.9 132 132.2 132 129.8 C 132 129.8 132 129.8 132 129.8 C 132 127.1 134 125.4 136 125.4 C 138 125.4 138.8 126.5 139 126.9 C 139 126.3 139 125.9 139 125.7 C 139 125.7 140.2 125.7 140.2 125.7 C 140.2 126.3 140.2 127.2 140.2 127.9 C 140.19 127.95 140.2 137.3 140.2 137.3 L 139 137.3 C 139 137.3 138.98 132.37 139 132.4 Z M 133.3 129.7 C 133.3 129.7 133.3 129.7 133.3 129.7 C 133.3 131.5 134.4 132.9 136.1 132.9 C 138 132.9 139 131.8 139 129.7 C 139 129.7 139 129.7 139 129.7 C 139 127.8 138.1 126.5 136.2 126.5 C 134.3 126.5 133.3 128 133.3 129.7 Z M 150.3 131.4 C 150.3 132.2 150.3 132.9 150.3 133.7 C 150.3 133.7 149.1 133.7 149.1 133.7 C 149.1 133.5 149.1 132.9 149.1 132.2 C 148.7 133.2 147.9 133.9 146.1 133.9 C 144.4 133.9 143.1 133 143.1 130.7 C 143.08 130.69 143.1 125.7 143.1 125.7 L 144.3 125.7 C 144.3 125.7 144.29 130.45 144.3 130.5 C 144.3 131.7 144.8 132.9 146.4 132.9 C 148.2 132.9 149.1 131.8 149.1 129.3 C 149.05 129.29 149.1 125.7 149.1 125.7 L 150.3 125.7 C 150.3 125.7 150.26 131.37 150.3 131.4 Z M 153.9 130 C 153.9 130 153.85 129.97 153.9 130 C 153.9 131.7 155.1 132.9 156.8 132.9 C 158.2 132.9 158.9 132.3 159.4 131.5 C 159.42 131.48 159.4 131.5 159.4 131.5 L 160.6 131.5 C 160.6 131.5 160.63 131.48 160.6 131.5 C 160.2 132.6 159.1 133.9 156.7 133.9 C 154 133.9 152.6 131.9 152.6 129.7 C 152.6 129.7 152.6 129.7 152.6 129.7 C 152.6 127.2 154.3 125.4 156.7 125.4 C 159.7 125.4 160.8 127.7 160.8 129.6 C 160.8 129.7 160.8 129.8 160.8 130 C 160.75 129.97 153.9 130 153.9 130 Z M 159.5 129 C 159.5 129 159.47 129.04 159.5 129 C 159.4 128 158.8 126.4 156.7 126.4 C 154.9 126.4 154 127.6 153.9 129 C 153.88 129.04 153.9 129 153.9 129 L 159.5 129 Z M 178.7 131.3 C 178.7 131.3 178.75 131.26 178.7 131.3 C 178.3 132.7 177.1 133.9 174.9 133.9 C 172.1 133.9 170.7 132 170.7 129.7 C 170.7 129.7 170.7 129.7 170.7 129.7 C 170.7 127.4 172.3 125.4 174.9 125.4 C 177.5 125.4 178.5 127.1 178.7 128.2 C 178.74 128.19 178.7 128.2 178.7 128.2 L 177.5 128.2 C 177.5 128.2 177.53 128.19 177.5 128.2 C 177.2 127.3 176.5 126.5 174.9 126.5 C 173.1 126.5 172 127.8 172 129.7 C 172 129.7 172 129.7 172 129.7 C 172 131.5 173 132.9 174.9 132.9 C 176.3 132.9 177.1 132.2 177.5 131.3 C 177.54 131.26 177.5 131.3 177.5 131.3 L 178.7 131.3 Z M 182.2 121.7 C 182.2 121.7 182.25 127.25 182.2 127.2 C 182.5 126.6 183.3 125.4 185.3 125.4 C 187.1 125.4 188.3 126.6 188.3 128.9 C 188.34 128.85 188.3 133.7 188.3 133.7 L 187.1 133.7 C 187.1 133.7 187.12 129.06 187.1 129.1 C 187.1 127.6 186.6 126.5 185 126.5 C 183.1 126.5 182.3 128 182.3 129.7 C 182.25 129.74 182.3 133.7 182.3 133.7 L 181 133.7 L 181 121.7 L 182.2 121.7 Z M 199.1 129.7 C 199.1 129.7 199.1 129.7 199.1 129.7 C 199.1 131.9 197.7 133.9 194.8 133.9 C 192.2 133.9 190.7 131.9 190.7 129.7 C 190.7 129.7 190.7 129.7 190.7 129.7 C 190.7 127.4 192.3 125.4 194.9 125.4 C 197.6 125.4 199.1 127.5 199.1 129.7 Z M 191.9 129.7 C 191.9 129.7 191.9 129.7 191.9 129.7 C 191.9 131.3 193 132.9 194.9 132.9 C 196.9 132.9 197.8 131.4 197.8 129.7 C 197.8 129.7 197.8 129.7 197.8 129.7 C 197.8 128 196.7 126.5 194.8 126.5 C 192.9 126.5 191.9 128 191.9 129.7 Z M 202 131.3 C 202 131.3 201.99 131.29 202 131.3 C 202.3 132.4 203.2 133 204.8 133 C 206.4 133 207.1 132.4 207.1 131.5 C 207.1 130.8 206.6 130.3 204.5 130 C 201.7 129.7 201.1 128.8 201.1 127.8 C 201.1 126.8 202 125.4 204.5 125.4 C 207.2 125.4 208 126.9 208 127.8 C 208.03 127.82 208 127.8 208 127.8 L 206.8 127.8 C 206.8 127.8 206.8 127.82 206.8 127.8 C 206.7 127.3 206.3 126.4 204.4 126.4 C 202.7 126.4 202.4 127.1 202.4 127.7 C 202.4 128.3 202.8 128.7 204.7 129 C 207.7 129.4 208.3 130.2 208.3 131.5 C 208.3 132.9 207.2 133.9 204.7 133.9 C 202.3 133.9 201 132.9 200.8 131.3 C 200.76 131.29 200.8 131.3 200.8 131.3 L 202 131.3 Z M 211.3 130 C 211.3 130 211.32 129.97 211.3 130 C 211.4 131.7 212.5 132.9 214.3 132.9 C 215.6 132.9 216.4 132.3 216.9 131.5 C 216.89 131.48 216.9 131.5 216.9 131.5 L 218.1 131.5 C 218.1 131.5 218.09 131.48 218.1 131.5 C 217.7 132.6 216.6 133.9 214.2 133.9 C 211.4 133.9 210.1 131.9 210.1 129.7 C 210.1 129.7 210.1 129.7 210.1 129.7 C 210.1 127.2 211.7 125.4 214.2 125.4 C 217.2 125.4 218.2 127.7 218.2 129.6 C 218.2 129.7 218.2 129.8 218.2 130 C 218.21 129.97 211.3 130 211.3 130 Z M 216.9 129 C 216.9 129 216.94 129.04 216.9 129 C 216.9 128 216.3 126.4 214.1 126.4 C 212.4 126.4 211.5 127.6 211.3 129 C 211.35 129.04 211.3 129 211.3 129 L 216.9 129 Z M 236.3 121.7 C 236.3 121.7 236.34 131.36 236.3 131.4 C 236.3 132.1 236.3 132.9 236.4 133.7 C 236.4 133.7 235.2 133.7 235.2 133.7 C 235.1 133.3 235.1 132.8 235.1 132.4 C 234.7 133.1 234 133.9 232.1 133.9 C 229.7 133.9 228.2 132.2 228.2 129.8 C 228.2 129.8 228.2 129.8 228.2 129.8 C 228.2 127.1 230.1 125.4 232.3 125.4 C 234.2 125.4 234.9 126.4 235.1 126.8 C 235.13 126.81 235.1 121.7 235.1 121.7 L 236.3 121.7 Z M 229.4 129.7 C 229.4 129.7 229.4 129.7 229.4 129.7 C 229.4 131.3 230.4 132.9 232.3 132.9 C 234.4 132.9 235.2 131.6 235.2 129.7 C 235.2 129.7 235.2 129.7 235.2 129.7 C 235.2 127.8 234.5 126.5 232.3 126.5 C 230.4 126.5 229.4 128.1 229.4 129.7 Z M 239.9 130 C 239.9 130 239.93 129.97 239.9 130 C 240 131.7 241.2 132.9 242.9 132.9 C 244.3 132.9 245 132.3 245.5 131.5 C 245.5 131.48 245.5 131.5 245.5 131.5 L 246.7 131.5 C 246.7 131.5 246.71 131.48 246.7 131.5 C 246.3 132.6 245.2 133.9 242.8 133.9 C 240.1 133.9 238.7 131.9 238.7 129.7 C 238.7 129.7 238.7 129.7 238.7 129.7 C 238.7 127.2 240.4 125.4 242.8 125.4 C 245.8 125.4 246.8 127.7 246.8 129.6 C 246.8 129.7 246.8 129.8 246.8 130 C 246.83 129.97 239.9 130 239.9 130 Z M 245.6 129 C 245.6 129 245.55 129.04 245.6 129 C 245.5 128 244.9 126.4 242.8 126.4 C 241 126.4 240.1 127.6 240 129 C 239.96 129.04 240 129 240 129 L 245.6 129 Z M 258.7 132.4 C 258.65 132.41 258.7 137.3 258.7 137.3 L 257.4 137.3 C 257.4 137.3 257.44 127.69 257.4 127.7 C 257.4 127 257.4 126.3 257.4 125.7 C 257.4 125.7 258.6 125.7 258.6 125.7 C 258.6 125.9 258.7 126.5 258.7 127.2 C 259.1 126.3 260.1 125.4 261.8 125.4 C 264 125.4 265.6 127.2 265.6 129.6 C 265.6 129.6 265.6 129.6 265.6 129.6 C 265.6 132.1 263.8 133.9 261.6 133.9 C 259.8 133.9 259.1 133.2 258.7 132.4 Z M 264.3 129.6 C 264.3 129.6 264.3 129.6 264.3 129.6 C 264.3 128.1 263.5 126.5 261.5 126.5 C 259.5 126.5 258.6 127.9 258.6 129.7 C 258.6 129.7 258.6 129.7 258.6 129.7 C 258.6 131.5 259.6 132.9 261.5 132.9 C 263.4 132.9 264.3 131.3 264.3 129.6 Z M 268 133.7 L 268 121.7 L 269.2 121.7 L 269.2 133.7 L 268 133.7 Z M 279.2 131.4 C 279.2 132.2 279.2 132.9 279.3 133.7 C 279.3 133.7 278.1 133.7 278.1 133.7 C 278.1 133.5 278 132.9 278 132.2 C 277.6 133.2 276.9 133.9 275.1 133.9 C 273.4 133.9 272.1 133 272.1 130.7 C 272.06 130.69 272.1 125.7 272.1 125.7 L 273.3 125.7 C 273.3 125.7 273.27 130.45 273.3 130.5 C 273.3 131.7 273.8 132.9 275.3 132.9 C 277.2 132.9 278 131.8 278 129.3 C 278.04 129.29 278 125.7 278 125.7 L 279.2 125.7 C 279.2 125.7 279.24 131.37 279.2 131.4 Z M 282.7 131.3 C 282.7 131.3 282.72 131.29 282.7 131.3 C 283 132.4 283.9 133 285.5 133 C 287.2 133 287.8 132.4 287.8 131.5 C 287.8 130.8 287.4 130.3 285.2 130 C 282.4 129.7 281.9 128.8 281.9 127.8 C 281.9 126.8 282.7 125.4 285.2 125.4 C 288 125.4 288.7 126.9 288.8 127.8 C 288.76 127.82 288.8 127.8 288.8 127.8 L 287.5 127.8 C 287.5 127.8 287.53 127.82 287.5 127.8 C 287.4 127.3 287.1 126.4 285.1 126.4 C 283.5 126.4 283.1 127.1 283.1 127.7 C 283.1 128.3 283.5 128.7 285.5 129 C 288.4 129.4 289 130.2 289 131.5 C 289 132.9 287.9 133.9 285.4 133.9 C 283 133.9 281.8 132.9 281.5 131.3 C 281.48 131.29 281.5 131.3 281.5 131.3 L 282.7 131.3 Z M 300.2 133.7 L 300.2 126.7 L 298.6 126.7 L 298.6 125.7 L 300.2 125.7 C 300.2 125.7 300.15 124.47 300.2 124.5 C 300.2 122.7 300.9 121.5 302.7 121.5 C 303.1 121.5 303.4 121.6 303.6 121.6 C 303.6 121.6 303.6 122.7 303.6 122.7 C 303.4 122.6 303.1 122.6 302.9 122.6 C 301.7 122.6 301.4 123.1 301.4 124.6 C 301.37 124.57 301.4 125.7 301.4 125.7 L 303.3 125.7 L 303.3 126.7 L 301.4 126.7 L 301.4 133.7 L 300.2 133.7 Z M 312.7 129.7 C 312.7 129.7 312.7 129.7 312.7 129.7 C 312.7 131.9 311.4 133.9 308.5 133.9 C 305.8 133.9 304.3 131.9 304.3 129.7 C 304.3 129.7 304.3 129.7 304.3 129.7 C 304.3 127.4 305.9 125.4 308.6 125.4 C 311.2 125.4 312.7 127.5 312.7 129.7 Z M 305.6 129.7 C 305.6 129.7 305.6 129.7 305.6 129.7 C 305.6 131.3 306.6 132.9 308.5 132.9 C 310.5 132.9 311.5 131.4 311.5 129.7 C 311.5 129.7 311.5 129.7 311.5 129.7 C 311.5 128 310.4 126.5 308.5 126.5 C 306.5 126.5 305.6 128 305.6 129.7 Z M 315.1 127.9 C 315.1 127.1 315.1 126.4 315.1 125.7 C 315.1 125.7 316.2 125.7 316.2 125.7 C 316.3 125.9 316.3 126.7 316.3 127.5 C 316.8 126.3 318.1 125.4 319.6 125.4 C 319.6 125.4 319.6 126.6 319.6 126.6 C 317.7 126.6 316.3 127.8 316.3 130.2 C 316.3 130.24 316.3 133.7 316.3 133.7 L 315.1 133.7 C 315.1 133.7 315.09 127.86 315.1 127.9 Z M 321 125.7 L 322.7 125.7 L 322.7 123 L 323.9 123 L 323.9 125.7 L 326 125.7 L 326 126.7 L 323.9 126.7 C 323.9 126.7 323.87 131.38 323.9 131.4 C 323.9 132.4 324.1 132.8 325 132.8 C 325.3 132.8 325.6 132.8 325.9 132.7 C 325.9 132.7 325.9 133.7 325.9 133.7 C 325.5 133.8 325.1 133.8 324.7 133.8 C 323.1 133.8 322.7 133.1 322.7 131.5 C 322.66 131.5 322.7 126.7 322.7 126.7 L 321 126.7 L 321 125.7 Z M 342.7 132.4 C 342.3 133.2 341.4 133.9 339.7 133.9 C 337.4 133.9 335.8 132.2 335.8 129.8 C 335.8 129.8 335.8 129.8 335.8 129.8 C 335.8 127.1 337.8 125.4 339.8 125.4 C 341.8 125.4 342.5 126.5 342.7 126.9 C 342.8 126.3 342.8 125.9 342.8 125.7 C 342.8 125.7 344 125.7 344 125.7 C 344 126.3 343.9 127.2 343.9 127.9 C 343.95 127.95 343.9 137.3 343.9 137.3 L 342.7 137.3 C 342.7 137.3 342.74 132.37 342.7 132.4 Z M 337 129.7 C 337 129.7 337 129.7 337 129.7 C 337 131.5 338.1 132.9 339.8 132.9 C 341.7 132.9 342.8 131.8 342.8 129.7 C 342.8 129.7 342.8 129.7 342.8 129.7 C 342.8 127.8 341.9 126.5 340 126.5 C 338 126.5 337 128 337 129.7 Z M 354 131.4 C 354 132.2 354 132.9 354 133.7 C 354 133.7 352.9 133.7 352.9 133.7 C 352.8 133.5 352.8 132.9 352.8 132.2 C 352.4 133.2 351.7 133.9 349.9 133.9 C 348.2 133.9 346.8 133 346.8 130.7 C 346.83 130.69 346.8 125.7 346.8 125.7 L 348 125.7 C 348 125.7 348.04 130.45 348 130.5 C 348 131.7 348.5 132.9 350.1 132.9 C 352 132.9 352.8 131.8 352.8 129.3 C 352.81 129.29 352.8 125.7 352.8 125.7 L 354 125.7 C 354 125.7 354.02 131.37 354 131.4 Z M 356.5 126.2 C 356.9 124.9 357.2 123.1 357.3 121.7 C 357.3 121.7 358.6 121.7 358.6 121.7 C 358.5 122.9 358 125.1 357.5 126.2 C 357.5 126.2 356.5 126.2 356.5 126.2 Z M 361 130 C 361 130 360.98 129.97 361 130 C 361.1 131.7 362.2 132.9 364 132.9 C 365.3 132.9 366.1 132.3 366.5 131.5 C 366.55 131.48 366.5 131.5 366.5 131.5 L 367.8 131.5 C 367.8 131.5 367.76 131.48 367.8 131.5 C 367.3 132.6 366.2 133.9 363.9 133.9 C 361.1 133.9 359.8 131.9 359.8 129.7 C 359.8 129.7 359.8 129.7 359.8 129.7 C 359.8 127.2 361.4 125.4 363.8 125.4 C 366.9 125.4 367.9 127.7 367.9 129.6 C 367.9 129.7 367.9 129.8 367.9 130 C 367.88 129.97 361 130 361 130 Z M 366.6 129 C 366.6 129 366.6 129.04 366.6 129 C 366.5 128 366 126.4 363.8 126.4 C 362.1 126.4 361.2 127.6 361 129 C 361.01 129.04 361 129 361 129 L 366.6 129 Z M 370.2 133.7 L 370.2 121.7 L 371.4 121.7 L 371.4 133.7 L 370.2 133.7 Z M 374.3 133.7 L 374.3 121.7 L 375.6 121.7 L 375.6 133.7 L 374.3 133.7 Z M 379.2 130 C 379.2 130 379.16 129.97 379.2 130 C 379.3 131.7 380.4 132.9 382.2 132.9 C 383.5 132.9 384.3 132.3 384.7 131.5 C 384.74 131.48 384.7 131.5 384.7 131.5 L 385.9 131.5 C 385.9 131.5 385.94 131.48 385.9 131.5 C 385.5 132.6 384.4 133.9 382.1 133.9 C 379.3 133.9 377.9 131.9 377.9 129.7 C 377.9 129.7 377.9 129.7 377.9 129.7 C 377.9 127.2 379.6 125.4 382 125.4 C 385 125.4 386.1 127.7 386.1 129.6 C 386.1 129.7 386.1 129.8 386.1 130 C 386.06 129.97 379.2 130 379.2 130 Z M 384.8 129 C 384.8 129 384.79 129.04 384.8 129 C 384.7 128 384.2 126.4 382 126.4 C 380.3 126.4 379.4 127.6 379.2 129 C 379.2 129.04 379.2 129 379.2 129 L 384.8 129 Z M 388.2 133.7 L 388.2 131.3 L 389.5 131.3 L 389.5 133.7 L 388.2 133.7 Z " stroke="none" fill="#141414"/>  </g>  <g id="Polygon9991">    <path d="M 1.4 103.4 C 1.4 102.7 1.4 102 1.3 101.4 C 1.3 101.4 2.5 101.4 2.5 101.4 C 2.5 101.7 2.6 102.2 2.6 102.6 C 3 101.9 3.7 101.1 5.2 101.1 C 6.5 101.1 7.3 101.8 7.7 102.7 C 8.1 102 8.9 101.1 10.5 101.1 C 12 101.1 13.3 102 13.3 104.4 C 13.3 104.39 13.3 109.4 13.3 109.4 L 12.1 109.4 C 12.1 109.4 12.1 104.45 12.1 104.4 C 12.1 103.4 11.8 102.2 10.2 102.2 C 8.8 102.2 7.9 103.1 7.9 105 C 7.93 105 7.9 109.4 7.9 109.4 L 6.7 109.4 C 6.7 109.4 6.73 104.36 6.7 104.4 C 6.7 103.4 6.4 102.2 4.8 102.2 C 3.2 102.2 2.6 103.5 2.6 105.1 C 2.56 105.14 2.6 109.4 2.6 109.4 L 1.4 109.4 C 1.4 109.4 1.35 103.43 1.4 103.4 Z M 24 105.4 C 24 105.4 24 105.4 24 105.4 C 24 107.5 22.7 109.6 19.8 109.6 C 17.2 109.6 15.7 107.6 15.7 105.4 C 15.7 105.4 15.7 105.4 15.7 105.4 C 15.7 103.1 17.3 101.1 19.9 101.1 C 22.6 101.1 24 103.2 24 105.4 Z M 16.9 105.4 C 16.9 105.4 16.9 105.4 16.9 105.4 C 16.9 107 18 108.6 19.9 108.6 C 21.8 108.6 22.8 107.1 22.8 105.4 C 22.8 105.4 22.8 105.4 22.8 105.4 C 22.8 103.7 21.7 102.2 19.8 102.2 C 17.9 102.2 16.9 103.7 16.9 105.4 Z M 33.6 107.1 C 33.6 107.8 33.6 108.6 33.6 109.4 C 33.6 109.4 32.4 109.4 32.4 109.4 C 32.4 109.2 32.4 108.5 32.4 107.9 C 32 108.9 31.2 109.6 29.4 109.6 C 27.7 109.6 26.4 108.7 26.4 106.4 C 26.39 106.37 26.4 101.4 26.4 101.4 L 27.6 101.4 C 27.6 101.4 27.6 106.13 27.6 106.1 C 27.6 107.4 28.1 108.5 29.7 108.5 C 31.5 108.5 32.4 107.5 32.4 105 C 32.36 104.97 32.4 101.4 32.4 101.4 L 33.6 101.4 C 33.6 101.4 33.57 107.05 33.6 107.1 Z M 36.8 101.4 C 37.5 102.8 39.5 107.4 39.8 108.2 C 39.8 108.2 39.8 108.2 39.8 108.2 C 40 107.6 40.6 106.3 42.8 101.4 C 42.78 101.35 44 101.4 44 101.4 L 40.4 109.4 L 39.1 109.4 L 35.5 101.4 C 35.5 101.4 36.83 101.35 36.8 101.4 Z M 46.3 105.6 C 46.3 105.6 46.27 105.65 46.3 105.6 C 46.4 107.4 47.5 108.6 49.3 108.6 C 50.6 108.6 51.4 108 51.8 107.2 C 51.84 107.16 51.8 107.2 51.8 107.2 L 53 107.2 C 53 107.2 53.05 107.16 53 107.2 C 52.6 108.3 51.5 109.6 49.2 109.6 C 46.4 109.6 45 107.5 45 105.4 C 45 105.4 45 105.4 45 105.4 C 45 102.9 46.7 101.1 49.1 101.1 C 52.1 101.1 53.2 103.4 53.2 105.3 C 53.2 105.4 53.2 105.5 53.2 105.6 C 53.17 105.65 46.3 105.6 46.3 105.6 Z M 51.9 104.7 C 51.9 104.7 51.89 104.72 51.9 104.7 C 51.8 103.7 51.3 102.1 49.1 102.1 C 47.4 102.1 46.5 103.2 46.3 104.7 C 46.3 104.72 46.3 104.7 46.3 104.7 L 51.9 104.7 Z M 55.5 103.4 C 55.5 102.7 55.5 102 55.5 101.4 C 55.5 101.4 56.7 101.4 56.7 101.4 C 56.7 101.7 56.7 102.2 56.7 102.6 C 57.1 101.9 57.9 101.1 59.4 101.1 C 60.7 101.1 61.5 101.8 61.8 102.7 C 62.3 102 63 101.1 64.6 101.1 C 66.2 101.1 67.5 102 67.5 104.4 C 67.47 104.39 67.5 109.4 67.5 109.4 L 66.3 109.4 C 66.3 109.4 66.27 104.45 66.3 104.4 C 66.3 103.4 65.9 102.2 64.4 102.2 C 63 102.2 62.1 103.1 62.1 105 C 62.1 105 62.1 109.4 62.1 109.4 L 60.9 109.4 C 60.9 109.4 60.9 104.36 60.9 104.4 C 60.9 103.4 60.6 102.2 59 102.2 C 57.4 102.2 56.7 103.5 56.7 105.1 C 56.73 105.14 56.7 109.4 56.7 109.4 L 55.5 109.4 C 55.5 109.4 55.52 103.43 55.5 103.4 Z M 71.1 105.6 C 71.1 105.6 71.08 105.65 71.1 105.6 C 71.2 107.4 72.3 108.6 74.1 108.6 C 75.4 108.6 76.2 108 76.6 107.2 C 76.65 107.16 76.6 107.2 76.6 107.2 L 77.9 107.2 C 77.9 107.2 77.86 107.16 77.9 107.2 C 77.4 108.3 76.3 109.6 74 109.6 C 71.2 109.6 69.9 107.5 69.9 105.4 C 69.9 105.4 69.9 105.4 69.9 105.4 C 69.9 102.9 71.5 101.1 73.9 101.1 C 77 101.1 78 103.4 78 105.3 C 78 105.4 78 105.5 78 105.6 C 77.98 105.65 71.1 105.6 71.1 105.6 Z M 76.7 104.7 C 76.7 104.7 76.7 104.72 76.7 104.7 C 76.6 103.7 76.1 102.1 73.9 102.1 C 72.2 102.1 71.3 103.2 71.1 104.7 C 71.11 104.72 71.1 104.7 71.1 104.7 L 76.7 104.7 Z M 80.3 103.4 C 80.3 102.7 80.3 102 80.3 101.4 C 80.3 101.4 81.5 101.4 81.5 101.4 C 81.5 101.6 81.5 102.4 81.5 103 C 81.9 102.1 82.8 101.1 84.5 101.1 C 86.4 101.1 87.6 102.3 87.6 104.5 C 87.63 104.52 87.6 109.4 87.6 109.4 L 86.4 109.4 C 86.4 109.4 86.41 104.75 86.4 104.8 C 86.4 103.3 85.9 102.2 84.3 102.2 C 82.4 102.2 81.5 103.6 81.5 105.6 C 81.54 105.59 81.5 109.4 81.5 109.4 L 80.3 109.4 C 80.3 109.4 80.33 103.38 80.3 103.4 Z M 89.4 101.4 L 91 101.4 L 91 98.7 L 92.2 98.7 L 92.2 101.4 L 94.4 101.4 L 94.4 102.4 L 92.2 102.4 C 92.2 102.4 92.21 107.06 92.2 107.1 C 92.2 108 92.5 108.5 93.4 108.5 C 93.6 108.5 94 108.5 94.2 108.4 C 94.2 108.4 94.2 109.3 94.2 109.3 C 93.9 109.5 93.5 109.5 93.1 109.5 C 91.5 109.5 91 108.8 91 107.2 C 91 107.18 91 102.4 91 102.4 L 89.4 102.4 L 89.4 101.4 Z M 113.7 108.1 C 113.3 108.9 112.4 109.6 110.7 109.6 C 108.4 109.6 106.8 107.9 106.8 105.5 C 106.8 105.5 106.8 105.5 106.8 105.5 C 106.8 102.7 108.8 101.1 110.8 101.1 C 112.8 101.1 113.5 102.2 113.7 102.6 C 113.8 102 113.8 101.6 113.8 101.4 C 113.8 101.4 115 101.4 115 101.4 C 115 102 114.9 102.9 114.9 103.6 C 114.94 103.63 114.9 113 114.9 113 L 113.7 113 C 113.7 113 113.74 108.05 113.7 108.1 Z M 108 105.4 C 108 105.4 108 105.4 108 105.4 C 108 107.2 109.1 108.6 110.8 108.6 C 112.7 108.6 113.8 107.5 113.8 105.3 C 113.8 105.3 113.8 105.3 113.8 105.3 C 113.8 103.5 112.9 102.2 111 102.2 C 109 102.2 108 103.7 108 105.4 Z M 125 107.1 C 125 107.8 125 108.6 125 109.4 C 125 109.4 123.9 109.4 123.9 109.4 C 123.8 109.2 123.8 108.5 123.8 107.9 C 123.4 108.9 122.6 109.6 120.9 109.6 C 119.2 109.6 117.8 108.7 117.8 106.4 C 117.83 106.37 117.8 101.4 117.8 101.4 L 119 101.4 C 119 101.4 119.04 106.13 119 106.1 C 119 107.4 119.5 108.5 121.1 108.5 C 123 108.5 123.8 107.5 123.8 105 C 123.8 104.97 123.8 101.4 123.8 101.4 L 125 101.4 C 125 101.4 125.01 107.05 125 107.1 Z M 127.9 101.4 L 129.1 101.4 L 129.1 109.4 L 127.9 109.4 L 127.9 101.4 Z M 127.9 97.3 L 129.1 97.3 L 129.1 99.1 L 127.9 99.1 L 127.9 97.3 Z M 143.1 103.4 C 143.1 102.7 143.1 102 143.1 101.4 C 143.1 101.4 144.2 101.4 144.2 101.4 C 144.3 101.6 144.3 102.4 144.3 103 C 144.6 102.1 145.5 101.1 147.3 101.1 C 149.1 101.1 150.4 102.3 150.4 104.5 C 150.38 104.52 150.4 109.4 150.4 109.4 L 149.2 109.4 C 149.2 109.4 149.17 104.75 149.2 104.8 C 149.2 103.3 148.6 102.2 147 102.2 C 145.2 102.2 144.3 103.6 144.3 105.6 C 144.3 105.59 144.3 109.4 144.3 109.4 L 143.1 109.4 C 143.1 109.4 143.09 103.38 143.1 103.4 Z M 161.1 105.4 C 161.1 105.4 161.1 105.4 161.1 105.4 C 161.1 107.5 159.7 109.6 156.9 109.6 C 154.2 109.6 152.7 107.6 152.7 105.4 C 152.7 105.4 152.7 105.4 152.7 105.4 C 152.7 103.1 154.3 101.1 157 101.1 C 159.6 101.1 161.1 103.2 161.1 105.4 Z M 154 105.4 C 154 105.4 154 105.4 154 105.4 C 154 107 155 108.6 156.9 108.6 C 158.9 108.6 159.9 107.1 159.9 105.4 C 159.9 105.4 159.9 105.4 159.9 105.4 C 159.9 103.7 158.8 102.2 156.9 102.2 C 154.9 102.2 154 103.7 154 105.4 Z M 170.6 107.1 C 170.6 107.8 170.6 108.6 170.6 109.4 C 170.6 109.4 169.5 109.4 169.5 109.4 C 169.5 109.2 169.4 108.5 169.4 107.9 C 169 108.9 168.3 109.6 166.5 109.6 C 164.8 109.6 163.4 108.7 163.4 106.4 C 163.45 106.37 163.4 101.4 163.4 101.4 L 164.7 101.4 C 164.7 101.4 164.66 106.13 164.7 106.1 C 164.7 107.4 165.2 108.5 166.7 108.5 C 168.6 108.5 169.4 107.5 169.4 105 C 169.42 104.97 169.4 101.4 169.4 101.4 L 170.6 101.4 C 170.6 101.4 170.63 107.05 170.6 107.1 Z M 174.1 107 C 174.1 107 174.1 106.97 174.1 107 C 174.4 108 175.3 108.6 176.9 108.6 C 178.6 108.6 179.2 108 179.2 107.2 C 179.2 106.5 178.8 106 176.6 105.7 C 173.8 105.4 173.3 104.4 173.3 103.4 C 173.3 102.4 174.1 101.1 176.6 101.1 C 179.3 101.1 180.1 102.6 180.1 103.5 C 180.14 103.5 180.1 103.5 180.1 103.5 L 178.9 103.5 C 178.9 103.5 178.91 103.5 178.9 103.5 C 178.8 103 178.4 102.1 176.5 102.1 C 174.8 102.1 174.5 102.8 174.5 103.3 C 174.5 104 174.9 104.4 176.8 104.7 C 179.8 105 180.4 105.9 180.4 107.1 C 180.4 108.6 179.3 109.6 176.8 109.6 C 174.4 109.6 173.2 108.6 172.9 107 C 172.87 106.97 172.9 107 172.9 107 L 174.1 107 Z M 201.2 97.3 C 201.2 97.3 201.25 107.04 201.2 107 C 201.2 107.8 201.2 108.6 201.3 109.4 C 201.3 109.4 200.1 109.4 200.1 109.4 C 200.1 109 200 108.5 200 108.1 C 199.6 108.8 198.9 109.6 197 109.6 C 194.6 109.6 193.1 107.9 193.1 105.4 C 193.1 105.4 193.1 105.4 193.1 105.4 C 193.1 102.8 195 101.1 197.2 101.1 C 199.2 101.1 199.8 102.1 200 102.5 C 200.04 102.49 200 97.3 200 97.3 L 201.2 97.3 Z M 194.3 105.4 C 194.3 105.4 194.3 105.4 194.3 105.4 C 194.3 107 195.3 108.6 197.2 108.6 C 199.3 108.6 200.1 107.2 200.1 105.3 C 200.1 105.3 200.1 105.3 200.1 105.3 C 200.1 103.5 199.4 102.2 197.3 102.2 C 195.3 102.2 194.3 103.8 194.3 105.4 Z M 212 105.4 C 212 105.4 212 105.4 212 105.4 C 212 107.5 210.6 109.6 207.8 109.6 C 205.1 109.6 203.6 107.6 203.6 105.4 C 203.6 105.4 203.6 105.4 203.6 105.4 C 203.6 103.1 205.2 101.1 207.9 101.1 C 210.5 101.1 212 103.2 212 105.4 Z M 204.9 105.4 C 204.9 105.4 204.9 105.4 204.9 105.4 C 204.9 107 205.9 108.6 207.8 108.6 C 209.8 108.6 210.8 107.1 210.8 105.4 C 210.8 105.4 210.8 105.4 210.8 105.4 C 210.8 103.7 209.7 102.2 207.8 102.2 C 205.8 102.2 204.9 103.7 204.9 105.4 Z M 214.4 103.4 C 214.4 102.7 214.4 102 214.4 101.4 C 214.4 101.4 215.5 101.4 215.5 101.4 C 215.6 101.6 215.6 102.4 215.6 103 C 215.9 102.1 216.8 101.1 218.6 101.1 C 220.4 101.1 221.7 102.3 221.7 104.5 C 221.68 104.52 221.7 109.4 221.7 109.4 L 220.5 109.4 C 220.5 109.4 220.47 104.75 220.5 104.8 C 220.5 103.3 219.9 102.2 218.3 102.2 C 216.5 102.2 215.6 103.6 215.6 105.6 C 215.59 105.59 215.6 109.4 215.6 109.4 L 214.4 109.4 C 214.4 109.4 214.38 103.38 214.4 103.4 Z M 224.6 103.4 C 224.6 102.7 224.6 102 224.5 101.4 C 224.5 101.4 225.7 101.4 225.7 101.4 C 225.8 101.6 225.8 102.4 225.8 103 C 226.1 102.1 227 101.1 228.8 101.1 C 230.6 101.1 231.9 102.3 231.9 104.5 C 231.86 104.52 231.9 109.4 231.9 109.4 L 230.6 109.4 C 230.6 109.4 230.65 104.75 230.6 104.8 C 230.6 103.3 230.1 102.2 228.5 102.2 C 226.7 102.2 225.8 103.6 225.8 105.6 C 225.77 105.59 225.8 109.4 225.8 109.4 L 224.6 109.4 C 224.6 109.4 224.56 103.38 224.6 103.4 Z M 235.4 105.6 C 235.4 105.6 235.42 105.65 235.4 105.6 C 235.5 107.4 236.6 108.6 238.4 108.6 C 239.7 108.6 240.5 108 241 107.2 C 240.99 107.16 241 107.2 241 107.2 L 242.2 107.2 C 242.2 107.2 242.2 107.16 242.2 107.2 C 241.8 108.3 240.7 109.6 238.3 109.6 C 235.5 109.6 234.2 107.5 234.2 105.4 C 234.2 105.4 234.2 105.4 234.2 105.4 C 234.2 102.9 235.8 101.1 238.3 101.1 C 241.3 101.1 242.3 103.4 242.3 105.3 C 242.3 105.4 242.3 105.5 242.3 105.6 C 242.32 105.65 235.4 105.6 235.4 105.6 Z M 241 104.7 C 241 104.7 241.04 104.72 241 104.7 C 241 103.7 240.4 102.1 238.3 102.1 C 236.5 102.1 235.6 103.2 235.4 104.7 C 235.45 104.72 235.4 104.7 235.4 104.7 L 241 104.7 Z M 255.6 109.4 L 255.6 97.3 L 256.8 97.3 L 256.8 109.4 L 255.6 109.4 Z M 259.4 101.9 C 259.8 100.6 260.2 98.8 260.3 97.3 C 260.3 97.3 261.5 97.3 261.5 97.3 C 261.4 98.6 260.9 100.8 260.4 101.9 C 260.4 101.9 259.4 101.9 259.4 101.9 Z M 263.8 101.4 L 265 101.4 L 265 109.4 L 263.8 109.4 L 263.8 101.4 Z M 263.8 97.3 L 265 97.3 L 265 99.1 L 263.8 99.1 L 263.8 97.3 Z M 267.9 103.4 C 267.9 102.7 267.9 102 267.8 101.4 C 267.8 101.4 269 101.4 269 101.4 C 269.1 101.7 269.1 102.2 269.1 102.6 C 269.5 101.9 270.2 101.1 271.7 101.1 C 273 101.1 273.8 101.8 274.2 102.7 C 274.6 102 275.4 101.1 277 101.1 C 278.5 101.1 279.8 102 279.8 104.4 C 279.81 104.39 279.8 109.4 279.8 109.4 L 278.6 109.4 C 278.6 109.4 278.61 104.45 278.6 104.4 C 278.6 103.4 278.3 102.2 276.7 102.2 C 275.4 102.2 274.4 103.1 274.4 105 C 274.44 105 274.4 109.4 274.4 109.4 L 273.2 109.4 C 273.2 109.4 273.23 104.36 273.2 104.4 C 273.2 103.4 272.9 102.2 271.4 102.2 C 269.7 102.2 269.1 103.5 269.1 105.1 C 269.06 105.14 269.1 109.4 269.1 109.4 L 267.9 109.4 C 267.9 109.4 267.86 103.43 267.9 103.4 Z M 283.9 108.1 C 283.92 108.09 283.9 113 283.9 113 L 282.7 113 C 282.7 113 282.71 103.37 282.7 103.4 C 282.7 102.7 282.7 102 282.7 101.4 C 282.7 101.4 283.9 101.4 283.9 101.4 C 283.9 101.6 283.9 102.1 283.9 102.8 C 284.4 101.9 285.4 101.1 287.1 101.1 C 289.3 101.1 290.8 102.9 290.8 105.2 C 290.8 105.2 290.8 105.2 290.8 105.2 C 290.8 107.8 289.1 109.6 286.9 109.6 C 285.1 109.6 284.4 108.8 283.9 108.1 Z M 289.6 105.3 C 289.6 105.3 289.6 105.3 289.6 105.3 C 289.6 103.8 288.7 102.2 286.8 102.2 C 284.8 102.2 283.9 103.6 283.9 105.4 C 283.9 105.4 283.9 105.4 283.9 105.4 C 283.9 107.2 284.8 108.6 286.7 108.6 C 288.7 108.6 289.6 107 289.6 105.3 Z M 293.2 103.5 C 293.2 102.8 293.2 102.1 293.2 101.4 C 293.2 101.4 294.4 101.4 294.4 101.4 C 294.4 101.6 294.4 102.4 294.4 103.2 C 295 101.9 296.2 101.1 297.7 101.1 C 297.7 101.1 297.7 102.3 297.7 102.3 C 295.9 102.3 294.4 103.5 294.4 105.9 C 294.44 105.92 294.4 109.4 294.4 109.4 L 293.2 109.4 C 293.2 109.4 293.23 103.54 293.2 103.5 Z M 300.1 105.6 C 300.1 105.6 300.13 105.65 300.1 105.6 C 300.2 107.4 301.4 108.6 303.1 108.6 C 304.5 108.6 305.2 108 305.7 107.2 C 305.7 107.16 305.7 107.2 305.7 107.2 L 306.9 107.2 C 306.9 107.2 306.9 107.16 306.9 107.2 C 306.5 108.3 305.4 109.6 303 109.6 C 300.3 109.6 298.9 107.5 298.9 105.4 C 298.9 105.4 298.9 105.4 298.9 105.4 C 298.9 102.9 300.6 101.1 303 101.1 C 306 101.1 307 103.4 307 105.3 C 307 105.4 307 105.5 307 105.6 C 307.03 105.65 300.1 105.6 300.1 105.6 Z M 305.7 104.7 C 305.7 104.7 305.75 104.72 305.7 104.7 C 305.7 103.7 305.1 102.1 303 102.1 C 301.2 102.1 300.3 103.2 300.2 104.7 C 300.16 104.72 300.2 104.7 300.2 104.7 L 305.7 104.7 Z M 310 107 C 310 107 309.95 106.97 310 107 C 310.3 108 311.2 108.6 312.7 108.6 C 314.4 108.6 315 108 315 107.2 C 315 106.5 314.6 106 312.4 105.7 C 309.7 105.4 309.1 104.4 309.1 103.4 C 309.1 102.4 309.9 101.1 312.4 101.1 C 315.2 101.1 315.9 102.6 316 103.5 C 315.99 103.5 316 103.5 316 103.5 L 314.8 103.5 C 314.8 103.5 314.77 103.5 314.8 103.5 C 314.6 103 314.3 102.1 312.3 102.1 C 310.7 102.1 310.3 102.8 310.3 103.3 C 310.3 104 310.8 104.4 312.7 104.7 C 315.7 105 316.3 105.9 316.3 107.1 C 316.3 108.6 315.2 109.6 312.7 109.6 C 310.3 109.6 309 108.6 308.7 107 C 308.72 106.97 308.7 107 308.7 107 L 310 107 Z M 319.3 107 C 319.3 107 319.28 106.97 319.3 107 C 319.6 108 320.5 108.6 322.1 108.6 C 323.7 108.6 324.4 108 324.4 107.2 C 324.4 106.5 323.9 106 321.8 105.7 C 319 105.4 318.4 104.4 318.4 103.4 C 318.4 102.4 319.2 101.1 321.8 101.1 C 324.5 101.1 325.2 102.6 325.3 103.5 C 325.32 103.5 325.3 103.5 325.3 103.5 L 324.1 103.5 C 324.1 103.5 324.09 103.5 324.1 103.5 C 324 103 323.6 102.1 321.7 102.1 C 320 102.1 319.7 102.8 319.7 103.3 C 319.7 104 320.1 104.4 322 104.7 C 325 105 325.6 105.9 325.6 107.1 C 325.6 108.6 324.5 109.6 322 109.6 C 319.6 109.6 318.3 108.6 318 107 C 318.05 106.97 318 107 318 107 L 319.3 107 Z M 328 101.4 L 329.2 101.4 L 329.2 109.4 L 328 109.4 L 328 101.4 Z M 328 97.3 L 329.2 97.3 L 329.2 99.1 L 328 99.1 L 328 97.3 Z M 339.9 105.4 C 339.9 105.4 339.9 105.4 339.9 105.4 C 339.9 107.5 338.6 109.6 335.7 109.6 C 333.1 109.6 331.5 107.6 331.5 105.4 C 331.5 105.4 331.5 105.4 331.5 105.4 C 331.5 103.1 333.2 101.1 335.8 101.1 C 338.5 101.1 339.9 103.2 339.9 105.4 Z M 332.8 105.4 C 332.8 105.4 332.8 105.4 332.8 105.4 C 332.8 107 333.9 108.6 335.8 108.6 C 337.7 108.6 338.7 107.1 338.7 105.4 C 338.7 105.4 338.7 105.4 338.7 105.4 C 338.7 103.7 337.6 102.2 335.7 102.2 C 333.7 102.2 332.8 103.7 332.8 105.4 Z M 342.3 103.4 C 342.3 102.7 342.3 102 342.3 101.4 C 342.3 101.4 343.5 101.4 343.5 101.4 C 343.5 101.6 343.5 102.4 343.5 103 C 343.9 102.1 344.7 101.1 346.5 101.1 C 348.4 101.1 349.6 102.3 349.6 104.5 C 349.61 104.52 349.6 109.4 349.6 109.4 L 348.4 109.4 C 348.4 109.4 348.39 104.75 348.4 104.8 C 348.4 103.3 347.8 102.2 346.2 102.2 C 344.4 102.2 343.5 103.6 343.5 105.6 C 343.52 105.59 343.5 109.4 343.5 109.4 L 342.3 109.4 C 342.3 109.4 342.31 103.38 342.3 103.4 Z M 369.9 108.1 C 369.4 108.9 368.6 109.6 366.8 109.6 C 364.6 109.6 362.9 107.9 362.9 105.5 C 362.9 105.5 362.9 105.5 362.9 105.5 C 362.9 102.7 364.9 101.1 366.9 101.1 C 368.9 101.1 369.7 102.2 369.9 102.6 C 369.9 102 369.9 101.6 369.9 101.4 C 369.9 101.4 371.1 101.4 371.1 101.4 C 371.1 102 371.1 102.9 371.1 103.6 C 371.09 103.63 371.1 113 371.1 113 L 369.9 113 C 369.9 113 369.88 108.05 369.9 108.1 Z M 364.2 105.4 C 364.2 105.4 364.2 105.4 364.2 105.4 C 364.2 107.2 365.3 108.6 367 108.6 C 368.9 108.6 369.9 107.5 369.9 105.3 C 369.9 105.3 369.9 105.3 369.9 105.3 C 369.9 103.5 369 102.2 367.1 102.2 C 365.2 102.2 364.2 103.7 364.2 105.4 Z M 381.2 107.1 C 381.2 107.8 381.2 108.6 381.2 109.4 C 381.2 109.4 380 109.4 380 109.4 C 380 109.2 380 108.5 380 107.9 C 379.5 108.9 378.8 109.6 377 109.6 C 375.3 109.6 374 108.7 374 106.4 C 373.98 106.37 374 101.4 374 101.4 L 375.2 101.4 C 375.2 101.4 375.19 106.13 375.2 106.1 C 375.2 107.4 375.7 108.5 377.3 108.5 C 379.1 108.5 379.9 107.5 379.9 105 C 379.95 104.97 379.9 101.4 379.9 101.4 L 381.2 101.4 C 381.2 101.4 381.16 107.05 381.2 107.1 Z M 383.6 101.9 C 384 100.6 384.4 98.8 384.5 97.3 C 384.5 97.3 385.7 97.3 385.7 97.3 C 385.6 98.6 385.1 100.8 384.6 101.9 C 384.6 101.9 383.6 101.9 383.6 101.9 Z M 388.1 105.6 C 388.1 105.6 388.12 105.65 388.1 105.6 C 388.2 107.4 389.4 108.6 391.1 108.6 C 392.5 108.6 393.2 108 393.7 107.2 C 393.69 107.16 393.7 107.2 393.7 107.2 L 394.9 107.2 C 394.9 107.2 394.9 107.16 394.9 107.2 C 394.5 108.3 393.4 109.6 391 109.6 C 388.2 109.6 386.9 107.5 386.9 105.4 C 386.9 105.4 386.9 105.4 386.9 105.4 C 386.9 102.9 388.5 101.1 391 101.1 C 394 101.1 395 103.4 395 105.3 C 395 105.4 395 105.5 395 105.6 C 395.02 105.65 388.1 105.6 388.1 105.6 Z M 393.7 104.7 C 393.7 104.7 393.74 104.72 393.7 104.7 C 393.7 103.7 393.1 102.1 391 102.1 C 389.2 102.1 388.3 103.2 388.2 104.7 C 388.15 104.72 388.2 104.7 388.2 104.7 L 393.7 104.7 Z M 397.4 109.4 L 397.4 97.3 L 398.6 97.3 L 398.6 109.4 L 397.4 109.4 Z M 401.5 109.4 L 401.5 97.3 L 402.7 97.3 L 402.7 109.4 L 401.5 109.4 Z M 406.3 105.6 C 406.3 105.6 406.31 105.65 406.3 105.6 C 406.4 107.4 407.5 108.6 409.3 108.6 C 410.6 108.6 411.4 108 411.9 107.2 C 411.88 107.16 411.9 107.2 411.9 107.2 L 413.1 107.2 C 413.1 107.2 413.09 107.16 413.1 107.2 C 412.7 108.3 411.6 109.6 409.2 109.6 C 406.4 109.6 405.1 107.5 405.1 105.4 C 405.1 105.4 405.1 105.4 405.1 105.4 C 405.1 102.9 406.7 101.1 409.2 101.1 C 412.2 101.1 413.2 103.4 413.2 105.3 C 413.2 105.4 413.2 105.5 413.2 105.6 C 413.21 105.65 406.3 105.6 406.3 105.6 Z M 411.9 104.7 C 411.9 104.7 411.93 104.72 411.9 104.7 C 411.9 103.7 411.3 102.1 409.1 102.1 C 407.4 102.1 406.5 103.2 406.3 104.7 C 406.34 104.72 406.3 104.7 406.3 104.7 L 411.9 104.7 Z M 427.1 105.6 C 427.1 105.6 427.05 105.65 427.1 105.6 C 427.1 107.4 428.3 108.6 430 108.6 C 431.4 108.6 432.2 108 432.6 107.2 C 432.62 107.16 432.6 107.2 432.6 107.2 L 433.8 107.2 C 433.8 107.2 433.83 107.16 433.8 107.2 C 433.4 108.3 432.3 109.6 429.9 109.6 C 427.2 109.6 425.8 107.5 425.8 105.4 C 425.8 105.4 425.8 105.4 425.8 105.4 C 425.8 102.9 427.5 101.1 429.9 101.1 C 432.9 101.1 434 103.4 434 105.3 C 434 105.4 434 105.5 434 105.6 C 433.95 105.65 427.1 105.6 427.1 105.6 Z M 432.7 104.7 C 432.7 104.7 432.67 104.72 432.7 104.7 C 432.6 103.7 432 102.1 429.9 102.1 C 428.1 102.1 427.2 103.2 427.1 104.7 C 427.09 104.72 427.1 104.7 427.1 104.7 L 432.7 104.7 Z M 436.9 107 C 436.9 107 436.88 106.97 436.9 107 C 437.2 108 438.1 108.6 439.7 108.6 C 441.3 108.6 442 108 442 107.2 C 442 106.5 441.5 106 439.4 105.7 C 436.6 105.4 436 104.4 436 103.4 C 436 102.4 436.8 101.1 439.4 101.1 C 442.1 101.1 442.8 102.6 442.9 103.5 C 442.92 103.5 442.9 103.5 442.9 103.5 L 441.7 103.5 C 441.7 103.5 441.69 103.5 441.7 103.5 C 441.6 103 441.2 102.1 439.3 102.1 C 437.6 102.1 437.3 102.8 437.3 103.3 C 437.3 104 437.7 104.4 439.6 104.7 C 442.6 105 443.2 105.9 443.2 107.1 C 443.2 108.6 442.1 109.6 439.6 109.6 C 437.2 109.6 435.9 108.6 435.6 107 C 435.65 106.97 435.6 107 435.6 107 L 436.9 107 Z M 444.5 101.4 L 446.2 101.4 L 446.2 98.7 L 447.4 98.7 L 447.4 101.4 L 449.6 101.4 L 449.6 102.4 L 447.4 102.4 C 447.4 102.4 447.4 107.06 447.4 107.1 C 447.4 108 447.7 108.5 448.6 108.5 C 448.8 108.5 449.2 108.5 449.4 108.4 C 449.4 108.4 449.4 109.3 449.4 109.3 C 449 109.5 448.7 109.5 448.2 109.5 C 446.7 109.5 446.2 108.8 446.2 107.2 C 446.19 107.18 446.2 102.4 446.2 102.4 L 444.5 102.4 L 444.5 101.4 Z " stroke="none" fill="#141414"/>  </g>  <g id="Polygon9990">    <path d="M 3.2 81.4 L 1.6 85.1 L 0.2 85.1 L 5.2 73.7 L 6.7 73.7 L 11.9 85.1 L 10.5 85.1 L 8.8 81.4 L 3.2 81.4 Z M 8.4 80.2 C 6.9 77 6.2 75.4 5.9 74.7 C 5.9 74.7 5.9 74.7 5.9 74.7 C 5.7 75.4 4.9 77.4 3.6 80.2 C 3.6 80.2 8.4 80.2 8.4 80.2 Z M 14 79.1 C 14 78.4 14 77.6 13.9 77 C 13.9 77 15.1 77 15.1 77 C 15.1 77.3 15.2 78 15.2 78.7 C 15.5 77.8 16.4 76.8 18.1 76.8 C 20 76.8 21.2 78 21.2 80.2 C 21.25 80.2 21.2 85.1 21.2 85.1 L 20 85.1 C 20 85.1 20.03 80.43 20 80.4 C 20 79 19.5 77.9 17.9 77.9 C 16.1 77.9 15.2 79.3 15.2 81.3 C 15.16 81.27 15.2 85.1 15.2 85.1 L 14 85.1 C 14 85.1 13.95 79.06 14 79.1 Z M 24.1 79.1 C 24.1 78.4 24.1 77.6 24.1 77 C 24.1 77 25.3 77 25.3 77 C 25.3 77.3 25.3 78 25.3 78.7 C 25.7 77.8 26.6 76.8 28.3 76.8 C 30.2 76.8 31.4 78 31.4 80.2 C 31.43 80.2 31.4 85.1 31.4 85.1 L 30.2 85.1 C 30.2 85.1 30.21 80.43 30.2 80.4 C 30.2 79 29.7 77.9 28.1 77.9 C 26.2 77.9 25.3 79.3 25.3 81.3 C 25.34 81.27 25.3 85.1 25.3 85.1 L 24.1 85.1 C 24.1 85.1 24.13 79.06 24.1 79.1 Z M 41.2 83.2 C 41.2 83.9 41.2 84.9 41.2 85.1 C 41.2 85.1 40.1 85.1 40.1 85.1 C 40 84.8 40 84.1 40 83.8 C 39.6 84.7 38.7 85.3 36.9 85.3 C 34.6 85.3 33.8 83.9 33.8 82.7 C 33.8 82.7 33.8 82.7 33.8 82.7 C 33.8 80.7 35.7 80.1 37.9 80.1 C 39 80.1 39.7 80.1 40 80.1 C 40 80.1 40 79.6 40 79.6 C 40 78.7 39.6 77.8 37.7 77.8 C 36 77.8 35.6 78.5 35.5 79.4 C 35.45 79.36 35.5 79.4 35.5 79.4 L 34.2 79.4 C 34.2 79.4 34.24 79.36 34.2 79.4 C 34.3 78.3 35.1 76.8 37.7 76.8 C 40.5 76.8 41.2 78.2 41.2 79.5 C 41.2 79.5 41.2 83.2 41.2 83.2 Z M 40 81 C 39.7 81 39.2 81 38 81 C 36 81 35 81.5 35 82.7 C 35 82.7 35 82.7 35 82.7 C 35 83.6 35.6 84.3 37.1 84.3 C 39.4 84.3 40 82.9 40 81.5 C 40 81.5 40 81 40 81 Z M 63.8 82.6 C 63.8 82.6 63.82 82.62 63.8 82.6 C 63.4 84.1 62.2 85.3 60 85.3 C 57.2 85.3 55.8 83.4 55.8 81.1 C 55.8 81.1 55.8 81.1 55.8 81.1 C 55.8 78.8 57.4 76.8 60 76.8 C 62.6 76.8 63.6 78.4 63.8 79.5 C 63.81 79.55 63.8 79.5 63.8 79.5 L 62.6 79.5 C 62.6 79.5 62.6 79.55 62.6 79.5 C 62.3 78.7 61.6 77.8 60 77.8 C 58.2 77.8 57 79.2 57 81.1 C 57 81.1 57 81.1 57 81.1 C 57 82.9 58.1 84.3 60 84.3 C 61.4 84.3 62.2 83.6 62.6 82.6 C 62.61 82.62 62.6 82.6 62.6 82.6 L 63.8 82.6 Z M 74 81.1 C 74 81.1 74 81.1 74 81.1 C 74 83.2 72.6 85.3 69.7 85.3 C 67.1 85.3 65.6 83.3 65.6 81.1 C 65.6 81.1 65.6 81.1 65.6 81.1 C 65.6 78.7 67.2 76.8 69.8 76.8 C 72.5 76.8 74 78.9 74 81.1 Z M 66.8 81.1 C 66.8 81.1 66.8 81.1 66.8 81.1 C 66.8 82.7 67.9 84.3 69.8 84.3 C 71.7 84.3 72.7 82.8 72.7 81.1 C 72.7 81.1 72.7 81.1 72.7 81.1 C 72.7 79.3 71.6 77.8 69.7 77.8 C 67.8 77.8 66.8 79.3 66.8 81.1 Z M 83.5 82.7 C 83.5 83.5 83.5 84.3 83.5 85.1 C 83.5 85.1 82.3 85.1 82.3 85.1 C 82.3 84.9 82.3 84.2 82.3 83.6 C 81.9 84.6 81.1 85.3 79.3 85.3 C 77.6 85.3 76.3 84.4 76.3 82 C 76.29 82.05 76.3 77 76.3 77 L 77.5 77 C 77.5 77 77.5 81.81 77.5 81.8 C 77.5 83.1 78 84.2 79.6 84.2 C 81.4 84.2 82.3 83.1 82.3 80.6 C 82.26 80.65 82.3 77 82.3 77 L 83.5 77 C 83.5 77 83.47 82.73 83.5 82.7 Z M 86.4 79.2 C 86.4 78.5 86.4 77.8 86.4 77 C 86.4 77 87.5 77 87.5 77 C 87.6 77.3 87.6 78.1 87.6 78.9 C 88.1 77.6 89.4 76.8 90.9 76.8 C 90.9 76.8 90.9 78 90.9 78 C 89 78 87.6 79.2 87.6 81.6 C 87.6 81.6 87.6 85.1 87.6 85.1 L 86.4 85.1 C 86.4 85.1 86.39 79.22 86.4 79.2 Z M 92.3 77 L 94 77 L 94 74.4 L 95.2 74.4 L 95.2 77 L 97.3 77 L 97.3 78 L 95.2 78 C 95.2 78 95.16 82.74 95.2 82.7 C 95.2 83.7 95.4 84.2 96.3 84.2 C 96.6 84.2 96.9 84.2 97.2 84.1 C 97.2 84.1 97.2 85 97.2 85 C 96.8 85.1 96.4 85.2 96 85.2 C 94.4 85.2 94 84.4 94 82.9 C 93.95 82.86 94 78 94 78 L 92.3 78 L 92.3 77 Z M 98.3 87.4 C 99.2 85.5 99.5 84.1 99.7 82.7 C 99.7 82.7 100.9 82.7 100.9 82.7 C 100.8 83.9 100.3 86 99.4 87.4 C 99.4 87.4 98.3 87.4 98.3 87.4 Z M 115.8 85.1 L 115.8 73 L 117 73 L 117 85.1 L 115.8 85.1 Z M 126.8 83.2 C 126.8 83.9 126.8 84.9 126.9 85.1 C 126.9 85.1 125.7 85.1 125.7 85.1 C 125.7 84.8 125.6 84.1 125.6 83.8 C 125.2 84.7 124.3 85.3 122.5 85.3 C 120.2 85.3 119.4 83.9 119.4 82.7 C 119.4 82.7 119.4 82.7 119.4 82.7 C 119.4 80.7 121.3 80.1 123.6 80.1 C 124.6 80.1 125.3 80.1 125.6 80.1 C 125.6 80.1 125.6 79.6 125.6 79.6 C 125.6 78.7 125.2 77.8 123.3 77.8 C 121.7 77.8 121.3 78.5 121.1 79.4 C 121.09 79.36 121.1 79.4 121.1 79.4 L 119.9 79.4 C 119.9 79.4 119.88 79.36 119.9 79.4 C 120 78.3 120.7 76.8 123.3 76.8 C 126.1 76.8 126.8 78.2 126.8 79.5 C 126.8 79.5 126.8 83.2 126.8 83.2 Z M 125.6 81 C 125.3 81 124.8 81 123.6 81 C 121.6 81 120.6 81.5 120.6 82.7 C 120.6 82.7 120.6 82.7 120.6 82.7 C 120.6 83.6 121.3 84.3 122.7 84.3 C 125.1 84.3 125.6 82.9 125.6 81.5 C 125.6 81.5 125.6 81 125.6 81 Z M 149.5 82.6 C 149.5 82.6 149.45 82.62 149.5 82.6 C 149 84.1 147.8 85.3 145.6 85.3 C 142.8 85.3 141.4 83.4 141.4 81.1 C 141.4 81.1 141.4 81.1 141.4 81.1 C 141.4 78.8 143 76.8 145.6 76.8 C 148.2 76.8 149.2 78.4 149.4 79.5 C 149.44 79.55 149.4 79.5 149.4 79.5 L 148.2 79.5 C 148.2 79.5 148.23 79.55 148.2 79.5 C 147.9 78.7 147.2 77.8 145.6 77.8 C 143.8 77.8 142.7 79.2 142.7 81.1 C 142.7 81.1 142.7 81.1 142.7 81.1 C 142.7 82.9 143.7 84.3 145.6 84.3 C 147 84.3 147.8 83.6 148.2 82.6 C 148.24 82.62 148.2 82.6 148.2 82.6 L 149.5 82.6 Z M 158.7 83.2 C 158.7 83.9 158.7 84.9 158.7 85.1 C 158.7 85.1 157.6 85.1 157.6 85.1 C 157.5 84.8 157.5 84.1 157.5 83.8 C 157.1 84.7 156.2 85.3 154.4 85.3 C 152.1 85.3 151.3 83.9 151.3 82.7 C 151.3 82.7 151.3 82.7 151.3 82.7 C 151.3 80.7 153.2 80.1 155.4 80.1 C 156.5 80.1 157.2 80.1 157.5 80.1 C 157.5 80.1 157.5 79.6 157.5 79.6 C 157.5 78.7 157.1 77.8 155.2 77.8 C 153.5 77.8 153.1 78.5 153 79.4 C 152.96 79.36 153 79.4 153 79.4 L 151.7 79.4 C 151.7 79.4 151.75 79.36 151.7 79.4 C 151.9 78.3 152.6 76.8 155.2 76.8 C 158 76.8 158.7 78.2 158.7 79.5 C 158.7 79.5 158.7 83.2 158.7 83.2 Z M 157.5 81 C 157.2 81 156.7 81 155.5 81 C 153.5 81 152.5 81.5 152.5 82.7 C 152.5 82.7 152.5 82.7 152.5 82.7 C 152.5 83.6 153.1 84.3 154.6 84.3 C 156.9 84.3 157.5 82.9 157.5 81.5 C 157.5 81.5 157.5 81 157.5 81 Z M 161.6 79.1 C 161.6 78.4 161.6 77.7 161.6 77 C 161.6 77 162.7 77 162.7 77 C 162.8 77.4 162.8 77.8 162.8 78.3 C 163.2 77.6 164 76.8 165.4 76.8 C 166.7 76.8 167.5 77.4 167.9 78.4 C 168.3 77.7 169.1 76.8 170.7 76.8 C 172.2 76.8 173.5 77.7 173.5 80.1 C 173.52 80.07 173.5 85.1 173.5 85.1 L 172.3 85.1 C 172.3 85.1 172.32 80.13 172.3 80.1 C 172.3 79.1 172 77.9 170.5 77.9 C 169.1 77.9 168.1 78.8 168.1 80.7 C 168.15 80.68 168.1 85.1 168.1 85.1 L 166.9 85.1 C 166.9 85.1 166.95 80.04 166.9 80 C 166.9 79 166.6 77.9 165.1 77.9 C 163.4 77.9 162.8 79.2 162.8 80.8 C 162.77 80.82 162.8 85.1 162.8 85.1 L 161.6 85.1 C 161.6 85.1 161.57 79.11 161.6 79.1 Z M 177.1 81.3 C 177.1 81.3 177.13 81.33 177.1 81.3 C 177.2 83 178.4 84.3 180.1 84.3 C 181.5 84.3 182.2 83.7 182.7 82.8 C 182.7 82.84 182.7 82.8 182.7 82.8 L 183.9 82.8 C 183.9 82.8 183.9 82.84 183.9 82.8 C 183.5 84 182.4 85.3 180 85.3 C 177.3 85.3 175.9 83.2 175.9 81.1 C 175.9 81.1 175.9 81.1 175.9 81.1 C 175.9 78.6 177.6 76.8 180 76.8 C 183 76.8 184 79.1 184 81 C 184 81.1 184 81.2 184 81.3 C 184.02 81.33 177.1 81.3 177.1 81.3 Z M 182.7 80.4 C 182.7 80.4 182.75 80.4 182.7 80.4 C 182.7 79.3 182.1 77.8 180 77.8 C 178.2 77.8 177.3 78.9 177.2 80.4 C 177.16 80.4 177.2 80.4 177.2 80.4 L 182.7 80.4 Z M 182.6 72.9 L 180.1 75.4 L 178.9 75.4 L 181.1 72.9 L 182.6 72.9 Z M 186.4 79.2 C 186.4 78.5 186.4 77.8 186.4 77 C 186.4 77 187.5 77 187.5 77 C 187.6 77.3 187.6 78.1 187.6 78.9 C 188.1 77.6 189.4 76.8 190.9 76.8 C 190.9 76.8 190.9 78 190.9 78 C 189 78 187.6 79.2 187.6 81.6 C 187.59 81.6 187.6 85.1 187.6 85.1 L 186.4 85.1 C 186.4 85.1 186.38 79.22 186.4 79.2 Z M 199.5 83.2 C 199.5 83.9 199.6 84.9 199.6 85.1 C 199.6 85.1 198.4 85.1 198.4 85.1 C 198.4 84.8 198.3 84.1 198.3 83.8 C 197.9 84.7 197 85.3 195.3 85.3 C 193 85.3 192.1 83.9 192.1 82.7 C 192.1 82.7 192.1 82.7 192.1 82.7 C 192.1 80.7 194 80.1 196.3 80.1 C 197.4 80.1 198.1 80.1 198.3 80.1 C 198.3 80.1 198.3 79.6 198.3 79.6 C 198.3 78.7 197.9 77.8 196.1 77.8 C 194.4 77.8 194 78.5 193.8 79.4 C 193.81 79.36 193.8 79.4 193.8 79.4 L 192.6 79.4 C 192.6 79.4 192.6 79.36 192.6 79.4 C 192.7 78.3 193.4 76.8 196.1 76.8 C 198.8 76.8 199.5 78.2 199.5 79.5 C 199.5 79.5 199.5 83.2 199.5 83.2 Z M 198.3 81 C 198.1 81 197.5 81 196.3 81 C 194.3 81 193.3 81.5 193.3 82.7 C 193.3 82.7 193.3 82.7 193.3 82.7 C 193.3 83.6 194 84.3 195.4 84.3 C 197.8 84.3 198.3 82.9 198.3 81.5 C 198.3 81.5 198.3 81 198.3 81 Z M 214.8 85.1 L 214.8 73 L 216 73 L 216 85.1 L 214.8 85.1 Z M 225.8 83.2 C 225.8 83.9 225.8 84.9 225.8 85.1 C 225.8 85.1 224.7 85.1 224.7 85.1 C 224.6 84.8 224.6 84.1 224.6 83.8 C 224.2 84.7 223.3 85.3 221.5 85.3 C 219.2 85.3 218.4 83.9 218.4 82.7 C 218.4 82.7 218.4 82.7 218.4 82.7 C 218.4 80.7 220.3 80.1 222.5 80.1 C 223.6 80.1 224.3 80.1 224.6 80.1 C 224.6 80.1 224.6 79.6 224.6 79.6 C 224.6 78.7 224.2 77.8 222.3 77.8 C 220.6 77.8 220.2 78.5 220.1 79.4 C 220.06 79.36 220.1 79.4 220.1 79.4 L 218.8 79.4 C 218.8 79.4 218.85 79.36 218.8 79.4 C 219 78.3 219.7 76.8 222.3 76.8 C 225.1 76.8 225.8 78.2 225.8 79.5 C 225.8 79.5 225.8 83.2 225.8 83.2 Z M 224.6 81 C 224.3 81 223.8 81 222.6 81 C 220.6 81 219.6 81.5 219.6 82.7 C 219.6 82.7 219.6 82.7 219.6 82.7 C 219.6 83.6 220.2 84.3 221.7 84.3 C 224 84.3 224.6 82.9 224.6 81.5 C 224.6 81.5 224.6 81 224.6 81 Z M 241.5 82.7 C 241.5 82.7 241.48 82.65 241.5 82.7 C 241.8 83.7 242.7 84.3 244.3 84.3 C 245.9 84.3 246.6 83.7 246.6 82.9 C 246.6 82.2 246.1 81.6 244 81.4 C 241.2 81.1 240.6 80.1 240.6 79.1 C 240.6 78.1 241.4 76.8 244 76.8 C 246.7 76.8 247.4 78.3 247.5 79.2 C 247.52 79.18 247.5 79.2 247.5 79.2 L 246.3 79.2 C 246.3 79.2 246.29 79.18 246.3 79.2 C 246.2 78.7 245.8 77.8 243.9 77.8 C 242.2 77.8 241.9 78.5 241.9 79 C 241.9 79.7 242.3 80.1 244.2 80.3 C 247.2 80.7 247.8 81.6 247.8 82.8 C 247.8 84.3 246.7 85.3 244.2 85.3 C 241.8 85.3 240.5 84.3 240.2 82.7 C 240.25 82.65 240.2 82.7 240.2 82.7 L 241.5 82.7 Z M 257.3 82.7 C 257.3 83.5 257.3 84.3 257.3 85.1 C 257.3 85.1 256.1 85.1 256.1 85.1 C 256.1 84.9 256.1 84.2 256.1 83.6 C 255.7 84.6 254.9 85.3 253.1 85.3 C 251.4 85.3 250.1 84.4 250.1 82 C 250.1 82.05 250.1 77 250.1 77 L 251.3 77 C 251.3 77 251.31 81.81 251.3 81.8 C 251.3 83.1 251.8 84.2 253.4 84.2 C 255.3 84.2 256.1 83.1 256.1 80.6 C 256.07 80.65 256.1 77 256.1 77 L 257.3 77 C 257.3 77 257.28 82.73 257.3 82.7 Z M 260.2 77 L 261.4 77 L 261.4 85.1 L 260.2 85.1 L 260.2 77 Z M 260.2 73 L 261.4 73 L 261.4 74.8 L 260.2 74.8 L 260.2 73 Z M 263.3 77 L 265 77 L 265 74.4 L 266.2 74.4 L 266.2 77 L 268.4 77 L 268.4 78 L 266.2 78 C 266.2 78 266.19 82.74 266.2 82.7 C 266.2 83.7 266.5 84.2 267.4 84.2 C 267.6 84.2 267.9 84.2 268.2 84.1 C 268.2 84.1 268.2 85 268.2 85 C 267.8 85.1 267.5 85.2 267 85.2 C 265.5 85.2 265 84.4 265 82.9 C 264.98 82.86 265 78 265 78 L 263.3 78 L 263.3 77 Z M 269.4 87.4 C 270.2 85.5 270.6 84.1 270.7 82.7 C 270.7 82.7 271.9 82.7 271.9 82.7 C 271.8 83.9 271.3 86 270.4 87.4 C 270.4 87.4 269.4 87.4 269.4 87.4 Z M 286.9 77 L 288.1 77 L 288.1 85.1 L 286.9 85.1 L 286.9 77 Z M 286.9 73 L 288.1 73 L 288.1 74.8 L 286.9 74.8 L 286.9 73 Z M 291 79.1 C 291 78.4 291 77.7 290.9 77 C 290.9 77 292.1 77 292.1 77 C 292.1 77.4 292.2 77.8 292.2 78.3 C 292.6 77.6 293.3 76.8 294.8 76.8 C 296.1 76.8 296.9 77.4 297.3 78.4 C 297.7 77.7 298.5 76.8 300.1 76.8 C 301.6 76.8 302.9 77.7 302.9 80.1 C 302.9 80.07 302.9 85.1 302.9 85.1 L 301.7 85.1 C 301.7 85.1 301.7 80.13 301.7 80.1 C 301.7 79.1 301.4 77.9 299.8 77.9 C 298.4 77.9 297.5 78.8 297.5 80.7 C 297.53 80.68 297.5 85.1 297.5 85.1 L 296.3 85.1 C 296.3 85.1 296.33 80.04 296.3 80 C 296.3 79 296 77.9 294.4 77.9 C 292.8 77.9 292.2 79.2 292.2 80.8 C 292.16 80.82 292.2 85.1 292.2 85.1 L 291 85.1 C 291 85.1 290.95 79.11 291 79.1 Z M 305.8 79.1 C 305.8 78.4 305.8 77.7 305.8 77 C 305.8 77 307 77 307 77 C 307 77.4 307 77.8 307 78.3 C 307.4 77.6 308.2 76.8 309.6 76.8 C 310.9 76.8 311.8 77.4 312.1 78.4 C 312.6 77.7 313.3 76.8 314.9 76.8 C 316.5 76.8 317.8 77.7 317.8 80.1 C 317.75 80.07 317.8 85.1 317.8 85.1 L 316.6 85.1 C 316.6 85.1 316.55 80.13 316.6 80.1 C 316.6 79.1 316.2 77.9 314.7 77.9 C 313.3 77.9 312.4 78.8 312.4 80.7 C 312.38 80.68 312.4 85.1 312.4 85.1 L 311.2 85.1 C 311.2 85.1 311.18 80.04 311.2 80 C 311.2 79 310.8 77.9 309.3 77.9 C 307.6 77.9 307 79.2 307 80.8 C 307.01 80.82 307 85.1 307 85.1 L 305.8 85.1 C 305.8 85.1 305.81 79.11 305.8 79.1 Z M 321.4 81.3 C 321.4 81.3 321.36 81.33 321.4 81.3 C 321.5 83 322.6 84.3 324.3 84.3 C 325.7 84.3 326.5 83.7 326.9 82.8 C 326.93 82.84 326.9 82.8 326.9 82.8 L 328.1 82.8 C 328.1 82.8 328.14 82.84 328.1 82.8 C 327.7 84 326.6 85.3 324.3 85.3 C 321.5 85.3 320.1 83.2 320.1 81.1 C 320.1 81.1 320.1 81.1 320.1 81.1 C 320.1 78.6 321.8 76.8 324.2 76.8 C 327.2 76.8 328.3 79.1 328.3 81 C 328.3 81.1 328.3 81.2 328.3 81.3 C 328.26 81.33 321.4 81.3 321.4 81.3 Z M 327 80.4 C 327 80.4 326.98 80.4 327 80.4 C 326.9 79.3 326.3 77.8 324.2 77.8 C 322.5 77.8 321.6 78.9 321.4 80.4 C 321.39 80.4 321.4 80.4 321.4 80.4 L 327 80.4 Z M 330.6 79.2 C 330.6 78.5 330.6 77.8 330.6 77 C 330.6 77 331.8 77 331.8 77 C 331.8 77.3 331.8 78.1 331.8 78.9 C 332.4 77.6 333.6 76.8 335.1 76.8 C 335.1 76.8 335.1 78 335.1 78 C 333.3 78 331.8 79.2 331.8 81.6 C 331.83 81.6 331.8 85.1 331.8 85.1 L 330.6 85.1 C 330.6 85.1 330.62 79.22 330.6 79.2 Z M 344.4 84 C 344.4 87 343.5 88.9 340.2 88.9 C 337.2 88.9 336.5 87.1 336.3 86.1 C 336.35 86.14 336.3 86.1 336.3 86.1 L 337.6 86.1 C 337.6 86.1 337.59 86.14 337.6 86.1 C 337.8 87 338.5 87.9 340.3 87.9 C 342.8 87.9 343.2 86.2 343.2 84 C 343.2 84 343.2 83.6 343.2 83.6 C 342.7 84.6 341.8 85.2 340.1 85.2 C 337.8 85.2 336.3 83.5 336.3 81.2 C 336.3 81.2 336.3 81.2 336.3 81.2 C 336.3 78.6 338.1 76.8 340.3 76.8 C 342.2 76.8 343 77.7 343.2 78.4 C 343.2 77.9 343.2 77.3 343.3 77 C 343.3 77 344.4 77 344.4 77 C 344.4 77.8 344.4 78.6 344.4 79.4 C 344.4 79.4 344.4 84 344.4 84 Z M 337.5 81.1 C 337.5 81.1 337.5 81.1 337.5 81.1 C 337.5 82.9 338.7 84.2 340.4 84.2 C 342.2 84.2 343.3 83 343.3 81 C 343.3 81 343.3 81 343.3 81 C 343.3 79 342.2 77.9 340.5 77.9 C 338.4 77.9 337.5 79.5 337.5 81.1 Z M 348 81.3 C 348 81.3 348.01 81.33 348 81.3 C 348.1 83 349.2 84.3 351 84.3 C 352.3 84.3 353.1 83.7 353.6 82.8 C 353.58 82.84 353.6 82.8 353.6 82.8 L 354.8 82.8 C 354.8 82.8 354.79 82.84 354.8 82.8 C 354.4 84 353.3 85.3 350.9 85.3 C 348.1 85.3 346.8 83.2 346.8 81.1 C 346.8 81.1 346.8 81.1 346.8 81.1 C 346.8 78.6 348.4 76.8 350.9 76.8 C 353.9 76.8 354.9 79.1 354.9 81 C 354.9 81.1 354.9 81.2 354.9 81.3 C 354.91 81.33 348 81.3 348 81.3 Z M 353.6 80.4 C 353.6 80.4 353.63 80.4 353.6 80.4 C 353.6 79.3 353 77.8 350.8 77.8 C 349.1 77.8 348.2 78.9 348 80.4 C 348.04 80.4 348 80.4 348 80.4 L 353.6 80.4 Z M 353.5 72.9 L 351 75.4 L 349.8 75.4 L 352 72.9 L 353.5 72.9 Z M 358 81.3 C 358 81.3 357.97 81.33 358 81.3 C 358.1 83 359.2 84.3 361 84.3 C 362.3 84.3 363.1 83.7 363.5 82.8 C 363.54 82.84 363.5 82.8 363.5 82.8 L 364.7 82.8 C 364.7 82.8 364.75 82.84 364.7 82.8 C 364.3 84 363.2 85.3 360.9 85.3 C 358.1 85.3 356.7 83.2 356.7 81.1 C 356.7 81.1 356.7 81.1 356.7 81.1 C 356.7 78.6 358.4 76.8 360.8 76.8 C 363.9 76.8 364.9 79.1 364.9 81 C 364.9 81.1 364.9 81.2 364.9 81.3 C 364.87 81.33 358 81.3 358 81.3 Z M 363.6 80.4 C 363.6 80.4 363.59 80.4 363.6 80.4 C 363.5 79.3 363 77.8 360.8 77.8 C 359.1 77.8 358.2 78.9 358 80.4 C 358 80.4 358 80.4 358 80.4 L 363.6 80.4 Z M 386.9 73 C 386.9 73 386.95 82.72 386.9 82.7 C 386.9 83.5 386.9 84.3 387 85.1 C 387 85.1 385.8 85.1 385.8 85.1 C 385.8 84.7 385.7 84.2 385.7 83.8 C 385.3 84.5 384.6 85.3 382.7 85.3 C 380.3 85.3 378.8 83.5 378.8 81.1 C 378.8 81.1 378.8 81.1 378.8 81.1 C 378.8 78.5 380.7 76.8 382.9 76.8 C 384.9 76.8 385.5 77.8 385.7 78.2 C 385.74 78.17 385.7 73 385.7 73 L 386.9 73 Z M 380 81.1 C 380 81.1 380 81.1 380 81.1 C 380 82.6 381 84.3 382.9 84.3 C 385 84.3 385.8 82.9 385.8 81 C 385.8 81 385.8 81 385.8 81 C 385.8 79.1 385.2 77.9 383 77.9 C 381 77.9 380 79.5 380 81.1 Z M 396.7 83.2 C 396.7 83.9 396.8 84.9 396.8 85.1 C 396.8 85.1 395.6 85.1 395.6 85.1 C 395.6 84.8 395.5 84.1 395.5 83.8 C 395.1 84.7 394.2 85.3 392.5 85.3 C 390.2 85.3 389.3 83.9 389.3 82.7 C 389.3 82.7 389.3 82.7 389.3 82.7 C 389.3 80.7 391.2 80.1 393.5 80.1 C 394.6 80.1 395.3 80.1 395.5 80.1 C 395.5 80.1 395.5 79.6 395.5 79.6 C 395.5 78.7 395.1 77.8 393.3 77.8 C 391.6 77.8 391.2 78.5 391 79.4 C 391.01 79.36 391 79.4 391 79.4 L 389.8 79.4 C 389.8 79.4 389.8 79.36 389.8 79.4 C 389.9 78.3 390.6 76.8 393.3 76.8 C 396 76.8 396.7 78.2 396.7 79.5 C 396.7 79.5 396.7 83.2 396.7 83.2 Z M 395.5 81 C 395.3 81 394.7 81 393.5 81 C 391.5 81 390.5 81.5 390.5 82.7 C 390.5 82.7 390.5 82.7 390.5 82.7 C 390.5 83.6 391.2 84.3 392.6 84.3 C 395 84.3 395.5 82.9 395.5 81.5 C 395.5 81.5 395.5 81 395.5 81 Z M 399.6 79.1 C 399.6 78.4 399.6 77.6 399.6 77 C 399.6 77 400.8 77 400.8 77 C 400.8 77.3 400.8 78 400.8 78.7 C 401.2 77.8 402 76.8 403.8 76.8 C 405.7 76.8 406.9 78 406.9 80.2 C 406.92 80.2 406.9 85.1 406.9 85.1 L 405.7 85.1 C 405.7 85.1 405.71 80.43 405.7 80.4 C 405.7 79 405.2 77.9 403.6 77.9 C 401.7 77.9 400.8 79.3 400.8 81.3 C 400.84 81.27 400.8 85.1 400.8 85.1 L 399.6 85.1 C 399.6 85.1 399.62 79.06 399.6 79.1 Z M 410.3 82.7 C 410.3 82.7 410.32 82.65 410.3 82.7 C 410.6 83.7 411.5 84.3 413.1 84.3 C 414.8 84.3 415.4 83.7 415.4 82.9 C 415.4 82.2 415 81.6 412.8 81.4 C 410 81.1 409.5 80.1 409.5 79.1 C 409.5 78.1 410.3 76.8 412.8 76.8 C 415.6 76.8 416.3 78.3 416.4 79.2 C 416.36 79.18 416.4 79.2 416.4 79.2 L 415.1 79.2 C 415.1 79.2 415.13 79.18 415.1 79.2 C 415 78.7 414.7 77.8 412.7 77.8 C 411.1 77.8 410.7 78.5 410.7 79 C 410.7 79.7 411.1 80.1 413.1 80.3 C 416 80.7 416.6 81.6 416.6 82.8 C 416.6 84.3 415.5 85.3 413 85.3 C 410.6 85.3 409.4 84.3 409.1 82.7 C 409.09 82.65 409.1 82.7 409.1 82.7 L 410.3 82.7 Z M 438.4 82.7 C 438.4 83.5 438.4 84.3 438.5 85.1 C 438.5 85.1 437.3 85.1 437.3 85.1 C 437.3 84.9 437.2 84.2 437.2 83.6 C 436.8 84.6 436.1 85.3 434.3 85.3 C 432.6 85.3 431.3 84.4 431.3 82 C 431.26 82.05 431.3 77 431.3 77 L 432.5 77 C 432.5 77 432.46 81.81 432.5 81.8 C 432.5 83.1 433 84.2 434.5 84.2 C 436.4 84.2 437.2 83.1 437.2 80.6 C 437.23 80.65 437.2 77 437.2 77 L 438.4 77 C 438.4 77 438.44 82.73 438.4 82.7 Z M 441.4 79.1 C 441.4 78.4 441.4 77.6 441.3 77 C 441.3 77 442.5 77 442.5 77 C 442.5 77.3 442.6 78 442.6 78.7 C 442.9 77.8 443.8 76.8 445.5 76.8 C 447.4 76.8 448.6 78 448.6 80.2 C 448.65 80.2 448.6 85.1 448.6 85.1 L 447.4 85.1 C 447.4 85.1 447.44 80.43 447.4 80.4 C 447.4 79 446.9 77.9 445.3 77.9 C 443.5 77.9 442.6 79.3 442.6 81.3 C 442.56 81.27 442.6 85.1 442.6 85.1 L 441.4 85.1 C 441.4 85.1 441.35 79.06 441.4 79.1 Z " stroke="none" fill="#141414"/>  </g></svg>