<?xml version="1.0" standalone="no"?><!DOCTYPE svg PUBLIC "-//W3C//DTD SVG 1.1//EN" "http://www.w3.org/Graphics/SVG/1.1/DTD/svg11.dtd"><svg xmlns="http://www.w3.org/2000/svg" version="1.1" width="1099.1px" height="14.6px" viewBox="0 -4 1099.1 14.6" style="top:-4px">  <desc>© betc 2022. ALL RIGHTS RESERVED. UNAUTHORIZED COPYING OR USE OF ANY MATERIAL IN THIS CONFIDENTIAL DOCUMENT WITHOUT T...</desc>  <defs/>  <g id="Polygon5736">    <path d="M 169.2 4.1 C 168.7 4.1 168.3 4 168 3.8 C 167.6 3.6 167.3 3.4 167.1 3 C 166.8 2.6 166.7 2.2 166.7 1.7 C 166.7 1.3 166.8 0.9 167.1 0.5 C 167.3 0.1 167.6 -0.1 168 -0.3 C 168.3 -0.5 168.7 -0.6 169.2 -0.6 C 169.6 -0.6 170.1 -0.5 170.4 -0.3 C 170.8 -0.1 171.1 0.1 171.3 0.5 C 171.5 0.9 171.7 1.3 171.7 1.7 C 171.7 2.2 171.5 2.6 171.3 3 C 171.1 3.4 170.8 3.6 170.4 3.8 C 170.1 4 169.6 4.1 169.2 4.1 C 169.2 4.1 169.2 4.1 169.2 4.1 Z M 169.2 3.3 C 169.7 3.3 170 3.2 170.3 2.9 C 170.6 2.6 170.7 2.2 170.7 1.7 C 170.7 1.3 170.6 0.9 170.3 0.6 C 170 0.3 169.7 0.2 169.2 0.2 C 168.7 0.2 168.3 0.3 168.1 0.6 C 167.8 0.9 167.6 1.3 167.6 1.7 C 167.6 2.2 167.8 2.6 168.1 2.9 C 168.3 3.2 168.7 3.3 169.2 3.3 C 169.2 3.3 169.2 3.3 169.2 3.3 Z M 169.2 3 C 168.8 3 168.4 2.9 168.2 2.7 C 168 2.5 167.9 2.2 167.9 1.8 C 167.9 1.3 168 1 168.2 0.8 C 168.4 0.6 168.8 0.5 169.2 0.5 C 169.6 0.5 170 0.5 170.2 0.7 C 170.2 0.7 170.2 1.6 170.2 1.6 C 170 1.4 169.8 1.3 169.5 1.3 C 169.4 1.3 169.2 1.4 169.2 1.4 C 169.1 1.5 169 1.6 169 1.8 C 169 1.9 169.1 2 169.2 2.1 C 169.2 2.1 169.4 2.2 169.5 2.2 C 169.8 2.2 170 2.1 170.2 1.9 C 170.2 1.9 170.2 2.8 170.2 2.8 C 170 3 169.6 3 169.2 3 C 169.2 3 169.2 3 169.2 3 Z M 175.9 0.3 C 175.9 0.3 178.03 0.33 178 0.3 C 178.4 0.3 178.8 0.4 179 0.6 C 179.2 0.9 179.3 1.2 179.3 1.6 C 179.3 1.8 179.3 2 179.1 2.2 C 179 2.3 178.9 2.5 178.7 2.6 C 179.2 2.7 179.5 3.1 179.5 3.6 C 179.5 3.9 179.4 4.1 179.3 4.3 C 179.2 4.5 179 4.7 178.8 4.8 C 178.6 4.9 178.4 4.9 178.1 4.9 C 178.14 4.92 175.9 4.9 175.9 4.9 L 175.9 0.3 Z M 177.9 2.3 C 178.2 2.3 178.3 2.2 178.5 2.1 C 178.6 2 178.6 1.8 178.6 1.6 C 178.6 1.3 178.6 1.1 178.5 1 C 178.3 0.9 178.1 0.9 177.9 0.9 C 177.9 0.88 176.6 0.9 176.6 0.9 L 176.6 2.3 C 176.6 2.3 177.95 2.3 177.9 2.3 Z M 178 4.4 C 178.2 4.4 178.4 4.3 178.6 4.2 C 178.7 4.1 178.8 3.9 178.8 3.6 C 178.8 3.3 178.7 3.1 178.6 3 C 178.4 2.9 178.2 2.9 177.9 2.9 C 177.93 2.85 176.6 2.9 176.6 2.9 L 176.6 4.4 C 176.6 4.4 177.99 4.38 178 4.4 Z M 180.8 0.3 L 183.9 0.3 L 183.9 0.9 L 181.5 0.9 L 181.5 2.3 L 183.3 2.3 L 183.3 2.9 L 181.5 2.9 L 181.5 4.4 L 183.9 4.4 L 183.9 4.9 L 180.8 4.9 L 180.8 0.3 Z M 186.4 0.9 L 184.9 0.9 L 184.9 0.3 L 188.5 0.3 L 188.5 0.9 L 187 0.9 L 187 4.9 L 186.4 4.9 L 186.4 0.9 Z M 191.7 5 C 191.2 5 190.8 4.9 190.4 4.7 C 190 4.5 189.7 4.2 189.5 3.9 C 189.3 3.5 189.2 3.1 189.2 2.6 C 189.2 2.2 189.3 1.7 189.5 1.4 C 189.7 1 190 0.7 190.4 0.5 C 190.8 0.3 191.2 0.2 191.7 0.2 C 192.3 0.2 192.8 0.4 193.2 0.7 C 193.2 0.7 193.2 1.4 193.2 1.4 C 192.9 1 192.3 0.9 191.7 0.9 C 191.4 0.9 191 0.9 190.8 1.1 C 190.5 1.2 190.3 1.4 190.1 1.7 C 190 2 189.9 2.3 189.9 2.6 C 189.9 3 190 3.3 190.1 3.6 C 190.3 3.8 190.5 4.1 190.8 4.2 C 191 4.3 191.4 4.4 191.7 4.4 C 192 4.4 192.3 4.4 192.6 4.3 C 192.8 4.2 193.1 4.1 193.3 3.9 C 193.3 3.9 193.3 4.5 193.3 4.5 C 192.9 4.9 192.4 5 191.7 5 C 191.7 5 191.7 5 191.7 5 Z M 197.6 4.5 C 197.6 4.5 198.61 3.53 198.6 3.5 C 198.7 3.4 198.8 3.3 199 3.2 C 199.2 3 199.4 2.8 199.6 2.6 C 199.7 2.5 199.8 2.3 199.9 2.2 C 200 2 200 1.9 200 1.7 C 200 1.4 199.9 1.2 199.8 1.1 C 199.6 0.9 199.4 0.8 199.1 0.8 C 198.9 0.8 198.7 0.9 198.4 1 C 198.2 1 198 1.1 197.8 1.3 C 197.8 1.3 197.8 0.6 197.8 0.6 C 198.2 0.4 198.6 0.2 199.2 0.2 C 199.6 0.2 200 0.4 200.3 0.6 C 200.5 0.9 200.7 1.2 200.7 1.6 C 200.7 1.9 200.6 2.1 200.5 2.2 C 200.4 2.4 200.3 2.6 200.2 2.8 C 200 3 199.8 3.2 199.5 3.5 C 199.5 3.49 198.6 4.4 198.6 4.4 L 200.8 4.4 L 200.8 4.9 L 197.6 4.9 L 197.6 4.5 Z M 204 5 C 203.6 5 203.3 4.9 203 4.7 C 202.7 4.5 202.5 4.3 202.3 3.9 C 202.2 3.5 202.1 3.1 202.1 2.6 C 202.1 2.1 202.2 1.7 202.3 1.4 C 202.5 1 202.7 0.7 203 0.5 C 203.3 0.3 203.6 0.2 204 0.2 C 204.4 0.2 204.7 0.3 205 0.5 C 205.3 0.7 205.5 1 205.7 1.4 C 205.8 1.7 205.9 2.1 205.9 2.6 C 205.9 3.1 205.8 3.5 205.7 3.9 C 205.5 4.3 205.3 4.5 205 4.7 C 204.7 4.9 204.4 5 204 5 C 204 5 204 5 204 5 Z M 204 4.4 C 204.4 4.4 204.7 4.3 204.9 3.9 C 205.1 3.6 205.2 3.2 205.2 2.6 C 205.2 2.1 205.1 1.6 204.9 1.3 C 204.7 1 204.4 0.8 204 0.8 C 203.6 0.8 203.3 1 203.1 1.3 C 202.9 1.6 202.8 2.1 202.8 2.6 C 202.8 3.2 202.9 3.6 203.1 3.9 C 203.3 4.3 203.6 4.4 204 4.4 C 204 4.4 204 4.4 204 4.4 Z M 207.2 4.5 C 207.2 4.5 208.15 3.53 208.1 3.5 C 208.2 3.4 208.4 3.3 208.5 3.2 C 208.8 3 209 2.8 209.1 2.6 C 209.2 2.5 209.3 2.3 209.4 2.2 C 209.5 2 209.5 1.9 209.5 1.7 C 209.5 1.4 209.5 1.2 209.3 1.1 C 209.1 0.9 208.9 0.8 208.6 0.8 C 208.4 0.8 208.2 0.9 208 1 C 207.8 1 207.6 1.1 207.4 1.3 C 207.4 1.3 207.4 0.6 207.4 0.6 C 207.7 0.4 208.2 0.2 208.7 0.2 C 209.2 0.2 209.5 0.4 209.8 0.6 C 210.1 0.9 210.2 1.2 210.2 1.6 C 210.2 1.9 210.2 2.1 210.1 2.2 C 210 2.4 209.9 2.6 209.7 2.8 C 209.5 3 209.3 3.2 209 3.5 C 209.04 3.49 208.1 4.4 208.1 4.4 L 210.4 4.4 L 210.4 4.9 L 207.2 4.9 L 207.2 4.5 Z M 211.6 4.5 C 211.6 4.5 212.61 3.53 212.6 3.5 C 212.7 3.4 212.8 3.3 213 3.2 C 213.2 3 213.4 2.8 213.6 2.6 C 213.7 2.5 213.8 2.3 213.9 2.2 C 214 2 214 1.9 214 1.7 C 214 1.4 213.9 1.2 213.8 1.1 C 213.6 0.9 213.4 0.8 213.1 0.8 C 212.9 0.8 212.7 0.9 212.4 1 C 212.2 1 212 1.1 211.8 1.3 C 211.8 1.3 211.8 0.6 211.8 0.6 C 212.2 0.4 212.6 0.2 213.2 0.2 C 213.6 0.2 214 0.4 214.3 0.6 C 214.5 0.9 214.7 1.2 214.7 1.6 C 214.7 1.9 214.6 2.1 214.5 2.2 C 214.4 2.4 214.3 2.6 214.2 2.8 C 214 3 213.8 3.2 213.5 3.5 C 213.51 3.49 212.6 4.4 212.6 4.4 L 214.8 4.4 L 214.8 4.9 L 211.6 4.9 L 211.6 4.5 Z M 216.4 4.9 C 216.3 4.9 216.2 4.9 216.2 4.8 C 216.1 4.8 216.1 4.7 216.1 4.6 C 216.1 4.5 216.1 4.5 216.2 4.4 C 216.2 4.3 216.3 4.3 216.4 4.3 C 216.5 4.3 216.6 4.3 216.6 4.4 C 216.7 4.5 216.7 4.5 216.7 4.6 C 216.7 4.7 216.7 4.8 216.6 4.8 C 216.6 4.9 216.5 4.9 216.4 4.9 C 216.4 4.9 216.4 4.9 216.4 4.9 Z M 222.9 0.3 L 223.5 0.3 L 225.3 4.9 L 224.7 4.9 L 224.2 3.8 L 222.2 3.8 L 221.7 4.9 L 221 4.9 L 222.9 0.3 Z M 224 3.2 L 223.2 1.1 L 222.4 3.2 L 224 3.2 Z M 226.7 0.3 L 227.4 0.3 L 227.4 4.4 L 229.7 4.4 L 229.7 4.9 L 226.7 4.9 L 226.7 0.3 Z M 231 0.3 L 231.6 0.3 L 231.6 4.4 L 234 4.4 L 234 4.9 L 231 4.9 L 231 0.3 Z M 238.3 0.3 C 238.3 0.3 240.13 0.33 240.1 0.3 C 240.6 0.3 241 0.5 241.3 0.7 C 241.5 0.9 241.7 1.3 241.7 1.7 C 241.7 2.1 241.6 2.3 241.4 2.6 C 241.2 2.8 240.9 3 240.6 3.1 C 240.62 3.06 241.6 4.9 241.6 4.9 L 240.9 4.9 L 240 3.1 L 239 3.1 L 239 4.9 L 238.3 4.9 L 238.3 0.3 Z M 240 2.5 C 240.3 2.5 240.5 2.5 240.7 2.3 C 240.9 2.2 241 2 241 1.7 C 241 1.4 240.9 1.2 240.7 1.1 C 240.6 1 240.3 0.9 240 0.9 C 240.02 0.9 239 0.9 239 0.9 L 239 2.5 C 239 2.5 240.02 2.55 240 2.5 Z M 243 0.3 L 243.7 0.3 L 243.7 4.9 L 243 4.9 L 243 0.3 Z M 247.5 5 C 247 5 246.6 4.9 246.3 4.7 C 245.9 4.5 245.6 4.2 245.4 3.9 C 245.2 3.5 245.1 3.1 245.1 2.6 C 245.1 2.2 245.2 1.7 245.4 1.4 C 245.6 1 245.9 0.7 246.3 0.5 C 246.6 0.3 247 0.2 247.5 0.2 C 248.1 0.2 248.7 0.4 249.1 0.7 C 249.1 0.7 249.1 1.4 249.1 1.4 C 248.7 1 248.2 0.9 247.6 0.9 C 247.2 0.9 246.9 0.9 246.6 1.1 C 246.4 1.2 246.1 1.4 246 1.7 C 245.8 2 245.8 2.3 245.8 2.6 C 245.8 3 245.8 3.3 246 3.6 C 246.1 3.8 246.4 4.1 246.6 4.2 C 246.9 4.3 247.2 4.4 247.5 4.4 C 247.9 4.4 248.3 4.3 248.5 4.2 C 248.52 4.17 248.5 3 248.5 3 L 247.6 3 L 247.6 2.4 L 249.2 2.4 C 249.2 2.4 249.19 4.53 249.2 4.5 C 249 4.7 248.7 4.8 248.5 4.9 C 248.2 5 247.9 5 247.5 5 C 247.5 5 247.5 5 247.5 5 Z M 250.6 0.3 L 251.2 0.3 L 251.2 2.3 L 253.6 2.3 L 253.6 0.3 L 254.3 0.3 L 254.3 4.9 L 253.6 4.9 L 253.6 2.9 L 251.2 2.9 L 251.2 4.9 L 250.6 4.9 L 250.6 0.3 Z M 257 0.9 L 255.5 0.9 L 255.5 0.3 L 259.1 0.3 L 259.1 0.9 L 257.6 0.9 L 257.6 4.9 L 257 4.9 L 257 0.9 Z M 261.4 5 C 261.2 5 260.9 5 260.6 5 C 260.4 4.9 260.2 4.8 260 4.8 C 260 4.8 260 4.2 260 4.2 C 260.4 4.4 260.9 4.5 261.4 4.5 C 262.1 4.5 262.4 4.2 262.4 3.8 C 262.4 3.6 262.4 3.5 262.3 3.4 C 262.2 3.3 262.1 3.2 262 3.1 C 261.8 3.1 261.6 3 261.3 2.8 C 260.9 2.7 260.5 2.5 260.4 2.3 C 260.2 2 260.1 1.8 260.1 1.5 C 260.1 1.2 260.1 1 260.3 0.8 C 260.4 0.6 260.6 0.5 260.8 0.4 C 261 0.3 261.3 0.2 261.6 0.2 C 261.9 0.2 262.1 0.3 262.3 0.3 C 262.5 0.3 262.7 0.4 262.9 0.5 C 262.9 0.5 262.9 1.1 262.9 1.1 C 262.5 0.9 262.1 0.8 261.7 0.8 C 261.4 0.8 261.2 0.9 261 1 C 260.8 1.1 260.8 1.3 260.8 1.5 C 260.8 1.6 260.8 1.7 260.9 1.8 C 260.9 1.9 261.1 2 261.2 2.1 C 261.3 2.2 261.5 2.3 261.8 2.4 C 262.1 2.5 262.4 2.6 262.6 2.7 C 262.7 2.8 262.9 3 263 3.2 C 263.1 3.3 263.1 3.5 263.1 3.8 C 263.1 4.2 263 4.5 262.7 4.7 C 262.4 4.9 262 5 261.4 5 C 261.4 5 261.4 5 261.4 5 Z M 267.6 0.3 C 267.6 0.3 269.42 0.33 269.4 0.3 C 269.9 0.3 270.3 0.5 270.5 0.7 C 270.8 0.9 270.9 1.3 270.9 1.7 C 270.9 2.1 270.8 2.3 270.7 2.6 C 270.5 2.8 270.2 3 269.9 3.1 C 269.91 3.06 270.9 4.9 270.9 4.9 L 270.2 4.9 L 269.2 3.1 L 268.2 3.1 L 268.2 4.9 L 267.6 4.9 L 267.6 0.3 Z M 269.3 2.5 C 269.6 2.5 269.8 2.5 270 2.3 C 270.2 2.2 270.3 2 270.3 1.7 C 270.3 1.4 270.2 1.2 270 1.1 C 269.8 1 269.6 0.9 269.3 0.9 C 269.31 0.9 268.2 0.9 268.2 0.9 L 268.2 2.5 C 268.2 2.5 269.31 2.55 269.3 2.5 Z M 272.3 0.3 L 275.3 0.3 L 275.3 0.9 L 273 0.9 L 273 2.3 L 274.7 2.3 L 274.7 2.9 L 273 2.9 L 273 4.4 L 275.3 4.4 L 275.3 4.9 L 272.3 4.9 L 272.3 0.3 Z M 278 5 C 277.7 5 277.4 5 277.2 5 C 276.9 4.9 276.7 4.8 276.6 4.8 C 276.6 4.8 276.6 4.2 276.6 4.2 C 277 4.4 277.4 4.5 277.9 4.5 C 278.6 4.5 278.9 4.2 278.9 3.8 C 278.9 3.6 278.9 3.5 278.8 3.4 C 278.8 3.3 278.6 3.2 278.5 3.1 C 278.4 3.1 278.1 3 277.8 2.8 C 277.4 2.7 277.1 2.5 276.9 2.3 C 276.7 2 276.6 1.8 276.6 1.5 C 276.6 1.2 276.7 1 276.8 0.8 C 276.9 0.6 277.1 0.5 277.3 0.4 C 277.6 0.3 277.9 0.2 278.2 0.2 C 278.4 0.2 278.6 0.3 278.8 0.3 C 279 0.3 279.2 0.4 279.4 0.5 C 279.4 0.5 279.4 1.1 279.4 1.1 C 279 0.9 278.7 0.8 278.3 0.8 C 278 0.8 277.7 0.9 277.5 1 C 277.4 1.1 277.3 1.3 277.3 1.5 C 277.3 1.6 277.3 1.7 277.4 1.8 C 277.5 1.9 277.6 2 277.7 2.1 C 277.9 2.2 278.1 2.3 278.4 2.4 C 278.7 2.5 278.9 2.6 279.1 2.7 C 279.3 2.8 279.4 3 279.5 3.2 C 279.6 3.3 279.6 3.5 279.6 3.8 C 279.6 4.2 279.5 4.5 279.2 4.7 C 278.9 4.9 278.5 5 278 5 C 278 5 278 5 278 5 Z M 281 0.3 L 284 0.3 L 284 0.9 L 281.7 0.9 L 281.7 2.3 L 283.5 2.3 L 283.5 2.9 L 281.7 2.9 L 281.7 4.4 L 284 4.4 L 284 4.9 L 281 4.9 L 281 0.3 Z M 285.4 0.3 C 285.4 0.3 287.24 0.33 287.2 0.3 C 287.7 0.3 288.1 0.5 288.4 0.7 C 288.6 0.9 288.8 1.3 288.8 1.7 C 288.8 2.1 288.7 2.3 288.5 2.6 C 288.3 2.8 288.1 3 287.7 3.1 C 287.73 3.06 288.7 4.9 288.7 4.9 L 288 4.9 L 287.1 3.1 L 286.1 3.1 L 286.1 4.9 L 285.4 4.9 L 285.4 0.3 Z M 287.1 2.5 C 287.4 2.5 287.7 2.5 287.8 2.3 C 288 2.2 288.1 2 288.1 1.7 C 288.1 1.4 288 1.2 287.8 1.1 C 287.7 1 287.4 0.9 287.1 0.9 C 287.13 0.9 286.1 0.9 286.1 0.9 L 286.1 2.5 C 286.1 2.5 287.13 2.55 287.1 2.5 Z M 289.6 0.3 L 290.3 0.3 L 291.7 4 L 293.2 0.3 L 293.9 0.3 L 292.1 4.9 L 291.4 4.9 L 289.6 0.3 Z M 295.3 0.3 L 298.3 0.3 L 298.3 0.9 L 295.9 0.9 L 295.9 2.3 L 297.7 2.3 L 297.7 2.9 L 295.9 2.9 L 295.9 4.4 L 298.3 4.4 L 298.3 4.9 L 295.3 4.9 L 295.3 0.3 Z M 299.6 0.3 C 299.6 0.3 301.11 0.33 301.1 0.3 C 301.6 0.3 302 0.4 302.4 0.6 C 302.8 0.8 303 1.1 303.2 1.4 C 303.4 1.7 303.5 2.1 303.5 2.6 C 303.5 3.4 303.3 3.9 302.9 4.3 C 302.4 4.7 301.8 4.9 301 4.9 C 301.01 4.92 299.6 4.9 299.6 4.9 L 299.6 0.3 Z M 301 4.4 C 301.6 4.4 302.1 4.2 302.4 3.9 C 302.7 3.6 302.8 3.2 302.8 2.6 C 302.8 2.1 302.7 1.7 302.4 1.4 C 302.1 1.1 301.7 0.9 301.1 0.9 C 301.11 0.9 300.3 0.9 300.3 0.9 L 300.3 4.4 C 300.3 4.4 301.01 4.36 301 4.4 Z M 305.1 4.9 C 305 4.9 304.9 4.9 304.9 4.8 C 304.8 4.8 304.8 4.7 304.8 4.6 C 304.8 4.5 304.8 4.5 304.9 4.4 C 304.9 4.3 305 4.3 305.1 4.3 C 305.2 4.3 305.2 4.3 305.3 4.4 C 305.4 4.5 305.4 4.5 305.4 4.6 C 305.4 4.7 305.4 4.8 305.3 4.8 C 305.2 4.9 305.2 4.9 305.1 4.9 C 305.1 4.9 305.1 4.9 305.1 4.9 Z M 311.7 5 C 311.1 5 310.6 4.9 310.3 4.5 C 310 4.2 309.8 3.8 309.8 3.2 C 309.82 3.21 309.8 0.3 309.8 0.3 L 310.5 0.3 C 310.5 0.3 310.49 3.23 310.5 3.2 C 310.5 3.6 310.6 3.9 310.8 4.1 C 311 4.3 311.3 4.4 311.7 4.4 C 312.1 4.4 312.4 4.3 312.6 4.1 C 312.8 3.9 312.9 3.6 312.9 3.2 C 312.94 3.23 312.9 0.3 312.9 0.3 L 313.6 0.3 C 313.6 0.3 313.61 3.21 313.6 3.2 C 313.6 3.8 313.4 4.2 313.1 4.5 C 312.8 4.9 312.3 5 311.7 5 C 311.7 5 311.7 5 311.7 5 Z M 315.1 0.3 L 315.7 0.3 L 318.1 3.8 L 318.1 0.3 L 318.7 0.3 L 318.7 4.9 L 318.1 4.9 L 315.8 1.5 L 315.8 4.9 L 315.1 4.9 L 315.1 0.3 Z M 321.9 0.3 L 322.6 0.3 L 324.4 4.9 L 323.7 4.9 L 323.3 3.8 L 321.2 3.8 L 320.8 4.9 L 320.1 4.9 L 321.9 0.3 Z M 323.1 3.2 L 322.3 1.1 L 321.4 3.2 L 323.1 3.2 Z M 327.2 5 C 326.6 5 326.1 4.9 325.8 4.5 C 325.5 4.2 325.3 3.8 325.3 3.2 C 325.33 3.21 325.3 0.3 325.3 0.3 L 326 0.3 C 326 0.3 326 3.23 326 3.2 C 326 3.6 326.1 3.9 326.3 4.1 C 326.5 4.3 326.8 4.4 327.2 4.4 C 327.6 4.4 327.9 4.3 328.1 4.1 C 328.3 3.9 328.4 3.6 328.4 3.2 C 328.45 3.23 328.4 0.3 328.4 0.3 L 329.1 0.3 C 329.1 0.3 329.12 3.21 329.1 3.2 C 329.1 3.8 329 4.2 328.6 4.5 C 328.3 4.9 327.8 5 327.2 5 C 327.2 5 327.2 5 327.2 5 Z M 331.8 0.9 L 330.3 0.9 L 330.3 0.3 L 333.9 0.3 L 333.9 0.9 L 332.4 0.9 L 332.4 4.9 L 331.8 4.9 L 331.8 0.9 Z M 335.1 0.3 L 335.8 0.3 L 335.8 2.3 L 338.2 2.3 L 338.2 0.3 L 338.8 0.3 L 338.8 4.9 L 338.2 4.9 L 338.2 2.9 L 335.8 2.9 L 335.8 4.9 L 335.1 4.9 L 335.1 0.3 Z M 342.6 5 C 342.2 5 341.8 4.9 341.4 4.7 C 341 4.5 340.7 4.2 340.5 3.9 C 340.3 3.5 340.2 3.1 340.2 2.6 C 340.2 2.2 340.3 1.7 340.5 1.4 C 340.7 1 341 0.7 341.4 0.5 C 341.8 0.3 342.2 0.2 342.6 0.2 C 343.1 0.2 343.5 0.3 343.9 0.5 C 344.2 0.7 344.5 1 344.7 1.4 C 344.9 1.7 345 2.2 345 2.6 C 345 3.1 344.9 3.5 344.7 3.9 C 344.5 4.2 344.2 4.5 343.9 4.7 C 343.5 4.9 343.1 5 342.6 5 C 342.6 5 342.6 5 342.6 5 Z M 342.6 4.4 C 342.9 4.4 343.2 4.3 343.5 4.2 C 343.8 4 344 3.8 344.1 3.6 C 344.3 3.3 344.4 3 344.4 2.6 C 344.4 2.3 344.3 2 344.1 1.7 C 344 1.4 343.8 1.2 343.5 1.1 C 343.3 0.9 343 0.9 342.6 0.9 C 342.3 0.9 342 0.9 341.7 1.1 C 341.5 1.2 341.3 1.4 341.1 1.7 C 341 2 340.9 2.3 340.9 2.6 C 340.9 3 341 3.3 341.1 3.6 C 341.3 3.8 341.5 4 341.7 4.2 C 342 4.3 342.3 4.4 342.6 4.4 C 342.6 4.4 342.6 4.4 342.6 4.4 Z M 346.4 0.3 C 346.4 0.3 348.26 0.33 348.3 0.3 C 348.7 0.3 349.1 0.5 349.4 0.7 C 349.7 0.9 349.8 1.3 349.8 1.7 C 349.8 2.1 349.7 2.3 349.5 2.6 C 349.3 2.8 349.1 3 348.8 3.1 C 348.75 3.06 349.8 4.9 349.8 4.9 L 349.1 4.9 L 348.1 3.1 L 347.1 3.1 L 347.1 4.9 L 346.4 4.9 L 346.4 0.3 Z M 348.1 2.5 C 348.4 2.5 348.7 2.5 348.8 2.3 C 349 2.2 349.1 2 349.1 1.7 C 349.1 1.4 349 1.2 348.9 1.1 C 348.7 1 348.5 0.9 348.1 0.9 C 348.15 0.9 347.1 0.9 347.1 0.9 L 347.1 2.5 C 347.1 2.5 348.15 2.55 348.1 2.5 Z M 351.2 0.3 L 351.8 0.3 L 351.8 4.9 L 351.2 4.9 L 351.2 0.3 Z M 353.2 4.5 L 355.8 0.9 L 353.3 0.9 L 353.3 0.3 L 356.6 0.3 L 356.6 0.8 L 354 4.4 L 356.7 4.4 L 356.7 4.9 L 353.2 4.9 L 353.2 4.5 Z M 358.1 0.3 L 361.1 0.3 L 361.1 0.9 L 358.7 0.9 L 358.7 2.3 L 360.5 2.3 L 360.5 2.9 L 358.7 2.9 L 358.7 4.4 L 361.1 4.4 L 361.1 4.9 L 358.1 4.9 L 358.1 0.3 Z M 362.4 0.3 C 362.4 0.3 363.9 0.33 363.9 0.3 C 364.4 0.3 364.8 0.4 365.2 0.6 C 365.6 0.8 365.8 1.1 366 1.4 C 366.2 1.7 366.3 2.1 366.3 2.6 C 366.3 3.4 366.1 3.9 365.7 4.3 C 365.2 4.7 364.6 4.9 363.8 4.9 C 363.81 4.92 362.4 4.9 362.4 4.9 L 362.4 0.3 Z M 363.8 4.4 C 364.4 4.4 364.9 4.2 365.2 3.9 C 365.5 3.6 365.6 3.2 365.6 2.6 C 365.6 2.1 365.5 1.7 365.2 1.4 C 364.9 1.1 364.5 0.9 363.9 0.9 C 363.91 0.9 363.1 0.9 363.1 0.9 L 363.1 4.4 C 363.1 4.4 363.8 4.36 363.8 4.4 Z M 373.1 5 C 372.6 5 372.2 4.9 371.8 4.7 C 371.4 4.5 371.2 4.2 371 3.9 C 370.7 3.5 370.6 3.1 370.6 2.6 C 370.6 2.2 370.7 1.7 371 1.4 C 371.2 1 371.4 0.7 371.8 0.5 C 372.2 0.3 372.6 0.2 373.1 0.2 C 373.7 0.2 374.2 0.4 374.7 0.7 C 374.7 0.7 374.7 1.4 374.7 1.4 C 374.3 1 373.8 0.9 373.1 0.9 C 372.8 0.9 372.5 0.9 372.2 1.1 C 371.9 1.2 371.7 1.4 371.6 1.7 C 371.4 2 371.3 2.3 371.3 2.6 C 371.3 3 371.4 3.3 371.6 3.6 C 371.7 3.8 371.9 4.1 372.2 4.2 C 372.5 4.3 372.8 4.4 373.1 4.4 C 373.5 4.4 373.7 4.4 374 4.3 C 374.3 4.2 374.5 4.1 374.7 3.9 C 374.7 3.9 374.7 4.5 374.7 4.5 C 374.3 4.9 373.8 5 373.1 5 C 373.1 5 373.1 5 373.1 5 Z M 378.2 5 C 377.8 5 377.3 4.9 377 4.7 C 376.6 4.5 376.3 4.2 376.1 3.9 C 375.9 3.5 375.8 3.1 375.8 2.6 C 375.8 2.2 375.9 1.7 376.1 1.4 C 376.3 1 376.6 0.7 377 0.5 C 377.3 0.3 377.8 0.2 378.2 0.2 C 378.7 0.2 379.1 0.3 379.4 0.5 C 379.8 0.7 380.1 1 380.3 1.4 C 380.5 1.7 380.6 2.2 380.6 2.6 C 380.6 3.1 380.5 3.5 380.3 3.9 C 380.1 4.2 379.8 4.5 379.4 4.7 C 379.1 4.9 378.7 5 378.2 5 C 378.2 5 378.2 5 378.2 5 Z M 378.2 4.4 C 378.5 4.4 378.8 4.3 379.1 4.2 C 379.4 4 379.6 3.8 379.7 3.6 C 379.9 3.3 379.9 3 379.9 2.6 C 379.9 2.3 379.9 2 379.7 1.7 C 379.6 1.4 379.4 1.2 379.1 1.1 C 378.8 0.9 378.5 0.9 378.2 0.9 C 377.9 0.9 377.6 0.9 377.3 1.1 C 377.1 1.2 376.9 1.4 376.7 1.7 C 376.5 2 376.5 2.3 376.5 2.6 C 376.5 3 376.5 3.3 376.7 3.6 C 376.9 3.8 377.1 4 377.3 4.2 C 377.6 4.3 377.9 4.4 378.2 4.4 C 378.2 4.4 378.2 4.4 378.2 4.4 Z M 382 0.3 C 382 0.3 383.77 0.33 383.8 0.3 C 384.3 0.3 384.7 0.5 384.9 0.7 C 385.2 1 385.4 1.3 385.4 1.8 C 385.4 2.2 385.2 2.6 384.9 2.8 C 384.7 3 384.3 3.2 383.8 3.2 C 383.77 3.17 382.7 3.2 382.7 3.2 L 382.7 4.9 L 382 4.9 L 382 0.3 Z M 383.7 2.6 C 384 2.6 384.2 2.5 384.4 2.4 C 384.6 2.3 384.7 2.1 384.7 1.8 C 384.7 1.4 384.6 1.2 384.4 1.1 C 384.2 1 384 0.9 383.7 0.9 C 383.7 0.9 382.7 0.9 382.7 0.9 L 382.7 2.6 C 382.7 2.6 383.7 2.61 383.7 2.6 Z M 387.8 3.2 L 386.1 0.3 L 386.8 0.3 L 388.1 2.5 L 389.4 0.3 L 390.1 0.3 L 388.4 3.2 L 388.4 4.9 L 387.8 4.9 L 387.8 3.2 Z M 391.5 0.3 L 392.2 0.3 L 392.2 4.9 L 391.5 4.9 L 391.5 0.3 Z M 393.7 0.3 L 394.3 0.3 L 396.7 3.8 L 396.7 0.3 L 397.3 0.3 L 397.3 4.9 L 396.7 4.9 L 394.4 1.5 L 394.4 4.9 L 393.7 4.9 L 393.7 0.3 Z M 401.1 5 C 400.7 5 400.2 4.9 399.9 4.7 C 399.5 4.5 399.2 4.2 399 3.9 C 398.8 3.5 398.7 3.1 398.7 2.6 C 398.7 2.2 398.8 1.7 399 1.4 C 399.2 1 399.5 0.7 399.9 0.5 C 400.2 0.3 400.7 0.2 401.1 0.2 C 401.8 0.2 402.3 0.4 402.7 0.7 C 402.7 0.7 402.7 1.4 402.7 1.4 C 402.3 1 401.8 0.9 401.2 0.9 C 400.9 0.9 400.5 0.9 400.3 1.1 C 400 1.2 399.8 1.4 399.6 1.7 C 399.5 2 399.4 2.3 399.4 2.6 C 399.4 3 399.5 3.3 399.6 3.6 C 399.8 3.8 400 4.1 400.3 4.2 C 400.5 4.3 400.8 4.4 401.2 4.4 C 401.6 4.4 401.9 4.3 402.2 4.2 C 402.15 4.17 402.2 3 402.2 3 L 401.3 3 L 401.3 2.4 L 402.8 2.4 C 402.8 2.4 402.82 4.53 402.8 4.5 C 402.6 4.7 402.4 4.8 402.1 4.9 C 401.8 5 401.5 5 401.1 5 C 401.1 5 401.1 5 401.1 5 Z M 409.6 5 C 409.1 5 408.7 4.9 408.3 4.7 C 408 4.5 407.7 4.2 407.5 3.9 C 407.3 3.5 407.2 3.1 407.2 2.6 C 407.2 2.2 407.3 1.7 407.5 1.4 C 407.7 1 408 0.7 408.3 0.5 C 408.7 0.3 409.1 0.2 409.6 0.2 C 410 0.2 410.4 0.3 410.8 0.5 C 411.2 0.7 411.5 1 411.7 1.4 C 411.9 1.7 412 2.2 412 2.6 C 412 3.1 411.9 3.5 411.7 3.9 C 411.5 4.2 411.2 4.5 410.8 4.7 C 410.4 4.9 410 5 409.6 5 C 409.6 5 409.6 5 409.6 5 Z M 409.6 4.4 C 409.9 4.4 410.2 4.3 410.4 4.2 C 410.7 4 410.9 3.8 411.1 3.6 C 411.2 3.3 411.3 3 411.3 2.6 C 411.3 2.3 411.2 2 411.1 1.7 C 410.9 1.4 410.7 1.2 410.5 1.1 C 410.2 0.9 409.9 0.9 409.6 0.9 C 409.3 0.9 409 0.9 408.7 1.1 C 408.4 1.2 408.2 1.4 408.1 1.7 C 407.9 2 407.8 2.3 407.8 2.6 C 407.8 3 407.9 3.3 408.1 3.6 C 408.2 3.8 408.4 4 408.7 4.2 C 408.9 4.3 409.2 4.4 409.6 4.4 C 409.6 4.4 409.6 4.4 409.6 4.4 Z M 413.4 0.3 C 413.4 0.3 415.2 0.33 415.2 0.3 C 415.7 0.3 416.1 0.5 416.3 0.7 C 416.6 0.9 416.7 1.3 416.7 1.7 C 416.7 2.1 416.6 2.3 416.5 2.6 C 416.3 2.8 416 3 415.7 3.1 C 415.69 3.06 416.7 4.9 416.7 4.9 L 416 4.9 L 415 3.1 L 414 3.1 L 414 4.9 L 413.4 4.9 L 413.4 0.3 Z M 415.1 2.5 C 415.4 2.5 415.6 2.5 415.8 2.3 C 416 2.2 416 2 416 1.7 C 416 1.4 416 1.2 415.8 1.1 C 415.6 1 415.4 0.9 415.1 0.9 C 415.09 0.9 414 0.9 414 0.9 L 414 2.5 C 414 2.5 415.09 2.55 415.1 2.5 Z M 423 5 C 422.4 5 421.9 4.9 421.6 4.5 C 421.3 4.2 421.2 3.8 421.2 3.2 C 421.15 3.21 421.2 0.3 421.2 0.3 L 421.8 0.3 C 421.8 0.3 421.82 3.23 421.8 3.2 C 421.8 3.6 421.9 3.9 422.1 4.1 C 422.4 4.3 422.7 4.4 423 4.4 C 423.4 4.4 423.7 4.3 423.9 4.1 C 424.2 3.9 424.3 3.6 424.3 3.2 C 424.27 3.23 424.3 0.3 424.3 0.3 L 424.9 0.3 C 424.9 0.3 424.94 3.21 424.9 3.2 C 424.9 3.8 424.8 4.2 424.5 4.5 C 424.1 4.9 423.7 5 423 5 C 423 5 423 5 423 5 Z M 427.7 5 C 427.4 5 427.2 5 426.9 5 C 426.7 4.9 426.4 4.8 426.3 4.8 C 426.3 4.8 426.3 4.2 426.3 4.2 C 426.7 4.4 427.2 4.5 427.6 4.5 C 428.3 4.5 428.7 4.2 428.7 3.8 C 428.7 3.6 428.6 3.5 428.6 3.4 C 428.5 3.3 428.4 3.2 428.2 3.1 C 428.1 3.1 427.9 3 427.5 2.8 C 427.1 2.7 426.8 2.5 426.6 2.3 C 426.4 2 426.3 1.8 426.3 1.5 C 426.3 1.2 426.4 1 426.5 0.8 C 426.6 0.6 426.8 0.5 427.1 0.4 C 427.3 0.3 427.6 0.2 427.9 0.2 C 428.1 0.2 428.4 0.3 428.6 0.3 C 428.8 0.3 429 0.4 429.1 0.5 C 429.1 0.5 429.1 1.1 429.1 1.1 C 428.8 0.9 428.4 0.8 428 0.8 C 427.7 0.8 427.4 0.9 427.3 1 C 427.1 1.1 427 1.3 427 1.5 C 427 1.6 427.1 1.7 427.1 1.8 C 427.2 1.9 427.3 2 427.5 2.1 C 427.6 2.2 427.8 2.3 428.1 2.4 C 428.4 2.5 428.6 2.6 428.8 2.7 C 429 2.8 429.1 3 429.2 3.2 C 429.3 3.3 429.4 3.5 429.4 3.8 C 429.4 4.2 429.2 4.5 428.9 4.7 C 428.7 4.9 428.2 5 427.7 5 C 427.7 5 427.7 5 427.7 5 Z M 430.8 0.3 L 433.8 0.3 L 433.8 0.9 L 431.4 0.9 L 431.4 2.3 L 433.2 2.3 L 433.2 2.9 L 431.4 2.9 L 431.4 4.4 L 433.8 4.4 L 433.8 4.9 L 430.8 4.9 L 430.8 0.3 Z M 440.5 5 C 440 5 439.6 4.9 439.3 4.7 C 438.9 4.5 438.6 4.2 438.4 3.9 C 438.2 3.5 438.1 3.1 438.1 2.6 C 438.1 2.2 438.2 1.7 438.4 1.4 C 438.6 1 438.9 0.7 439.3 0.5 C 439.6 0.3 440 0.2 440.5 0.2 C 440.9 0.2 441.4 0.3 441.7 0.5 C 442.1 0.7 442.4 1 442.6 1.4 C 442.8 1.7 442.9 2.2 442.9 2.6 C 442.9 3.1 442.8 3.5 442.6 3.9 C 442.4 4.2 442.1 4.5 441.7 4.7 C 441.4 4.9 440.9 5 440.5 5 C 440.5 5 440.5 5 440.5 5 Z M 440.5 4.4 C 440.8 4.4 441.1 4.3 441.4 4.2 C 441.6 4 441.8 3.8 442 3.6 C 442.1 3.3 442.2 3 442.2 2.6 C 442.2 2.3 442.2 2 442 1.7 C 441.8 1.4 441.6 1.2 441.4 1.1 C 441.1 0.9 440.8 0.9 440.5 0.9 C 440.2 0.9 439.9 0.9 439.6 1.1 C 439.3 1.2 439.1 1.4 439 1.7 C 438.8 2 438.7 2.3 438.7 2.6 C 438.7 3 438.8 3.3 439 3.6 C 439.1 3.8 439.3 4 439.6 4.2 C 439.9 4.3 440.2 4.4 440.5 4.4 C 440.5 4.4 440.5 4.4 440.5 4.4 Z M 444.3 0.3 L 447.3 0.3 L 447.3 0.9 L 444.9 0.9 L 444.9 2.4 L 446.7 2.4 L 446.7 2.9 L 444.9 2.9 L 444.9 4.9 L 444.3 4.9 L 444.3 0.3 Z M 453.3 0.3 L 454 0.3 L 455.8 4.9 L 455.1 4.9 L 454.7 3.8 L 452.6 3.8 L 452.2 4.9 L 451.5 4.9 L 453.3 0.3 Z M 454.5 3.2 L 453.7 1.1 L 452.8 3.2 L 454.5 3.2 Z M 457.2 0.3 L 457.8 0.3 L 460.2 3.8 L 460.2 0.3 L 460.8 0.3 L 460.8 4.9 L 460.2 4.9 L 457.9 1.5 L 457.9 4.9 L 457.2 4.9 L 457.2 0.3 Z M 463.6 3.2 L 461.9 0.3 L 462.6 0.3 L 463.9 2.5 L 465.2 0.3 L 465.9 0.3 L 464.2 3.2 L 464.2 4.9 L 463.6 4.9 L 463.6 3.2 Z M 470.4 0.3 L 471 0.3 L 472.7 3.9 L 474.3 0.3 L 475 0.3 L 475 4.9 L 474.3 4.9 L 474.3 1.7 L 472.8 4.9 L 472.5 4.9 L 471 1.7 L 471 4.9 L 470.4 4.9 L 470.4 0.3 Z M 478 0.3 L 478.7 0.3 L 480.5 4.9 L 479.8 4.9 L 479.4 3.8 L 477.3 3.8 L 476.9 4.9 L 476.2 4.9 L 478 0.3 Z M 479.2 3.2 L 478.3 1.1 L 477.5 3.2 L 479.2 3.2 Z M 482.2 0.9 L 480.8 0.9 L 480.8 0.3 L 484.3 0.3 L 484.3 0.9 L 482.9 0.9 L 482.9 4.9 L 482.2 4.9 L 482.2 0.9 Z M 485.6 0.3 L 488.6 0.3 L 488.6 0.9 L 486.2 0.9 L 486.2 2.3 L 488 2.3 L 488 2.9 L 486.2 2.9 L 486.2 4.4 L 488.6 4.4 L 488.6 4.9 L 485.6 4.9 L 485.6 0.3 Z M 489.9 0.3 C 489.9 0.3 491.78 0.33 491.8 0.3 C 492.3 0.3 492.6 0.5 492.9 0.7 C 493.2 0.9 493.3 1.3 493.3 1.7 C 493.3 2.1 493.2 2.3 493 2.6 C 492.9 2.8 492.6 3 492.3 3.1 C 492.27 3.06 493.3 4.9 493.3 4.9 L 492.6 4.9 L 491.6 3.1 L 490.6 3.1 L 490.6 4.9 L 489.9 4.9 L 489.9 0.3 Z M 491.7 2.5 C 492 2.5 492.2 2.5 492.4 2.3 C 492.5 2.2 492.6 2 492.6 1.7 C 492.6 1.4 492.5 1.2 492.4 1.1 C 492.2 1 492 0.9 491.7 0.9 C 491.67 0.9 490.6 0.9 490.6 0.9 L 490.6 2.5 C 490.6 2.5 491.67 2.55 491.7 2.5 Z M 494.7 0.3 L 495.4 0.3 L 495.4 4.9 L 494.7 4.9 L 494.7 0.3 Z M 498.6 0.3 L 499.2 0.3 L 501 4.9 L 500.4 4.9 L 499.9 3.8 L 497.9 3.8 L 497.4 4.9 L 496.7 4.9 L 498.6 0.3 Z M 499.7 3.2 L 498.9 1.1 L 498.1 3.2 L 499.7 3.2 Z M 502.4 0.3 L 503.1 0.3 L 503.1 4.4 L 505.4 4.4 L 505.4 4.9 L 502.4 4.9 L 502.4 0.3 Z M 509.7 0.3 L 510.4 0.3 L 510.4 4.9 L 509.7 4.9 L 509.7 0.3 Z M 511.9 0.3 L 512.6 0.3 L 514.9 3.8 L 514.9 0.3 L 515.6 0.3 L 515.6 4.9 L 514.9 4.9 L 512.6 1.5 L 512.6 4.9 L 511.9 4.9 L 511.9 0.3 Z M 521.3 0.9 L 519.9 0.9 L 519.9 0.3 L 523.4 0.3 L 523.4 0.9 L 522 0.9 L 522 4.9 L 521.3 4.9 L 521.3 0.9 Z M 524.7 0.3 L 525.3 0.3 L 525.3 2.3 L 527.7 2.3 L 527.7 0.3 L 528.4 0.3 L 528.4 4.9 L 527.7 4.9 L 527.7 2.9 L 525.3 2.9 L 525.3 4.9 L 524.7 4.9 L 524.7 0.3 Z M 529.9 0.3 L 530.6 0.3 L 530.6 4.9 L 529.9 4.9 L 529.9 0.3 Z M 533.4 5 C 533.1 5 532.8 5 532.6 5 C 532.3 4.9 532.1 4.8 532 4.8 C 532 4.8 532 4.2 532 4.2 C 532.4 4.4 532.8 4.5 533.3 4.5 C 534 4.5 534.3 4.2 534.3 3.8 C 534.3 3.6 534.3 3.5 534.2 3.4 C 534.2 3.3 534.1 3.2 533.9 3.1 C 533.8 3.1 533.5 3 533.2 2.8 C 532.8 2.7 532.5 2.5 532.3 2.3 C 532.1 2 532 1.8 532 1.5 C 532 1.2 532.1 1 532.2 0.8 C 532.3 0.6 532.5 0.5 532.8 0.4 C 533 0.3 533.3 0.2 533.6 0.2 C 533.8 0.2 534 0.3 534.2 0.3 C 534.4 0.3 534.6 0.4 534.8 0.5 C 534.8 0.5 534.8 1.1 534.8 1.1 C 534.5 0.9 534.1 0.8 533.7 0.8 C 533.4 0.8 533.1 0.9 533 1 C 532.8 1.1 532.7 1.3 532.7 1.5 C 532.7 1.6 532.7 1.7 532.8 1.8 C 532.9 1.9 533 2 533.1 2.1 C 533.3 2.2 533.5 2.3 533.8 2.4 C 534.1 2.5 534.3 2.6 534.5 2.7 C 534.7 2.8 534.8 3 534.9 3.2 C 535 3.3 535.1 3.5 535.1 3.8 C 535.1 4.2 534.9 4.5 534.6 4.7 C 534.3 4.9 533.9 5 533.4 5 C 533.4 5 533.4 5 533.4 5 Z M 541.8 5 C 541.3 5 540.9 4.9 540.6 4.7 C 540.2 4.5 539.9 4.2 539.7 3.9 C 539.5 3.5 539.4 3.1 539.4 2.6 C 539.4 2.2 539.5 1.7 539.7 1.4 C 539.9 1 540.2 0.7 540.6 0.5 C 540.9 0.3 541.3 0.2 541.8 0.2 C 542.4 0.2 543 0.4 543.4 0.7 C 543.4 0.7 543.4 1.4 543.4 1.4 C 543 1 542.5 0.9 541.9 0.9 C 541.5 0.9 541.2 0.9 540.9 1.1 C 540.7 1.2 540.4 1.4 540.3 1.7 C 540.1 2 540.1 2.3 540.1 2.6 C 540.1 3 540.1 3.3 540.3 3.6 C 540.4 3.8 540.7 4.1 540.9 4.2 C 541.2 4.3 541.5 4.4 541.9 4.4 C 542.2 4.4 542.5 4.4 542.7 4.3 C 543 4.2 543.2 4.1 543.5 3.9 C 543.5 3.9 543.5 4.5 543.5 4.5 C 543.1 4.9 542.5 5 541.8 5 C 541.8 5 541.8 5 541.8 5 Z M 547 5 C 546.5 5 546.1 4.9 545.7 4.7 C 545.3 4.5 545.1 4.2 544.9 3.9 C 544.6 3.5 544.5 3.1 544.5 2.6 C 544.5 2.2 544.6 1.7 544.9 1.4 C 545.1 1 545.3 0.7 545.7 0.5 C 546.1 0.3 546.5 0.2 547 0.2 C 547.4 0.2 547.8 0.3 548.2 0.5 C 548.6 0.7 548.8 1 549.1 1.4 C 549.3 1.7 549.4 2.2 549.4 2.6 C 549.4 3.1 549.3 3.5 549.1 3.9 C 548.8 4.2 548.6 4.5 548.2 4.7 C 547.8 4.9 547.4 5 547 5 C 547 5 547 5 547 5 Z M 547 4.4 C 547.3 4.4 547.6 4.3 547.8 4.2 C 548.1 4 548.3 3.8 548.5 3.6 C 548.6 3.3 548.7 3 548.7 2.6 C 548.7 2.3 548.6 2 548.5 1.7 C 548.3 1.4 548.1 1.2 547.8 1.1 C 547.6 0.9 547.3 0.9 547 0.9 C 546.6 0.9 546.3 0.9 546.1 1.1 C 545.8 1.2 545.6 1.4 545.4 1.7 C 545.3 2 545.2 2.3 545.2 2.6 C 545.2 3 545.3 3.3 545.4 3.6 C 545.6 3.8 545.8 4 546.1 4.2 C 546.3 4.3 546.6 4.4 547 4.4 C 547 4.4 547 4.4 547 4.4 Z M 550.7 0.3 L 551.4 0.3 L 553.7 3.8 L 553.7 0.3 L 554.4 0.3 L 554.4 4.9 L 553.7 4.9 L 551.4 1.5 L 551.4 4.9 L 550.7 4.9 L 550.7 0.3 Z M 555.9 0.3 L 558.9 0.3 L 558.9 0.9 L 556.6 0.9 L 556.6 2.4 L 558.3 2.4 L 558.3 2.9 L 556.6 2.9 L 556.6 4.9 L 555.9 4.9 L 555.9 0.3 Z M 560.2 0.3 L 560.8 0.3 L 560.8 4.9 L 560.2 4.9 L 560.2 0.3 Z M 562.4 0.3 C 562.4 0.3 563.83 0.33 563.8 0.3 C 564.3 0.3 564.8 0.4 565.1 0.6 C 565.5 0.8 565.8 1.1 566 1.4 C 566.1 1.7 566.2 2.1 566.2 2.6 C 566.2 3.4 566 3.9 565.6 4.3 C 565.1 4.7 564.5 4.9 563.7 4.9 C 563.74 4.92 562.4 4.9 562.4 4.9 L 562.4 0.3 Z M 563.7 4.4 C 564.3 4.4 564.8 4.2 565.1 3.9 C 565.4 3.6 565.6 3.2 565.6 2.6 C 565.6 2.1 565.4 1.7 565.1 1.4 C 564.8 1.1 564.4 0.9 563.8 0.9 C 563.84 0.9 563 0.9 563 0.9 L 563 4.4 C 563 4.4 563.73 4.36 563.7 4.4 Z M 567.6 0.3 L 570.6 0.3 L 570.6 0.9 L 568.3 0.9 L 568.3 2.3 L 570.1 2.3 L 570.1 2.9 L 568.3 2.9 L 568.3 4.4 L 570.6 4.4 L 570.6 4.9 L 567.6 4.9 L 567.6 0.3 Z M 572 0.3 L 572.6 0.3 L 575 3.8 L 575 0.3 L 575.6 0.3 L 575.6 4.9 L 575 4.9 L 572.7 1.5 L 572.7 4.9 L 572 4.9 L 572 0.3 Z M 578.3 0.9 L 576.9 0.9 L 576.9 0.3 L 580.4 0.3 L 580.4 0.9 L 579 0.9 L 579 4.9 L 578.3 4.9 L 578.3 0.9 Z M 581.7 0.3 L 582.3 0.3 L 582.3 4.9 L 581.7 4.9 L 581.7 0.3 Z M 585.5 0.3 L 586.2 0.3 L 588 4.9 L 587.3 4.9 L 586.9 3.8 L 584.8 3.8 L 584.4 4.9 L 583.7 4.9 L 585.5 0.3 Z M 586.7 3.2 L 585.9 1.1 L 585 3.2 L 586.7 3.2 Z M 589.4 0.3 L 590.1 0.3 L 590.1 4.4 L 592.4 4.4 L 592.4 4.9 L 589.4 4.9 L 589.4 0.3 Z M 596.7 0.3 C 596.7 0.3 598.19 0.33 598.2 0.3 C 598.7 0.3 599.1 0.4 599.5 0.6 C 599.8 0.8 600.1 1.1 600.3 1.4 C 600.5 1.7 600.6 2.1 600.6 2.6 C 600.6 3.4 600.4 3.9 599.9 4.3 C 599.5 4.7 598.9 4.9 598.1 4.9 C 598.1 4.92 596.7 4.9 596.7 4.9 L 596.7 0.3 Z M 598.1 4.4 C 598.7 4.4 599.2 4.2 599.5 3.9 C 599.8 3.6 599.9 3.2 599.9 2.6 C 599.9 2.1 599.8 1.7 599.5 1.4 C 599.2 1.1 598.8 0.9 598.2 0.9 C 598.2 0.9 597.4 0.9 597.4 0.9 L 597.4 4.4 C 597.4 4.4 598.09 4.36 598.1 4.4 Z M 604.3 5 C 603.8 5 603.4 4.9 603 4.7 C 602.7 4.5 602.4 4.2 602.2 3.9 C 602 3.5 601.9 3.1 601.9 2.6 C 601.9 2.2 602 1.7 602.2 1.4 C 602.4 1 602.7 0.7 603 0.5 C 603.4 0.3 603.8 0.2 604.3 0.2 C 604.7 0.2 605.1 0.3 605.5 0.5 C 605.9 0.7 606.2 1 606.4 1.4 C 606.6 1.7 606.7 2.2 606.7 2.6 C 606.7 3.1 606.6 3.5 606.4 3.9 C 606.2 4.2 605.9 4.5 605.5 4.7 C 605.1 4.9 604.7 5 604.3 5 C 604.3 5 604.3 5 604.3 5 Z M 604.3 4.4 C 604.6 4.4 604.9 4.3 605.1 4.2 C 605.4 4 605.6 3.8 605.8 3.6 C 605.9 3.3 606 3 606 2.6 C 606 2.3 605.9 2 605.8 1.7 C 605.6 1.4 605.4 1.2 605.2 1.1 C 604.9 0.9 604.6 0.9 604.3 0.9 C 604 0.9 603.7 0.9 603.4 1.1 C 603.1 1.2 602.9 1.4 602.8 1.7 C 602.6 2 602.5 2.3 602.5 2.6 C 602.5 3 602.6 3.3 602.8 3.6 C 602.9 3.8 603.1 4 603.4 4.2 C 603.6 4.3 603.9 4.4 604.3 4.4 C 604.3 4.4 604.3 4.4 604.3 4.4 Z M 610.3 5 C 609.8 5 609.4 4.9 609 4.7 C 608.6 4.5 608.3 4.2 608.1 3.9 C 607.9 3.5 607.8 3.1 607.8 2.6 C 607.8 2.2 607.9 1.7 608.1 1.4 C 608.3 1 608.6 0.7 609 0.5 C 609.4 0.3 609.8 0.2 610.3 0.2 C 610.9 0.2 611.4 0.4 611.8 0.7 C 611.8 0.7 611.8 1.4 611.8 1.4 C 611.5 1 610.9 0.9 610.3 0.9 C 610 0.9 609.6 0.9 609.4 1.1 C 609.1 1.2 608.9 1.4 608.7 1.7 C 608.6 2 608.5 2.3 608.5 2.6 C 608.5 3 608.6 3.3 608.7 3.6 C 608.9 3.8 609.1 4.1 609.4 4.2 C 609.7 4.3 610 4.4 610.3 4.4 C 610.6 4.4 610.9 4.4 611.2 4.3 C 611.4 4.2 611.7 4.1 611.9 3.9 C 611.9 3.9 611.9 4.5 611.9 4.5 C 611.5 4.9 611 5 610.3 5 C 610.3 5 610.3 5 610.3 5 Z M 615.1 5 C 614.5 5 614 4.9 613.7 4.5 C 613.4 4.2 613.2 3.8 613.2 3.2 C 613.24 3.21 613.2 0.3 613.2 0.3 L 613.9 0.3 C 613.9 0.3 613.91 3.23 613.9 3.2 C 613.9 3.6 614 3.9 614.2 4.1 C 614.5 4.3 614.8 4.4 615.1 4.4 C 615.5 4.4 615.8 4.3 616 4.1 C 616.2 3.9 616.4 3.6 616.4 3.2 C 616.36 3.23 616.4 0.3 616.4 0.3 L 617 0.3 C 617 0.3 617.03 3.21 617 3.2 C 617 3.8 616.9 4.2 616.5 4.5 C 616.2 4.9 615.8 5 615.1 5 C 615.1 5 615.1 5 615.1 5 Z M 618.5 0.3 L 619.2 0.3 L 620.8 3.9 L 622.4 0.3 L 623.1 0.3 L 623.1 4.9 L 622.5 4.9 L 622.5 1.7 L 621 4.9 L 620.6 4.9 L 619.1 1.7 L 619.1 4.9 L 618.5 4.9 L 618.5 0.3 Z M 624.6 0.3 L 627.6 0.3 L 627.6 0.9 L 625.3 0.9 L 625.3 2.3 L 627 2.3 L 627 2.9 L 625.3 2.9 L 625.3 4.4 L 627.6 4.4 L 627.6 4.9 L 624.6 4.9 L 624.6 0.3 Z M 629 0.3 L 629.6 0.3 L 632 3.8 L 632 0.3 L 632.6 0.3 L 632.6 4.9 L 632 4.9 L 629.7 1.5 L 629.7 4.9 L 629 4.9 L 629 0.3 Z M 635.3 0.9 L 633.9 0.9 L 633.9 0.3 L 637.4 0.3 L 637.4 0.9 L 636 0.9 L 636 4.9 L 635.3 4.9 L 635.3 0.9 Z M 641.6 0.3 L 642.3 0.3 L 643.3 3.8 L 644.3 0.3 L 644.9 0.3 L 645.9 3.8 L 646.9 0.3 L 647.6 0.3 L 646.2 4.9 L 645.6 4.9 L 644.6 1.5 L 643.6 4.9 L 642.9 4.9 L 641.6 0.3 Z M 649 0.3 L 649.6 0.3 L 649.6 4.9 L 649 4.9 L 649 0.3 Z M 652.3 0.9 L 650.9 0.9 L 650.9 0.3 L 654.4 0.3 L 654.4 0.9 L 653 0.9 L 653 4.9 L 652.3 4.9 L 652.3 0.9 Z M 655.7 0.3 L 656.3 0.3 L 656.3 2.3 L 658.7 2.3 L 658.7 0.3 L 659.4 0.3 L 659.4 4.9 L 658.7 4.9 L 658.7 2.9 L 656.3 2.9 L 656.3 4.9 L 655.7 4.9 L 655.7 0.3 Z M 663.2 5 C 662.7 5 662.3 4.9 661.9 4.7 C 661.6 4.5 661.3 4.2 661.1 3.9 C 660.9 3.5 660.8 3.1 660.8 2.6 C 660.8 2.2 660.9 1.7 661.1 1.4 C 661.3 1 661.6 0.7 661.9 0.5 C 662.3 0.3 662.7 0.2 663.2 0.2 C 663.6 0.2 664 0.3 664.4 0.5 C 664.8 0.7 665.1 1 665.3 1.4 C 665.5 1.7 665.6 2.2 665.6 2.6 C 665.6 3.1 665.5 3.5 665.3 3.9 C 665.1 4.2 664.8 4.5 664.4 4.7 C 664 4.9 663.6 5 663.2 5 C 663.2 5 663.2 5 663.2 5 Z M 663.2 4.4 C 663.5 4.4 663.8 4.3 664.1 4.2 C 664.3 4 664.5 3.8 664.7 3.6 C 664.8 3.3 664.9 3 664.9 2.6 C 664.9 2.3 664.8 2 664.7 1.7 C 664.5 1.4 664.3 1.2 664.1 1.1 C 663.8 0.9 663.5 0.9 663.2 0.9 C 662.9 0.9 662.6 0.9 662.3 1.1 C 662 1.2 661.8 1.4 661.7 1.7 C 661.5 2 661.4 2.3 661.4 2.6 C 661.4 3 661.5 3.3 661.7 3.6 C 661.8 3.8 662 4 662.3 4.2 C 662.6 4.3 662.9 4.4 663.2 4.4 C 663.2 4.4 663.2 4.4 663.2 4.4 Z M 668.8 5 C 668.2 5 667.7 4.9 667.4 4.5 C 667.1 4.2 666.9 3.8 666.9 3.2 C 666.94 3.21 666.9 0.3 666.9 0.3 L 667.6 0.3 C 667.6 0.3 667.61 3.23 667.6 3.2 C 667.6 3.6 667.7 3.9 667.9 4.1 C 668.2 4.3 668.5 4.4 668.8 4.4 C 669.2 4.4 669.5 4.3 669.7 4.1 C 669.9 3.9 670.1 3.6 670.1 3.2 C 670.05 3.23 670.1 0.3 670.1 0.3 L 670.7 0.3 C 670.7 0.3 670.72 3.21 670.7 3.2 C 670.7 3.8 670.6 4.2 670.2 4.5 C 669.9 4.9 669.5 5 668.8 5 C 668.8 5 668.8 5 668.8 5 Z M 673.4 0.9 L 671.9 0.9 L 671.9 0.3 L 675.5 0.3 L 675.5 0.9 L 674 0.9 L 674 4.9 L 673.4 4.9 L 673.4 0.9 Z M 681 0.9 L 679.5 0.9 L 679.5 0.3 L 683.1 0.3 L 683.1 0.9 L 681.6 0.9 L 681.6 4.9 L 681 4.9 L 681 0.9 Z M 684.3 0.3 L 685 0.3 L 685 2.3 L 687.4 2.3 L 687.4 0.3 L 688 0.3 L 688 4.9 L 687.4 4.9 L 687.4 2.9 L 685 2.9 L 685 4.9 L 684.3 4.9 L 684.3 0.3 Z M 689.5 0.3 L 692.6 0.3 L 692.6 0.9 L 690.2 0.9 L 690.2 2.3 L 692 2.3 L 692 2.9 L 690.2 2.9 L 690.2 4.4 L 692.6 4.4 L 692.6 4.9 L 689.5 4.9 L 689.5 0.3 Z M 697 0.3 L 700 0.3 L 700 0.9 L 697.7 0.9 L 697.7 2.3 L 699.4 2.3 L 699.4 2.9 L 697.7 2.9 L 697.7 4.4 L 700 4.4 L 700 4.9 L 697 4.9 L 697 0.3 Z M 702.9 2.6 L 701.3 0.3 L 702 0.3 L 703.3 2.1 L 704.6 0.3 L 705.3 0.3 L 703.7 2.6 L 705.4 4.9 L 704.6 4.9 L 703.3 3.1 L 702 4.9 L 701.2 4.9 L 702.9 2.6 Z M 706.8 0.3 C 706.8 0.3 708.55 0.33 708.6 0.3 C 709 0.3 709.4 0.5 709.7 0.7 C 710 1 710.2 1.3 710.2 1.8 C 710.2 2.2 710 2.6 709.7 2.8 C 709.4 3 709.1 3.2 708.6 3.2 C 708.55 3.17 707.5 3.2 707.5 3.2 L 707.5 4.9 L 706.8 4.9 L 706.8 0.3 Z M 708.5 2.6 C 708.8 2.6 709 2.5 709.2 2.4 C 709.4 2.3 709.5 2.1 709.5 1.8 C 709.5 1.4 709.4 1.2 709.2 1.1 C 709 1 708.8 0.9 708.5 0.9 C 708.48 0.9 707.5 0.9 707.5 0.9 L 707.5 2.6 C 707.5 2.6 708.48 2.61 708.5 2.6 Z M 711.4 0.3 C 711.4 0.3 713.24 0.33 713.2 0.3 C 713.7 0.3 714.1 0.5 714.4 0.7 C 714.6 0.9 714.8 1.3 714.8 1.7 C 714.8 2.1 714.7 2.3 714.5 2.6 C 714.3 2.8 714.1 3 713.7 3.1 C 713.74 3.06 714.7 4.9 714.7 4.9 L 714.1 4.9 L 713.1 3.1 L 712.1 3.1 L 712.1 4.9 L 711.4 4.9 L 711.4 0.3 Z M 713.1 2.5 C 713.4 2.5 713.7 2.5 713.8 2.3 C 714 2.2 714.1 2 714.1 1.7 C 714.1 1.4 714 1.2 713.8 1.1 C 713.7 1 713.4 0.9 713.1 0.9 C 713.13 0.9 712.1 0.9 712.1 0.9 L 712.1 2.5 C 712.1 2.5 713.13 2.55 713.1 2.5 Z M 716.1 0.3 L 719.2 0.3 L 719.2 0.9 L 716.8 0.9 L 716.8 2.3 L 718.6 2.3 L 718.6 2.9 L 716.8 2.9 L 716.8 4.4 L 719.2 4.4 L 719.2 4.9 L 716.1 4.9 L 716.1 0.3 Z M 721.8 5 C 721.5 5 721.3 5 721 5 C 720.8 4.9 720.5 4.8 720.4 4.8 C 720.4 4.8 720.4 4.2 720.4 4.2 C 720.8 4.4 721.3 4.5 721.7 4.5 C 722.4 4.5 722.8 4.2 722.8 3.8 C 722.8 3.6 722.7 3.5 722.7 3.4 C 722.6 3.3 722.5 3.2 722.3 3.1 C 722.2 3.1 722 3 721.6 2.8 C 721.2 2.7 720.9 2.5 720.7 2.3 C 720.5 2 720.4 1.8 720.4 1.5 C 720.4 1.2 720.5 1 720.6 0.8 C 720.7 0.6 720.9 0.5 721.2 0.4 C 721.4 0.3 721.7 0.2 722 0.2 C 722.2 0.2 722.5 0.3 722.7 0.3 C 722.9 0.3 723.1 0.4 723.2 0.5 C 723.2 0.5 723.2 1.1 723.2 1.1 C 722.9 0.9 722.5 0.8 722.1 0.8 C 721.8 0.8 721.5 0.9 721.4 1 C 721.2 1.1 721.1 1.3 721.1 1.5 C 721.1 1.6 721.2 1.7 721.2 1.8 C 721.3 1.9 721.4 2 721.6 2.1 C 721.7 2.2 721.9 2.3 722.2 2.4 C 722.5 2.5 722.7 2.6 722.9 2.7 C 723.1 2.8 723.2 3 723.3 3.2 C 723.4 3.3 723.5 3.5 723.5 3.8 C 723.5 4.2 723.3 4.5 723 4.7 C 722.8 4.9 722.3 5 721.8 5 C 721.8 5 721.8 5 721.8 5 Z M 725.9 5 C 725.6 5 725.4 5 725.1 5 C 724.9 4.9 724.7 4.8 724.5 4.8 C 724.5 4.8 724.5 4.2 724.5 4.2 C 724.9 4.4 725.4 4.5 725.8 4.5 C 726.5 4.5 726.9 4.2 726.9 3.8 C 726.9 3.6 726.8 3.5 726.8 3.4 C 726.7 3.3 726.6 3.2 726.4 3.1 C 726.3 3.1 726.1 3 725.8 2.8 C 725.3 2.7 725 2.5 724.8 2.3 C 724.6 2 724.5 1.8 724.5 1.5 C 724.5 1.2 724.6 1 724.7 0.8 C 724.9 0.6 725 0.5 725.3 0.4 C 725.5 0.3 725.8 0.2 726.1 0.2 C 726.3 0.2 726.6 0.3 726.8 0.3 C 727 0.3 727.2 0.4 727.4 0.5 C 727.4 0.5 727.4 1.1 727.4 1.1 C 727 0.9 726.6 0.8 726.2 0.8 C 725.9 0.8 725.6 0.9 725.5 1 C 725.3 1.1 725.2 1.3 725.2 1.5 C 725.2 1.6 725.3 1.7 725.3 1.8 C 725.4 1.9 725.5 2 725.7 2.1 C 725.8 2.2 726 2.3 726.3 2.4 C 726.6 2.5 726.8 2.6 727 2.7 C 727.2 2.8 727.3 3 727.4 3.2 C 727.5 3.3 727.6 3.5 727.6 3.8 C 727.6 4.2 727.4 4.5 727.2 4.7 C 726.9 4.9 726.4 5 725.9 5 C 725.9 5 725.9 5 725.9 5 Z M 731.9 0.3 L 732.6 0.3 L 733.6 3.8 L 734.6 0.3 L 735.2 0.3 L 736.2 3.8 L 737.2 0.3 L 737.9 0.3 L 736.5 4.9 L 735.9 4.9 L 734.9 1.5 L 733.9 4.9 L 733.2 4.9 L 731.9 0.3 Z M 739 0.3 C 739 0.3 740.88 0.33 740.9 0.3 C 741.4 0.3 741.7 0.5 742 0.7 C 742.3 0.9 742.4 1.3 742.4 1.7 C 742.4 2.1 742.3 2.3 742.1 2.6 C 742 2.8 741.7 3 741.4 3.1 C 741.37 3.06 742.4 4.9 742.4 4.9 L 741.7 4.9 L 740.7 3.1 L 739.7 3.1 L 739.7 4.9 L 739 4.9 L 739 0.3 Z M 740.8 2.5 C 741.1 2.5 741.3 2.5 741.5 2.3 C 741.6 2.2 741.7 2 741.7 1.7 C 741.7 1.4 741.6 1.2 741.5 1.1 C 741.3 1 741.1 0.9 740.8 0.9 C 740.77 0.9 739.7 0.9 739.7 0.9 L 739.7 2.5 C 739.7 2.5 740.77 2.55 740.8 2.5 Z M 743.8 0.3 L 744.5 0.3 L 744.5 4.9 L 743.8 4.9 L 743.8 0.3 Z M 747.1 0.9 L 745.7 0.9 L 745.7 0.3 L 749.2 0.3 L 749.2 0.9 L 747.8 0.9 L 747.8 4.9 L 747.1 4.9 L 747.1 0.9 Z M 751.9 0.9 L 750.4 0.9 L 750.4 0.3 L 754 0.3 L 754 0.9 L 752.5 0.9 L 752.5 4.9 L 751.9 4.9 L 751.9 0.9 Z M 755.2 0.3 L 758.2 0.3 L 758.2 0.9 L 755.9 0.9 L 755.9 2.3 L 757.6 2.3 L 757.6 2.9 L 755.9 2.9 L 755.9 4.4 L 758.2 4.4 L 758.2 4.9 L 755.2 4.9 L 755.2 0.3 Z M 759.6 0.3 L 760.2 0.3 L 762.5 3.8 L 762.5 0.3 L 763.2 0.3 L 763.2 4.9 L 762.6 4.9 L 760.2 1.5 L 760.2 4.9 L 759.6 4.9 L 759.6 0.3 Z M 770.1 5 C 769.6 5 769.2 4.9 768.9 4.7 C 768.5 4.5 768.2 4.2 768 3.9 C 767.8 3.5 767.7 3.1 767.7 2.6 C 767.7 2.2 767.8 1.7 768 1.4 C 768.2 1 768.5 0.7 768.9 0.5 C 769.2 0.3 769.6 0.2 770.1 0.2 C 770.7 0.2 771.3 0.4 771.7 0.7 C 771.7 0.7 771.7 1.4 771.7 1.4 C 771.3 1 770.8 0.9 770.2 0.9 C 769.8 0.9 769.5 0.9 769.2 1.1 C 769 1.2 768.7 1.4 768.6 1.7 C 768.4 2 768.4 2.3 768.4 2.6 C 768.4 3 768.4 3.3 768.6 3.6 C 768.7 3.8 769 4.1 769.2 4.2 C 769.5 4.3 769.8 4.4 770.2 4.4 C 770.5 4.4 770.8 4.4 771 4.3 C 771.3 4.2 771.5 4.1 771.8 3.9 C 771.8 3.9 771.8 4.5 771.8 4.5 C 771.4 4.9 770.8 5 770.1 5 C 770.1 5 770.1 5 770.1 5 Z M 775.3 5 C 774.8 5 774.4 4.9 774 4.7 C 773.6 4.5 773.4 4.2 773.2 3.9 C 772.9 3.5 772.8 3.1 772.8 2.6 C 772.8 2.2 772.9 1.7 773.2 1.4 C 773.4 1 773.6 0.7 774 0.5 C 774.4 0.3 774.8 0.2 775.3 0.2 C 775.7 0.2 776.1 0.3 776.5 0.5 C 776.9 0.7 777.1 1 777.4 1.4 C 777.6 1.7 777.7 2.2 777.7 2.6 C 777.7 3.1 777.6 3.5 777.4 3.9 C 777.1 4.2 776.9 4.5 776.5 4.7 C 776.1 4.9 775.7 5 775.3 5 C 775.3 5 775.3 5 775.3 5 Z M 775.3 4.4 C 775.6 4.4 775.9 4.3 776.1 4.2 C 776.4 4 776.6 3.8 776.8 3.6 C 776.9 3.3 777 3 777 2.6 C 777 2.3 776.9 2 776.8 1.7 C 776.6 1.4 776.4 1.2 776.1 1.1 C 775.9 0.9 775.6 0.9 775.3 0.9 C 774.9 0.9 774.6 0.9 774.4 1.1 C 774.1 1.2 773.9 1.4 773.7 1.7 C 773.6 2 773.5 2.3 773.5 2.6 C 773.5 3 773.6 3.3 773.7 3.6 C 773.9 3.8 774.1 4 774.4 4.2 C 774.6 4.3 774.9 4.4 775.3 4.4 C 775.3 4.4 775.3 4.4 775.3 4.4 Z M 779 0.3 L 779.7 0.3 L 782 3.8 L 782 0.3 L 782.7 0.3 L 782.7 4.9 L 782 4.9 L 779.7 1.5 L 779.7 4.9 L 779 4.9 L 779 0.3 Z M 785.5 5 C 785.2 5 785 5 784.7 5 C 784.4 4.9 784.2 4.8 784.1 4.8 C 784.1 4.8 784.1 4.2 784.1 4.2 C 784.5 4.4 784.9 4.5 785.4 4.5 C 786.1 4.5 786.5 4.2 786.5 3.8 C 786.5 3.6 786.4 3.5 786.3 3.4 C 786.3 3.3 786.2 3.2 786 3.1 C 785.9 3.1 785.6 3 785.3 2.8 C 784.9 2.7 784.6 2.5 784.4 2.3 C 784.2 2 784.1 1.8 784.1 1.5 C 784.1 1.2 784.2 1 784.3 0.8 C 784.4 0.6 784.6 0.5 784.9 0.4 C 785.1 0.3 785.4 0.2 785.7 0.2 C 785.9 0.2 786.1 0.3 786.3 0.3 C 786.5 0.3 786.7 0.4 786.9 0.5 C 786.9 0.5 786.9 1.1 786.9 1.1 C 786.6 0.9 786.2 0.8 785.8 0.8 C 785.5 0.8 785.2 0.9 785.1 1 C 784.9 1.1 784.8 1.3 784.8 1.5 C 784.8 1.6 784.8 1.7 784.9 1.8 C 785 1.9 785.1 2 785.2 2.1 C 785.4 2.2 785.6 2.3 785.9 2.4 C 786.2 2.5 786.4 2.6 786.6 2.7 C 786.8 2.8 786.9 3 787 3.2 C 787.1 3.3 787.2 3.5 787.2 3.8 C 787.2 4.2 787 4.5 786.7 4.7 C 786.4 4.9 786 5 785.5 5 C 785.5 5 785.5 5 785.5 5 Z M 788.5 0.3 L 791.6 0.3 L 791.6 0.9 L 789.2 0.9 L 789.2 2.3 L 791 2.3 L 791 2.9 L 789.2 2.9 L 789.2 4.4 L 791.6 4.4 L 791.6 4.9 L 788.5 4.9 L 788.5 0.3 Z M 792.9 0.3 L 793.5 0.3 L 795.9 3.8 L 795.9 0.3 L 796.6 0.3 L 796.6 4.9 L 795.9 4.9 L 793.6 1.5 L 793.6 4.9 L 792.9 4.9 L 792.9 0.3 Z M 799.2 0.9 L 797.8 0.9 L 797.8 0.3 L 801.3 0.3 L 801.3 0.9 L 799.9 0.9 L 799.9 4.9 L 799.2 4.9 L 799.2 0.9 Z M 807.9 5 C 807.5 5 807.1 4.9 806.7 4.7 C 806.3 4.5 806 4.2 805.8 3.9 C 805.6 3.5 805.5 3.1 805.5 2.6 C 805.5 2.2 805.6 1.7 805.8 1.4 C 806 1 806.3 0.7 806.7 0.5 C 807.1 0.3 807.5 0.2 807.9 0.2 C 808.4 0.2 808.8 0.3 809.2 0.5 C 809.5 0.7 809.8 1 810 1.4 C 810.2 1.7 810.4 2.2 810.4 2.6 C 810.4 3.1 810.2 3.5 810 3.9 C 809.8 4.2 809.5 4.5 809.2 4.7 C 808.8 4.9 808.4 5 807.9 5 C 807.9 5 807.9 5 807.9 5 Z M 807.9 4.4 C 808.3 4.4 808.6 4.3 808.8 4.2 C 809.1 4 809.3 3.8 809.4 3.6 C 809.6 3.3 809.7 3 809.7 2.6 C 809.7 2.3 809.6 2 809.4 1.7 C 809.3 1.4 809.1 1.2 808.8 1.1 C 808.6 0.9 808.3 0.9 808 0.9 C 807.6 0.9 807.3 0.9 807.1 1.1 C 806.8 1.2 806.6 1.4 806.4 1.7 C 806.3 2 806.2 2.3 806.2 2.6 C 806.2 3 806.3 3.3 806.4 3.6 C 806.6 3.8 806.8 4 807.1 4.2 C 807.3 4.3 807.6 4.4 807.9 4.4 C 807.9 4.4 807.9 4.4 807.9 4.4 Z M 811.7 0.3 L 814.8 0.3 L 814.8 0.9 L 812.4 0.9 L 812.4 2.4 L 814.2 2.4 L 814.2 2.9 L 812.4 2.9 L 812.4 4.9 L 811.7 4.9 L 811.7 0.3 Z M 819.1 0.3 C 819.1 0.3 821.19 0.33 821.2 0.3 C 821.6 0.3 821.9 0.4 822.1 0.6 C 822.4 0.9 822.5 1.2 822.5 1.6 C 822.5 1.8 822.4 2 822.3 2.2 C 822.2 2.3 822.1 2.5 821.9 2.6 C 822.4 2.7 822.6 3.1 822.6 3.6 C 822.6 3.9 822.6 4.1 822.4 4.3 C 822.3 4.5 822.2 4.7 822 4.8 C 821.8 4.9 821.5 4.9 821.3 4.9 C 821.3 4.92 819.1 4.9 819.1 4.9 L 819.1 0.3 Z M 821.1 2.3 C 821.3 2.3 821.5 2.2 821.6 2.1 C 821.7 2 821.8 1.8 821.8 1.6 C 821.8 1.3 821.7 1.1 821.6 1 C 821.5 0.9 821.3 0.9 821.1 0.9 C 821.06 0.88 819.8 0.9 819.8 0.9 L 819.8 2.3 C 819.8 2.3 821.11 2.3 821.1 2.3 Z M 821.2 4.4 C 821.4 4.4 821.6 4.3 821.7 4.2 C 821.9 4.1 821.9 3.9 821.9 3.6 C 821.9 3.3 821.9 3.1 821.7 3 C 821.6 2.9 821.4 2.9 821.1 2.9 C 821.09 2.85 819.8 2.9 819.8 2.9 L 819.8 4.4 C 819.8 4.4 821.15 4.38 821.2 4.4 Z M 824 0.3 L 827 0.3 L 827 0.9 L 824.7 0.9 L 824.7 2.3 L 826.4 2.3 L 826.4 2.9 L 824.7 2.9 L 824.7 4.4 L 827 4.4 L 827 4.9 L 824 4.9 L 824 0.3 Z M 829.5 0.9 L 828.1 0.9 L 828.1 0.3 L 831.6 0.3 L 831.6 0.9 L 830.2 0.9 L 830.2 4.9 L 829.5 4.9 L 829.5 0.9 Z M 834.8 5 C 834.3 5 833.9 4.9 833.6 4.7 C 833.2 4.5 832.9 4.2 832.7 3.9 C 832.5 3.5 832.4 3.1 832.4 2.6 C 832.4 2.2 832.5 1.7 832.7 1.4 C 832.9 1 833.2 0.7 833.6 0.5 C 833.9 0.3 834.3 0.2 834.8 0.2 C 835.4 0.2 836 0.4 836.4 0.7 C 836.4 0.7 836.4 1.4 836.4 1.4 C 836 1 835.5 0.9 834.9 0.9 C 834.5 0.9 834.2 0.9 833.9 1.1 C 833.7 1.2 833.4 1.4 833.3 1.7 C 833.1 2 833.1 2.3 833.1 2.6 C 833.1 3 833.1 3.3 833.3 3.6 C 833.4 3.8 833.7 4.1 833.9 4.2 C 834.2 4.3 834.5 4.4 834.9 4.4 C 835.2 4.4 835.5 4.4 835.7 4.3 C 836 4.2 836.2 4.1 836.5 3.9 C 836.5 3.9 836.5 4.5 836.5 4.5 C 836.1 4.9 835.5 5 834.8 5 C 834.8 5 834.8 5 834.8 5 Z M 840.9 0.3 L 841.6 0.3 L 841.6 4.9 L 840.9 4.9 L 840.9 0.3 Z M 844.4 5 C 844.1 5 843.8 5 843.6 5 C 843.3 4.9 843.1 4.8 843 4.8 C 843 4.8 843 4.2 843 4.2 C 843.4 4.4 843.8 4.5 844.3 4.5 C 845 4.5 845.3 4.2 845.3 3.8 C 845.3 3.6 845.3 3.5 845.2 3.4 C 845.2 3.3 845.1 3.2 844.9 3.1 C 844.8 3.1 844.5 3 844.2 2.8 C 843.8 2.7 843.5 2.5 843.3 2.3 C 843.1 2 843 1.8 843 1.5 C 843 1.2 843.1 1 843.2 0.8 C 843.3 0.6 843.5 0.5 843.8 0.4 C 844 0.3 844.3 0.2 844.6 0.2 C 844.8 0.2 845 0.3 845.2 0.3 C 845.4 0.3 845.6 0.4 845.8 0.5 C 845.8 0.5 845.8 1.1 845.8 1.1 C 845.5 0.9 845.1 0.8 844.7 0.8 C 844.4 0.8 844.1 0.9 844 1 C 843.8 1.1 843.7 1.3 843.7 1.5 C 843.7 1.6 843.7 1.7 843.8 1.8 C 843.9 1.9 844 2 844.1 2.1 C 844.3 2.2 844.5 2.3 844.8 2.4 C 845.1 2.5 845.3 2.6 845.5 2.7 C 845.7 2.8 845.8 3 845.9 3.2 C 846 3.3 846.1 3.5 846.1 3.8 C 846.1 4.2 845.9 4.5 845.6 4.7 C 845.3 4.9 844.9 5 844.4 5 C 844.4 5 844.4 5 844.4 5 Z M 851.8 5 C 851.5 5 851.3 5 851 5 C 850.8 4.9 850.5 4.8 850.4 4.8 C 850.4 4.8 850.4 4.2 850.4 4.2 C 850.8 4.4 851.3 4.5 851.7 4.5 C 852.4 4.5 852.8 4.2 852.8 3.8 C 852.8 3.6 852.7 3.5 852.7 3.4 C 852.6 3.3 852.5 3.2 852.3 3.1 C 852.2 3.1 852 3 851.7 2.8 C 851.2 2.7 850.9 2.5 850.7 2.3 C 850.5 2 850.4 1.8 850.4 1.5 C 850.4 1.2 850.5 1 850.6 0.8 C 850.8 0.6 850.9 0.5 851.2 0.4 C 851.4 0.3 851.7 0.2 852 0.2 C 852.2 0.2 852.5 0.3 852.7 0.3 C 852.9 0.3 853.1 0.4 853.3 0.5 C 853.3 0.5 853.3 1.1 853.3 1.1 C 852.9 0.9 852.5 0.8 852.1 0.8 C 851.8 0.8 851.5 0.9 851.4 1 C 851.2 1.1 851.1 1.3 851.1 1.5 C 851.1 1.6 851.2 1.7 851.2 1.8 C 851.3 1.9 851.4 2 851.6 2.1 C 851.7 2.2 851.9 2.3 852.2 2.4 C 852.5 2.5 852.7 2.6 852.9 2.7 C 853.1 2.8 853.2 3 853.3 3.2 C 853.4 3.3 853.5 3.5 853.5 3.8 C 853.5 4.2 853.3 4.5 853.1 4.7 C 852.8 4.9 852.3 5 851.8 5 C 851.8 5 851.8 5 851.8 5 Z M 855.9 0.9 L 854.4 0.9 L 854.4 0.3 L 858 0.3 L 858 0.9 L 856.5 0.9 L 856.5 4.9 L 855.9 4.9 L 855.9 0.9 Z M 859.2 0.3 C 859.2 0.3 861.04 0.33 861 0.3 C 861.5 0.3 861.9 0.5 862.2 0.7 C 862.4 0.9 862.6 1.3 862.6 1.7 C 862.6 2.1 862.5 2.3 862.3 2.6 C 862.1 2.8 861.9 3 861.5 3.1 C 861.53 3.06 862.5 4.9 862.5 4.9 L 861.8 4.9 L 860.9 3.1 L 859.9 3.1 L 859.9 4.9 L 859.2 4.9 L 859.2 0.3 Z M 860.9 2.5 C 861.2 2.5 861.5 2.5 861.6 2.3 C 861.8 2.2 861.9 2 861.9 1.7 C 861.9 1.4 861.8 1.2 861.6 1.1 C 861.5 1 861.2 0.9 860.9 0.9 C 860.93 0.9 859.9 0.9 859.9 0.9 L 859.9 2.5 C 859.9 2.5 860.93 2.55 860.9 2.5 Z M 863.9 0.3 L 864.6 0.3 L 864.6 4.9 L 863.9 4.9 L 863.9 0.3 Z M 868.4 5 C 867.9 5 867.5 4.9 867.2 4.7 C 866.8 4.5 866.5 4.2 866.3 3.9 C 866.1 3.5 866 3.1 866 2.6 C 866 2.2 866.1 1.7 866.3 1.4 C 866.5 1 866.8 0.7 867.2 0.5 C 867.5 0.3 867.9 0.2 868.4 0.2 C 869.1 0.2 869.6 0.4 870 0.7 C 870 0.7 870 1.4 870 1.4 C 869.6 1 869.1 0.9 868.5 0.9 C 868.1 0.9 867.8 0.9 867.5 1.1 C 867.3 1.2 867.1 1.4 866.9 1.7 C 866.7 2 866.7 2.3 866.7 2.6 C 866.7 3 866.7 3.3 866.9 3.6 C 867.1 3.8 867.3 4.1 867.5 4.2 C 867.8 4.3 868.1 4.4 868.5 4.4 C 868.8 4.4 869.1 4.4 869.4 4.3 C 869.6 4.2 869.8 4.1 870.1 3.9 C 870.1 3.9 870.1 4.5 870.1 4.5 C 869.7 4.9 869.1 5 868.4 5 C 868.4 5 868.4 5 868.4 5 Z M 872.6 0.9 L 871.1 0.9 L 871.1 0.3 L 874.7 0.3 L 874.7 0.9 L 873.2 0.9 L 873.2 4.9 L 872.6 4.9 L 872.6 0.9 Z M 875.9 0.3 L 876.6 0.3 L 876.6 4.4 L 878.9 4.4 L 878.9 4.9 L 875.9 4.9 L 875.9 0.3 Z M 880.9 3.2 L 879.2 0.3 L 879.9 0.3 L 881.2 2.5 L 882.5 0.3 L 883.2 0.3 L 881.5 3.2 L 881.5 4.9 L 880.9 4.9 L 880.9 3.2 Z M 887.7 0.3 C 887.7 0.3 889.43 0.33 889.4 0.3 C 889.9 0.3 890.3 0.5 890.6 0.7 C 890.9 1 891 1.3 891 1.8 C 891 2.2 890.9 2.6 890.6 2.8 C 890.3 3 889.9 3.2 889.4 3.2 C 889.43 3.17 888.3 3.2 888.3 3.2 L 888.3 4.9 L 887.7 4.9 L 887.7 0.3 Z M 889.4 2.6 C 889.7 2.6 889.9 2.5 890.1 2.4 C 890.3 2.3 890.4 2.1 890.4 1.8 C 890.4 1.4 890.3 1.2 890.1 1.1 C 889.9 1 889.7 0.9 889.4 0.9 C 889.36 0.9 888.3 0.9 888.3 0.9 L 888.3 2.6 C 888.3 2.6 889.36 2.61 889.4 2.6 Z M 892.3 0.3 C 892.3 0.3 894.12 0.33 894.1 0.3 C 894.6 0.3 895 0.5 895.2 0.7 C 895.5 0.9 895.6 1.3 895.6 1.7 C 895.6 2.1 895.6 2.3 895.4 2.6 C 895.2 2.8 894.9 3 894.6 3.1 C 894.61 3.06 895.6 4.9 895.6 4.9 L 894.9 4.9 L 894 3.1 L 892.9 3.1 L 892.9 4.9 L 892.3 4.9 L 892.3 0.3 Z M 894 2.5 C 894.3 2.5 894.5 2.5 894.7 2.3 C 894.9 2.2 895 2 895 1.7 C 895 1.4 894.9 1.2 894.7 1.1 C 894.5 1 894.3 0.9 894 0.9 C 894.01 0.9 892.9 0.9 892.9 0.9 L 892.9 2.5 C 892.9 2.5 894.01 2.55 894 2.5 Z M 899.2 5 C 898.8 5 898.3 4.9 898 4.7 C 897.6 4.5 897.3 4.2 897.1 3.9 C 896.9 3.5 896.8 3.1 896.8 2.6 C 896.8 2.2 896.9 1.7 897.1 1.4 C 897.3 1 897.6 0.7 898 0.5 C 898.3 0.3 898.8 0.2 899.2 0.2 C 899.7 0.2 900.1 0.3 900.4 0.5 C 900.8 0.7 901.1 1 901.3 1.4 C 901.5 1.7 901.6 2.2 901.6 2.6 C 901.6 3.1 901.5 3.5 901.3 3.9 C 901.1 4.2 900.8 4.5 900.4 4.7 C 900.1 4.9 899.7 5 899.2 5 C 899.2 5 899.2 5 899.2 5 Z M 899.2 4.4 C 899.5 4.4 899.8 4.3 900.1 4.2 C 900.4 4 900.6 3.8 900.7 3.6 C 900.9 3.3 900.9 3 900.9 2.6 C 900.9 2.3 900.9 2 900.7 1.7 C 900.6 1.4 900.4 1.2 900.1 1.1 C 899.8 0.9 899.5 0.9 899.2 0.9 C 898.9 0.9 898.6 0.9 898.3 1.1 C 898.1 1.2 897.9 1.4 897.7 1.7 C 897.5 2 897.5 2.3 897.5 2.6 C 897.5 3 897.5 3.3 897.7 3.6 C 897.9 3.8 898.1 4 898.3 4.2 C 898.6 4.3 898.9 4.4 899.2 4.4 C 899.2 4.4 899.2 4.4 899.2 4.4 Z M 903 0.3 L 903.7 0.3 L 903.7 2.3 L 906.1 2.3 L 906.1 0.3 L 906.7 0.3 L 906.7 4.9 L 906.1 4.9 L 906.1 2.9 L 903.7 2.9 L 903.7 4.9 L 903 4.9 L 903 0.3 Z M 908.2 0.3 L 908.9 0.3 L 908.9 4.9 L 908.2 4.9 L 908.2 0.3 Z M 910.4 0.3 C 910.4 0.3 912.53 0.33 912.5 0.3 C 912.9 0.3 913.3 0.4 913.5 0.6 C 913.7 0.9 913.8 1.2 913.8 1.6 C 913.8 1.8 913.8 2 913.6 2.2 C 913.5 2.3 913.4 2.5 913.2 2.6 C 913.7 2.7 914 3.1 914 3.6 C 914 3.9 913.9 4.1 913.8 4.3 C 913.7 4.5 913.5 4.7 913.3 4.8 C 913.1 4.9 912.9 4.9 912.6 4.9 C 912.64 4.92 910.4 4.9 910.4 4.9 L 910.4 0.3 Z M 912.4 2.3 C 912.7 2.3 912.8 2.2 913 2.1 C 913.1 2 913.1 1.8 913.1 1.6 C 913.1 1.3 913.1 1.1 913 1 C 912.8 0.9 912.6 0.9 912.4 0.9 C 912.4 0.88 911.1 0.9 911.1 0.9 L 911.1 2.3 C 911.1 2.3 912.45 2.3 912.4 2.3 Z M 912.5 4.4 C 912.7 4.4 912.9 4.3 913.1 4.2 C 913.2 4.1 913.3 3.9 913.3 3.6 C 913.3 3.3 913.2 3.1 913.1 3 C 912.9 2.9 912.7 2.9 912.4 2.9 C 912.43 2.85 911.1 2.9 911.1 2.9 L 911.1 4.4 C 911.1 4.4 912.49 4.38 912.5 4.4 Z M 915.3 0.3 L 916 0.3 L 916 4.9 L 915.3 4.9 L 915.3 0.3 Z M 918.7 0.9 L 917.3 0.9 L 917.3 0.3 L 920.8 0.3 L 920.8 0.9 L 919.4 0.9 L 919.4 4.9 L 918.7 4.9 L 918.7 0.9 Z M 922 0.3 L 925.1 0.3 L 925.1 0.9 L 922.7 0.9 L 922.7 2.3 L 924.5 2.3 L 924.5 2.9 L 922.7 2.9 L 922.7 4.4 L 925.1 4.4 L 925.1 4.9 L 922 4.9 L 922 0.3 Z M 926.4 0.3 C 926.4 0.3 927.88 0.33 927.9 0.3 C 928.4 0.3 928.8 0.4 929.2 0.6 C 929.5 0.8 929.8 1.1 930 1.4 C 930.2 1.7 930.3 2.1 930.3 2.6 C 930.3 3.4 930.1 3.9 929.6 4.3 C 929.2 4.7 928.6 4.9 927.8 4.9 C 927.79 4.92 926.4 4.9 926.4 4.9 L 926.4 0.3 Z M 927.8 4.4 C 928.4 4.4 928.9 4.2 929.2 3.9 C 929.5 3.6 929.6 3.2 929.6 2.6 C 929.6 2.1 929.5 1.7 929.2 1.4 C 928.9 1.1 928.4 0.9 927.9 0.9 C 927.88 0.9 927.1 0.9 927.1 0.9 L 927.1 4.4 C 927.1 4.4 927.78 4.36 927.8 4.4 Z M 931.8 4.9 C 931.8 4.9 931.7 4.9 931.6 4.8 C 931.6 4.8 931.5 4.7 931.5 4.6 C 931.5 4.5 931.6 4.5 931.6 4.4 C 931.7 4.3 931.8 4.3 931.8 4.3 C 931.9 4.3 932 4.3 932.1 4.4 C 932.1 4.5 932.2 4.5 932.2 4.6 C 932.2 4.7 932.1 4.8 932.1 4.8 C 932 4.9 931.9 4.9 931.8 4.9 C 931.8 4.9 931.8 4.9 931.8 4.9 Z " stroke="none" fill="#fafafa"/>  </g></svg>