<?xml version="1.0" standalone="no"?><!DOCTYPE svg PUBLIC "-//W3C//DTD SVG 1.1//EN" "http://www.w3.org/Graphics/SVG/1.1/DTD/svg11.dtd"><svg xmlns="http://www.w3.org/2000/svg" version="1.1" width="450px" height="286.2px" viewBox="0 -1 450 286.2" style="top:-1px">  <desc>Des stats apparaissent en graphisme dans la foul e de la miss, donnant la distance parcourue, comme sur une appli de ...</desc>  <defs/>  <g id="Polygon3600">    <path d="M 1.8 167.8 C 1.8 167.8 1.79 167.77 1.8 167.8 C 2.1 168.8 3 169.4 4.6 169.4 C 6.2 169.4 6.9 168.8 6.9 168 C 6.9 167.3 6.4 166.8 4.3 166.5 C 1.5 166.2 1 165.2 1 164.2 C 1 163.2 1.8 161.9 4.3 161.9 C 7 161.9 7.8 163.4 7.8 164.3 C 7.83 164.3 7.8 164.3 7.8 164.3 L 6.6 164.3 C 6.6 164.3 6.6 164.3 6.6 164.3 C 6.5 163.8 6.1 162.9 4.2 162.9 C 2.5 162.9 2.2 163.6 2.2 164.1 C 2.2 164.8 2.6 165.2 4.5 165.5 C 7.5 165.8 8.1 166.7 8.1 167.9 C 8.1 169.4 7 170.4 4.5 170.4 C 2.1 170.4 0.8 169.4 0.6 167.8 C 0.56 167.77 0.6 167.8 0.6 167.8 L 1.8 167.8 Z M 17.6 167.9 C 17.6 168.6 17.6 169.4 17.6 170.2 C 17.6 170.2 16.5 170.2 16.5 170.2 C 16.4 170 16.4 169.3 16.4 168.7 C 16 169.7 15.2 170.4 13.4 170.4 C 11.7 170.4 10.4 169.5 10.4 167.2 C 10.41 167.17 10.4 162.2 10.4 162.2 L 11.6 162.2 C 11.6 162.2 11.62 166.93 11.6 166.9 C 11.6 168.2 12.1 169.3 13.7 169.3 C 15.6 169.3 16.4 168.3 16.4 165.8 C 16.39 165.77 16.4 162.2 16.4 162.2 L 17.6 162.2 C 17.6 162.2 17.6 167.85 17.6 167.9 Z M 20.5 164.3 C 20.5 163.6 20.5 162.9 20.5 162.2 C 20.5 162.2 21.7 162.2 21.7 162.2 C 21.7 162.4 21.7 163.2 21.7 164 C 22.3 162.7 23.5 161.9 25 161.9 C 25 161.9 25 163.1 25 163.1 C 23.2 163.1 21.7 164.3 21.7 166.7 C 21.72 166.72 21.7 170.2 21.7 170.2 L 20.5 170.2 C 20.5 170.2 20.51 164.34 20.5 164.3 Z M 42.4 167.9 C 42.4 168.6 42.4 169.4 42.4 170.2 C 42.4 170.2 41.3 170.2 41.3 170.2 C 41.2 170 41.2 169.3 41.2 168.7 C 40.8 169.7 40.1 170.4 38.3 170.4 C 36.6 170.4 35.2 169.5 35.2 167.2 C 35.24 167.17 35.2 162.2 35.2 162.2 L 36.5 162.2 C 36.5 162.2 36.45 166.93 36.5 166.9 C 36.5 168.2 37 169.3 38.5 169.3 C 40.4 169.3 41.2 168.3 41.2 165.8 C 41.21 165.77 41.2 162.2 41.2 162.2 L 42.4 162.2 C 42.4 162.2 42.42 167.85 42.4 167.9 Z M 45.3 164.2 C 45.3 163.5 45.3 162.8 45.3 162.2 C 45.3 162.2 46.5 162.2 46.5 162.2 C 46.5 162.4 46.5 163.2 46.5 163.8 C 46.9 162.9 47.8 161.9 49.5 161.9 C 51.4 161.9 52.6 163.1 52.6 165.3 C 52.63 165.32 52.6 170.2 52.6 170.2 L 51.4 170.2 C 51.4 170.2 51.42 165.55 51.4 165.6 C 51.4 164.1 50.9 163 49.3 163 C 47.5 163 46.5 164.4 46.5 166.4 C 46.55 166.39 46.5 170.2 46.5 170.2 L 45.3 170.2 C 45.3 170.2 45.34 164.18 45.3 164.2 Z M 56.2 166.4 C 56.2 166.4 56.19 166.45 56.2 166.4 C 56.3 168.2 57.4 169.4 59.2 169.4 C 60.5 169.4 61.3 168.8 61.8 168 C 61.76 167.96 61.8 168 61.8 168 L 63 168 C 63 168 62.97 167.96 63 168 C 62.6 169.1 61.4 170.4 59.1 170.4 C 56.3 170.4 55 168.3 55 166.2 C 55 166.2 55 166.2 55 166.2 C 55 163.7 56.6 161.9 59 161.9 C 62.1 161.9 63.1 164.2 63.1 166.1 C 63.1 166.2 63.1 166.3 63.1 166.4 C 63.09 166.45 56.2 166.4 56.2 166.4 Z M 61.8 165.5 C 61.8 165.5 61.81 165.52 61.8 165.5 C 61.7 164.5 61.2 162.9 59 162.9 C 57.3 162.9 56.4 164 56.2 165.5 C 56.22 165.52 56.2 165.5 56.2 165.5 L 61.8 165.5 Z M 80.5 168.3 C 80.5 169 80.5 170 80.6 170.2 C 80.6 170.2 79.4 170.2 79.4 170.2 C 79.3 169.9 79.3 169.2 79.3 168.9 C 78.9 169.8 78 170.4 76.2 170.4 C 73.9 170.4 73.1 169 73.1 167.9 C 73.1 167.9 73.1 167.9 73.1 167.9 C 73.1 165.8 75 165.2 77.3 165.2 C 78.3 165.2 79 165.2 79.3 165.2 C 79.3 165.2 79.3 164.8 79.3 164.8 C 79.3 163.8 78.9 162.9 77 162.9 C 75.3 162.9 74.9 163.7 74.8 164.5 C 74.77 164.48 74.8 164.5 74.8 164.5 L 73.6 164.5 C 73.6 164.5 73.56 164.48 73.6 164.5 C 73.7 163.4 74.4 161.9 77 161.9 C 79.8 161.9 80.5 163.3 80.5 164.6 C 80.5 164.6 80.5 168.3 80.5 168.3 Z M 79.3 166.2 C 79 166.2 78.5 166.2 77.3 166.2 C 75.3 166.2 74.3 166.6 74.3 167.8 C 74.3 167.8 74.3 167.8 74.3 167.8 C 74.3 168.7 74.9 169.4 76.4 169.4 C 78.8 169.4 79.3 168 79.3 166.6 C 79.3 166.6 79.3 166.2 79.3 166.2 Z M 84.6 168.9 C 84.59 168.89 84.6 173.8 84.6 173.8 L 83.4 173.8 C 83.4 173.8 83.38 164.17 83.4 164.2 C 83.4 163.5 83.4 162.8 83.4 162.2 C 83.4 162.2 84.5 162.2 84.5 162.2 C 84.6 162.4 84.6 162.9 84.6 163.6 C 85.1 162.7 86 161.9 87.8 161.9 C 90 161.9 91.5 163.7 91.5 166 C 91.5 166 91.5 166 91.5 166 C 91.5 168.6 89.8 170.4 87.5 170.4 C 85.8 170.4 85 169.6 84.6 168.9 Z M 90.3 166.1 C 90.3 166.1 90.3 166.1 90.3 166.1 C 90.3 164.6 89.4 163 87.4 163 C 85.4 163 84.6 164.4 84.6 166.2 C 84.6 166.2 84.6 166.2 84.6 166.2 C 84.6 168 85.5 169.4 87.4 169.4 C 89.3 169.4 90.3 167.8 90.3 166.1 Z M 95.1 168.9 C 95.11 168.89 95.1 173.8 95.1 173.8 L 93.9 173.8 C 93.9 173.8 93.9 164.17 93.9 164.2 C 93.9 163.5 93.9 162.8 93.9 162.2 C 93.9 162.2 95.1 162.2 95.1 162.2 C 95.1 162.4 95.1 162.9 95.1 163.6 C 95.6 162.7 96.6 161.9 98.3 161.9 C 100.5 161.9 102 163.7 102 166 C 102 166 102 166 102 166 C 102 168.6 100.3 170.4 98.1 170.4 C 96.3 170.4 95.6 169.6 95.1 168.9 Z M 100.8 166.1 C 100.8 166.1 100.8 166.1 100.8 166.1 C 100.8 164.6 99.9 163 98 163 C 96 163 95.1 164.4 95.1 166.2 C 95.1 166.2 95.1 166.2 95.1 166.2 C 95.1 168 96 169.4 97.9 169.4 C 99.8 169.4 100.8 167.8 100.8 166.1 Z M 104.4 170.2 L 104.4 158.1 L 105.6 158.1 L 105.6 170.2 L 104.4 170.2 Z M 108.5 162.2 L 109.7 162.2 L 109.7 170.2 L 108.5 170.2 L 108.5 162.2 Z M 108.5 158.1 L 109.7 158.1 L 109.7 159.9 L 108.5 159.9 L 108.5 158.1 Z M 128.5 158.1 C 128.5 158.1 128.55 167.84 128.5 167.8 C 128.5 168.6 128.5 169.4 128.6 170.2 C 128.6 170.2 127.4 170.2 127.4 170.2 C 127.4 169.8 127.3 169.3 127.3 168.9 C 126.9 169.6 126.2 170.4 124.3 170.4 C 121.9 170.4 120.4 168.7 120.4 166.2 C 120.4 166.2 120.4 166.2 120.4 166.2 C 120.4 163.6 122.3 161.9 124.5 161.9 C 126.5 161.9 127.1 162.9 127.3 163.3 C 127.34 163.29 127.3 158.1 127.3 158.1 L 128.5 158.1 Z M 121.6 166.2 C 121.6 166.2 121.6 166.2 121.6 166.2 C 121.6 167.8 122.6 169.4 124.5 169.4 C 126.6 169.4 127.4 168 127.4 166.1 C 127.4 166.1 127.4 166.1 127.4 166.1 C 127.4 164.3 126.7 163 124.6 163 C 122.6 163 121.6 164.6 121.6 166.2 Z M 132.1 166.4 C 132.1 166.4 132.14 166.45 132.1 166.4 C 132.2 168.2 133.4 169.4 135.1 169.4 C 136.5 169.4 137.2 168.8 137.7 168 C 137.71 167.96 137.7 168 137.7 168 L 138.9 168 C 138.9 168 138.92 167.96 138.9 168 C 138.5 169.1 137.4 170.4 135 170.4 C 132.3 170.4 130.9 168.3 130.9 166.2 C 130.9 166.2 130.9 166.2 130.9 166.2 C 130.9 163.7 132.6 161.9 135 161.9 C 138 161.9 139 164.2 139 166.1 C 139 166.2 139 166.3 139 166.4 C 139.04 166.45 132.1 166.4 132.1 166.4 Z M 137.8 165.5 C 137.8 165.5 137.76 165.52 137.8 165.5 C 137.7 164.5 137.1 162.9 135 162.9 C 133.2 162.9 132.3 164 132.2 165.5 C 132.17 165.52 132.2 165.5 132.2 165.5 L 137.8 165.5 Z M 157 167.7 C 157 167.7 157.04 167.74 157 167.7 C 156.6 169.2 155.4 170.4 153.2 170.4 C 150.4 170.4 149 168.5 149 166.2 C 149 166.2 149 166.2 149 166.2 C 149 163.9 150.6 161.9 153.2 161.9 C 155.8 161.9 156.8 163.5 157 164.7 C 157.03 164.67 157 164.7 157 164.7 L 155.8 164.7 C 155.8 164.7 155.82 164.67 155.8 164.7 C 155.5 163.8 154.8 163 153.2 163 C 151.4 163 150.3 164.3 150.3 166.2 C 150.3 166.2 150.3 166.2 150.3 166.2 C 150.3 168 151.3 169.4 153.2 169.4 C 154.6 169.4 155.4 168.7 155.8 167.7 C 155.83 167.74 155.8 167.7 155.8 167.7 L 157 167.7 Z M 167.2 166.2 C 167.2 166.2 167.2 166.2 167.2 166.2 C 167.2 168.3 165.8 170.4 162.9 170.4 C 160.3 170.4 158.8 168.4 158.8 166.2 C 158.8 166.2 158.8 166.2 158.8 166.2 C 158.8 163.9 160.4 161.9 163 161.9 C 165.7 161.9 167.2 164 167.2 166.2 Z M 160 166.2 C 160 166.2 160 166.2 160 166.2 C 160 167.8 161.1 169.4 163 169.4 C 165 169.4 165.9 167.9 165.9 166.2 C 165.9 166.2 165.9 166.2 165.9 166.2 C 165.9 164.5 164.8 163 162.9 163 C 161 163 160 164.5 160 166.2 Z M 176.7 167.9 C 176.7 168.6 176.7 169.4 176.7 170.2 C 176.7 170.2 175.5 170.2 175.5 170.2 C 175.5 170 175.5 169.3 175.5 168.7 C 175.1 169.7 174.3 170.4 172.5 170.4 C 170.8 170.4 169.5 169.5 169.5 167.2 C 169.51 167.17 169.5 162.2 169.5 162.2 L 170.7 162.2 C 170.7 162.2 170.72 166.93 170.7 166.9 C 170.7 168.2 171.2 169.3 172.8 169.3 C 174.7 169.3 175.5 168.3 175.5 165.8 C 175.48 165.77 175.5 162.2 175.5 162.2 L 176.7 162.2 C 176.7 162.2 176.69 167.85 176.7 167.9 Z M 179.6 164.3 C 179.6 163.6 179.6 162.9 179.6 162.2 C 179.6 162.2 180.8 162.2 180.8 162.2 C 180.8 162.4 180.8 163.2 180.8 164 C 181.4 162.7 182.6 161.9 184.1 161.9 C 184.1 161.9 184.1 163.1 184.1 163.1 C 182.3 163.1 180.8 164.3 180.8 166.7 C 180.82 166.72 180.8 170.2 180.8 170.2 L 179.6 170.2 C 179.6 170.2 179.61 164.34 179.6 164.3 Z M 186.6 167.8 C 186.6 167.8 186.61 167.77 186.6 167.8 C 186.9 168.8 187.8 169.4 189.4 169.4 C 191.1 169.4 191.7 168.8 191.7 168 C 191.7 167.3 191.3 166.8 189.1 166.5 C 186.3 166.2 185.8 165.2 185.8 164.2 C 185.8 163.2 186.6 161.9 189.1 161.9 C 191.9 161.9 192.6 163.4 192.6 164.3 C 192.65 164.3 192.6 164.3 192.6 164.3 L 191.4 164.3 C 191.4 164.3 191.42 164.3 191.4 164.3 C 191.3 163.8 191 162.9 189 162.9 C 187.4 162.9 187 163.6 187 164.1 C 187 164.8 187.4 165.2 189.4 165.5 C 192.3 165.8 192.9 166.7 192.9 167.9 C 192.9 169.4 191.8 170.4 189.3 170.4 C 186.9 170.4 185.7 169.4 185.4 167.8 C 185.38 167.77 185.4 167.8 185.4 167.8 L 186.6 167.8 Z M 195.9 166.4 C 195.9 166.4 195.93 166.45 195.9 166.4 C 196 168.2 197.2 169.4 198.9 169.4 C 200.3 169.4 201 168.8 201.5 168 C 201.5 167.96 201.5 168 201.5 168 L 202.7 168 C 202.7 168 202.71 167.96 202.7 168 C 202.3 169.1 201.2 170.4 198.8 170.4 C 196.1 170.4 194.7 168.3 194.7 166.2 C 194.7 166.2 194.7 166.2 194.7 166.2 C 194.7 163.7 196.4 161.9 198.8 161.9 C 201.8 161.9 202.8 164.2 202.8 166.1 C 202.8 166.2 202.8 166.3 202.8 166.4 C 202.83 166.45 195.9 166.4 195.9 166.4 Z M 201.6 165.5 C 201.6 165.5 201.55 165.52 201.6 165.5 C 201.5 164.5 200.9 162.9 198.8 162.9 C 197 162.9 196.1 164 196 165.5 C 195.97 165.52 196 165.5 196 165.5 L 201.6 165.5 Z M 205 170.2 L 205 167.8 L 206.3 167.8 L 206.3 170.2 L 205 170.2 Z " stroke="none" fill="#141414"/>  </g>  <g id="Polygon3599">    <path d="M 8.9 133.8 C 8.9 133.8 8.86 143.52 8.9 143.5 C 8.9 144.3 8.9 145.1 8.9 145.9 C 8.9 145.9 7.7 145.9 7.7 145.9 C 7.7 145.5 7.7 145 7.7 144.6 C 7.3 145.3 6.5 146.1 4.6 146.1 C 2.3 146.1 0.7 144.3 0.7 141.9 C 0.7 141.9 0.7 141.9 0.7 141.9 C 0.7 139.3 2.7 137.6 4.8 137.6 C 6.8 137.6 7.4 138.6 7.7 139 C 7.65 138.97 7.7 133.8 7.7 133.8 L 8.9 133.8 Z M 2 141.9 C 2 141.9 2 141.9 2 141.9 C 2 143.4 2.9 145.1 4.8 145.1 C 6.9 145.1 7.7 143.7 7.7 141.8 C 7.7 141.8 7.7 141.8 7.7 141.8 C 7.7 139.9 7.1 138.7 4.9 138.7 C 2.9 138.7 2 140.3 2 141.9 Z M 12.5 142.1 C 12.5 142.1 12.46 142.13 12.5 142.1 C 12.5 143.8 13.7 145.1 15.4 145.1 C 16.8 145.1 17.6 144.5 18 143.6 C 18.03 143.64 18 143.6 18 143.6 L 19.2 143.6 C 19.2 143.6 19.24 143.64 19.2 143.6 C 18.8 144.8 17.7 146.1 15.3 146.1 C 12.6 146.1 11.2 144 11.2 141.9 C 11.2 141.9 11.2 141.9 11.2 141.9 C 11.2 139.4 12.9 137.6 15.3 137.6 C 18.3 137.6 19.4 139.9 19.4 141.8 C 19.4 141.9 19.4 142 19.4 142.1 C 19.36 142.13 12.5 142.1 12.5 142.1 Z M 18.1 141.2 C 18.1 141.2 18.08 141.2 18.1 141.2 C 18 140.1 17.4 138.6 15.3 138.6 C 13.6 138.6 12.6 139.7 12.5 141.2 C 12.49 141.2 12.5 141.2 12.5 141.2 L 18.1 141.2 Z M 32.7 145.9 L 32.7 133.8 L 33.9 133.8 L 33.9 145.9 L 32.7 145.9 Z M 43.7 144 C 43.7 144.7 43.8 145.7 43.8 145.9 C 43.8 145.9 42.6 145.9 42.6 145.9 C 42.6 145.6 42.5 144.9 42.5 144.6 C 42.1 145.5 41.2 146.1 39.4 146.1 C 37.1 146.1 36.3 144.7 36.3 143.5 C 36.3 143.5 36.3 143.5 36.3 143.5 C 36.3 141.5 38.2 140.9 40.5 140.9 C 41.6 140.9 42.2 140.9 42.5 140.9 C 42.5 140.9 42.5 140.4 42.5 140.4 C 42.5 139.5 42.1 138.6 40.2 138.6 C 38.6 138.6 38.2 139.3 38 140.2 C 38 140.16 38 140.2 38 140.2 L 36.8 140.2 C 36.8 140.2 36.79 140.16 36.8 140.2 C 36.9 139.1 37.6 137.6 40.3 137.6 C 43 137.6 43.7 139 43.7 140.3 C 43.7 140.3 43.7 144 43.7 144 Z M 42.5 141.8 C 42.3 141.8 41.7 141.8 40.5 141.8 C 38.5 141.8 37.5 142.3 37.5 143.5 C 37.5 143.5 37.5 143.5 37.5 143.5 C 37.5 144.4 38.2 145.1 39.6 145.1 C 42 145.1 42.5 143.7 42.5 142.3 C 42.5 142.3 42.5 141.8 42.5 141.8 Z M 57.8 139.9 C 57.8 139.2 57.8 138.5 57.8 137.8 C 57.8 137.8 58.9 137.8 58.9 137.8 C 59 138.2 59 138.6 59 139.1 C 59.4 138.4 60.2 137.6 61.6 137.6 C 62.9 137.6 63.8 138.2 64.1 139.2 C 64.5 138.5 65.3 137.6 66.9 137.6 C 68.5 137.6 69.7 138.5 69.7 140.9 C 69.74 140.87 69.7 145.9 69.7 145.9 L 68.5 145.9 C 68.5 145.9 68.54 140.93 68.5 140.9 C 68.5 139.9 68.2 138.7 66.7 138.7 C 65.3 138.7 64.4 139.6 64.4 141.5 C 64.37 141.48 64.4 145.9 64.4 145.9 L 63.2 145.9 C 63.2 145.9 63.16 140.84 63.2 140.8 C 63.2 139.8 62.8 138.7 61.3 138.7 C 59.6 138.7 59 140 59 141.6 C 58.99 141.62 59 145.9 59 145.9 L 57.8 145.9 C 57.8 145.9 57.79 139.91 57.8 139.9 Z M 72.7 137.8 L 73.9 137.8 L 73.9 145.9 L 72.7 145.9 L 72.7 137.8 Z M 72.7 133.8 L 73.9 133.8 L 73.9 135.6 L 72.7 135.6 L 72.7 133.8 Z M 77.3 143.5 C 77.3 143.5 77.31 143.45 77.3 143.5 C 77.6 144.5 78.5 145.1 80.1 145.1 C 81.8 145.1 82.4 144.5 82.4 143.7 C 82.4 143 82 142.4 79.8 142.2 C 77 141.9 76.5 140.9 76.5 139.9 C 76.5 138.9 77.3 137.6 79.8 137.6 C 82.6 137.6 83.3 139.1 83.3 140 C 83.35 139.98 83.3 140 83.3 140 L 82.1 140 C 82.1 140 82.12 139.98 82.1 140 C 82 139.5 81.7 138.6 79.7 138.6 C 78.1 138.6 77.7 139.3 77.7 139.8 C 77.7 140.5 78.1 140.9 80.1 141.1 C 83 141.5 83.6 142.4 83.6 143.6 C 83.6 145.1 82.5 146.1 80 146.1 C 77.6 146.1 76.4 145.1 76.1 143.5 C 76.08 143.45 76.1 143.5 76.1 143.5 L 77.3 143.5 Z M 86.6 143.5 C 86.6 143.5 86.63 143.45 86.6 143.5 C 86.9 144.5 87.8 145.1 89.4 145.1 C 91.1 145.1 91.7 144.5 91.7 143.7 C 91.7 143 91.3 142.4 89.1 142.2 C 86.4 141.9 85.8 140.9 85.8 139.9 C 85.8 138.9 86.6 137.6 89.1 137.6 C 91.9 137.6 92.6 139.1 92.7 140 C 92.67 139.98 92.7 140 92.7 140 L 91.4 140 C 91.4 140 91.45 139.98 91.4 140 C 91.3 139.5 91 138.6 89 138.6 C 87.4 138.6 87 139.3 87 139.8 C 87 140.5 87.4 140.9 89.4 141.1 C 92.3 141.5 92.9 142.4 92.9 143.6 C 92.9 145.1 91.8 146.1 89.3 146.1 C 86.9 146.1 85.7 145.1 85.4 143.5 C 85.4 143.45 85.4 143.5 85.4 143.5 L 86.6 143.5 Z M 94.3 148.2 C 95.2 146.3 95.5 144.9 95.6 143.5 C 95.6 143.5 96.9 143.5 96.9 143.5 C 96.8 144.7 96.2 146.8 95.4 148.2 C 95.4 148.2 94.3 148.2 94.3 148.2 Z M 118.1 133.8 C 118.1 133.8 118.12 143.52 118.1 143.5 C 118.1 144.3 118.1 145.1 118.1 145.9 C 118.1 145.9 117 145.9 117 145.9 C 116.9 145.5 116.9 145 116.9 144.6 C 116.5 145.3 115.8 146.1 113.9 146.1 C 111.5 146.1 110 144.3 110 141.9 C 110 141.9 110 141.9 110 141.9 C 110 139.3 111.9 137.6 114 137.6 C 116 137.6 116.7 138.6 116.9 139 C 116.91 138.97 116.9 133.8 116.9 133.8 L 118.1 133.8 Z M 111.2 141.9 C 111.2 141.9 111.2 141.9 111.2 141.9 C 111.2 143.4 112.2 145.1 114.1 145.1 C 116.2 145.1 117 143.7 117 141.8 C 117 141.8 117 141.8 117 141.8 C 117 139.9 116.3 138.7 114.1 138.7 C 112.2 138.7 111.2 140.3 111.2 141.9 Z M 128.9 141.9 C 128.9 141.9 128.9 141.9 128.9 141.9 C 128.9 144 127.5 146.1 124.7 146.1 C 122 146.1 120.5 144.1 120.5 141.9 C 120.5 141.9 120.5 141.9 120.5 141.9 C 120.5 139.5 122.1 137.6 124.7 137.6 C 127.4 137.6 128.9 139.7 128.9 141.9 Z M 121.7 141.9 C 121.7 141.9 121.7 141.9 121.7 141.9 C 121.7 143.5 122.8 145.1 124.7 145.1 C 126.7 145.1 127.6 143.6 127.6 141.9 C 127.6 141.9 127.6 141.9 127.6 141.9 C 127.6 140.1 126.6 138.6 124.7 138.6 C 122.7 138.6 121.7 140.1 121.7 141.9 Z M 131.3 139.9 C 131.3 139.2 131.3 138.4 131.2 137.8 C 131.2 137.8 132.4 137.8 132.4 137.8 C 132.4 138.1 132.5 138.8 132.5 139.5 C 132.8 138.6 133.7 137.6 135.5 137.6 C 137.3 137.6 138.6 138.8 138.6 141 C 138.56 141 138.6 145.9 138.6 145.9 L 137.3 145.9 C 137.3 145.9 137.34 141.23 137.3 141.2 C 137.3 139.8 136.8 138.7 135.2 138.7 C 133.4 138.7 132.5 140.1 132.5 142.1 C 132.47 142.07 132.5 145.9 132.5 145.9 L 131.3 145.9 C 131.3 145.9 131.26 139.86 131.3 139.9 Z M 141.4 139.9 C 141.4 139.2 141.4 138.4 141.4 137.8 C 141.4 137.8 142.6 137.8 142.6 137.8 C 142.6 138.1 142.6 138.8 142.6 139.5 C 143 138.6 143.9 137.6 145.6 137.6 C 147.5 137.6 148.7 138.8 148.7 141 C 148.74 141 148.7 145.9 148.7 145.9 L 147.5 145.9 C 147.5 145.9 147.52 141.23 147.5 141.2 C 147.5 139.8 147 138.7 145.4 138.7 C 143.6 138.7 142.7 140.1 142.7 142.1 C 142.65 142.07 142.7 145.9 142.7 145.9 L 141.4 145.9 C 141.4 145.9 141.44 139.86 141.4 139.9 Z M 158.5 144 C 158.5 144.7 158.5 145.7 158.5 145.9 C 158.5 145.9 157.4 145.9 157.4 145.9 C 157.3 145.6 157.3 144.9 157.3 144.6 C 156.9 145.5 156 146.1 154.2 146.1 C 151.9 146.1 151.1 144.7 151.1 143.5 C 151.1 143.5 151.1 143.5 151.1 143.5 C 151.1 141.5 153 140.9 155.2 140.9 C 156.3 140.9 157 140.9 157.3 140.9 C 157.3 140.9 157.3 140.4 157.3 140.4 C 157.3 139.5 156.9 138.6 155 138.6 C 153.3 138.6 152.9 139.3 152.8 140.2 C 152.76 140.16 152.8 140.2 152.8 140.2 L 151.6 140.2 C 151.6 140.2 151.55 140.16 151.6 140.2 C 151.7 139.1 152.4 137.6 155 137.6 C 157.8 137.6 158.5 139 158.5 140.3 C 158.5 140.3 158.5 144 158.5 144 Z M 157.3 141.8 C 157 141.8 156.5 141.8 155.3 141.8 C 153.3 141.8 152.3 142.3 152.3 143.5 C 152.3 143.5 152.3 143.5 152.3 143.5 C 152.3 144.4 152.9 145.1 154.4 145.1 C 156.7 145.1 157.3 143.7 157.3 142.3 C 157.3 142.3 157.3 141.8 157.3 141.8 Z M 161.4 139.9 C 161.4 139.2 161.4 138.4 161.4 137.8 C 161.4 137.8 162.5 137.8 162.5 137.8 C 162.6 138.1 162.6 138.8 162.6 139.5 C 162.9 138.6 163.8 137.6 165.6 137.6 C 167.4 137.6 168.7 138.8 168.7 141 C 168.67 141 168.7 145.9 168.7 145.9 L 167.5 145.9 C 167.5 145.9 167.46 141.23 167.5 141.2 C 167.5 139.8 166.9 138.7 165.3 138.7 C 163.5 138.7 162.6 140.1 162.6 142.1 C 162.59 142.07 162.6 145.9 162.6 145.9 L 161.4 145.9 C 161.4 145.9 161.37 139.86 161.4 139.9 Z M 170.4 137.8 L 172 137.8 L 172 135.2 L 173.3 135.2 L 173.3 137.8 L 175.4 137.8 L 175.4 138.8 L 173.3 138.8 C 173.3 138.8 173.26 143.54 173.3 143.5 C 173.3 144.5 173.5 145 174.4 145 C 174.7 145 175 145 175.2 144.9 C 175.2 144.9 175.2 145.8 175.2 145.8 C 174.9 145.9 174.5 146 174.1 146 C 172.5 146 172 145.2 172 143.7 C 172.04 143.66 172 138.8 172 138.8 L 170.4 138.8 L 170.4 137.8 Z M 188.6 145.9 L 188.6 133.8 L 189.8 133.8 L 189.8 145.9 L 188.6 145.9 Z M 199.5 144 C 199.5 144.7 199.6 145.7 199.6 145.9 C 199.6 145.9 198.5 145.9 198.5 145.9 C 198.4 145.6 198.4 144.9 198.4 144.6 C 197.9 145.5 197 146.1 195.3 146.1 C 193 146.1 192.2 144.7 192.2 143.5 C 192.2 143.5 192.2 143.5 192.2 143.5 C 192.2 141.5 194 140.9 196.3 140.9 C 197.4 140.9 198.1 140.9 198.4 140.9 C 198.4 140.9 198.4 140.4 198.4 140.4 C 198.4 139.5 197.9 138.6 196.1 138.6 C 194.4 138.6 194 139.3 193.8 140.2 C 193.83 140.16 193.8 140.2 193.8 140.2 L 192.6 140.2 C 192.6 140.2 192.62 140.16 192.6 140.2 C 192.7 139.1 193.4 137.6 196.1 137.6 C 198.8 137.6 199.5 139 199.5 140.3 C 199.5 140.3 199.5 144 199.5 144 Z M 198.4 141.8 C 198.1 141.8 197.5 141.8 196.3 141.8 C 194.3 141.8 193.4 142.3 193.4 143.5 C 193.4 143.5 193.4 143.5 193.4 143.5 C 193.4 144.4 194 145.1 195.5 145.1 C 197.8 145.1 198.4 143.7 198.4 142.3 C 198.4 142.3 198.4 141.8 198.4 141.8 Z M 221.1 133.8 C 221.1 133.8 221.13 143.52 221.1 143.5 C 221.1 144.3 221.1 145.1 221.1 145.9 C 221.1 145.9 220 145.9 220 145.9 C 219.9 145.5 219.9 145 219.9 144.6 C 219.5 145.3 218.8 146.1 216.9 146.1 C 214.5 146.1 213 144.3 213 141.9 C 213 141.9 213 141.9 213 141.9 C 213 139.3 214.9 137.6 217.1 137.6 C 219 137.6 219.7 138.6 219.9 139 C 219.92 138.97 219.9 133.8 219.9 133.8 L 221.1 133.8 Z M 214.2 141.9 C 214.2 141.9 214.2 141.9 214.2 141.9 C 214.2 143.4 215.2 145.1 217.1 145.1 C 219.2 145.1 220 143.7 220 141.8 C 220 141.8 220 141.8 220 141.8 C 220 139.9 219.3 138.7 217.1 138.7 C 215.2 138.7 214.2 140.3 214.2 141.9 Z M 224 137.8 L 225.3 137.8 L 225.3 145.9 L 224 145.9 L 224 137.8 Z M 224 133.8 L 225.3 133.8 L 225.3 135.6 L 224 135.6 L 224 133.8 Z M 228.7 143.5 C 228.7 143.5 228.69 143.45 228.7 143.5 C 229 144.5 229.9 145.1 231.5 145.1 C 233.1 145.1 233.8 144.5 233.8 143.7 C 233.8 143 233.3 142.4 231.2 142.2 C 228.4 141.9 227.9 140.9 227.9 139.9 C 227.9 138.9 228.7 137.6 231.2 137.6 C 233.9 137.6 234.7 139.1 234.7 140 C 234.73 139.98 234.7 140 234.7 140 L 233.5 140 C 233.5 140 233.5 139.98 233.5 140 C 233.4 139.5 233 138.6 231.1 138.6 C 229.4 138.6 229.1 139.3 229.1 139.8 C 229.1 140.5 229.5 140.9 231.4 141.1 C 234.4 141.5 235 142.4 235 143.6 C 235 145.1 233.9 146.1 231.4 146.1 C 229 146.1 227.7 145.1 227.5 143.5 C 227.46 143.45 227.5 143.5 227.5 143.5 L 228.7 143.5 Z M 236.4 137.8 L 238 137.8 L 238 135.2 L 239.2 135.2 L 239.2 137.8 L 241.4 137.8 L 241.4 138.8 L 239.2 138.8 C 239.2 138.8 239.21 143.54 239.2 143.5 C 239.2 144.5 239.5 145 240.4 145 C 240.6 145 241 145 241.2 144.9 C 241.2 144.9 241.2 145.8 241.2 145.8 C 240.9 145.9 240.5 146 240.1 146 C 238.5 146 238 145.2 238 143.7 C 238 143.66 238 138.8 238 138.8 L 236.4 138.8 L 236.4 137.8 Z M 250.3 144 C 250.3 144.7 250.3 145.7 250.3 145.9 C 250.3 145.9 249.2 145.9 249.2 145.9 C 249.1 145.6 249.1 144.9 249.1 144.6 C 248.7 145.5 247.8 146.1 246 146.1 C 243.7 146.1 242.9 144.7 242.9 143.5 C 242.9 143.5 242.9 143.5 242.9 143.5 C 242.9 141.5 244.8 140.9 247 140.9 C 248.1 140.9 248.8 140.9 249.1 140.9 C 249.1 140.9 249.1 140.4 249.1 140.4 C 249.1 139.5 248.7 138.6 246.8 138.6 C 245.1 138.6 244.7 139.3 244.6 140.2 C 244.56 140.16 244.6 140.2 244.6 140.2 L 243.4 140.2 C 243.4 140.2 243.35 140.16 243.4 140.2 C 243.5 139.1 244.2 137.6 246.8 137.6 C 249.6 137.6 250.3 139 250.3 140.3 C 250.3 140.3 250.3 144 250.3 144 Z M 249.1 141.8 C 248.8 141.8 248.3 141.8 247.1 141.8 C 245.1 141.8 244.1 142.3 244.1 143.5 C 244.1 143.5 244.1 143.5 244.1 143.5 C 244.1 144.4 244.7 145.1 246.2 145.1 C 248.5 145.1 249.1 143.7 249.1 142.3 C 249.1 142.3 249.1 141.8 249.1 141.8 Z M 253.2 139.9 C 253.2 139.2 253.2 138.4 253.2 137.8 C 253.2 137.8 254.3 137.8 254.3 137.8 C 254.4 138.1 254.4 138.8 254.4 139.5 C 254.7 138.6 255.6 137.6 257.4 137.6 C 259.2 137.6 260.5 138.8 260.5 141 C 260.47 141 260.5 145.9 260.5 145.9 L 259.3 145.9 C 259.3 145.9 259.26 141.23 259.3 141.2 C 259.3 139.8 258.7 138.7 257.1 138.7 C 255.3 138.7 254.4 140.1 254.4 142.1 C 254.39 142.07 254.4 145.9 254.4 145.9 L 253.2 145.9 C 253.2 145.9 253.18 139.86 253.2 139.9 Z M 270.8 143.4 C 270.8 143.4 270.83 143.42 270.8 143.4 C 270.4 144.9 269.2 146.1 267 146.1 C 264.2 146.1 262.8 144.2 262.8 141.9 C 262.8 141.9 262.8 141.9 262.8 141.9 C 262.8 139.6 264.4 137.6 267 137.6 C 269.6 137.6 270.6 139.2 270.8 140.3 C 270.82 140.35 270.8 140.3 270.8 140.3 L 269.6 140.3 C 269.6 140.3 269.61 140.35 269.6 140.3 C 269.3 139.5 268.6 138.6 267 138.6 C 265.2 138.6 264.1 140 264.1 141.9 C 264.1 141.9 264.1 141.9 264.1 141.9 C 264.1 143.7 265.1 145.1 267 145.1 C 268.4 145.1 269.2 144.4 269.6 143.4 C 269.62 143.42 269.6 143.4 269.6 143.4 L 270.8 143.4 Z M 273.8 142.1 C 273.8 142.1 273.79 142.13 273.8 142.1 C 273.9 143.8 275 145.1 276.8 145.1 C 278.1 145.1 278.9 144.5 279.4 143.6 C 279.37 143.64 279.4 143.6 279.4 143.6 L 280.6 143.6 C 280.6 143.6 280.57 143.64 280.6 143.6 C 280.2 144.8 279 146.1 276.7 146.1 C 273.9 146.1 272.6 144 272.6 141.9 C 272.6 141.9 272.6 141.9 272.6 141.9 C 272.6 139.4 274.2 137.6 276.6 137.6 C 279.7 137.6 280.7 139.9 280.7 141.8 C 280.7 141.9 280.7 142 280.7 142.1 C 280.69 142.13 273.8 142.1 273.8 142.1 Z M 279.4 141.2 C 279.4 141.2 279.42 141.2 279.4 141.2 C 279.3 140.1 278.8 138.6 276.6 138.6 C 274.9 138.6 274 139.7 273.8 141.2 C 273.83 141.2 273.8 141.2 273.8 141.2 L 279.4 141.2 Z M 295.3 144.6 C 295.28 144.57 295.3 149.4 295.3 149.4 L 294.1 149.4 C 294.1 149.4 294.07 139.85 294.1 139.8 C 294.1 139.2 294.1 138.5 294.1 137.8 C 294.1 137.8 295.2 137.8 295.2 137.8 C 295.3 138.1 295.3 138.6 295.3 139.3 C 295.8 138.4 296.7 137.6 298.5 137.6 C 300.7 137.6 302.2 139.4 302.2 141.7 C 302.2 141.7 302.2 141.7 302.2 141.7 C 302.2 144.3 300.4 146.1 298.2 146.1 C 296.5 146.1 295.7 145.3 295.3 144.6 Z M 301 141.8 C 301 141.8 301 141.8 301 141.8 C 301 140.3 300.1 138.7 298.1 138.7 C 296.1 138.7 295.2 140.1 295.2 141.9 C 295.2 141.9 295.2 141.9 295.2 141.9 C 295.2 143.7 296.2 145 298.1 145 C 300 145 301 143.5 301 141.8 Z M 311.4 144 C 311.4 144.7 311.5 145.7 311.5 145.9 C 311.5 145.9 310.3 145.9 310.3 145.9 C 310.3 145.6 310.2 144.9 310.2 144.6 C 309.8 145.5 308.9 146.1 307.1 146.1 C 304.8 146.1 304 144.7 304 143.5 C 304 143.5 304 143.5 304 143.5 C 304 141.5 305.9 140.9 308.2 140.9 C 309.2 140.9 309.9 140.9 310.2 140.9 C 310.2 140.9 310.2 140.4 310.2 140.4 C 310.2 139.5 309.8 138.6 307.9 138.6 C 306.3 138.6 305.9 139.3 305.7 140.2 C 305.69 140.16 305.7 140.2 305.7 140.2 L 304.5 140.2 C 304.5 140.2 304.49 140.16 304.5 140.2 C 304.6 139.1 305.3 137.6 307.9 137.6 C 310.7 137.6 311.4 139 311.4 140.3 C 311.4 140.3 311.4 144 311.4 144 Z M 310.2 141.8 C 309.9 141.8 309.4 141.8 308.2 141.8 C 306.2 141.8 305.2 142.3 305.2 143.5 C 305.2 143.5 305.2 143.5 305.2 143.5 C 305.2 144.4 305.9 145.1 307.3 145.1 C 309.7 145.1 310.2 143.7 310.2 142.3 C 310.2 142.3 310.2 141.8 310.2 141.8 Z M 314.3 140 C 314.3 139.3 314.3 138.6 314.3 137.8 C 314.3 137.8 315.5 137.8 315.5 137.8 C 315.5 138.1 315.5 138.9 315.5 139.7 C 316.1 138.4 317.3 137.6 318.8 137.6 C 318.8 137.6 318.8 138.8 318.8 138.8 C 317 138.8 315.5 140 315.5 142.4 C 315.52 142.4 315.5 145.9 315.5 145.9 L 314.3 145.9 C 314.3 145.9 314.31 140.02 314.3 140 Z M 328 143.4 C 328 143.4 327.99 143.42 328 143.4 C 327.6 144.9 326.3 146.1 324.1 146.1 C 321.4 146.1 320 144.2 320 141.9 C 320 141.9 320 141.9 320 141.9 C 320 139.6 321.5 137.6 324.2 137.6 C 326.7 137.6 327.8 139.2 328 140.3 C 327.98 140.35 328 140.3 328 140.3 L 326.8 140.3 C 326.8 140.3 326.77 140.35 326.8 140.3 C 326.5 139.5 325.8 138.6 324.1 138.6 C 322.3 138.6 321.2 140 321.2 141.9 C 321.2 141.9 321.2 141.9 321.2 141.9 C 321.2 143.7 322.3 145.1 324.1 145.1 C 325.6 145.1 326.4 144.4 326.8 143.4 C 326.78 143.42 326.8 143.4 326.8 143.4 L 328 143.4 Z M 338.1 141.9 C 338.1 141.9 338.1 141.9 338.1 141.9 C 338.1 144 336.8 146.1 333.9 146.1 C 331.3 146.1 329.7 144.1 329.7 141.9 C 329.7 141.9 329.7 141.9 329.7 141.9 C 329.7 139.5 331.4 137.6 334 137.6 C 336.6 137.6 338.1 139.7 338.1 141.9 Z M 331 141.9 C 331 141.9 331 141.9 331 141.9 C 331 143.5 332 145.1 333.9 145.1 C 335.9 145.1 336.9 143.6 336.9 141.9 C 336.9 141.9 336.9 141.9 336.9 141.9 C 336.9 140.1 335.8 138.6 333.9 138.6 C 331.9 138.6 331 140.1 331 141.9 Z M 347.6 143.5 C 347.6 144.3 347.6 145.1 347.7 145.9 C 347.7 145.9 346.5 145.9 346.5 145.9 C 346.5 145.7 346.4 145 346.4 144.4 C 346 145.4 345.3 146.1 343.5 146.1 C 341.8 146.1 340.5 145.2 340.5 142.8 C 340.46 142.85 340.5 137.8 340.5 137.8 L 341.7 137.8 C 341.7 137.8 341.67 142.61 341.7 142.6 C 341.7 143.9 342.2 145 343.7 145 C 345.6 145 346.4 143.9 346.4 141.4 C 346.43 141.45 346.4 137.8 346.4 137.8 L 347.6 137.8 C 347.6 137.8 347.64 143.53 347.6 143.5 Z M 350.6 140 C 350.6 139.3 350.6 138.6 350.5 137.8 C 350.5 137.8 351.7 137.8 351.7 137.8 C 351.7 138.1 351.8 138.9 351.8 139.7 C 352.3 138.4 353.5 137.6 355.1 137.6 C 355.1 137.6 355.1 138.8 355.1 138.8 C 353.2 138.8 351.8 140 351.8 142.4 C 351.77 142.4 351.8 145.9 351.8 145.9 L 350.6 145.9 C 350.6 145.9 350.56 140.02 350.6 140 Z M 364.2 143.5 C 364.2 144.3 364.2 145.1 364.2 145.9 C 364.2 145.9 363.1 145.9 363.1 145.9 C 363 145.7 363 145 363 144.4 C 362.6 145.4 361.8 146.1 360.1 146.1 C 358.3 146.1 357 145.2 357 142.8 C 357.02 142.85 357 137.8 357 137.8 L 358.2 137.8 C 358.2 137.8 358.23 142.61 358.2 142.6 C 358.2 143.9 358.7 145 360.3 145 C 362.2 145 363 143.9 363 141.4 C 363 141.45 363 137.8 363 137.8 L 364.2 137.8 C 364.2 137.8 364.2 143.53 364.2 143.5 Z M 367.8 142.1 C 367.8 142.1 367.8 142.13 367.8 142.1 C 367.9 143.8 369 145.1 370.8 145.1 C 372.1 145.1 372.9 144.5 373.4 143.6 C 373.37 143.64 373.4 143.6 373.4 143.6 L 374.6 143.6 C 374.6 143.6 374.58 143.64 374.6 143.6 C 374.2 144.8 373 146.1 370.7 146.1 C 367.9 146.1 366.6 144 366.6 141.9 C 366.6 141.9 366.6 141.9 366.6 141.9 C 366.6 139.4 368.2 137.6 370.6 137.6 C 373.7 137.6 374.7 139.9 374.7 141.8 C 374.7 141.9 374.7 142 374.7 142.1 C 374.7 142.13 367.8 142.1 367.8 142.1 Z M 373.4 141.2 C 373.4 141.2 373.42 141.2 373.4 141.2 C 373.3 140.1 372.8 138.6 370.6 138.6 C 368.9 138.6 368 139.7 367.8 141.2 C 367.83 141.2 367.8 141.2 367.8 141.2 L 373.4 141.2 Z M 375.8 148.2 C 376.7 146.3 377.1 144.9 377.2 143.5 C 377.2 143.5 378.4 143.5 378.4 143.5 C 378.3 144.7 377.8 146.8 376.9 148.2 C 376.9 148.2 375.8 148.2 375.8 148.2 Z M 399.5 143.4 C 399.5 143.4 399.52 143.42 399.5 143.4 C 399.1 144.9 397.9 146.1 395.7 146.1 C 392.9 146.1 391.5 144.2 391.5 141.9 C 391.5 141.9 391.5 141.9 391.5 141.9 C 391.5 139.6 393.1 137.6 395.7 137.6 C 398.3 137.6 399.3 139.2 399.5 140.3 C 399.51 140.35 399.5 140.3 399.5 140.3 L 398.3 140.3 C 398.3 140.3 398.3 140.35 398.3 140.3 C 398 139.5 397.3 138.6 395.7 138.6 C 393.9 138.6 392.7 140 392.7 141.9 C 392.7 141.9 392.7 141.9 392.7 141.9 C 392.7 143.7 393.8 145.1 395.7 145.1 C 397.1 145.1 397.9 144.4 398.3 143.4 C 398.31 143.42 398.3 143.4 398.3 143.4 L 399.5 143.4 Z M 409.7 141.9 C 409.7 141.9 409.7 141.9 409.7 141.9 C 409.7 144 408.3 146.1 405.4 146.1 C 402.8 146.1 401.3 144.1 401.3 141.9 C 401.3 141.9 401.3 141.9 401.3 141.9 C 401.3 139.5 402.9 137.6 405.5 137.6 C 408.2 137.6 409.7 139.7 409.7 141.9 Z M 402.5 141.9 C 402.5 141.9 402.5 141.9 402.5 141.9 C 402.5 143.5 403.6 145.1 405.5 145.1 C 407.4 145.1 408.4 143.6 408.4 141.9 C 408.4 141.9 408.4 141.9 408.4 141.9 C 408.4 140.1 407.3 138.6 405.4 138.6 C 403.5 138.6 402.5 140.1 402.5 141.9 Z M 412 139.9 C 412 139.2 412 138.5 412 137.8 C 412 137.8 413.2 137.8 413.2 137.8 C 413.2 138.2 413.2 138.6 413.2 139.1 C 413.6 138.4 414.4 137.6 415.9 137.6 C 417.2 137.6 418 138.2 418.3 139.2 C 418.8 138.5 419.5 137.6 421.1 137.6 C 422.7 137.6 424 138.5 424 140.9 C 423.97 140.87 424 145.9 424 145.9 L 422.8 145.9 C 422.8 145.9 422.77 140.93 422.8 140.9 C 422.8 139.9 422.5 138.7 420.9 138.7 C 419.5 138.7 418.6 139.6 418.6 141.5 C 418.6 141.48 418.6 145.9 418.6 145.9 L 417.4 145.9 C 417.4 145.9 417.4 140.84 417.4 140.8 C 417.4 139.8 417.1 138.7 415.5 138.7 C 413.9 138.7 413.2 140 413.2 141.6 C 413.23 141.62 413.2 145.9 413.2 145.9 L 412 145.9 C 412 145.9 412.02 139.91 412 139.9 Z M 426.9 139.9 C 426.9 139.2 426.9 138.5 426.9 137.8 C 426.9 137.8 428 137.8 428 137.8 C 428.1 138.2 428.1 138.6 428.1 139.1 C 428.5 138.4 429.3 137.6 430.7 137.6 C 432 137.6 432.8 138.2 433.2 139.2 C 433.6 138.5 434.4 137.6 436 137.6 C 437.5 137.6 438.8 138.5 438.8 140.9 C 438.83 140.87 438.8 145.9 438.8 145.9 L 437.6 145.9 C 437.6 145.9 437.62 140.93 437.6 140.9 C 437.6 139.9 437.3 138.7 435.8 138.7 C 434.4 138.7 433.5 139.6 433.5 141.5 C 433.46 141.48 433.5 145.9 433.5 145.9 L 432.3 145.9 C 432.3 145.9 432.25 140.84 432.3 140.8 C 432.3 139.8 431.9 138.7 430.4 138.7 C 428.7 138.7 428.1 140 428.1 141.6 C 428.08 141.62 428.1 145.9 428.1 145.9 L 426.9 145.9 C 426.9 145.9 426.88 139.91 426.9 139.9 Z M 442.4 142.1 C 442.4 142.1 442.43 142.13 442.4 142.1 C 442.5 143.8 443.7 145.1 445.4 145.1 C 446.8 145.1 447.5 144.5 448 143.6 C 448 143.64 448 143.6 448 143.6 L 449.2 143.6 C 449.2 143.6 449.21 143.64 449.2 143.6 C 448.8 144.8 447.7 146.1 445.3 146.1 C 442.6 146.1 441.2 144 441.2 141.9 C 441.2 141.9 441.2 141.9 441.2 141.9 C 441.2 139.4 442.9 137.6 445.3 137.6 C 448.3 137.6 449.3 139.9 449.3 141.8 C 449.3 141.9 449.3 142 449.3 142.1 C 449.33 142.13 442.4 142.1 442.4 142.1 Z M 448.1 141.2 C 448.1 141.2 448.05 141.2 448.1 141.2 C 448 140.1 447.4 138.6 445.3 138.6 C 443.5 138.6 442.6 139.7 442.5 141.2 C 442.46 141.2 442.5 141.2 442.5 141.2 L 448.1 141.2 Z " stroke="none" fill="#141414"/>  </g>  <g id="Polygon3598">    <path d="M 1.6 110.2 C 1.6 110.2 6.19 110.16 6.2 110.2 C 9.8 110.2 12 112.5 12 115.7 C 12 115.7 12 115.7 12 115.7 C 12 119.3 9.5 121.6 6.2 121.6 C 6.17 121.56 1.6 121.6 1.6 121.6 L 1.6 110.2 Z M 2.9 120.5 C 2.9 120.5 5.86 120.45 5.9 120.5 C 9.1 120.5 10.6 118.4 10.6 115.7 C 10.6 115.7 10.6 115.7 10.6 115.7 C 10.6 112.9 8.7 111.3 6 111.3 C 6.01 111.27 2.9 111.3 2.9 111.3 L 2.9 120.5 Z M 15.3 117.8 C 15.3 117.8 15.28 117.81 15.3 117.8 C 15.4 119.5 16.5 120.8 18.3 120.8 C 19.6 120.8 20.4 120.2 20.8 119.3 C 20.85 119.32 20.8 119.3 20.8 119.3 L 22.1 119.3 C 22.1 119.3 22.06 119.32 22.1 119.3 C 21.6 120.5 20.5 121.8 18.2 121.8 C 15.4 121.8 14.1 119.7 14.1 117.6 C 14.1 117.6 14.1 117.6 14.1 117.6 C 14.1 115.1 15.7 113.3 18.1 113.3 C 21.2 113.3 22.2 115.5 22.2 117.5 C 22.2 117.6 22.2 117.7 22.2 117.8 C 22.18 117.81 15.3 117.8 15.3 117.8 Z M 20.9 116.9 C 20.9 116.9 20.9 116.88 20.9 116.9 C 20.8 115.8 20.3 114.3 18.1 114.3 C 16.4 114.3 15.5 115.4 15.3 116.9 C 15.31 116.88 15.3 116.9 15.3 116.9 L 20.9 116.9 Z M 25.1 119.1 C 25.1 119.1 25.1 119.13 25.1 119.1 C 25.4 120.2 26.3 120.8 27.9 120.8 C 29.6 120.8 30.2 120.2 30.2 119.4 C 30.2 118.6 29.8 118.1 27.6 117.9 C 24.8 117.5 24.3 116.6 24.3 115.6 C 24.3 114.6 25.1 113.3 27.6 113.3 C 30.3 113.3 31.1 114.8 31.1 115.7 C 31.15 115.66 31.1 115.7 31.1 115.7 L 29.9 115.7 C 29.9 115.7 29.92 115.66 29.9 115.7 C 29.8 115.1 29.5 114.3 27.5 114.3 C 25.9 114.3 25.5 115 25.5 115.5 C 25.5 116.2 25.9 116.6 27.8 116.8 C 30.8 117.2 31.4 118.1 31.4 119.3 C 31.4 120.7 30.3 121.8 27.8 121.8 C 25.4 121.8 24.2 120.8 23.9 119.1 C 23.87 119.13 23.9 119.1 23.9 119.1 L 25.1 119.1 Z M 43.4 119.1 C 43.4 119.1 43.39 119.13 43.4 119.1 C 43.7 120.2 44.6 120.8 46.2 120.8 C 47.9 120.8 48.5 120.2 48.5 119.4 C 48.5 118.6 48.1 118.1 45.9 117.9 C 43.1 117.5 42.6 116.6 42.6 115.6 C 42.6 114.6 43.4 113.3 45.9 113.3 C 48.6 113.3 49.4 114.8 49.4 115.7 C 49.43 115.66 49.4 115.7 49.4 115.7 L 48.2 115.7 C 48.2 115.7 48.21 115.66 48.2 115.7 C 48.1 115.1 47.7 114.3 45.8 114.3 C 44.1 114.3 43.8 115 43.8 115.5 C 43.8 116.2 44.2 116.6 46.1 116.8 C 49.1 117.2 49.7 118.1 49.7 119.3 C 49.7 120.7 48.6 121.8 46.1 121.8 C 43.7 121.8 42.4 120.8 42.2 119.1 C 42.16 119.13 42.2 119.1 42.2 119.1 L 43.4 119.1 Z M 51.1 113.5 L 52.7 113.5 L 52.7 110.9 L 53.9 110.9 L 53.9 113.5 L 56.1 113.5 L 56.1 114.5 L 53.9 114.5 C 53.9 114.5 53.91 119.22 53.9 119.2 C 53.9 120.2 54.2 120.6 55.1 120.6 C 55.3 120.6 55.7 120.6 55.9 120.6 C 55.9 120.6 55.9 121.5 55.9 121.5 C 55.6 121.6 55.2 121.6 54.8 121.6 C 53.2 121.6 52.7 120.9 52.7 119.3 C 52.7 119.34 52.7 114.5 52.7 114.5 L 51.1 114.5 L 51.1 113.5 Z M 65 119.6 C 65 120.4 65 121.4 65.1 121.6 C 65.1 121.6 63.9 121.6 63.9 121.6 C 63.8 121.2 63.8 120.6 63.8 120.3 C 63.4 121.2 62.5 121.8 60.7 121.8 C 58.4 121.8 57.6 120.4 57.6 119.2 C 57.6 119.2 57.6 119.2 57.6 119.2 C 57.6 117.2 59.5 116.6 61.7 116.6 C 62.8 116.6 63.5 116.6 63.8 116.6 C 63.8 116.6 63.8 116.1 63.8 116.1 C 63.8 115.2 63.4 114.3 61.5 114.3 C 59.8 114.3 59.4 115 59.3 115.8 C 59.27 115.84 59.3 115.8 59.3 115.8 L 58.1 115.8 C 58.1 115.8 58.06 115.84 58.1 115.8 C 58.2 114.8 58.9 113.3 61.5 113.3 C 64.3 113.3 65 114.7 65 116 C 65 116 65 119.6 65 119.6 Z M 63.8 117.5 C 63.5 117.5 63 117.5 61.8 117.5 C 59.8 117.5 58.8 117.9 58.8 119.1 C 58.8 119.1 58.8 119.1 58.8 119.1 C 58.8 120 59.4 120.8 60.9 120.8 C 63.3 120.8 63.8 119.3 63.8 117.9 C 63.8 117.9 63.8 117.5 63.8 117.5 Z M 66.8 113.5 L 68.4 113.5 L 68.4 110.9 L 69.6 110.9 L 69.6 113.5 L 71.8 113.5 L 71.8 114.5 L 69.6 114.5 C 69.6 114.5 69.65 119.22 69.6 119.2 C 69.6 120.2 69.9 120.6 70.8 120.6 C 71.1 120.6 71.4 120.6 71.6 120.6 C 71.6 120.6 71.6 121.5 71.6 121.5 C 71.3 121.6 70.9 121.6 70.5 121.6 C 68.9 121.6 68.4 120.9 68.4 119.3 C 68.43 119.34 68.4 114.5 68.4 114.5 L 66.8 114.5 L 66.8 113.5 Z M 74.4 119.1 C 74.4 119.1 74.38 119.13 74.4 119.1 C 74.7 120.2 75.6 120.8 77.2 120.8 C 78.8 120.8 79.5 120.2 79.5 119.4 C 79.5 118.6 79 118.1 76.9 117.9 C 74.1 117.5 73.5 116.6 73.5 115.6 C 73.5 114.6 74.3 113.3 76.9 113.3 C 79.6 113.3 80.3 114.8 80.4 115.7 C 80.42 115.66 80.4 115.7 80.4 115.7 L 79.2 115.7 C 79.2 115.7 79.19 115.66 79.2 115.7 C 79.1 115.1 78.7 114.3 76.8 114.3 C 75.1 114.3 74.8 115 74.8 115.5 C 74.8 116.2 75.2 116.6 77.1 116.8 C 80.1 117.2 80.7 118.1 80.7 119.3 C 80.7 120.7 79.6 121.8 77.1 121.8 C 74.7 121.8 73.4 120.8 73.1 119.1 C 73.15 119.13 73.1 119.1 73.1 119.1 L 74.4 119.1 Z M 99 119.6 C 99 120.4 99.1 121.4 99.1 121.6 C 99.1 121.6 97.9 121.6 97.9 121.6 C 97.9 121.2 97.8 120.6 97.8 120.3 C 97.4 121.2 96.5 121.8 94.7 121.8 C 92.4 121.8 91.6 120.4 91.6 119.2 C 91.6 119.2 91.6 119.2 91.6 119.2 C 91.6 117.2 93.5 116.6 95.8 116.6 C 96.8 116.6 97.5 116.6 97.8 116.6 C 97.8 116.6 97.8 116.1 97.8 116.1 C 97.8 115.2 97.4 114.3 95.5 114.3 C 93.9 114.3 93.5 115 93.3 115.8 C 93.3 115.84 93.3 115.8 93.3 115.8 L 92.1 115.8 C 92.1 115.8 92.09 115.84 92.1 115.8 C 92.2 114.8 92.9 113.3 95.5 113.3 C 98.3 113.3 99 114.7 99 116 C 99 116 99 119.6 99 119.6 Z M 97.8 117.5 C 97.5 117.5 97 117.5 95.8 117.5 C 93.8 117.5 92.8 117.9 92.8 119.1 C 92.8 119.1 92.8 119.1 92.8 119.1 C 92.8 120 93.5 120.8 94.9 120.8 C 97.3 120.8 97.8 119.3 97.8 117.9 C 97.8 117.9 97.8 117.5 97.8 117.5 Z M 103.1 120.2 C 103.12 120.25 103.1 125.1 103.1 125.1 L 101.9 125.1 C 101.9 125.1 101.91 115.53 101.9 115.5 C 101.9 114.9 101.9 114.2 101.9 113.5 C 101.9 113.5 103.1 113.5 103.1 113.5 C 103.1 113.8 103.1 114.3 103.1 115 C 103.6 114.1 104.6 113.3 106.3 113.3 C 108.5 113.3 110 115.1 110 117.4 C 110 117.4 110 117.4 110 117.4 C 110 120 108.3 121.8 106.1 121.8 C 104.3 121.8 103.6 121 103.1 120.2 Z M 108.8 117.4 C 108.8 117.4 108.8 117.4 108.8 117.4 C 108.8 115.9 107.9 114.4 106 114.4 C 104 114.4 103.1 115.8 103.1 117.6 C 103.1 117.6 103.1 117.6 103.1 117.6 C 103.1 119.4 104 120.7 105.9 120.7 C 107.9 120.7 108.8 119.1 108.8 117.4 Z M 113.6 120.2 C 113.63 120.25 113.6 125.1 113.6 125.1 L 112.4 125.1 C 112.4 125.1 112.43 115.53 112.4 115.5 C 112.4 114.9 112.4 114.2 112.4 113.5 C 112.4 113.5 113.6 113.5 113.6 113.5 C 113.6 113.8 113.6 114.3 113.6 115 C 114.1 114.1 115.1 113.3 116.8 113.3 C 119 113.3 120.6 115.1 120.6 117.4 C 120.6 117.4 120.6 117.4 120.6 117.4 C 120.6 120 118.8 121.8 116.6 121.8 C 114.8 121.8 114.1 121 113.6 120.2 Z M 119.3 117.4 C 119.3 117.4 119.3 117.4 119.3 117.4 C 119.3 115.9 118.4 114.4 116.5 114.4 C 114.5 114.4 113.6 115.8 113.6 117.6 C 113.6 117.6 113.6 117.6 113.6 117.6 C 113.6 119.4 114.5 120.7 116.4 120.7 C 118.4 120.7 119.3 119.1 119.3 117.4 Z M 129.8 119.6 C 129.8 120.4 129.8 121.4 129.8 121.6 C 129.8 121.6 128.7 121.6 128.7 121.6 C 128.6 121.2 128.6 120.6 128.6 120.3 C 128.2 121.2 127.3 121.8 125.5 121.8 C 123.2 121.8 122.4 120.4 122.4 119.2 C 122.4 119.2 122.4 119.2 122.4 119.2 C 122.4 117.2 124.3 116.6 126.5 116.6 C 127.6 116.6 128.3 116.6 128.6 116.6 C 128.6 116.6 128.6 116.1 128.6 116.1 C 128.6 115.2 128.2 114.3 126.3 114.3 C 124.6 114.3 124.2 115 124 115.8 C 124.05 115.84 124 115.8 124 115.8 L 122.8 115.8 C 122.8 115.8 122.84 115.84 122.8 115.8 C 122.9 114.8 123.7 113.3 126.3 113.3 C 129.1 113.3 129.8 114.7 129.8 116 C 129.8 116 129.8 119.6 129.8 119.6 Z M 128.6 117.5 C 128.3 117.5 127.8 117.5 126.6 117.5 C 124.6 117.5 123.6 117.9 123.6 119.1 C 123.6 119.1 123.6 119.1 123.6 119.1 C 123.6 120 124.2 120.8 125.7 120.8 C 128 120.8 128.6 119.3 128.6 117.9 C 128.6 117.9 128.6 117.5 128.6 117.5 Z M 132.7 115.7 C 132.7 115 132.7 114.2 132.6 113.5 C 132.6 113.5 133.8 113.5 133.8 113.5 C 133.8 113.7 133.9 114.6 133.9 115.4 C 134.4 114.1 135.6 113.3 137.2 113.3 C 137.2 113.3 137.2 114.5 137.2 114.5 C 135.3 114.5 133.9 115.7 133.9 118.1 C 133.87 118.08 133.9 121.6 133.9 121.6 L 132.7 121.6 C 132.7 121.6 132.66 115.7 132.7 115.7 Z M 145.8 119.6 C 145.8 120.4 145.8 121.4 145.9 121.6 C 145.9 121.6 144.7 121.6 144.7 121.6 C 144.7 121.2 144.6 120.6 144.6 120.3 C 144.2 121.2 143.3 121.8 141.5 121.8 C 139.2 121.8 138.4 120.4 138.4 119.2 C 138.4 119.2 138.4 119.2 138.4 119.2 C 138.4 117.2 140.3 116.6 142.6 116.6 C 143.6 116.6 144.3 116.6 144.6 116.6 C 144.6 116.6 144.6 116.1 144.6 116.1 C 144.6 115.2 144.2 114.3 142.3 114.3 C 140.7 114.3 140.3 115 140.1 115.8 C 140.09 115.84 140.1 115.8 140.1 115.8 L 138.9 115.8 C 138.9 115.8 138.88 115.84 138.9 115.8 C 139 114.8 139.7 113.3 142.3 113.3 C 145.1 113.3 145.8 114.7 145.8 116 C 145.8 116 145.8 119.6 145.8 119.6 Z M 144.6 117.5 C 144.3 117.5 143.8 117.5 142.6 117.5 C 140.6 117.5 139.6 117.9 139.6 119.1 C 139.6 119.1 139.6 119.1 139.6 119.1 C 139.6 120 140.3 120.8 141.7 120.8 C 144.1 120.8 144.6 119.3 144.6 117.9 C 144.6 117.9 144.6 117.5 144.6 117.5 Z M 148.7 113.5 L 149.9 113.5 L 149.9 121.6 L 148.7 121.6 L 148.7 113.5 Z M 148.7 109.5 L 149.9 109.5 L 149.9 111.3 L 148.7 111.3 L 148.7 109.5 Z M 153.4 119.1 C 153.4 119.1 153.35 119.13 153.4 119.1 C 153.7 120.2 154.6 120.8 156.1 120.8 C 157.8 120.8 158.4 120.2 158.4 119.4 C 158.4 118.6 158 118.1 155.8 117.9 C 153.1 117.5 152.5 116.6 152.5 115.6 C 152.5 114.6 153.3 113.3 155.8 113.3 C 158.6 113.3 159.3 114.8 159.4 115.7 C 159.39 115.66 159.4 115.7 159.4 115.7 L 158.2 115.7 C 158.2 115.7 158.16 115.66 158.2 115.7 C 158 115.1 157.7 114.3 155.7 114.3 C 154.1 114.3 153.7 115 153.7 115.5 C 153.7 116.2 154.2 116.6 156.1 116.8 C 159 117.2 159.7 118.1 159.7 119.3 C 159.7 120.7 158.6 121.8 156.1 121.8 C 153.7 121.8 152.4 120.8 152.1 119.1 C 152.12 119.13 152.1 119.1 152.1 119.1 L 153.4 119.1 Z M 162.7 119.1 C 162.7 119.1 162.68 119.13 162.7 119.1 C 163 120.2 163.9 120.8 165.5 120.8 C 167.1 120.8 167.8 120.2 167.8 119.4 C 167.8 118.6 167.3 118.1 165.2 117.9 C 162.4 117.5 161.8 116.6 161.8 115.6 C 161.8 114.6 162.6 113.3 165.2 113.3 C 167.9 113.3 168.6 114.8 168.7 115.7 C 168.72 115.66 168.7 115.7 168.7 115.7 L 167.5 115.7 C 167.5 115.7 167.49 115.66 167.5 115.7 C 167.4 115.1 167 114.3 165.1 114.3 C 163.4 114.3 163.1 115 163.1 115.5 C 163.1 116.2 163.5 116.6 165.4 116.8 C 168.4 117.2 169 118.1 169 119.3 C 169 120.7 167.9 121.8 165.4 121.8 C 163 121.8 161.7 120.8 161.4 119.1 C 161.45 119.13 161.4 119.1 161.4 119.1 L 162.7 119.1 Z M 172 117.8 C 172 117.8 172 117.81 172 117.8 C 172.1 119.5 173.2 120.8 175 120.8 C 176.3 120.8 177.1 120.2 177.6 119.3 C 177.57 119.32 177.6 119.3 177.6 119.3 L 178.8 119.3 C 178.8 119.3 178.78 119.32 178.8 119.3 C 178.4 120.5 177.2 121.8 174.9 121.8 C 172.1 121.8 170.8 119.7 170.8 117.6 C 170.8 117.6 170.8 117.6 170.8 117.6 C 170.8 115.1 172.4 113.3 174.9 113.3 C 177.9 113.3 178.9 115.5 178.9 117.5 C 178.9 117.6 178.9 117.7 178.9 117.8 C 178.9 117.81 172 117.8 172 117.8 Z M 177.6 116.9 C 177.6 116.9 177.62 116.88 177.6 116.9 C 177.6 115.8 177 114.3 174.8 114.3 C 173.1 114.3 172.2 115.4 172 116.9 C 172.04 116.88 172 116.9 172 116.9 L 177.6 116.9 Z M 181.3 115.5 C 181.3 114.9 181.3 114.1 181.2 113.5 C 181.2 113.5 182.4 113.5 182.4 113.5 C 182.4 113.8 182.5 114.5 182.5 115.1 C 182.8 114.3 183.7 113.3 185.5 113.3 C 187.3 113.3 188.6 114.4 188.6 116.7 C 188.56 116.68 188.6 121.6 188.6 121.6 L 187.3 121.6 C 187.3 121.6 187.34 116.91 187.3 116.9 C 187.3 115.5 186.8 114.4 185.2 114.4 C 183.4 114.4 182.5 115.8 182.5 117.7 C 182.47 117.75 182.5 121.6 182.5 121.6 L 181.3 121.6 C 181.3 121.6 181.26 115.54 181.3 115.5 Z M 190.3 113.5 L 191.9 113.5 L 191.9 110.9 L 193.1 110.9 L 193.1 113.5 L 195.3 113.5 L 195.3 114.5 L 193.1 114.5 C 193.1 114.5 193.14 119.22 193.1 119.2 C 193.1 120.2 193.4 120.6 194.3 120.6 C 194.5 120.6 194.9 120.6 195.1 120.6 C 195.1 120.6 195.1 121.5 195.1 121.5 C 194.8 121.6 194.4 121.6 194 121.6 C 192.4 121.6 191.9 120.9 191.9 119.3 C 191.93 119.34 191.9 114.5 191.9 114.5 L 190.3 114.5 L 190.3 113.5 Z M 207.1 117.8 C 207.1 117.8 207.13 117.81 207.1 117.8 C 207.2 119.5 208.4 120.8 210.1 120.8 C 211.5 120.8 212.2 120.2 212.7 119.3 C 212.7 119.32 212.7 119.3 212.7 119.3 L 213.9 119.3 C 213.9 119.3 213.91 119.32 213.9 119.3 C 213.5 120.5 212.4 121.8 210 121.8 C 207.3 121.8 205.9 119.7 205.9 117.6 C 205.9 117.6 205.9 117.6 205.9 117.6 C 205.9 115.1 207.6 113.3 210 113.3 C 213 113.3 214 115.5 214 117.5 C 214 117.6 214 117.7 214 117.8 C 214.03 117.81 207.1 117.8 207.1 117.8 Z M 212.8 116.9 C 212.8 116.9 212.75 116.88 212.8 116.9 C 212.7 115.8 212.1 114.3 210 114.3 C 208.2 114.3 207.3 115.4 207.2 116.9 C 207.16 116.88 207.2 116.9 207.2 116.9 L 212.8 116.9 Z M 216.4 115.5 C 216.4 114.9 216.4 114.1 216.4 113.5 C 216.4 113.5 217.5 113.5 217.5 113.5 C 217.6 113.8 217.6 114.5 217.6 115.1 C 217.9 114.3 218.8 113.3 220.6 113.3 C 222.4 113.3 223.7 114.4 223.7 116.7 C 223.68 116.68 223.7 121.6 223.7 121.6 L 222.5 121.6 C 222.5 121.6 222.47 116.91 222.5 116.9 C 222.5 115.5 221.9 114.4 220.3 114.4 C 218.5 114.4 217.6 115.8 217.6 117.7 C 217.6 117.75 217.6 121.6 217.6 121.6 L 216.4 121.6 C 216.4 121.6 216.38 115.54 216.4 115.5 Z M 243.3 120.5 C 243.3 123.5 242.4 125.3 239.1 125.3 C 236.1 125.3 235.4 123.6 235.3 122.6 C 235.28 122.62 235.3 122.6 235.3 122.6 L 236.5 122.6 C 236.5 122.6 236.52 122.62 236.5 122.6 C 236.8 123.5 237.4 124.3 239.2 124.3 C 241.8 124.3 242.2 122.7 242.2 120.5 C 242.2 120.5 242.2 120 242.2 120 C 241.7 121.1 240.7 121.7 239 121.7 C 236.8 121.7 235.2 119.9 235.2 117.6 C 235.2 117.6 235.2 117.6 235.2 117.6 C 235.2 115 237.1 113.3 239.2 113.3 C 241.1 113.3 241.9 114.2 242.2 114.8 C 242.2 114.4 242.2 113.7 242.2 113.5 C 242.2 113.5 243.4 113.5 243.4 113.5 C 243.3 114.3 243.3 115.1 243.3 115.8 C 243.3 115.8 243.3 120.5 243.3 120.5 Z M 236.4 117.6 C 236.4 117.6 236.4 117.6 236.4 117.6 C 236.4 119.4 237.6 120.6 239.3 120.6 C 241.1 120.6 242.2 119.5 242.2 117.5 C 242.2 117.5 242.2 117.5 242.2 117.5 C 242.2 115.4 241.1 114.4 239.4 114.4 C 237.4 114.4 236.4 116 236.4 117.6 Z M 246.3 115.7 C 246.3 115 246.3 114.2 246.3 113.5 C 246.3 113.5 247.4 113.5 247.4 113.5 C 247.5 113.7 247.5 114.6 247.5 115.4 C 248 114.1 249.2 113.3 250.8 113.3 C 250.8 113.3 250.8 114.5 250.8 114.5 C 248.9 114.5 247.5 115.7 247.5 118.1 C 247.48 118.08 247.5 121.6 247.5 121.6 L 246.3 121.6 C 246.3 121.6 246.27 115.7 246.3 115.7 Z M 259.4 119.6 C 259.4 120.4 259.5 121.4 259.5 121.6 C 259.5 121.6 258.3 121.6 258.3 121.6 C 258.3 121.2 258.2 120.6 258.2 120.3 C 257.8 121.2 256.9 121.8 255.1 121.8 C 252.9 121.8 252 120.4 252 119.2 C 252 119.2 252 119.2 252 119.2 C 252 117.2 253.9 116.6 256.2 116.6 C 257.3 116.6 258 116.6 258.2 116.6 C 258.2 116.6 258.2 116.1 258.2 116.1 C 258.2 115.2 257.8 114.3 255.9 114.3 C 254.3 114.3 253.9 115 253.7 115.8 C 253.7 115.84 253.7 115.8 253.7 115.8 L 252.5 115.8 C 252.5 115.8 252.49 115.84 252.5 115.8 C 252.6 114.8 253.3 113.3 256 113.3 C 258.7 113.3 259.4 114.7 259.4 116 C 259.4 116 259.4 119.6 259.4 119.6 Z M 258.2 117.5 C 258 117.5 257.4 117.5 256.2 117.5 C 254.2 117.5 253.2 117.9 253.2 119.1 C 253.2 119.1 253.2 119.1 253.2 119.1 C 253.2 120 253.9 120.8 255.3 120.8 C 257.7 120.8 258.2 119.3 258.2 117.9 C 258.2 117.9 258.2 117.5 258.2 117.5 Z M 263.5 120.2 C 263.53 120.25 263.5 125.1 263.5 125.1 L 262.3 125.1 C 262.3 125.1 262.32 115.53 262.3 115.5 C 262.3 114.9 262.3 114.2 262.3 113.5 C 262.3 113.5 263.5 113.5 263.5 113.5 C 263.5 113.8 263.5 114.3 263.5 115 C 264 114.1 265 113.3 266.7 113.3 C 268.9 113.3 270.4 115.1 270.4 117.4 C 270.4 117.4 270.4 117.4 270.4 117.4 C 270.4 120 268.7 121.8 266.5 121.8 C 264.7 121.8 264 121 263.5 120.2 Z M 269.2 117.4 C 269.2 117.4 269.2 117.4 269.2 117.4 C 269.2 115.9 268.3 114.4 266.4 114.4 C 264.4 114.4 263.5 115.8 263.5 117.6 C 263.5 117.6 263.5 117.6 263.5 117.6 C 263.5 119.4 264.4 120.7 266.3 120.7 C 268.3 120.7 269.2 119.1 269.2 117.4 Z M 274.1 109.5 C 274.1 109.5 274.05 115.09 274.1 115.1 C 274.3 114.5 275.1 113.3 277.1 113.3 C 278.9 113.3 280.1 114.4 280.1 116.7 C 280.14 116.69 280.1 121.6 280.1 121.6 L 278.9 121.6 C 278.9 121.6 278.93 116.9 278.9 116.9 C 278.9 115.5 278.4 114.4 276.8 114.4 C 274.9 114.4 274.1 115.9 274.1 117.6 C 274.06 117.58 274.1 121.6 274.1 121.6 L 272.8 121.6 L 272.8 109.5 L 274.1 109.5 Z M 283 113.5 L 284.3 113.5 L 284.3 121.6 L 283 121.6 L 283 113.5 Z M 283 109.5 L 284.3 109.5 L 284.3 111.3 L 283 111.3 L 283 109.5 Z M 287.7 119.1 C 287.7 119.1 287.69 119.13 287.7 119.1 C 288 120.2 288.9 120.8 290.5 120.8 C 292.1 120.8 292.8 120.2 292.8 119.4 C 292.8 118.6 292.3 118.1 290.2 117.9 C 287.4 117.5 286.9 116.6 286.9 115.6 C 286.9 114.6 287.7 113.3 290.2 113.3 C 292.9 113.3 293.7 114.8 293.7 115.7 C 293.73 115.66 293.7 115.7 293.7 115.7 L 292.5 115.7 C 292.5 115.7 292.5 115.66 292.5 115.7 C 292.4 115.1 292 114.3 290.1 114.3 C 288.4 114.3 288.1 115 288.1 115.5 C 288.1 116.2 288.5 116.6 290.4 116.8 C 293.4 117.2 294 118.1 294 119.3 C 294 120.7 292.9 121.8 290.4 121.8 C 288 121.8 286.7 120.8 286.5 119.1 C 286.46 119.13 286.5 119.1 286.5 119.1 L 287.7 119.1 Z M 296.4 115.6 C 296.4 114.9 296.4 114.2 296.4 113.5 C 296.4 113.5 297.5 113.5 297.5 113.5 C 297.6 113.8 297.6 114.3 297.6 114.8 C 298 114.1 298.8 113.3 300.2 113.3 C 301.5 113.3 302.3 113.9 302.7 114.9 C 303.1 114.2 303.9 113.3 305.5 113.3 C 307 113.3 308.3 114.2 308.3 116.6 C 308.33 116.55 308.3 121.6 308.3 121.6 L 307.1 121.6 C 307.1 121.6 307.13 116.61 307.1 116.6 C 307.1 115.6 306.8 114.3 305.3 114.3 C 303.9 114.3 303 115.3 303 117.2 C 302.96 117.16 303 121.6 303 121.6 L 301.8 121.6 C 301.8 121.6 301.75 116.52 301.8 116.5 C 301.8 115.5 301.4 114.3 299.9 114.3 C 298.2 114.3 297.6 115.7 297.6 117.3 C 297.58 117.3 297.6 121.6 297.6 121.6 L 296.4 121.6 C 296.4 121.6 296.38 115.59 296.4 115.6 Z M 311.9 117.8 C 311.9 117.8 311.93 117.81 311.9 117.8 C 312 119.5 313.2 120.8 314.9 120.8 C 316.3 120.8 317 120.2 317.5 119.3 C 317.5 119.32 317.5 119.3 317.5 119.3 L 318.7 119.3 C 318.7 119.3 318.71 119.32 318.7 119.3 C 318.3 120.5 317.2 121.8 314.8 121.8 C 312.1 121.8 310.7 119.7 310.7 117.6 C 310.7 117.6 310.7 117.6 310.7 117.6 C 310.7 115.1 312.4 113.3 314.8 113.3 C 317.8 113.3 318.8 115.5 318.8 117.5 C 318.8 117.6 318.8 117.7 318.8 117.8 C 318.83 117.81 311.9 117.8 311.9 117.8 Z M 317.6 116.9 C 317.6 116.9 317.55 116.88 317.6 116.9 C 317.5 115.8 316.9 114.3 314.8 114.3 C 313 114.3 312.1 115.4 312 116.9 C 311.96 116.88 312 116.9 312 116.9 L 317.6 116.9 Z M 337.8 109.5 C 337.8 109.5 337.82 119.2 337.8 119.2 C 337.8 120 337.8 120.8 337.8 121.6 C 337.8 121.6 336.7 121.6 336.7 121.6 C 336.6 121.2 336.6 120.7 336.6 120.2 C 336.2 121 335.5 121.8 333.6 121.8 C 331.2 121.8 329.7 120 329.7 117.6 C 329.7 117.6 329.7 117.6 329.7 117.6 C 329.7 115 331.6 113.3 333.7 113.3 C 335.7 113.3 336.4 114.2 336.6 114.6 C 336.61 114.65 336.6 109.5 336.6 109.5 L 337.8 109.5 Z M 330.9 117.6 C 330.9 117.6 330.9 117.6 330.9 117.6 C 330.9 119.1 331.9 120.7 333.8 120.7 C 335.9 120.7 336.7 119.4 336.7 117.5 C 336.7 117.5 336.7 117.5 336.7 117.5 C 336.7 115.6 336 114.3 333.8 114.3 C 331.9 114.3 330.9 116 330.9 117.6 Z M 347.6 119.6 C 347.6 120.4 347.6 121.4 347.7 121.6 C 347.7 121.6 346.5 121.6 346.5 121.6 C 346.5 121.2 346.4 120.6 346.4 120.3 C 346 121.2 345.1 121.8 343.3 121.8 C 341 121.8 340.2 120.4 340.2 119.2 C 340.2 119.2 340.2 119.2 340.2 119.2 C 340.2 117.2 342.1 116.6 344.4 116.6 C 345.4 116.6 346.1 116.6 346.4 116.6 C 346.4 116.6 346.4 116.1 346.4 116.1 C 346.4 115.2 346 114.3 344.1 114.3 C 342.5 114.3 342.1 115 341.9 115.8 C 341.89 115.84 341.9 115.8 341.9 115.8 L 340.7 115.8 C 340.7 115.8 340.68 115.84 340.7 115.8 C 340.8 114.8 341.5 113.3 344.1 113.3 C 346.9 113.3 347.6 114.7 347.6 116 C 347.6 116 347.6 119.6 347.6 119.6 Z M 346.4 117.5 C 346.1 117.5 345.6 117.5 344.4 117.5 C 342.4 117.5 341.4 117.9 341.4 119.1 C 341.4 119.1 341.4 119.1 341.4 119.1 C 341.4 120 342.1 120.8 343.5 120.8 C 345.9 120.8 346.4 119.3 346.4 117.9 C 346.4 117.9 346.4 117.5 346.4 117.5 Z M 350.5 115.5 C 350.5 114.9 350.5 114.1 350.5 113.5 C 350.5 113.5 351.7 113.5 351.7 113.5 C 351.7 113.8 351.7 114.5 351.7 115.1 C 352.1 114.3 352.9 113.3 354.7 113.3 C 356.6 113.3 357.8 114.4 357.8 116.7 C 357.8 116.68 357.8 121.6 357.8 121.6 L 356.6 121.6 C 356.6 121.6 356.58 116.91 356.6 116.9 C 356.6 115.5 356 114.4 354.4 114.4 C 352.6 114.4 351.7 115.8 351.7 117.7 C 351.71 117.75 351.7 121.6 351.7 121.6 L 350.5 121.6 C 350.5 121.6 350.5 115.54 350.5 115.5 Z M 361.2 119.1 C 361.2 119.1 361.19 119.13 361.2 119.1 C 361.5 120.2 362.4 120.8 364 120.8 C 365.6 120.8 366.3 120.2 366.3 119.4 C 366.3 118.6 365.8 118.1 363.7 117.9 C 360.9 117.5 360.4 116.6 360.4 115.6 C 360.4 114.6 361.2 113.3 363.7 113.3 C 366.4 113.3 367.2 114.8 367.2 115.7 C 367.23 115.66 367.2 115.7 367.2 115.7 L 366 115.7 C 366 115.7 366 115.66 366 115.7 C 365.9 115.1 365.5 114.3 363.6 114.3 C 361.9 114.3 361.6 115 361.6 115.5 C 361.6 116.2 362 116.6 363.9 116.8 C 366.9 117.2 367.5 118.1 367.5 119.3 C 367.5 120.7 366.4 121.8 363.9 121.8 C 361.5 121.8 360.2 120.8 360 119.1 C 359.96 119.13 360 119.1 360 119.1 L 361.2 119.1 Z M 379 121.6 L 379 109.5 L 380.3 109.5 L 380.3 121.6 L 379 121.6 Z M 390 119.6 C 390 120.4 390.1 121.4 390.1 121.6 C 390.1 121.6 388.9 121.6 388.9 121.6 C 388.9 121.2 388.8 120.6 388.8 120.3 C 388.4 121.2 387.5 121.8 385.8 121.8 C 383.5 121.8 382.6 120.4 382.6 119.2 C 382.6 119.2 382.6 119.2 382.6 119.2 C 382.6 117.2 384.5 116.6 386.8 116.6 C 387.9 116.6 388.6 116.6 388.8 116.6 C 388.8 116.6 388.8 116.1 388.8 116.1 C 388.8 115.2 388.4 114.3 386.6 114.3 C 384.9 114.3 384.5 115 384.3 115.8 C 384.31 115.84 384.3 115.8 384.3 115.8 L 383.1 115.8 C 383.1 115.8 383.1 115.84 383.1 115.8 C 383.2 114.8 383.9 113.3 386.6 113.3 C 389.3 113.3 390 114.7 390 116 C 390 116 390 119.6 390 119.6 Z M 388.8 117.5 C 388.6 117.5 388 117.5 386.8 117.5 C 384.8 117.5 383.8 117.9 383.8 119.1 C 383.8 119.1 383.8 119.1 383.8 119.1 C 383.8 120 384.5 120.8 385.9 120.8 C 388.3 120.8 388.8 119.3 388.8 117.9 C 388.8 117.9 388.8 117.5 388.8 117.5 Z M 402.7 121.6 L 402.7 114.5 L 401.1 114.5 L 401.1 113.5 L 402.7 113.5 C 402.7 113.5 402.65 112.31 402.7 112.3 C 402.7 110.5 403.4 109.4 405.2 109.4 C 405.6 109.4 405.9 109.4 406.1 109.5 C 406.1 109.5 406.1 110.5 406.1 110.5 C 405.9 110.5 405.6 110.4 405.4 110.4 C 404.2 110.4 403.9 111 403.9 112.4 C 403.87 112.41 403.9 113.5 403.9 113.5 L 405.8 113.5 L 405.8 114.5 L 403.9 114.5 L 403.9 121.6 L 402.7 121.6 Z M 415.2 117.5 C 415.2 117.5 415.2 117.5 415.2 117.5 C 415.2 119.7 413.9 121.8 411 121.8 C 408.3 121.8 406.8 119.8 406.8 117.5 C 406.8 117.5 406.8 117.5 406.8 117.5 C 406.8 115.2 408.4 113.3 411.1 113.3 C 413.7 113.3 415.2 115.4 415.2 117.5 Z M 408.1 117.5 C 408.1 117.5 408.1 117.5 408.1 117.5 C 408.1 119.2 409.1 120.7 411 120.7 C 413 120.7 414 119.3 414 117.6 C 414 117.6 414 117.6 414 117.6 C 414 115.8 412.9 114.3 411 114.3 C 409 114.3 408.1 115.8 408.1 117.5 Z M 424.7 119.2 C 424.7 120 424.7 120.8 424.8 121.6 C 424.8 121.6 423.6 121.6 423.6 121.6 C 423.6 121.3 423.5 120.7 423.5 120.1 C 423.1 121.1 422.4 121.8 420.6 121.8 C 418.9 121.8 417.6 120.9 417.6 118.5 C 417.56 118.53 417.6 113.5 417.6 113.5 L 418.8 113.5 C 418.8 113.5 418.77 118.29 418.8 118.3 C 418.8 119.6 419.3 120.7 420.8 120.7 C 422.7 120.7 423.5 119.6 423.5 117.1 C 423.53 117.13 423.5 113.5 423.5 113.5 L 424.7 113.5 C 424.7 113.5 424.74 119.21 424.7 119.2 Z M 427.7 121.6 L 427.7 109.5 L 428.9 109.5 L 428.9 121.6 L 427.7 121.6 Z M 432.5 117.8 C 432.5 117.8 432.47 117.81 432.5 117.8 C 432.6 119.5 433.7 120.8 435.5 120.8 C 436.8 120.8 437.6 120.2 438 119.3 C 438.04 119.32 438 119.3 438 119.3 L 439.3 119.3 C 439.3 119.3 439.25 119.32 439.3 119.3 C 438.8 120.5 437.7 121.8 435.4 121.8 C 432.6 121.8 431.3 119.7 431.3 117.6 C 431.3 117.6 431.3 117.6 431.3 117.6 C 431.3 115.1 432.9 113.3 435.3 113.3 C 438.4 113.3 439.4 115.5 439.4 117.5 C 439.4 117.6 439.4 117.7 439.4 117.8 C 439.37 117.81 432.5 117.8 432.5 117.8 Z M 438.1 116.9 C 438.1 116.9 438.1 116.88 438.1 116.9 C 438 115.8 437.5 114.3 435.3 114.3 C 433.6 114.3 432.7 115.4 432.5 116.9 C 432.51 116.88 432.5 116.9 432.5 116.9 L 438.1 116.9 Z M 438 109.3 L 435.4 111.9 L 434.2 111.9 L 436.5 109.3 L 438 109.3 Z M 442.4 117.8 C 442.4 117.8 442.43 117.81 442.4 117.8 C 442.5 119.5 443.7 120.8 445.4 120.8 C 446.8 120.8 447.5 120.2 448 119.3 C 448 119.32 448 119.3 448 119.3 L 449.2 119.3 C 449.2 119.3 449.21 119.32 449.2 119.3 C 448.8 120.5 447.7 121.8 445.3 121.8 C 442.6 121.8 441.2 119.7 441.2 117.6 C 441.2 117.6 441.2 117.6 441.2 117.6 C 441.2 115.1 442.9 113.3 445.3 113.3 C 448.3 113.3 449.3 115.5 449.3 117.5 C 449.3 117.6 449.3 117.7 449.3 117.8 C 449.33 117.81 442.4 117.8 442.4 117.8 Z M 448.1 116.9 C 448.1 116.9 448.05 116.88 448.1 116.9 C 448 115.8 447.4 114.3 445.3 114.3 C 443.5 114.3 442.6 115.4 442.5 116.9 C 442.46 116.88 442.5 116.9 442.5 116.9 L 448.1 116.9 Z " stroke="none" fill="#141414"/>  </g></svg>