<?xml version="1.0" standalone="no"?><!DOCTYPE svg PUBLIC "-//W3C//DTD SVG 1.1//EN" "http://www.w3.org/Graphics/SVG/1.1/DTD/svg11.dtd"><svg xmlns="http://www.w3.org/2000/svg" version="1.1" width="450px" height="286.2px" viewBox="0 -1 450 286.2" style="top:-1px">  <desc>On dezoom du plan GPS qui est en fait la landing page du site BINGE-FIT by Canal+, on r alise qu’il s’affiche sur une...</desc>  <defs/>  <g id="Polygon3973">    <path d="M 8.1 192.6 C 8.1 193.3 8.2 194.3 8.2 194.5 C 8.2 194.5 7 194.5 7 194.5 C 7 194.2 7 193.5 7 193.3 C 6.5 194.1 5.6 194.7 3.9 194.7 C 1.6 194.7 0.7 193.4 0.7 192.2 C 0.7 192.2 0.7 192.2 0.7 192.2 C 0.7 190.1 2.6 189.6 4.9 189.6 C 6 189.6 6.7 189.6 6.9 189.6 C 6.9 189.6 6.9 189.1 6.9 189.1 C 6.9 188.1 6.5 187.2 4.7 187.2 C 3 187.2 2.6 188 2.4 188.8 C 2.42 188.8 2.4 188.8 2.4 188.8 L 1.2 188.8 C 1.2 188.8 1.21 188.8 1.2 188.8 C 1.3 187.7 2 186.2 4.7 186.2 C 7.4 186.2 8.1 187.6 8.1 188.9 C 8.1 188.9 8.1 192.6 8.1 192.6 Z M 6.9 190.5 C 6.7 190.5 6.1 190.5 4.9 190.5 C 2.9 190.5 2 190.9 2 192.1 C 2 192.1 2 192.1 2 192.1 C 2 193 2.6 193.7 4.1 193.7 C 6.4 193.7 6.9 192.3 6.9 190.9 C 6.9 190.9 6.9 190.5 6.9 190.5 Z M 18.1 192.2 C 18.1 193 18.1 193.7 18.2 194.5 C 18.2 194.5 17 194.5 17 194.5 C 17 194.3 16.9 193.7 16.9 193 C 16.5 194 15.8 194.7 14 194.7 C 12.3 194.7 11 193.8 11 191.5 C 10.96 191.49 11 186.5 11 186.5 L 12.2 186.5 C 12.2 186.5 12.17 191.25 12.2 191.3 C 12.2 192.5 12.7 193.7 14.2 193.7 C 16.1 193.7 16.9 192.6 16.9 190.1 C 16.93 190.09 16.9 186.5 16.9 186.5 L 18.1 186.5 C 18.1 186.5 18.14 192.17 18.1 192.2 Z M 37 182.5 C 37 182.5 36.95 192.16 37 192.2 C 37 192.9 37 193.7 37 194.5 C 37 194.5 35.8 194.5 35.8 194.5 C 35.8 194.1 35.7 193.6 35.7 193.2 C 35.3 193.9 34.6 194.7 32.7 194.7 C 30.3 194.7 28.8 193 28.8 190.6 C 28.8 190.6 28.8 190.6 28.8 190.6 C 28.8 187.9 30.7 186.2 32.9 186.2 C 34.9 186.2 35.5 187.2 35.7 187.6 C 35.74 187.61 35.7 182.5 35.7 182.5 L 37 182.5 Z M 30.1 190.5 C 30.1 190.5 30.1 190.5 30.1 190.5 C 30.1 192.1 31 193.7 32.9 193.7 C 35 193.7 35.8 192.4 35.8 190.5 C 35.8 190.5 35.8 190.5 35.8 190.5 C 35.8 188.6 35.2 187.3 33 187.3 C 31 187.3 30.1 188.9 30.1 190.5 Z M 40.5 190.8 C 40.5 190.8 40.55 190.77 40.5 190.8 C 40.6 192.5 41.8 193.7 43.5 193.7 C 44.9 193.7 45.6 193.1 46.1 192.3 C 46.12 192.28 46.1 192.3 46.1 192.3 L 47.3 192.3 C 47.3 192.3 47.33 192.28 47.3 192.3 C 46.9 193.4 45.8 194.7 43.4 194.7 C 40.7 194.7 39.3 192.7 39.3 190.5 C 39.3 190.5 39.3 190.5 39.3 190.5 C 39.3 188 41 186.2 43.4 186.2 C 46.4 186.2 47.4 188.5 47.4 190.4 C 47.4 190.5 47.4 190.6 47.4 190.8 C 47.45 190.77 40.5 190.8 40.5 190.8 Z M 46.2 189.8 C 46.2 189.8 46.17 189.84 46.2 189.8 C 46.1 188.8 45.5 187.2 43.4 187.2 C 41.6 187.2 40.7 188.4 40.6 189.8 C 40.58 189.84 40.6 189.8 40.6 189.8 L 46.2 189.8 Z M 46 182.3 L 43.5 184.9 L 42.3 184.9 L 44.5 182.3 L 46 182.3 Z M 51 193.2 C 51.01 193.21 51 198.1 51 198.1 L 49.8 198.1 C 49.8 198.1 49.8 188.49 49.8 188.5 C 49.8 187.8 49.8 187.1 49.8 186.5 C 49.8 186.5 51 186.5 51 186.5 C 51 186.7 51 187.3 51 188 C 51.5 187.1 52.5 186.2 54.2 186.2 C 56.4 186.2 57.9 188 57.9 190.4 C 57.9 190.4 57.9 190.4 57.9 190.4 C 57.9 192.9 56.2 194.7 54 194.7 C 52.2 194.7 51.5 194 51 193.2 Z M 56.7 190.4 C 56.7 190.4 56.7 190.4 56.7 190.4 C 56.7 188.9 55.8 187.3 53.9 187.3 C 51.9 187.3 51 188.7 51 190.5 C 51 190.5 51 190.5 51 190.5 C 51 192.3 51.9 193.7 53.8 193.7 C 55.7 193.7 56.7 192.1 56.7 190.4 Z M 67.1 192.6 C 67.1 193.3 67.2 194.3 67.2 194.5 C 67.2 194.5 66.1 194.5 66.1 194.5 C 66 194.2 66 193.5 66 193.3 C 65.5 194.1 64.6 194.7 62.9 194.7 C 60.6 194.7 59.8 193.4 59.8 192.2 C 59.8 192.2 59.8 192.2 59.8 192.2 C 59.8 190.1 61.6 189.6 63.9 189.6 C 65 189.6 65.7 189.6 65.9 189.6 C 65.9 189.6 65.9 189.1 65.9 189.1 C 65.9 188.1 65.5 187.2 63.7 187.2 C 62 187.2 61.6 188 61.4 188.8 C 61.43 188.8 61.4 188.8 61.4 188.8 L 60.2 188.8 C 60.2 188.8 60.22 188.8 60.2 188.8 C 60.3 187.7 61 186.2 63.7 186.2 C 66.4 186.2 67.1 187.6 67.1 188.9 C 67.1 188.9 67.1 192.6 67.1 192.6 Z M 65.9 190.5 C 65.7 190.5 65.1 190.5 63.9 190.5 C 61.9 190.5 61 190.9 61 192.1 C 61 192.1 61 192.1 61 192.1 C 61 193 61.6 193.7 63.1 193.7 C 65.4 193.7 65.9 192.3 65.9 190.9 C 65.9 190.9 65.9 190.5 65.9 190.5 Z M 70 188.7 C 70 187.9 70 187.2 70 186.5 C 70 186.5 71.2 186.5 71.2 186.5 C 71.2 186.7 71.2 187.5 71.2 188.3 C 71.8 187.1 73 186.2 74.6 186.2 C 74.6 186.2 74.6 187.4 74.6 187.4 C 72.7 187.4 71.2 188.6 71.2 191 C 71.25 191.04 71.2 194.5 71.2 194.5 L 70 194.5 C 70 194.5 70.04 188.66 70 188.7 Z M 76 186.5 L 77.6 186.5 L 77.6 183.8 L 78.8 183.8 L 78.8 186.5 L 81 186.5 L 81 187.5 L 78.8 187.5 C 78.8 187.5 78.81 192.18 78.8 192.2 C 78.8 193.2 79.1 193.6 80 193.6 C 80.2 193.6 80.6 193.6 80.8 193.5 C 80.8 193.5 80.8 194.5 80.8 194.5 C 80.5 194.6 80.1 194.6 79.7 194.6 C 78.1 194.6 77.6 193.9 77.6 192.3 C 77.6 192.3 77.6 187.5 77.6 187.5 L 76 187.5 L 76 186.5 Z M 82.8 194.5 L 82.8 192.1 L 84.1 192.1 L 84.1 194.5 L 82.8 194.5 Z " stroke="none" fill="#141414"/>  </g>  <g id="Polygon3972">    <path d="M 1.6 170.2 L 1.6 158.8 C 1.6 158.8 3.19 158.8 3.2 158.8 C 5.6 162 9.9 167.5 10.5 168.6 C 10.5 168.6 10.6 168.6 10.6 168.6 C 10.5 167.1 10.5 165.4 10.5 163.5 C 10.48 163.51 10.5 158.8 10.5 158.8 L 11.7 158.8 L 11.7 170.2 C 11.7 170.2 10.23 170.2 10.2 170.2 C 8.4 167.8 3.7 161.5 2.8 160.1 C 2.8 160.1 2.8 160.1 2.8 160.1 C 2.9 161.6 2.9 163.2 2.9 165.3 C 2.86 165.26 2.9 170.2 2.9 170.2 L 1.6 170.2 Z M 22.9 166.2 C 22.9 166.2 22.9 166.2 22.9 166.2 C 22.9 168.3 21.5 170.4 18.6 170.4 C 16 170.4 14.5 168.4 14.5 166.2 C 14.5 166.2 14.5 166.2 14.5 166.2 C 14.5 163.9 16.1 161.9 18.7 161.9 C 21.4 161.9 22.9 164 22.9 166.2 Z M 15.7 166.2 C 15.7 166.2 15.7 166.2 15.7 166.2 C 15.7 167.8 16.8 169.4 18.7 169.4 C 20.7 169.4 21.6 167.9 21.6 166.2 C 21.6 166.2 21.6 166.2 21.6 166.2 C 21.6 164.5 20.5 163 18.6 163 C 16.7 163 15.7 164.5 15.7 166.2 Z M 32.4 167.9 C 32.4 168.6 32.4 169.4 32.4 170.2 C 32.4 170.2 31.2 170.2 31.2 170.2 C 31.2 170 31.2 169.3 31.2 168.7 C 30.8 169.7 30 170.4 28.2 170.4 C 26.5 170.4 25.2 169.5 25.2 167.2 C 25.19 167.17 25.2 162.2 25.2 162.2 L 26.4 162.2 C 26.4 162.2 26.4 166.93 26.4 166.9 C 26.4 168.2 26.9 169.3 28.5 169.3 C 30.3 169.3 31.2 168.3 31.2 165.8 C 31.17 165.77 31.2 162.2 31.2 162.2 L 32.4 162.2 C 32.4 162.2 32.38 167.85 32.4 167.9 Z M 35.8 167.8 C 35.8 167.8 35.85 167.77 35.8 167.8 C 36.2 168.8 37.1 169.4 38.6 169.4 C 40.3 169.4 40.9 168.8 40.9 168 C 40.9 167.3 40.5 166.8 38.3 166.5 C 35.6 166.2 35 165.2 35 164.2 C 35 163.2 35.8 161.9 38.3 161.9 C 41.1 161.9 41.8 163.4 41.9 164.3 C 41.89 164.3 41.9 164.3 41.9 164.3 L 40.7 164.3 C 40.7 164.3 40.66 164.3 40.7 164.3 C 40.5 163.8 40.2 162.9 38.2 162.9 C 36.6 162.9 36.2 163.6 36.2 164.1 C 36.2 164.8 36.6 165.2 38.6 165.5 C 41.5 165.8 42.1 166.7 42.1 167.9 C 42.1 169.4 41.1 170.4 38.6 170.4 C 36.2 170.4 34.9 169.4 34.6 167.8 C 34.62 167.77 34.6 167.8 34.6 167.8 L 35.8 167.8 Z M 51.6 167.8 C 51.6 167.8 51.59 167.77 51.6 167.8 C 51.9 168.8 52.8 169.4 54.4 169.4 C 56 169.4 56.7 168.8 56.7 168 C 56.7 167.3 56.2 166.8 54.1 166.5 C 51.3 166.2 50.8 165.2 50.8 164.2 C 50.8 163.2 51.6 161.9 54.1 161.9 C 56.8 161.9 57.6 163.4 57.6 164.3 C 57.63 164.3 57.6 164.3 57.6 164.3 L 56.4 164.3 C 56.4 164.3 56.4 164.3 56.4 164.3 C 56.3 163.8 55.9 162.9 54 162.9 C 52.3 162.9 52 163.6 52 164.1 C 52 164.8 52.4 165.2 54.3 165.5 C 57.3 165.8 57.9 166.7 57.9 167.9 C 57.9 169.4 56.8 170.4 54.3 170.4 C 51.9 170.4 50.6 169.4 50.4 167.8 C 50.36 167.77 50.4 167.8 50.4 167.8 L 51.6 167.8 Z M 68.1 166.2 C 68.1 166.2 68.1 166.2 68.1 166.2 C 68.1 168.3 66.7 170.4 63.9 170.4 C 61.2 170.4 59.7 168.4 59.7 166.2 C 59.7 166.2 59.7 166.2 59.7 166.2 C 59.7 163.9 61.3 161.9 63.9 161.9 C 66.6 161.9 68.1 164 68.1 166.2 Z M 60.9 166.2 C 60.9 166.2 60.9 166.2 60.9 166.2 C 60.9 167.8 62 169.4 63.9 169.4 C 65.9 169.4 66.8 167.9 66.8 166.2 C 66.8 166.2 66.8 166.2 66.8 166.2 C 66.8 164.5 65.8 163 63.9 163 C 61.9 163 60.9 164.5 60.9 166.2 Z M 70.5 164.2 C 70.5 163.5 70.5 162.8 70.4 162.2 C 70.4 162.2 71.6 162.2 71.6 162.2 C 71.7 162.5 71.7 163 71.7 163.4 C 72.1 162.7 72.8 161.9 74.3 161.9 C 75.6 161.9 76.4 162.6 76.8 163.5 C 77.2 162.8 78 161.9 79.6 161.9 C 81.1 161.9 82.4 162.8 82.4 165.2 C 82.41 165.19 82.4 170.2 82.4 170.2 L 81.2 170.2 C 81.2 170.2 81.21 165.25 81.2 165.2 C 81.2 164.2 80.9 163 79.3 163 C 78 163 77 163.9 77 165.8 C 77.04 165.8 77 170.2 77 170.2 L 75.8 170.2 C 75.8 170.2 75.83 165.16 75.8 165.2 C 75.8 164.2 75.5 163 74 163 C 72.3 163 71.7 164.3 71.7 165.9 C 71.66 165.94 71.7 170.2 71.7 170.2 L 70.5 170.2 C 70.5 170.2 70.46 164.23 70.5 164.2 Z M 85.3 164.2 C 85.3 163.5 85.3 162.8 85.3 162.2 C 85.3 162.2 86.5 162.2 86.5 162.2 C 86.5 162.5 86.5 163 86.5 163.4 C 86.9 162.7 87.7 161.9 89.2 161.9 C 90.5 161.9 91.3 162.6 91.6 163.5 C 92.1 162.8 92.8 161.9 94.4 161.9 C 96 161.9 97.3 162.8 97.3 165.2 C 97.26 165.19 97.3 170.2 97.3 170.2 L 96.1 170.2 C 96.1 170.2 96.06 165.25 96.1 165.2 C 96.1 164.2 95.7 163 94.2 163 C 92.8 163 91.9 163.9 91.9 165.8 C 91.89 165.8 91.9 170.2 91.9 170.2 L 90.7 170.2 C 90.7 170.2 90.68 165.16 90.7 165.2 C 90.7 164.2 90.3 163 88.8 163 C 87.1 163 86.5 164.3 86.5 165.9 C 86.51 165.94 86.5 170.2 86.5 170.2 L 85.3 170.2 C 85.3 170.2 85.31 164.23 85.3 164.2 Z M 100.9 166.4 C 100.9 166.4 100.86 166.45 100.9 166.4 C 101 168.2 102.1 169.4 103.9 169.4 C 105.2 169.4 106 168.8 106.4 168 C 106.43 167.96 106.4 168 106.4 168 L 107.6 168 C 107.6 168 107.64 167.96 107.6 168 C 107.2 169.1 106.1 170.4 103.8 170.4 C 101 170.4 99.6 168.3 99.6 166.2 C 99.6 166.2 99.6 166.2 99.6 166.2 C 99.6 163.7 101.3 161.9 103.7 161.9 C 106.7 161.9 107.8 164.2 107.8 166.1 C 107.8 166.2 107.8 166.3 107.8 166.4 C 107.76 166.45 100.9 166.4 100.9 166.4 Z M 106.5 165.5 C 106.5 165.5 106.49 165.52 106.5 165.5 C 106.4 164.5 105.9 162.9 103.7 162.9 C 102 162.9 101.1 164 100.9 165.5 C 100.9 165.52 100.9 165.5 100.9 165.5 L 106.5 165.5 Z M 110.7 167.8 C 110.7 167.8 110.69 167.77 110.7 167.8 C 111 168.8 111.9 169.4 113.5 169.4 C 115.1 169.4 115.8 168.8 115.8 168 C 115.8 167.3 115.3 166.8 113.2 166.5 C 110.4 166.2 109.9 165.2 109.9 164.2 C 109.9 163.2 110.7 161.9 113.2 161.9 C 115.9 161.9 116.7 163.4 116.7 164.3 C 116.73 164.3 116.7 164.3 116.7 164.3 L 115.5 164.3 C 115.5 164.3 115.5 164.3 115.5 164.3 C 115.4 163.8 115 162.9 113.1 162.9 C 111.4 162.9 111.1 163.6 111.1 164.1 C 111.1 164.8 111.5 165.2 113.4 165.5 C 116.4 165.8 117 166.7 117 167.9 C 117 169.4 115.9 170.4 113.4 170.4 C 111 170.4 109.7 169.4 109.5 167.8 C 109.46 167.77 109.5 167.8 109.5 167.8 L 110.7 167.8 Z M 133.5 158.1 C 133.5 158.1 133.51 167.84 133.5 167.8 C 133.5 168.6 133.5 169.4 133.5 170.2 C 133.5 170.2 132.4 170.2 132.4 170.2 C 132.3 169.8 132.3 169.3 132.3 168.9 C 131.9 169.6 131.2 170.4 129.3 170.4 C 126.9 170.4 125.4 168.7 125.4 166.2 C 125.4 166.2 125.4 166.2 125.4 166.2 C 125.4 163.6 127.3 161.9 129.4 161.9 C 131.4 161.9 132.1 162.9 132.3 163.3 C 132.3 163.29 132.3 158.1 132.3 158.1 L 133.5 158.1 Z M 126.6 166.2 C 126.6 166.2 126.6 166.2 126.6 166.2 C 126.6 167.8 127.6 169.4 129.5 169.4 C 131.5 169.4 132.4 168 132.4 166.1 C 132.4 166.1 132.4 166.1 132.4 166.1 C 132.4 164.3 131.7 163 129.5 163 C 127.6 163 126.6 164.6 126.6 166.2 Z M 137.1 166.4 C 137.1 166.4 137.11 166.45 137.1 166.4 C 137.2 168.2 138.3 169.4 140.1 169.4 C 141.4 169.4 142.2 168.8 142.7 168 C 142.68 167.96 142.7 168 142.7 168 L 143.9 168 C 143.9 168 143.88 167.96 143.9 168 C 143.5 169.1 142.4 170.4 140 170.4 C 137.2 170.4 135.9 168.3 135.9 166.2 C 135.9 166.2 135.9 166.2 135.9 166.2 C 135.9 163.7 137.5 161.9 140 161.9 C 143 161.9 144 164.2 144 166.1 C 144 166.2 144 166.3 144 166.4 C 144.01 166.45 137.1 166.4 137.1 166.4 Z M 142.7 165.5 C 142.7 165.5 142.73 165.52 142.7 165.5 C 142.7 164.5 142.1 162.9 139.9 162.9 C 138.2 162.9 137.3 164 137.1 165.5 C 137.14 165.52 137.1 165.5 137.1 165.5 L 142.7 165.5 Z M 152.9 164.3 C 152.9 163.6 152.9 162.9 152.9 162.2 C 152.9 162.2 154.1 162.2 154.1 162.2 C 154.1 162.4 154.1 163.2 154.1 164 C 154.7 162.7 155.9 161.9 157.5 161.9 C 157.5 161.9 157.5 163.1 157.5 163.1 C 155.6 163.1 154.1 164.3 154.1 166.7 C 154.15 166.72 154.1 170.2 154.1 170.2 L 152.9 170.2 C 152.9 170.2 152.94 164.34 152.9 164.3 Z M 159.8 166.4 C 159.8 166.4 159.84 166.45 159.8 166.4 C 159.9 168.2 161.1 169.4 162.8 169.4 C 164.2 169.4 164.9 168.8 165.4 168 C 165.41 167.96 165.4 168 165.4 168 L 166.6 168 C 166.6 168 166.62 167.96 166.6 168 C 166.2 169.1 165.1 170.4 162.7 170.4 C 160 170.4 158.6 168.3 158.6 166.2 C 158.6 166.2 158.6 166.2 158.6 166.2 C 158.6 163.7 160.3 161.9 162.7 161.9 C 165.7 161.9 166.7 164.2 166.7 166.1 C 166.7 166.2 166.7 166.3 166.7 166.4 C 166.74 166.45 159.8 166.4 159.8 166.4 Z M 165.5 165.5 C 165.5 165.5 165.46 165.52 165.5 165.5 C 165.4 164.5 164.8 162.9 162.7 162.9 C 160.9 162.9 160 164 159.9 165.5 C 159.87 165.52 159.9 165.5 159.9 165.5 L 165.5 165.5 Z M 167.9 162.2 L 169.6 162.2 L 169.6 159.5 L 170.8 159.5 L 170.8 162.2 L 172.9 162.2 L 172.9 163.2 L 170.8 163.2 C 170.8 163.2 170.78 167.86 170.8 167.9 C 170.8 168.8 171 169.3 171.9 169.3 C 172.2 169.3 172.5 169.3 172.8 169.2 C 172.8 169.2 172.8 170.1 172.8 170.1 C 172.4 170.3 172.1 170.3 171.6 170.3 C 170.1 170.3 169.6 169.6 169.6 168 C 169.57 167.98 169.6 163.2 169.6 163.2 L 167.9 163.2 L 167.9 162.2 Z M 182.5 166.2 C 182.5 166.2 182.5 166.2 182.5 166.2 C 182.5 168.3 181.2 170.4 178.3 170.4 C 175.7 170.4 174.2 168.4 174.2 166.2 C 174.2 166.2 174.2 166.2 174.2 166.2 C 174.2 163.9 175.8 161.9 178.4 161.9 C 181.1 161.9 182.5 164 182.5 166.2 Z M 175.4 166.2 C 175.4 166.2 175.4 166.2 175.4 166.2 C 175.4 167.8 176.5 169.4 178.4 169.4 C 180.3 169.4 181.3 167.9 181.3 166.2 C 181.3 166.2 181.3 166.2 181.3 166.2 C 181.3 164.5 180.2 163 178.3 163 C 176.4 163 175.4 164.5 175.4 166.2 Z M 192.1 167.9 C 192.1 168.6 192.1 169.4 192.1 170.2 C 192.1 170.2 190.9 170.2 190.9 170.2 C 190.9 170 190.9 169.3 190.9 168.7 C 190.5 169.7 189.7 170.4 187.9 170.4 C 186.2 170.4 184.9 169.5 184.9 167.2 C 184.89 167.17 184.9 162.2 184.9 162.2 L 186.1 162.2 C 186.1 162.2 186.1 166.93 186.1 166.9 C 186.1 168.2 186.6 169.3 188.2 169.3 C 190 169.3 190.9 168.3 190.9 165.8 C 190.86 165.77 190.9 162.2 190.9 162.2 L 192.1 162.2 C 192.1 162.2 192.07 167.85 192.1 167.9 Z M 195 164.3 C 195 163.6 195 162.9 195 162.2 C 195 162.2 196.1 162.2 196.1 162.2 C 196.2 162.4 196.2 163.2 196.2 164 C 196.7 162.7 198 161.9 199.5 161.9 C 199.5 161.9 199.5 163.1 199.5 163.1 C 197.6 163.1 196.2 164.3 196.2 166.7 C 196.19 166.72 196.2 170.2 196.2 170.2 L 195 170.2 C 195 170.2 194.99 164.34 195 164.3 Z M 215.6 158.1 C 215.6 158.1 215.55 167.84 215.6 167.8 C 215.6 168.6 215.6 169.4 215.6 170.2 C 215.6 170.2 214.4 170.2 214.4 170.2 C 214.4 169.8 214.3 169.3 214.3 168.9 C 213.9 169.6 213.2 170.4 211.3 170.4 C 208.9 170.4 207.4 168.7 207.4 166.2 C 207.4 166.2 207.4 166.2 207.4 166.2 C 207.4 163.6 209.4 161.9 211.5 161.9 C 213.5 161.9 214.1 162.9 214.3 163.3 C 214.34 163.29 214.3 158.1 214.3 158.1 L 215.6 158.1 Z M 208.7 166.2 C 208.7 166.2 208.7 166.2 208.7 166.2 C 208.7 167.8 209.6 169.4 211.5 169.4 C 213.6 169.4 214.4 168 214.4 166.1 C 214.4 166.1 214.4 166.1 214.4 166.1 C 214.4 164.3 213.8 163 211.6 163 C 209.6 163 208.7 164.6 208.7 166.2 Z M 225.3 168.3 C 225.3 169 225.4 170 225.4 170.2 C 225.4 170.2 224.2 170.2 224.2 170.2 C 224.2 169.9 224.2 169.2 224.1 168.9 C 223.7 169.8 222.8 170.4 221.1 170.4 C 218.8 170.4 217.9 169 217.9 167.9 C 217.9 167.9 217.9 167.9 217.9 167.9 C 217.9 165.8 219.8 165.2 222.1 165.2 C 223.2 165.2 223.9 165.2 224.1 165.2 C 224.1 165.2 224.1 164.8 224.1 164.8 C 224.1 163.8 223.7 162.9 221.9 162.9 C 220.2 162.9 219.8 163.7 219.6 164.5 C 219.62 164.48 219.6 164.5 219.6 164.5 L 218.4 164.5 C 218.4 164.5 218.41 164.48 218.4 164.5 C 218.5 163.4 219.2 161.9 221.9 161.9 C 224.6 161.9 225.3 163.3 225.3 164.6 C 225.3 164.6 225.3 168.3 225.3 168.3 Z M 224.1 166.2 C 223.9 166.2 223.3 166.2 222.1 166.2 C 220.1 166.2 219.1 166.6 219.1 167.8 C 219.1 167.8 219.1 167.8 219.1 167.8 C 219.1 168.7 219.8 169.4 221.2 169.4 C 223.6 169.4 224.1 168 224.1 166.6 C 224.1 166.6 224.1 166.2 224.1 166.2 Z M 228.2 164.2 C 228.2 163.5 228.2 162.8 228.2 162.2 C 228.2 162.2 229.4 162.2 229.4 162.2 C 229.4 162.4 229.4 163.2 229.4 163.8 C 229.8 162.9 230.7 161.9 232.4 161.9 C 234.3 161.9 235.5 163.1 235.5 165.3 C 235.53 165.32 235.5 170.2 235.5 170.2 L 234.3 170.2 C 234.3 170.2 234.31 165.55 234.3 165.6 C 234.3 164.1 233.8 163 232.2 163 C 230.3 163 229.4 164.4 229.4 166.4 C 229.44 166.39 229.4 170.2 229.4 170.2 L 228.2 170.2 C 228.2 170.2 228.23 164.18 228.2 164.2 Z M 238.9 167.8 C 238.9 167.8 238.92 167.77 238.9 167.8 C 239.2 168.8 240.1 169.4 241.7 169.4 C 243.4 169.4 244 168.8 244 168 C 244 167.3 243.6 166.8 241.4 166.5 C 238.6 166.2 238.1 165.2 238.1 164.2 C 238.1 163.2 238.9 161.9 241.4 161.9 C 244.2 161.9 244.9 163.4 245 164.3 C 244.96 164.3 245 164.3 245 164.3 L 243.7 164.3 C 243.7 164.3 243.73 164.3 243.7 164.3 C 243.6 163.8 243.3 162.9 241.3 162.9 C 239.7 162.9 239.3 163.6 239.3 164.1 C 239.3 164.8 239.7 165.2 241.7 165.5 C 244.6 165.8 245.2 166.7 245.2 167.9 C 245.2 169.4 244.1 170.4 241.6 170.4 C 239.2 170.4 238 169.4 237.7 167.8 C 237.69 167.77 237.7 167.8 237.7 167.8 L 238.9 167.8 Z M 254.2 170.2 L 254.2 158.1 L 255.4 158.1 L 255.4 170.2 L 254.2 170.2 Z M 259.1 166.4 C 259.1 166.4 259.05 166.45 259.1 166.4 C 259.1 168.2 260.3 169.4 262 169.4 C 263.4 169.4 264.1 168.8 264.6 168 C 264.62 167.96 264.6 168 264.6 168 L 265.8 168 C 265.8 168 265.83 167.96 265.8 168 C 265.4 169.1 264.3 170.4 261.9 170.4 C 259.2 170.4 257.8 168.3 257.8 166.2 C 257.8 166.2 257.8 166.2 257.8 166.2 C 257.8 163.7 259.5 161.9 261.9 161.9 C 264.9 161.9 266 164.2 266 166.1 C 266 166.2 266 166.3 266 166.4 C 265.95 166.45 259.1 166.4 259.1 166.4 Z M 264.7 165.5 C 264.7 165.5 264.67 165.52 264.7 165.5 C 264.6 164.5 264 162.9 261.9 162.9 C 260.1 162.9 259.2 164 259.1 165.5 C 259.08 165.52 259.1 165.5 259.1 165.5 L 264.7 165.5 Z M 275.3 167.8 C 275.3 167.8 275.32 167.77 275.3 167.8 C 275.6 168.8 276.5 169.4 278.1 169.4 C 279.8 169.4 280.4 168.8 280.4 168 C 280.4 167.3 280 166.8 277.8 166.5 C 275 166.2 274.5 165.2 274.5 164.2 C 274.5 163.2 275.3 161.9 277.8 161.9 C 280.6 161.9 281.3 163.4 281.4 164.3 C 281.36 164.3 281.4 164.3 281.4 164.3 L 280.1 164.3 C 280.1 164.3 280.13 164.3 280.1 164.3 C 280 163.8 279.7 162.9 277.7 162.9 C 276.1 162.9 275.7 163.6 275.7 164.1 C 275.7 164.8 276.1 165.2 278.1 165.5 C 281 165.8 281.6 166.7 281.6 167.9 C 281.6 169.4 280.5 170.4 278 170.4 C 275.6 170.4 274.4 169.4 274.1 167.8 C 274.09 167.77 274.1 167.8 274.1 167.8 L 275.3 167.8 Z M 290.9 168.3 C 290.9 169 290.9 170 291 170.2 C 291 170.2 289.8 170.2 289.8 170.2 C 289.7 169.9 289.7 169.2 289.7 168.9 C 289.3 169.8 288.4 170.4 286.6 170.4 C 284.3 170.4 283.5 169 283.5 167.9 C 283.5 167.9 283.5 167.9 283.5 167.9 C 283.5 165.8 285.4 165.2 287.7 165.2 C 288.7 165.2 289.4 165.2 289.7 165.2 C 289.7 165.2 289.7 164.8 289.7 164.8 C 289.7 163.8 289.3 162.9 287.4 162.9 C 285.8 162.9 285.4 163.7 285.2 164.5 C 285.18 164.48 285.2 164.5 285.2 164.5 L 284 164.5 C 284 164.5 283.97 164.48 284 164.5 C 284.1 163.4 284.8 161.9 287.4 161.9 C 290.2 161.9 290.9 163.3 290.9 164.6 C 290.9 164.6 290.9 168.3 290.9 168.3 Z M 289.7 166.2 C 289.4 166.2 288.9 166.2 287.7 166.2 C 285.7 166.2 284.7 166.6 284.7 167.8 C 284.7 167.8 284.7 167.8 284.7 167.8 C 284.7 168.7 285.4 169.4 286.8 169.4 C 289.2 169.4 289.7 168 289.7 166.6 C 289.7 166.6 289.7 166.2 289.7 166.2 Z M 293.8 170.2 L 293.8 158.1 L 295 158.1 L 295 170.2 L 293.8 170.2 Z M 305.8 166.2 C 305.8 166.2 305.8 166.2 305.8 166.2 C 305.8 168.3 304.4 170.4 301.5 170.4 C 298.9 170.4 297.4 168.4 297.4 166.2 C 297.4 166.2 297.4 166.2 297.4 166.2 C 297.4 163.9 299 161.9 301.6 161.9 C 304.3 161.9 305.8 164 305.8 166.2 Z M 298.6 166.2 C 298.6 166.2 298.6 166.2 298.6 166.2 C 298.6 167.8 299.7 169.4 301.6 169.4 C 303.6 169.4 304.5 167.9 304.5 166.2 C 304.5 166.2 304.5 166.2 304.5 166.2 C 304.5 164.5 303.4 163 301.5 163 C 299.6 163 298.6 164.5 298.6 166.2 Z M 308.1 164.2 C 308.1 163.5 308.1 162.8 308.1 162.2 C 308.1 162.2 309.3 162.2 309.3 162.2 C 309.3 162.4 309.3 163.2 309.3 163.8 C 309.7 162.9 310.6 161.9 312.3 161.9 C 314.2 161.9 315.4 163.1 315.4 165.3 C 315.43 165.32 315.4 170.2 315.4 170.2 L 314.2 170.2 C 314.2 170.2 314.21 165.55 314.2 165.6 C 314.2 164.1 313.7 163 312.1 163 C 310.2 163 309.3 164.4 309.3 166.4 C 309.34 166.39 309.3 170.2 309.3 170.2 L 308.1 170.2 C 308.1 170.2 308.13 164.18 308.1 164.2 Z M 332.6 158.1 C 332.6 158.1 332.55 167.84 332.6 167.8 C 332.6 168.6 332.6 169.4 332.6 170.2 C 332.6 170.2 331.4 170.2 331.4 170.2 C 331.4 169.8 331.3 169.3 331.3 168.9 C 330.9 169.6 330.2 170.4 328.3 170.4 C 325.9 170.4 324.4 168.7 324.4 166.2 C 324.4 166.2 324.4 166.2 324.4 166.2 C 324.4 163.6 326.4 161.9 328.5 161.9 C 330.5 161.9 331.1 162.9 331.3 163.3 C 331.34 163.29 331.3 158.1 331.3 158.1 L 332.6 158.1 Z M 325.7 166.2 C 325.7 166.2 325.7 166.2 325.7 166.2 C 325.7 167.8 326.6 169.4 328.5 169.4 C 330.6 169.4 331.4 168 331.4 166.1 C 331.4 166.1 331.4 166.1 331.4 166.1 C 331.4 164.3 330.8 163 328.6 163 C 326.6 163 325.7 164.6 325.7 166.2 Z M 335.2 162.7 C 335.6 161.4 336 159.6 336 158.1 C 336 158.1 337.3 158.1 337.3 158.1 C 337.2 159.4 336.7 161.6 336.2 162.7 C 336.2 162.7 335.2 162.7 335.2 162.7 Z M 340.4 166.5 L 338.8 170.2 L 337.5 170.2 L 342.5 158.8 L 344 158.8 L 349.2 170.2 L 347.8 170.2 L 346.1 166.5 L 340.4 166.5 Z M 345.6 165.4 C 344.1 162.1 343.5 160.5 343.2 159.8 C 343.2 159.8 343.2 159.8 343.2 159.8 C 342.9 160.5 342.1 162.5 340.9 165.4 C 340.9 165.4 345.6 165.4 345.6 165.4 Z M 351.2 164.2 C 351.2 163.5 351.2 162.8 351.2 162.2 C 351.2 162.2 352.4 162.2 352.4 162.2 C 352.4 162.4 352.4 163.2 352.4 163.8 C 352.8 162.9 353.6 161.9 355.4 161.9 C 357.3 161.9 358.5 163.1 358.5 165.3 C 358.5 165.32 358.5 170.2 358.5 170.2 L 357.3 170.2 C 357.3 170.2 357.28 165.55 357.3 165.6 C 357.3 164.1 356.7 163 355.1 163 C 353.3 163 352.4 164.4 352.4 166.4 C 352.41 166.39 352.4 170.2 352.4 170.2 L 351.2 170.2 C 351.2 170.2 351.2 164.18 351.2 164.2 Z M 361.4 164.2 C 361.4 163.5 361.4 162.8 361.4 162.2 C 361.4 162.2 362.5 162.2 362.5 162.2 C 362.6 162.4 362.6 163.2 362.6 163.8 C 362.9 162.9 363.8 161.9 365.6 161.9 C 367.4 161.9 368.7 163.1 368.7 165.3 C 368.68 165.32 368.7 170.2 368.7 170.2 L 367.5 170.2 C 367.5 170.2 367.46 165.55 367.5 165.6 C 367.5 164.1 366.9 163 365.3 163 C 363.5 163 362.6 164.4 362.6 166.4 C 362.59 166.39 362.6 170.2 362.6 170.2 L 361.4 170.2 C 361.4 170.2 361.38 164.18 361.4 164.2 Z M 378.4 168.3 C 378.4 169 378.5 170 378.5 170.2 C 378.5 170.2 377.3 170.2 377.3 170.2 C 377.3 169.9 377.2 169.2 377.2 168.9 C 376.8 169.8 375.9 170.4 374.1 170.4 C 371.8 170.4 371 169 371 167.9 C 371 167.9 371 167.9 371 167.9 C 371 165.8 372.9 165.2 375.2 165.2 C 376.3 165.2 377 165.2 377.2 165.2 C 377.2 165.2 377.2 164.8 377.2 164.8 C 377.2 163.8 376.8 162.9 374.9 162.9 C 373.3 162.9 372.9 163.7 372.7 164.5 C 372.7 164.48 372.7 164.5 372.7 164.5 L 371.5 164.5 C 371.5 164.5 371.49 164.48 371.5 164.5 C 371.6 163.4 372.3 161.9 375 161.9 C 377.7 161.9 378.4 163.3 378.4 164.6 C 378.4 164.6 378.4 168.3 378.4 168.3 Z M 377.2 166.2 C 377 166.2 376.4 166.2 375.2 166.2 C 373.2 166.2 372.2 166.6 372.2 167.8 C 372.2 167.8 372.2 167.8 372.2 167.8 C 372.2 168.7 372.9 169.4 374.3 169.4 C 376.7 169.4 377.2 168 377.2 166.6 C 377.2 166.6 377.2 166.2 377.2 166.2 Z M 380.3 172.5 C 381.1 170.6 381.5 169.2 381.6 167.8 C 381.6 167.8 382.8 167.8 382.8 167.8 C 382.8 169 382.2 171.1 381.4 172.5 C 381.4 172.5 380.3 172.5 380.3 172.5 Z M 399.5 167.7 C 399.5 167.7 399.52 167.74 399.5 167.7 C 399.1 169.2 397.9 170.4 395.7 170.4 C 392.9 170.4 391.5 168.5 391.5 166.2 C 391.5 166.2 391.5 166.2 391.5 166.2 C 391.5 163.9 393.1 161.9 395.7 161.9 C 398.3 161.9 399.3 163.5 399.5 164.7 C 399.51 164.67 399.5 164.7 399.5 164.7 L 398.3 164.7 C 398.3 164.7 398.3 164.67 398.3 164.7 C 398 163.8 397.3 163 395.7 163 C 393.9 163 392.7 164.3 392.7 166.2 C 392.7 166.2 392.7 166.2 392.7 166.2 C 392.7 168 393.8 169.4 395.7 169.4 C 397.1 169.4 397.9 168.7 398.3 167.7 C 398.31 167.74 398.3 167.7 398.3 167.7 L 399.5 167.7 Z M 409.7 166.2 C 409.7 166.2 409.7 166.2 409.7 166.2 C 409.7 168.3 408.3 170.4 405.4 170.4 C 402.8 170.4 401.3 168.4 401.3 166.2 C 401.3 166.2 401.3 166.2 401.3 166.2 C 401.3 163.9 402.9 161.9 405.5 161.9 C 408.2 161.9 409.7 164 409.7 166.2 Z M 402.5 166.2 C 402.5 166.2 402.5 166.2 402.5 166.2 C 402.5 167.8 403.6 169.4 405.5 169.4 C 407.4 169.4 408.4 167.9 408.4 166.2 C 408.4 166.2 408.4 166.2 408.4 166.2 C 408.4 164.5 407.3 163 405.4 163 C 403.5 163 402.5 164.5 402.5 166.2 Z M 412 164.2 C 412 163.5 412 162.8 412 162.2 C 412 162.2 413.2 162.2 413.2 162.2 C 413.2 162.5 413.2 163 413.2 163.4 C 413.6 162.7 414.4 161.9 415.9 161.9 C 417.2 161.9 418 162.6 418.3 163.5 C 418.8 162.8 419.5 161.9 421.1 161.9 C 422.7 161.9 424 162.8 424 165.2 C 423.97 165.19 424 170.2 424 170.2 L 422.8 170.2 C 422.8 170.2 422.77 165.25 422.8 165.2 C 422.8 164.2 422.5 163 420.9 163 C 419.5 163 418.6 163.9 418.6 165.8 C 418.6 165.8 418.6 170.2 418.6 170.2 L 417.4 170.2 C 417.4 170.2 417.4 165.16 417.4 165.2 C 417.4 164.2 417.1 163 415.5 163 C 413.9 163 413.2 164.3 413.2 165.9 C 413.23 165.94 413.2 170.2 413.2 170.2 L 412 170.2 C 412 170.2 412.02 164.23 412 164.2 Z M 426.9 164.2 C 426.9 163.5 426.9 162.8 426.9 162.2 C 426.9 162.2 428 162.2 428 162.2 C 428.1 162.5 428.1 163 428.1 163.4 C 428.5 162.7 429.3 161.9 430.7 161.9 C 432 161.9 432.8 162.6 433.2 163.5 C 433.6 162.8 434.4 161.9 436 161.9 C 437.5 161.9 438.8 162.8 438.8 165.2 C 438.83 165.19 438.8 170.2 438.8 170.2 L 437.6 170.2 C 437.6 170.2 437.62 165.25 437.6 165.2 C 437.6 164.2 437.3 163 435.8 163 C 434.4 163 433.5 163.9 433.5 165.8 C 433.46 165.8 433.5 170.2 433.5 170.2 L 432.3 170.2 C 432.3 170.2 432.25 165.16 432.3 165.2 C 432.3 164.2 431.9 163 430.4 163 C 428.7 163 428.1 164.3 428.1 165.9 C 428.08 165.94 428.1 170.2 428.1 170.2 L 426.9 170.2 C 426.9 170.2 426.88 164.23 426.9 164.2 Z M 442.4 166.4 C 442.4 166.4 442.43 166.45 442.4 166.4 C 442.5 168.2 443.7 169.4 445.4 169.4 C 446.8 169.4 447.5 168.8 448 168 C 448 167.96 448 168 448 168 L 449.2 168 C 449.2 168 449.21 167.96 449.2 168 C 448.8 169.1 447.7 170.4 445.3 170.4 C 442.6 170.4 441.2 168.3 441.2 166.2 C 441.2 166.2 441.2 166.2 441.2 166.2 C 441.2 163.7 442.9 161.9 445.3 161.9 C 448.3 161.9 449.3 164.2 449.3 166.1 C 449.3 166.2 449.3 166.3 449.3 166.4 C 449.33 166.45 442.4 166.4 442.4 166.4 Z M 448.1 165.5 C 448.1 165.5 448.05 165.52 448.1 165.5 C 448 164.5 447.4 162.9 445.3 162.9 C 443.5 162.9 442.6 164 442.5 165.5 C 442.46 165.52 442.5 165.5 442.5 165.5 L 448.1 165.5 Z " stroke="none" fill="#141414"/>  </g>  <g id="Polygon3971">    <path d="M 1.8 143.5 C 1.8 143.5 1.79 143.45 1.8 143.5 C 2.1 144.5 3 145.1 4.6 145.1 C 6.2 145.1 6.9 144.5 6.9 143.7 C 6.9 143 6.4 142.4 4.3 142.2 C 1.5 141.9 1 140.9 1 139.9 C 1 138.9 1.8 137.6 4.3 137.6 C 7 137.6 7.8 139.1 7.8 140 C 7.83 139.98 7.8 140 7.8 140 L 6.6 140 C 6.6 140 6.6 139.98 6.6 140 C 6.5 139.5 6.1 138.6 4.2 138.6 C 2.5 138.6 2.2 139.3 2.2 139.8 C 2.2 140.5 2.6 140.9 4.5 141.1 C 7.5 141.5 8.1 142.4 8.1 143.6 C 8.1 145.1 7 146.1 4.5 146.1 C 2.1 146.1 0.8 145.1 0.6 143.5 C 0.56 143.45 0.6 143.5 0.6 143.5 L 1.8 143.5 Z M 9.9 138.4 C 10.3 137.1 10.7 135.3 10.8 133.8 C 10.8 133.8 12 133.8 12 133.8 C 11.9 135.1 11.4 137.3 11 138.4 C 11 138.4 9.9 138.4 9.9 138.4 Z M 20.6 144 C 20.6 144.7 20.7 145.7 20.7 145.9 C 20.7 145.9 19.5 145.9 19.5 145.9 C 19.5 145.6 19.4 144.9 19.4 144.6 C 19 145.5 18.1 146.1 16.3 146.1 C 14 146.1 13.2 144.7 13.2 143.5 C 13.2 143.5 13.2 143.5 13.2 143.5 C 13.2 141.5 15.1 140.9 17.4 140.9 C 18.5 140.9 19.1 140.9 19.4 140.9 C 19.4 140.9 19.4 140.4 19.4 140.4 C 19.4 139.5 19 138.6 17.1 138.6 C 15.5 138.6 15.1 139.3 14.9 140.2 C 14.9 140.16 14.9 140.2 14.9 140.2 L 13.7 140.2 C 13.7 140.2 13.69 140.16 13.7 140.2 C 13.8 139.1 14.5 137.6 17.2 137.6 C 19.9 137.6 20.6 139 20.6 140.3 C 20.6 140.3 20.6 144 20.6 144 Z M 19.4 141.8 C 19.2 141.8 18.6 141.8 17.4 141.8 C 15.4 141.8 14.4 142.3 14.4 143.5 C 14.4 143.5 14.4 143.5 14.4 143.5 C 14.4 144.4 15.1 145.1 16.5 145.1 C 18.9 145.1 19.4 143.7 19.4 142.3 C 19.4 142.3 19.4 141.8 19.4 141.8 Z M 24 145.9 L 24 138.8 L 22.4 138.8 L 22.4 137.8 L 24 137.8 C 24 137.8 23.98 136.63 24 136.6 C 24 134.8 24.7 133.7 26.5 133.7 C 26.9 133.7 27.3 133.7 27.5 133.8 C 27.5 133.8 27.5 134.8 27.5 134.8 C 27.2 134.8 26.9 134.8 26.7 134.8 C 25.5 134.8 25.2 135.3 25.2 136.7 C 25.19 136.73 25.2 137.8 25.2 137.8 L 27.1 137.8 L 27.1 138.8 L 25.2 138.8 L 25.2 145.9 L 24 145.9 Z M 30 145.9 L 30 138.8 L 28.4 138.8 L 28.4 137.8 L 30 137.8 C 30 137.8 29.97 136.63 30 136.6 C 30 134.8 30.7 133.7 32.5 133.7 C 32.9 133.7 33.3 133.7 33.5 133.8 C 33.5 133.8 33.5 134.8 33.5 134.8 C 33.2 134.8 32.9 134.8 32.7 134.8 C 31.5 134.8 31.2 135.3 31.2 136.7 C 31.18 136.73 31.2 137.8 31.2 137.8 L 33.1 137.8 L 33.1 138.8 L 31.2 138.8 L 31.2 145.9 L 30 145.9 Z M 35.1 137.8 L 36.3 137.8 L 36.3 145.9 L 35.1 145.9 L 35.1 137.8 Z M 35.1 133.8 L 36.3 133.8 L 36.3 135.6 L 35.1 135.6 L 35.1 133.8 Z M 46.7 143.4 C 46.7 143.4 46.74 143.42 46.7 143.4 C 46.3 144.9 45.1 146.1 42.9 146.1 C 40.1 146.1 38.7 144.2 38.7 141.9 C 38.7 141.9 38.7 141.9 38.7 141.9 C 38.7 139.6 40.3 137.6 42.9 137.6 C 45.5 137.6 46.5 139.2 46.7 140.3 C 46.73 140.35 46.7 140.3 46.7 140.3 L 45.5 140.3 C 45.5 140.3 45.52 140.35 45.5 140.3 C 45.2 139.5 44.5 138.6 42.9 138.6 C 41.1 138.6 40 140 40 141.9 C 40 141.9 40 141.9 40 141.9 C 40 143.7 41 145.1 42.9 145.1 C 44.3 145.1 45.1 144.4 45.5 143.4 C 45.53 143.42 45.5 143.4 45.5 143.4 L 46.7 143.4 Z M 50.2 133.8 C 50.2 133.8 50.24 139.41 50.2 139.4 C 50.5 138.8 51.3 137.6 53.3 137.6 C 55.1 137.6 56.3 138.7 56.3 141 C 56.33 141.01 56.3 145.9 56.3 145.9 L 55.1 145.9 C 55.1 145.9 55.12 141.22 55.1 141.2 C 55.1 139.8 54.6 138.7 53 138.7 C 51.1 138.7 50.2 140.2 50.2 141.9 C 50.25 141.9 50.2 145.9 50.2 145.9 L 49 145.9 L 49 133.8 L 50.2 133.8 Z M 59.9 142.1 C 59.9 142.1 59.89 142.13 59.9 142.1 C 60 143.8 61.1 145.1 62.9 145.1 C 64.2 145.1 65 144.5 65.5 143.6 C 65.46 143.64 65.5 143.6 65.5 143.6 L 66.7 143.6 C 66.7 143.6 66.67 143.64 66.7 143.6 C 66.3 144.8 65.1 146.1 62.8 146.1 C 60 146.1 58.7 144 58.7 141.9 C 58.7 141.9 58.7 141.9 58.7 141.9 C 58.7 139.4 60.3 137.6 62.7 137.6 C 65.8 137.6 66.8 139.9 66.8 141.8 C 66.8 141.9 66.8 142 66.8 142.1 C 66.79 142.13 59.9 142.1 59.9 142.1 Z M 65.5 141.2 C 65.5 141.2 65.51 141.2 65.5 141.2 C 65.4 140.1 64.9 138.6 62.7 138.6 C 61 138.6 60.1 139.7 59.9 141.2 C 59.93 141.2 59.9 141.2 59.9 141.2 L 65.5 141.2 Z M 77.8 143.5 C 77.8 143.5 77.82 143.45 77.8 143.5 C 78.1 144.5 79 145.1 80.6 145.1 C 82.3 145.1 82.9 144.5 82.9 143.7 C 82.9 143 82.5 142.4 80.3 142.2 C 77.5 141.9 77 140.9 77 139.9 C 77 138.9 77.8 137.6 80.3 137.6 C 83.1 137.6 83.8 139.1 83.9 140 C 83.86 139.98 83.9 140 83.9 140 L 82.6 140 C 82.6 140 82.63 139.98 82.6 140 C 82.5 139.5 82.2 138.6 80.2 138.6 C 78.6 138.6 78.2 139.3 78.2 139.8 C 78.2 140.5 78.6 140.9 80.6 141.1 C 83.5 141.5 84.1 142.4 84.1 143.6 C 84.1 145.1 83 146.1 80.5 146.1 C 78.1 146.1 76.9 145.1 76.6 143.5 C 76.59 143.45 76.6 143.5 76.6 143.5 L 77.8 143.5 Z M 93.6 143.5 C 93.6 144.3 93.6 145.1 93.6 145.9 C 93.6 145.9 92.5 145.9 92.5 145.9 C 92.4 145.7 92.4 145 92.4 144.4 C 92 145.4 91.3 146.1 89.5 146.1 C 87.8 146.1 86.4 145.2 86.4 142.8 C 86.44 142.85 86.4 137.8 86.4 137.8 L 87.7 137.8 C 87.7 137.8 87.65 142.61 87.7 142.6 C 87.7 143.9 88.2 145 89.7 145 C 91.6 145 92.4 143.9 92.4 141.4 C 92.41 141.45 92.4 137.8 92.4 137.8 L 93.6 137.8 C 93.6 137.8 93.62 143.53 93.6 143.5 Z M 96.5 140 C 96.5 139.3 96.5 138.6 96.5 137.8 C 96.5 137.8 97.7 137.8 97.7 137.8 C 97.7 138.1 97.7 138.9 97.7 139.7 C 98.3 138.4 99.5 137.6 101.1 137.6 C 101.1 137.6 101.1 138.8 101.1 138.8 C 99.2 138.8 97.7 140 97.7 142.4 C 97.75 142.4 97.7 145.9 97.7 145.9 L 96.5 145.9 C 96.5 145.9 96.54 140.02 96.5 140 Z M 118.4 143.5 C 118.4 144.3 118.4 145.1 118.4 145.9 C 118.4 145.9 117.3 145.9 117.3 145.9 C 117.2 145.7 117.2 145 117.2 144.4 C 116.8 145.4 116.1 146.1 114.3 146.1 C 112.6 146.1 111.2 145.2 111.2 142.8 C 111.24 142.85 111.2 137.8 111.2 137.8 L 112.5 137.8 C 112.5 137.8 112.45 142.61 112.5 142.6 C 112.5 143.9 113 145 114.5 145 C 116.4 145 117.2 143.9 117.2 141.4 C 117.22 141.45 117.2 137.8 117.2 137.8 L 118.4 137.8 C 118.4 137.8 118.43 143.53 118.4 143.5 Z M 121.3 139.9 C 121.3 139.2 121.3 138.4 121.3 137.8 C 121.3 137.8 122.5 137.8 122.5 137.8 C 122.5 138.1 122.5 138.8 122.5 139.5 C 122.9 138.6 123.8 137.6 125.5 137.6 C 127.4 137.6 128.6 138.8 128.6 141 C 128.64 141 128.6 145.9 128.6 145.9 L 127.4 145.9 C 127.4 145.9 127.42 141.23 127.4 141.2 C 127.4 139.8 126.9 138.7 125.3 138.7 C 123.5 138.7 122.6 140.1 122.6 142.1 C 122.55 142.07 122.6 145.9 122.6 145.9 L 121.3 145.9 C 121.3 145.9 121.34 139.86 121.3 139.9 Z M 132.2 142.1 C 132.2 142.1 132.19 142.13 132.2 142.1 C 132.3 143.8 133.4 145.1 135.2 145.1 C 136.5 145.1 137.3 144.5 137.8 143.6 C 137.77 143.64 137.8 143.6 137.8 143.6 L 139 143.6 C 139 143.6 138.97 143.64 139 143.6 C 138.6 144.8 137.4 146.1 135.1 146.1 C 132.3 146.1 131 144 131 141.9 C 131 141.9 131 141.9 131 141.9 C 131 139.4 132.6 137.6 135 137.6 C 138.1 137.6 139.1 139.9 139.1 141.8 C 139.1 141.9 139.1 142 139.1 142.1 C 139.09 142.13 132.2 142.1 132.2 142.1 Z M 137.8 141.2 C 137.8 141.2 137.82 141.2 137.8 141.2 C 137.7 140.1 137.2 138.6 135 138.6 C 133.3 138.6 132.4 139.7 132.2 141.2 C 132.23 141.2 132.2 141.2 132.2 141.2 L 137.8 141.2 Z M 148.6 137.8 L 150.2 137.8 L 150.2 135.2 L 151.4 135.2 L 151.4 137.8 L 153.6 137.8 L 153.6 138.8 L 151.4 138.8 C 151.4 138.8 151.44 143.54 151.4 143.5 C 151.4 144.5 151.7 145 152.6 145 C 152.8 145 153.2 145 153.4 144.9 C 153.4 144.9 153.4 145.8 153.4 145.8 C 153.1 145.9 152.7 146 152.3 146 C 150.7 146 150.2 145.2 150.2 143.7 C 150.23 143.66 150.2 138.8 150.2 138.8 L 148.6 138.8 L 148.6 137.8 Z M 162.5 144 C 162.5 144.7 162.5 145.7 162.6 145.9 C 162.6 145.9 161.4 145.9 161.4 145.9 C 161.4 145.6 161.3 144.9 161.3 144.6 C 160.9 145.5 160 146.1 158.2 146.1 C 155.9 146.1 155.1 144.7 155.1 143.5 C 155.1 143.5 155.1 143.5 155.1 143.5 C 155.1 141.5 157 140.9 159.3 140.9 C 160.3 140.9 161 140.9 161.3 140.9 C 161.3 140.9 161.3 140.4 161.3 140.4 C 161.3 139.5 160.9 138.6 159 138.6 C 157.4 138.6 157 139.3 156.8 140.2 C 156.79 140.16 156.8 140.2 156.8 140.2 L 155.6 140.2 C 155.6 140.2 155.58 140.16 155.6 140.2 C 155.7 139.1 156.4 137.6 159 137.6 C 161.8 137.6 162.5 139 162.5 140.3 C 162.5 140.3 162.5 144 162.5 144 Z M 161.3 141.8 C 161 141.8 160.5 141.8 159.3 141.8 C 157.3 141.8 156.3 142.3 156.3 143.5 C 156.3 143.5 156.3 143.5 156.3 143.5 C 156.3 144.4 157 145.1 158.4 145.1 C 160.8 145.1 161.3 143.7 161.3 142.3 C 161.3 142.3 161.3 141.8 161.3 141.8 Z M 165.4 133.8 L 166.6 133.8 C 166.6 133.8 166.61 139.18 166.6 139.2 C 167 138.5 167.9 137.6 169.7 137.6 C 172 137.6 173.6 139.4 173.6 141.7 C 173.6 141.7 173.6 141.7 173.6 141.7 C 173.6 144.4 171.9 146.1 169.6 146.1 C 167.8 146.1 167 145.3 166.6 144.5 C 166.6 145 166.6 145.6 166.5 145.9 C 166.5 145.9 165.4 145.9 165.4 145.9 C 165.4 144.9 165.4 144 165.4 143.1 C 165.4 143.09 165.4 133.8 165.4 133.8 Z M 172.3 141.8 C 172.3 141.8 172.3 141.8 172.3 141.8 C 172.3 140.3 171.5 138.7 169.5 138.7 C 167.5 138.7 166.5 140.1 166.5 141.8 C 166.5 141.8 166.5 141.8 166.5 141.8 C 166.5 143.8 167.7 145 169.5 145 C 171.5 145 172.3 143.4 172.3 141.8 Z M 176 145.9 L 176 133.8 L 177.2 133.8 L 177.2 145.9 L 176 145.9 Z M 180.8 142.1 C 180.8 142.1 180.78 142.13 180.8 142.1 C 180.9 143.8 182 145.1 183.8 145.1 C 185.1 145.1 185.9 144.5 186.3 143.6 C 186.35 143.64 186.3 143.6 186.3 143.6 L 187.6 143.6 C 187.6 143.6 187.56 143.64 187.6 143.6 C 187.1 144.8 186 146.1 183.7 146.1 C 180.9 146.1 179.6 144 179.6 141.9 C 179.6 141.9 179.6 141.9 179.6 141.9 C 179.6 139.4 181.2 137.6 183.6 137.6 C 186.7 137.6 187.7 139.9 187.7 141.8 C 187.7 141.9 187.7 142 187.7 142.1 C 187.68 142.13 180.8 142.1 180.8 142.1 Z M 186.4 141.2 C 186.4 141.2 186.4 141.2 186.4 141.2 C 186.3 140.1 185.8 138.6 183.6 138.6 C 181.9 138.6 181 139.7 180.8 141.2 C 180.81 141.2 180.8 141.2 180.8 141.2 L 186.4 141.2 Z M 188.9 137.8 L 190.5 137.8 L 190.5 135.2 L 191.7 135.2 L 191.7 137.8 L 193.9 137.8 L 193.9 138.8 L 191.7 138.8 C 191.7 138.8 191.72 143.54 191.7 143.5 C 191.7 144.5 192 145 192.9 145 C 193.1 145 193.5 145 193.7 144.9 C 193.7 144.9 193.7 145.8 193.7 145.8 C 193.4 145.9 193 146 192.6 146 C 191 146 190.5 145.2 190.5 143.7 C 190.51 143.66 190.5 138.8 190.5 138.8 L 188.9 138.8 L 188.9 137.8 Z M 195.4 137.8 L 197 137.8 L 197 135.2 L 198.2 135.2 L 198.2 137.8 L 200.4 137.8 L 200.4 138.8 L 198.2 138.8 C 198.2 138.8 198.22 143.54 198.2 143.5 C 198.2 144.5 198.5 145 199.4 145 C 199.6 145 200 145 200.2 144.9 C 200.2 144.9 200.2 145.8 200.2 145.8 C 199.9 145.9 199.5 146 199.1 146 C 197.5 146 197 145.2 197 143.7 C 197.01 143.66 197 138.8 197 138.8 L 195.4 138.8 L 195.4 137.8 Z M 202.8 142.1 C 202.8 142.1 202.85 142.13 202.8 142.1 C 202.9 143.8 204.1 145.1 205.8 145.1 C 207.2 145.1 207.9 144.5 208.4 143.6 C 208.42 143.64 208.4 143.6 208.4 143.6 L 209.6 143.6 C 209.6 143.6 209.63 143.64 209.6 143.6 C 209.2 144.8 208.1 146.1 205.7 146.1 C 203 146.1 201.6 144 201.6 141.9 C 201.6 141.9 201.6 141.9 201.6 141.9 C 201.6 139.4 203.3 137.6 205.7 137.6 C 208.7 137.6 209.7 139.9 209.7 141.8 C 209.7 141.9 209.7 142 209.7 142.1 C 209.75 142.13 202.8 142.1 202.8 142.1 Z M 208.5 141.2 C 208.5 141.2 208.47 141.2 208.5 141.2 C 208.4 140.1 207.8 138.6 205.7 138.6 C 203.9 138.6 203 139.7 202.9 141.2 C 202.88 141.2 202.9 141.2 202.9 141.2 L 208.5 141.2 Z M 221.5 144.6 C 221.54 144.57 221.5 149.4 221.5 149.4 L 220.3 149.4 C 220.3 149.4 220.33 139.85 220.3 139.8 C 220.3 139.2 220.3 138.5 220.3 137.8 C 220.3 137.8 221.5 137.8 221.5 137.8 C 221.5 138.1 221.5 138.6 221.5 139.3 C 222 138.4 223 137.6 224.7 137.6 C 226.9 137.6 228.5 139.4 228.5 141.7 C 228.5 141.7 228.5 141.7 228.5 141.7 C 228.5 144.3 226.7 146.1 224.5 146.1 C 222.7 146.1 222 145.3 221.5 144.6 Z M 227.2 141.8 C 227.2 141.8 227.2 141.8 227.2 141.8 C 227.2 140.3 226.3 138.7 224.4 138.7 C 222.4 138.7 221.5 140.1 221.5 141.9 C 221.5 141.9 221.5 141.9 221.5 141.9 C 221.5 143.7 222.4 145 224.4 145 C 226.3 145 227.2 143.5 227.2 141.8 Z M 238.7 141.9 C 238.7 141.9 238.7 141.9 238.7 141.9 C 238.7 144 237.4 146.1 234.5 146.1 C 231.8 146.1 230.3 144.1 230.3 141.9 C 230.3 141.9 230.3 141.9 230.3 141.9 C 230.3 139.5 232 137.6 234.6 137.6 C 237.2 137.6 238.7 139.7 238.7 141.9 Z M 231.6 141.9 C 231.6 141.9 231.6 141.9 231.6 141.9 C 231.6 143.5 232.6 145.1 234.5 145.1 C 236.5 145.1 237.5 143.6 237.5 141.9 C 237.5 141.9 237.5 141.9 237.5 141.9 C 237.5 140.1 236.4 138.6 234.5 138.6 C 232.5 138.6 231.6 140.1 231.6 141.9 Z M 241.6 143.5 C 241.6 143.5 241.64 143.45 241.6 143.5 C 242 144.5 242.9 145.1 244.4 145.1 C 246.1 145.1 246.7 144.5 246.7 143.7 C 246.7 143 246.3 142.4 244.1 142.2 C 241.4 141.9 240.8 140.9 240.8 139.9 C 240.8 138.9 241.6 137.6 244.1 137.6 C 246.9 137.6 247.6 139.1 247.7 140 C 247.68 139.98 247.7 140 247.7 140 L 246.5 140 C 246.5 140 246.46 139.98 246.5 140 C 246.3 139.5 246 138.6 244 138.6 C 242.4 138.6 242 139.3 242 139.8 C 242 140.5 242.4 140.9 244.4 141.1 C 247.3 141.5 247.9 142.4 247.9 143.6 C 247.9 145.1 246.8 146.1 244.3 146.1 C 242 146.1 240.7 145.1 240.4 143.5 C 240.41 143.45 240.4 143.5 240.4 143.5 L 241.6 143.5 Z M 251 142.1 C 251 142.1 250.97 142.13 251 142.1 C 251.1 143.8 252.2 145.1 254 145.1 C 255.3 145.1 256.1 144.5 256.5 143.6 C 256.54 143.64 256.5 143.6 256.5 143.6 L 257.7 143.6 C 257.7 143.6 257.75 143.64 257.7 143.6 C 257.3 144.8 256.2 146.1 253.9 146.1 C 251.1 146.1 249.8 144 249.8 141.9 C 249.8 141.9 249.8 141.9 249.8 141.9 C 249.8 139.4 251.4 137.6 253.8 137.6 C 256.9 137.6 257.9 139.9 257.9 141.8 C 257.9 141.9 257.9 142 257.9 142.1 C 257.87 142.13 251 142.1 251 142.1 Z M 256.6 141.2 C 256.6 141.2 256.59 141.2 256.6 141.2 C 256.5 140.1 256 138.6 253.8 138.6 C 252.1 138.6 251.2 139.7 251 141.2 C 251 141.2 251 141.2 251 141.2 L 256.6 141.2 Z M 256.5 133.7 L 253.9 136.2 L 252.7 136.2 L 255 133.7 L 256.5 133.7 Z M 260.9 142.1 C 260.9 142.1 260.93 142.13 260.9 142.1 C 261 143.8 262.2 145.1 263.9 145.1 C 265.3 145.1 266 144.5 266.5 143.6 C 266.5 143.64 266.5 143.6 266.5 143.6 L 267.7 143.6 C 267.7 143.6 267.71 143.64 267.7 143.6 C 267.3 144.8 266.2 146.1 263.8 146.1 C 261.1 146.1 259.7 144 259.7 141.9 C 259.7 141.9 259.7 141.9 259.7 141.9 C 259.7 139.4 261.4 137.6 263.8 137.6 C 266.8 137.6 267.8 139.9 267.8 141.8 C 267.8 141.9 267.8 142 267.8 142.1 C 267.83 142.13 260.9 142.1 260.9 142.1 Z M 266.5 141.2 C 266.5 141.2 266.55 141.2 266.5 141.2 C 266.5 140.1 265.9 138.6 263.8 138.6 C 262 138.6 261.1 139.7 261 141.2 C 260.96 141.2 261 141.2 261 141.2 L 266.5 141.2 Z M 278.9 143.5 C 278.9 143.5 278.85 143.45 278.9 143.5 C 279.2 144.5 280.1 145.1 281.6 145.1 C 283.3 145.1 283.9 144.5 283.9 143.7 C 283.9 143 283.5 142.4 281.3 142.2 C 278.6 141.9 278 140.9 278 139.9 C 278 138.9 278.8 137.6 281.3 137.6 C 284.1 137.6 284.8 139.1 284.9 140 C 284.89 139.98 284.9 140 284.9 140 L 283.7 140 C 283.7 140 283.66 139.98 283.7 140 C 283.5 139.5 283.2 138.6 281.2 138.6 C 279.6 138.6 279.2 139.3 279.2 139.8 C 279.2 140.5 279.7 140.9 281.6 141.1 C 284.5 141.5 285.2 142.4 285.2 143.6 C 285.2 145.1 284.1 146.1 281.6 146.1 C 279.2 146.1 277.9 145.1 277.6 143.5 C 277.62 143.45 277.6 143.5 277.6 143.5 L 278.9 143.5 Z M 294.7 143.5 C 294.7 144.3 294.7 145.1 294.7 145.9 C 294.7 145.9 293.5 145.9 293.5 145.9 C 293.5 145.7 293.5 145 293.5 144.4 C 293 145.4 292.3 146.1 290.5 146.1 C 288.8 146.1 287.5 145.2 287.5 142.8 C 287.48 142.85 287.5 137.8 287.5 137.8 L 288.7 137.8 C 288.7 137.8 288.69 142.61 288.7 142.6 C 288.7 143.9 289.2 145 290.7 145 C 292.6 145 293.4 143.9 293.4 141.4 C 293.45 141.45 293.4 137.8 293.4 137.8 L 294.7 137.8 C 294.7 137.8 294.66 143.53 294.7 143.5 Z M 297.6 140 C 297.6 139.3 297.6 138.6 297.6 137.8 C 297.6 137.8 298.7 137.8 298.7 137.8 C 298.8 138.1 298.8 138.9 298.8 139.7 C 299.3 138.4 300.5 137.6 302.1 137.6 C 302.1 137.6 302.1 138.8 302.1 138.8 C 300.2 138.8 298.8 140 298.8 142.4 C 298.78 142.4 298.8 145.9 298.8 145.9 L 297.6 145.9 C 297.6 145.9 297.57 140.02 297.6 140 Z M 319.5 143.5 C 319.5 144.3 319.5 145.1 319.5 145.9 C 319.5 145.9 318.3 145.9 318.3 145.9 C 318.3 145.7 318.3 145 318.3 144.4 C 317.9 145.4 317.1 146.1 315.3 146.1 C 313.6 146.1 312.3 145.2 312.3 142.8 C 312.28 142.85 312.3 137.8 312.3 137.8 L 313.5 137.8 C 313.5 137.8 313.49 142.61 313.5 142.6 C 313.5 143.9 314 145 315.6 145 C 317.4 145 318.3 143.9 318.3 141.4 C 318.25 141.45 318.3 137.8 318.3 137.8 L 319.5 137.8 C 319.5 137.8 319.46 143.53 319.5 143.5 Z M 322.4 139.9 C 322.4 139.2 322.4 138.4 322.4 137.8 C 322.4 137.8 323.5 137.8 323.5 137.8 C 323.6 138.1 323.6 138.8 323.6 139.5 C 323.9 138.6 324.8 137.6 326.6 137.6 C 328.4 137.6 329.7 138.8 329.7 141 C 329.67 141 329.7 145.9 329.7 145.9 L 328.5 145.9 C 328.5 145.9 328.46 141.23 328.5 141.2 C 328.5 139.8 327.9 138.7 326.3 138.7 C 324.5 138.7 323.6 140.1 323.6 142.1 C 323.59 142.07 323.6 145.9 323.6 145.9 L 322.4 145.9 C 322.4 145.9 322.37 139.86 322.4 139.9 Z M 333.2 142.1 C 333.2 142.1 333.23 142.13 333.2 142.1 C 333.3 143.8 334.5 145.1 336.2 145.1 C 337.6 145.1 338.3 144.5 338.8 143.6 C 338.8 143.64 338.8 143.6 338.8 143.6 L 340 143.6 C 340 143.6 340.01 143.64 340 143.6 C 339.6 144.8 338.5 146.1 336.1 146.1 C 333.4 146.1 332 144 332 141.9 C 332 141.9 332 141.9 332 141.9 C 332 139.4 333.7 137.6 336.1 137.6 C 339.1 137.6 340.1 139.9 340.1 141.8 C 340.1 141.9 340.1 142 340.1 142.1 C 340.13 142.13 333.2 142.1 333.2 142.1 Z M 338.9 141.2 C 338.9 141.2 338.85 141.2 338.9 141.2 C 338.8 140.1 338.2 138.6 336.1 138.6 C 334.3 138.6 333.4 139.7 333.3 141.2 C 333.26 141.2 333.3 141.2 333.3 141.2 L 338.9 141.2 Z M 349.6 137.8 L 351.3 137.8 L 351.3 135.2 L 352.5 135.2 L 352.5 137.8 L 354.6 137.8 L 354.6 138.8 L 352.5 138.8 C 352.5 138.8 352.47 143.54 352.5 143.5 C 352.5 144.5 352.7 145 353.6 145 C 353.9 145 354.2 145 354.5 144.9 C 354.5 144.9 354.5 145.8 354.5 145.8 C 354.1 145.9 353.8 146 353.3 146 C 351.8 146 351.3 145.2 351.3 143.7 C 351.26 143.66 351.3 138.8 351.3 138.8 L 349.6 138.8 L 349.6 137.8 Z M 363.5 144 C 363.5 144.7 363.6 145.7 363.6 145.9 C 363.6 145.9 362.5 145.9 362.5 145.9 C 362.4 145.6 362.4 144.9 362.4 144.6 C 361.9 145.5 361 146.1 359.3 146.1 C 357 146.1 356.2 144.7 356.2 143.5 C 356.2 143.5 356.2 143.5 356.2 143.5 C 356.2 141.5 358 140.9 360.3 140.9 C 361.4 140.9 362.1 140.9 362.4 140.9 C 362.4 140.9 362.4 140.4 362.4 140.4 C 362.4 139.5 361.9 138.6 360.1 138.6 C 358.4 138.6 358 139.3 357.8 140.2 C 357.83 140.16 357.8 140.2 357.8 140.2 L 356.6 140.2 C 356.6 140.2 356.62 140.16 356.6 140.2 C 356.7 139.1 357.4 137.6 360.1 137.6 C 362.8 137.6 363.5 139 363.5 140.3 C 363.5 140.3 363.5 144 363.5 144 Z M 362.4 141.8 C 362.1 141.8 361.5 141.8 360.3 141.8 C 358.3 141.8 357.4 142.3 357.4 143.5 C 357.4 143.5 357.4 143.5 357.4 143.5 C 357.4 144.4 358 145.1 359.5 145.1 C 361.8 145.1 362.4 143.7 362.4 142.3 C 362.4 142.3 362.4 141.8 362.4 141.8 Z M 366.4 133.8 L 367.6 133.8 C 367.6 133.8 367.65 139.18 367.6 139.2 C 368.1 138.5 368.9 137.6 370.7 137.6 C 373 137.6 374.6 139.4 374.6 141.7 C 374.6 141.7 374.6 141.7 374.6 141.7 C 374.6 144.4 372.9 146.1 370.7 146.1 C 368.9 146.1 368.1 145.3 367.6 144.5 C 367.6 145 367.6 145.6 367.6 145.9 C 367.6 145.9 366.4 145.9 366.4 145.9 C 366.4 144.9 366.4 144 366.4 143.1 C 366.44 143.09 366.4 133.8 366.4 133.8 Z M 373.3 141.8 C 373.3 141.8 373.3 141.8 373.3 141.8 C 373.3 140.3 372.5 138.7 370.5 138.7 C 368.5 138.7 367.6 140.1 367.6 141.8 C 367.6 141.8 367.6 141.8 367.6 141.8 C 367.6 143.8 368.7 145 370.5 145 C 372.5 145 373.3 143.4 373.3 141.8 Z M 377 145.9 L 377 133.8 L 378.2 133.8 L 378.2 145.9 L 377 145.9 Z M 381.8 142.1 C 381.8 142.1 381.81 142.13 381.8 142.1 C 381.9 143.8 383 145.1 384.8 145.1 C 386.1 145.1 386.9 144.5 387.4 143.6 C 387.38 143.64 387.4 143.6 387.4 143.6 L 388.6 143.6 C 388.6 143.6 388.59 143.64 388.6 143.6 C 388.2 144.8 387.1 146.1 384.7 146.1 C 381.9 146.1 380.6 144 380.6 141.9 C 380.6 141.9 380.6 141.9 380.6 141.9 C 380.6 139.4 382.2 137.6 384.7 137.6 C 387.7 137.6 388.7 139.9 388.7 141.8 C 388.7 141.9 388.7 142 388.7 142.1 C 388.71 142.13 381.8 142.1 381.8 142.1 Z M 387.4 141.2 C 387.4 141.2 387.43 141.2 387.4 141.2 C 387.4 140.1 386.8 138.6 384.6 138.6 C 382.9 138.6 382 139.7 381.8 141.2 C 381.84 141.2 381.8 141.2 381.8 141.2 L 387.4 141.2 Z M 399.3 133.8 L 400.5 133.8 C 400.5 133.8 400.51 139.18 400.5 139.2 C 400.9 138.5 401.8 137.6 403.6 137.6 C 405.9 137.6 407.4 139.4 407.4 141.7 C 407.4 141.7 407.4 141.7 407.4 141.7 C 407.4 144.4 405.8 146.1 403.5 146.1 C 401.7 146.1 400.9 145.3 400.5 144.5 C 400.5 145 400.5 145.6 400.4 145.9 C 400.4 145.9 399.3 145.9 399.3 145.9 C 399.3 144.9 399.3 144 399.3 143.1 C 399.3 143.09 399.3 133.8 399.3 133.8 Z M 406.2 141.8 C 406.2 141.8 406.2 141.8 406.2 141.8 C 406.2 140.3 405.4 138.7 403.4 138.7 C 401.4 138.7 400.4 140.1 400.4 141.8 C 400.4 141.8 400.4 141.8 400.4 141.8 C 400.4 143.8 401.6 145 403.4 145 C 405.4 145 406.2 143.4 406.2 141.8 Z M 416.6 144 C 416.6 144.7 416.7 145.7 416.7 145.9 C 416.7 145.9 415.6 145.9 415.6 145.9 C 415.5 145.6 415.5 144.9 415.5 144.6 C 415 145.5 414.1 146.1 412.4 146.1 C 410.1 146.1 409.3 144.7 409.3 143.5 C 409.3 143.5 409.3 143.5 409.3 143.5 C 409.3 141.5 411.1 140.9 413.4 140.9 C 414.5 140.9 415.2 140.9 415.5 140.9 C 415.5 140.9 415.5 140.4 415.5 140.4 C 415.5 139.5 415 138.6 413.2 138.6 C 411.5 138.6 411.1 139.3 410.9 140.2 C 410.93 140.16 410.9 140.2 410.9 140.2 L 409.7 140.2 C 409.7 140.2 409.72 140.16 409.7 140.2 C 409.8 139.1 410.5 137.6 413.2 137.6 C 415.9 137.6 416.6 139 416.6 140.3 C 416.6 140.3 416.6 144 416.6 144 Z M 415.5 141.8 C 415.2 141.8 414.6 141.8 413.4 141.8 C 411.4 141.8 410.5 142.3 410.5 143.5 C 410.5 143.5 410.5 143.5 410.5 143.5 C 410.5 144.4 411.1 145.1 412.6 145.1 C 414.9 145.1 415.5 143.7 415.5 142.3 C 415.5 142.3 415.5 141.8 415.5 141.8 Z M 420.1 143.5 C 420.1 143.5 420.05 143.45 420.1 143.5 C 420.4 144.5 421.3 145.1 422.8 145.1 C 424.5 145.1 425.1 144.5 425.1 143.7 C 425.1 143 424.7 142.4 422.5 142.2 C 419.8 141.9 419.2 140.9 419.2 139.9 C 419.2 138.9 420 137.6 422.5 137.6 C 425.3 137.6 426 139.1 426.1 140 C 426.09 139.98 426.1 140 426.1 140 L 424.9 140 C 424.9 140 424.87 139.98 424.9 140 C 424.7 139.5 424.4 138.6 422.4 138.6 C 420.8 138.6 420.4 139.3 420.4 139.8 C 420.4 140.5 420.9 140.9 422.8 141.1 C 425.8 141.5 426.4 142.4 426.4 143.6 C 426.4 145.1 425.3 146.1 422.8 146.1 C 420.4 146.1 419.1 145.1 418.8 143.5 C 418.82 143.45 418.8 143.5 418.8 143.5 L 420.1 143.5 Z M 429.4 143.5 C 429.4 143.5 429.38 143.45 429.4 143.5 C 429.7 144.5 430.6 145.1 432.2 145.1 C 433.8 145.1 434.5 144.5 434.5 143.7 C 434.5 143 434 142.4 431.9 142.2 C 429.1 141.9 428.5 140.9 428.5 139.9 C 428.5 138.9 429.3 137.6 431.9 137.6 C 434.6 137.6 435.3 139.1 435.4 140 C 435.42 139.98 435.4 140 435.4 140 L 434.2 140 C 434.2 140 434.19 139.98 434.2 140 C 434.1 139.5 433.7 138.6 431.8 138.6 C 430.1 138.6 429.8 139.3 429.8 139.8 C 429.8 140.5 430.2 140.9 432.1 141.1 C 435.1 141.5 435.7 142.4 435.7 143.6 C 435.7 145.1 434.6 146.1 432.1 146.1 C 429.7 146.1 428.4 145.1 428.1 143.5 C 428.15 143.45 428.1 143.5 428.1 143.5 L 429.4 143.5 Z M 438.7 142.1 C 438.7 142.1 438.7 142.13 438.7 142.1 C 438.8 143.8 439.9 145.1 441.7 145.1 C 443 145.1 443.8 144.5 444.3 143.6 C 444.27 143.64 444.3 143.6 444.3 143.6 L 445.5 143.6 C 445.5 143.6 445.48 143.64 445.5 143.6 C 445.1 144.8 443.9 146.1 441.6 146.1 C 438.8 146.1 437.5 144 437.5 141.9 C 437.5 141.9 437.5 141.9 437.5 141.9 C 437.5 139.4 439.1 137.6 441.6 137.6 C 444.6 137.6 445.6 139.9 445.6 141.8 C 445.6 141.9 445.6 142 445.6 142.1 C 445.6 142.13 438.7 142.1 438.7 142.1 Z M 444.3 141.2 C 444.3 141.2 444.33 141.2 444.3 141.2 C 444.3 140.1 443.7 138.6 441.5 138.6 C 439.8 138.6 438.9 139.7 438.7 141.2 C 438.74 141.2 438.7 141.2 438.7 141.2 L 444.3 141.2 Z M 447.7 145.9 L 447.7 143.5 L 449.1 143.5 L 449.1 145.9 L 447.7 145.9 Z " stroke="none" fill="#141414"/>  </g>  <g id="Polygon3970">    <path d="M 2.6 120.2 C 2.56 120.25 2.6 125.1 2.6 125.1 L 1.4 125.1 C 1.4 125.1 1.35 115.53 1.4 115.5 C 1.4 114.9 1.4 114.2 1.3 113.5 C 1.3 113.5 2.5 113.5 2.5 113.5 C 2.5 113.8 2.6 114.3 2.6 115 C 3 114.1 4 113.3 5.7 113.3 C 7.9 113.3 9.5 115.1 9.5 117.4 C 9.5 117.4 9.5 117.4 9.5 117.4 C 9.5 120 7.7 121.8 5.5 121.8 C 3.7 121.8 3 121 2.6 120.2 Z M 8.2 117.4 C 8.2 117.4 8.2 117.4 8.2 117.4 C 8.2 115.9 7.4 114.4 5.4 114.4 C 3.4 114.4 2.5 115.8 2.5 117.6 C 2.5 117.6 2.5 117.6 2.5 117.6 C 2.5 119.4 3.5 120.7 5.4 120.7 C 7.3 120.7 8.2 119.1 8.2 117.4 Z M 18.7 119.6 C 18.7 120.4 18.7 121.4 18.8 121.6 C 18.8 121.6 17.6 121.6 17.6 121.6 C 17.5 121.2 17.5 120.6 17.5 120.3 C 17.1 121.2 16.2 121.8 14.4 121.8 C 12.1 121.8 11.3 120.4 11.3 119.2 C 11.3 119.2 11.3 119.2 11.3 119.2 C 11.3 117.2 13.2 116.6 15.5 116.6 C 16.5 116.6 17.2 116.6 17.5 116.6 C 17.5 116.6 17.5 116.1 17.5 116.1 C 17.5 115.2 17.1 114.3 15.2 114.3 C 13.6 114.3 13.2 115 13 115.8 C 12.98 115.84 13 115.8 13 115.8 L 11.8 115.8 C 11.8 115.8 11.77 115.84 11.8 115.8 C 11.9 114.8 12.6 113.3 15.2 113.3 C 18 113.3 18.7 114.7 18.7 116 C 18.7 116 18.7 119.6 18.7 119.6 Z M 17.5 117.5 C 17.2 117.5 16.7 117.5 15.5 117.5 C 13.5 117.5 12.5 117.9 12.5 119.1 C 12.5 119.1 12.5 119.1 12.5 119.1 C 12.5 120 13.2 120.8 14.6 120.8 C 17 120.8 17.5 119.3 17.5 117.9 C 17.5 117.9 17.5 117.5 17.5 117.5 Z M 29.2 120.5 C 29.2 123.5 28.2 125.3 24.9 125.3 C 21.9 125.3 21.3 123.6 21.1 122.6 C 21.1 122.62 21.1 122.6 21.1 122.6 L 22.3 122.6 C 22.3 122.6 22.34 122.62 22.3 122.6 C 22.6 123.5 23.2 124.3 25 124.3 C 27.6 124.3 28 122.7 28 120.5 C 28 120.5 28 120 28 120 C 27.5 121.1 26.5 121.7 24.8 121.7 C 22.6 121.7 21 119.9 21 117.6 C 21 117.6 21 117.6 21 117.6 C 21 115 22.9 113.3 25 113.3 C 26.9 113.3 27.7 114.2 28 114.8 C 28 114.4 28 113.7 28 113.5 C 28 113.5 29.2 113.5 29.2 113.5 C 29.2 114.3 29.2 115.1 29.2 115.8 C 29.2 115.8 29.2 120.5 29.2 120.5 Z M 22.3 117.6 C 22.3 117.6 22.3 117.6 22.3 117.6 C 22.3 119.4 23.5 120.6 25.1 120.6 C 26.9 120.6 28 119.5 28 117.5 C 28 117.5 28 117.5 28 117.5 C 28 115.4 27 114.4 25.2 114.4 C 23.2 114.4 22.3 116 22.3 117.6 Z M 32.8 117.8 C 32.8 117.8 32.76 117.81 32.8 117.8 C 32.9 119.5 34 120.8 35.8 120.8 C 37.1 120.8 37.9 120.2 38.3 119.3 C 38.33 119.32 38.3 119.3 38.3 119.3 L 39.5 119.3 C 39.5 119.3 39.54 119.32 39.5 119.3 C 39.1 120.5 38 121.8 35.7 121.8 C 32.9 121.8 31.5 119.7 31.5 117.6 C 31.5 117.6 31.5 117.6 31.5 117.6 C 31.5 115.1 33.2 113.3 35.6 113.3 C 38.6 113.3 39.7 115.5 39.7 117.5 C 39.7 117.6 39.7 117.7 39.7 117.8 C 39.66 117.81 32.8 117.8 32.8 117.8 Z M 38.4 116.9 C 38.4 116.9 38.38 116.88 38.4 116.9 C 38.3 115.8 37.8 114.3 35.6 114.3 C 33.9 114.3 33 115.4 32.8 116.9 C 32.8 116.88 32.8 116.9 32.8 116.9 L 38.4 116.9 Z M 59.6 109.5 C 59.6 109.5 59.62 119.2 59.6 119.2 C 59.6 120 59.6 120.8 59.6 121.6 C 59.6 121.6 58.5 121.6 58.5 121.6 C 58.4 121.2 58.4 120.7 58.4 120.2 C 58 121 57.3 121.8 55.4 121.8 C 53 121.8 51.5 120 51.5 117.6 C 51.5 117.6 51.5 117.6 51.5 117.6 C 51.5 115 53.4 113.3 55.5 113.3 C 57.5 113.3 58.2 114.2 58.4 114.6 C 58.41 114.65 58.4 109.5 58.4 109.5 L 59.6 109.5 Z M 52.7 117.6 C 52.7 117.6 52.7 117.6 52.7 117.6 C 52.7 119.1 53.7 120.7 55.6 120.7 C 57.7 120.7 58.5 119.4 58.5 117.5 C 58.5 117.5 58.5 117.5 58.5 117.5 C 58.5 115.6 57.8 114.3 55.6 114.3 C 53.7 114.3 52.7 116 52.7 117.6 Z M 69.7 119.2 C 69.7 120 69.7 120.8 69.7 121.6 C 69.7 121.6 68.5 121.6 68.5 121.6 C 68.5 121.3 68.5 120.7 68.5 120.1 C 68.1 121.1 67.3 121.8 65.5 121.8 C 63.8 121.8 62.5 120.9 62.5 118.5 C 62.51 118.53 62.5 113.5 62.5 113.5 L 63.7 113.5 C 63.7 113.5 63.72 118.29 63.7 118.3 C 63.7 119.6 64.2 120.7 65.8 120.7 C 67.7 120.7 68.5 119.6 68.5 117.1 C 68.48 117.13 68.5 113.5 68.5 113.5 L 69.7 113.5 C 69.7 113.5 69.69 119.21 69.7 119.2 Z M 83.3 119.1 C 83.3 119.1 83.26 119.13 83.3 119.1 C 83.6 120.2 84.5 120.8 86 120.8 C 87.7 120.8 88.3 120.2 88.3 119.4 C 88.3 118.6 87.9 118.1 85.7 117.9 C 83 117.5 82.4 116.6 82.4 115.6 C 82.4 114.6 83.2 113.3 85.7 113.3 C 88.5 113.3 89.2 114.8 89.3 115.7 C 89.3 115.66 89.3 115.7 89.3 115.7 L 88.1 115.7 C 88.1 115.7 88.07 115.66 88.1 115.7 C 87.9 115.1 87.6 114.3 85.7 114.3 C 84 114.3 83.6 115 83.6 115.5 C 83.6 116.2 84.1 116.6 86 116.8 C 89 117.2 89.6 118.1 89.6 119.3 C 89.6 120.7 88.5 121.8 86 121.8 C 83.6 121.8 82.3 120.8 82 119.1 C 82.03 119.13 82 119.1 82 119.1 L 83.3 119.1 Z M 92 113.5 L 93.2 113.5 L 93.2 121.6 L 92 121.6 L 92 113.5 Z M 92 109.5 L 93.2 109.5 L 93.2 111.3 L 92 111.3 L 92 109.5 Z M 95.1 113.5 L 96.7 113.5 L 96.7 110.9 L 98 110.9 L 98 113.5 L 100.1 113.5 L 100.1 114.5 L 98 114.5 C 98 114.5 97.95 119.22 98 119.2 C 98 120.2 98.2 120.6 99.1 120.6 C 99.4 120.6 99.7 120.6 99.9 120.6 C 99.9 120.6 99.9 121.5 99.9 121.5 C 99.6 121.6 99.2 121.6 98.8 121.6 C 97.2 121.6 96.7 120.9 96.7 119.3 C 96.74 119.34 96.7 114.5 96.7 114.5 L 95.1 114.5 L 95.1 113.5 Z M 102.6 117.8 C 102.6 117.8 102.58 117.81 102.6 117.8 C 102.7 119.5 103.8 120.8 105.6 120.8 C 106.9 120.8 107.7 120.2 108.1 119.3 C 108.15 119.32 108.1 119.3 108.1 119.3 L 109.4 119.3 C 109.4 119.3 109.36 119.32 109.4 119.3 C 108.9 120.5 107.8 121.8 105.5 121.8 C 102.7 121.8 101.4 119.7 101.4 117.6 C 101.4 117.6 101.4 117.6 101.4 117.6 C 101.4 115.1 103 113.3 105.4 113.3 C 108.5 113.3 109.5 115.5 109.5 117.5 C 109.5 117.6 109.5 117.7 109.5 117.8 C 109.48 117.81 102.6 117.8 102.6 117.8 Z M 108.2 116.9 C 108.2 116.9 108.2 116.88 108.2 116.9 C 108.1 115.8 107.6 114.3 105.4 114.3 C 103.7 114.3 102.8 115.4 102.6 116.9 C 102.61 116.88 102.6 116.9 102.6 116.9 L 108.2 116.9 Z M 122.2 110.2 C 122.2 110.2 127.47 110.16 127.5 110.2 C 129.8 110.2 131.1 111.2 131.1 113 C 131.1 113 131.1 113 131.1 113 C 131.1 114.5 130.1 115.2 129.2 115.4 C 130.3 115.7 131.6 116.4 131.6 118.2 C 131.6 118.2 131.6 118.2 131.6 118.2 C 131.6 120.6 129.7 121.6 127.6 121.6 C 127.62 121.56 122.2 121.6 122.2 121.6 L 122.2 110.2 Z M 127.1 114.9 C 128.9 114.9 129.8 114.3 129.8 113.1 C 129.8 113.1 129.8 113.1 129.8 113.1 C 129.8 111.7 128.6 111.3 127.2 111.3 C 127.19 111.26 123.5 111.3 123.5 111.3 L 123.5 114.9 C 123.5 114.9 127.12 114.93 127.1 114.9 Z M 123.5 120.5 C 123.5 120.5 127.26 120.47 127.3 120.5 C 128.7 120.5 130.3 120 130.3 118.3 C 130.3 118.3 130.3 118.3 130.3 118.3 C 130.3 116.8 129 116 127 116 C 127.04 116.02 123.5 116 123.5 116 L 123.5 120.5 Z M 135.8 110.2 L 135.8 121.6 L 134.6 121.6 L 134.6 110.2 L 135.8 110.2 Z M 139.4 121.6 L 139.4 110.2 C 139.4 110.2 140.99 110.16 141 110.2 C 143.4 113.4 147.7 118.9 148.3 120 C 148.3 120 148.4 120 148.4 120 C 148.3 118.4 148.3 116.7 148.3 114.9 C 148.29 114.87 148.3 110.2 148.3 110.2 L 149.5 110.2 L 149.5 121.6 C 149.5 121.6 148.04 121.56 148 121.6 C 146.2 119.1 141.5 112.8 140.6 111.5 C 140.6 111.5 140.6 111.5 140.6 111.5 C 140.7 113 140.7 114.6 140.7 116.6 C 140.66 116.62 140.7 121.6 140.7 121.6 L 139.4 121.6 Z M 163.7 121.6 C 163.7 121.6 162.67 121.56 162.7 121.6 C 162.6 121.3 162.6 120.3 162.6 119.7 C 161.8 121.1 160.6 121.8 158.3 121.8 C 154.8 121.8 152.5 119.5 152.5 115.9 C 152.5 115.9 152.5 115.9 152.5 115.9 C 152.5 112.5 154.8 109.9 158.5 109.9 C 161.9 109.9 163.3 111.6 163.8 113.3 C 163.76 113.28 163.8 113.3 163.8 113.3 L 162.4 113.3 C 162.4 113.3 162.42 113.28 162.4 113.3 C 161.9 112.1 160.8 111 158.5 111 C 155.5 111 153.9 113.1 153.9 115.8 C 153.9 115.8 153.9 115.8 153.9 115.8 C 153.9 118.6 155.5 120.7 158.5 120.7 C 161 120.7 162.4 119.4 162.4 116.9 C 162.45 116.93 162.4 116.5 162.4 116.5 L 158.5 116.5 L 158.5 115.4 L 163.7 115.4 L 163.7 121.6 Z M 175.4 116.1 L 168.4 116.1 L 168.4 120.4 L 176.1 120.4 L 175.9 121.6 L 167.1 121.6 L 167.1 110.2 L 175.7 110.2 L 175.7 111.3 L 168.4 111.3 L 168.4 115 L 175.4 115 L 175.4 116.1 Z M 182.8 116.9 L 182.8 118 L 177.8 118 L 177.8 116.9 L 182.8 116.9 Z M 186.1 110.2 L 194.5 110.2 L 194.5 111.3 L 187.3 111.3 L 187.3 115.3 L 194 115.3 L 194 116.4 L 187.3 116.4 L 187.3 121.6 L 186.1 121.6 L 186.1 110.2 Z M 198.3 110.2 L 198.3 121.6 L 197 121.6 L 197 110.2 L 198.3 110.2 Z M 205 111.3 L 200.5 111.3 L 200.5 110.2 L 210.7 110.2 L 210.7 111.3 L 206.2 111.3 L 206.2 121.6 L 205 121.6 L 205 111.3 Z M 222.6 109.5 L 223.8 109.5 C 223.8 109.5 223.83 114.86 223.8 114.9 C 224.2 114.2 225.1 113.3 226.9 113.3 C 229.2 113.3 230.8 115.1 230.8 117.4 C 230.8 117.4 230.8 117.4 230.8 117.4 C 230.8 120.1 229.1 121.8 226.8 121.8 C 225.1 121.8 224.2 121 223.8 120.2 C 223.8 120.7 223.8 121.2 223.8 121.6 C 223.8 121.6 222.6 121.6 222.6 121.6 C 222.6 120.6 222.6 119.7 222.6 118.8 C 222.62 118.77 222.6 109.5 222.6 109.5 Z M 229.5 117.4 C 229.5 117.4 229.5 117.4 229.5 117.4 C 229.5 116 228.7 114.4 226.7 114.4 C 224.7 114.4 223.8 115.7 223.8 117.5 C 223.8 117.5 223.8 117.5 223.8 117.5 C 223.8 119.5 224.9 120.7 226.7 120.7 C 228.7 120.7 229.5 119.1 229.5 117.4 Z M 233.2 113.5 C 235 117.6 236 119.9 236.3 120.7 C 236.3 120.7 236.3 120.7 236.3 120.7 C 236.6 119.9 237.5 117.5 239.1 113.5 C 239.12 113.51 240.4 113.5 240.4 113.5 C 240.4 113.5 237.1 121.37 237.1 121.4 C 235.7 124.8 235.1 125.3 233.3 125.3 C 233 125.3 232.6 125.3 232.3 125.3 C 232.3 125.3 232.3 124.2 232.3 124.2 C 232.6 124.2 233 124.2 233.2 124.2 C 234.3 124.2 234.8 123.7 235.6 121.9 C 235.6 121.94 231.8 113.5 231.8 113.5 C 231.8 113.5 233.16 113.51 233.2 113.5 Z M 263 118.3 C 263 118.3 263.05 118.3 263 118.3 C 262.4 120.2 261 121.8 257.8 121.8 C 254.1 121.8 252 119.2 252 115.9 C 252 115.9 252 115.9 252 115.9 C 252 112.6 254.3 109.9 257.9 109.9 C 261.1 109.9 262.6 111.6 263.1 113.5 C 263.09 113.51 263.1 113.5 263.1 113.5 L 261.8 113.5 C 261.8 113.5 261.76 113.51 261.8 113.5 C 261.2 112.2 260.2 111 257.9 111 C 255.1 111 253.4 113.1 253.4 115.8 C 253.4 115.8 253.4 115.8 253.4 115.8 C 253.4 118.6 255.1 120.7 257.9 120.7 C 260.2 120.7 261.1 119.7 261.7 118.3 C 261.75 118.3 261.7 118.3 261.7 118.3 L 263 118.3 Z M 272.4 119.6 C 272.4 120.4 272.5 121.4 272.5 121.6 C 272.5 121.6 271.3 121.6 271.3 121.6 C 271.3 121.2 271.2 120.6 271.2 120.3 C 270.8 121.2 269.9 121.8 268.2 121.8 C 265.9 121.8 265 120.4 265 119.2 C 265 119.2 265 119.2 265 119.2 C 265 117.2 266.9 116.6 269.2 116.6 C 270.3 116.6 271 116.6 271.2 116.6 C 271.2 116.6 271.2 116.1 271.2 116.1 C 271.2 115.2 270.8 114.3 269 114.3 C 267.3 114.3 266.9 115 266.7 115.8 C 266.71 115.84 266.7 115.8 266.7 115.8 L 265.5 115.8 C 265.5 115.8 265.51 115.84 265.5 115.8 C 265.6 114.8 266.3 113.3 269 113.3 C 271.7 113.3 272.4 114.7 272.4 116 C 272.4 116 272.4 119.6 272.4 119.6 Z M 271.2 117.5 C 271 117.5 270.4 117.5 269.2 117.5 C 267.2 117.5 266.2 117.9 266.2 119.1 C 266.2 119.1 266.2 119.1 266.2 119.1 C 266.2 120 266.9 120.8 268.3 120.8 C 270.7 120.8 271.2 119.3 271.2 117.9 C 271.2 117.9 271.2 117.5 271.2 117.5 Z M 275.3 115.5 C 275.3 114.9 275.3 114.1 275.3 113.5 C 275.3 113.5 276.5 113.5 276.5 113.5 C 276.5 113.8 276.5 114.5 276.5 115.1 C 276.9 114.3 277.7 113.3 279.5 113.3 C 281.4 113.3 282.6 114.4 282.6 116.7 C 282.62 116.68 282.6 121.6 282.6 121.6 L 281.4 121.6 C 281.4 121.6 281.41 116.91 281.4 116.9 C 281.4 115.5 280.9 114.4 279.3 114.4 C 277.4 114.4 276.5 115.8 276.5 117.7 C 276.54 117.75 276.5 121.6 276.5 121.6 L 275.3 121.6 C 275.3 121.6 275.33 115.54 275.3 115.5 Z M 292.4 119.6 C 292.4 120.4 292.4 121.4 292.4 121.6 C 292.4 121.6 291.3 121.6 291.3 121.6 C 291.2 121.2 291.2 120.6 291.2 120.3 C 290.8 121.2 289.9 121.8 288.1 121.8 C 285.8 121.8 285 120.4 285 119.2 C 285 119.2 285 119.2 285 119.2 C 285 117.2 286.9 116.6 289.1 116.6 C 290.2 116.6 290.9 116.6 291.2 116.6 C 291.2 116.6 291.2 116.1 291.2 116.1 C 291.2 115.2 290.8 114.3 288.9 114.3 C 287.2 114.3 286.8 115 286.6 115.8 C 286.65 115.84 286.6 115.8 286.6 115.8 L 285.4 115.8 C 285.4 115.8 285.44 115.84 285.4 115.8 C 285.5 114.8 286.3 113.3 288.9 113.3 C 291.7 113.3 292.4 114.7 292.4 116 C 292.4 116 292.4 119.6 292.4 119.6 Z M 291.2 117.5 C 290.9 117.5 290.4 117.5 289.2 117.5 C 287.2 117.5 286.2 117.9 286.2 119.1 C 286.2 119.1 286.2 119.1 286.2 119.1 C 286.2 120 286.8 120.8 288.3 120.8 C 290.6 120.8 291.2 119.3 291.2 117.9 C 291.2 117.9 291.2 117.5 291.2 117.5 Z M 295.3 121.6 L 295.3 109.5 L 296.5 109.5 L 296.5 121.6 L 295.3 121.6 Z M 304.7 111.5 L 304.7 115.8 L 309 115.8 L 309 116.9 L 304.7 116.9 L 304.7 121.6 L 303.5 121.6 L 303.5 116.9 L 299.2 116.9 L 299.2 115.8 L 303.5 115.8 L 303.5 111.5 L 304.7 111.5 Z M 309.7 123.8 C 310.6 122 310.9 120.5 311 119.1 C 311 119.1 312.3 119.1 312.3 119.1 C 312.2 120.4 311.6 122.5 310.8 123.8 C 310.8 123.8 309.7 123.8 309.7 123.8 Z M 332.8 117.5 C 332.8 117.5 332.8 117.5 332.8 117.5 C 332.8 119.7 331.5 121.8 328.6 121.8 C 326 121.8 324.4 119.8 324.4 117.5 C 324.4 117.5 324.4 117.5 324.4 117.5 C 324.4 115.2 326.1 113.3 328.7 113.3 C 331.4 113.3 332.8 115.4 332.8 117.5 Z M 325.7 117.5 C 325.7 117.5 325.7 117.5 325.7 117.5 C 325.7 119.2 326.8 120.7 328.6 120.7 C 330.6 120.7 331.6 119.3 331.6 117.6 C 331.6 117.6 331.6 117.6 331.6 117.6 C 331.6 115.8 330.5 114.3 328.6 114.3 C 326.6 114.3 325.7 115.8 325.7 117.5 Z M 335.2 115.5 C 335.2 114.9 335.2 114.1 335.2 113.5 C 335.2 113.5 336.4 113.5 336.4 113.5 C 336.4 113.8 336.4 114.5 336.4 115.1 C 336.8 114.3 337.6 113.3 339.4 113.3 C 341.3 113.3 342.5 114.4 342.5 116.7 C 342.51 116.68 342.5 121.6 342.5 121.6 L 341.3 121.6 C 341.3 121.6 341.29 116.91 341.3 116.9 C 341.3 115.5 340.7 114.4 339.1 114.4 C 337.3 114.4 336.4 115.8 336.4 117.7 C 336.42 117.75 336.4 121.6 336.4 121.6 L 335.2 121.6 C 335.2 121.6 335.21 115.54 335.2 115.5 Z M 355.6 115.7 C 355.6 115 355.6 114.2 355.6 113.5 C 355.6 113.5 356.8 113.5 356.8 113.5 C 356.8 113.7 356.8 114.6 356.8 115.4 C 357.4 114.1 358.6 113.3 360.1 113.3 C 360.1 113.3 360.1 114.5 360.1 114.5 C 358.3 114.5 356.8 115.7 356.8 118.1 C 356.84 118.08 356.8 121.6 356.8 121.6 L 355.6 121.6 C 355.6 121.6 355.64 115.7 355.6 115.7 Z M 362.5 117.8 C 362.5 117.8 362.53 117.81 362.5 117.8 C 362.6 119.5 363.8 120.8 365.5 120.8 C 366.9 120.8 367.6 120.2 368.1 119.3 C 368.1 119.32 368.1 119.3 368.1 119.3 L 369.3 119.3 C 369.3 119.3 369.31 119.32 369.3 119.3 C 368.9 120.5 367.8 121.8 365.4 121.8 C 362.7 121.8 361.3 119.7 361.3 117.6 C 361.3 117.6 361.3 117.6 361.3 117.6 C 361.3 115.1 363 113.3 365.4 113.3 C 368.4 113.3 369.4 115.5 369.4 117.5 C 369.4 117.6 369.4 117.7 369.4 117.8 C 369.43 117.81 362.5 117.8 362.5 117.8 Z M 368.2 116.9 C 368.2 116.9 368.15 116.88 368.2 116.9 C 368.1 115.8 367.5 114.3 365.4 114.3 C 363.6 114.3 362.7 115.4 362.6 116.9 C 362.56 116.88 362.6 116.9 362.6 116.9 L 368.2 116.9 Z M 368 109.3 L 365.5 111.9 L 364.3 111.9 L 366.5 109.3 L 368 109.3 Z M 378.6 119.6 C 378.6 120.4 378.7 121.4 378.7 121.6 C 378.7 121.6 377.5 121.6 377.5 121.6 C 377.5 121.2 377.4 120.6 377.4 120.3 C 377 121.2 376.1 121.8 374.3 121.8 C 372 121.8 371.2 120.4 371.2 119.2 C 371.2 119.2 371.2 119.2 371.2 119.2 C 371.2 117.2 373.1 116.6 375.4 116.6 C 376.4 116.6 377.1 116.6 377.4 116.6 C 377.4 116.6 377.4 116.1 377.4 116.1 C 377.4 115.2 377 114.3 375.1 114.3 C 373.5 114.3 373.1 115 372.9 115.8 C 372.89 115.84 372.9 115.8 372.9 115.8 L 371.7 115.8 C 371.7 115.8 371.69 115.84 371.7 115.8 C 371.8 114.8 372.5 113.3 375.1 113.3 C 377.9 113.3 378.6 114.7 378.6 116 C 378.6 116 378.6 119.6 378.6 119.6 Z M 377.4 117.5 C 377.1 117.5 376.6 117.5 375.4 117.5 C 373.4 117.5 372.4 117.9 372.4 119.1 C 372.4 119.1 372.4 119.1 372.4 119.1 C 372.4 120 373.1 120.8 374.5 120.8 C 376.9 120.8 377.4 119.3 377.4 117.9 C 377.4 117.9 377.4 117.5 377.4 117.5 Z M 381.5 121.6 L 381.5 109.5 L 382.7 109.5 L 382.7 121.6 L 381.5 121.6 Z M 385.6 113.5 L 386.8 113.5 L 386.8 121.6 L 385.6 121.6 L 385.6 113.5 Z M 385.6 109.5 L 386.8 109.5 L 386.8 111.3 L 385.6 111.3 L 385.6 109.5 Z M 390.3 119.1 C 390.3 119.1 390.26 119.13 390.3 119.1 C 390.6 120.2 391.5 120.8 393 120.8 C 394.7 120.8 395.3 120.2 395.3 119.4 C 395.3 118.6 394.9 118.1 392.7 117.9 C 390 117.5 389.4 116.6 389.4 115.6 C 389.4 114.6 390.2 113.3 392.7 113.3 C 395.5 113.3 396.2 114.8 396.3 115.7 C 396.3 115.66 396.3 115.7 396.3 115.7 L 395.1 115.7 C 395.1 115.7 395.07 115.66 395.1 115.7 C 394.9 115.1 394.6 114.3 392.6 114.3 C 391 114.3 390.6 115 390.6 115.5 C 390.6 116.2 391.1 116.6 393 116.8 C 396 117.2 396.6 118.1 396.6 119.3 C 396.6 120.7 395.5 121.8 393 121.8 C 390.6 121.8 389.3 120.8 389 119.1 C 389.03 119.13 389 119.1 389 119.1 L 390.3 119.1 Z M 399.6 117.8 C 399.6 117.8 399.58 117.81 399.6 117.8 C 399.7 119.5 400.8 120.8 402.6 120.8 C 403.9 120.8 404.7 120.2 405.2 119.3 C 405.15 119.32 405.2 119.3 405.2 119.3 L 406.4 119.3 C 406.4 119.3 406.36 119.32 406.4 119.3 C 405.9 120.5 404.8 121.8 402.5 121.8 C 399.7 121.8 398.4 119.7 398.4 117.6 C 398.4 117.6 398.4 117.6 398.4 117.6 C 398.4 115.1 400 113.3 402.4 113.3 C 405.5 113.3 406.5 115.5 406.5 117.5 C 406.5 117.6 406.5 117.7 406.5 117.8 C 406.48 117.81 399.6 117.8 399.6 117.8 Z M 405.2 116.9 C 405.2 116.9 405.2 116.88 405.2 116.9 C 405.1 115.8 404.6 114.3 402.4 114.3 C 400.7 114.3 399.8 115.4 399.6 116.9 C 399.62 116.88 399.6 116.9 399.6 116.9 L 405.2 116.9 Z M 425.3 120.2 C 424.8 121 423.9 121.8 422.2 121.8 C 420 121.8 418.3 120 418.3 117.6 C 418.3 117.6 418.3 117.6 418.3 117.6 C 418.3 114.9 420.3 113.3 422.3 113.3 C 424.3 113.3 425.1 114.3 425.3 114.8 C 425.3 114.2 425.3 113.8 425.3 113.5 C 425.3 113.5 426.5 113.5 426.5 113.5 C 426.5 114.1 426.5 115 426.5 115.8 C 426.47 115.79 426.5 125.1 426.5 125.1 L 425.3 125.1 C 425.3 125.1 425.26 120.21 425.3 120.2 Z M 419.5 117.6 C 419.5 117.6 419.5 117.6 419.5 117.6 C 419.5 119.3 420.6 120.7 422.3 120.7 C 424.2 120.7 425.3 119.6 425.3 117.5 C 425.3 117.5 425.3 117.5 425.3 117.5 C 425.3 115.6 424.4 114.4 422.5 114.4 C 420.5 114.4 419.5 115.8 419.5 117.6 Z M 436.5 119.2 C 436.5 120 436.5 120.8 436.5 121.6 C 436.5 121.6 435.4 121.6 435.4 121.6 C 435.4 121.3 435.3 120.7 435.3 120.1 C 434.9 121.1 434.2 121.8 432.4 121.8 C 430.7 121.8 429.4 120.9 429.4 118.5 C 429.35 118.53 429.4 113.5 429.4 113.5 L 430.6 113.5 C 430.6 113.5 430.56 118.29 430.6 118.3 C 430.6 119.6 431.1 120.7 432.6 120.7 C 434.5 120.7 435.3 119.6 435.3 117.1 C 435.33 117.13 435.3 113.5 435.3 113.5 L 436.5 113.5 C 436.5 113.5 436.54 119.21 436.5 119.2 Z M 439 114.1 C 439.4 112.8 439.8 111 439.8 109.5 C 439.8 109.5 441.1 109.5 441.1 109.5 C 441 110.7 440.5 113 440 114.1 C 440 114.1 439 114.1 439 114.1 Z M 443.3 113.5 L 444.5 113.5 L 444.5 121.6 L 443.3 121.6 L 443.3 113.5 Z M 443.3 109.5 L 444.5 109.5 L 444.5 111.3 L 443.3 111.3 L 443.3 109.5 Z M 447.4 121.6 L 447.4 109.5 L 448.6 109.5 L 448.6 121.6 L 447.4 121.6 Z " stroke="none" fill="#141414"/>  </g>  <g id="Polygon3969">    <path d="M 12.8 91.5 C 12.8 91.5 12.8 91.5 12.8 91.5 C 12.8 94.7 10.6 97.5 6.9 97.5 C 3.2 97.5 0.9 94.8 0.9 91.5 C 0.9 91.5 0.9 91.5 0.9 91.5 C 0.9 88.3 3.3 85.6 6.9 85.6 C 10.4 85.6 12.8 88.3 12.8 91.5 Z M 2.3 91.5 C 2.3 91.5 2.3 91.5 2.3 91.5 C 2.3 94 3.9 96.4 6.9 96.4 C 9.8 96.4 11.4 94.2 11.4 91.5 C 11.4 91.5 11.4 91.5 11.4 91.5 C 11.4 89.1 9.8 86.7 6.8 86.7 C 4 86.7 2.3 88.9 2.3 91.5 Z M 15.5 91.2 C 15.5 90.5 15.5 89.8 15.5 89.2 C 15.5 89.2 16.7 89.2 16.7 89.2 C 16.7 89.5 16.7 90.2 16.7 90.8 C 17.1 90 17.9 89 19.7 89 C 21.6 89 22.8 90.1 22.8 92.4 C 22.8 92.36 22.8 97.2 22.8 97.2 L 21.6 97.2 C 21.6 97.2 21.58 92.59 21.6 92.6 C 21.6 91.2 21 90 19.4 90 C 17.6 90 16.7 91.4 16.7 93.4 C 16.71 93.43 16.7 97.2 16.7 97.2 L 15.5 97.2 C 15.5 97.2 15.5 91.22 15.5 91.2 Z M 43.3 85.2 C 43.3 85.2 43.3 94.88 43.3 94.9 C 43.3 95.7 43.3 96.5 43.3 97.2 C 43.3 97.2 42.1 97.2 42.1 97.2 C 42.1 96.9 42.1 96.4 42.1 95.9 C 41.7 96.6 41 97.5 39 97.5 C 36.7 97.5 35.1 95.7 35.1 93.3 C 35.1 93.3 35.1 93.3 35.1 93.3 C 35.1 90.7 37.1 89 39.2 89 C 41.2 89 41.9 89.9 42.1 90.3 C 42.08 90.33 42.1 85.2 42.1 85.2 L 43.3 85.2 Z M 36.4 93.3 C 36.4 93.3 36.4 93.3 36.4 93.3 C 36.4 94.8 37.3 96.4 39.2 96.4 C 41.3 96.4 42.1 95.1 42.1 93.2 C 42.1 93.2 42.1 93.2 42.1 93.2 C 42.1 91.3 41.5 90 39.3 90 C 37.3 90 36.4 91.6 36.4 93.3 Z M 46.9 93.5 C 46.9 93.5 46.89 93.49 46.9 93.5 C 47 95.2 48.1 96.4 49.9 96.4 C 51.2 96.4 52 95.9 52.5 95 C 52.46 95 52.5 95 52.5 95 L 53.7 95 C 53.7 95 53.67 95 53.7 95 C 53.3 96.1 52.1 97.5 49.8 97.5 C 47 97.5 45.7 95.4 45.7 93.2 C 45.7 93.2 45.7 93.2 45.7 93.2 C 45.7 90.8 47.3 89 49.7 89 C 52.8 89 53.8 91.2 53.8 93.2 C 53.8 93.3 53.8 93.4 53.8 93.5 C 53.79 93.49 46.9 93.5 46.9 93.5 Z M 52.5 92.6 C 52.5 92.6 52.51 92.56 52.5 92.6 C 52.4 91.5 51.9 90 49.7 90 C 48 90 47.1 91.1 46.9 92.6 C 46.92 92.56 46.9 92.6 46.9 92.6 L 52.5 92.6 Z M 55.2 96.3 L 61.1 90.2 L 55.5 90.2 L 55.5 89.2 L 62.7 89.2 L 62.7 90.2 L 56.8 96.2 L 63 96.2 L 62.8 97.2 L 55.2 97.2 L 55.2 96.3 Z M 72.6 93.2 C 72.6 93.2 72.6 93.2 72.6 93.2 C 72.6 95.4 71.2 97.5 68.3 97.5 C 65.7 97.5 64.2 95.5 64.2 93.2 C 64.2 93.2 64.2 93.2 64.2 93.2 C 64.2 90.9 65.8 89 68.4 89 C 71.1 89 72.6 91 72.6 93.2 Z M 65.4 93.2 C 65.4 93.2 65.4 93.2 65.4 93.2 C 65.4 94.8 66.5 96.4 68.4 96.4 C 70.4 96.4 71.3 95 71.3 93.2 C 71.3 93.2 71.3 93.2 71.3 93.2 C 71.3 91.5 70.2 90 68.3 90 C 66.4 90 65.4 91.5 65.4 93.2 Z M 82.8 93.2 C 82.8 93.2 82.8 93.2 82.8 93.2 C 82.8 95.4 81.4 97.5 78.6 97.5 C 75.9 97.5 74.4 95.5 74.4 93.2 C 74.4 93.2 74.4 93.2 74.4 93.2 C 74.4 90.9 76 89 78.6 89 C 81.3 89 82.8 91 82.8 93.2 Z M 75.7 93.2 C 75.7 93.2 75.7 93.2 75.7 93.2 C 75.7 94.8 76.7 96.4 78.6 96.4 C 80.6 96.4 81.6 95 81.6 93.2 C 81.6 93.2 81.6 93.2 81.6 93.2 C 81.6 91.5 80.5 90 78.6 90 C 76.6 90 75.7 91.5 75.7 93.2 Z M 85.2 91.3 C 85.2 90.6 85.2 89.9 85.2 89.2 C 85.2 89.2 86.3 89.2 86.3 89.2 C 86.4 89.5 86.4 90 86.4 90.5 C 86.8 89.7 87.6 89 89 89 C 90.3 89 91.1 89.6 91.5 90.6 C 91.9 89.8 92.7 89 94.3 89 C 95.8 89 97.1 89.9 97.1 92.2 C 97.13 92.23 97.1 97.2 97.1 97.2 L 95.9 97.2 C 95.9 97.2 95.93 92.29 95.9 92.3 C 95.9 91.3 95.6 90 94.1 90 C 92.7 90 91.8 91 91.8 92.8 C 91.76 92.84 91.8 97.2 91.8 97.2 L 90.6 97.2 C 90.6 97.2 90.55 92.2 90.6 92.2 C 90.6 91.2 90.2 90 88.7 90 C 87 90 86.4 91.3 86.4 93 C 86.38 92.98 86.4 97.2 86.4 97.2 L 85.2 97.2 C 85.2 97.2 85.18 91.27 85.2 91.3 Z M 117.6 85.2 C 117.6 85.2 117.63 94.88 117.6 94.9 C 117.6 95.7 117.6 96.5 117.6 97.2 C 117.6 97.2 116.5 97.2 116.5 97.2 C 116.4 96.9 116.4 96.4 116.4 95.9 C 116 96.6 115.3 97.5 113.4 97.5 C 111 97.5 109.5 95.7 109.5 93.3 C 109.5 93.3 109.5 93.3 109.5 93.3 C 109.5 90.7 111.4 89 113.6 89 C 115.5 89 116.2 89.9 116.4 90.3 C 116.42 90.33 116.4 85.2 116.4 85.2 L 117.6 85.2 Z M 110.7 93.3 C 110.7 93.3 110.7 93.3 110.7 93.3 C 110.7 94.8 111.7 96.4 113.6 96.4 C 115.7 96.4 116.5 95.1 116.5 93.2 C 116.5 93.2 116.5 93.2 116.5 93.2 C 116.5 91.3 115.8 90 113.6 90 C 111.7 90 110.7 91.6 110.7 93.3 Z M 127.7 94.9 C 127.7 95.7 127.7 96.5 127.7 97.2 C 127.7 97.2 126.6 97.2 126.6 97.2 C 126.5 97 126.5 96.4 126.5 95.8 C 126.1 96.8 125.3 97.5 123.6 97.5 C 121.8 97.5 120.5 96.5 120.5 94.2 C 120.52 94.21 120.5 89.2 120.5 89.2 L 121.7 89.2 C 121.7 89.2 121.73 93.97 121.7 94 C 121.7 95.2 122.2 96.4 123.8 96.4 C 125.7 96.4 126.5 95.3 126.5 92.8 C 126.49 92.81 126.5 89.2 126.5 89.2 L 127.7 89.2 C 127.7 89.2 127.7 94.89 127.7 94.9 Z M 141.9 95.9 C 141.91 95.93 141.9 100.8 141.9 100.8 L 140.7 100.8 C 140.7 100.8 140.7 91.21 140.7 91.2 C 140.7 90.5 140.7 89.9 140.7 89.2 C 140.7 89.2 141.9 89.2 141.9 89.2 C 141.9 89.4 141.9 90 141.9 90.7 C 142.4 89.8 143.4 89 145.1 89 C 147.3 89 148.8 90.8 148.8 93.1 C 148.8 93.1 148.8 93.1 148.8 93.1 C 148.8 95.7 147.1 97.5 144.9 97.5 C 143.1 97.5 142.4 96.7 141.9 95.9 Z M 147.6 93.1 C 147.6 93.1 147.6 93.1 147.6 93.1 C 147.6 91.6 146.7 90 144.7 90 C 142.8 90 141.9 91.5 141.9 93.3 C 141.9 93.3 141.9 93.3 141.9 93.3 C 141.9 95 142.8 96.4 144.7 96.4 C 146.6 96.4 147.6 94.8 147.6 93.1 Z M 151.2 97.2 L 151.2 85.2 L 152.4 85.2 L 152.4 97.2 L 151.2 97.2 Z M 162.2 95.3 C 162.2 96 162.2 97.1 162.3 97.2 C 162.3 97.2 161.1 97.2 161.1 97.2 C 161 96.9 161 96.3 161 96 C 160.6 96.9 159.7 97.5 157.9 97.5 C 155.6 97.5 154.8 96.1 154.8 94.9 C 154.8 94.9 154.8 94.9 154.8 94.9 C 154.8 92.8 156.7 92.3 159 92.3 C 160 92.3 160.7 92.3 161 92.3 C 161 92.3 161 91.8 161 91.8 C 161 90.9 160.6 89.9 158.7 89.9 C 157.1 89.9 156.7 90.7 156.5 91.5 C 156.48 91.52 156.5 91.5 156.5 91.5 L 155.3 91.5 C 155.3 91.5 155.28 91.52 155.3 91.5 C 155.4 90.4 156.1 89 158.7 89 C 161.5 89 162.2 90.3 162.2 91.7 C 162.2 91.7 162.2 95.3 162.2 95.3 Z M 161 93.2 C 160.7 93.2 160.2 93.2 159 93.2 C 157 93.2 156 93.6 156 94.8 C 156 94.8 156 94.8 156 94.8 C 156 95.7 156.7 96.5 158.1 96.5 C 160.5 96.5 161 95 161 93.6 C 161 93.6 161 93.2 161 93.2 Z M 165.1 91.2 C 165.1 90.5 165.1 89.8 165.1 89.2 C 165.1 89.2 166.3 89.2 166.3 89.2 C 166.3 89.5 166.3 90.2 166.3 90.8 C 166.6 90 167.5 89 169.3 89 C 171.2 89 172.4 90.1 172.4 92.4 C 172.39 92.36 172.4 97.2 172.4 97.2 L 171.2 97.2 C 171.2 97.2 171.18 92.59 171.2 92.6 C 171.2 91.2 170.6 90 169 90 C 167.2 90 166.3 91.4 166.3 93.4 C 166.31 93.43 166.3 97.2 166.3 97.2 L 165.1 97.2 C 165.1 97.2 165.1 91.22 165.1 91.2 Z M 196.1 97.2 C 196.1 97.2 195.12 97.24 195.1 97.2 C 195.1 96.9 195 95.9 195 95.4 C 194.2 96.7 193 97.5 190.8 97.5 C 187.2 97.5 185 95.2 185 91.6 C 185 91.6 185 91.6 185 91.6 C 185 88.2 187.3 85.6 191 85.6 C 194.3 85.6 195.7 87.3 196.2 89 C 196.2 88.96 196.2 89 196.2 89 L 194.9 89 C 194.9 89 194.86 88.96 194.9 89 C 194.4 87.8 193.3 86.7 191 86.7 C 188 86.7 186.3 88.8 186.3 91.5 C 186.3 91.5 186.3 91.5 186.3 91.5 C 186.3 94.3 188 96.4 190.9 96.4 C 193.4 96.4 194.9 95.1 194.9 92.6 C 194.89 92.61 194.9 92.2 194.9 92.2 L 190.9 92.2 L 190.9 91.1 L 196.1 91.1 L 196.1 97.2 Z M 199.6 85.8 C 199.6 85.8 204.75 85.84 204.7 85.8 C 207.6 85.8 208.8 87.3 208.8 89.1 C 208.8 89.1 208.8 89.1 208.8 89.1 C 208.8 91.3 207.3 92.6 204.8 92.6 C 204.83 92.55 200.8 92.6 200.8 92.6 L 200.8 97.2 L 199.6 97.2 L 199.6 85.8 Z M 200.8 91.4 C 200.8 91.4 204.6 91.42 204.6 91.4 C 206.3 91.4 207.5 90.9 207.5 89.2 C 207.5 89.2 207.5 89.2 207.5 89.2 C 207.5 87.8 206.5 87 204.6 87 C 204.6 86.97 200.8 87 200.8 87 L 200.8 91.4 Z M 211.9 94 C 211.9 94 211.89 93.96 211.9 94 C 212.3 95.4 213.4 96.4 215.7 96.4 C 218.1 96.4 219 95.4 219 94.3 C 219 93.1 218.4 92.3 215.3 91.8 C 212 91.2 211.2 90.2 211.2 88.7 C 211.2 86.7 213 85.6 215.4 85.6 C 219.1 85.6 219.9 87.5 220 88.6 C 220 88.63 220 88.6 220 88.6 L 218.7 88.6 C 218.7 88.6 218.69 88.63 218.7 88.6 C 218.4 87.8 217.9 86.7 215.4 86.7 C 213.6 86.7 212.5 87.3 212.5 88.5 C 212.5 89.6 212.9 90.2 215.7 90.7 C 219.7 91.3 220.4 92.6 220.4 94.2 C 220.4 95.9 219 97.5 215.6 97.5 C 212.6 97.5 210.9 96.1 210.6 94 C 210.57 93.96 210.6 94 210.6 94 L 211.9 94 Z M 239.3 95.9 C 238.8 96.7 237.9 97.5 236.2 97.5 C 234 97.5 232.3 95.7 232.3 93.3 C 232.3 93.3 232.3 93.3 232.3 93.3 C 232.3 90.6 234.3 89 236.3 89 C 238.3 89 239.1 90 239.3 90.5 C 239.3 89.9 239.3 89.4 239.3 89.2 C 239.3 89.2 240.5 89.2 240.5 89.2 C 240.5 89.8 240.5 90.7 240.5 91.5 C 240.46 91.47 240.5 100.8 240.5 100.8 L 239.3 100.8 C 239.3 100.8 239.25 95.89 239.3 95.9 Z M 233.5 93.3 C 233.5 93.3 233.5 93.3 233.5 93.3 C 233.5 95 234.6 96.4 236.3 96.4 C 238.2 96.4 239.3 95.3 239.3 93.2 C 239.3 93.2 239.3 93.2 239.3 93.2 C 239.3 91.3 238.4 90 236.5 90 C 234.5 90 233.5 91.5 233.5 93.3 Z M 250.5 94.9 C 250.5 95.7 250.5 96.5 250.5 97.2 C 250.5 97.2 249.4 97.2 249.4 97.2 C 249.4 97 249.3 96.4 249.3 95.8 C 248.9 96.8 248.2 97.5 246.4 97.5 C 244.7 97.5 243.3 96.5 243.3 94.2 C 243.35 94.21 243.3 89.2 243.3 89.2 L 244.6 89.2 C 244.6 89.2 244.56 93.97 244.6 94 C 244.6 95.2 245.1 96.4 246.6 96.4 C 248.5 96.4 249.3 95.3 249.3 92.8 C 249.32 92.81 249.3 89.2 249.3 89.2 L 250.5 89.2 C 250.5 89.2 250.53 94.89 250.5 94.9 Z M 253.4 89.2 L 254.7 89.2 L 254.7 97.2 L 253.4 97.2 L 253.4 89.2 Z M 253.4 85.2 L 254.7 85.2 L 254.7 86.9 L 253.4 86.9 L 253.4 85.2 Z M 268.2 93.5 C 268.2 93.5 268.23 93.49 268.2 93.5 C 268.3 95.2 269.5 96.4 271.2 96.4 C 272.6 96.4 273.3 95.9 273.8 95 C 273.8 95 273.8 95 273.8 95 L 275 95 C 275 95 275.01 95 275 95 C 274.6 96.1 273.5 97.5 271.1 97.5 C 268.4 97.5 267 95.4 267 93.2 C 267 93.2 267 93.2 267 93.2 C 267 90.8 268.7 89 271.1 89 C 274.1 89 275.1 91.2 275.1 93.2 C 275.1 93.3 275.1 93.4 275.1 93.5 C 275.13 93.49 268.2 93.5 268.2 93.5 Z M 273.8 92.6 C 273.8 92.6 273.85 92.56 273.8 92.6 C 273.8 91.5 273.2 90 271.1 90 C 269.3 90 268.4 91.1 268.3 92.6 C 268.26 92.56 268.3 92.6 268.3 92.6 L 273.8 92.6 Z M 278.1 94.8 C 278.1 94.8 278.06 94.81 278.1 94.8 C 278.4 95.9 279.3 96.5 280.8 96.5 C 282.5 96.5 283.1 95.9 283.1 95.1 C 283.1 94.3 282.7 93.8 280.5 93.6 C 277.8 93.2 277.2 92.3 277.2 91.3 C 277.2 90.3 278 89 280.5 89 C 283.3 89 284 90.4 284.1 91.3 C 284.1 91.34 284.1 91.3 284.1 91.3 L 282.9 91.3 C 282.9 91.3 282.87 91.34 282.9 91.3 C 282.7 90.8 282.4 89.9 280.4 89.9 C 278.8 89.9 278.4 90.7 278.4 91.2 C 278.4 91.8 278.9 92.3 280.8 92.5 C 283.8 92.9 284.4 93.8 284.4 95 C 284.4 96.4 283.3 97.5 280.8 97.5 C 278.4 97.5 277.1 96.5 276.8 94.8 C 276.82 94.81 276.8 94.8 276.8 94.8 L 278.1 94.8 Z M 285.7 89.2 L 287.4 89.2 L 287.4 86.5 L 288.6 86.5 L 288.6 89.2 L 290.7 89.2 L 290.7 90.2 L 288.6 90.2 C 288.6 90.2 288.58 94.9 288.6 94.9 C 288.6 95.9 288.8 96.3 289.7 96.3 C 290 96.3 290.3 96.3 290.6 96.3 C 290.6 96.3 290.6 97.2 290.6 97.2 C 290.2 97.3 289.9 97.3 289.4 97.3 C 287.9 97.3 287.4 96.6 287.4 95 C 287.36 95.02 287.4 90.2 287.4 90.2 L 285.7 90.2 L 285.7 89.2 Z M 303.4 93.5 C 303.4 93.5 303.4 93.49 303.4 93.5 C 303.5 95.2 304.6 96.4 306.4 96.4 C 307.7 96.4 308.5 95.9 309 95 C 308.97 95 309 95 309 95 L 310.2 95 C 310.2 95 310.17 95 310.2 95 C 309.8 96.1 308.6 97.5 306.3 97.5 C 303.5 97.5 302.2 95.4 302.2 93.2 C 302.2 93.2 302.2 93.2 302.2 93.2 C 302.2 90.8 303.8 89 306.2 89 C 309.3 89 310.3 91.2 310.3 93.2 C 310.3 93.3 310.3 93.4 310.3 93.5 C 310.29 93.49 303.4 93.5 303.4 93.5 Z M 309 92.6 C 309 92.6 309.02 92.56 309 92.6 C 308.9 91.5 308.4 90 306.2 90 C 304.5 90 303.6 91.1 303.4 92.6 C 303.43 92.56 303.4 92.6 303.4 92.6 L 309 92.6 Z M 312.6 91.2 C 312.6 90.5 312.6 89.8 312.6 89.2 C 312.6 89.2 313.8 89.2 313.8 89.2 C 313.8 89.5 313.9 90.2 313.9 90.8 C 314.2 90 315.1 89 316.8 89 C 318.7 89 319.9 90.1 319.9 92.4 C 319.95 92.36 319.9 97.2 319.9 97.2 L 318.7 97.2 C 318.7 97.2 318.73 92.59 318.7 92.6 C 318.7 91.2 318.2 90 316.6 90 C 314.8 90 313.9 91.4 313.9 93.4 C 313.86 93.43 313.9 97.2 313.9 97.2 L 312.6 97.2 C 312.6 97.2 312.65 91.22 312.6 91.2 Z M 333.4 97.2 L 333.4 90.2 L 331.8 90.2 L 331.8 89.2 L 333.4 89.2 C 333.4 89.2 333.39 87.99 333.4 88 C 333.4 86.2 334.1 85.1 336 85.1 C 336.4 85.1 336.7 85.1 336.9 85.1 C 336.9 85.1 336.9 86.2 336.9 86.2 C 336.6 86.1 336.3 86.1 336.1 86.1 C 334.9 86.1 334.6 86.6 334.6 88.1 C 334.6 88.09 334.6 89.2 334.6 89.2 L 336.5 89.2 L 336.5 90.2 L 334.6 90.2 L 334.6 97.2 L 333.4 97.2 Z M 345.1 95.3 C 345.1 96 345.1 97.1 345.1 97.2 C 345.1 97.2 344 97.2 344 97.2 C 343.9 96.9 343.9 96.3 343.9 96 C 343.5 96.9 342.5 97.5 340.8 97.5 C 338.5 97.5 337.7 96.1 337.7 94.9 C 337.7 94.9 337.7 94.9 337.7 94.9 C 337.7 92.8 339.5 92.3 341.8 92.3 C 342.9 92.3 343.6 92.3 343.9 92.3 C 343.9 92.3 343.9 91.8 343.9 91.8 C 343.9 90.9 343.5 89.9 341.6 89.9 C 339.9 89.9 339.5 90.7 339.3 91.5 C 339.34 91.52 339.3 91.5 339.3 91.5 L 338.1 91.5 C 338.1 91.5 338.13 91.52 338.1 91.5 C 338.2 90.4 339 89 341.6 89 C 344.4 89 345.1 90.3 345.1 91.7 C 345.1 91.7 345.1 95.3 345.1 95.3 Z M 343.9 93.2 C 343.6 93.2 343.1 93.2 341.9 93.2 C 339.8 93.2 338.9 93.6 338.9 94.8 C 338.9 94.8 338.9 94.8 338.9 94.8 C 338.9 95.7 339.5 96.5 341 96.5 C 343.3 96.5 343.9 95 343.9 93.6 C 343.9 93.6 343.9 93.2 343.9 93.2 Z M 348 89.2 L 349.2 89.2 L 349.2 97.2 L 348 97.2 L 348 89.2 Z M 348 85.2 L 349.2 85.2 L 349.2 86.9 L 348 86.9 L 348 85.2 Z M 351.1 89.2 L 352.7 89.2 L 352.7 86.5 L 353.9 86.5 L 353.9 89.2 L 356.1 89.2 L 356.1 90.2 L 353.9 90.2 C 353.9 90.2 353.95 94.9 353.9 94.9 C 353.9 95.9 354.2 96.3 355.1 96.3 C 355.4 96.3 355.7 96.3 355.9 96.3 C 355.9 96.3 355.9 97.2 355.9 97.2 C 355.6 97.3 355.2 97.3 354.8 97.3 C 353.2 97.3 352.7 96.6 352.7 95 C 352.74 95.02 352.7 90.2 352.7 90.2 L 351.1 90.2 L 351.1 89.2 Z M 368.2 97.2 L 368.2 85.2 L 369.4 85.2 L 369.4 97.2 L 368.2 97.2 Z M 379.2 95.3 C 379.2 96 379.2 97.1 379.2 97.2 C 379.2 97.2 378.1 97.2 378.1 97.2 C 378 96.9 378 96.3 378 96 C 377.6 96.9 376.7 97.5 374.9 97.5 C 372.6 97.5 371.8 96.1 371.8 94.9 C 371.8 94.9 371.8 94.9 371.8 94.9 C 371.8 92.8 373.7 92.3 375.9 92.3 C 377 92.3 377.7 92.3 378 92.3 C 378 92.3 378 91.8 378 91.8 C 378 90.9 377.6 89.9 375.7 89.9 C 374 89.9 373.6 90.7 373.4 91.5 C 373.45 91.52 373.4 91.5 373.4 91.5 L 372.2 91.5 C 372.2 91.5 372.24 91.52 372.2 91.5 C 372.3 90.4 373.1 89 375.7 89 C 378.5 89 379.2 90.3 379.2 91.7 C 379.2 91.7 379.2 95.3 379.2 95.3 Z M 378 93.2 C 377.7 93.2 377.2 93.2 376 93.2 C 374 93.2 373 93.6 373 94.8 C 373 94.8 373 94.8 373 94.8 C 373 95.7 373.6 96.5 375.1 96.5 C 377.4 96.5 378 95 378 93.6 C 378 93.6 378 93.2 378 93.2 Z M 392.2 97.2 L 392.2 85.2 L 393.4 85.2 L 393.4 97.2 L 392.2 97.2 Z M 403.1 95.3 C 403.1 96 403.2 97.1 403.2 97.2 C 403.2 97.2 402.1 97.2 402.1 97.2 C 402 96.9 402 96.3 402 96 C 401.5 96.9 400.6 97.5 398.9 97.5 C 396.6 97.5 395.8 96.1 395.8 94.9 C 395.8 94.9 395.8 94.9 395.8 94.9 C 395.8 92.8 397.6 92.3 399.9 92.3 C 401 92.3 401.7 92.3 402 92.3 C 402 92.3 402 91.8 402 91.8 C 402 90.9 401.6 89.9 399.7 89.9 C 398 89.9 397.6 90.7 397.4 91.5 C 397.43 91.52 397.4 91.5 397.4 91.5 L 396.2 91.5 C 396.2 91.5 396.23 91.52 396.2 91.5 C 396.3 90.4 397.1 89 399.7 89 C 402.4 89 403.1 90.3 403.1 91.7 C 403.1 91.7 403.1 95.3 403.1 95.3 Z M 402 93.2 C 401.7 93.2 401.2 93.2 399.9 93.2 C 397.9 93.2 397 93.6 397 94.8 C 397 94.8 397 94.8 397 94.8 C 397 95.7 397.6 96.5 399.1 96.5 C 401.4 96.5 402 95 402 93.6 C 402 93.6 402 93.2 402 93.2 Z M 406 91.2 C 406 90.5 406 89.8 406 89.2 C 406 89.2 407.2 89.2 407.2 89.2 C 407.2 89.5 407.3 90.2 407.3 90.8 C 407.6 90 408.5 89 410.2 89 C 412.1 89 413.3 90.1 413.3 92.4 C 413.34 92.36 413.3 97.2 413.3 97.2 L 412.1 97.2 C 412.1 97.2 412.13 92.59 412.1 92.6 C 412.1 91.2 411.6 90 410 90 C 408.2 90 407.3 91.4 407.3 93.4 C 407.26 93.43 407.3 97.2 407.3 97.2 L 406 97.2 C 406 97.2 406.05 91.22 406 91.2 Z M 423.8 85.2 C 423.8 85.2 423.83 94.88 423.8 94.9 C 423.8 95.7 423.8 96.5 423.8 97.2 C 423.8 97.2 422.7 97.2 422.7 97.2 C 422.6 96.9 422.6 96.4 422.6 95.9 C 422.2 96.6 421.5 97.5 419.6 97.5 C 417.2 97.5 415.7 95.7 415.7 93.3 C 415.7 93.3 415.7 93.3 415.7 93.3 C 415.7 90.7 417.6 89 419.8 89 C 421.7 89 422.4 89.9 422.6 90.3 C 422.62 90.33 422.6 85.2 422.6 85.2 L 423.8 85.2 Z M 416.9 93.3 C 416.9 93.3 416.9 93.3 416.9 93.3 C 416.9 94.8 417.9 96.4 419.8 96.4 C 421.9 96.4 422.7 95.1 422.7 93.2 C 422.7 93.2 422.7 93.2 422.7 93.2 C 422.7 91.3 422 90 419.8 90 C 417.9 90 416.9 91.6 416.9 93.3 Z M 426.7 89.2 L 428 89.2 L 428 97.2 L 426.7 97.2 L 426.7 89.2 Z M 426.7 85.2 L 428 85.2 L 428 86.9 L 426.7 86.9 L 426.7 85.2 Z M 430.8 91.2 C 430.8 90.5 430.8 89.8 430.8 89.2 C 430.8 89.2 432 89.2 432 89.2 C 432 89.5 432.1 90.2 432.1 90.8 C 432.4 90 433.3 89 435 89 C 436.9 89 438.1 90.1 438.1 92.4 C 438.15 92.36 438.1 97.2 438.1 97.2 L 436.9 97.2 C 436.9 97.2 436.93 92.59 436.9 92.6 C 436.9 91.2 436.4 90 434.8 90 C 433 90 432.1 91.4 432.1 93.4 C 432.06 93.43 432.1 97.2 432.1 97.2 L 430.8 97.2 C 430.8 97.2 430.85 91.22 430.8 91.2 Z M 448.6 96.1 C 448.6 99.2 447.7 101 444.4 101 C 441.4 101 440.7 99.3 440.6 98.3 C 440.57 98.3 440.6 98.3 440.6 98.3 L 441.8 98.3 C 441.8 98.3 441.81 98.3 441.8 98.3 C 442.1 99.2 442.7 100 444.5 100 C 447 100 447.4 98.4 447.4 96.2 C 447.4 96.2 447.4 95.7 447.4 95.7 C 446.9 96.7 446 97.4 444.3 97.4 C 442.1 97.4 440.5 95.6 440.5 93.3 C 440.5 93.3 440.5 93.3 440.5 93.3 C 440.5 90.7 442.4 89 444.5 89 C 446.4 89 447.2 89.9 447.4 90.5 C 447.4 90.1 447.5 89.4 447.5 89.2 C 447.5 89.2 448.6 89.2 448.6 89.2 C 448.6 90 448.6 90.7 448.6 91.5 C 448.6 91.5 448.6 96.1 448.6 96.1 Z M 441.7 93.3 C 441.7 93.3 441.7 93.3 441.7 93.3 C 441.7 95.1 442.9 96.3 444.6 96.3 C 446.4 96.3 447.5 95.2 447.5 93.2 C 447.5 93.2 447.5 93.2 447.5 93.2 C 447.5 91.1 446.4 90 444.7 90 C 442.6 90 441.7 91.7 441.7 93.3 Z " stroke="none" fill="#141414"/>  </g></svg>