<?xml version="1.0" standalone="no"?><!DOCTYPE svg PUBLIC "-//W3C//DTD SVG 1.1//EN" "http://www.w3.org/Graphics/SVG/1.1/DTD/svg11.dtd"><svg xmlns="http://www.w3.org/2000/svg" version="1.1" width="450px" height="286.2px" viewBox="0 -1 450 286.2" style="top:-1px">  <desc>Anna est comme aimant e vers son canap – « woushhhh »...</desc>  <defs/>  <g id="Polygon9486">    <path d="M 2.1 153.9 L 4.8 157.2 L 3.5 157.2 L 0.8 153.9 L 3.5 150.6 L 4.8 150.6 L 2.1 153.9 Z M 5.5 153.9 L 8.2 157.2 L 6.9 157.2 L 4.2 153.9 L 6.9 150.6 L 8.2 150.6 L 5.5 153.9 Z M 14.4 150 C 16 154.9 16.4 156 16.6 156.9 C 16.6 156.9 16.6 156.9 16.6 156.9 C 16.8 156.1 17.2 155 19 150 C 19 150 20.2 150 20.2 150 C 21.9 154.9 22.4 156.1 22.5 156.8 C 22.5 156.8 22.5 156.8 22.5 156.8 C 22.7 156 23.3 154.2 24.8 150 C 24.76 149.99 26 150 26 150 L 23.1 158 C 23.1 158 21.88 158.04 21.9 158 C 20.9 155.2 19.8 152.3 19.5 151.4 C 19.5 151.4 19.5 151.4 19.5 151.4 C 19.3 152.1 18.4 154.7 17.2 158 C 17.19 158.04 15.9 158 15.9 158 L 13.2 150 C 13.2 150 14.43 149.99 14.4 150 Z M 35.5 154 C 35.5 154 35.5 154 35.5 154 C 35.5 156.2 34.2 158.3 31.3 158.3 C 28.7 158.3 27.1 156.3 27.1 154 C 27.1 154 27.1 154 27.1 154 C 27.1 151.7 28.8 149.8 31.4 149.8 C 34.1 149.8 35.5 151.8 35.5 154 Z M 28.4 154 C 28.4 154 28.4 154 28.4 154 C 28.4 155.6 29.4 157.2 31.3 157.2 C 33.3 157.2 34.3 155.8 34.3 154 C 34.3 154 34.3 154 34.3 154 C 34.3 152.3 33.2 150.8 31.3 150.8 C 29.3 150.8 28.4 152.3 28.4 154 Z M 45.1 155.7 C 45.1 156.5 45 157.3 45.1 158 C 45.1 158 43.9 158 43.9 158 C 43.9 157.8 43.8 157.2 43.8 156.6 C 43.4 157.6 42.7 158.3 40.9 158.3 C 39.2 158.3 37.9 157.3 37.9 155 C 37.87 155.01 37.9 150 37.9 150 L 39.1 150 C 39.1 150 39.08 154.77 39.1 154.8 C 39.1 156 39.6 157.2 41.1 157.2 C 43 157.2 43.8 156.1 43.8 153.6 C 43.84 153.61 43.8 150 43.8 150 L 45.1 150 C 45.1 150 45.05 155.69 45.1 155.7 Z M 48.5 155.6 C 48.5 155.6 48.52 155.61 48.5 155.6 C 48.8 156.7 49.7 157.3 51.3 157.3 C 53 157.3 53.6 156.7 53.6 155.9 C 53.6 155.1 53.2 154.6 51 154.4 C 48.2 154 47.7 153.1 47.7 152.1 C 47.7 151.1 48.5 149.8 51 149.8 C 53.8 149.8 54.5 151.2 54.6 152.1 C 54.56 152.14 54.6 152.1 54.6 152.1 L 53.3 152.1 C 53.3 152.1 53.33 152.14 53.3 152.1 C 53.2 151.6 52.9 150.7 50.9 150.7 C 49.3 150.7 48.9 151.5 48.9 152 C 48.9 152.6 49.3 153.1 51.3 153.3 C 54.2 153.7 54.8 154.6 54.8 155.8 C 54.8 157.2 53.7 158.3 51.2 158.3 C 48.8 158.3 47.6 157.3 47.3 155.6 C 47.29 155.61 47.3 155.6 47.3 155.6 L 48.5 155.6 Z M 58.4 146 C 58.4 146 58.41 151.57 58.4 151.6 C 58.7 150.9 59.4 149.8 61.5 149.8 C 63.3 149.8 64.5 150.9 64.5 153.2 C 64.49 153.17 64.5 158 64.5 158 L 63.3 158 C 63.3 158 63.28 153.38 63.3 153.4 C 63.3 151.9 62.7 150.8 61.1 150.8 C 59.3 150.8 58.4 152.3 58.4 154.1 C 58.41 154.06 58.4 158 58.4 158 L 57.2 158 L 57.2 146 L 58.4 146 Z M 68.6 146 C 68.6 146 68.6 151.57 68.6 151.6 C 68.9 150.9 69.6 149.8 71.7 149.8 C 73.5 149.8 74.7 150.9 74.7 153.2 C 74.69 153.17 74.7 158 74.7 158 L 73.5 158 C 73.5 158 73.47 153.38 73.5 153.4 C 73.5 151.9 72.9 150.8 71.3 150.8 C 69.5 150.8 68.6 152.3 68.6 154.1 C 68.6 154.06 68.6 158 68.6 158 L 67.4 158 L 67.4 146 L 68.6 146 Z M 78.8 146 C 78.8 146 78.79 151.57 78.8 151.6 C 79.1 150.9 79.8 149.8 81.9 149.8 C 83.6 149.8 84.9 150.9 84.9 153.2 C 84.88 153.17 84.9 158 84.9 158 L 83.7 158 C 83.7 158 83.66 153.38 83.7 153.4 C 83.7 151.9 83.1 150.8 81.5 150.8 C 79.7 150.8 78.8 152.3 78.8 154.1 C 78.79 154.06 78.8 158 78.8 158 L 77.6 158 L 77.6 146 L 78.8 146 Z M 89 146 C 89 146 88.98 151.57 89 151.6 C 89.3 150.9 90 149.8 92 149.8 C 93.8 149.8 95.1 150.9 95.1 153.2 C 95.07 153.17 95.1 158 95.1 158 L 93.9 158 C 93.9 158 93.85 153.38 93.9 153.4 C 93.9 151.9 93.3 150.8 91.7 150.8 C 89.9 150.8 89 152.3 89 154.1 C 88.98 154.06 89 158 89 158 L 87.8 158 L 87.8 146 L 89 146 Z M 107.2 153.9 L 104.4 150.6 L 105.7 150.6 L 108.4 153.9 L 105.7 157.2 L 104.5 157.2 L 107.2 153.9 Z M 103.8 153.9 L 101 150.6 L 102.3 150.6 L 105.1 153.9 L 102.3 157.2 L 101.1 157.2 L 103.8 153.9 Z M 110.3 158 L 110.3 155.6 L 111.6 155.6 L 111.6 158 L 110.3 158 Z M 114.3 158 L 114.3 155.6 L 115.6 155.6 L 115.6 158 L 114.3 158 Z M 118.3 158 L 118.3 155.6 L 119.6 155.6 L 119.6 158 L 118.3 158 Z " stroke="none" fill="#141414"/>  </g>  <g id="Polygon9485">    <path d="M 3.2 130 L 1.6 133.7 L 0.2 133.7 L 5.2 122.3 L 6.7 122.3 L 11.9 133.7 L 10.5 133.7 L 8.8 130 L 3.2 130 Z M 8.4 128.9 C 6.9 125.6 6.2 124.1 5.9 123.3 C 5.9 123.3 5.9 123.3 5.9 123.3 C 5.7 124 4.9 126 3.6 128.9 C 3.6 128.9 8.4 128.9 8.4 128.9 Z M 14 127.7 C 14 127 14 126.3 13.9 125.7 C 13.9 125.7 15.1 125.7 15.1 125.7 C 15.1 126 15.2 126.7 15.2 127.3 C 15.5 126.5 16.4 125.4 18.1 125.4 C 20 125.4 21.2 126.6 21.2 128.8 C 21.25 128.84 21.2 133.7 21.2 133.7 L 20 133.7 C 20 133.7 20.03 129.07 20 129.1 C 20 127.6 19.5 126.5 17.9 126.5 C 16.1 126.5 15.2 127.9 15.2 129.9 C 15.16 129.91 15.2 133.7 15.2 133.7 L 14 133.7 C 14 133.7 13.95 127.7 14 127.7 Z M 24.1 127.7 C 24.1 127 24.1 126.3 24.1 125.7 C 24.1 125.7 25.3 125.7 25.3 125.7 C 25.3 126 25.3 126.7 25.3 127.3 C 25.7 126.5 26.6 125.4 28.3 125.4 C 30.2 125.4 31.4 126.6 31.4 128.8 C 31.43 128.84 31.4 133.7 31.4 133.7 L 30.2 133.7 C 30.2 133.7 30.21 129.07 30.2 129.1 C 30.2 127.6 29.7 126.5 28.1 126.5 C 26.2 126.5 25.3 127.9 25.3 129.9 C 25.34 129.91 25.3 133.7 25.3 133.7 L 24.1 133.7 C 24.1 133.7 24.13 127.7 24.1 127.7 Z M 41.2 131.8 C 41.2 132.5 41.2 133.5 41.2 133.7 C 41.2 133.7 40.1 133.7 40.1 133.7 C 40 133.4 40 132.7 40 132.5 C 39.6 133.3 38.7 133.9 36.9 133.9 C 34.6 133.9 33.8 132.6 33.8 131.4 C 33.8 131.4 33.8 131.4 33.8 131.4 C 33.8 129.3 35.7 128.8 37.9 128.8 C 39 128.8 39.7 128.8 40 128.8 C 40 128.8 40 128.3 40 128.3 C 40 127.3 39.6 126.4 37.7 126.4 C 36 126.4 35.6 127.2 35.5 128 C 35.45 128 35.5 128 35.5 128 L 34.2 128 C 34.2 128 34.24 128 34.2 128 C 34.3 126.9 35.1 125.4 37.7 125.4 C 40.5 125.4 41.2 126.8 41.2 128.1 C 41.2 128.1 41.2 131.8 41.2 131.8 Z M 40 129.7 C 39.7 129.7 39.2 129.7 38 129.7 C 36 129.7 35 130.1 35 131.3 C 35 131.3 35 131.3 35 131.3 C 35 132.2 35.6 132.9 37.1 132.9 C 39.4 132.9 40 131.5 40 130.1 C 40 130.1 40 129.7 40 129.7 Z M 61.1 130 C 61.1 130 61.06 129.97 61.1 130 C 61.2 131.7 62.3 132.9 64 132.9 C 65.4 132.9 66.2 132.3 66.6 131.5 C 66.63 131.48 66.6 131.5 66.6 131.5 L 67.8 131.5 C 67.8 131.5 67.84 131.48 67.8 131.5 C 67.4 132.6 66.3 133.9 64 133.9 C 61.2 133.9 59.8 131.9 59.8 129.7 C 59.8 129.7 59.8 129.7 59.8 129.7 C 59.8 127.2 61.5 125.4 63.9 125.4 C 66.9 125.4 68 127.7 68 129.6 C 68 129.7 68 129.8 68 130 C 67.96 129.97 61.1 130 61.1 130 Z M 66.7 129 C 66.7 129 66.68 129.04 66.7 129 C 66.6 128 66 126.4 63.9 126.4 C 62.2 126.4 61.3 127.6 61.1 129 C 61.09 129.04 61.1 129 61.1 129 L 66.7 129 Z M 70.9 131.3 C 70.9 131.3 70.89 131.29 70.9 131.3 C 71.2 132.4 72.1 133 73.7 133 C 75.3 133 76 132.4 76 131.5 C 76 130.8 75.5 130.3 73.4 130 C 70.6 129.7 70 128.8 70 127.8 C 70 126.8 70.9 125.4 73.4 125.4 C 76.1 125.4 76.9 126.9 76.9 127.8 C 76.93 127.82 76.9 127.8 76.9 127.8 L 75.7 127.8 C 75.7 127.8 75.7 127.82 75.7 127.8 C 75.6 127.3 75.2 126.4 73.3 126.4 C 71.6 126.4 71.3 127.1 71.3 127.7 C 71.3 128.3 71.7 128.7 73.6 129 C 76.6 129.4 77.2 130.2 77.2 131.5 C 77.2 132.9 76.1 133.9 73.6 133.9 C 71.2 133.9 69.9 132.9 69.7 131.3 C 69.66 131.29 69.7 131.3 69.7 131.3 L 70.9 131.3 Z M 78.6 125.7 L 80.2 125.7 L 80.2 123 L 81.4 123 L 81.4 125.7 L 83.6 125.7 L 83.6 126.7 L 81.4 126.7 C 81.4 126.7 81.41 131.38 81.4 131.4 C 81.4 132.4 81.7 132.8 82.6 132.8 C 82.8 132.8 83.2 132.8 83.4 132.7 C 83.4 132.7 83.4 133.7 83.4 133.7 C 83.1 133.8 82.7 133.8 82.3 133.8 C 80.7 133.8 80.2 133.1 80.2 131.5 C 80.2 131.5 80.2 126.7 80.2 126.7 L 78.6 126.7 L 78.6 125.7 Z M 109.3 131.3 C 109.3 131.3 109.33 131.26 109.3 131.3 C 108.9 132.7 107.7 133.9 105.5 133.9 C 102.7 133.9 101.3 132 101.3 129.7 C 101.3 129.7 101.3 129.7 101.3 129.7 C 101.3 127.4 102.9 125.4 105.5 125.4 C 108.1 125.4 109.1 127.1 109.3 128.2 C 109.32 128.19 109.3 128.2 109.3 128.2 L 108.1 128.2 C 108.1 128.2 108.11 128.19 108.1 128.2 C 107.8 127.3 107.1 126.5 105.5 126.5 C 103.7 126.5 102.6 127.8 102.6 129.7 C 102.6 129.7 102.6 129.7 102.6 129.7 C 102.6 131.5 103.6 132.9 105.5 132.9 C 106.9 132.9 107.7 132.2 108.1 131.3 C 108.12 131.26 108.1 131.3 108.1 131.3 L 109.3 131.3 Z M 119.5 129.7 C 119.5 129.7 119.5 129.7 119.5 129.7 C 119.5 131.9 118.1 133.9 115.2 133.9 C 112.6 133.9 111.1 131.9 111.1 129.7 C 111.1 129.7 111.1 129.7 111.1 129.7 C 111.1 127.4 112.7 125.4 115.3 125.4 C 118 125.4 119.5 127.5 119.5 129.7 Z M 112.3 129.7 C 112.3 129.7 112.3 129.7 112.3 129.7 C 112.3 131.3 113.4 132.9 115.3 132.9 C 117.3 132.9 118.2 131.4 118.2 129.7 C 118.2 129.7 118.2 129.7 118.2 129.7 C 118.2 128 117.1 126.5 115.2 126.5 C 113.3 126.5 112.3 128 112.3 129.7 Z M 121.8 127.7 C 121.8 127.1 121.8 126.4 121.8 125.7 C 121.8 125.7 123 125.7 123 125.7 C 123 126 123 126.5 123 126.9 C 123.4 126.2 124.2 125.4 125.7 125.4 C 127 125.4 127.8 126.1 128.2 127.1 C 128.6 126.3 129.3 125.4 130.9 125.4 C 132.5 125.4 133.8 126.3 133.8 128.7 C 133.79 128.71 133.8 133.7 133.8 133.7 L 132.6 133.7 C 132.6 133.7 132.58 128.77 132.6 128.8 C 132.6 127.8 132.3 126.5 130.7 126.5 C 129.3 126.5 128.4 127.5 128.4 129.3 C 128.42 129.32 128.4 133.7 128.4 133.7 L 127.2 133.7 C 127.2 133.7 127.21 128.68 127.2 128.7 C 127.2 127.7 126.9 126.5 125.3 126.5 C 123.7 126.5 123 127.8 123 129.5 C 123.04 129.46 123 133.7 123 133.7 L 121.8 133.7 C 121.8 133.7 121.84 127.75 121.8 127.7 Z M 136.7 127.7 C 136.7 127.1 136.7 126.4 136.7 125.7 C 136.7 125.7 137.8 125.7 137.8 125.7 C 137.9 126 137.9 126.5 137.9 126.9 C 138.3 126.2 139.1 125.4 140.5 125.4 C 141.8 125.4 142.7 126.1 143 127.1 C 143.4 126.3 144.2 125.4 145.8 125.4 C 147.4 125.4 148.6 126.3 148.6 128.7 C 148.64 128.71 148.6 133.7 148.6 133.7 L 147.4 133.7 C 147.4 133.7 147.44 128.77 147.4 128.8 C 147.4 127.8 147.1 126.5 145.6 126.5 C 144.2 126.5 143.3 127.5 143.3 129.3 C 143.27 129.32 143.3 133.7 143.3 133.7 L 142.1 133.7 C 142.1 133.7 142.06 128.68 142.1 128.7 C 142.1 127.7 141.7 126.5 140.2 126.5 C 138.5 126.5 137.9 127.8 137.9 129.5 C 137.89 129.46 137.9 133.7 137.9 133.7 L 136.7 133.7 C 136.7 133.7 136.69 127.75 136.7 127.7 Z M 152.2 130 C 152.2 130 152.24 129.97 152.2 130 C 152.3 131.7 153.5 132.9 155.2 132.9 C 156.6 132.9 157.3 132.3 157.8 131.5 C 157.81 131.48 157.8 131.5 157.8 131.5 L 159 131.5 C 159 131.5 159.02 131.48 159 131.5 C 158.6 132.6 157.5 133.9 155.1 133.9 C 152.4 133.9 151 131.9 151 129.7 C 151 129.7 151 129.7 151 129.7 C 151 127.2 152.7 125.4 155.1 125.4 C 158.1 125.4 159.1 127.7 159.1 129.6 C 159.1 129.7 159.1 129.8 159.1 130 C 159.14 129.97 152.2 130 152.2 130 Z M 157.9 129 C 157.9 129 157.86 129.04 157.9 129 C 157.8 128 157.2 126.4 155.1 126.4 C 153.3 126.4 152.4 127.6 152.3 129 C 152.27 129.04 152.3 129 152.3 129 L 157.9 129 Z M 184.5 131.8 C 184.5 132.5 184.6 133.5 184.6 133.7 C 184.6 133.7 183.4 133.7 183.4 133.7 C 183.4 133.4 183.4 132.7 183.4 132.5 C 182.9 133.3 182 133.9 180.3 133.9 C 178 133.9 177.1 132.6 177.1 131.4 C 177.1 131.4 177.1 131.4 177.1 131.4 C 177.1 129.3 179 128.8 181.3 128.8 C 182.4 128.8 183.1 128.8 183.3 128.8 C 183.3 128.8 183.3 128.3 183.3 128.3 C 183.3 127.3 182.9 126.4 181.1 126.4 C 179.4 126.4 179 127.2 178.8 128 C 178.82 128 178.8 128 178.8 128 L 177.6 128 C 177.6 128 177.61 128 177.6 128 C 177.7 126.9 178.4 125.4 181.1 125.4 C 183.8 125.4 184.5 126.8 184.5 128.1 C 184.5 128.1 184.5 131.8 184.5 131.8 Z M 183.3 129.7 C 183.1 129.7 182.5 129.7 181.3 129.7 C 179.3 129.7 178.4 130.1 178.4 131.3 C 178.4 131.3 178.4 131.3 178.4 131.3 C 178.4 132.2 179 132.9 180.5 132.9 C 182.8 132.9 183.3 131.5 183.3 130.1 C 183.3 130.1 183.3 129.7 183.3 129.7 Z M 187.4 125.7 L 188.6 125.7 L 188.6 133.7 L 187.4 133.7 L 187.4 125.7 Z M 187.4 121.7 L 188.6 121.7 L 188.6 123.4 L 187.4 123.4 L 187.4 121.7 Z M 191.5 127.7 C 191.5 127.1 191.5 126.4 191.5 125.7 C 191.5 125.7 192.7 125.7 192.7 125.7 C 192.7 126 192.7 126.5 192.7 126.9 C 193.1 126.2 193.9 125.4 195.4 125.4 C 196.7 125.4 197.5 126.1 197.9 127.1 C 198.3 126.3 199 125.4 200.6 125.4 C 202.2 125.4 203.5 126.3 203.5 128.7 C 203.48 128.71 203.5 133.7 203.5 133.7 L 202.3 133.7 C 202.3 133.7 202.28 128.77 202.3 128.8 C 202.3 127.8 202 126.5 200.4 126.5 C 199 126.5 198.1 127.5 198.1 129.3 C 198.11 129.32 198.1 133.7 198.1 133.7 L 196.9 133.7 C 196.9 133.7 196.91 128.68 196.9 128.7 C 196.9 127.7 196.6 126.5 195 126.5 C 193.4 126.5 192.7 127.8 192.7 129.5 C 192.74 129.46 192.7 133.7 192.7 133.7 L 191.5 133.7 C 191.5 133.7 191.54 127.75 191.5 127.7 Z M 213.2 131.8 C 213.2 132.5 213.3 133.5 213.3 133.7 C 213.3 133.7 212.2 133.7 212.2 133.7 C 212.1 133.4 212.1 132.7 212.1 132.5 C 211.6 133.3 210.7 133.9 209 133.9 C 206.7 133.9 205.9 132.6 205.9 131.4 C 205.9 131.4 205.9 131.4 205.9 131.4 C 205.9 129.3 207.7 128.8 210 128.8 C 211.1 128.8 211.8 128.8 212.1 128.8 C 212.1 128.8 212.1 128.3 212.1 128.3 C 212.1 127.3 211.6 126.4 209.8 126.4 C 208.1 126.4 207.7 127.2 207.5 128 C 207.53 128 207.5 128 207.5 128 L 206.3 128 C 206.3 128 206.32 128 206.3 128 C 206.4 126.9 207.1 125.4 209.8 125.4 C 212.5 125.4 213.2 126.8 213.2 128.1 C 213.2 128.1 213.2 131.8 213.2 131.8 Z M 212.1 129.7 C 211.8 129.7 211.2 129.7 210 129.7 C 208 129.7 207.1 130.1 207.1 131.3 C 207.1 131.3 207.1 131.3 207.1 131.3 C 207.1 132.2 207.7 132.9 209.2 132.9 C 211.5 132.9 212.1 131.5 212.1 130.1 C 212.1 130.1 212.1 129.7 212.1 129.7 Z M 216.1 127.7 C 216.1 127 216.1 126.3 216.1 125.7 C 216.1 125.7 217.3 125.7 217.3 125.7 C 217.3 126 217.3 126.7 217.4 127.3 C 217.7 126.5 218.6 125.4 220.3 125.4 C 222.2 125.4 223.4 126.6 223.4 128.8 C 223.44 128.84 223.4 133.7 223.4 133.7 L 222.2 133.7 C 222.2 133.7 222.23 129.07 222.2 129.1 C 222.2 127.6 221.7 126.5 220.1 126.5 C 218.3 126.5 217.4 127.9 217.4 129.9 C 217.35 129.91 217.4 133.7 217.4 133.7 L 216.1 133.7 C 216.1 133.7 216.14 127.7 216.1 127.7 Z M 225.2 125.7 L 226.8 125.7 L 226.8 123 L 228 123 L 228 125.7 L 230.2 125.7 L 230.2 126.7 L 228 126.7 C 228 126.7 228.02 131.38 228 131.4 C 228 132.4 228.3 132.8 229.2 132.8 C 229.4 132.8 229.8 132.8 230 132.7 C 230 132.7 230 133.7 230 133.7 C 229.7 133.8 229.3 133.8 228.9 133.8 C 227.3 133.8 226.8 133.1 226.8 131.5 C 226.81 131.5 226.8 126.7 226.8 126.7 L 225.2 126.7 L 225.2 125.7 Z M 232.7 130 C 232.7 130 232.65 129.97 232.7 130 C 232.7 131.7 233.9 132.9 235.6 132.9 C 237 132.9 237.7 132.3 238.2 131.5 C 238.22 131.48 238.2 131.5 238.2 131.5 L 239.4 131.5 C 239.4 131.5 239.43 131.48 239.4 131.5 C 239 132.6 237.9 133.9 235.5 133.9 C 232.8 133.9 231.4 131.9 231.4 129.7 C 231.4 129.7 231.4 129.7 231.4 129.7 C 231.4 127.2 233.1 125.4 235.5 125.4 C 238.5 125.4 239.6 127.7 239.6 129.6 C 239.6 129.7 239.6 129.8 239.5 130 C 239.55 129.97 232.7 130 232.7 130 Z M 238.3 129 C 238.3 129 238.27 129.04 238.3 129 C 238.2 128 237.6 126.4 235.5 126.4 C 233.7 126.4 232.8 127.6 232.7 129 C 232.68 129.04 232.7 129 232.7 129 L 238.3 129 Z M 238.1 121.5 L 235.6 124.1 L 234.4 124.1 L 236.6 121.5 L 238.1 121.5 Z M 242.6 130 C 242.6 130 242.61 129.97 242.6 130 C 242.7 131.7 243.8 132.9 245.6 132.9 C 246.9 132.9 247.7 132.3 248.2 131.5 C 248.18 131.48 248.2 131.5 248.2 131.5 L 249.4 131.5 C 249.4 131.5 249.39 131.48 249.4 131.5 C 249 132.6 247.9 133.9 245.5 133.9 C 242.7 133.9 241.4 131.9 241.4 129.7 C 241.4 129.7 241.4 129.7 241.4 129.7 C 241.4 127.2 243 125.4 245.5 125.4 C 248.5 125.4 249.5 127.7 249.5 129.6 C 249.5 129.7 249.5 129.8 249.5 130 C 249.51 129.97 242.6 130 242.6 130 Z M 248.2 129 C 248.2 129 248.23 129.04 248.2 129 C 248.2 128 247.6 126.4 245.4 126.4 C 243.7 126.4 242.8 127.6 242.6 129 C 242.64 129.04 242.6 129 242.6 129 L 248.2 129 Z M 268.3 125.7 C 269 127.2 271 131.7 271.3 132.6 C 271.3 132.6 271.3 132.6 271.3 132.6 C 271.5 132 272.1 130.7 274.3 125.7 C 274.27 125.67 275.5 125.7 275.5 125.7 L 271.9 133.7 L 270.6 133.7 L 267 125.7 C 267 125.7 268.33 125.67 268.3 125.7 Z M 277.8 130 C 277.8 130 277.77 129.97 277.8 130 C 277.9 131.7 279 132.9 280.8 132.9 C 282.1 132.9 282.9 132.3 283.3 131.5 C 283.34 131.48 283.3 131.5 283.3 131.5 L 284.5 131.5 C 284.5 131.5 284.55 131.48 284.5 131.5 C 284.1 132.6 283 133.9 280.7 133.9 C 277.9 133.9 276.5 131.9 276.5 129.7 C 276.5 129.7 276.5 129.7 276.5 129.7 C 276.5 127.2 278.2 125.4 280.6 125.4 C 283.6 125.4 284.7 127.7 284.7 129.6 C 284.7 129.7 284.7 129.8 284.7 130 C 284.67 129.97 277.8 130 277.8 130 Z M 283.4 129 C 283.4 129 283.39 129.04 283.4 129 C 283.3 128 282.8 126.4 280.6 126.4 C 278.9 126.4 278 127.6 277.8 129 C 277.8 129.04 277.8 129 277.8 129 L 283.4 129 Z M 287 127.9 C 287 127.1 287 126.4 287 125.7 C 287 125.7 288.2 125.7 288.2 125.7 C 288.2 125.9 288.2 126.7 288.2 127.5 C 288.8 126.3 290 125.4 291.5 125.4 C 291.5 125.4 291.5 126.6 291.5 126.6 C 289.7 126.6 288.2 127.8 288.2 130.2 C 288.23 130.24 288.2 133.7 288.2 133.7 L 287 133.7 C 287 133.7 287.02 127.86 287 127.9 Z M 294 131.3 C 294 131.3 294.02 131.29 294 131.3 C 294.3 132.4 295.2 133 296.8 133 C 298.5 133 299.1 132.4 299.1 131.5 C 299.1 130.8 298.7 130.3 296.5 130 C 293.7 129.7 293.2 128.8 293.2 127.8 C 293.2 126.8 294 125.4 296.5 125.4 C 299.3 125.4 300 126.9 300.1 127.8 C 300.06 127.82 300.1 127.8 300.1 127.8 L 298.8 127.8 C 298.8 127.8 298.84 127.82 298.8 127.8 C 298.7 127.3 298.4 126.4 296.4 126.4 C 294.8 126.4 294.4 127.1 294.4 127.7 C 294.4 128.3 294.8 128.7 296.8 129 C 299.7 129.4 300.3 130.2 300.3 131.5 C 300.3 132.9 299.2 133.9 296.7 133.9 C 294.3 133.9 293.1 132.9 292.8 131.3 C 292.79 131.29 292.8 131.3 292.8 131.3 L 294 131.3 Z M 319.4 131.3 C 319.4 131.3 319.44 131.29 319.4 131.3 C 319.8 132.4 320.7 133 322.2 133 C 323.9 133 324.5 132.4 324.5 131.5 C 324.5 130.8 324.1 130.3 321.9 130 C 319.2 129.7 318.6 128.8 318.6 127.8 C 318.6 126.8 319.4 125.4 321.9 125.4 C 324.7 125.4 325.4 126.9 325.5 127.8 C 325.48 127.82 325.5 127.8 325.5 127.8 L 324.3 127.8 C 324.3 127.8 324.26 127.82 324.3 127.8 C 324.1 127.3 323.8 126.4 321.8 126.4 C 320.2 126.4 319.8 127.1 319.8 127.7 C 319.8 128.3 320.2 128.7 322.2 129 C 325.1 129.4 325.7 130.2 325.7 131.5 C 325.7 132.9 324.6 133.9 322.1 133.9 C 319.8 133.9 318.5 132.9 318.2 131.3 C 318.21 131.29 318.2 131.3 318.2 131.3 L 319.4 131.3 Z M 335.9 129.7 C 335.9 129.7 335.9 129.7 335.9 129.7 C 335.9 131.9 334.6 133.9 331.7 133.9 C 329.1 133.9 327.6 131.9 327.6 129.7 C 327.6 129.7 327.6 129.7 327.6 129.7 C 327.6 127.4 329.2 125.4 331.8 125.4 C 334.5 125.4 335.9 127.5 335.9 129.7 Z M 328.8 129.7 C 328.8 129.7 328.8 129.7 328.8 129.7 C 328.8 131.3 329.9 132.9 331.8 132.9 C 333.7 132.9 334.7 131.4 334.7 129.7 C 334.7 129.7 334.7 129.7 334.7 129.7 C 334.7 128 333.6 126.5 331.7 126.5 C 329.7 126.5 328.8 128 328.8 129.7 Z M 338.3 127.7 C 338.3 127 338.3 126.3 338.3 125.7 C 338.3 125.7 339.5 125.7 339.5 125.7 C 339.5 126 339.5 126.7 339.5 127.3 C 339.9 126.5 340.7 125.4 342.5 125.4 C 344.4 125.4 345.6 126.6 345.6 128.8 C 345.61 128.84 345.6 133.7 345.6 133.7 L 344.4 133.7 C 344.4 133.7 344.39 129.07 344.4 129.1 C 344.4 127.6 343.8 126.5 342.2 126.5 C 340.4 126.5 339.5 127.9 339.5 129.9 C 339.52 129.91 339.5 133.7 339.5 133.7 L 338.3 133.7 C 338.3 133.7 338.31 127.7 338.3 127.7 Z M 372.3 131.3 C 372.3 131.3 372.28 131.26 372.3 131.3 C 371.9 132.7 370.6 133.9 368.4 133.9 C 365.6 133.9 364.3 132 364.3 129.7 C 364.3 129.7 364.3 129.7 364.3 129.7 C 364.3 127.4 365.8 125.4 368.5 125.4 C 371 125.4 372.1 127.1 372.3 128.2 C 372.27 128.19 372.3 128.2 372.3 128.2 L 371.1 128.2 C 371.1 128.2 371.06 128.19 371.1 128.2 C 370.7 127.3 370 126.5 368.4 126.5 C 366.6 126.5 365.5 127.8 365.5 129.7 C 365.5 129.7 365.5 129.7 365.5 129.7 C 365.5 131.5 366.6 132.9 368.4 132.9 C 369.9 132.9 370.6 132.2 371.1 131.3 C 371.07 131.26 371.1 131.3 371.1 131.3 L 372.3 131.3 Z M 381.5 131.8 C 381.5 132.5 381.5 133.5 381.6 133.7 C 381.6 133.7 380.4 133.7 380.4 133.7 C 380.4 133.4 380.3 132.7 380.3 132.5 C 379.9 133.3 379 133.9 377.2 133.9 C 374.9 133.9 374.1 132.6 374.1 131.4 C 374.1 131.4 374.1 131.4 374.1 131.4 C 374.1 129.3 376 128.8 378.3 128.8 C 379.3 128.8 380 128.8 380.3 128.8 C 380.3 128.8 380.3 128.3 380.3 128.3 C 380.3 127.3 379.9 126.4 378 126.4 C 376.4 126.4 376 127.2 375.8 128 C 375.79 128 375.8 128 375.8 128 L 374.6 128 C 374.6 128 374.58 128 374.6 128 C 374.7 126.9 375.4 125.4 378 125.4 C 380.8 125.4 381.5 126.8 381.5 128.1 C 381.5 128.1 381.5 131.8 381.5 131.8 Z M 380.3 129.7 C 380 129.7 379.5 129.7 378.3 129.7 C 376.3 129.7 375.3 130.1 375.3 131.3 C 375.3 131.3 375.3 131.3 375.3 131.3 C 375.3 132.2 376 132.9 377.4 132.9 C 379.8 132.9 380.3 131.5 380.3 130.1 C 380.3 130.1 380.3 129.7 380.3 129.7 Z M 384.4 127.7 C 384.4 127 384.4 126.3 384.4 125.7 C 384.4 125.7 385.6 125.7 385.6 125.7 C 385.6 126 385.6 126.7 385.6 127.3 C 386 126.5 386.8 125.4 388.6 125.4 C 390.5 125.4 391.7 126.6 391.7 128.8 C 391.7 128.84 391.7 133.7 391.7 133.7 L 390.5 133.7 C 390.5 133.7 390.48 129.07 390.5 129.1 C 390.5 127.6 389.9 126.5 388.3 126.5 C 386.5 126.5 385.6 127.9 385.6 129.9 C 385.61 129.91 385.6 133.7 385.6 133.7 L 384.4 133.7 C 384.4 133.7 384.4 127.7 384.4 127.7 Z M 401.4 131.8 C 401.4 132.5 401.5 133.5 401.5 133.7 C 401.5 133.7 400.4 133.7 400.4 133.7 C 400.3 133.4 400.3 132.7 400.3 132.5 C 399.8 133.3 398.9 133.9 397.2 133.9 C 394.9 133.9 394.1 132.6 394.1 131.4 C 394.1 131.4 394.1 131.4 394.1 131.4 C 394.1 129.3 395.9 128.8 398.2 128.8 C 399.3 128.8 400 128.8 400.2 128.8 C 400.2 128.8 400.2 128.3 400.2 128.3 C 400.2 127.3 399.8 126.4 398 126.4 C 396.3 126.4 395.9 127.2 395.7 128 C 395.72 128 395.7 128 395.7 128 L 394.5 128 C 394.5 128 394.51 128 394.5 128 C 394.6 126.9 395.3 125.4 398 125.4 C 400.7 125.4 401.4 126.8 401.4 128.1 C 401.4 128.1 401.4 131.8 401.4 131.8 Z M 400.2 129.7 C 400 129.7 399.4 129.7 398.2 129.7 C 396.2 129.7 395.3 130.1 395.3 131.3 C 395.3 131.3 395.3 131.3 395.3 131.3 C 395.3 132.2 395.9 132.9 397.4 132.9 C 399.7 132.9 400.2 131.5 400.2 130.1 C 400.2 130.1 400.2 129.7 400.2 129.7 Z M 405.5 132.4 C 405.55 132.41 405.5 137.3 405.5 137.3 L 404.3 137.3 C 404.3 137.3 404.34 127.69 404.3 127.7 C 404.3 127 404.3 126.3 404.3 125.7 C 404.3 125.7 405.5 125.7 405.5 125.7 C 405.5 125.9 405.5 126.5 405.5 127.2 C 406 126.3 407 125.4 408.7 125.4 C 410.9 125.4 412.5 127.2 412.5 129.6 C 412.5 129.6 412.5 129.6 412.5 129.6 C 412.5 132.1 410.7 133.9 408.5 133.9 C 406.7 133.9 406 133.2 405.5 132.4 Z M 411.2 129.6 C 411.2 129.6 411.2 129.6 411.2 129.6 C 411.2 128.1 410.4 126.5 408.4 126.5 C 406.4 126.5 405.5 127.9 405.5 129.7 C 405.5 129.7 405.5 129.7 405.5 129.7 C 405.5 131.5 406.4 132.9 408.4 132.9 C 410.3 132.9 411.2 131.3 411.2 129.6 Z M 415.6 130 C 415.6 130 415.56 129.97 415.6 130 C 415.6 131.7 416.8 132.9 418.5 132.9 C 419.9 132.9 420.7 132.3 421.1 131.5 C 421.13 131.48 421.1 131.5 421.1 131.5 L 422.3 131.5 C 422.3 131.5 422.33 131.48 422.3 131.5 C 421.9 132.6 420.8 133.9 418.4 133.9 C 415.7 133.9 414.3 131.9 414.3 129.7 C 414.3 129.7 414.3 129.7 414.3 129.7 C 414.3 127.2 416 125.4 418.4 125.4 C 421.4 125.4 422.5 127.7 422.5 129.6 C 422.5 129.7 422.5 129.8 422.5 130 C 422.46 129.97 415.6 130 415.6 130 Z M 421.2 129 C 421.2 129 421.18 129.04 421.2 129 C 421.1 128 420.5 126.4 418.4 126.4 C 416.6 126.4 415.7 127.6 415.6 129 C 415.59 129.04 415.6 129 415.6 129 L 421.2 129 Z M 421 121.5 L 418.5 124.1 L 417.3 124.1 L 419.5 121.5 L 421 121.5 Z M 449.1 129.1 L 449.1 130.2 L 440.6 130.2 L 440.6 129.1 L 449.1 129.1 Z " stroke="none" fill="#141414"/>  </g></svg>