<?xml version="1.0" standalone="no"?><!DOCTYPE svg PUBLIC "-//W3C//DTD SVG 1.1//EN" "http://www.w3.org/Graphics/SVG/1.1/DTD/svg11.dtd"><svg xmlns="http://www.w3.org/2000/svg" version="1.1" width="450px" height="286.2px" viewBox="0 -1 450 286.2" style="top:-1px">  <desc>...alors qu’au premier plan, son poisson rouge dans son bocal est le t moin impassible de ce moment absurde.</desc>  <defs/>  <g id="Polygon9415">    <path d="M 1.4 146 L 2.6 146 C 2.6 146 2.56 151.34 2.6 151.3 C 3 150.7 3.9 149.8 5.6 149.8 C 7.9 149.8 9.5 151.5 9.5 153.9 C 9.5 153.9 9.5 153.9 9.5 153.9 C 9.5 156.6 7.9 158.3 5.6 158.3 C 3.8 158.3 3 157.5 2.5 156.7 C 2.5 157.1 2.5 157.7 2.5 158 C 2.5 158 1.3 158 1.3 158 C 1.4 157.1 1.4 156.2 1.4 155.2 C 1.35 155.25 1.4 146 1.4 146 Z M 8.2 153.9 C 8.2 153.9 8.2 153.9 8.2 153.9 C 8.2 152.5 7.4 150.8 5.4 150.8 C 3.5 150.8 2.5 152.2 2.5 154 C 2.5 154 2.5 154 2.5 154 C 2.5 156 3.7 157.2 5.4 157.2 C 7.5 157.2 8.2 155.6 8.2 153.9 Z M 19.7 154 C 19.7 154 19.7 154 19.7 154 C 19.7 156.2 18.4 158.3 15.5 158.3 C 12.9 158.3 11.4 156.3 11.4 154 C 11.4 154 11.4 154 11.4 154 C 11.4 151.7 13 149.8 15.6 149.8 C 18.3 149.8 19.7 151.8 19.7 154 Z M 12.6 154 C 12.6 154 12.6 154 12.6 154 C 12.6 155.6 13.7 157.2 15.6 157.2 C 17.5 157.2 18.5 155.8 18.5 154 C 18.5 154 18.5 154 18.5 154 C 18.5 152.3 17.4 150.8 15.5 150.8 C 13.6 150.8 12.6 152.3 12.6 154 Z M 29.6 155.6 C 29.6 155.6 29.62 155.58 29.6 155.6 C 29.2 157 28 158.3 25.8 158.3 C 23 158.3 21.6 156.3 21.6 154.1 C 21.6 154.1 21.6 154.1 21.6 154.1 C 21.6 151.7 23.2 149.8 25.8 149.8 C 28.4 149.8 29.4 151.4 29.6 152.5 C 29.61 152.51 29.6 152.5 29.6 152.5 L 28.4 152.5 C 28.4 152.5 28.4 152.51 28.4 152.5 C 28.1 151.7 27.4 150.8 25.8 150.8 C 24 150.8 22.8 152.1 22.8 154 C 22.8 154 22.8 154 22.8 154 C 22.8 155.8 23.9 157.2 25.8 157.2 C 27.2 157.2 28 156.6 28.4 155.6 C 28.41 155.58 28.4 155.6 28.4 155.6 L 29.6 155.6 Z M 38.8 156.1 C 38.8 156.8 38.9 157.9 38.9 158 C 38.9 158 37.8 158 37.8 158 C 37.7 157.7 37.7 157.1 37.7 156.8 C 37.2 157.7 36.3 158.3 34.6 158.3 C 32.3 158.3 31.5 156.9 31.5 155.7 C 31.5 155.7 31.5 155.7 31.5 155.7 C 31.5 153.6 33.3 153.1 35.6 153.1 C 36.7 153.1 37.4 153.1 37.6 153.1 C 37.6 153.1 37.6 152.6 37.6 152.6 C 37.6 151.7 37.2 150.7 35.4 150.7 C 33.7 150.7 33.3 151.5 33.1 152.3 C 33.12 152.32 33.1 152.3 33.1 152.3 L 31.9 152.3 C 31.9 152.3 31.91 152.32 31.9 152.3 C 32 151.2 32.7 149.8 35.4 149.8 C 38.1 149.8 38.8 151.1 38.8 152.5 C 38.8 152.5 38.8 156.1 38.8 156.1 Z M 37.6 154 C 37.4 154 36.8 154 35.6 154 C 33.6 154 32.7 154.4 32.7 155.6 C 32.7 155.6 32.7 155.6 32.7 155.6 C 32.7 156.5 33.3 157.3 34.8 157.3 C 37.1 157.3 37.6 155.8 37.6 154.4 C 37.6 154.4 37.6 154 37.6 154 Z M 41.7 158 L 41.7 146 L 42.9 146 L 42.9 158 L 41.7 158 Z M 52.7 154.3 C 52.7 154.3 52.69 154.29 52.7 154.3 C 52.8 156 53.9 157.2 55.7 157.2 C 57 157.2 57.8 156.7 58.3 155.8 C 58.26 155.8 58.3 155.8 58.3 155.8 L 59.5 155.8 C 59.5 155.8 59.47 155.8 59.5 155.8 C 59.1 156.9 57.9 158.3 55.6 158.3 C 52.8 158.3 51.5 156.2 51.5 154 C 51.5 154 51.5 154 51.5 154 C 51.5 151.6 53.1 149.8 55.5 149.8 C 58.6 149.8 59.6 152 59.6 154 C 59.6 154.1 59.6 154.2 59.6 154.3 C 59.59 154.29 52.7 154.3 52.7 154.3 Z M 58.3 153.4 C 58.3 153.4 58.31 153.36 58.3 153.4 C 58.2 152.3 57.7 150.8 55.5 150.8 C 53.8 150.8 52.9 151.9 52.7 153.4 C 52.72 153.36 52.7 153.4 52.7 153.4 L 58.3 153.4 Z M 62.5 155.6 C 62.5 155.6 62.52 155.61 62.5 155.6 C 62.8 156.7 63.7 157.3 65.3 157.3 C 67 157.3 67.6 156.7 67.6 155.9 C 67.6 155.1 67.2 154.6 65 154.4 C 62.2 154 61.7 153.1 61.7 152.1 C 61.7 151.1 62.5 149.8 65 149.8 C 67.8 149.8 68.5 151.2 68.6 152.1 C 68.56 152.14 68.6 152.1 68.6 152.1 L 67.3 152.1 C 67.3 152.1 67.33 152.14 67.3 152.1 C 67.2 151.6 66.9 150.7 64.9 150.7 C 63.3 150.7 62.9 151.5 62.9 152 C 62.9 152.6 63.3 153.1 65.3 153.3 C 68.2 153.7 68.8 154.6 68.8 155.8 C 68.8 157.2 67.7 158.3 65.2 158.3 C 62.8 158.3 61.6 157.3 61.3 155.6 C 61.29 155.61 61.3 155.6 61.3 155.6 L 62.5 155.6 Z M 70.2 150 L 71.8 150 L 71.8 147.3 L 73 147.3 L 73 150 L 75.2 150 L 75.2 151 L 73 151 C 73 151 73.04 155.7 73 155.7 C 73 156.7 73.3 157.1 74.2 157.1 C 74.4 157.1 74.8 157.1 75 157.1 C 75 157.1 75 158 75 158 C 74.7 158.1 74.3 158.1 73.9 158.1 C 72.3 158.1 71.8 157.4 71.8 155.8 C 71.82 155.82 71.8 151 71.8 151 L 70.2 151 L 70.2 150 Z M 83.4 158 L 83.4 146 L 84.6 146 L 84.6 158 L 83.4 158 Z M 88.3 154.3 C 88.3 154.3 88.26 154.29 88.3 154.3 C 88.4 156 89.5 157.2 91.2 157.2 C 92.6 157.2 93.4 156.7 93.8 155.8 C 93.83 155.8 93.8 155.8 93.8 155.8 L 95 155.8 C 95 155.8 95.04 155.8 95 155.8 C 94.6 156.9 93.5 158.3 91.2 158.3 C 88.4 158.3 87 156.2 87 154 C 87 154 87 154 87 154 C 87 151.6 88.7 149.8 91.1 149.8 C 94.1 149.8 95.2 152 95.2 154 C 95.2 154.1 95.2 154.2 95.2 154.3 C 95.16 154.29 88.3 154.3 88.3 154.3 Z M 93.9 153.4 C 93.9 153.4 93.88 153.36 93.9 153.4 C 93.8 152.3 93.2 150.8 91.1 150.8 C 89.4 150.8 88.5 151.9 88.3 153.4 C 88.29 153.36 88.3 153.4 88.3 153.4 L 93.9 153.4 Z M 102.5 150 L 104.2 150 L 104.2 147.3 L 105.4 147.3 L 105.4 150 L 107.6 150 L 107.6 151 L 105.4 151 C 105.4 151 105.39 155.7 105.4 155.7 C 105.4 156.7 105.7 157.1 106.6 157.1 C 106.8 157.1 107.1 157.1 107.4 157.1 C 107.4 157.1 107.4 158 107.4 158 C 107 158.1 106.7 158.1 106.2 158.1 C 104.7 158.1 104.2 157.4 104.2 155.8 C 104.18 155.82 104.2 151 104.2 151 L 102.5 151 L 102.5 150 Z M 110 154.3 C 110 154.3 110.02 154.29 110 154.3 C 110.1 156 111.3 157.2 113 157.2 C 114.4 157.2 115.1 156.7 115.6 155.8 C 115.59 155.8 115.6 155.8 115.6 155.8 L 116.8 155.8 C 116.8 155.8 116.8 155.8 116.8 155.8 C 116.4 156.9 115.3 158.3 112.9 158.3 C 110.1 158.3 108.8 156.2 108.8 154 C 108.8 154 108.8 154 108.8 154 C 108.8 151.6 110.4 149.8 112.9 149.8 C 115.9 149.8 116.9 152 116.9 154 C 116.9 154.1 116.9 154.2 116.9 154.3 C 116.92 154.29 110 154.3 110 154.3 Z M 115.6 153.4 C 115.6 153.4 115.64 153.36 115.6 153.4 C 115.6 152.3 115 150.8 112.9 150.8 C 111.1 150.8 110.2 151.9 110.1 153.4 C 110.05 153.36 110.1 153.4 110.1 153.4 L 115.6 153.4 Z M 115.5 145.8 L 113 148.4 L 111.8 148.4 L 114 145.8 L 115.5 145.8 Z M 119.3 152.1 C 119.3 151.4 119.3 150.7 119.3 150 C 119.3 150 120.4 150 120.4 150 C 120.5 150.3 120.5 150.8 120.5 151.3 C 120.9 150.5 121.7 149.8 123.1 149.8 C 124.4 149.8 125.2 150.4 125.6 151.4 C 126 150.6 126.8 149.8 128.4 149.8 C 129.9 149.8 131.2 150.7 131.2 153 C 131.22 153.03 131.2 158 131.2 158 L 130 158 C 130 158 130.02 153.09 130 153.1 C 130 152.1 129.7 150.8 128.2 150.8 C 126.8 150.8 125.9 151.8 125.9 153.6 C 125.85 153.64 125.9 158 125.9 158 L 124.6 158 C 124.6 158 124.65 153 124.6 153 C 124.6 152 124.3 150.8 122.8 150.8 C 121.1 150.8 120.5 152.1 120.5 153.8 C 120.48 153.78 120.5 158 120.5 158 L 119.3 158 C 119.3 158 119.27 152.07 119.3 152.1 Z M 142 154 C 142 154 142 154 142 154 C 142 156.2 140.6 158.3 137.7 158.3 C 135.1 158.3 133.6 156.3 133.6 154 C 133.6 154 133.6 154 133.6 154 C 133.6 151.7 135.2 149.8 137.8 149.8 C 140.5 149.8 142 151.8 142 154 Z M 134.8 154 C 134.8 154 134.8 154 134.8 154 C 134.8 155.6 135.9 157.2 137.8 157.2 C 139.8 157.2 140.7 155.8 140.7 154 C 140.7 154 140.7 154 140.7 154 C 140.7 152.3 139.6 150.8 137.7 150.8 C 135.8 150.8 134.8 152.3 134.8 154 Z M 144.4 150 L 145.6 150 L 145.6 158 L 144.4 158 L 144.4 150 Z M 144.4 146 L 145.6 146 L 145.6 147.7 L 144.4 147.7 L 144.4 146 Z M 148.5 152 C 148.5 151.3 148.5 150.6 148.4 150 C 148.4 150 149.6 150 149.6 150 C 149.6 150.3 149.7 151 149.7 151.6 C 150 150.8 150.9 149.8 152.7 149.8 C 154.5 149.8 155.8 150.9 155.8 153.2 C 155.75 153.16 155.8 158 155.8 158 L 154.5 158 C 154.5 158 154.54 153.39 154.5 153.4 C 154.5 152 154 150.8 152.4 150.8 C 150.6 150.8 149.7 152.2 149.7 154.2 C 149.67 154.23 149.7 158 149.7 158 L 148.5 158 C 148.5 158 148.46 152.02 148.5 152 Z M 164.9 150 L 166.1 150 L 166.1 158 L 164.9 158 L 164.9 150 Z M 164.9 146 L 166.1 146 L 166.1 147.7 L 164.9 147.7 L 164.9 146 Z M 169 152.1 C 169 151.4 169 150.7 169 150 C 169 150 170.2 150 170.2 150 C 170.2 150.3 170.2 150.8 170.2 151.3 C 170.6 150.5 171.4 149.8 172.9 149.8 C 174.2 149.8 175 150.4 175.3 151.4 C 175.8 150.6 176.5 149.8 178.1 149.8 C 179.7 149.8 181 150.7 181 153 C 180.96 153.03 181 158 181 158 L 179.8 158 C 179.8 158 179.76 153.09 179.8 153.1 C 179.8 152.1 179.4 150.8 177.9 150.8 C 176.5 150.8 175.6 151.8 175.6 153.6 C 175.59 153.64 175.6 158 175.6 158 L 174.4 158 C 174.4 158 174.39 153 174.4 153 C 174.4 152 174 150.8 172.5 150.8 C 170.9 150.8 170.2 152.1 170.2 153.8 C 170.22 153.78 170.2 158 170.2 158 L 169 158 C 169 158 169.01 152.07 169 152.1 Z M 185.1 156.7 C 185.08 156.73 185.1 161.6 185.1 161.6 L 183.9 161.6 C 183.9 161.6 183.87 152.01 183.9 152 C 183.9 151.3 183.9 150.7 183.9 150 C 183.9 150 185 150 185 150 C 185.1 150.2 185.1 150.8 185.1 151.5 C 185.6 150.6 186.5 149.8 188.3 149.8 C 190.5 149.8 192 151.6 192 153.9 C 192 153.9 192 153.9 192 153.9 C 192 156.5 190.2 158.3 188 158.3 C 186.3 158.3 185.5 157.5 185.1 156.7 Z M 190.8 153.9 C 190.8 153.9 190.8 153.9 190.8 153.9 C 190.8 152.4 189.9 150.8 187.9 150.8 C 185.9 150.8 185 152.3 185 154.1 C 185 154.1 185 154.1 185 154.1 C 185 155.8 186 157.2 187.9 157.2 C 189.8 157.2 190.8 155.6 190.8 153.9 Z M 201.2 156.1 C 201.2 156.8 201.2 157.9 201.3 158 C 201.3 158 200.1 158 200.1 158 C 200.1 157.7 200 157.1 200 156.8 C 199.6 157.7 198.7 158.3 196.9 158.3 C 194.6 158.3 193.8 156.9 193.8 155.7 C 193.8 155.7 193.8 155.7 193.8 155.7 C 193.8 153.6 195.7 153.1 198 153.1 C 199 153.1 199.7 153.1 200 153.1 C 200 153.1 200 152.6 200 152.6 C 200 151.7 199.6 150.7 197.7 150.7 C 196.1 150.7 195.7 151.5 195.5 152.3 C 195.49 152.32 195.5 152.3 195.5 152.3 L 194.3 152.3 C 194.3 152.3 194.28 152.32 194.3 152.3 C 194.4 151.2 195.1 149.8 197.7 149.8 C 200.5 149.8 201.2 151.1 201.2 152.5 C 201.2 152.5 201.2 156.1 201.2 156.1 Z M 200 154 C 199.7 154 199.2 154 198 154 C 196 154 195 154.4 195 155.6 C 195 155.6 195 155.6 195 155.6 C 195 156.5 195.7 157.3 197.1 157.3 C 199.5 157.3 200 155.8 200 154.4 C 200 154.4 200 154 200 154 Z M 204.6 155.6 C 204.6 155.6 204.61 155.61 204.6 155.6 C 204.9 156.7 205.8 157.3 207.4 157.3 C 209.1 157.3 209.7 156.7 209.7 155.9 C 209.7 155.1 209.3 154.6 207.1 154.4 C 204.3 154 203.8 153.1 203.8 152.1 C 203.8 151.1 204.6 149.8 207.1 149.8 C 209.9 149.8 210.6 151.2 210.7 152.1 C 210.65 152.14 210.7 152.1 210.7 152.1 L 209.4 152.1 C 209.4 152.1 209.42 152.14 209.4 152.1 C 209.3 151.6 209 150.7 207 150.7 C 205.4 150.7 205 151.5 205 152 C 205 152.6 205.4 153.1 207.4 153.3 C 210.3 153.7 210.9 154.6 210.9 155.8 C 210.9 157.2 209.8 158.3 207.3 158.3 C 204.9 158.3 203.7 157.3 203.4 155.6 C 203.38 155.61 203.4 155.6 203.4 155.6 L 204.6 155.6 Z M 213.9 155.6 C 213.9 155.6 213.94 155.61 213.9 155.6 C 214.2 156.7 215.1 157.3 216.7 157.3 C 218.4 157.3 219 156.7 219 155.9 C 219 155.1 218.6 154.6 216.4 154.4 C 213.7 154 213.1 153.1 213.1 152.1 C 213.1 151.1 213.9 149.8 216.4 149.8 C 219.2 149.8 219.9 151.2 220 152.1 C 219.98 152.14 220 152.1 220 152.1 L 218.7 152.1 C 218.7 152.1 218.75 152.14 218.7 152.1 C 218.6 151.6 218.3 150.7 216.3 150.7 C 214.7 150.7 214.3 151.5 214.3 152 C 214.3 152.6 214.7 153.1 216.7 153.3 C 219.6 153.7 220.2 154.6 220.2 155.8 C 220.2 157.2 219.1 158.3 216.6 158.3 C 214.3 158.3 213 157.3 212.7 155.6 C 212.71 155.61 212.7 155.6 212.7 155.6 L 213.9 155.6 Z M 222.6 150 L 223.8 150 L 223.8 158 L 222.6 158 L 222.6 150 Z M 222.6 146 L 223.8 146 L 223.8 147.7 L 222.6 147.7 L 222.6 146 Z M 226.7 146 L 227.9 146 C 227.9 146 227.95 151.34 227.9 151.3 C 228.4 150.7 229.2 149.8 231 149.8 C 233.3 149.8 234.9 151.5 234.9 153.9 C 234.9 153.9 234.9 153.9 234.9 153.9 C 234.9 156.6 233.2 158.3 231 158.3 C 229.2 158.3 228.4 157.5 227.9 156.7 C 227.9 157.1 227.9 157.7 227.9 158 C 227.9 158 226.7 158 226.7 158 C 226.7 157.1 226.7 156.2 226.7 155.2 C 226.74 155.25 226.7 146 226.7 146 Z M 233.6 153.9 C 233.6 153.9 233.6 153.9 233.6 153.9 C 233.6 152.5 232.8 150.8 230.8 150.8 C 228.8 150.8 227.9 152.2 227.9 154 C 227.9 154 227.9 154 227.9 154 C 227.9 156 229 157.2 230.8 157.2 C 232.8 157.2 233.6 155.6 233.6 153.9 Z M 237.3 158 L 237.3 146 L 238.5 146 L 238.5 158 L 237.3 158 Z M 242.1 154.3 C 242.1 154.3 242.11 154.29 242.1 154.3 C 242.2 156 243.3 157.2 245.1 157.2 C 246.4 157.2 247.2 156.7 247.7 155.8 C 247.68 155.8 247.7 155.8 247.7 155.8 L 248.9 155.8 C 248.9 155.8 248.89 155.8 248.9 155.8 C 248.5 156.9 247.4 158.3 245 158.3 C 242.2 158.3 240.9 156.2 240.9 154 C 240.9 154 240.9 154 240.9 154 C 240.9 151.6 242.5 149.8 245 149.8 C 248 149.8 249 152 249 154 C 249 154.1 249 154.2 249 154.3 C 249.01 154.29 242.1 154.3 242.1 154.3 Z M 247.7 153.4 C 247.7 153.4 247.73 153.36 247.7 153.4 C 247.7 152.3 247.1 150.8 244.9 150.8 C 243.2 150.8 242.3 151.9 242.1 153.4 C 242.14 153.36 242.1 153.4 242.1 153.4 L 247.7 153.4 Z M 265 146 C 265 146 265 155.68 265 155.7 C 265 156.5 265 157.3 265 158 C 265 158 263.8 158 263.8 158 C 263.8 157.7 263.8 157.2 263.8 156.7 C 263.4 157.4 262.7 158.3 260.7 158.3 C 258.4 158.3 256.8 156.5 256.8 154.1 C 256.8 154.1 256.8 154.1 256.8 154.1 C 256.8 151.5 258.8 149.8 260.9 149.8 C 262.9 149.8 263.6 150.7 263.8 151.1 C 263.79 151.13 263.8 146 263.8 146 L 265 146 Z M 258.1 154.1 C 258.1 154.1 258.1 154.1 258.1 154.1 C 258.1 155.6 259 157.2 260.9 157.2 C 263 157.2 263.8 155.9 263.8 154 C 263.8 154 263.8 154 263.8 154 C 263.8 152.1 263.2 150.8 261 150.8 C 259 150.8 258.1 152.4 258.1 154.1 Z M 268.6 154.3 C 268.6 154.3 268.59 154.29 268.6 154.3 C 268.7 156 269.8 157.2 271.6 157.2 C 272.9 157.2 273.7 156.7 274.2 155.8 C 274.16 155.8 274.2 155.8 274.2 155.8 L 275.4 155.8 C 275.4 155.8 275.37 155.8 275.4 155.8 C 275 156.9 273.8 158.3 271.5 158.3 C 268.7 158.3 267.4 156.2 267.4 154 C 267.4 154 267.4 154 267.4 154 C 267.4 151.6 269 149.8 271.4 149.8 C 274.5 149.8 275.5 152 275.5 154 C 275.5 154.1 275.5 154.2 275.5 154.3 C 275.49 154.29 268.6 154.3 268.6 154.3 Z M 274.2 153.4 C 274.2 153.4 274.21 153.36 274.2 153.4 C 274.1 152.3 273.6 150.8 271.4 150.8 C 269.7 150.8 268.8 151.9 268.6 153.4 C 268.62 153.36 268.6 153.4 268.6 153.4 L 274.2 153.4 Z M 291.3 155.6 C 291.3 155.6 291.35 155.58 291.3 155.6 C 290.9 157 289.7 158.3 287.5 158.3 C 284.7 158.3 283.3 156.3 283.3 154.1 C 283.3 154.1 283.3 154.1 283.3 154.1 C 283.3 151.7 284.9 149.8 287.5 149.8 C 290.1 149.8 291.1 151.4 291.3 152.5 C 291.34 152.51 291.3 152.5 291.3 152.5 L 290.1 152.5 C 290.1 152.5 290.13 152.51 290.1 152.5 C 289.8 151.7 289.1 150.8 287.5 150.8 C 285.7 150.8 284.6 152.1 284.6 154 C 284.6 154 284.6 154 284.6 154 C 284.6 155.8 285.6 157.2 287.5 157.2 C 288.9 157.2 289.7 156.6 290.1 155.6 C 290.14 155.58 290.1 155.6 290.1 155.6 L 291.3 155.6 Z M 294.3 154.3 C 294.3 154.3 294.31 154.29 294.3 154.3 C 294.4 156 295.5 157.2 297.3 157.2 C 298.6 157.2 299.4 156.7 299.9 155.8 C 299.88 155.8 299.9 155.8 299.9 155.8 L 301.1 155.8 C 301.1 155.8 301.09 155.8 301.1 155.8 C 300.7 156.9 299.6 158.3 297.2 158.3 C 294.4 158.3 293.1 156.2 293.1 154 C 293.1 154 293.1 154 293.1 154 C 293.1 151.6 294.7 149.8 297.2 149.8 C 300.2 149.8 301.2 152 301.2 154 C 301.2 154.1 301.2 154.2 301.2 154.3 C 301.21 154.29 294.3 154.3 294.3 154.3 Z M 299.9 153.4 C 299.9 153.4 299.93 153.36 299.9 153.4 C 299.9 152.3 299.3 150.8 297.1 150.8 C 295.4 150.8 294.5 151.9 294.3 153.4 C 294.34 153.36 294.3 153.4 294.3 153.4 L 299.9 153.4 Z M 309.7 152.1 C 309.7 151.4 309.7 150.7 309.7 150 C 309.7 150 310.8 150 310.8 150 C 310.9 150.3 310.9 150.8 310.9 151.3 C 311.3 150.5 312.1 149.8 313.5 149.8 C 314.8 149.8 315.6 150.4 316 151.4 C 316.4 150.6 317.2 149.8 318.8 149.8 C 320.4 149.8 321.6 150.7 321.6 153 C 321.63 153.03 321.6 158 321.6 158 L 320.4 158 C 320.4 158 320.43 153.09 320.4 153.1 C 320.4 152.1 320.1 150.8 318.6 150.8 C 317.2 150.8 316.3 151.8 316.3 153.6 C 316.26 153.64 316.3 158 316.3 158 L 315.1 158 C 315.1 158 315.06 153 315.1 153 C 315.1 152 314.7 150.8 313.2 150.8 C 311.5 150.8 310.9 152.1 310.9 153.8 C 310.89 153.78 310.9 158 310.9 158 L 309.7 158 C 309.7 158 309.68 152.07 309.7 152.1 Z M 332.4 154 C 332.4 154 332.4 154 332.4 154 C 332.4 156.2 331 158.3 328.1 158.3 C 325.5 158.3 324 156.3 324 154 C 324 154 324 154 324 154 C 324 151.7 325.6 149.8 328.2 149.8 C 330.9 149.8 332.4 151.8 332.4 154 Z M 325.2 154 C 325.2 154 325.2 154 325.2 154 C 325.2 155.6 326.3 157.2 328.2 157.2 C 330.2 157.2 331.1 155.8 331.1 154 C 331.1 154 331.1 154 331.1 154 C 331.1 152.3 330 150.8 328.1 150.8 C 326.2 150.8 325.2 152.3 325.2 154 Z M 334.8 152.1 C 334.8 151.4 334.8 150.7 334.7 150 C 334.7 150 335.9 150 335.9 150 C 335.9 150.3 336 150.8 335.9 151.3 C 336.4 150.5 337.1 149.8 338.6 149.8 C 339.9 149.8 340.7 150.4 341.1 151.4 C 341.5 150.6 342.3 149.8 343.9 149.8 C 345.4 149.8 346.7 150.7 346.7 153 C 346.7 153.03 346.7 158 346.7 158 L 345.5 158 C 345.5 158 345.5 153.09 345.5 153.1 C 345.5 152.1 345.2 150.8 343.6 150.8 C 342.2 150.8 341.3 151.8 341.3 153.6 C 341.33 153.64 341.3 158 341.3 158 L 340.1 158 C 340.1 158 340.13 153 340.1 153 C 340.1 152 339.8 150.8 338.2 150.8 C 336.6 150.8 336 152.1 336 153.8 C 335.95 153.78 336 158 336 158 L 334.8 158 C 334.8 158 334.75 152.07 334.8 152.1 Z M 350.3 154.3 C 350.3 154.3 350.31 154.29 350.3 154.3 C 350.4 156 351.5 157.2 353.3 157.2 C 354.6 157.2 355.4 156.7 355.9 155.8 C 355.88 155.8 355.9 155.8 355.9 155.8 L 357.1 155.8 C 357.1 155.8 357.09 155.8 357.1 155.8 C 356.7 156.9 355.6 158.3 353.2 158.3 C 350.4 158.3 349.1 156.2 349.1 154 C 349.1 154 349.1 154 349.1 154 C 349.1 151.6 350.7 149.8 353.2 149.8 C 356.2 149.8 357.2 152 357.2 154 C 357.2 154.1 357.2 154.2 357.2 154.3 C 357.21 154.29 350.3 154.3 350.3 154.3 Z M 355.9 153.4 C 355.9 153.4 355.93 153.36 355.9 153.4 C 355.9 152.3 355.3 150.8 353.1 150.8 C 351.4 150.8 350.5 151.9 350.3 153.4 C 350.34 153.36 350.3 153.4 350.3 153.4 L 355.9 153.4 Z M 359.6 152 C 359.6 151.3 359.6 150.6 359.5 150 C 359.5 150 360.7 150 360.7 150 C 360.7 150.3 360.8 151 360.8 151.6 C 361.1 150.8 362 149.8 363.8 149.8 C 365.6 149.8 366.9 150.9 366.9 153.2 C 366.86 153.16 366.9 158 366.9 158 L 365.6 158 C 365.6 158 365.64 153.39 365.6 153.4 C 365.6 152 365.1 150.8 363.5 150.8 C 361.7 150.8 360.8 152.2 360.8 154.2 C 360.77 154.23 360.8 158 360.8 158 L 359.6 158 C 359.6 158 359.56 152.02 359.6 152 Z M 368.6 150 L 370.2 150 L 370.2 147.3 L 371.4 147.3 L 371.4 150 L 373.6 150 L 373.6 151 L 371.4 151 C 371.4 151 371.44 155.7 371.4 155.7 C 371.4 156.7 371.7 157.1 372.6 157.1 C 372.8 157.1 373.2 157.1 373.4 157.1 C 373.4 157.1 373.4 158 373.4 158 C 373.1 158.1 372.7 158.1 372.3 158.1 C 370.7 158.1 370.2 157.4 370.2 155.8 C 370.23 155.82 370.2 151 370.2 151 L 368.6 151 L 368.6 150 Z M 388.6 156.1 C 388.6 156.8 388.7 157.9 388.7 158 C 388.7 158 387.5 158 387.5 158 C 387.5 157.7 387.5 157.1 387.4 156.8 C 387 157.7 386.1 158.3 384.4 158.3 C 382.1 158.3 381.2 156.9 381.2 155.7 C 381.2 155.7 381.2 155.7 381.2 155.7 C 381.2 153.6 383.1 153.1 385.4 153.1 C 386.5 153.1 387.2 153.1 387.4 153.1 C 387.4 153.1 387.4 152.6 387.4 152.6 C 387.4 151.7 387 150.7 385.2 150.7 C 383.5 150.7 383.1 151.5 382.9 152.3 C 382.91 152.32 382.9 152.3 382.9 152.3 L 381.7 152.3 C 381.7 152.3 381.71 152.32 381.7 152.3 C 381.8 151.2 382.5 149.8 385.2 149.8 C 387.9 149.8 388.6 151.1 388.6 152.5 C 388.6 152.5 388.6 156.1 388.6 156.1 Z M 387.4 154 C 387.2 154 386.6 154 385.4 154 C 383.4 154 382.4 154.4 382.4 155.6 C 382.4 155.6 382.4 155.6 382.4 155.6 C 382.4 156.5 383.1 157.3 384.5 157.3 C 386.9 157.3 387.4 155.8 387.4 154.4 C 387.4 154.4 387.4 154 387.4 154 Z M 391.5 146 L 392.7 146 C 392.7 146 392.74 151.34 392.7 151.3 C 393.1 150.7 394 149.8 395.8 149.8 C 398.1 149.8 399.7 151.5 399.7 153.9 C 399.7 153.9 399.7 153.9 399.7 153.9 C 399.7 156.6 398 158.3 395.7 158.3 C 394 158.3 393.1 157.5 392.7 156.7 C 392.7 157.1 392.7 157.7 392.7 158 C 392.7 158 391.5 158 391.5 158 C 391.5 157.1 391.5 156.2 391.5 155.2 C 391.53 155.25 391.5 146 391.5 146 Z M 398.4 153.9 C 398.4 153.9 398.4 153.9 398.4 153.9 C 398.4 152.5 397.6 150.8 395.6 150.8 C 393.6 150.8 392.7 152.2 392.7 154 C 392.7 154 392.7 154 392.7 154 C 392.7 156 393.8 157.2 395.6 157.2 C 397.6 157.2 398.4 155.6 398.4 153.9 Z M 402.6 155.6 C 402.6 155.6 402.59 155.61 402.6 155.6 C 402.9 156.7 403.8 157.3 405.4 157.3 C 407.1 157.3 407.7 156.7 407.7 155.9 C 407.7 155.1 407.2 154.6 405.1 154.4 C 402.3 154 401.8 153.1 401.8 152.1 C 401.8 151.1 402.6 149.8 405.1 149.8 C 407.8 149.8 408.6 151.2 408.6 152.1 C 408.63 152.14 408.6 152.1 408.6 152.1 L 407.4 152.1 C 407.4 152.1 407.41 152.14 407.4 152.1 C 407.3 151.6 406.9 150.7 405 150.7 C 403.3 150.7 403 151.5 403 152 C 403 152.6 403.4 153.1 405.3 153.3 C 408.3 153.7 408.9 154.6 408.9 155.8 C 408.9 157.2 407.8 158.3 405.3 158.3 C 402.9 158.3 401.6 157.3 401.4 155.6 C 401.36 155.61 401.4 155.6 401.4 155.6 L 402.6 155.6 Z M 418.4 155.7 C 418.4 156.5 418.4 157.3 418.4 158 C 418.4 158 417.3 158 417.3 158 C 417.2 157.8 417.2 157.2 417.2 156.6 C 416.8 157.6 416 158.3 414.3 158.3 C 412.5 158.3 411.2 157.3 411.2 155 C 411.22 155.01 411.2 150 411.2 150 L 412.4 150 C 412.4 150 412.43 154.77 412.4 154.8 C 412.4 156 412.9 157.2 414.5 157.2 C 416.4 157.2 417.2 156.1 417.2 153.6 C 417.19 153.61 417.2 150 417.2 150 L 418.4 150 C 418.4 150 418.4 155.69 418.4 155.7 Z M 421.3 152.2 C 421.3 151.5 421.3 150.7 421.3 150 C 421.3 150 422.5 150 422.5 150 C 422.5 150.2 422.5 151 422.5 151.9 C 423.1 150.6 424.3 149.8 425.8 149.8 C 425.8 149.8 425.8 151 425.8 151 C 424 150.9 422.5 152.2 422.5 154.6 C 422.53 154.56 422.5 158 422.5 158 L 421.3 158 C 421.3 158 421.32 152.18 421.3 152.2 Z M 435.1 146 C 435.1 146 435.11 155.68 435.1 155.7 C 435.1 156.5 435.1 157.3 435.1 158 C 435.1 158 434 158 434 158 C 433.9 157.7 433.9 157.2 433.9 156.7 C 433.5 157.4 432.8 158.3 430.9 158.3 C 428.5 158.3 427 156.5 427 154.1 C 427 154.1 427 154.1 427 154.1 C 427 151.5 428.9 149.8 431 149.8 C 433 149.8 433.7 150.7 433.9 151.1 C 433.9 151.13 433.9 146 433.9 146 L 435.1 146 Z M 428.2 154.1 C 428.2 154.1 428.2 154.1 428.2 154.1 C 428.2 155.6 429.2 157.2 431.1 157.2 C 433.1 157.2 434 155.9 434 154 C 434 154 434 154 434 154 C 434 152.1 433.3 150.8 431.1 150.8 C 429.2 150.8 428.2 152.4 428.2 154.1 Z M 438.7 154.3 C 438.7 154.3 438.7 154.29 438.7 154.3 C 438.8 156 439.9 157.2 441.7 157.2 C 443 157.2 443.8 156.7 444.3 155.8 C 444.27 155.8 444.3 155.8 444.3 155.8 L 445.5 155.8 C 445.5 155.8 445.48 155.8 445.5 155.8 C 445.1 156.9 443.9 158.3 441.6 158.3 C 438.8 158.3 437.5 156.2 437.5 154 C 437.5 154 437.5 154 437.5 154 C 437.5 151.6 439.1 149.8 441.6 149.8 C 444.6 149.8 445.6 152 445.6 154 C 445.6 154.1 445.6 154.2 445.6 154.3 C 445.6 154.29 438.7 154.3 438.7 154.3 Z M 444.3 153.4 C 444.3 153.4 444.33 153.36 444.3 153.4 C 444.3 152.3 443.7 150.8 441.5 150.8 C 439.8 150.8 438.9 151.9 438.7 153.4 C 438.74 153.36 438.7 153.4 438.7 153.4 L 444.3 153.4 Z M 447.7 158 L 447.7 155.6 L 449.1 155.6 L 449.1 158 L 447.7 158 Z " stroke="none" fill="#141414"/>  </g>  <g id="Polygon9414">    <path d="M 0.9 133.7 L 0.9 131.3 L 2.3 131.3 L 2.3 133.7 L 0.9 133.7 Z M 4.9 133.7 L 4.9 131.3 L 6.2 131.3 L 6.2 133.7 L 4.9 133.7 Z M 8.9 133.7 L 8.9 131.3 L 10.2 131.3 L 10.2 133.7 L 8.9 133.7 Z M 19.9 131.8 C 19.9 132.5 20 133.5 20 133.7 C 20 133.7 18.9 133.7 18.9 133.7 C 18.8 133.4 18.8 132.7 18.8 132.5 C 18.3 133.3 17.4 133.9 15.7 133.9 C 13.4 133.9 12.6 132.6 12.6 131.4 C 12.6 131.4 12.6 131.4 12.6 131.4 C 12.6 129.3 14.4 128.8 16.7 128.8 C 17.8 128.8 18.5 128.8 18.7 128.8 C 18.7 128.8 18.7 128.3 18.7 128.3 C 18.7 127.3 18.3 126.4 16.5 126.4 C 14.8 126.4 14.4 127.2 14.2 128 C 14.23 128 14.2 128 14.2 128 L 13 128 C 13 128 13.02 128 13 128 C 13.1 126.9 13.8 125.4 16.5 125.4 C 19.2 125.4 19.9 126.8 19.9 128.1 C 19.9 128.1 19.9 131.8 19.9 131.8 Z M 18.7 129.7 C 18.5 129.7 17.9 129.7 16.7 129.7 C 14.7 129.7 13.8 130.1 13.8 131.3 C 13.8 131.3 13.8 131.3 13.8 131.3 C 13.8 132.2 14.4 132.9 15.9 132.9 C 18.2 132.9 18.7 131.5 18.7 130.1 C 18.7 130.1 18.7 129.7 18.7 129.7 Z M 22.8 133.7 L 22.8 121.7 L 24 121.7 L 24 133.7 L 22.8 133.7 Z M 34.8 129.7 C 34.8 129.7 34.8 129.7 34.8 129.7 C 34.8 131.9 33.4 133.9 30.6 133.9 C 27.9 133.9 26.4 131.9 26.4 129.7 C 26.4 129.7 26.4 129.7 26.4 129.7 C 26.4 127.4 28 125.4 30.6 125.4 C 33.3 125.4 34.8 127.5 34.8 129.7 Z M 27.7 129.7 C 27.7 129.7 27.7 129.7 27.7 129.7 C 27.7 131.3 28.7 132.9 30.6 132.9 C 32.6 132.9 33.6 131.4 33.6 129.7 C 33.6 129.7 33.6 129.7 33.6 129.7 C 33.6 128 32.5 126.5 30.6 126.5 C 28.6 126.5 27.7 128 27.7 129.7 Z M 37.2 127.9 C 37.2 127.1 37.2 126.4 37.2 125.7 C 37.2 125.7 38.3 125.7 38.3 125.7 C 38.4 125.9 38.4 126.7 38.4 127.5 C 38.9 126.3 40.1 125.4 41.7 125.4 C 41.7 125.4 41.7 126.6 41.7 126.6 C 39.8 126.6 38.4 127.8 38.4 130.2 C 38.38 130.24 38.4 133.7 38.4 133.7 L 37.2 133.7 C 37.2 133.7 37.18 127.86 37.2 127.9 Z M 44.2 131.3 C 44.2 131.3 44.18 131.29 44.2 131.3 C 44.5 132.4 45.4 133 47 133 C 48.6 133 49.3 132.4 49.3 131.5 C 49.3 130.8 48.8 130.3 46.7 130 C 43.9 129.7 43.3 128.8 43.3 127.8 C 43.3 126.8 44.1 125.4 46.7 125.4 C 49.4 125.4 50.1 126.9 50.2 127.8 C 50.22 127.82 50.2 127.8 50.2 127.8 L 49 127.8 C 49 127.8 48.99 127.82 49 127.8 C 48.9 127.3 48.5 126.4 46.6 126.4 C 44.9 126.4 44.6 127.1 44.6 127.7 C 44.6 128.3 45 128.7 46.9 129 C 49.9 129.4 50.5 130.2 50.5 131.5 C 50.5 132.9 49.4 133.9 46.9 133.9 C 44.5 133.9 43.2 132.9 42.9 131.3 C 42.94 131.29 42.9 131.3 42.9 131.3 L 44.2 131.3 Z M 64.8 132.4 C 64.3 133.2 63.5 133.9 61.7 133.9 C 59.5 133.9 57.8 132.2 57.8 129.8 C 57.8 129.8 57.8 129.8 57.8 129.8 C 57.8 127.1 59.8 125.4 61.8 125.4 C 63.8 125.4 64.6 126.5 64.8 126.9 C 64.8 126.3 64.8 125.9 64.8 125.7 C 64.8 125.7 66 125.7 66 125.7 C 66 126.3 66 127.2 66 127.9 C 65.98 127.95 66 137.3 66 137.3 L 64.8 137.3 C 64.8 137.3 64.77 132.37 64.8 132.4 Z M 59.1 129.7 C 59.1 129.7 59.1 129.7 59.1 129.7 C 59.1 131.5 60.1 132.9 61.8 132.9 C 63.7 132.9 64.8 131.8 64.8 129.7 C 64.8 129.7 64.8 129.7 64.8 129.7 C 64.8 127.8 63.9 126.5 62 126.5 C 60.1 126.5 59.1 128 59.1 129.7 Z M 76 131.4 C 76 132.2 76 132.9 76.1 133.7 C 76.1 133.7 74.9 133.7 74.9 133.7 C 74.9 133.5 74.8 132.9 74.8 132.2 C 74.4 133.2 73.7 133.9 71.9 133.9 C 70.2 133.9 68.9 133 68.9 130.7 C 68.86 130.69 68.9 125.7 68.9 125.7 L 70.1 125.7 C 70.1 125.7 70.07 130.45 70.1 130.5 C 70.1 131.7 70.6 132.9 72.1 132.9 C 74 132.9 74.8 131.8 74.8 129.3 C 74.84 129.29 74.8 125.7 74.8 125.7 L 76 125.7 C 76 125.7 76.04 131.37 76 131.4 Z M 78.5 126.2 C 78.9 124.9 79.3 123.1 79.4 121.7 C 79.4 121.7 80.6 121.7 80.6 121.7 C 80.5 122.9 80 125.1 79.5 126.2 C 79.5 126.2 78.5 126.2 78.5 126.2 Z M 89.2 131.8 C 89.2 132.5 89.2 133.5 89.3 133.7 C 89.3 133.7 88.1 133.7 88.1 133.7 C 88 133.4 88 132.7 88 132.5 C 87.6 133.3 86.7 133.9 84.9 133.9 C 82.6 133.9 81.8 132.6 81.8 131.4 C 81.8 131.4 81.8 131.4 81.8 131.4 C 81.8 129.3 83.7 128.8 86 128.8 C 87 128.8 87.7 128.8 88 128.8 C 88 128.8 88 128.3 88 128.3 C 88 127.3 87.6 126.4 85.7 126.4 C 84.1 126.4 83.7 127.2 83.5 128 C 83.48 128 83.5 128 83.5 128 L 82.3 128 C 82.3 128 82.27 128 82.3 128 C 82.4 126.9 83.1 125.4 85.7 125.4 C 88.5 125.4 89.2 126.8 89.2 128.1 C 89.2 128.1 89.2 131.8 89.2 131.8 Z M 88 129.7 C 87.7 129.7 87.2 129.7 86 129.7 C 84 129.7 83 130.1 83 131.3 C 83 131.3 83 131.3 83 131.3 C 83 132.2 83.7 132.9 85.1 132.9 C 87.5 132.9 88 131.5 88 130.1 C 88 130.1 88 129.7 88 129.7 Z M 99.2 131.4 C 99.2 132.2 99.2 132.9 99.2 133.7 C 99.2 133.7 98.1 133.7 98.1 133.7 C 98 133.5 98 132.9 98 132.2 C 97.6 133.2 96.8 133.9 95 133.9 C 93.3 133.9 92 133 92 130.7 C 92.02 130.69 92 125.7 92 125.7 L 93.2 125.7 C 93.2 125.7 93.22 130.45 93.2 130.5 C 93.2 131.7 93.7 132.9 95.3 132.9 C 97.2 132.9 98 131.8 98 129.3 C 97.99 129.29 98 125.7 98 125.7 L 99.2 125.7 C 99.2 125.7 99.2 131.37 99.2 131.4 Z M 109 132.4 C 108.99 132.41 109 137.3 109 137.3 L 107.8 137.3 C 107.8 137.3 107.78 127.69 107.8 127.7 C 107.8 127 107.8 126.3 107.8 125.7 C 107.8 125.7 108.9 125.7 108.9 125.7 C 109 125.9 109 126.5 109 127.2 C 109.5 126.3 110.4 125.4 112.2 125.4 C 114.4 125.4 115.9 127.2 115.9 129.6 C 115.9 129.6 115.9 129.6 115.9 129.6 C 115.9 132.1 114.1 133.9 111.9 133.9 C 110.2 133.9 109.4 133.2 109 132.4 Z M 114.7 129.6 C 114.7 129.6 114.7 129.6 114.7 129.6 C 114.7 128.1 113.8 126.5 111.8 126.5 C 109.8 126.5 108.9 127.9 108.9 129.7 C 108.9 129.7 108.9 129.7 108.9 129.7 C 108.9 131.5 109.9 132.9 111.8 132.9 C 113.7 132.9 114.7 131.3 114.7 129.6 Z M 118.3 127.9 C 118.3 127.1 118.3 126.4 118.3 125.7 C 118.3 125.7 119.4 125.7 119.4 125.7 C 119.5 125.9 119.5 126.7 119.5 127.5 C 120 126.3 121.3 125.4 122.8 125.4 C 122.8 125.4 122.8 126.6 122.8 126.6 C 120.9 126.6 119.5 127.8 119.5 130.2 C 119.5 130.24 119.5 133.7 119.5 133.7 L 118.3 133.7 C 118.3 133.7 118.29 127.86 118.3 127.9 Z M 125.2 130 C 125.2 130 125.19 129.97 125.2 130 C 125.3 131.7 126.4 132.9 128.2 132.9 C 129.5 132.9 130.3 132.3 130.8 131.5 C 130.76 131.48 130.8 131.5 130.8 131.5 L 132 131.5 C 132 131.5 131.97 131.48 132 131.5 C 131.5 132.6 130.4 133.9 128.1 133.9 C 125.3 133.9 124 131.9 124 129.7 C 124 129.7 124 129.7 124 129.7 C 124 127.2 125.6 125.4 128 125.4 C 131.1 125.4 132.1 127.7 132.1 129.6 C 132.1 129.7 132.1 129.8 132.1 130 C 132.09 129.97 125.2 130 125.2 130 Z M 130.8 129 C 130.8 129 130.81 129.04 130.8 129 C 130.7 128 130.2 126.4 128 126.4 C 126.3 126.4 125.4 127.6 125.2 129 C 125.22 129.04 125.2 129 125.2 129 L 130.8 129 Z M 134.4 127.7 C 134.4 127.1 134.4 126.4 134.4 125.7 C 134.4 125.7 135.6 125.7 135.6 125.7 C 135.6 126 135.7 126.5 135.6 126.9 C 136 126.2 136.8 125.4 138.3 125.4 C 139.6 125.4 140.4 126.1 140.8 127.1 C 141.2 126.3 142 125.4 143.6 125.4 C 145.1 125.4 146.4 126.3 146.4 128.7 C 146.39 128.71 146.4 133.7 146.4 133.7 L 145.2 133.7 C 145.2 133.7 145.19 128.77 145.2 128.8 C 145.2 127.8 144.9 126.5 143.3 126.5 C 141.9 126.5 141 127.5 141 129.3 C 141.02 129.32 141 133.7 141 133.7 L 139.8 133.7 C 139.8 133.7 139.82 128.68 139.8 128.7 C 139.8 127.7 139.5 126.5 137.9 126.5 C 136.3 126.5 135.6 127.8 135.6 129.5 C 135.65 129.46 135.6 133.7 135.6 133.7 L 134.4 133.7 C 134.4 133.7 134.44 127.75 134.4 127.7 Z M 149.3 125.7 L 150.5 125.7 L 150.5 133.7 L 149.3 133.7 L 149.3 125.7 Z M 149.3 121.7 L 150.5 121.7 L 150.5 123.4 L 149.3 123.4 L 149.3 121.7 Z M 154.1 130 C 154.1 130 154.13 129.97 154.1 130 C 154.2 131.7 155.4 132.9 157.1 132.9 C 158.5 132.9 159.2 132.3 159.7 131.5 C 159.71 131.48 159.7 131.5 159.7 131.5 L 160.9 131.5 C 160.9 131.5 160.91 131.48 160.9 131.5 C 160.5 132.6 159.4 133.9 157 133.9 C 154.3 133.9 152.9 131.9 152.9 129.7 C 152.9 129.7 152.9 129.7 152.9 129.7 C 152.9 127.2 154.6 125.4 157 125.4 C 160 125.4 161 127.7 161 129.6 C 161 129.7 161 129.8 161 130 C 161.03 129.97 154.1 130 154.1 130 Z M 159.8 129 C 159.8 129 159.76 129.04 159.8 129 C 159.7 128 159.1 126.4 157 126.4 C 155.2 126.4 154.3 127.6 154.2 129 C 154.17 129.04 154.2 129 154.2 129 L 159.8 129 Z M 163.4 127.9 C 163.4 127.1 163.4 126.4 163.4 125.7 C 163.4 125.7 164.5 125.7 164.5 125.7 C 164.6 125.9 164.6 126.7 164.6 127.5 C 165.1 126.3 166.4 125.4 167.9 125.4 C 167.9 125.4 167.9 126.6 167.9 126.6 C 166 126.6 164.6 127.8 164.6 130.2 C 164.6 130.24 164.6 133.7 164.6 133.7 L 163.4 133.7 C 163.4 133.7 163.39 127.86 163.4 127.9 Z M 176.6 132.4 C 176.61 132.41 176.6 137.3 176.6 137.3 L 175.4 137.3 C 175.4 137.3 175.4 127.69 175.4 127.7 C 175.4 127 175.4 126.3 175.4 125.7 C 175.4 125.7 176.6 125.7 176.6 125.7 C 176.6 125.9 176.6 126.5 176.6 127.2 C 177.1 126.3 178.1 125.4 179.8 125.4 C 182 125.4 183.5 127.2 183.5 129.6 C 183.5 129.6 183.5 129.6 183.5 129.6 C 183.5 132.1 181.8 133.9 179.6 133.9 C 177.8 133.9 177.1 133.2 176.6 132.4 Z M 182.3 129.6 C 182.3 129.6 182.3 129.6 182.3 129.6 C 182.3 128.1 181.4 126.5 179.5 126.5 C 177.5 126.5 176.6 127.9 176.6 129.7 C 176.6 129.7 176.6 129.7 176.6 129.7 C 176.6 131.5 177.5 132.9 179.4 132.9 C 181.3 132.9 182.3 131.3 182.3 129.6 Z M 185.9 133.7 L 185.9 121.7 L 187.1 121.7 L 187.1 133.7 L 185.9 133.7 Z M 196.9 131.8 C 196.9 132.5 196.9 133.5 197 133.7 C 197 133.7 195.8 133.7 195.8 133.7 C 195.8 133.4 195.7 132.7 195.7 132.5 C 195.3 133.3 194.4 133.9 192.6 133.9 C 190.3 133.9 189.5 132.6 189.5 131.4 C 189.5 131.4 189.5 131.4 189.5 131.4 C 189.5 129.3 191.4 128.8 193.7 128.8 C 194.7 128.8 195.4 128.8 195.7 128.8 C 195.7 128.8 195.7 128.3 195.7 128.3 C 195.7 127.3 195.3 126.4 193.4 126.4 C 191.8 126.4 191.4 127.2 191.2 128 C 191.19 128 191.2 128 191.2 128 L 190 128 C 190 128 189.98 128 190 128 C 190.1 126.9 190.8 125.4 193.4 125.4 C 196.2 125.4 196.9 126.8 196.9 128.1 C 196.9 128.1 196.9 131.8 196.9 131.8 Z M 195.7 129.7 C 195.4 129.7 194.9 129.7 193.7 129.7 C 191.7 129.7 190.7 130.1 190.7 131.3 C 190.7 131.3 190.7 131.3 190.7 131.3 C 190.7 132.2 191.4 132.9 192.8 132.9 C 195.2 132.9 195.7 131.5 195.7 130.1 C 195.7 130.1 195.7 129.7 195.7 129.7 Z M 199.8 127.7 C 199.8 127 199.8 126.3 199.8 125.7 C 199.8 125.7 201 125.7 201 125.7 C 201 126 201 126.7 201 127.3 C 201.4 126.5 202.2 125.4 204 125.4 C 205.9 125.4 207.1 126.6 207.1 128.8 C 207.1 128.84 207.1 133.7 207.1 133.7 L 205.9 133.7 C 205.9 133.7 205.89 129.07 205.9 129.1 C 205.9 127.6 205.3 126.5 203.7 126.5 C 201.9 126.5 201 127.9 201 129.9 C 201.01 129.91 201 133.7 201 133.7 L 199.8 133.7 C 199.8 133.7 199.8 127.7 199.8 127.7 Z M 209 136 C 209.8 134.2 210.2 132.7 210.3 131.3 C 210.3 131.3 211.5 131.3 211.5 131.3 C 211.4 132.5 210.9 134.6 210 136 C 210 136 209 136 209 136 Z M 220.2 131.3 C 220.2 131.3 220.21 131.29 220.2 131.3 C 220.5 132.4 221.4 133 223 133 C 224.7 133 225.3 132.4 225.3 131.5 C 225.3 130.8 224.9 130.3 222.7 130 C 219.9 129.7 219.4 128.8 219.4 127.8 C 219.4 126.8 220.2 125.4 222.7 125.4 C 225.5 125.4 226.2 126.9 226.3 127.8 C 226.25 127.82 226.3 127.8 226.3 127.8 L 225 127.8 C 225 127.8 225.02 127.82 225 127.8 C 224.9 127.3 224.6 126.4 222.6 126.4 C 221 126.4 220.6 127.1 220.6 127.7 C 220.6 128.3 221 128.7 223 129 C 225.9 129.4 226.5 130.2 226.5 131.5 C 226.5 132.9 225.4 133.9 222.9 133.9 C 220.5 133.9 219.3 132.9 219 131.3 C 218.98 131.29 219 131.3 219 131.3 L 220.2 131.3 Z M 236.7 129.7 C 236.7 129.7 236.7 129.7 236.7 129.7 C 236.7 131.9 235.3 133.9 232.5 133.9 C 229.8 133.9 228.3 131.9 228.3 129.7 C 228.3 129.7 228.3 129.7 228.3 129.7 C 228.3 127.4 229.9 125.4 232.5 125.4 C 235.2 125.4 236.7 127.5 236.7 129.7 Z M 229.6 129.7 C 229.6 129.7 229.6 129.7 229.6 129.7 C 229.6 131.3 230.6 132.9 232.5 132.9 C 234.5 132.9 235.5 131.4 235.5 129.7 C 235.5 129.7 235.5 129.7 235.5 129.7 C 235.5 128 234.4 126.5 232.5 126.5 C 230.5 126.5 229.6 128 229.6 129.7 Z M 239.1 127.7 C 239.1 127 239.1 126.3 239.1 125.7 C 239.1 125.7 240.2 125.7 240.2 125.7 C 240.3 126 240.3 126.7 240.3 127.3 C 240.6 126.5 241.5 125.4 243.3 125.4 C 245.1 125.4 246.4 126.6 246.4 128.8 C 246.38 128.84 246.4 133.7 246.4 133.7 L 245.2 133.7 C 245.2 133.7 245.16 129.07 245.2 129.1 C 245.2 127.6 244.6 126.5 243 126.5 C 241.2 126.5 240.3 127.9 240.3 129.9 C 240.29 129.91 240.3 133.7 240.3 133.7 L 239.1 133.7 C 239.1 133.7 239.08 127.7 239.1 127.7 Z M 256.2 132.4 C 256.16 132.41 256.2 137.3 256.2 137.3 L 254.9 137.3 C 254.9 137.3 254.95 127.69 254.9 127.7 C 254.9 127 254.9 126.3 254.9 125.7 C 254.9 125.7 256.1 125.7 256.1 125.7 C 256.1 125.9 256.2 126.5 256.2 127.2 C 256.6 126.3 257.6 125.4 259.3 125.4 C 261.5 125.4 263.1 127.2 263.1 129.6 C 263.1 129.6 263.1 129.6 263.1 129.6 C 263.1 132.1 261.3 133.9 259.1 133.9 C 257.3 133.9 256.6 133.2 256.2 132.4 Z M 261.8 129.6 C 261.8 129.6 261.8 129.6 261.8 129.6 C 261.8 128.1 261 126.5 259 126.5 C 257 126.5 256.1 127.9 256.1 129.7 C 256.1 129.7 256.1 129.7 256.1 129.7 C 256.1 131.5 257.1 132.9 259 132.9 C 260.9 132.9 261.8 131.3 261.8 129.6 Z M 273.3 129.7 C 273.3 129.7 273.3 129.7 273.3 129.7 C 273.3 131.9 272 133.9 269.1 133.9 C 266.5 133.9 264.9 131.9 264.9 129.7 C 264.9 129.7 264.9 129.7 264.9 129.7 C 264.9 127.4 266.6 125.4 269.2 125.4 C 271.9 125.4 273.3 127.5 273.3 129.7 Z M 266.2 129.7 C 266.2 129.7 266.2 129.7 266.2 129.7 C 266.2 131.3 267.3 132.9 269.1 132.9 C 271.1 132.9 272.1 131.4 272.1 129.7 C 272.1 129.7 272.1 129.7 272.1 129.7 C 272.1 128 271 126.5 269.1 126.5 C 267.1 126.5 266.2 128 266.2 129.7 Z M 275.7 125.7 L 276.9 125.7 L 276.9 133.7 L 275.7 133.7 L 275.7 125.7 Z M 275.7 121.7 L 276.9 121.7 L 276.9 123.4 L 275.7 123.4 L 275.7 121.7 Z M 280.4 131.3 C 280.4 131.3 280.37 131.29 280.4 131.3 C 280.7 132.4 281.6 133 283.1 133 C 284.8 133 285.4 132.4 285.4 131.5 C 285.4 130.8 285 130.3 282.9 130 C 280.1 129.7 279.5 128.8 279.5 127.8 C 279.5 126.8 280.3 125.4 282.8 125.4 C 285.6 125.4 286.3 126.9 286.4 127.8 C 286.41 127.82 286.4 127.8 286.4 127.8 L 285.2 127.8 C 285.2 127.8 285.18 127.82 285.2 127.8 C 285.1 127.3 284.7 126.4 282.8 126.4 C 281.1 126.4 280.8 127.1 280.8 127.7 C 280.8 128.3 281.2 128.7 283.1 129 C 286.1 129.4 286.7 130.2 286.7 131.5 C 286.7 132.9 285.6 133.9 283.1 133.9 C 280.7 133.9 279.4 132.9 279.1 131.3 C 279.14 131.29 279.1 131.3 279.1 131.3 L 280.4 131.3 Z M 289.7 131.3 C 289.7 131.3 289.69 131.29 289.7 131.3 C 290 132.4 290.9 133 292.5 133 C 294.1 133 294.8 132.4 294.8 131.5 C 294.8 130.8 294.3 130.3 292.2 130 C 289.4 129.7 288.9 128.8 288.9 127.8 C 288.9 126.8 289.7 125.4 292.2 125.4 C 294.9 125.4 295.7 126.9 295.7 127.8 C 295.73 127.82 295.7 127.8 295.7 127.8 L 294.5 127.8 C 294.5 127.8 294.5 127.82 294.5 127.8 C 294.4 127.3 294 126.4 292.1 126.4 C 290.4 126.4 290.1 127.1 290.1 127.7 C 290.1 128.3 290.5 128.7 292.4 129 C 295.4 129.4 296 130.2 296 131.5 C 296 132.9 294.9 133.9 292.4 133.9 C 290 133.9 288.7 132.9 288.5 131.3 C 288.46 131.29 288.5 131.3 288.5 131.3 L 289.7 131.3 Z M 306.2 129.7 C 306.2 129.7 306.2 129.7 306.2 129.7 C 306.2 131.9 304.8 133.9 302 133.9 C 299.3 133.9 297.8 131.9 297.8 129.7 C 297.8 129.7 297.8 129.7 297.8 129.7 C 297.8 127.4 299.4 125.4 302 125.4 C 304.7 125.4 306.2 127.5 306.2 129.7 Z M 299 129.7 C 299 129.7 299 129.7 299 129.7 C 299 131.3 300.1 132.9 302 132.9 C 304 132.9 304.9 131.4 304.9 129.7 C 304.9 129.7 304.9 129.7 304.9 129.7 C 304.9 128 303.9 126.5 302 126.5 C 300 126.5 299 128 299 129.7 Z M 308.6 127.7 C 308.6 127 308.6 126.3 308.5 125.7 C 308.5 125.7 309.7 125.7 309.7 125.7 C 309.7 126 309.8 126.7 309.8 127.3 C 310.1 126.5 311 125.4 312.8 125.4 C 314.6 125.4 315.9 126.6 315.9 128.8 C 315.86 128.84 315.9 133.7 315.9 133.7 L 314.6 133.7 C 314.6 133.7 314.64 129.07 314.6 129.1 C 314.6 127.6 314.1 126.5 312.5 126.5 C 310.7 126.5 309.8 127.9 309.8 129.9 C 309.77 129.91 309.8 133.7 309.8 133.7 L 308.6 133.7 C 308.6 133.7 308.56 127.7 308.6 127.7 Z M 324.4 127.9 C 324.4 127.1 324.4 126.4 324.4 125.7 C 324.4 125.7 325.6 125.7 325.6 125.7 C 325.6 125.9 325.6 126.7 325.6 127.5 C 326.2 126.3 327.4 125.4 328.9 125.4 C 328.9 125.4 328.9 126.6 328.9 126.6 C 327.1 126.6 325.6 127.8 325.6 130.2 C 325.64 130.24 325.6 133.7 325.6 133.7 L 324.4 133.7 C 324.4 133.7 324.43 127.86 324.4 127.9 Z M 338.5 129.7 C 338.5 129.7 338.5 129.7 338.5 129.7 C 338.5 131.9 337.1 133.9 334.2 133.9 C 331.6 133.9 330.1 131.9 330.1 129.7 C 330.1 129.7 330.1 129.7 330.1 129.7 C 330.1 127.4 331.7 125.4 334.3 125.4 C 337 125.4 338.5 127.5 338.5 129.7 Z M 331.3 129.7 C 331.3 129.7 331.3 129.7 331.3 129.7 C 331.3 131.3 332.4 132.9 334.3 132.9 C 336.3 132.9 337.2 131.4 337.2 129.7 C 337.2 129.7 337.2 129.7 337.2 129.7 C 337.2 128 336.1 126.5 334.2 126.5 C 332.3 126.5 331.3 128 331.3 129.7 Z M 348 131.4 C 348 132.2 348 132.9 348 133.7 C 348 133.7 346.8 133.7 346.8 133.7 C 346.8 133.5 346.8 132.9 346.8 132.2 C 346.4 133.2 345.6 133.9 343.8 133.9 C 342.1 133.9 340.8 133 340.8 130.7 C 340.81 130.69 340.8 125.7 340.8 125.7 L 342 125.7 C 342 125.7 342.02 130.45 342 130.5 C 342 131.7 342.5 132.9 344.1 132.9 C 346 132.9 346.8 131.8 346.8 129.3 C 346.78 129.29 346.8 125.7 346.8 125.7 L 348 125.7 C 348 125.7 347.99 131.37 348 131.4 Z M 358.5 132.6 C 358.5 135.7 357.6 137.5 354.3 137.5 C 351.3 137.5 350.6 135.7 350.4 134.8 C 350.45 134.78 350.4 134.8 350.4 134.8 L 351.7 134.8 C 351.7 134.8 351.69 134.78 351.7 134.8 C 351.9 135.7 352.6 136.5 354.4 136.5 C 356.9 136.5 357.3 134.8 357.3 132.7 C 357.3 132.7 357.3 132.2 357.3 132.2 C 356.8 133.2 355.9 133.9 354.2 133.9 C 351.9 133.9 350.4 132.1 350.4 129.8 C 350.4 129.8 350.4 129.8 350.4 129.8 C 350.4 127.2 352.3 125.4 354.4 125.4 C 356.3 125.4 357.1 126.3 357.3 127 C 357.3 126.6 357.3 125.9 357.4 125.7 C 357.4 125.7 358.5 125.7 358.5 125.7 C 358.5 126.4 358.5 127.2 358.5 128 C 358.5 128 358.5 132.6 358.5 132.6 Z M 351.6 129.7 C 351.6 129.7 351.6 129.7 351.6 129.7 C 351.6 131.5 352.8 132.8 354.5 132.8 C 356.3 132.8 357.4 131.7 357.4 129.6 C 357.4 129.6 357.4 129.6 357.4 129.6 C 357.4 127.6 356.3 126.5 354.6 126.5 C 352.5 126.5 351.6 128.2 351.6 129.7 Z M 362.1 130 C 362.1 130 362.12 129.97 362.1 130 C 362.2 131.7 363.3 132.9 365.1 132.9 C 366.4 132.9 367.2 132.3 367.7 131.5 C 367.69 131.48 367.7 131.5 367.7 131.5 L 368.9 131.5 C 368.9 131.5 368.89 131.48 368.9 131.5 C 368.5 132.6 367.4 133.9 365 133.9 C 362.2 133.9 360.9 131.9 360.9 129.7 C 360.9 129.7 360.9 129.7 360.9 129.7 C 360.9 127.2 362.5 125.4 365 125.4 C 368 125.4 369 127.7 369 129.6 C 369 129.7 369 129.8 369 130 C 369.01 129.97 362.1 130 362.1 130 Z M 367.7 129 C 367.7 129 367.74 129.04 367.7 129 C 367.7 128 367.1 126.4 364.9 126.4 C 363.2 126.4 362.3 127.6 362.1 129 C 362.15 129.04 362.1 129 362.1 129 L 367.7 129 Z M 384.4 121.7 C 384.4 121.7 384.42 131.36 384.4 131.4 C 384.4 132.1 384.4 132.9 384.4 133.7 C 384.4 133.7 383.3 133.7 383.3 133.7 C 383.2 133.3 383.2 132.8 383.2 132.4 C 382.8 133.1 382.1 133.9 380.2 133.9 C 377.8 133.9 376.3 132.2 376.3 129.8 C 376.3 129.8 376.3 129.8 376.3 129.8 C 376.3 127.1 378.2 125.4 380.3 125.4 C 382.3 125.4 383 126.4 383.2 126.8 C 383.2 126.81 383.2 121.7 383.2 121.7 L 384.4 121.7 Z M 377.5 129.7 C 377.5 129.7 377.5 129.7 377.5 129.7 C 377.5 131.3 378.5 132.9 380.4 132.9 C 382.4 132.9 383.3 131.6 383.3 129.7 C 383.3 129.7 383.3 129.7 383.3 129.7 C 383.3 127.8 382.6 126.5 380.4 126.5 C 378.5 126.5 377.5 128.1 377.5 129.7 Z M 394.2 131.8 C 394.2 132.5 394.2 133.5 394.3 133.7 C 394.3 133.7 393.1 133.7 393.1 133.7 C 393 133.4 393 132.7 393 132.5 C 392.6 133.3 391.7 133.9 389.9 133.9 C 387.6 133.9 386.8 132.6 386.8 131.4 C 386.8 131.4 386.8 131.4 386.8 131.4 C 386.8 129.3 388.7 128.8 391 128.8 C 392 128.8 392.7 128.8 393 128.8 C 393 128.8 393 128.3 393 128.3 C 393 127.3 392.6 126.4 390.7 126.4 C 389.1 126.4 388.7 127.2 388.5 128 C 388.48 128 388.5 128 388.5 128 L 387.3 128 C 387.3 128 387.27 128 387.3 128 C 387.4 126.9 388.1 125.4 390.7 125.4 C 393.5 125.4 394.2 126.8 394.2 128.1 C 394.2 128.1 394.2 131.8 394.2 131.8 Z M 393 129.7 C 392.7 129.7 392.2 129.7 391 129.7 C 389 129.7 388 130.1 388 131.3 C 388 131.3 388 131.3 388 131.3 C 388 132.2 388.7 132.9 390.1 132.9 C 392.5 132.9 393 131.5 393 130.1 C 393 130.1 393 129.7 393 129.7 Z M 397.1 127.7 C 397.1 127 397.1 126.3 397.1 125.7 C 397.1 125.7 398.2 125.7 398.2 125.7 C 398.3 126 398.3 126.7 398.3 127.3 C 398.6 126.5 399.5 125.4 401.3 125.4 C 403.1 125.4 404.4 126.6 404.4 128.8 C 404.39 128.84 404.4 133.7 404.4 133.7 L 403.2 133.7 C 403.2 133.7 403.17 129.07 403.2 129.1 C 403.2 127.6 402.6 126.5 401 126.5 C 399.2 126.5 398.3 127.9 398.3 129.9 C 398.3 129.91 398.3 133.7 398.3 133.7 L 397.1 133.7 C 397.1 133.7 397.09 127.7 397.1 127.7 Z M 407.8 131.3 C 407.8 131.3 407.78 131.29 407.8 131.3 C 408.1 132.4 409 133 410.6 133 C 412.2 133 412.9 132.4 412.9 131.5 C 412.9 130.8 412.4 130.3 410.3 130 C 407.5 129.7 406.9 128.8 406.9 127.8 C 406.9 126.8 407.7 125.4 410.3 125.4 C 413 125.4 413.8 126.9 413.8 127.8 C 413.83 127.82 413.8 127.8 413.8 127.8 L 412.6 127.8 C 412.6 127.8 412.6 127.82 412.6 127.8 C 412.5 127.3 412.1 126.4 410.2 126.4 C 408.5 126.4 408.2 127.1 408.2 127.7 C 408.2 128.3 408.6 128.7 410.5 129 C 413.5 129.4 414.1 130.2 414.1 131.5 C 414.1 132.9 413 133.9 410.5 133.9 C 408.1 133.9 406.8 132.9 406.6 131.3 C 406.55 131.29 406.6 131.3 406.6 131.3 L 407.8 131.3 Z M 422.5 131.3 C 422.5 131.3 422.48 131.29 422.5 131.3 C 422.8 132.4 423.7 133 425.3 133 C 426.9 133 427.6 132.4 427.6 131.5 C 427.6 130.8 427.1 130.3 425 130 C 422.2 129.7 421.6 128.8 421.6 127.8 C 421.6 126.8 422.4 125.4 425 125.4 C 427.7 125.4 428.5 126.9 428.5 127.8 C 428.53 127.82 428.5 127.8 428.5 127.8 L 427.3 127.8 C 427.3 127.8 427.3 127.82 427.3 127.8 C 427.2 127.3 426.8 126.4 424.9 126.4 C 423.2 126.4 422.9 127.1 422.9 127.7 C 422.9 128.3 423.3 128.7 425.2 129 C 428.2 129.4 428.8 130.2 428.8 131.5 C 428.8 132.9 427.7 133.9 425.2 133.9 C 422.8 133.9 421.5 132.9 421.3 131.3 C 421.25 131.29 421.3 131.3 421.3 131.3 L 422.5 131.3 Z M 439 129.7 C 439 129.7 439 129.7 439 129.7 C 439 131.9 437.6 133.9 434.8 133.9 C 432.1 133.9 430.6 131.9 430.6 129.7 C 430.6 129.7 430.6 129.7 430.6 129.7 C 430.6 127.4 432.2 125.4 434.8 125.4 C 437.5 125.4 439 127.5 439 129.7 Z M 431.8 129.7 C 431.8 129.7 431.8 129.7 431.8 129.7 C 431.8 131.3 432.9 132.9 434.8 132.9 C 436.8 132.9 437.7 131.4 437.7 129.7 C 437.7 129.7 437.7 129.7 437.7 129.7 C 437.7 128 436.6 126.5 434.7 126.5 C 432.8 126.5 431.8 128 431.8 129.7 Z M 441.4 127.7 C 441.4 127 441.4 126.3 441.3 125.7 C 441.3 125.7 442.5 125.7 442.5 125.7 C 442.5 126 442.6 126.7 442.6 127.3 C 442.9 126.5 443.8 125.4 445.5 125.4 C 447.4 125.4 448.6 126.6 448.6 128.8 C 448.65 128.84 448.6 133.7 448.6 133.7 L 447.4 133.7 C 447.4 133.7 447.44 129.07 447.4 129.1 C 447.4 127.6 446.9 126.5 445.3 126.5 C 443.5 126.5 442.6 127.9 442.6 129.9 C 442.56 129.91 442.6 133.7 442.6 133.7 L 441.4 133.7 C 441.4 133.7 441.35 127.7 441.4 127.7 Z " stroke="none" fill="#141414"/>  </g></svg>