<?xml version="1.0" standalone="no"?><!DOCTYPE svg PUBLIC "-//W3C//DTD SVG 1.1//EN" "http://www.w3.org/Graphics/SVG/1.1/DTD/svg11.dtd"><svg xmlns="http://www.w3.org/2000/svg" version="1.1" width="90px" height="14.8px" viewBox="0 -2 90 14.8" style="top:-2px">  <desc>Page</desc>  <defs/>  <g id="Polygon11911">    <path d="M 39.9 5.7 C 39.9 5.7 40.64 5.13 40.6 5.1 C 40.8 5 41 4.9 41.3 4.7 C 41.7 4.4 42 4.2 42.1 4 C 42.3 3.8 42.4 3.7 42.5 3.5 C 42.5 3.5 42.5 3.4 42.5 3.4 C 42.5 3.2 42.3 3.1 41.9 3.1 C 41.7 3.1 41.5 3.1 41.2 3.2 C 41 3.3 40.7 3.4 40.5 3.6 C 40.5 3.6 40.9 2 40.9 2 C 41.1 1.8 41.4 1.7 41.7 1.6 C 42.1 1.5 42.4 1.5 42.7 1.5 C 43.2 1.5 43.6 1.6 43.9 1.8 C 44.2 2.1 44.3 2.4 44.3 2.7 C 44.3 2.8 44.3 2.9 44.3 3 C 44.2 3.4 44 3.8 43.8 4 C 43.6 4.3 43.3 4.6 43 4.9 C 42.97 4.88 42.5 5.2 42.5 5.2 L 43.9 5.2 L 43.7 6.5 L 39.8 6.5 L 39.9 5.7 Z M 47.1 6.6 C 46.8 6.6 46.5 6.6 46.3 6.5 C 46 6.4 45.8 6.3 45.6 6.2 C 45.6 6.2 45.9 4.8 45.9 4.8 C 46.1 5 46.3 5.1 46.6 5.2 C 46.8 5.3 47.1 5.3 47.3 5.3 C 47.8 5.3 48.1 5.2 48.1 4.9 C 48.1 4.8 48.1 4.8 48.1 4.8 C 48.1 4.5 47.9 4.4 47.5 4.4 C 47.4 4.4 47.2 4.4 47 4.5 C 46.8 4.5 46.7 4.5 46.5 4.6 C 46.54 4.58 46 4.3 46 4.3 L 46.8 1.6 L 50.2 1.6 L 49.9 2.9 L 48.1 2.9 C 48.1 2.9 47.94 3.29 47.9 3.3 C 48.1 3.2 48.3 3.2 48.5 3.2 C 49 3.2 49.3 3.3 49.5 3.5 C 49.8 3.7 49.9 4 49.9 4.4 C 49.9 4.5 49.9 4.6 49.8 4.8 C 49.7 5.4 49.4 5.8 49 6.1 C 48.5 6.4 47.9 6.6 47.1 6.6 C 47.1 6.6 47.1 6.6 47.1 6.6 Z " stroke="none" fill="#fafafa"/>  </g></svg>