<?xml version="1.0" standalone="no"?><!DOCTYPE svg PUBLIC "-//W3C//DTD SVG 1.1//EN" "http://www.w3.org/Graphics/SVG/1.1/DTD/svg11.dtd"><svg xmlns="http://www.w3.org/2000/svg" version="1.1" width="1710px" height="630px" viewBox="0 -1 1710 630" style="top:-1px">  <desc>cam ra &amp; energie vivantes &amp; modernes</desc>  <defs/>  <g id="Polygon5470">    <path d="M 1348 571.2 L 1349.9 571.2 L 1355.5 585.4 L 1361.1 571.2 L 1363.1 571.2 L 1356.4 588 L 1354.7 588 L 1348 571.2 Z M 1370.4 571.2 L 1372.3 571.2 L 1372.3 588 L 1370.4 588 L 1370.4 571.2 Z M 1379.7 571.2 L 1381.6 571.2 L 1387.2 585.4 L 1392.8 571.2 L 1394.8 571.2 L 1388.1 588 L 1386.3 588 L 1379.7 571.2 Z M 1406.2 571.2 L 1408 571.2 L 1414.7 588 L 1412.8 588 L 1411 583.5 L 1403.2 583.5 L 1401.5 588 L 1399.5 588 L 1406.2 571.2 Z M 1410.4 581.9 L 1407.1 573.4 L 1403.8 581.9 L 1410.4 581.9 Z M 1422 571.2 L 1423.8 571.2 L 1433.1 584.8 L 1433.1 571.2 L 1434.9 571.2 L 1434.9 588 L 1433.1 588 L 1423.9 574.4 L 1423.9 588 L 1422 588 L 1422 571.2 Z M 1447.4 572.8 L 1442 572.8 L 1442 571.2 L 1454.7 571.2 L 1454.7 572.8 L 1449.3 572.8 L 1449.3 588 L 1447.4 588 L 1447.4 572.8 Z M 1461.8 571.2 L 1472.6 571.2 L 1472.6 572.8 L 1463.6 572.8 L 1463.6 578.8 L 1470.3 578.8 L 1470.3 580.4 L 1463.6 580.4 L 1463.6 586.4 L 1472.6 586.4 L 1472.6 588 L 1461.8 588 L 1461.8 571.2 Z M 1484.6 588.4 C 1483.7 588.4 1482.8 588.3 1481.9 588.1 C 1481 588 1480.2 587.7 1479.7 587.5 C 1479.7 587.5 1479.7 585.7 1479.7 585.7 C 1481.2 586.4 1482.8 586.7 1484.5 586.7 C 1486 586.7 1487 586.4 1487.7 586 C 1488.4 585.5 1488.7 584.8 1488.7 583.9 C 1488.7 583.2 1488.6 582.7 1488.3 582.3 C 1488 582 1487.6 581.6 1487.1 581.4 C 1486.6 581.1 1485.6 580.7 1484.3 580.2 C 1482.8 579.5 1481.6 578.8 1480.9 578.1 C 1480.2 577.3 1479.8 576.4 1479.8 575.2 C 1479.8 574.3 1480.1 573.6 1480.5 572.9 C 1481 572.3 1481.6 571.8 1482.5 571.4 C 1483.3 571 1484.2 570.9 1485.3 570.9 C 1486.2 570.9 1487 570.9 1487.7 571.1 C 1488.4 571.2 1489.1 571.4 1489.8 571.7 C 1489.8 571.7 1489.8 573.4 1489.8 573.4 C 1488.5 572.8 1487.1 572.5 1485.6 572.5 C 1484.3 572.5 1483.3 572.8 1482.7 573.2 C 1482 573.7 1481.7 574.4 1481.7 575.2 C 1481.7 575.7 1481.8 576.2 1482.1 576.6 C 1482.4 577 1482.8 577.4 1483.4 577.7 C 1484 578.1 1484.8 578.4 1485.8 578.8 C 1487 579.3 1487.9 579.7 1488.5 580.1 C 1489.2 580.5 1489.7 581 1490 581.6 C 1490.4 582.2 1490.6 583 1490.6 583.9 C 1490.6 585.3 1490.1 586.4 1489.1 587.2 C 1488.1 588 1486.6 588.4 1484.6 588.4 C 1484.6 588.4 1484.6 588.4 1484.6 588.4 Z M 1517.8 588.4 C 1516 588.4 1514.5 588 1513.4 587.2 C 1512.3 586.4 1511.7 585.2 1511.7 583.8 C 1511.7 582.8 1512 581.8 1512.6 581 C 1513.2 580.2 1514.2 579.5 1515.6 578.7 C 1514.7 578 1514.1 577.3 1513.8 576.7 C 1513.4 576.1 1513.2 575.4 1513.2 574.7 C 1513.2 573.5 1513.6 572.6 1514.4 571.9 C 1515.1 571.2 1516.2 570.9 1517.4 570.9 C 1518.2 570.9 1518.9 571 1519.6 571.4 C 1520.2 571.7 1520.7 572.2 1521 572.7 C 1521.4 573.3 1521.5 574 1521.5 574.7 C 1521.5 575.6 1521.3 576.3 1520.8 576.9 C 1520.3 577.4 1519.5 578.1 1518.3 579 C 1518.3 579 1523.3 583.8 1523.3 583.8 C 1523.6 583.2 1523.8 582.6 1523.9 582 C 1524 581.4 1524.1 580.6 1524.1 579.6 C 1524.1 579.6 1525.9 579.6 1525.9 579.6 C 1525.9 580.8 1525.8 581.8 1525.6 582.6 C 1525.4 583.5 1525.1 584.3 1524.6 585 C 1524.57 585.02 1527.7 588 1527.7 588 L 1525.4 588 C 1525.4 588 1523.49 586.18 1523.5 586.2 C 1522.8 586.9 1521.9 587.5 1521 587.8 C 1520.1 588.2 1519 588.4 1517.8 588.4 C 1517.8 588.4 1517.8 588.4 1517.8 588.4 Z M 1517.1 578 C 1518.1 577.4 1518.8 576.8 1519.2 576.4 C 1519.6 575.9 1519.8 575.4 1519.8 574.7 C 1519.8 574 1519.6 573.5 1519.1 573.1 C 1518.7 572.7 1518.2 572.5 1517.4 572.5 C 1516.7 572.5 1516.1 572.7 1515.6 573 C 1515.2 573.4 1515 574 1515 574.7 C 1515 575.3 1515.2 575.8 1515.5 576.2 C 1515.8 576.6 1516.3 577.2 1517.1 578 C 1517.1 578 1517.1 578 1517.1 578 Z M 1517.8 586.8 C 1519.7 586.8 1521.2 586.2 1522.2 585 C 1522.2 585 1516.9 579.8 1516.9 579.8 C 1515.7 580.4 1514.9 581 1514.3 581.6 C 1513.8 582.2 1513.6 582.9 1513.6 583.8 C 1513.6 584.8 1514 585.5 1514.7 586 C 1515.5 586.5 1516.5 586.8 1517.8 586.8 C 1517.8 586.8 1517.8 586.8 1517.8 586.8 Z M 1549.3 571.2 L 1551.2 571.2 L 1557.5 585.1 L 1563.9 571.2 L 1565.8 571.2 L 1565.8 588 L 1563.9 588 L 1563.9 575 L 1558 588 L 1557 588 L 1551.1 575 L 1551.1 588 L 1549.3 588 L 1549.3 571.2 Z M 1582.4 588.4 C 1580.7 588.4 1579.2 588 1577.9 587.3 C 1576.5 586.5 1575.5 585.5 1574.7 584.2 C 1574 582.9 1573.6 581.3 1573.6 579.6 C 1573.6 577.9 1574 576.4 1574.7 575.1 C 1575.5 573.7 1576.5 572.7 1577.9 572 C 1579.2 571.2 1580.7 570.9 1582.4 570.9 C 1584 570.9 1585.5 571.2 1586.8 572 C 1588.2 572.7 1589.2 573.7 1590 575.1 C 1590.8 576.4 1591.1 577.9 1591.1 579.6 C 1591.1 581.3 1590.8 582.9 1590 584.2 C 1589.2 585.5 1588.2 586.5 1586.8 587.3 C 1585.5 588 1584 588.4 1582.4 588.4 C 1582.4 588.4 1582.4 588.4 1582.4 588.4 Z M 1582.4 586.7 C 1583.6 586.7 1584.8 586.4 1585.9 585.8 C 1586.9 585.2 1587.7 584.4 1588.4 583.4 C 1589 582.3 1589.3 581 1589.3 579.6 C 1589.3 578.2 1589 577 1588.4 575.9 C 1587.8 574.9 1586.9 574 1585.9 573.4 C 1584.8 572.9 1583.7 572.6 1582.4 572.6 C 1581.1 572.6 1579.9 572.9 1578.9 573.4 C 1577.8 574 1577 574.8 1576.4 575.9 C 1575.8 577 1575.4 578.2 1575.4 579.6 C 1575.4 581 1575.7 582.3 1576.4 583.4 C 1577 584.4 1577.8 585.2 1578.9 585.8 C 1579.9 586.4 1581.1 586.7 1582.4 586.7 C 1582.4 586.7 1582.4 586.7 1582.4 586.7 Z M 1598.9 571.2 C 1598.9 571.2 1604.13 571.22 1604.1 571.2 C 1605.9 571.2 1607.5 571.6 1608.8 572.2 C 1610.1 572.9 1611.1 573.9 1611.8 575.1 C 1612.5 576.4 1612.9 577.8 1612.9 579.5 C 1612.9 582.3 1612.1 584.4 1610.5 585.9 C 1608.9 587.3 1606.6 588 1603.7 588 C 1603.75 588 1598.9 588 1598.9 588 L 1598.9 571.2 Z M 1603.6 586.4 C 1606.2 586.4 1608 585.8 1609.2 584.7 C 1610.4 583.5 1611 581.8 1611 579.5 C 1611 577.4 1610.4 575.8 1609.3 574.6 C 1608.1 573.4 1606.4 572.8 1604.1 572.8 C 1604.11 572.81 1600.8 572.8 1600.8 572.8 L 1600.8 586.4 C 1600.8 586.4 1603.63 586.42 1603.6 586.4 Z M 1620.7 571.2 L 1631.5 571.2 L 1631.5 572.8 L 1622.6 572.8 L 1622.6 578.8 L 1629.3 578.8 L 1629.3 580.4 L 1622.6 580.4 L 1622.6 586.4 L 1631.5 586.4 L 1631.5 588 L 1620.7 588 L 1620.7 571.2 Z M 1638.9 571.2 C 1638.9 571.2 1645.35 571.22 1645.4 571.2 C 1647.1 571.2 1648.4 571.6 1649.3 572.4 C 1650.2 573.3 1650.7 574.5 1650.7 576.1 C 1650.7 577.3 1650.3 578.3 1649.6 579.2 C 1648.9 580 1647.9 580.6 1646.6 580.8 C 1646.65 580.78 1650.6 588 1650.6 588 L 1648.7 588 L 1644.8 580.9 L 1640.7 580.9 L 1640.7 588 L 1638.9 588 L 1638.9 571.2 Z M 1645.1 579.3 C 1646.3 579.3 1647.2 579 1647.8 578.5 C 1648.5 577.9 1648.8 577.1 1648.8 576.1 C 1648.8 574.9 1648.5 574 1647.8 573.6 C 1647.2 573.1 1646.3 572.8 1645.1 572.8 C 1645.11 572.81 1640.7 572.8 1640.7 572.8 L 1640.7 579.3 C 1640.7 579.3 1645.11 579.29 1645.1 579.3 Z M 1658.5 571.2 L 1660.3 571.2 L 1669.6 584.8 L 1669.6 571.2 L 1671.4 571.2 L 1671.4 588 L 1669.6 588 L 1660.4 574.4 L 1660.4 588 L 1658.5 588 L 1658.5 571.2 Z M 1680 571.2 L 1690.8 571.2 L 1690.8 572.8 L 1681.9 572.8 L 1681.9 578.8 L 1688.5 578.8 L 1688.5 580.4 L 1681.9 580.4 L 1681.9 586.4 L 1690.8 586.4 L 1690.8 588 L 1680 588 L 1680 571.2 Z M 1702.8 588.4 C 1701.9 588.4 1701 588.3 1700.1 588.1 C 1699.2 588 1698.5 587.7 1697.9 587.5 C 1697.9 587.5 1697.9 585.7 1697.9 585.7 C 1699.4 586.4 1701 586.7 1702.7 586.7 C 1704.2 586.7 1705.2 586.4 1705.9 586 C 1706.6 585.5 1706.9 584.8 1706.9 583.9 C 1706.9 583.2 1706.8 582.7 1706.5 582.3 C 1706.2 582 1705.8 581.6 1705.3 581.4 C 1704.8 581.1 1703.9 580.7 1702.6 580.2 C 1701 579.5 1699.8 578.8 1699.1 578.1 C 1698.4 577.3 1698 576.4 1698 575.2 C 1698 574.3 1698.3 573.6 1698.7 572.9 C 1699.2 572.3 1699.8 571.8 1700.7 571.4 C 1701.5 571 1702.5 570.9 1703.5 570.9 C 1704.4 570.9 1705.2 570.9 1705.9 571.1 C 1706.6 571.2 1707.3 571.4 1708 571.7 C 1708 571.7 1708 573.4 1708 573.4 C 1706.7 572.8 1705.3 572.5 1703.8 572.5 C 1702.5 572.5 1701.6 572.8 1700.9 573.2 C 1700.2 573.7 1699.9 574.4 1699.9 575.2 C 1699.9 575.7 1700.1 576.2 1700.3 576.6 C 1700.6 577 1701 577.4 1701.6 577.7 C 1702.2 578.1 1703 578.4 1704 578.8 C 1705.2 579.3 1706.1 579.7 1706.7 580.1 C 1707.4 580.5 1707.9 581 1708.3 581.6 C 1708.6 582.2 1708.8 583 1708.8 583.9 C 1708.8 585.3 1708.3 586.4 1707.3 587.2 C 1706.3 588 1704.8 588.4 1702.8 588.4 C 1702.8 588.4 1702.8 588.4 1702.8 588.4 Z " stroke="none" fill="#fafafa"/>  </g>  <g id="Polygon5469">    <path d="M 922.8 561.5 C 912.2 561.5 903.8 559.4 897.7 555.1 C 891.6 551 888.6 545.1 888.6 537.6 C 888.6 535.8 888.8 533.5 889.3 530.8 C 890.6 524.5 893.1 519 896.7 514.6 C 900.3 510.1 905.3 506 911.8 502.2 C 910.1 499.8 908.8 497.4 908 494.9 C 907.1 492.5 906.7 489.7 906.7 486.7 C 906.7 484.2 907 481.8 907.5 479.7 C 909.3 471.5 913.9 464.8 921.3 459.7 C 928.7 454.6 937.9 452.1 949 452.1 C 958.3 452.1 965.5 454.1 970.5 458.2 C 975.6 462.2 978.1 467.5 978.1 474.1 C 978.1 476.2 977.9 478 977.5 479.7 C 976.3 485.5 974.2 490.3 971.1 494.2 C 968 498 963.6 501.7 957.9 505.3 C 957.9 505.3 968.1 517.5 968.1 517.5 C 969.8 514.6 971.3 509.9 972.7 503.4 C 972.7 503.4 1000.8 503.4 1000.8 503.4 C 999.1 511.5 997.1 518.1 994.8 523 C 992.5 528.1 989.3 533.1 985.3 538 C 985.31 538.05 1002.7 559.2 1002.7 559.2 L 961.3 559.2 C 961.3 559.2 956.66 554.1 956.7 554.1 C 948.6 559 937.3 561.5 922.8 561.5 C 922.8 561.5 922.8 561.5 922.8 561.5 Z M 940.6 490.3 C 943.6 488.5 945.8 486.8 947.2 485 C 948.6 483.3 949.3 481.3 949.3 479.2 C 949.3 477.9 948.9 476.8 948 476 C 947.1 475.2 945.8 474.7 944.2 474.7 C 940.1 474.7 937.6 477 936.7 481.3 C 936.2 483.9 937.5 486.9 940.6 490.3 C 940.6 490.3 940.6 490.3 940.6 490.3 Z M 929.7 539 C 934 539 937.6 537.7 940.6 535.3 C 940.6 535.3 930.1 522.3 930.1 522.3 C 927.5 523.3 925.6 524.7 924.3 526.4 C 923 528.2 922.3 530.2 922.3 532.6 C 922.3 534.6 923 536.1 924.3 537.2 C 925.7 538.4 927.5 539 929.7 539 C 929.7 539 929.7 539 929.7 539 Z M 1083.4 454.3 L 1161.1 454.3 L 1154.8 484.2 L 1112.7 484.2 L 1110.7 493.3 L 1140.6 493.3 L 1134.9 520.2 L 1105 520.2 L 1103.1 529.3 L 1145.2 529.3 L 1138.9 559.2 L 1061.2 559.2 L 1083.4 454.3 Z M 1175 454.3 L 1206.4 454.3 L 1227.2 503.1 L 1237.6 454.3 L 1271.6 454.3 L 1249.4 559.2 L 1218.1 559.2 L 1197.2 510.3 L 1186.9 559.2 L 1152.8 559.2 L 1175 454.3 Z M 1288.2 454.3 L 1365.9 454.3 L 1359.6 484.2 L 1317.5 484.2 L 1315.5 493.3 L 1345.4 493.3 L 1339.7 520.2 L 1309.8 520.2 L 1307.9 529.3 L 1350 529.3 L 1343.7 559.2 L 1266 559.2 L 1288.2 454.3 Z M 1379.9 454.3 C 1379.9 454.3 1430.27 454.35 1430.3 454.3 C 1441.2 454.3 1449.8 457 1456.1 462.1 C 1462.4 467.4 1465.5 474.5 1465.5 483.5 C 1465.5 486.6 1465.2 489.6 1464.5 492.5 C 1462.8 500.2 1459.8 506.9 1455.5 512.3 C 1451.3 517.8 1446 522.1 1439.7 525.1 C 1439.72 525.15 1449 559.2 1449 559.2 L 1413.2 559.2 L 1405.4 530.5 L 1398.6 530.5 L 1392.6 559.2 L 1357.7 559.2 L 1379.9 454.3 Z M 1412.3 504 C 1421.4 504 1426.7 500.2 1428.3 492.5 C 1428.6 491.2 1428.8 490.2 1428.8 489.1 C 1428.8 483.7 1424.9 480.9 1417.1 480.9 C 1417.07 480.9 1409.1 480.9 1409.1 480.9 L 1404.3 504 C 1404.3 504 1412.27 504 1412.3 504 Z M 1514.3 561.5 C 1504.9 561.5 1496.6 559.8 1489.3 556.5 C 1482.1 553.2 1476.5 548.4 1472.5 542.1 C 1468.5 535.8 1466.5 528.4 1466.5 519.9 C 1466.5 515.6 1467 511.3 1468 506.8 C 1470.4 495.6 1474.8 485.8 1481.2 477.6 C 1487.7 469.4 1495.7 463.1 1505.4 458.7 C 1515 454.3 1525.8 452.1 1537.6 452.1 C 1545.4 452.1 1552 452.8 1557.6 454 C 1563.1 455.4 1568.2 457.5 1572.7 460.3 C 1572.7 460.3 1565.5 493.6 1565.5 493.6 C 1561.9 490.5 1557.5 488.2 1552.3 486.7 C 1547.2 485.4 1541 484.6 1533.8 484.6 C 1526 484.6 1519.5 486.6 1514.2 490.4 C 1508.9 494.3 1505.5 499.8 1504 506.8 C 1503.3 509.8 1502.9 512.7 1502.9 515.5 C 1502.9 520.5 1504.4 524.1 1507.4 526.6 C 1510.4 529 1515.5 530.2 1522.6 530.2 C 1525.5 530.2 1528.1 529.9 1530.5 529 C 1530.51 529.05 1532.6 519.1 1532.6 519.1 L 1521.1 519.1 L 1525.4 498.7 L 1568.2 498.7 C 1568.2 498.7 1556.76 552.6 1556.8 552.6 C 1545.3 558.5 1531.1 561.5 1514.3 561.5 C 1514.3 561.5 1514.3 561.5 1514.3 561.5 Z M 1592 454.3 L 1627.5 454.3 L 1605.3 559.2 L 1569.8 559.2 L 1592 454.3 Z M 1644.2 454.3 L 1721.9 454.3 L 1715.6 484.2 L 1673.4 484.2 L 1671.5 493.3 L 1701.3 493.3 L 1695.6 520.2 L 1665.8 520.2 L 1663.8 529.3 L 1706 529.3 L 1699.7 559.2 L 1622 559.2 L 1644.2 454.3 Z " stroke="none" fill="#fafafa"/>  </g>  <g id="Polygon5468">    <path d="M 1094 449.5 C 1084.6 449.5 1076.2 447.8 1069 444.5 C 1061.7 441.2 1056.1 436.4 1052.1 430.1 C 1048.1 423.8 1046.1 416.4 1046.1 407.9 C 1046.1 403.6 1046.6 399.3 1047.6 394.8 C 1051.2 377.6 1059 364.1 1071.1 354.5 C 1083.1 344.9 1098.5 340.1 1117.2 340.1 C 1124.9 340.1 1131.6 340.8 1137.2 342 C 1142.9 343.4 1147.9 345.5 1152.3 348.3 C 1152.3 348.3 1145.1 382 1145.1 382 C 1141.4 378.8 1137 376.5 1131.9 375 C 1126.8 373.7 1120.7 373 1113.5 373 C 1105.7 373 1099.1 374.8 1093.9 378.6 C 1088.6 382.3 1085.3 387.8 1083.8 394.8 C 1083.2 397.4 1082.9 399.7 1082.9 401.9 C 1082.9 406.9 1084.6 410.6 1088 413.1 C 1091.5 415.5 1096.9 416.7 1104.2 416.7 C 1111.2 416.7 1117.6 416 1123.5 414.4 C 1129.4 412.9 1135.2 410.5 1140.9 407.3 C 1140.9 407.3 1133.9 440.7 1133.9 440.7 C 1122.4 446.6 1109.1 449.5 1094 449.5 C 1094 449.5 1094 449.5 1094 449.5 Z M 1201.2 342.3 L 1234.8 342.3 L 1254.6 447.2 L 1218.9 447.2 L 1215.9 428.9 L 1184.7 428.9 L 1174.2 447.2 L 1137 447.2 L 1201.2 342.3 Z M 1213.6 402.8 L 1211.1 378.6 L 1198 402.8 L 1213.6 402.8 Z M 1283.2 342.3 L 1313.8 342.3 L 1328.5 397.8 L 1366.9 342.3 L 1399 342.3 L 1376.8 447.2 L 1344 447.2 L 1352.2 408.3 L 1324.6 447.2 L 1313.2 447.2 L 1302.1 408.3 L 1293.9 447.2 L 1261 447.2 L 1283.2 342.3 Z M 1453.1 308.7 L 1485.6 308.7 L 1465.7 335.9 L 1437.2 335.9 L 1453.1 308.7 Z M 1415.6 342.3 L 1493.3 342.3 L 1487 372.2 L 1444.8 372.2 L 1442.9 381.3 L 1472.7 381.3 L 1467 408.2 L 1437.2 408.2 L 1435.2 417.3 L 1477.4 417.3 L 1471.1 447.2 L 1393.4 447.2 L 1415.6 342.3 Z M 1507.2 342.3 C 1507.2 342.3 1557.59 342.35 1557.6 342.3 C 1568.5 342.3 1577.1 345 1583.4 350.1 C 1589.7 355.4 1592.8 362.5 1592.8 371.5 C 1592.8 374.6 1592.5 377.6 1591.8 380.5 C 1590.1 388.2 1587.1 394.9 1582.9 400.3 C 1578.6 405.8 1573.3 410.1 1567 413.1 C 1567.04 413.15 1576.3 447.2 1576.3 447.2 L 1540.5 447.2 L 1532.7 418.5 L 1525.9 418.5 L 1519.9 447.2 L 1485 447.2 L 1507.2 342.3 Z M 1539.6 392 C 1548.7 392 1554 388.2 1555.6 380.5 C 1555.9 379.2 1556.1 378.2 1556.1 377.1 C 1556.1 371.7 1552.2 368.9 1544.4 368.9 C 1544.39 368.9 1536.4 368.9 1536.4 368.9 L 1531.6 392 C 1531.6 392 1539.59 392 1539.6 392 Z M 1646.3 342.3 L 1679.9 342.3 L 1699.7 447.2 L 1664 447.2 L 1661 428.9 L 1629.8 428.9 L 1619.3 447.2 L 1582.1 447.2 L 1646.3 342.3 Z M 1658.7 402.8 L 1656.2 378.6 L 1643.1 402.8 L 1658.7 402.8 Z " stroke="none" fill="#fafafa"/>  </g></svg>