<?xml version="1.0" standalone="no"?><!DOCTYPE svg PUBLIC "-//W3C//DTD SVG 1.1//EN" "http://www.w3.org/Graphics/SVG/1.1/DTD/svg11.dtd"><svg xmlns="http://www.w3.org/2000/svg" version="1.1" width="1710px" height="269.5px" viewBox="0 -38 1710 269.5" style="top:-38px">  <desc>binger ou courir - courir et binger Storyline</desc>  <defs/>  <g id="Polygon9234">    <path d="M 890.8 132.3 C 883.9 132.3 877.1 131.5 870.4 130.2 C 863.7 128.8 858.4 126.8 854.5 124.4 C 854.5 124.4 861.1 93.5 861.1 93.5 C 866 96.8 871.4 99.2 877.4 100.7 C 883.3 102.4 889 103.1 894.3 103.1 C 897.7 103.1 900.1 102.8 901.5 102 C 902.9 101.3 903.6 100.1 903.6 98.5 C 903.6 97 902.7 95.6 900.9 94.4 C 899.1 93.1 895.4 91.2 889.9 88.6 C 882.6 85 877.3 81.2 873.9 77 C 870.5 73 868.8 68.2 868.8 62.6 C 868.8 60.8 869 58.4 869.5 55.8 C 870.9 49.3 873.8 43.5 878.1 38.6 C 882.5 33.6 888.1 29.8 895.1 27 C 902 24.3 910 22.9 918.9 22.9 C 925.7 22.9 931.6 23.5 936.6 24.5 C 941.7 25.7 946.4 27.4 950.8 29.6 C 950.8 29.6 944.4 59.5 944.4 59.5 C 936.6 54.5 928.2 52 919.3 52 C 912.3 52 908.4 53.6 907.6 56.6 C 907.3 58.1 907.8 59.3 909.2 60.3 C 910.5 61.1 913.2 62.6 917.2 64.4 C 918.4 64.9 920.2 65.6 922.5 66.7 C 930.2 70.3 935.6 73.9 938.7 77.3 C 941.9 80.9 943.5 85.2 943.5 90.4 C 943.5 93 943.1 96.2 942.3 99.8 C 940.1 110.3 935 118.3 927 123.8 C 919 129.5 906.9 132.3 890.8 132.3 C 890.8 132.3 890.8 132.3 890.8 132.3 Z M 979.7 55 L 952.8 55 L 959.1 25.1 L 1048.4 25.1 L 1042.1 55 L 1015.2 55 L 999.3 130 L 963.8 130 L 979.7 55 Z M 1085.1 132.3 C 1076.5 132.3 1068.6 130.5 1061.5 126.9 C 1054.4 123.4 1048.8 118.3 1044.7 111.8 C 1040.5 105.2 1038.4 97.7 1038.4 89.2 C 1038.4 85.5 1038.9 81.7 1039.8 77.6 C 1042.1 66.8 1046.4 57.2 1052.8 48.9 C 1059.2 40.7 1067.2 34.3 1076.8 29.7 C 1086.4 25.2 1096.9 22.9 1108.3 22.9 C 1117.3 22.9 1125.4 24.7 1132.4 28.1 C 1139.5 31.7 1145 36.7 1149 43.1 C 1153 49.7 1155 57.2 1155 65.6 C 1155 69.5 1154.5 73.4 1153.6 77.6 C 1151.3 88.4 1147 98 1140.5 106.2 C 1134.1 114.5 1126.1 120.9 1116.5 125.4 C 1107 130 1096.5 132.3 1085.1 132.3 C 1085.1 132.3 1085.1 132.3 1085.1 132.3 Z M 1092.3 98.8 C 1098.3 98.8 1103.6 96.9 1108.3 93.1 C 1113 89.3 1116.1 84.2 1117.5 77.6 C 1118 74.9 1118.2 72.7 1118.2 70.9 C 1118.2 61.3 1112.6 56.5 1101.3 56.5 C 1095.2 56.5 1089.8 58.4 1085 62.2 C 1080.3 66 1077.2 71.2 1075.9 77.6 C 1075.3 80.3 1075 82.9 1075 85.1 C 1075 89.6 1076.4 93.1 1079.2 95.3 C 1081.9 97.7 1086.3 98.8 1092.3 98.8 C 1092.3 98.8 1092.3 98.8 1092.3 98.8 Z M 1175.9 25.1 C 1175.9 25.1 1226.29 25.15 1226.3 25.1 C 1237.2 25.1 1245.8 27.8 1252.1 32.9 C 1258.4 38.2 1261.5 45.3 1261.5 54.3 C 1261.5 57.4 1261.2 60.4 1260.5 63.3 C 1258.8 71 1255.8 77.7 1251.6 83.1 C 1247.3 88.6 1242 92.9 1235.7 95.9 C 1235.74 95.95 1245 130 1245 130 L 1209.2 130 L 1201.4 101.3 L 1194.6 101.3 L 1188.6 130 L 1153.7 130 L 1175.9 25.1 Z M 1208.3 74.8 C 1217.4 74.8 1222.7 71 1224.3 63.3 C 1224.6 62 1224.8 61 1224.8 59.9 C 1224.8 54.5 1220.9 51.7 1213.1 51.7 C 1213.09 51.7 1205.1 51.7 1205.1 51.7 L 1200.3 74.8 C 1200.3 74.8 1208.29 74.8 1208.3 74.8 Z M 1289.9 89.9 L 1265.7 25.1 L 1302.3 25.1 L 1313.1 58.3 L 1339.5 25.1 L 1378.7 25.1 L 1325.4 89.9 L 1317 130 L 1281.5 130 L 1289.9 89.9 Z M 1385.5 25.1 L 1421.1 25.1 L 1405.2 100.1 L 1444.3 100.1 L 1438 130 L 1363.3 130 L 1385.5 25.1 Z M 1465.8 25.1 L 1501.3 25.1 L 1479.1 130 L 1443.6 130 L 1465.8 25.1 Z M 1517.9 25.1 L 1549.3 25.1 L 1570.1 73.9 L 1580.5 25.1 L 1614.5 25.1 L 1592.3 130 L 1561 130 L 1540.1 81.1 L 1529.8 130 L 1495.7 130 L 1517.9 25.1 Z M 1631.2 25.1 L 1708.9 25.1 L 1702.6 55 L 1660.4 55 L 1658.5 64.1 L 1688.3 64.1 L 1682.6 91 L 1652.8 91 L 1650.8 100.1 L 1693 100.1 L 1686.7 130 L 1609 130 L 1631.2 25.1 Z " stroke="none" fill="#fafafa"/>  </g>  <g id="Polygon9233">    <path d="M 1075.1 1.2 C 1075.1 1.2 1082.55 1.22 1082.6 1.2 C 1084 1.2 1085.1 1.6 1085.9 2.4 C 1086.7 3.1 1087 4.2 1087 5.7 C 1087 6.6 1086.8 7.3 1086.4 8 C 1086 8.6 1085.5 9.1 1084.9 9.4 C 1086.7 9.8 1087.6 11.2 1087.6 13.3 C 1087.6 14.3 1087.4 15.1 1087 15.8 C 1086.6 16.5 1086 17.1 1085.3 17.4 C 1084.6 17.8 1083.8 18 1083 18 C 1082.96 18 1075.1 18 1075.1 18 L 1075.1 1.2 Z M 1082.4 8.6 C 1083.3 8.6 1084 8.4 1084.5 7.9 C 1084.9 7.4 1085.2 6.7 1085.2 5.8 C 1085.2 4.7 1084.9 3.9 1084.5 3.5 C 1084 3 1083.3 2.8 1082.2 2.8 C 1082.22 2.81 1077 2.8 1077 2.8 L 1077 8.6 C 1077 8.6 1082.41 8.62 1082.4 8.6 Z M 1082.6 16.4 C 1083.6 16.4 1084.4 16.2 1084.9 15.7 C 1085.5 15.2 1085.7 14.4 1085.7 13.3 C 1085.7 12.2 1085.5 11.4 1084.9 10.9 C 1084.3 10.4 1083.5 10.2 1082.3 10.2 C 1082.29 10.2 1077 10.2 1077 10.2 L 1077 16.4 C 1077 16.4 1082.55 16.42 1082.6 16.4 Z M 1095.6 1.2 L 1097.5 1.2 L 1097.5 18 L 1095.6 18 L 1095.6 1.2 Z M 1106 1.2 L 1107.8 1.2 L 1117 14.8 L 1117 1.2 L 1118.9 1.2 L 1118.9 18 L 1117.1 18 L 1107.8 4.4 L 1107.8 18 L 1106 18 L 1106 1.2 Z M 1135.6 18.4 C 1133.9 18.4 1132.3 18 1131 17.3 C 1129.7 16.6 1128.6 15.5 1127.9 14.2 C 1127.1 12.9 1126.7 11.4 1126.7 9.6 C 1126.7 7.9 1127.1 6.3 1127.9 5 C 1128.6 3.7 1129.7 2.7 1131 2 C 1132.3 1.2 1133.9 0.9 1135.6 0.9 C 1137.9 0.9 1139.8 1.5 1141.3 2.7 C 1141.3 2.7 1141.3 4.5 1141.3 4.5 C 1139.9 3.2 1138 2.6 1135.7 2.6 C 1134.3 2.6 1133.1 2.9 1132 3.4 C 1131 4 1130.1 4.8 1129.5 5.9 C 1128.9 7 1128.6 8.2 1128.6 9.6 C 1128.6 11 1128.9 12.3 1129.5 13.4 C 1130.1 14.4 1131 15.2 1132 15.8 C 1133.1 16.4 1134.3 16.7 1135.6 16.7 C 1136.4 16.7 1137.2 16.6 1137.9 16.4 C 1138.7 16.2 1139.3 16 1139.8 15.7 C 1139.75 15.67 1139.8 10.5 1139.8 10.5 L 1136.2 10.5 L 1136.2 8.9 L 1141.6 8.9 C 1141.6 8.9 1141.62 16.46 1141.6 16.5 C 1140.8 17.1 1139.9 17.6 1138.9 17.9 C 1137.9 18.2 1136.8 18.4 1135.6 18.4 C 1135.6 18.4 1135.6 18.4 1135.6 18.4 Z M 1149.8 1.2 L 1160.6 1.2 L 1160.6 2.8 L 1151.7 2.8 L 1151.7 8.8 L 1158.4 8.8 L 1158.4 10.4 L 1151.7 10.4 L 1151.7 16.4 L 1160.6 16.4 L 1160.6 18 L 1149.8 18 L 1149.8 1.2 Z M 1167.9 1.2 C 1167.9 1.2 1174.4 1.22 1174.4 1.2 C 1176.1 1.2 1177.5 1.6 1178.4 2.4 C 1179.3 3.3 1179.7 4.5 1179.7 6.1 C 1179.7 7.3 1179.4 8.3 1178.7 9.2 C 1178 10 1177 10.6 1175.7 10.8 C 1175.7 10.78 1179.7 18 1179.7 18 L 1177.7 18 L 1173.8 10.9 L 1169.8 10.9 L 1169.8 18 L 1167.9 18 L 1167.9 1.2 Z M 1174.2 9.3 C 1175.3 9.3 1176.2 9 1176.9 8.5 C 1177.5 7.9 1177.9 7.1 1177.9 6.1 C 1177.9 4.9 1177.5 4 1176.9 3.6 C 1176.2 3.1 1175.3 2.8 1174.2 2.8 C 1174.16 2.81 1169.8 2.8 1169.8 2.8 L 1169.8 9.3 C 1169.8 9.3 1174.16 9.29 1174.2 9.3 Z M 1209.6 18.4 C 1208 18.4 1206.5 18 1205.2 17.3 C 1203.8 16.5 1202.8 15.5 1202 14.2 C 1201.2 12.9 1200.9 11.3 1200.9 9.6 C 1200.9 7.9 1201.2 6.4 1202 5.1 C 1202.8 3.7 1203.8 2.7 1205.1 2 C 1206.5 1.2 1208 0.9 1209.6 0.9 C 1211.3 0.9 1212.8 1.2 1214.1 2 C 1215.5 2.7 1216.5 3.7 1217.3 5.1 C 1218 6.4 1218.4 7.9 1218.4 9.6 C 1218.4 11.3 1218 12.9 1217.3 14.2 C 1216.5 15.5 1215.4 16.5 1214.1 17.3 C 1212.8 18 1211.3 18.4 1209.6 18.4 C 1209.6 18.4 1209.6 18.4 1209.6 18.4 Z M 1209.6 16.7 C 1210.9 16.7 1212.1 16.4 1213.1 15.8 C 1214.2 15.2 1215 14.4 1215.6 13.4 C 1216.2 12.3 1216.5 11 1216.5 9.6 C 1216.5 8.2 1216.2 7 1215.6 5.9 C 1215 4.9 1214.2 4 1213.2 3.4 C 1212.1 2.9 1211 2.6 1209.7 2.6 C 1208.4 2.6 1207.2 2.9 1206.2 3.4 C 1205.1 4 1204.3 4.8 1203.6 5.9 C 1203 7 1202.7 8.2 1202.7 9.6 C 1202.7 11 1203 12.3 1203.6 13.4 C 1204.2 14.4 1205.1 15.2 1206.1 15.8 C 1207.2 16.4 1208.4 16.7 1209.6 16.7 C 1209.6 16.7 1209.6 16.7 1209.6 16.7 Z M 1232.8 18.4 C 1230.6 18.4 1228.9 17.8 1227.8 16.7 C 1226.6 15.6 1226.1 14 1226.1 12 C 1226.06 12 1226.1 1.2 1226.1 1.2 L 1227.9 1.2 C 1227.9 1.2 1227.93 12.14 1227.9 12.1 C 1227.9 13.7 1228.4 14.8 1229.2 15.6 C 1230.1 16.3 1231.2 16.7 1232.8 16.7 C 1234.3 16.7 1235.5 16.3 1236.3 15.6 C 1237.2 14.8 1237.6 13.7 1237.6 12.1 C 1237.58 12.14 1237.6 1.2 1237.6 1.2 L 1239.5 1.2 C 1239.5 1.2 1239.45 12 1239.5 12 C 1239.5 14 1238.9 15.6 1237.8 16.7 C 1236.6 17.8 1235 18.4 1232.8 18.4 C 1232.8 18.4 1232.8 18.4 1232.8 18.4 Z M 1269.7 18.4 C 1268 18.4 1266.5 18 1265.2 17.3 C 1263.9 16.6 1262.8 15.5 1262.1 14.2 C 1261.3 12.9 1260.9 11.4 1260.9 9.6 C 1260.9 7.9 1261.3 6.3 1262.1 5 C 1262.8 3.7 1263.9 2.7 1265.2 2 C 1266.5 1.2 1268 0.9 1269.7 0.9 C 1272.1 0.9 1274 1.5 1275.5 2.7 C 1275.5 2.7 1275.5 4.5 1275.5 4.5 C 1274.1 3.2 1272.2 2.6 1269.9 2.6 C 1268.5 2.6 1267.3 2.9 1266.2 3.4 C 1265.2 4 1264.3 4.8 1263.7 5.9 C 1263.1 7 1262.8 8.2 1262.8 9.6 C 1262.8 11 1263.1 12.3 1263.7 13.4 C 1264.3 14.4 1265.2 15.2 1266.3 15.8 C 1267.3 16.4 1268.5 16.7 1269.9 16.7 C 1271.1 16.7 1272.2 16.5 1273.1 16.2 C 1274 15.9 1274.9 15.4 1275.7 14.6 C 1275.7 14.6 1275.7 16.5 1275.7 16.5 C 1274.3 17.7 1272.3 18.4 1269.7 18.4 C 1269.7 18.4 1269.7 18.4 1269.7 18.4 Z M 1291.1 18.4 C 1289.5 18.4 1288 18 1286.7 17.3 C 1285.3 16.5 1284.3 15.5 1283.5 14.2 C 1282.7 12.9 1282.4 11.3 1282.4 9.6 C 1282.4 7.9 1282.7 6.4 1283.5 5.1 C 1284.3 3.7 1285.3 2.7 1286.6 2 C 1288 1.2 1289.5 0.9 1291.1 0.9 C 1292.8 0.9 1294.3 1.2 1295.6 2 C 1297 2.7 1298 3.7 1298.8 5.1 C 1299.5 6.4 1299.9 7.9 1299.9 9.6 C 1299.9 11.3 1299.5 12.9 1298.8 14.2 C 1298 15.5 1296.9 16.5 1295.6 17.3 C 1294.3 18 1292.8 18.4 1291.1 18.4 C 1291.1 18.4 1291.1 18.4 1291.1 18.4 Z M 1291.1 16.7 C 1292.4 16.7 1293.6 16.4 1294.6 15.8 C 1295.7 15.2 1296.5 14.4 1297.1 13.4 C 1297.7 12.3 1298 11 1298 9.6 C 1298 8.2 1297.7 7 1297.1 5.9 C 1296.5 4.9 1295.7 4 1294.7 3.4 C 1293.6 2.9 1292.5 2.6 1291.2 2.6 C 1289.9 2.6 1288.7 2.9 1287.7 3.4 C 1286.6 4 1285.8 4.8 1285.1 5.9 C 1284.5 7 1284.2 8.2 1284.2 9.6 C 1284.2 11 1284.5 12.3 1285.1 13.4 C 1285.7 14.4 1286.6 15.2 1287.6 15.8 C 1288.7 16.4 1289.9 16.7 1291.1 16.7 C 1291.1 16.7 1291.1 16.7 1291.1 16.7 Z M 1314.3 18.4 C 1312.1 18.4 1310.4 17.8 1309.3 16.7 C 1308.1 15.6 1307.6 14 1307.6 12 C 1307.56 12 1307.6 1.2 1307.6 1.2 L 1309.4 1.2 C 1309.4 1.2 1309.43 12.14 1309.4 12.1 C 1309.4 13.7 1309.9 14.8 1310.7 15.6 C 1311.6 16.3 1312.7 16.7 1314.3 16.7 C 1315.8 16.7 1317 16.3 1317.8 15.6 C 1318.7 14.8 1319.1 13.7 1319.1 12.1 C 1319.08 12.14 1319.1 1.2 1319.1 1.2 L 1321 1.2 C 1321 1.2 1320.95 12 1321 12 C 1321 14 1320.4 15.6 1319.3 16.7 C 1318.1 17.8 1316.5 18.4 1314.3 18.4 C 1314.3 18.4 1314.3 18.4 1314.3 18.4 Z M 1329.4 1.2 C 1329.4 1.2 1335.86 1.22 1335.9 1.2 C 1337.6 1.2 1338.9 1.6 1339.8 2.4 C 1340.7 3.3 1341.2 4.5 1341.2 6.1 C 1341.2 7.3 1340.8 8.3 1340.1 9.2 C 1339.4 10 1338.4 10.6 1337.2 10.8 C 1337.16 10.78 1341.1 18 1341.1 18 L 1339.2 18 L 1335.3 10.9 L 1331.3 10.9 L 1331.3 18 L 1329.4 18 L 1329.4 1.2 Z M 1335.6 9.3 C 1336.8 9.3 1337.7 9 1338.3 8.5 C 1339 7.9 1339.3 7.1 1339.3 6.1 C 1339.3 4.9 1339 4 1338.3 3.6 C 1337.7 3.1 1336.8 2.8 1335.6 2.8 C 1335.62 2.81 1331.3 2.8 1331.3 2.8 L 1331.3 9.3 C 1331.3 9.3 1335.62 9.29 1335.6 9.3 Z M 1349 1.2 L 1350.9 1.2 L 1350.9 18 L 1349 18 L 1349 1.2 Z M 1359.4 1.2 C 1359.4 1.2 1365.92 1.22 1365.9 1.2 C 1367.7 1.2 1369 1.6 1369.9 2.4 C 1370.8 3.3 1371.2 4.5 1371.2 6.1 C 1371.2 7.3 1370.9 8.3 1370.2 9.2 C 1369.5 10 1368.5 10.6 1367.2 10.8 C 1367.22 10.78 1371.2 18 1371.2 18 L 1369.3 18 L 1365.3 10.9 L 1361.3 10.9 L 1361.3 18 L 1359.4 18 L 1359.4 1.2 Z M 1365.7 9.3 C 1366.8 9.3 1367.7 9 1368.4 8.5 C 1369 7.9 1369.4 7.1 1369.4 6.1 C 1369.4 4.9 1369.1 4 1368.4 3.6 C 1367.8 3.1 1366.8 2.8 1365.7 2.8 C 1365.68 2.81 1361.3 2.8 1361.3 2.8 L 1361.3 9.3 C 1361.3 9.3 1365.68 9.29 1365.7 9.3 Z M 1392.4 10.1 L 1399.7 10.1 L 1399.7 11.7 L 1392.4 11.7 L 1392.4 10.1 Z M 1429.7 18.4 C 1428 18.4 1426.5 18 1425.1 17.3 C 1423.8 16.6 1422.7 15.5 1422 14.2 C 1421.2 12.9 1420.9 11.4 1420.9 9.6 C 1420.9 7.9 1421.2 6.3 1422 5 C 1422.7 3.7 1423.8 2.7 1425.1 2 C 1426.5 1.2 1428 0.9 1429.7 0.9 C 1432 0.9 1433.9 1.5 1435.4 2.7 C 1435.4 2.7 1435.4 4.5 1435.4 4.5 C 1434 3.2 1432.1 2.6 1429.8 2.6 C 1428.4 2.6 1427.2 2.9 1426.2 3.4 C 1425.1 4 1424.2 4.8 1423.6 5.9 C 1423 7 1422.7 8.2 1422.7 9.6 C 1422.7 11 1423 12.3 1423.7 13.4 C 1424.3 14.4 1425.1 15.2 1426.2 15.8 C 1427.3 16.4 1428.5 16.7 1429.8 16.7 C 1431 16.7 1432.1 16.5 1433 16.2 C 1434 15.9 1434.8 15.4 1435.6 14.6 C 1435.6 14.6 1435.6 16.5 1435.6 16.5 C 1434.2 17.7 1432.2 18.4 1429.7 18.4 C 1429.7 18.4 1429.7 18.4 1429.7 18.4 Z M 1451.1 18.4 C 1449.4 18.4 1447.9 18 1446.6 17.3 C 1445.2 16.5 1444.2 15.5 1443.4 14.2 C 1442.7 12.9 1442.3 11.3 1442.3 9.6 C 1442.3 7.9 1442.7 6.4 1443.4 5.1 C 1444.2 3.7 1445.2 2.7 1446.6 2 C 1447.9 1.2 1449.4 0.9 1451.1 0.9 C 1452.7 0.9 1454.2 1.2 1455.5 2 C 1456.9 2.7 1457.9 3.7 1458.7 5.1 C 1459.5 6.4 1459.8 7.9 1459.8 9.6 C 1459.8 11.3 1459.5 12.9 1458.7 14.2 C 1457.9 15.5 1456.9 16.5 1455.5 17.3 C 1454.2 18 1452.7 18.4 1451.1 18.4 C 1451.1 18.4 1451.1 18.4 1451.1 18.4 Z M 1451.1 16.7 C 1452.3 16.7 1453.5 16.4 1454.6 15.8 C 1455.6 15.2 1456.4 14.4 1457.1 13.4 C 1457.7 12.3 1458 11 1458 9.6 C 1458 8.2 1457.7 7 1457.1 5.9 C 1456.5 4.9 1455.6 4 1454.6 3.4 C 1453.5 2.9 1452.4 2.6 1451.1 2.6 C 1449.8 2.6 1448.6 2.9 1447.6 3.4 C 1446.5 4 1445.7 4.8 1445.1 5.9 C 1444.5 7 1444.1 8.2 1444.1 9.6 C 1444.1 11 1444.4 12.3 1445.1 13.4 C 1445.7 14.4 1446.5 15.2 1447.6 15.8 C 1448.6 16.4 1449.8 16.7 1451.1 16.7 C 1451.1 16.7 1451.1 16.7 1451.1 16.7 Z M 1474.2 18.4 C 1472 18.4 1470.3 17.8 1469.2 16.7 C 1468 15.6 1467.5 14 1467.5 12 C 1467.49 12 1467.5 1.2 1467.5 1.2 L 1469.4 1.2 C 1469.4 1.2 1469.36 12.14 1469.4 12.1 C 1469.4 13.7 1469.8 14.8 1470.6 15.6 C 1471.5 16.3 1472.7 16.7 1474.2 16.7 C 1475.7 16.7 1476.9 16.3 1477.7 15.6 C 1478.6 14.8 1479 13.7 1479 12.1 C 1479.01 12.14 1479 1.2 1479 1.2 L 1480.9 1.2 C 1480.9 1.2 1480.88 12 1480.9 12 C 1480.9 14 1480.3 15.6 1479.2 16.7 C 1478.1 17.8 1476.4 18.4 1474.2 18.4 C 1474.2 18.4 1474.2 18.4 1474.2 18.4 Z M 1489.3 1.2 C 1489.3 1.2 1495.79 1.22 1495.8 1.2 C 1497.5 1.2 1498.9 1.6 1499.8 2.4 C 1500.7 3.3 1501.1 4.5 1501.1 6.1 C 1501.1 7.3 1500.8 8.3 1500 9.2 C 1499.3 10 1498.3 10.6 1497.1 10.8 C 1497.08 10.78 1501.1 18 1501.1 18 L 1499.1 18 L 1495.2 10.9 L 1491.2 10.9 L 1491.2 18 L 1489.3 18 L 1489.3 1.2 Z M 1495.5 9.3 C 1496.7 9.3 1497.6 9 1498.3 8.5 C 1498.9 7.9 1499.2 7.1 1499.2 6.1 C 1499.2 4.9 1498.9 4 1498.3 3.6 C 1497.6 3.1 1496.7 2.8 1495.5 2.8 C 1495.55 2.81 1491.2 2.8 1491.2 2.8 L 1491.2 9.3 C 1491.2 9.3 1495.55 9.29 1495.5 9.3 Z M 1509 1.2 L 1510.8 1.2 L 1510.8 18 L 1509 18 L 1509 1.2 Z M 1519.4 1.2 C 1519.4 1.2 1525.84 1.22 1525.8 1.2 C 1527.6 1.2 1528.9 1.6 1529.8 2.4 C 1530.7 3.3 1531.2 4.5 1531.2 6.1 C 1531.2 7.3 1530.8 8.3 1530.1 9.2 C 1529.4 10 1528.4 10.6 1527.1 10.8 C 1527.14 10.78 1531.1 18 1531.1 18 L 1529.2 18 L 1525.2 10.9 L 1521.2 10.9 L 1521.2 18 L 1519.4 18 L 1519.4 1.2 Z M 1525.6 9.3 C 1526.8 9.3 1527.7 9 1528.3 8.5 C 1529 7.9 1529.3 7.1 1529.3 6.1 C 1529.3 4.9 1529 4 1528.3 3.6 C 1527.7 3.1 1526.8 2.8 1525.6 2.8 C 1525.6 2.81 1521.2 2.8 1521.2 2.8 L 1521.2 9.3 C 1521.2 9.3 1525.6 9.29 1525.6 9.3 Z M 1552.8 1.2 L 1563.6 1.2 L 1563.6 2.8 L 1554.6 2.8 L 1554.6 8.8 L 1561.3 8.8 L 1561.3 10.4 L 1554.6 10.4 L 1554.6 16.4 L 1563.6 16.4 L 1563.6 18 L 1552.8 18 L 1552.8 1.2 Z M 1575.8 2.8 L 1570.4 2.8 L 1570.4 1.2 L 1583.1 1.2 L 1583.1 2.8 L 1577.7 2.8 L 1577.7 18 L 1575.8 18 L 1575.8 2.8 Z M 1604.2 1.2 C 1604.2 1.2 1611.62 1.22 1611.6 1.2 C 1613.1 1.2 1614.2 1.6 1615 2.4 C 1615.7 3.1 1616.1 4.2 1616.1 5.7 C 1616.1 6.6 1615.9 7.3 1615.5 8 C 1615.1 8.6 1614.6 9.1 1613.9 9.4 C 1615.8 9.8 1616.7 11.2 1616.7 13.3 C 1616.7 14.3 1616.5 15.1 1616.1 15.8 C 1615.7 16.5 1615.1 17.1 1614.4 17.4 C 1613.7 17.8 1612.9 18 1612 18 C 1612.03 18 1604.2 18 1604.2 18 L 1604.2 1.2 Z M 1611.5 8.6 C 1612.4 8.6 1613.1 8.4 1613.5 7.9 C 1614 7.4 1614.2 6.7 1614.2 5.8 C 1614.2 4.7 1614 3.9 1613.5 3.5 C 1613.1 3 1612.3 2.8 1611.3 2.8 C 1611.28 2.81 1606.1 2.8 1606.1 2.8 L 1606.1 8.6 C 1606.1 8.6 1611.48 8.62 1611.5 8.6 Z M 1611.6 16.4 C 1612.7 16.4 1613.5 16.2 1614 15.7 C 1614.5 15.2 1614.8 14.4 1614.8 13.3 C 1614.8 12.2 1614.5 11.4 1614 10.9 C 1613.4 10.4 1612.5 10.2 1611.4 10.2 C 1611.36 10.2 1606.1 10.2 1606.1 10.2 L 1606.1 16.4 C 1606.1 16.4 1611.62 16.42 1611.6 16.4 Z M 1624.7 1.2 L 1626.5 1.2 L 1626.5 18 L 1624.7 18 L 1624.7 1.2 Z M 1635 1.2 L 1636.8 1.2 L 1646.1 14.8 L 1646.1 1.2 L 1648 1.2 L 1648 18 L 1646.2 18 L 1636.9 4.4 L 1636.9 18 L 1635 18 L 1635 1.2 Z M 1664.6 18.4 C 1662.9 18.4 1661.4 18 1660.1 17.3 C 1658.7 16.6 1657.7 15.5 1656.9 14.2 C 1656.2 12.9 1655.8 11.4 1655.8 9.6 C 1655.8 7.9 1656.2 6.3 1656.9 5 C 1657.7 3.7 1658.7 2.7 1660.1 2 C 1661.4 1.2 1662.9 0.9 1664.6 0.9 C 1666.9 0.9 1668.9 1.5 1670.4 2.7 C 1670.4 2.7 1670.4 4.5 1670.4 4.5 C 1668.9 3.2 1667.1 2.6 1664.8 2.6 C 1663.4 2.6 1662.2 2.9 1661.1 3.4 C 1660 4 1659.2 4.8 1658.6 5.9 C 1658 7 1657.7 8.2 1657.7 9.6 C 1657.7 11 1658 12.3 1658.6 13.4 C 1659.2 14.4 1660 15.2 1661.1 15.8 C 1662.2 16.4 1663.4 16.7 1664.7 16.7 C 1665.5 16.7 1666.3 16.6 1667 16.4 C 1667.7 16.2 1668.3 16 1668.8 15.7 C 1668.82 15.67 1668.8 10.5 1668.8 10.5 L 1665.3 10.5 L 1665.3 8.9 L 1670.7 8.9 C 1670.7 8.9 1670.69 16.46 1670.7 16.5 C 1669.9 17.1 1669 17.6 1668 17.9 C 1667 18.2 1665.9 18.4 1664.6 18.4 C 1664.6 18.4 1664.6 18.4 1664.6 18.4 Z M 1678.9 1.2 L 1689.7 1.2 L 1689.7 2.8 L 1680.7 2.8 L 1680.7 8.8 L 1687.4 8.8 L 1687.4 10.4 L 1680.7 10.4 L 1680.7 16.4 L 1689.7 16.4 L 1689.7 18 L 1678.9 18 L 1678.9 1.2 Z M 1697 1.2 C 1697 1.2 1703.47 1.22 1703.5 1.2 C 1705.2 1.2 1706.5 1.6 1707.4 2.4 C 1708.3 3.3 1708.8 4.5 1708.8 6.1 C 1708.8 7.3 1708.4 8.3 1707.7 9.2 C 1707 10 1706 10.6 1704.8 10.8 C 1704.77 10.78 1708.8 18 1708.8 18 L 1706.8 18 L 1702.9 10.9 L 1698.9 10.9 L 1698.9 18 L 1697 18 L 1697 1.2 Z M 1703.2 9.3 C 1704.4 9.3 1705.3 9 1705.9 8.5 C 1706.6 7.9 1706.9 7.1 1706.9 6.1 C 1706.9 4.9 1706.6 4 1706 3.6 C 1705.3 3.1 1704.4 2.8 1703.2 2.8 C 1703.23 2.81 1698.9 2.8 1698.9 2.8 L 1698.9 9.3 C 1698.9 9.3 1703.23 9.29 1703.2 9.3 Z " stroke="none" fill="#fafafa"/>  </g></svg>