<?xml version="1.0" standalone="no"?><!DOCTYPE svg PUBLIC "-//W3C//DTD SVG 1.1//EN" "http://www.w3.org/Graphics/SVG/1.1/DTD/svg11.dtd"><svg xmlns="http://www.w3.org/2000/svg" version="1.1" width="450px" height="286.2px" viewBox="0 -1 450 286.2" style="top:-1px">  <desc>Sur la place de son quartier, Anna passe devant un panneau de rue, le nom de la rue change pour devenir « Le Bureau d...</desc>  <defs/>  <g id="Polygon4296">    <path d="M 2.1 166 L 4.8 169.3 L 3.5 169.3 L 0.8 166 L 3.5 162.7 L 4.8 162.7 L 2.1 166 Z M 5.5 166 L 8.2 169.3 L 6.9 169.3 L 4.2 166 L 6.9 162.7 L 8.2 162.7 L 5.5 166 Z M 19.2 158.8 L 20.5 158.8 L 20.5 169.1 L 27.5 169.1 L 27.3 170.2 L 19.2 170.2 L 19.2 158.8 Z M 30.1 166.4 C 30.1 166.4 30.06 166.45 30.1 166.4 C 30.2 168.2 31.3 169.4 33 169.4 C 34.4 169.4 35.2 168.8 35.6 168 C 35.63 167.96 35.6 168 35.6 168 L 36.8 168 C 36.8 168 36.84 167.96 36.8 168 C 36.4 169.1 35.3 170.4 32.9 170.4 C 30.2 170.4 28.8 168.3 28.8 166.2 C 28.8 166.2 28.8 166.2 28.8 166.2 C 28.8 163.7 30.5 161.9 32.9 161.9 C 35.9 161.9 37 164.2 37 166.1 C 37 166.2 37 166.3 37 166.4 C 36.96 166.45 30.1 166.4 30.1 166.4 Z M 35.7 165.5 C 35.7 165.5 35.68 165.52 35.7 165.5 C 35.6 164.5 35 162.9 32.9 162.9 C 31.2 162.9 30.2 164 30.1 165.5 C 30.09 165.52 30.1 165.5 30.1 165.5 L 35.7 165.5 Z M 47.9 158.8 C 47.9 158.8 53.12 158.8 53.1 158.8 C 55.5 158.8 56.8 159.8 56.8 161.6 C 56.8 161.6 56.8 161.6 56.8 161.6 C 56.8 163.1 55.8 163.8 54.9 164.1 C 55.9 164.3 57.3 165 57.3 166.9 C 57.3 166.9 57.3 166.9 57.3 166.9 C 57.3 169.2 55.3 170.2 53.3 170.2 C 53.27 170.2 47.9 170.2 47.9 170.2 L 47.9 158.8 Z M 52.8 163.6 C 54.5 163.6 55.4 163 55.4 161.7 C 55.4 161.7 55.4 161.7 55.4 161.7 C 55.4 160.3 54.3 159.9 52.8 159.9 C 52.83 159.9 49.1 159.9 49.1 159.9 L 49.1 163.6 C 49.1 163.6 52.76 163.57 52.8 163.6 Z M 49.1 169.1 C 49.1 169.1 52.9 169.11 52.9 169.1 C 54.3 169.1 55.9 168.7 55.9 166.9 C 55.9 166.9 55.9 166.9 55.9 166.9 C 55.9 165.4 54.7 164.7 52.7 164.7 C 52.69 164.66 49.1 164.7 49.1 164.7 L 49.1 169.1 Z M 67 167.9 C 67 168.6 67 169.4 67 170.2 C 67 170.2 65.9 170.2 65.9 170.2 C 65.8 170 65.8 169.3 65.8 168.7 C 65.4 169.7 64.6 170.4 62.9 170.4 C 61.1 170.4 59.8 169.5 59.8 167.2 C 59.82 167.17 59.8 162.2 59.8 162.2 L 61 162.2 C 61 162.2 61.03 166.93 61 166.9 C 61 168.2 61.5 169.3 63.1 169.3 C 65 169.3 65.8 168.3 65.8 165.8 C 65.8 165.77 65.8 162.2 65.8 162.2 L 67 162.2 C 67 162.2 67.01 167.85 67 167.9 Z M 69.9 164.3 C 69.9 163.6 69.9 162.9 69.9 162.2 C 69.9 162.2 71.1 162.2 71.1 162.2 C 71.1 162.4 71.1 163.2 71.1 164 C 71.7 162.7 72.9 161.9 74.4 161.9 C 74.4 161.9 74.4 163.1 74.4 163.1 C 72.6 163.1 71.1 164.3 71.1 166.7 C 71.13 166.72 71.1 170.2 71.1 170.2 L 69.9 170.2 C 69.9 170.2 69.92 164.34 69.9 164.3 Z M 76.8 166.4 C 76.8 166.4 76.82 166.45 76.8 166.4 C 76.9 168.2 78 169.4 79.8 169.4 C 81.2 169.4 81.9 168.8 82.4 168 C 82.39 167.96 82.4 168 82.4 168 L 83.6 168 C 83.6 168 83.6 167.96 83.6 168 C 83.2 169.1 82.1 170.4 79.7 170.4 C 76.9 170.4 75.6 168.3 75.6 166.2 C 75.6 166.2 75.6 166.2 75.6 166.2 C 75.6 163.7 77.2 161.9 79.7 161.9 C 82.7 161.9 83.7 164.2 83.7 166.1 C 83.7 166.2 83.7 166.3 83.7 166.4 C 83.72 166.45 76.8 166.4 76.8 166.4 Z M 82.4 165.5 C 82.4 165.5 82.44 165.52 82.4 165.5 C 82.4 164.5 81.8 162.9 79.7 162.9 C 77.9 162.9 77 164 76.9 165.5 C 76.85 165.52 76.9 165.5 76.9 165.5 L 82.4 165.5 Z M 92.9 168.3 C 92.9 169 92.9 170 93 170.2 C 93 170.2 91.8 170.2 91.8 170.2 C 91.7 169.9 91.7 169.2 91.7 168.9 C 91.3 169.8 90.4 170.4 88.6 170.4 C 86.3 170.4 85.5 169 85.5 167.9 C 85.5 167.9 85.5 167.9 85.5 167.9 C 85.5 165.8 87.4 165.2 89.7 165.2 C 90.7 165.2 91.4 165.2 91.7 165.2 C 91.7 165.2 91.7 164.8 91.7 164.8 C 91.7 163.8 91.3 162.9 89.4 162.9 C 87.8 162.9 87.4 163.7 87.2 164.5 C 87.18 164.48 87.2 164.5 87.2 164.5 L 86 164.5 C 86 164.5 85.97 164.48 86 164.5 C 86.1 163.4 86.8 161.9 89.4 161.9 C 92.2 161.9 92.9 163.3 92.9 164.6 C 92.9 164.6 92.9 168.3 92.9 168.3 Z M 91.7 166.2 C 91.4 166.2 90.9 166.2 89.7 166.2 C 87.7 166.2 86.7 166.6 86.7 167.8 C 86.7 167.8 86.7 167.8 86.7 167.8 C 86.7 168.7 87.4 169.4 88.8 169.4 C 91.2 169.4 91.7 168 91.7 166.6 C 91.7 166.6 91.7 166.2 91.7 166.2 Z M 102.9 167.9 C 102.9 168.6 102.9 169.4 102.9 170.2 C 102.9 170.2 101.8 170.2 101.8 170.2 C 101.7 170 101.7 169.3 101.7 168.7 C 101.3 169.7 100.5 170.4 98.8 170.4 C 97 170.4 95.7 169.5 95.7 167.2 C 95.72 167.17 95.7 162.2 95.7 162.2 L 96.9 162.2 C 96.9 162.2 96.93 166.93 96.9 166.9 C 96.9 168.2 97.4 169.3 99 169.3 C 100.9 169.3 101.7 168.3 101.7 165.8 C 101.69 165.77 101.7 162.2 101.7 162.2 L 102.9 162.2 C 102.9 162.2 102.9 167.85 102.9 167.9 Z M 121.7 158.1 C 121.7 158.1 121.71 167.84 121.7 167.8 C 121.7 168.6 121.7 169.4 121.7 170.2 C 121.7 170.2 120.6 170.2 120.6 170.2 C 120.5 169.8 120.5 169.3 120.5 168.9 C 120.1 169.6 119.4 170.4 117.5 170.4 C 115.1 170.4 113.6 168.7 113.6 166.2 C 113.6 166.2 113.6 166.2 113.6 166.2 C 113.6 163.6 115.5 161.9 117.6 161.9 C 119.6 161.9 120.3 162.9 120.5 163.3 C 120.5 163.29 120.5 158.1 120.5 158.1 L 121.7 158.1 Z M 114.8 166.2 C 114.8 166.2 114.8 166.2 114.8 166.2 C 114.8 167.8 115.8 169.4 117.7 169.4 C 119.7 169.4 120.6 168 120.6 166.1 C 120.6 166.1 120.6 166.1 120.6 166.1 C 120.6 164.3 119.9 163 117.7 163 C 115.8 163 114.8 164.6 114.8 166.2 Z M 125.3 166.4 C 125.3 166.4 125.31 166.45 125.3 166.4 C 125.4 168.2 126.5 169.4 128.3 169.4 C 129.6 169.4 130.4 168.8 130.9 168 C 130.88 167.96 130.9 168 130.9 168 L 132.1 168 C 132.1 168 132.09 167.96 132.1 168 C 131.7 169.1 130.6 170.4 128.2 170.4 C 125.4 170.4 124.1 168.3 124.1 166.2 C 124.1 166.2 124.1 166.2 124.1 166.2 C 124.1 163.7 125.7 161.9 128.2 161.9 C 131.2 161.9 132.2 164.2 132.2 166.1 C 132.2 166.2 132.2 166.3 132.2 166.4 C 132.21 166.45 125.3 166.4 125.3 166.4 Z M 130.9 165.5 C 130.9 165.5 130.93 165.52 130.9 165.5 C 130.9 164.5 130.3 162.9 128.1 162.9 C 126.4 162.9 125.5 164 125.3 165.5 C 125.34 165.52 125.3 165.5 125.3 165.5 L 130.9 165.5 Z M 135.1 167.8 C 135.1 167.8 135.13 167.77 135.1 167.8 C 135.4 168.8 136.3 169.4 137.9 169.4 C 139.6 169.4 140.2 168.8 140.2 168 C 140.2 167.3 139.8 166.8 137.6 166.5 C 134.9 166.2 134.3 165.2 134.3 164.2 C 134.3 163.2 135.1 161.9 137.6 161.9 C 140.4 161.9 141.1 163.4 141.2 164.3 C 141.18 164.3 141.2 164.3 141.2 164.3 L 139.9 164.3 C 139.9 164.3 139.95 164.3 139.9 164.3 C 139.8 163.8 139.5 162.9 137.5 162.9 C 135.9 162.9 135.5 163.6 135.5 164.1 C 135.5 164.8 135.9 165.2 137.9 165.5 C 140.8 165.8 141.4 166.7 141.4 167.9 C 141.4 169.4 140.3 170.4 137.8 170.4 C 135.5 170.4 134.2 169.4 133.9 167.8 C 133.9 167.77 133.9 167.8 133.9 167.8 L 135.1 167.8 Z M 152.4 158.8 L 153.7 158.8 L 153.7 169.1 L 160.7 169.1 L 160.5 170.2 L 152.4 170.2 L 152.4 158.8 Z M 163.2 166.4 C 163.2 166.4 163.24 166.45 163.2 166.4 C 163.3 168.2 164.5 169.4 166.2 169.4 C 167.6 169.4 168.3 168.8 168.8 168 C 168.81 167.96 168.8 168 168.8 168 L 170 168 C 170 168 170.02 167.96 170 168 C 169.6 169.1 168.5 170.4 166.1 170.4 C 163.4 170.4 162 168.3 162 166.2 C 162 166.2 162 166.2 162 166.2 C 162 163.7 163.7 161.9 166.1 161.9 C 169.1 161.9 170.1 164.2 170.1 166.1 C 170.1 166.2 170.1 166.3 170.1 166.4 C 170.14 166.45 163.2 166.4 163.2 166.4 Z M 168.9 165.5 C 168.9 165.5 168.87 165.52 168.9 165.5 C 168.8 164.5 168.2 162.9 166.1 162.9 C 164.3 162.9 163.4 164 163.3 165.5 C 163.28 165.52 163.3 165.5 163.3 165.5 L 168.9 165.5 Z M 168.7 158 L 166.2 160.6 L 165 160.6 L 167.2 158 L 168.7 158 Z M 180.1 169.1 C 180.1 172.2 179.2 174 175.9 174 C 172.9 174 172.2 172.2 172.1 171.3 C 172.07 171.26 172.1 171.3 172.1 171.3 L 173.3 171.3 C 173.3 171.3 173.31 171.26 173.3 171.3 C 173.6 172.2 174.2 173 176 173 C 178.5 173 178.9 171.3 178.9 169.2 C 178.9 169.2 178.9 168.7 178.9 168.7 C 178.4 169.7 177.5 170.3 175.8 170.3 C 173.6 170.3 172 168.6 172 166.3 C 172 166.3 172 166.3 172 166.3 C 172 163.7 173.9 161.9 176 161.9 C 177.9 161.9 178.7 162.8 178.9 163.5 C 178.9 163.1 179 162.4 179 162.2 C 179 162.2 180.1 162.2 180.1 162.2 C 180.1 162.9 180.1 163.7 180.1 164.5 C 180.1 164.5 180.1 169.1 180.1 169.1 Z M 173.2 166.2 C 173.2 166.2 173.2 166.2 173.2 166.2 C 173.2 168 174.4 169.3 176.1 169.3 C 177.9 169.3 179 168.2 179 166.1 C 179 166.1 179 166.1 179 166.1 C 179 164.1 177.9 163 176.2 163 C 174.1 163 173.2 164.6 173.2 166.2 Z M 183.7 166.4 C 183.7 166.4 183.73 166.45 183.7 166.4 C 183.8 168.2 185 169.4 186.7 169.4 C 188.1 169.4 188.8 168.8 189.3 168 C 189.3 167.96 189.3 168 189.3 168 L 190.5 168 C 190.5 168 190.51 167.96 190.5 168 C 190.1 169.1 189 170.4 186.6 170.4 C 183.9 170.4 182.5 168.3 182.5 166.2 C 182.5 166.2 182.5 166.2 182.5 166.2 C 182.5 163.7 184.2 161.9 186.6 161.9 C 189.6 161.9 190.6 164.2 190.6 166.1 C 190.6 166.2 190.6 166.3 190.6 166.4 C 190.63 166.45 183.7 166.4 183.7 166.4 Z M 189.4 165.5 C 189.4 165.5 189.35 165.52 189.4 165.5 C 189.3 164.5 188.7 162.9 186.6 162.9 C 184.8 162.9 183.9 164 183.8 165.5 C 183.77 165.52 183.8 165.5 183.8 165.5 L 189.4 165.5 Z M 193 164.2 C 193 163.5 193 162.8 193 162.2 C 193 162.2 194.1 162.2 194.1 162.2 C 194.2 162.4 194.2 163.2 194.2 163.8 C 194.5 162.9 195.4 161.9 197.2 161.9 C 199 161.9 200.3 163.1 200.3 165.3 C 200.28 165.32 200.3 170.2 200.3 170.2 L 199.1 170.2 C 199.1 170.2 199.07 165.55 199.1 165.6 C 199.1 164.1 198.5 163 196.9 163 C 195.1 163 194.2 164.4 194.2 166.4 C 194.2 166.39 194.2 170.2 194.2 170.2 L 193 170.2 C 193 170.2 192.99 164.18 193 164.2 Z M 210.8 158.1 C 210.8 158.1 210.77 167.84 210.8 167.8 C 210.8 168.6 210.8 169.4 210.8 170.2 C 210.8 170.2 209.6 170.2 209.6 170.2 C 209.6 169.8 209.6 169.3 209.6 168.9 C 209.2 169.6 208.4 170.4 206.5 170.4 C 204.2 170.4 202.6 168.7 202.6 166.2 C 202.6 166.2 202.6 166.2 202.6 166.2 C 202.6 163.6 204.6 161.9 206.7 161.9 C 208.7 161.9 209.3 162.9 209.6 163.3 C 209.56 163.29 209.6 158.1 209.6 158.1 L 210.8 158.1 Z M 203.9 166.2 C 203.9 166.2 203.9 166.2 203.9 166.2 C 203.9 167.8 204.8 169.4 206.7 169.4 C 208.8 169.4 209.6 168 209.6 166.1 C 209.6 166.1 209.6 166.1 209.6 166.1 C 209.6 164.3 209 163 206.8 163 C 204.8 163 203.9 164.6 203.9 166.2 Z M 214.4 166.4 C 214.4 166.4 214.36 166.45 214.4 166.4 C 214.5 168.2 215.6 169.4 217.4 169.4 C 218.7 169.4 219.5 168.8 219.9 168 C 219.94 167.96 219.9 168 219.9 168 L 221.1 168 C 221.1 168 221.14 167.96 221.1 168 C 220.7 169.1 219.6 170.4 217.3 170.4 C 214.5 170.4 213.1 168.3 213.1 166.2 C 213.1 166.2 213.1 166.2 213.1 166.2 C 213.1 163.7 214.8 161.9 217.2 161.9 C 220.2 161.9 221.3 164.2 221.3 166.1 C 221.3 166.2 221.3 166.3 221.3 166.4 C 221.26 166.45 214.4 166.4 214.4 166.4 Z M 220 165.5 C 220 165.5 219.99 165.52 220 165.5 C 219.9 164.5 219.4 162.9 217.2 162.9 C 215.5 162.9 214.6 164 214.4 165.5 C 214.4 165.52 214.4 165.5 214.4 165.5 L 220 165.5 Z M 224.2 167.8 C 224.2 167.8 224.19 167.77 224.2 167.8 C 224.5 168.8 225.4 169.4 227 169.4 C 228.6 169.4 229.3 168.8 229.3 168 C 229.3 167.3 228.8 166.8 226.7 166.5 C 223.9 166.2 223.4 165.2 223.4 164.2 C 223.4 163.2 224.2 161.9 226.7 161.9 C 229.4 161.9 230.2 163.4 230.2 164.3 C 230.23 164.3 230.2 164.3 230.2 164.3 L 229 164.3 C 229 164.3 229 164.3 229 164.3 C 228.9 163.8 228.5 162.9 226.6 162.9 C 224.9 162.9 224.6 163.6 224.6 164.1 C 224.6 164.8 225 165.2 226.9 165.5 C 229.9 165.8 230.5 166.7 230.5 167.9 C 230.5 169.4 229.4 170.4 226.9 170.4 C 224.5 170.4 223.2 169.4 223 167.8 C 222.96 167.77 223 167.8 223 167.8 L 224.2 167.8 Z M 241.9 166.9 C 241.9 166.9 241.92 166.92 241.9 166.9 C 242.4 168.3 243.4 169.4 245.7 169.4 C 248.1 169.4 249.1 168.4 249.1 167.3 C 249.1 166 248.4 165.3 245.3 164.8 C 242 164.2 241.2 163.2 241.2 161.6 C 241.2 159.7 243 158.6 245.4 158.6 C 249.1 158.6 249.9 160.5 250 161.6 C 250.03 161.59 250 161.6 250 161.6 L 248.7 161.6 C 248.7 161.6 248.72 161.59 248.7 161.6 C 248.5 160.8 248 159.6 245.4 159.6 C 243.7 159.6 242.5 160.2 242.5 161.5 C 242.5 162.5 243 163.2 245.7 163.6 C 249.7 164.3 250.4 165.6 250.4 167.1 C 250.4 168.9 249 170.4 245.7 170.4 C 242.6 170.4 241 169 240.6 166.9 C 240.6 166.92 240.6 166.9 240.6 166.9 L 241.9 166.9 Z M 259.8 168.3 C 259.8 169 259.9 170 259.9 170.2 C 259.9 170.2 258.8 170.2 258.8 170.2 C 258.7 169.9 258.7 169.2 258.7 168.9 C 258.2 169.8 257.3 170.4 255.6 170.4 C 253.3 170.4 252.5 169 252.5 167.9 C 252.5 167.9 252.5 167.9 252.5 167.9 C 252.5 165.8 254.3 165.2 256.6 165.2 C 257.7 165.2 258.4 165.2 258.7 165.2 C 258.7 165.2 258.7 164.8 258.7 164.8 C 258.7 163.8 258.2 162.9 256.4 162.9 C 254.7 162.9 254.3 163.7 254.1 164.5 C 254.13 164.48 254.1 164.5 254.1 164.5 L 252.9 164.5 C 252.9 164.5 252.92 164.48 252.9 164.5 C 253 163.4 253.7 161.9 256.4 161.9 C 259.1 161.9 259.8 163.3 259.8 164.6 C 259.8 164.6 259.8 168.3 259.8 168.3 Z M 258.7 166.2 C 258.4 166.2 257.8 166.2 256.6 166.2 C 254.6 166.2 253.7 166.6 253.7 167.8 C 253.7 167.8 253.7 167.8 253.7 167.8 C 253.7 168.7 254.3 169.4 255.8 169.4 C 258.1 169.4 258.7 168 258.7 166.6 C 258.7 166.6 258.7 166.2 258.7 166.2 Z M 262.7 162.2 L 264 162.2 L 264 170.2 L 262.7 170.2 L 262.7 162.2 Z M 262.7 158.1 L 264 158.1 L 264 159.9 L 262.7 159.9 L 262.7 158.1 Z M 267.4 167.8 C 267.4 167.8 267.39 167.77 267.4 167.8 C 267.7 168.8 268.6 169.4 270.2 169.4 C 271.8 169.4 272.5 168.8 272.5 168 C 272.5 167.3 272 166.8 269.9 166.5 C 267.1 166.2 266.6 165.2 266.6 164.2 C 266.6 163.2 267.4 161.9 269.9 161.9 C 272.6 161.9 273.4 163.4 273.4 164.3 C 273.43 164.3 273.4 164.3 273.4 164.3 L 272.2 164.3 C 272.2 164.3 272.2 164.3 272.2 164.3 C 272.1 163.8 271.7 162.9 269.8 162.9 C 268.1 162.9 267.8 163.6 267.8 164.1 C 267.8 164.8 268.2 165.2 270.1 165.5 C 273.1 165.8 273.7 166.7 273.7 167.9 C 273.7 169.4 272.6 170.4 270.1 170.4 C 267.7 170.4 266.4 169.4 266.2 167.8 C 266.16 167.77 266.2 167.8 266.2 167.8 L 267.4 167.8 Z M 283.9 166.2 C 283.9 166.2 283.9 166.2 283.9 166.2 C 283.9 168.3 282.5 170.4 279.7 170.4 C 277 170.4 275.5 168.4 275.5 166.2 C 275.5 166.2 275.5 166.2 275.5 166.2 C 275.5 163.9 277.1 161.9 279.7 161.9 C 282.4 161.9 283.9 164 283.9 166.2 Z M 276.7 166.2 C 276.7 166.2 276.7 166.2 276.7 166.2 C 276.7 167.8 277.8 169.4 279.7 169.4 C 281.7 169.4 282.6 167.9 282.6 166.2 C 282.6 166.2 282.6 166.2 282.6 166.2 C 282.6 164.5 281.6 163 279.7 163 C 277.7 163 276.7 164.5 276.7 166.2 Z M 286.3 164.2 C 286.3 163.5 286.3 162.8 286.2 162.2 C 286.2 162.2 287.4 162.2 287.4 162.2 C 287.4 162.4 287.5 163.2 287.5 163.8 C 287.8 162.9 288.7 161.9 290.5 161.9 C 292.3 161.9 293.6 163.1 293.6 165.3 C 293.55 165.32 293.6 170.2 293.6 170.2 L 292.3 170.2 C 292.3 170.2 292.34 165.55 292.3 165.6 C 292.3 164.1 291.8 163 290.2 163 C 288.4 163 287.5 164.4 287.5 166.4 C 287.47 166.39 287.5 170.2 287.5 170.2 L 286.3 170.2 C 286.3 170.2 286.26 164.18 286.3 164.2 Z M 306.7 170.2 C 306.7 170.2 306.71 160.93 306.7 160.9 C 306.1 161.4 304.7 162 304.1 162.1 C 304.1 162.1 304.1 161.1 304.1 161.1 C 305.3 160.7 306.4 160 307 159.3 C 307 159.35 307.9 159.3 307.9 159.3 L 307.9 170.2 L 306.7 170.2 Z M 325.1 166 L 322.3 162.7 L 323.6 162.7 L 326.3 166 L 323.6 169.3 L 322.4 169.3 L 325.1 166 Z M 321.7 166 L 318.9 162.7 L 320.2 162.7 L 323 166 L 320.2 169.3 L 319 169.3 L 321.7 166 Z M 328.2 170.2 L 328.2 167.8 L 329.5 167.8 L 329.5 170.2 L 328.2 170.2 Z " stroke="none" fill="#141414"/>  </g>  <g id="Polygon4295">    <path d="M 2.6 144.6 C 2.56 144.57 2.6 149.4 2.6 149.4 L 1.4 149.4 C 1.4 149.4 1.35 139.85 1.4 139.8 C 1.4 139.2 1.4 138.5 1.3 137.8 C 1.3 137.8 2.5 137.8 2.5 137.8 C 2.5 138.1 2.6 138.6 2.6 139.3 C 3 138.4 4 137.6 5.7 137.6 C 7.9 137.6 9.5 139.4 9.5 141.7 C 9.5 141.7 9.5 141.7 9.5 141.7 C 9.5 144.3 7.7 146.1 5.5 146.1 C 3.7 146.1 3 145.3 2.6 144.6 Z M 8.2 141.8 C 8.2 141.8 8.2 141.8 8.2 141.8 C 8.2 140.3 7.4 138.7 5.4 138.7 C 3.4 138.7 2.5 140.1 2.5 141.9 C 2.5 141.9 2.5 141.9 2.5 141.9 C 2.5 143.7 3.5 145 5.4 145 C 7.3 145 8.2 143.5 8.2 141.8 Z M 18.7 144 C 18.7 144.7 18.7 145.7 18.8 145.9 C 18.8 145.9 17.6 145.9 17.6 145.9 C 17.5 145.6 17.5 144.9 17.5 144.6 C 17.1 145.5 16.2 146.1 14.4 146.1 C 12.1 146.1 11.3 144.7 11.3 143.5 C 11.3 143.5 11.3 143.5 11.3 143.5 C 11.3 141.5 13.2 140.9 15.5 140.9 C 16.5 140.9 17.2 140.9 17.5 140.9 C 17.5 140.9 17.5 140.4 17.5 140.4 C 17.5 139.5 17.1 138.6 15.2 138.6 C 13.6 138.6 13.2 139.3 13 140.2 C 12.98 140.16 13 140.2 13 140.2 L 11.8 140.2 C 11.8 140.2 11.77 140.16 11.8 140.2 C 11.9 139.1 12.6 137.6 15.2 137.6 C 18 137.6 18.7 139 18.7 140.3 C 18.7 140.3 18.7 144 18.7 144 Z M 17.5 141.8 C 17.2 141.8 16.7 141.8 15.5 141.8 C 13.5 141.8 12.5 142.3 12.5 143.5 C 12.5 143.5 12.5 143.5 12.5 143.5 C 12.5 144.4 13.2 145.1 14.6 145.1 C 17 145.1 17.5 143.7 17.5 142.3 C 17.5 142.3 17.5 141.8 17.5 141.8 Z M 21.6 139.9 C 21.6 139.2 21.6 138.4 21.6 137.8 C 21.6 137.8 22.7 137.8 22.7 137.8 C 22.8 138.1 22.8 138.8 22.8 139.5 C 23.1 138.6 24 137.6 25.8 137.6 C 27.6 137.6 28.9 138.8 28.9 141 C 28.89 141 28.9 145.9 28.9 145.9 L 27.7 145.9 C 27.7 145.9 27.67 141.23 27.7 141.2 C 27.7 139.8 27.1 138.7 25.5 138.7 C 23.7 138.7 22.8 140.1 22.8 142.1 C 22.8 142.07 22.8 145.9 22.8 145.9 L 21.6 145.9 C 21.6 145.9 21.59 139.86 21.6 139.9 Z M 31.8 139.9 C 31.8 139.2 31.8 138.4 31.8 137.8 C 31.8 137.8 32.9 137.8 32.9 137.8 C 33 138.1 33 138.8 33 139.5 C 33.3 138.6 34.2 137.6 36 137.6 C 37.8 137.6 39.1 138.8 39.1 141 C 39.07 141 39.1 145.9 39.1 145.9 L 37.9 145.9 C 37.9 145.9 37.85 141.23 37.9 141.2 C 37.9 139.8 37.3 138.7 35.7 138.7 C 33.9 138.7 33 140.1 33 142.1 C 32.98 142.07 33 145.9 33 145.9 L 31.8 145.9 C 31.8 145.9 31.77 139.86 31.8 139.9 Z M 42.6 142.1 C 42.6 142.1 42.62 142.13 42.6 142.1 C 42.7 143.8 43.9 145.1 45.6 145.1 C 47 145.1 47.7 144.5 48.2 143.6 C 48.19 143.64 48.2 143.6 48.2 143.6 L 49.4 143.6 C 49.4 143.6 49.4 143.64 49.4 143.6 C 49 144.8 47.9 146.1 45.5 146.1 C 42.8 146.1 41.4 144 41.4 141.9 C 41.4 141.9 41.4 141.9 41.4 141.9 C 41.4 139.4 43 137.6 45.5 137.6 C 48.5 137.6 49.5 139.9 49.5 141.8 C 49.5 141.9 49.5 142 49.5 142.1 C 49.52 142.13 42.6 142.1 42.6 142.1 Z M 48.2 141.2 C 48.2 141.2 48.24 141.2 48.2 141.2 C 48.2 140.1 47.6 138.6 45.5 138.6 C 43.7 138.6 42.8 139.7 42.7 141.2 C 42.66 141.2 42.7 141.2 42.7 141.2 L 48.2 141.2 Z M 58.7 144 C 58.7 144.7 58.7 145.7 58.8 145.9 C 58.8 145.9 57.6 145.9 57.6 145.9 C 57.6 145.6 57.5 144.9 57.5 144.6 C 57.1 145.5 56.2 146.1 54.4 146.1 C 52.1 146.1 51.3 144.7 51.3 143.5 C 51.3 143.5 51.3 143.5 51.3 143.5 C 51.3 141.5 53.2 140.9 55.5 140.9 C 56.5 140.9 57.2 140.9 57.5 140.9 C 57.5 140.9 57.5 140.4 57.5 140.4 C 57.5 139.5 57.1 138.6 55.2 138.6 C 53.6 138.6 53.2 139.3 53 140.2 C 52.99 140.16 53 140.2 53 140.2 L 51.8 140.2 C 51.8 140.2 51.78 140.16 51.8 140.2 C 51.9 139.1 52.6 137.6 55.2 137.6 C 58 137.6 58.7 139 58.7 140.3 C 58.7 140.3 58.7 144 58.7 144 Z M 57.5 141.8 C 57.2 141.8 56.7 141.8 55.5 141.8 C 53.5 141.8 52.5 142.3 52.5 143.5 C 52.5 143.5 52.5 143.5 52.5 143.5 C 52.5 144.4 53.2 145.1 54.6 145.1 C 57 145.1 57.5 143.7 57.5 142.3 C 57.5 142.3 57.5 141.8 57.5 141.8 Z M 68.7 143.5 C 68.7 144.3 68.7 145.1 68.7 145.9 C 68.7 145.9 67.6 145.9 67.6 145.9 C 67.5 145.7 67.5 145 67.5 144.4 C 67.1 145.4 66.3 146.1 64.6 146.1 C 62.8 146.1 61.5 145.2 61.5 142.8 C 61.52 142.85 61.5 137.8 61.5 137.8 L 62.7 137.8 C 62.7 137.8 62.73 142.61 62.7 142.6 C 62.7 143.9 63.2 145 64.8 145 C 66.7 145 67.5 143.9 67.5 141.4 C 67.5 141.45 67.5 137.8 67.5 137.8 L 68.7 137.8 C 68.7 137.8 68.7 143.53 68.7 143.5 Z M 85.4 133.8 C 85.4 133.8 85.39 143.52 85.4 143.5 C 85.4 144.3 85.4 145.1 85.4 145.9 C 85.4 145.9 84.2 145.9 84.2 145.9 C 84.2 145.5 84.2 145 84.2 144.6 C 83.8 145.3 83.1 146.1 81.1 146.1 C 78.8 146.1 77.2 144.3 77.2 141.9 C 77.2 141.9 77.2 141.9 77.2 141.9 C 77.2 139.3 79.2 137.6 81.3 137.6 C 83.3 137.6 84 138.6 84.2 139 C 84.18 138.97 84.2 133.8 84.2 133.8 L 85.4 133.8 Z M 78.5 141.9 C 78.5 141.9 78.5 141.9 78.5 141.9 C 78.5 143.4 79.4 145.1 81.3 145.1 C 83.4 145.1 84.2 143.7 84.2 141.8 C 84.2 141.8 84.2 141.8 84.2 141.8 C 84.2 139.9 83.6 138.7 81.4 138.7 C 79.4 138.7 78.5 140.3 78.5 141.9 Z M 89 142.1 C 89 142.1 88.98 142.13 89 142.1 C 89.1 143.8 90.2 145.1 92 145.1 C 93.3 145.1 94.1 144.5 94.6 143.6 C 94.55 143.64 94.6 143.6 94.6 143.6 L 95.8 143.6 C 95.8 143.6 95.76 143.64 95.8 143.6 C 95.3 144.8 94.2 146.1 91.9 146.1 C 89.1 146.1 87.8 144 87.8 141.9 C 87.8 141.9 87.8 141.9 87.8 141.9 C 87.8 139.4 89.4 137.6 91.8 137.6 C 94.9 137.6 95.9 139.9 95.9 141.8 C 95.9 141.9 95.9 142 95.9 142.1 C 95.88 142.13 89 142.1 89 142.1 Z M 94.6 141.2 C 94.6 141.2 94.6 141.2 94.6 141.2 C 94.5 140.1 94 138.6 91.8 138.6 C 90.1 138.6 89.2 139.7 89 141.2 C 89.02 141.2 89 141.2 89 141.2 L 94.6 141.2 Z M 104.4 140 C 104.4 139.3 104.4 138.6 104.4 137.8 C 104.4 137.8 105.5 137.8 105.5 137.8 C 105.5 138.1 105.6 138.9 105.6 139.7 C 106.1 138.4 107.3 137.6 108.9 137.6 C 108.9 137.6 108.9 138.8 108.9 138.8 C 107 138.8 105.6 140 105.6 142.4 C 105.58 142.4 105.6 145.9 105.6 145.9 L 104.4 145.9 C 104.4 145.9 104.37 140.02 104.4 140 Z M 118 143.5 C 118 144.3 118 145.1 118 145.9 C 118 145.9 116.9 145.9 116.9 145.9 C 116.8 145.7 116.8 145 116.8 144.4 C 116.4 145.4 115.6 146.1 113.9 146.1 C 112.2 146.1 110.8 145.2 110.8 142.8 C 110.83 142.85 110.8 137.8 110.8 137.8 L 112 137.8 C 112 137.8 112.04 142.61 112 142.6 C 112 143.9 112.5 145 114.1 145 C 116 145 116.8 143.9 116.8 141.4 C 116.8 141.45 116.8 137.8 116.8 137.8 L 118 137.8 C 118 137.8 118.01 143.53 118 143.5 Z M 121.6 142.1 C 121.6 142.1 121.61 142.13 121.6 142.1 C 121.7 143.8 122.8 145.1 124.6 145.1 C 125.9 145.1 126.7 144.5 127.2 143.6 C 127.18 143.64 127.2 143.6 127.2 143.6 L 128.4 143.6 C 128.4 143.6 128.38 143.64 128.4 143.6 C 128 144.8 126.9 146.1 124.5 146.1 C 121.7 146.1 120.4 144 120.4 141.9 C 120.4 141.9 120.4 141.9 120.4 141.9 C 120.4 139.4 122 137.6 124.5 137.6 C 127.5 137.6 128.5 139.9 128.5 141.8 C 128.5 141.9 128.5 142 128.5 142.1 C 128.5 142.13 121.6 142.1 121.6 142.1 Z M 127.2 141.2 C 127.2 141.2 127.23 141.2 127.2 141.2 C 127.2 140.1 126.6 138.6 124.4 138.6 C 122.7 138.6 121.8 139.7 121.6 141.2 C 121.64 141.2 121.6 141.2 121.6 141.2 L 127.2 141.2 Z M 129.6 148.2 C 130.5 146.3 130.9 144.9 131 143.5 C 131 143.5 132.2 143.5 132.2 143.5 C 132.1 144.7 131.6 146.8 130.7 148.2 C 130.7 148.2 129.6 148.2 129.6 148.2 Z M 141.1 145.9 L 141.1 133.8 L 142.3 133.8 L 142.3 145.9 L 141.1 145.9 Z M 145.9 142.1 C 145.9 142.1 145.87 142.13 145.9 142.1 C 146 143.8 147.1 145.1 148.9 145.1 C 150.2 145.1 151 144.5 151.4 143.6 C 151.44 143.64 151.4 143.6 151.4 143.6 L 152.7 143.6 C 152.7 143.6 152.65 143.64 152.7 143.6 C 152.2 144.8 151.1 146.1 148.8 146.1 C 146 146.1 144.7 144 144.7 141.9 C 144.7 141.9 144.7 141.9 144.7 141.9 C 144.7 139.4 146.3 137.6 148.7 137.6 C 151.8 137.6 152.8 139.9 152.8 141.8 C 152.8 141.9 152.8 142 152.8 142.1 C 152.77 142.13 145.9 142.1 145.9 142.1 Z M 151.5 141.2 C 151.5 141.2 151.5 141.2 151.5 141.2 C 151.4 140.1 150.9 138.6 148.7 138.6 C 147 138.6 146.1 139.7 145.9 141.2 C 145.91 141.2 145.9 141.2 145.9 141.2 L 151.5 141.2 Z M 161.3 139.9 C 161.3 139.2 161.3 138.4 161.2 137.8 C 161.2 137.8 162.4 137.8 162.4 137.8 C 162.4 138.1 162.5 138.8 162.5 139.5 C 162.8 138.6 163.7 137.6 165.5 137.6 C 167.3 137.6 168.6 138.8 168.6 141 C 168.55 141 168.6 145.9 168.6 145.9 L 167.3 145.9 C 167.3 145.9 167.34 141.23 167.3 141.2 C 167.3 139.8 166.8 138.7 165.2 138.7 C 163.4 138.7 162.5 140.1 162.5 142.1 C 162.47 142.07 162.5 145.9 162.5 145.9 L 161.3 145.9 C 161.3 145.9 161.26 139.86 161.3 139.9 Z M 179.3 141.9 C 179.3 141.9 179.3 141.9 179.3 141.9 C 179.3 144 177.9 146.1 175 146.1 C 172.4 146.1 170.9 144.1 170.9 141.9 C 170.9 141.9 170.9 141.9 170.9 141.9 C 170.9 139.5 172.5 137.6 175.1 137.6 C 177.8 137.6 179.3 139.7 179.3 141.9 Z M 172.1 141.9 C 172.1 141.9 172.1 141.9 172.1 141.9 C 172.1 143.5 173.2 145.1 175.1 145.1 C 177.1 145.1 178 143.6 178 141.9 C 178 141.9 178 141.9 178 141.9 C 178 140.1 176.9 138.6 175 138.6 C 173.1 138.6 172.1 140.1 172.1 141.9 Z M 181.7 139.9 C 181.7 139.2 181.7 138.5 181.6 137.8 C 181.6 137.8 182.8 137.8 182.8 137.8 C 182.8 138.2 182.9 138.6 182.8 139.1 C 183.3 138.4 184 137.6 185.5 137.6 C 186.8 137.6 187.6 138.2 188 139.2 C 188.4 138.5 189.2 137.6 190.8 137.6 C 192.3 137.6 193.6 138.5 193.6 140.9 C 193.6 140.87 193.6 145.9 193.6 145.9 L 192.4 145.9 C 192.4 145.9 192.4 140.93 192.4 140.9 C 192.4 139.9 192.1 138.7 190.5 138.7 C 189.1 138.7 188.2 139.6 188.2 141.5 C 188.23 141.48 188.2 145.9 188.2 145.9 L 187 145.9 C 187 145.9 187.03 140.84 187 140.8 C 187 139.8 186.7 138.7 185.1 138.7 C 183.5 138.7 182.9 140 182.9 141.6 C 182.85 141.62 182.9 145.9 182.9 145.9 L 181.7 145.9 C 181.7 145.9 181.65 139.91 181.7 139.9 Z M 210.3 133.8 C 210.3 133.8 210.28 143.52 210.3 143.5 C 210.3 144.3 210.3 145.1 210.3 145.9 C 210.3 145.9 209.1 145.9 209.1 145.9 C 209.1 145.5 209.1 145 209.1 144.6 C 208.7 145.3 208 146.1 206 146.1 C 203.7 146.1 202.1 144.3 202.1 141.9 C 202.1 141.9 202.1 141.9 202.1 141.9 C 202.1 139.3 204.1 137.6 206.2 137.6 C 208.2 137.6 208.8 138.6 209.1 139 C 209.07 138.97 209.1 133.8 209.1 133.8 L 210.3 133.8 Z M 203.4 141.9 C 203.4 141.9 203.4 141.9 203.4 141.9 C 203.4 143.4 204.3 145.1 206.2 145.1 C 208.3 145.1 209.1 143.7 209.1 141.8 C 209.1 141.8 209.1 141.8 209.1 141.8 C 209.1 139.9 208.5 138.7 206.3 138.7 C 204.3 138.7 203.4 140.3 203.4 141.9 Z M 213.9 142.1 C 213.9 142.1 213.88 142.13 213.9 142.1 C 214 143.8 215.1 145.1 216.9 145.1 C 218.2 145.1 219 144.5 219.4 143.6 C 219.45 143.64 219.4 143.6 219.4 143.6 L 220.7 143.6 C 220.7 143.6 220.66 143.64 220.7 143.6 C 220.2 144.8 219.1 146.1 216.8 146.1 C 214 146.1 212.7 144 212.7 141.9 C 212.7 141.9 212.7 141.9 212.7 141.9 C 212.7 139.4 214.3 137.6 216.7 137.6 C 219.8 137.6 220.8 139.9 220.8 141.8 C 220.8 141.9 220.8 142 220.8 142.1 C 220.78 142.13 213.9 142.1 213.9 142.1 Z M 219.5 141.2 C 219.5 141.2 219.5 141.2 219.5 141.2 C 219.4 140.1 218.9 138.6 216.7 138.6 C 215 138.6 214.1 139.7 213.9 141.2 C 213.91 141.2 213.9 141.2 213.9 141.2 L 219.5 141.2 Z M 229.3 145.9 L 229.3 133.8 L 230.5 133.8 L 230.5 145.9 L 229.3 145.9 Z M 240.2 144 C 240.2 144.7 240.3 145.7 240.3 145.9 C 240.3 145.9 239.2 145.9 239.2 145.9 C 239.1 145.6 239.1 144.9 239.1 144.6 C 238.6 145.5 237.7 146.1 236 146.1 C 233.7 146.1 232.9 144.7 232.9 143.5 C 232.9 143.5 232.9 143.5 232.9 143.5 C 232.9 141.5 234.7 140.9 237 140.9 C 238.1 140.9 238.8 140.9 239 140.9 C 239 140.9 239 140.4 239 140.4 C 239 139.5 238.6 138.6 236.8 138.6 C 235.1 138.6 234.7 139.3 234.5 140.2 C 234.52 140.16 234.5 140.2 234.5 140.2 L 233.3 140.2 C 233.3 140.2 233.32 140.16 233.3 140.2 C 233.4 139.1 234.1 137.6 236.8 137.6 C 239.5 137.6 240.2 139 240.2 140.3 C 240.2 140.3 240.2 144 240.2 144 Z M 239 141.8 C 238.8 141.8 238.2 141.8 237 141.8 C 235 141.8 234.1 142.3 234.1 143.5 C 234.1 143.5 234.1 143.5 234.1 143.5 C 234.1 144.4 234.7 145.1 236.2 145.1 C 238.5 145.1 239 143.7 239 142.3 C 239 142.3 239 141.8 239 141.8 Z M 249.4 140 C 249.4 139.3 249.4 138.6 249.4 137.8 C 249.4 137.8 250.6 137.8 250.6 137.8 C 250.6 138.1 250.6 138.9 250.6 139.7 C 251.2 138.4 252.4 137.6 253.9 137.6 C 253.9 137.6 253.9 138.8 253.9 138.8 C 252.1 138.8 250.6 140 250.6 142.4 C 250.63 142.4 250.6 145.9 250.6 145.9 L 249.4 145.9 C 249.4 145.9 249.42 140.02 249.4 140 Z M 263.1 143.5 C 263.1 144.3 263.1 145.1 263.1 145.9 C 263.1 145.9 261.9 145.9 261.9 145.9 C 261.9 145.7 261.9 145 261.9 144.4 C 261.5 145.4 260.7 146.1 258.9 146.1 C 257.2 146.1 255.9 145.2 255.9 142.8 C 255.89 142.85 255.9 137.8 255.9 137.8 L 257.1 137.8 C 257.1 137.8 257.1 142.61 257.1 142.6 C 257.1 143.9 257.6 145 259.2 145 C 261 145 261.9 143.9 261.9 141.4 C 261.86 141.45 261.9 137.8 261.9 137.8 L 263.1 137.8 C 263.1 137.8 263.07 143.53 263.1 143.5 Z M 266.7 142.1 C 266.7 142.1 266.66 142.13 266.7 142.1 C 266.8 143.8 267.9 145.1 269.6 145.1 C 271 145.1 271.8 144.5 272.2 143.6 C 272.23 143.64 272.2 143.6 272.2 143.6 L 273.4 143.6 C 273.4 143.6 273.44 143.64 273.4 143.6 C 273 144.8 271.9 146.1 269.6 146.1 C 266.8 146.1 265.4 144 265.4 141.9 C 265.4 141.9 265.4 141.9 265.4 141.9 C 265.4 139.4 267.1 137.6 269.5 137.6 C 272.5 137.6 273.6 139.9 273.6 141.8 C 273.6 141.9 273.6 142 273.6 142.1 C 273.56 142.13 266.7 142.1 266.7 142.1 Z M 272.3 141.2 C 272.3 141.2 272.28 141.2 272.3 141.2 C 272.2 140.1 271.6 138.6 269.5 138.6 C 267.8 138.6 266.9 139.7 266.7 141.2 C 266.69 141.2 266.7 141.2 266.7 141.2 L 272.3 141.2 Z M 289.4 143.4 C 289.4 143.4 289.43 143.42 289.4 143.4 C 289 144.9 287.8 146.1 285.6 146.1 C 282.8 146.1 281.4 144.2 281.4 141.9 C 281.4 141.9 281.4 141.9 281.4 141.9 C 281.4 139.6 283 137.6 285.6 137.6 C 288.2 137.6 289.2 139.2 289.4 140.3 C 289.42 140.35 289.4 140.3 289.4 140.3 L 288.2 140.3 C 288.2 140.3 288.21 140.35 288.2 140.3 C 287.9 139.5 287.2 138.6 285.6 138.6 C 283.8 138.6 282.7 140 282.7 141.9 C 282.7 141.9 282.7 141.9 282.7 141.9 C 282.7 143.7 283.7 145.1 285.6 145.1 C 287 145.1 287.8 144.4 288.2 143.4 C 288.22 143.42 288.2 143.4 288.2 143.4 L 289.4 143.4 Z M 292.9 133.8 C 292.9 133.8 292.93 139.41 292.9 139.4 C 293.2 138.8 294 137.6 296 137.6 C 297.8 137.6 299 138.7 299 141 C 299.02 141.01 299 145.9 299 145.9 L 297.8 145.9 C 297.8 145.9 297.8 141.22 297.8 141.2 C 297.8 139.8 297.3 138.7 295.7 138.7 C 293.8 138.7 292.9 140.2 292.9 141.9 C 292.93 141.9 292.9 145.9 292.9 145.9 L 291.7 145.9 L 291.7 133.8 L 292.9 133.8 Z M 308.8 144 C 308.8 144.7 308.8 145.7 308.8 145.9 C 308.8 145.9 307.7 145.9 307.7 145.9 C 307.6 145.6 307.6 144.9 307.6 144.6 C 307.2 145.5 306.3 146.1 304.5 146.1 C 302.2 146.1 301.4 144.7 301.4 143.5 C 301.4 143.5 301.4 143.5 301.4 143.5 C 301.4 141.5 303.3 140.9 305.5 140.9 C 306.6 140.9 307.3 140.9 307.6 140.9 C 307.6 140.9 307.6 140.4 307.6 140.4 C 307.6 139.5 307.2 138.6 305.3 138.6 C 303.6 138.6 303.2 139.3 303 140.2 C 303.05 140.16 303 140.2 303 140.2 L 301.8 140.2 C 301.8 140.2 301.84 140.16 301.8 140.2 C 301.9 139.1 302.7 137.6 305.3 137.6 C 308.1 137.6 308.8 139 308.8 140.3 C 308.8 140.3 308.8 144 308.8 144 Z M 307.6 141.8 C 307.3 141.8 306.8 141.8 305.6 141.8 C 303.6 141.8 302.6 142.3 302.6 143.5 C 302.6 143.5 302.6 143.5 302.6 143.5 C 302.6 144.4 303.2 145.1 304.7 145.1 C 307 145.1 307.6 143.7 307.6 142.3 C 307.6 142.3 307.6 141.8 307.6 141.8 Z M 311.7 139.9 C 311.7 139.2 311.7 138.4 311.6 137.8 C 311.6 137.8 312.8 137.8 312.8 137.8 C 312.8 138.1 312.9 138.8 312.9 139.5 C 313.2 138.6 314.1 137.6 315.9 137.6 C 317.7 137.6 319 138.8 319 141 C 318.96 141 319 145.9 319 145.9 L 317.7 145.9 C 317.7 145.9 317.74 141.23 317.7 141.2 C 317.7 139.8 317.2 138.7 315.6 138.7 C 313.8 138.7 312.9 140.1 312.9 142.1 C 312.87 142.07 312.9 145.9 312.9 145.9 L 311.7 145.9 C 311.7 145.9 311.66 139.86 311.7 139.9 Z M 329.4 144.8 C 329.4 147.8 328.5 149.7 325.2 149.7 C 322.2 149.7 321.5 147.9 321.4 146.9 C 321.38 146.94 321.4 146.9 321.4 146.9 L 322.6 146.9 C 322.6 146.9 322.62 146.94 322.6 146.9 C 322.9 147.8 323.5 148.7 325.3 148.7 C 327.9 148.7 328.3 147 328.3 144.8 C 328.3 144.8 328.3 144.4 328.3 144.4 C 327.8 145.4 326.8 146 325.1 146 C 322.9 146 321.3 144.3 321.3 142 C 321.3 142 321.3 142 321.3 142 C 321.3 139.4 323.2 137.6 325.3 137.6 C 327.2 137.6 328 138.5 328.3 139.2 C 328.3 138.7 328.3 138.1 328.3 137.8 C 328.3 137.8 329.5 137.8 329.5 137.8 C 329.4 138.6 329.4 139.4 329.4 140.2 C 329.4 140.2 329.4 144.8 329.4 144.8 Z M 322.5 141.9 C 322.5 141.9 322.5 141.9 322.5 141.9 C 322.5 143.7 323.7 145 325.4 145 C 327.2 145 328.3 143.8 328.3 141.8 C 328.3 141.8 328.3 141.8 328.3 141.8 C 328.3 139.8 327.2 138.7 325.5 138.7 C 323.5 138.7 322.5 140.3 322.5 141.9 Z M 333 142.1 C 333 142.1 333.05 142.13 333 142.1 C 333.1 143.8 334.3 145.1 336 145.1 C 337.4 145.1 338.1 144.5 338.6 143.6 C 338.62 143.64 338.6 143.6 338.6 143.6 L 339.8 143.6 C 339.8 143.6 339.82 143.64 339.8 143.6 C 339.4 144.8 338.3 146.1 335.9 146.1 C 333.2 146.1 331.8 144 331.8 141.9 C 331.8 141.9 331.8 141.9 331.8 141.9 C 331.8 139.4 333.5 137.6 335.9 137.6 C 338.9 137.6 339.9 139.9 339.9 141.8 C 339.9 141.9 339.9 142 339.9 142.1 C 339.94 142.13 333 142.1 333 142.1 Z M 338.7 141.2 C 338.7 141.2 338.67 141.2 338.7 141.2 C 338.6 140.1 338 138.6 335.9 138.6 C 334.1 138.6 333.2 139.7 333.1 141.2 C 333.08 141.2 333.1 141.2 333.1 141.2 L 338.7 141.2 Z M 349.6 144.6 C 349.64 144.57 349.6 149.4 349.6 149.4 L 348.4 149.4 C 348.4 149.4 348.43 139.85 348.4 139.8 C 348.4 139.2 348.4 138.5 348.4 137.8 C 348.4 137.8 349.6 137.8 349.6 137.8 C 349.6 138.1 349.6 138.6 349.6 139.3 C 350.1 138.4 351.1 137.6 352.8 137.6 C 355 137.6 356.6 139.4 356.6 141.7 C 356.6 141.7 356.6 141.7 356.6 141.7 C 356.6 144.3 354.8 146.1 352.6 146.1 C 350.8 146.1 350.1 145.3 349.6 144.6 Z M 355.3 141.8 C 355.3 141.8 355.3 141.8 355.3 141.8 C 355.3 140.3 354.4 138.7 352.5 138.7 C 350.5 138.7 349.6 140.1 349.6 141.9 C 349.6 141.9 349.6 141.9 349.6 141.9 C 349.6 143.7 350.5 145 352.5 145 C 354.4 145 355.3 143.5 355.3 141.8 Z M 366.8 141.9 C 366.8 141.9 366.8 141.9 366.8 141.9 C 366.8 144 365.4 146.1 362.6 146.1 C 359.9 146.1 358.4 144.1 358.4 141.9 C 358.4 141.9 358.4 141.9 358.4 141.9 C 358.4 139.5 360 137.6 362.7 137.6 C 365.3 137.6 366.8 139.7 366.8 141.9 Z M 359.7 141.9 C 359.7 141.9 359.7 141.9 359.7 141.9 C 359.7 143.5 360.7 145.1 362.6 145.1 C 364.6 145.1 365.6 143.6 365.6 141.9 C 365.6 141.9 365.6 141.9 365.6 141.9 C 365.6 140.1 364.5 138.6 362.6 138.6 C 360.6 138.6 359.7 140.1 359.7 141.9 Z M 376.3 143.5 C 376.3 144.3 376.3 145.1 376.4 145.9 C 376.4 145.9 375.2 145.9 375.2 145.9 C 375.2 145.7 375.1 145 375.1 144.4 C 374.7 145.4 374 146.1 372.2 146.1 C 370.5 146.1 369.2 145.2 369.2 142.8 C 369.16 142.85 369.2 137.8 369.2 137.8 L 370.4 137.8 C 370.4 137.8 370.37 142.61 370.4 142.6 C 370.4 143.9 370.9 145 372.4 145 C 374.3 145 375.1 143.9 375.1 141.4 C 375.13 141.45 375.1 137.8 375.1 137.8 L 376.3 137.8 C 376.3 137.8 376.34 143.53 376.3 143.5 Z M 379.3 140 C 379.3 139.3 379.3 138.6 379.2 137.8 C 379.2 137.8 380.4 137.8 380.4 137.8 C 380.4 138.1 380.5 138.9 380.5 139.7 C 381 138.4 382.2 137.6 383.8 137.6 C 383.8 137.6 383.8 138.8 383.8 138.8 C 381.9 138.8 380.5 140 380.5 142.4 C 380.46 142.4 380.5 145.9 380.5 145.9 L 379.3 145.9 C 379.3 145.9 379.25 140.02 379.3 140 Z M 399.4 133.8 C 399.4 133.8 399.37 143.52 399.4 143.5 C 399.4 144.3 399.4 145.1 399.4 145.9 C 399.4 145.9 398.2 145.9 398.2 145.9 C 398.2 145.5 398.2 145 398.2 144.6 C 397.8 145.3 397 146.1 395.1 146.1 C 392.8 146.1 391.2 144.3 391.2 141.9 C 391.2 141.9 391.2 141.9 391.2 141.9 C 391.2 139.3 393.2 137.6 395.3 137.6 C 397.3 137.6 397.9 138.6 398.2 139 C 398.16 138.97 398.2 133.8 398.2 133.8 L 399.4 133.8 Z M 392.5 141.9 C 392.5 141.9 392.5 141.9 392.5 141.9 C 392.5 143.4 393.4 145.1 395.3 145.1 C 397.4 145.1 398.2 143.7 398.2 141.8 C 398.2 141.8 398.2 141.8 398.2 141.8 C 398.2 139.9 397.6 138.7 395.4 138.7 C 393.4 138.7 392.5 140.3 392.5 141.9 Z M 403 142.1 C 403 142.1 402.97 142.13 403 142.1 C 403.1 143.8 404.2 145.1 406 145.1 C 407.3 145.1 408.1 144.5 408.5 143.6 C 408.54 143.64 408.5 143.6 408.5 143.6 L 409.7 143.6 C 409.7 143.6 409.75 143.64 409.7 143.6 C 409.3 144.8 408.2 146.1 405.9 146.1 C 403.1 146.1 401.7 144 401.7 141.9 C 401.7 141.9 401.7 141.9 401.7 141.9 C 401.7 139.4 403.4 137.6 405.8 137.6 C 408.8 137.6 409.9 139.9 409.9 141.8 C 409.9 141.9 409.9 142 409.9 142.1 C 409.87 142.13 403 142.1 403 142.1 Z M 408.6 141.2 C 408.6 141.2 408.59 141.2 408.6 141.2 C 408.5 140.1 408 138.6 405.8 138.6 C 404.1 138.6 403.2 139.7 403 141.2 C 403 141.2 403 141.2 403 141.2 L 408.6 141.2 Z M 412.2 137.8 C 412.8 139.3 414.9 143.9 415.2 144.7 C 415.2 144.7 415.2 144.7 415.2 144.7 C 415.4 144.1 416 142.8 418.2 137.8 C 418.16 137.83 419.4 137.8 419.4 137.8 L 415.8 145.9 L 414.5 145.9 L 410.9 137.8 C 410.9 137.8 412.21 137.83 412.2 137.8 Z M 421.7 142.1 C 421.7 142.1 421.65 142.13 421.7 142.1 C 421.7 143.8 422.9 145.1 424.6 145.1 C 426 145.1 426.7 144.5 427.2 143.6 C 427.22 143.64 427.2 143.6 427.2 143.6 L 428.4 143.6 C 428.4 143.6 428.43 143.64 428.4 143.6 C 428 144.8 426.9 146.1 424.5 146.1 C 421.8 146.1 420.4 144 420.4 141.9 C 420.4 141.9 420.4 141.9 420.4 141.9 C 420.4 139.4 422.1 137.6 424.5 137.6 C 427.5 137.6 428.6 139.9 428.6 141.8 C 428.6 141.9 428.6 142 428.6 142.1 C 428.55 142.13 421.7 142.1 421.7 142.1 Z M 427.3 141.2 C 427.3 141.2 427.27 141.2 427.3 141.2 C 427.2 140.1 426.6 138.6 424.5 138.6 C 422.7 138.6 421.8 139.7 421.7 141.2 C 421.68 141.2 421.7 141.2 421.7 141.2 L 427.3 141.2 Z M 430.9 139.9 C 430.9 139.2 430.9 138.4 430.9 137.8 C 430.9 137.8 432.1 137.8 432.1 137.8 C 432.1 138.1 432.1 138.8 432.1 139.5 C 432.5 138.6 433.3 137.6 435.1 137.6 C 437 137.6 438.2 138.8 438.2 141 C 438.2 141 438.2 145.9 438.2 145.9 L 437 145.9 C 437 145.9 436.99 141.23 437 141.2 C 437 139.8 436.4 138.7 434.8 138.7 C 433 138.7 432.1 140.1 432.1 142.1 C 432.12 142.07 432.1 145.9 432.1 145.9 L 430.9 145.9 C 430.9 145.9 430.91 139.86 430.9 139.9 Z M 441.1 137.8 L 442.3 137.8 L 442.3 145.9 L 441.1 145.9 L 441.1 137.8 Z M 441.1 133.8 L 442.3 133.8 L 442.3 135.6 L 441.1 135.6 L 441.1 133.8 Z M 445.2 140 C 445.2 139.3 445.2 138.6 445.2 137.8 C 445.2 137.8 446.4 137.8 446.4 137.8 C 446.4 138.1 446.4 138.9 446.4 139.7 C 447 138.4 448.2 137.6 449.7 137.6 C 449.7 137.6 449.7 138.8 449.7 138.8 C 447.9 138.8 446.4 140 446.4 142.4 C 446.42 142.4 446.4 145.9 446.4 145.9 L 445.2 145.9 C 445.2 145.9 445.21 140.02 445.2 140 Z " stroke="none" fill="#141414"/>  </g>  <g id="Polygon4294">    <path d="M 2.1 118.3 C 2.1 118.3 2.1 118.28 2.1 118.3 C 2.5 119.7 3.6 120.7 5.9 120.7 C 8.3 120.7 9.2 119.8 9.2 118.6 C 9.2 117.4 8.6 116.6 5.5 116.1 C 2.2 115.6 1.4 114.6 1.4 113 C 1.4 111.1 3.2 109.9 5.6 109.9 C 9.3 109.9 10.1 111.8 10.2 112.9 C 10.2 112.95 10.2 112.9 10.2 112.9 L 8.9 112.9 C 8.9 112.9 8.89 112.95 8.9 112.9 C 8.6 112.1 8.1 111 5.6 111 C 3.8 111 2.7 111.6 2.7 112.9 C 2.7 113.9 3.1 114.5 5.9 115 C 9.9 115.7 10.6 116.9 10.6 118.5 C 10.6 120.3 9.2 121.8 5.8 121.8 C 2.8 121.8 1.1 120.4 0.8 118.3 C 0.77 118.28 0.8 118.3 0.8 118.3 L 2.1 118.3 Z M 20.3 119.2 C 20.3 120 20.3 120.8 20.3 121.6 C 20.3 121.6 19.2 121.6 19.2 121.6 C 19.1 121.3 19.1 120.7 19.1 120.1 C 18.7 121.1 18 121.8 16.2 121.8 C 14.5 121.8 13.1 120.9 13.1 118.5 C 13.14 118.53 13.1 113.5 13.1 113.5 L 14.4 113.5 C 14.4 113.5 14.35 118.29 14.4 118.3 C 14.4 119.6 14.9 120.7 16.4 120.7 C 18.3 120.7 19.1 119.6 19.1 117.1 C 19.11 117.13 19.1 113.5 19.1 113.5 L 20.3 113.5 C 20.3 113.5 20.32 119.21 20.3 119.2 Z M 23.2 115.7 C 23.2 115 23.2 114.2 23.2 113.5 C 23.2 113.5 24.4 113.5 24.4 113.5 C 24.4 113.7 24.5 114.6 24.5 115.4 C 25 114.1 26.2 113.3 27.8 113.3 C 27.8 113.3 27.8 114.5 27.8 114.5 C 25.9 114.5 24.5 115.7 24.5 118.1 C 24.45 118.08 24.5 121.6 24.5 121.6 L 23.2 121.6 C 23.2 121.6 23.24 115.7 23.2 115.7 Z M 38.6 121.6 L 38.6 109.5 L 39.8 109.5 L 39.8 121.6 L 38.6 121.6 Z M 49.6 119.6 C 49.6 120.4 49.6 121.4 49.7 121.6 C 49.7 121.6 48.5 121.6 48.5 121.6 C 48.4 121.2 48.4 120.6 48.4 120.3 C 48 121.2 47.1 121.8 45.3 121.8 C 43 121.8 42.2 120.4 42.2 119.2 C 42.2 119.2 42.2 119.2 42.2 119.2 C 42.2 117.2 44.1 116.6 46.4 116.6 C 47.4 116.6 48.1 116.6 48.4 116.6 C 48.4 116.6 48.4 116.1 48.4 116.1 C 48.4 115.2 48 114.3 46.1 114.3 C 44.5 114.3 44.1 115 43.9 115.8 C 43.88 115.84 43.9 115.8 43.9 115.8 L 42.7 115.8 C 42.7 115.8 42.67 115.84 42.7 115.8 C 42.8 114.8 43.5 113.3 46.1 113.3 C 48.9 113.3 49.6 114.7 49.6 116 C 49.6 116 49.6 119.6 49.6 119.6 Z M 48.4 117.5 C 48.1 117.5 47.6 117.5 46.4 117.5 C 44.4 117.5 43.4 117.9 43.4 119.1 C 43.4 119.1 43.4 119.1 43.4 119.1 C 43.4 120 44.1 120.8 45.5 120.8 C 47.9 120.8 48.4 119.3 48.4 117.9 C 48.4 117.9 48.4 117.5 48.4 117.5 Z M 62.8 120.2 C 62.75 120.25 62.8 125.1 62.8 125.1 L 61.5 125.1 C 61.5 125.1 61.54 115.53 61.5 115.5 C 61.5 114.9 61.5 114.2 61.5 113.5 C 61.5 113.5 62.7 113.5 62.7 113.5 C 62.7 113.8 62.8 114.3 62.8 115 C 63.2 114.1 64.2 113.3 65.9 113.3 C 68.1 113.3 69.7 115.1 69.7 117.4 C 69.7 117.4 69.7 117.4 69.7 117.4 C 69.7 120 67.9 121.8 65.7 121.8 C 63.9 121.8 63.2 121 62.8 120.2 Z M 68.4 117.4 C 68.4 117.4 68.4 117.4 68.4 117.4 C 68.4 115.9 67.6 114.4 65.6 114.4 C 63.6 114.4 62.7 115.8 62.7 117.6 C 62.7 117.6 62.7 117.6 62.7 117.6 C 62.7 119.4 63.7 120.7 65.6 120.7 C 67.5 120.7 68.4 119.1 68.4 117.4 Z M 72.1 121.6 L 72.1 109.5 L 73.3 109.5 L 73.3 121.6 L 72.1 121.6 Z M 83 119.6 C 83 120.4 83.1 121.4 83.1 121.6 C 83.1 121.6 82 121.6 82 121.6 C 81.9 121.2 81.9 120.6 81.9 120.3 C 81.4 121.2 80.5 121.8 78.8 121.8 C 76.5 121.8 75.7 120.4 75.7 119.2 C 75.7 119.2 75.7 119.2 75.7 119.2 C 75.7 117.2 77.5 116.6 79.8 116.6 C 80.9 116.6 81.6 116.6 81.9 116.6 C 81.9 116.6 81.9 116.1 81.9 116.1 C 81.9 115.2 81.4 114.3 79.6 114.3 C 77.9 114.3 77.5 115 77.3 115.8 C 77.33 115.84 77.3 115.8 77.3 115.8 L 76.1 115.8 C 76.1 115.8 76.12 115.84 76.1 115.8 C 76.2 114.8 76.9 113.3 79.6 113.3 C 82.3 113.3 83 114.7 83 116 C 83 116 83 119.6 83 119.6 Z M 81.9 117.5 C 81.6 117.5 81 117.5 79.8 117.5 C 77.8 117.5 76.9 117.9 76.9 119.1 C 76.9 119.1 76.9 119.1 76.9 119.1 C 76.9 120 77.5 120.8 79 120.8 C 81.3 120.8 81.9 119.3 81.9 117.9 C 81.9 117.9 81.9 117.5 81.9 117.5 Z M 93.4 119.1 C 93.4 119.1 93.42 119.1 93.4 119.1 C 93 120.5 91.8 121.8 89.6 121.8 C 86.8 121.8 85.4 119.9 85.4 117.6 C 85.4 117.6 85.4 117.6 85.4 117.6 C 85.4 115.3 87 113.3 89.6 113.3 C 92.2 113.3 93.2 114.9 93.4 116 C 93.41 116.03 93.4 116 93.4 116 L 92.2 116 C 92.2 116 92.2 116.03 92.2 116 C 91.9 115.2 91.2 114.3 89.6 114.3 C 87.8 114.3 86.6 115.7 86.6 117.5 C 86.6 117.5 86.6 117.5 86.6 117.5 C 86.6 119.3 87.7 120.8 89.6 120.8 C 91 120.8 91.8 120.1 92.2 119.1 C 92.21 119.1 92.2 119.1 92.2 119.1 L 93.4 119.1 Z M 96.4 117.8 C 96.4 117.8 96.38 117.81 96.4 117.8 C 96.5 119.5 97.6 120.8 99.4 120.8 C 100.7 120.8 101.5 120.2 102 119.3 C 101.95 119.32 102 119.3 102 119.3 L 103.2 119.3 C 103.2 119.3 103.16 119.32 103.2 119.3 C 102.7 120.5 101.6 121.8 99.3 121.8 C 96.5 121.8 95.2 119.7 95.2 117.6 C 95.2 117.6 95.2 117.6 95.2 117.6 C 95.2 115.1 96.8 113.3 99.2 113.3 C 102.3 113.3 103.3 115.5 103.3 117.5 C 103.3 117.6 103.3 117.7 103.3 117.8 C 103.28 117.81 96.4 117.8 96.4 117.8 Z M 102 116.9 C 102 116.9 102 116.88 102 116.9 C 101.9 115.8 101.4 114.3 99.2 114.3 C 97.5 114.3 96.6 115.4 96.4 116.9 C 96.41 116.88 96.4 116.9 96.4 116.9 L 102 116.9 Z M 122 109.5 C 122 109.5 122.04 119.2 122 119.2 C 122 120 122 120.8 122.1 121.6 C 122.1 121.6 120.9 121.6 120.9 121.6 C 120.9 121.2 120.8 120.7 120.8 120.2 C 120.4 121 119.7 121.8 117.8 121.8 C 115.4 121.8 113.9 120 113.9 117.6 C 113.9 117.6 113.9 117.6 113.9 117.6 C 113.9 115 115.8 113.3 118 113.3 C 119.9 113.3 120.6 114.2 120.8 114.6 C 120.83 114.65 120.8 109.5 120.8 109.5 L 122 109.5 Z M 115.1 117.6 C 115.1 117.6 115.1 117.6 115.1 117.6 C 115.1 119.1 116.1 120.7 118 120.7 C 120.1 120.7 120.9 119.4 120.9 117.5 C 120.9 117.5 120.9 117.5 120.9 117.5 C 120.9 115.6 120.2 114.3 118.1 114.3 C 116.1 114.3 115.1 116 115.1 117.6 Z M 125.6 117.8 C 125.6 117.8 125.64 117.81 125.6 117.8 C 125.7 119.5 126.9 120.8 128.6 120.8 C 130 120.8 130.7 120.2 131.2 119.3 C 131.21 119.32 131.2 119.3 131.2 119.3 L 132.4 119.3 C 132.4 119.3 132.42 119.32 132.4 119.3 C 132 120.5 130.9 121.8 128.5 121.8 C 125.8 121.8 124.4 119.7 124.4 117.6 C 124.4 117.6 124.4 117.6 124.4 117.6 C 124.4 115.1 126.1 113.3 128.5 113.3 C 131.5 113.3 132.5 115.5 132.5 117.5 C 132.5 117.6 132.5 117.7 132.5 117.8 C 132.54 117.81 125.6 117.8 125.6 117.8 Z M 131.3 116.9 C 131.3 116.9 131.26 116.88 131.3 116.9 C 131.2 115.8 130.6 114.3 128.5 114.3 C 126.7 114.3 125.8 115.4 125.7 116.9 C 125.67 116.88 125.7 116.9 125.7 116.9 L 131.3 116.9 Z M 144.2 119.1 C 144.2 119.1 144.22 119.13 144.2 119.1 C 144.5 120.2 145.4 120.8 147 120.8 C 148.7 120.8 149.3 120.2 149.3 119.4 C 149.3 118.6 148.9 118.1 146.7 117.9 C 143.9 117.5 143.4 116.6 143.4 115.6 C 143.4 114.6 144.2 113.3 146.7 113.3 C 149.5 113.3 150.2 114.8 150.3 115.7 C 150.26 115.66 150.3 115.7 150.3 115.7 L 149 115.7 C 149 115.7 149.04 115.66 149 115.7 C 148.9 115.1 148.6 114.3 146.6 114.3 C 145 114.3 144.6 115 144.6 115.5 C 144.6 116.2 145 116.6 147 116.8 C 149.9 117.2 150.5 118.1 150.5 119.3 C 150.5 120.7 149.4 121.8 146.9 121.8 C 144.5 121.8 143.3 120.8 143 119.1 C 142.99 119.13 143 119.1 143 119.1 L 144.2 119.1 Z M 160.7 117.5 C 160.7 117.5 160.7 117.5 160.7 117.5 C 160.7 119.7 159.4 121.8 156.5 121.8 C 153.8 121.8 152.3 119.8 152.3 117.5 C 152.3 117.5 152.3 117.5 152.3 117.5 C 152.3 115.2 153.9 113.3 156.6 113.3 C 159.2 113.3 160.7 115.4 160.7 117.5 Z M 153.6 117.5 C 153.6 117.5 153.6 117.5 153.6 117.5 C 153.6 119.2 154.6 120.7 156.5 120.7 C 158.5 120.7 159.5 119.3 159.5 117.6 C 159.5 117.6 159.5 117.6 159.5 117.6 C 159.5 115.8 158.4 114.3 156.5 114.3 C 154.5 114.3 153.6 115.8 153.6 117.5 Z M 163.1 115.5 C 163.1 114.9 163.1 114.1 163.1 113.5 C 163.1 113.5 164.2 113.5 164.2 113.5 C 164.3 113.8 164.3 114.5 164.3 115.1 C 164.6 114.3 165.5 113.3 167.3 113.3 C 169.1 113.3 170.4 114.4 170.4 116.7 C 170.39 116.68 170.4 121.6 170.4 121.6 L 169.2 121.6 C 169.2 121.6 169.17 116.91 169.2 116.9 C 169.2 115.5 168.6 114.4 167 114.4 C 165.2 114.4 164.3 115.8 164.3 117.7 C 164.3 117.75 164.3 121.6 164.3 121.6 L 163.1 121.6 C 163.1 121.6 163.09 115.54 163.1 115.5 Z M 188.7 120.2 C 188.2 121 187.3 121.8 185.6 121.8 C 183.4 121.8 181.7 120 181.7 117.6 C 181.7 117.6 181.7 117.6 181.7 117.6 C 181.7 114.9 183.7 113.3 185.7 113.3 C 187.7 113.3 188.5 114.3 188.7 114.8 C 188.7 114.2 188.7 113.8 188.7 113.5 C 188.7 113.5 189.9 113.5 189.9 113.5 C 189.9 114.1 189.9 115 189.9 115.8 C 189.86 115.79 189.9 125.1 189.9 125.1 L 188.7 125.1 C 188.7 125.1 188.65 120.21 188.7 120.2 Z M 182.9 117.6 C 182.9 117.6 182.9 117.6 182.9 117.6 C 182.9 119.3 184 120.7 185.7 120.7 C 187.6 120.7 188.7 119.6 188.7 117.5 C 188.7 117.5 188.7 117.5 188.7 117.5 C 188.7 115.6 187.8 114.4 185.9 114.4 C 183.9 114.4 182.9 115.8 182.9 117.6 Z M 199.9 119.2 C 199.9 120 199.9 120.8 199.9 121.6 C 199.9 121.6 198.8 121.6 198.8 121.6 C 198.7 121.3 198.7 120.7 198.7 120.1 C 198.3 121.1 197.6 121.8 195.8 121.8 C 194.1 121.8 192.7 120.9 192.7 118.5 C 192.75 118.53 192.7 113.5 192.7 113.5 L 194 113.5 C 194 113.5 193.95 118.29 194 118.3 C 194 119.6 194.5 120.7 196 120.7 C 197.9 120.7 198.7 119.6 198.7 117.1 C 198.72 117.13 198.7 113.5 198.7 113.5 L 199.9 113.5 C 199.9 113.5 199.93 119.21 199.9 119.2 Z M 209.7 119.6 C 209.7 120.4 209.7 121.4 209.8 121.6 C 209.8 121.6 208.6 121.6 208.6 121.6 C 208.6 121.2 208.5 120.6 208.5 120.3 C 208.1 121.2 207.2 121.8 205.4 121.8 C 203.1 121.8 202.3 120.4 202.3 119.2 C 202.3 119.2 202.3 119.2 202.3 119.2 C 202.3 117.2 204.2 116.6 206.5 116.6 C 207.5 116.6 208.2 116.6 208.5 116.6 C 208.5 116.6 208.5 116.1 208.5 116.1 C 208.5 115.2 208.1 114.3 206.2 114.3 C 204.6 114.3 204.2 115 204 115.8 C 203.99 115.84 204 115.8 204 115.8 L 202.8 115.8 C 202.8 115.8 202.78 115.84 202.8 115.8 C 202.9 114.8 203.6 113.3 206.2 113.3 C 209 113.3 209.7 114.7 209.7 116 C 209.7 116 209.7 119.6 209.7 119.6 Z M 208.5 117.5 C 208.2 117.5 207.7 117.5 206.5 117.5 C 204.5 117.5 203.5 117.9 203.5 119.1 C 203.5 119.1 203.5 119.1 203.5 119.1 C 203.5 120 204.2 120.8 205.6 120.8 C 208 120.8 208.5 119.3 208.5 117.9 C 208.5 117.9 208.5 117.5 208.5 117.5 Z M 212.6 115.7 C 212.6 115 212.6 114.2 212.6 113.5 C 212.6 113.5 213.8 113.5 213.8 113.5 C 213.8 113.7 213.8 114.6 213.8 115.4 C 214.4 114.1 215.6 113.3 217.1 113.3 C 217.1 113.3 217.1 114.5 217.1 114.5 C 215.3 114.5 213.8 115.7 213.8 118.1 C 213.81 118.08 213.8 121.6 213.8 121.6 L 212.6 121.6 C 212.6 121.6 212.6 115.7 212.6 115.7 Z M 218.5 113.5 L 220.2 113.5 L 220.2 110.9 L 221.4 110.9 L 221.4 113.5 L 223.5 113.5 L 223.5 114.5 L 221.4 114.5 C 221.4 114.5 221.38 119.22 221.4 119.2 C 221.4 120.2 221.6 120.6 222.5 120.6 C 222.8 120.6 223.1 120.6 223.4 120.6 C 223.4 120.6 223.4 121.5 223.4 121.5 C 223 121.6 222.7 121.6 222.2 121.6 C 220.7 121.6 220.2 120.9 220.2 119.3 C 220.16 119.34 220.2 114.5 220.2 114.5 L 218.5 114.5 L 218.5 113.5 Z M 225.6 113.5 L 226.8 113.5 L 226.8 121.6 L 225.6 121.6 L 225.6 113.5 Z M 225.6 109.5 L 226.8 109.5 L 226.8 111.3 L 225.6 111.3 L 225.6 109.5 Z M 230.4 117.8 C 230.4 117.8 230.39 117.81 230.4 117.8 C 230.5 119.5 231.6 120.8 233.4 120.8 C 234.7 120.8 235.5 120.2 236 119.3 C 235.96 119.32 236 119.3 236 119.3 L 237.2 119.3 C 237.2 119.3 237.17 119.32 237.2 119.3 C 236.7 120.5 235.6 121.8 233.3 121.8 C 230.5 121.8 229.2 119.7 229.2 117.6 C 229.2 117.6 229.2 117.6 229.2 117.6 C 229.2 115.1 230.8 113.3 233.2 113.3 C 236.3 113.3 237.3 115.5 237.3 117.5 C 237.3 117.6 237.3 117.7 237.3 117.8 C 237.29 117.81 230.4 117.8 230.4 117.8 Z M 236 116.9 C 236 116.9 236.01 116.88 236 116.9 C 235.9 115.8 235.4 114.3 233.2 114.3 C 231.5 114.3 230.6 115.4 230.4 116.9 C 230.42 116.88 230.4 116.9 230.4 116.9 L 236 116.9 Z M 239.6 115.7 C 239.6 115 239.6 114.2 239.6 113.5 C 239.6 113.5 240.8 113.5 240.8 113.5 C 240.8 113.7 240.9 114.6 240.9 115.4 C 241.4 114.1 242.6 113.3 244.2 113.3 C 244.2 113.3 244.2 114.5 244.2 114.5 C 242.3 114.5 240.9 115.7 240.9 118.1 C 240.85 118.08 240.9 121.6 240.9 121.6 L 239.6 121.6 C 239.6 121.6 239.64 115.7 239.6 115.7 Z M 243.8 123.8 C 244.7 122 245.1 120.5 245.2 119.1 C 245.2 119.1 246.4 119.1 246.4 119.1 C 246.3 120.4 245.8 122.5 244.9 123.8 C 244.9 123.8 243.8 123.8 243.8 123.8 Z M 259.9 117.9 L 258.3 121.6 L 256.9 121.6 L 261.9 110.2 L 263.4 110.2 L 268.6 121.6 L 267.2 121.6 L 265.5 117.9 L 259.9 117.9 Z M 265 116.7 C 263.6 113.4 262.9 111.9 262.6 111.2 C 262.6 111.2 262.6 111.2 262.6 111.2 C 262.4 111.9 261.5 113.9 260.3 116.7 C 260.3 116.7 265 116.7 265 116.7 Z M 270.6 115.5 C 270.6 114.9 270.6 114.1 270.6 113.5 C 270.6 113.5 271.8 113.5 271.8 113.5 C 271.8 113.8 271.8 114.5 271.8 115.1 C 272.2 114.3 273 113.3 274.8 113.3 C 276.7 113.3 277.9 114.4 277.9 116.7 C 277.91 116.68 277.9 121.6 277.9 121.6 L 276.7 121.6 C 276.7 121.6 276.7 116.91 276.7 116.9 C 276.7 115.5 276.1 114.4 274.5 114.4 C 272.7 114.4 271.8 115.8 271.8 117.7 C 271.83 117.75 271.8 121.6 271.8 121.6 L 270.6 121.6 C 270.6 121.6 270.61 115.54 270.6 115.5 Z M 280.8 115.5 C 280.8 114.9 280.8 114.1 280.8 113.5 C 280.8 113.5 281.9 113.5 281.9 113.5 C 282 113.8 282 114.5 282 115.1 C 282.3 114.3 283.2 113.3 285 113.3 C 286.9 113.3 288.1 114.4 288.1 116.7 C 288.09 116.68 288.1 121.6 288.1 121.6 L 286.9 121.6 C 286.9 121.6 286.88 116.91 286.9 116.9 C 286.9 115.5 286.3 114.4 284.7 114.4 C 282.9 114.4 282 115.8 282 117.7 C 282.01 117.75 282 121.6 282 121.6 L 280.8 121.6 C 280.8 121.6 280.79 115.54 280.8 115.5 Z M 297.8 119.6 C 297.8 120.4 297.9 121.4 297.9 121.6 C 297.9 121.6 296.7 121.6 296.7 121.6 C 296.7 121.2 296.7 120.6 296.7 120.3 C 296.2 121.2 295.3 121.8 293.6 121.8 C 291.3 121.8 290.4 120.4 290.4 119.2 C 290.4 119.2 290.4 119.2 290.4 119.2 C 290.4 117.2 292.3 116.6 294.6 116.6 C 295.7 116.6 296.4 116.6 296.6 116.6 C 296.6 116.6 296.6 116.1 296.6 116.1 C 296.6 115.2 296.2 114.3 294.4 114.3 C 292.7 114.3 292.3 115 292.1 115.8 C 292.12 115.84 292.1 115.8 292.1 115.8 L 290.9 115.8 C 290.9 115.8 290.91 115.84 290.9 115.8 C 291 114.8 291.7 113.3 294.4 113.3 C 297.1 113.3 297.8 114.7 297.8 116 C 297.8 116 297.8 119.6 297.8 119.6 Z M 296.6 117.5 C 296.4 117.5 295.8 117.5 294.6 117.5 C 292.6 117.5 291.7 117.9 291.7 119.1 C 291.7 119.1 291.7 119.1 291.7 119.1 C 291.7 120 292.3 120.8 293.7 120.8 C 296.1 120.8 296.6 119.3 296.6 117.9 C 296.6 117.9 296.6 117.5 296.6 117.5 Z M 311 120.2 C 310.99 120.25 311 125.1 311 125.1 L 309.8 125.1 C 309.8 125.1 309.78 115.53 309.8 115.5 C 309.8 114.9 309.8 114.2 309.8 113.5 C 309.8 113.5 310.9 113.5 310.9 113.5 C 311 113.8 311 114.3 311 115 C 311.5 114.1 312.4 113.3 314.2 113.3 C 316.4 113.3 317.9 115.1 317.9 117.4 C 317.9 117.4 317.9 117.4 317.9 117.4 C 317.9 120 316.2 121.8 313.9 121.8 C 312.2 121.8 311.4 121 311 120.2 Z M 316.7 117.4 C 316.7 117.4 316.7 117.4 316.7 117.4 C 316.7 115.9 315.8 114.4 313.8 114.4 C 311.8 114.4 311 115.8 311 117.6 C 311 117.6 311 117.6 311 117.6 C 311 119.4 311.9 120.7 313.8 120.7 C 315.7 120.7 316.7 119.1 316.7 117.4 Z M 327.1 119.6 C 327.1 120.4 327.2 121.4 327.2 121.6 C 327.2 121.6 326 121.6 326 121.6 C 326 121.2 325.9 120.6 325.9 120.3 C 325.5 121.2 324.6 121.8 322.9 121.8 C 320.6 121.8 319.7 120.4 319.7 119.2 C 319.7 119.2 319.7 119.2 319.7 119.2 C 319.7 117.2 321.6 116.6 323.9 116.6 C 325 116.6 325.7 116.6 325.9 116.6 C 325.9 116.6 325.9 116.1 325.9 116.1 C 325.9 115.2 325.5 114.3 323.7 114.3 C 322 114.3 321.6 115 321.4 115.8 C 321.41 115.84 321.4 115.8 321.4 115.8 L 320.2 115.8 C 320.2 115.8 320.2 115.84 320.2 115.8 C 320.3 114.8 321 113.3 323.7 113.3 C 326.4 113.3 327.1 114.7 327.1 116 C 327.1 116 327.1 119.6 327.1 119.6 Z M 325.9 117.5 C 325.7 117.5 325.1 117.5 323.9 117.5 C 321.9 117.5 320.9 117.9 320.9 119.1 C 320.9 119.1 320.9 119.1 320.9 119.1 C 320.9 120 321.6 120.8 323 120.8 C 325.4 120.8 325.9 119.3 325.9 117.9 C 325.9 117.9 325.9 117.5 325.9 117.5 Z M 330.5 119.1 C 330.5 119.1 330.53 119.13 330.5 119.1 C 330.8 120.2 331.7 120.8 333.3 120.8 C 335 120.8 335.6 120.2 335.6 119.4 C 335.6 118.6 335.2 118.1 333 117.9 C 330.3 117.5 329.7 116.6 329.7 115.6 C 329.7 114.6 330.5 113.3 333 113.3 C 335.8 113.3 336.5 114.8 336.6 115.7 C 336.57 115.66 336.6 115.7 336.6 115.7 L 335.3 115.7 C 335.3 115.7 335.34 115.66 335.3 115.7 C 335.2 115.1 334.9 114.3 332.9 114.3 C 331.3 114.3 330.9 115 330.9 115.5 C 330.9 116.2 331.3 116.6 333.3 116.8 C 336.2 117.2 336.8 118.1 336.8 119.3 C 336.8 120.7 335.7 121.8 333.2 121.8 C 330.8 121.8 329.6 120.8 329.3 119.1 C 329.3 119.13 329.3 119.1 329.3 119.1 L 330.5 119.1 Z M 339.9 119.1 C 339.9 119.1 339.85 119.13 339.9 119.1 C 340.2 120.2 341.1 120.8 342.6 120.8 C 344.3 120.8 344.9 120.2 344.9 119.4 C 344.9 118.6 344.5 118.1 342.3 117.9 C 339.6 117.5 339 116.6 339 115.6 C 339 114.6 339.8 113.3 342.3 113.3 C 345.1 113.3 345.8 114.8 345.9 115.7 C 345.89 115.66 345.9 115.7 345.9 115.7 L 344.7 115.7 C 344.7 115.7 344.67 115.66 344.7 115.7 C 344.5 115.1 344.2 114.3 342.2 114.3 C 340.6 114.3 340.2 115 340.2 115.5 C 340.2 116.2 340.7 116.6 342.6 116.8 C 345.6 117.2 346.2 118.1 346.2 119.3 C 346.2 120.7 345.1 121.8 342.6 121.8 C 340.2 121.8 338.9 120.8 338.6 119.1 C 338.62 119.13 338.6 119.1 338.6 119.1 L 339.9 119.1 Z M 349.2 117.8 C 349.2 117.8 349.18 117.81 349.2 117.8 C 349.3 119.5 350.4 120.8 352.2 120.8 C 353.5 120.8 354.3 120.2 354.8 119.3 C 354.75 119.32 354.8 119.3 354.8 119.3 L 356 119.3 C 356 119.3 355.96 119.32 356 119.3 C 355.5 120.5 354.4 121.8 352.1 121.8 C 349.3 121.8 348 119.7 348 117.6 C 348 117.6 348 117.6 348 117.6 C 348 115.1 349.6 113.3 352 113.3 C 355.1 113.3 356.1 115.5 356.1 117.5 C 356.1 117.6 356.1 117.7 356.1 117.8 C 356.08 117.81 349.2 117.8 349.2 117.8 Z M 354.8 116.9 C 354.8 116.9 354.8 116.88 354.8 116.9 C 354.7 115.8 354.2 114.3 352 114.3 C 350.3 114.3 349.4 115.4 349.2 116.9 C 349.21 116.88 349.2 116.9 349.2 116.9 L 354.8 116.9 Z M 374.8 109.5 C 374.8 109.5 374.84 119.2 374.8 119.2 C 374.8 120 374.8 120.8 374.9 121.6 C 374.9 121.6 373.7 121.6 373.7 121.6 C 373.6 121.2 373.6 120.7 373.6 120.2 C 373.2 121 372.5 121.8 370.6 121.8 C 368.2 121.8 366.7 120 366.7 117.6 C 366.7 117.6 366.7 117.6 366.7 117.6 C 366.7 115 368.6 113.3 370.8 113.3 C 372.7 113.3 373.4 114.2 373.6 114.6 C 373.63 114.65 373.6 109.5 373.6 109.5 L 374.8 109.5 Z M 367.9 117.6 C 367.9 117.6 367.9 117.6 367.9 117.6 C 367.9 119.1 368.9 120.7 370.8 120.7 C 372.9 120.7 373.7 119.4 373.7 117.5 C 373.7 117.5 373.7 117.5 373.7 117.5 C 373.7 115.6 373 114.3 370.9 114.3 C 368.9 114.3 367.9 116 367.9 117.6 Z M 378.4 117.8 C 378.4 117.8 378.44 117.81 378.4 117.8 C 378.5 119.5 379.7 120.8 381.4 120.8 C 382.8 120.8 383.5 120.2 384 119.3 C 384.01 119.32 384 119.3 384 119.3 L 385.2 119.3 C 385.2 119.3 385.22 119.32 385.2 119.3 C 384.8 120.5 383.7 121.8 381.3 121.8 C 378.6 121.8 377.2 119.7 377.2 117.6 C 377.2 117.6 377.2 117.6 377.2 117.6 C 377.2 115.1 378.9 113.3 381.3 113.3 C 384.3 113.3 385.3 115.5 385.3 117.5 C 385.3 117.6 385.3 117.7 385.3 117.8 C 385.34 117.81 378.4 117.8 378.4 117.8 Z M 384.1 116.9 C 384.1 116.9 384.06 116.88 384.1 116.9 C 384 115.8 383.4 114.3 381.3 114.3 C 379.5 114.3 378.6 115.4 378.5 116.9 C 378.47 116.88 378.5 116.9 378.5 116.9 L 384.1 116.9 Z M 387.7 113.5 C 388.3 115 390.4 119.6 390.7 120.4 C 390.7 120.4 390.7 120.4 390.7 120.4 C 390.9 119.8 391.4 118.5 393.6 113.5 C 393.63 113.51 394.9 113.5 394.9 113.5 L 391.3 121.6 L 390 121.6 L 386.4 113.5 C 386.4 113.5 387.69 113.51 387.7 113.5 Z M 403.3 119.6 C 403.3 120.4 403.3 121.4 403.4 121.6 C 403.4 121.6 402.2 121.6 402.2 121.6 C 402.1 121.2 402.1 120.6 402.1 120.3 C 401.7 121.2 400.8 121.8 399 121.8 C 396.7 121.8 395.9 120.4 395.9 119.2 C 395.9 119.2 395.9 119.2 395.9 119.2 C 395.9 117.2 397.8 116.6 400.1 116.6 C 401.1 116.6 401.8 116.6 402.1 116.6 C 402.1 116.6 402.1 116.1 402.1 116.1 C 402.1 115.2 401.7 114.3 399.8 114.3 C 398.2 114.3 397.8 115 397.6 115.8 C 397.58 115.84 397.6 115.8 397.6 115.8 L 396.4 115.8 C 396.4 115.8 396.38 115.84 396.4 115.8 C 396.5 114.8 397.2 113.3 399.8 113.3 C 402.6 113.3 403.3 114.7 403.3 116 C 403.3 116 403.3 119.6 403.3 119.6 Z M 402.1 117.5 C 401.8 117.5 401.3 117.5 400.1 117.5 C 398.1 117.5 397.1 117.9 397.1 119.1 C 397.1 119.1 397.1 119.1 397.1 119.1 C 397.1 120 397.8 120.8 399.2 120.8 C 401.6 120.8 402.1 119.3 402.1 117.9 C 402.1 117.9 402.1 117.5 402.1 117.5 Z M 406.2 115.5 C 406.2 114.9 406.2 114.1 406.2 113.5 C 406.2 113.5 407.4 113.5 407.4 113.5 C 407.4 113.8 407.4 114.5 407.4 115.1 C 407.7 114.3 408.6 113.3 410.4 113.3 C 412.3 113.3 413.5 114.4 413.5 116.7 C 413.49 116.68 413.5 121.6 413.5 121.6 L 412.3 121.6 C 412.3 121.6 412.28 116.91 412.3 116.9 C 412.3 115.5 411.7 114.4 410.1 114.4 C 408.3 114.4 407.4 115.8 407.4 117.7 C 407.41 117.75 407.4 121.6 407.4 121.6 L 406.2 121.6 C 406.2 121.6 406.2 115.54 406.2 115.5 Z M 415.2 113.5 L 416.9 113.5 L 416.9 110.9 L 418.1 110.9 L 418.1 113.5 L 420.2 113.5 L 420.2 114.5 L 418.1 114.5 C 418.1 114.5 418.08 119.22 418.1 119.2 C 418.1 120.2 418.3 120.6 419.2 120.6 C 419.5 120.6 419.8 120.6 420.1 120.6 C 420.1 120.6 420.1 121.5 420.1 121.5 C 419.7 121.6 419.4 121.6 418.9 121.6 C 417.4 121.6 416.9 120.9 416.9 119.3 C 416.87 119.34 416.9 114.5 416.9 114.5 L 415.2 114.5 L 415.2 113.5 Z M 438.4 119.2 C 438.4 120 438.4 120.8 438.5 121.6 C 438.5 121.6 437.3 121.6 437.3 121.6 C 437.3 121.3 437.2 120.7 437.2 120.1 C 436.8 121.1 436.1 121.8 434.3 121.8 C 432.6 121.8 431.3 120.9 431.3 118.5 C 431.26 118.53 431.3 113.5 431.3 113.5 L 432.5 113.5 C 432.5 113.5 432.46 118.29 432.5 118.3 C 432.5 119.6 433 120.7 434.5 120.7 C 436.4 120.7 437.2 119.6 437.2 117.1 C 437.23 117.13 437.2 113.5 437.2 113.5 L 438.4 113.5 C 438.4 113.5 438.44 119.21 438.4 119.2 Z M 441.4 115.5 C 441.4 114.9 441.4 114.1 441.3 113.5 C 441.3 113.5 442.5 113.5 442.5 113.5 C 442.5 113.8 442.6 114.5 442.6 115.1 C 442.9 114.3 443.8 113.3 445.5 113.3 C 447.4 113.3 448.6 114.4 448.6 116.7 C 448.65 116.68 448.6 121.6 448.6 121.6 L 447.4 121.6 C 447.4 121.6 447.44 116.91 447.4 116.9 C 447.4 115.5 446.9 114.4 445.3 114.4 C 443.5 114.4 442.6 115.8 442.6 117.7 C 442.56 117.75 442.6 121.6 442.6 121.6 L 441.4 121.6 C 441.4 121.6 441.35 115.54 441.4 115.5 Z " stroke="none" fill="#141414"/>  </g></svg>