<?xml version="1.0" standalone="no"?><!DOCTYPE svg PUBLIC "-//W3C//DTD SVG 1.1//EN" "http://www.w3.org/Graphics/SVG/1.1/DTD/svg11.dtd"><svg xmlns="http://www.w3.org/2000/svg" version="1.1" width="495px" height="94px" viewBox="0 -1 495 94" style="top:-1px">  <desc>betc</desc>  <defs/>  <g id="Polygon3322">    <path d="M 0.5 42.4 C 0.5 42.4 3.09 42.41 3.1 42.4 C 3.6 42.4 4 42.5 4.2 42.8 C 4.5 43 4.6 43.4 4.6 43.9 C 4.6 44.2 4.6 44.4 4.5 44.6 C 4.3 44.9 4.1 45 3.9 45.1 C 4.5 45.3 4.8 45.7 4.8 46.4 C 4.8 46.7 4.8 47 4.6 47.3 C 4.5 47.5 4.3 47.7 4 47.8 C 3.8 47.9 3.5 48 3.2 48 C 3.22 48 0.5 48 0.5 48 L 0.5 42.4 Z M 3 44.8 C 3.2 44.8 3.5 44.7 3.6 44.6 C 3.7 44.4 3.8 44.2 3.8 44 C 3.8 43.6 3.8 43.4 3.6 43.3 C 3.5 43.1 3.2 43.1 2.9 43.1 C 2.93 43.07 1.3 43.1 1.3 43.1 L 1.3 44.8 C 1.3 44.8 2.98 44.81 3 44.8 Z M 3 47.3 C 3.4 47.3 3.6 47.3 3.8 47.1 C 3.9 47 4 46.8 4 46.4 C 4 46.1 3.9 45.8 3.7 45.7 C 3.6 45.6 3.3 45.5 3 45.5 C 2.97 45.48 1.3 45.5 1.3 45.5 L 1.3 47.3 C 1.3 47.3 3.04 47.34 3 47.3 Z M 7.6 42.4 L 11.3 42.4 L 11.3 43.1 L 8.4 43.1 L 8.4 44.9 L 10.5 44.9 L 10.5 45.5 L 8.4 45.5 L 8.4 47.3 L 11.3 47.3 L 11.3 48 L 7.6 48 L 7.6 42.4 Z M 15.3 43.1 L 13.6 43.1 L 13.6 42.4 L 17.9 42.4 L 17.9 43.1 L 16.2 43.1 L 16.2 48 L 15.3 48 L 15.3 43.1 Z M 22.9 48.1 C 22.3 48.1 21.8 48 21.4 47.8 C 20.9 47.5 20.6 47.2 20.3 46.7 C 20.1 46.3 20 45.8 20 45.2 C 20 44.6 20.1 44.1 20.3 43.7 C 20.6 43.2 20.9 42.9 21.4 42.6 C 21.8 42.4 22.3 42.3 22.9 42.3 C 23.7 42.3 24.3 42.5 24.8 42.9 C 24.8 42.9 24.8 43.7 24.8 43.7 C 24.4 43.2 23.8 43 23 43 C 22.6 43 22.2 43.1 21.8 43.3 C 21.5 43.5 21.2 43.7 21.1 44.1 C 20.9 44.4 20.8 44.8 20.8 45.2 C 20.8 45.6 20.9 46 21.1 46.4 C 21.3 46.7 21.5 46.9 21.9 47.1 C 22.2 47.3 22.6 47.4 23 47.4 C 23.4 47.4 23.7 47.3 24.1 47.2 C 24.4 47.1 24.7 47 24.9 46.7 C 24.9 46.7 24.9 47.5 24.9 47.5 C 24.4 47.9 23.8 48.1 22.9 48.1 C 22.9 48.1 22.9 48.1 22.9 48.1 Z " stroke="none" fill="#141414"/>  </g></svg>