<?xml version="1.0" standalone="no"?><!DOCTYPE svg PUBLIC "-//W3C//DTD SVG 1.1//EN" "http://www.w3.org/Graphics/SVG/1.1/DTD/svg11.dtd"><svg xmlns="http://www.w3.org/2000/svg" version="1.1" width="90px" height="14.8px" viewBox="0 -2 90 14.8" style="top:-2px">  <desc>Page</desc>  <defs/>  <g id="Polygon4544">    <path d="M 41.9 3.3 L 40.8 4 L 41.2 2.5 L 42.6 1.6 L 44 1.6 L 42.9 6.5 L 41.3 6.5 L 41.9 3.3 Z M 46.6 6.6 C 46.3 6.6 46 6.6 45.7 6.5 C 45.4 6.4 45.2 6.3 45 6.2 C 45 6.2 45.3 4.8 45.3 4.8 C 45.5 5 45.7 5.1 46 5.2 C 46.3 5.3 46.5 5.3 46.8 5.3 C 47.2 5.3 47.5 5.2 47.6 4.9 C 47.6 4.8 47.6 4.8 47.6 4.8 C 47.6 4.5 47.4 4.4 47 4.4 C 46.8 4.4 46.7 4.4 46.5 4.5 C 46.3 4.5 46.1 4.5 46 4.6 C 45.99 4.58 45.5 4.3 45.5 4.3 L 46.2 1.6 L 49.6 1.6 L 49.4 2.9 L 47.5 2.9 C 47.5 2.9 47.39 3.29 47.4 3.3 C 47.6 3.2 47.8 3.2 48 3.2 C 48.4 3.2 48.7 3.3 49 3.5 C 49.2 3.7 49.3 4 49.3 4.4 C 49.3 4.5 49.3 4.6 49.3 4.8 C 49.2 5.4 48.9 5.8 48.4 6.1 C 48 6.4 47.3 6.6 46.6 6.6 C 46.6 6.6 46.6 6.6 46.6 6.6 Z " stroke="none" fill="#fafafa"/>  </g></svg>