<?xml version="1.0" standalone="no"?><!DOCTYPE svg PUBLIC "-//W3C//DTD SVG 1.1//EN" "http://www.w3.org/Graphics/SVG/1.1/DTD/svg11.dtd"><svg xmlns="http://www.w3.org/2000/svg" version="1.1" width="90px" height="14.8px" viewBox="0 -2 90 14.8" style="top:-2px">  <desc>Page</desc>  <defs/>  <g id="Polygon11438">    <path d="M 40.6 5.7 C 40.6 5.7 41.31 5.13 41.3 5.1 C 41.4 5 41.6 4.9 41.9 4.7 C 42.3 4.4 42.6 4.2 42.8 4 C 43 3.8 43.1 3.7 43.1 3.5 C 43.2 3.5 43.2 3.4 43.2 3.4 C 43.2 3.2 43 3.1 42.6 3.1 C 42.4 3.1 42.2 3.1 41.9 3.2 C 41.6 3.3 41.4 3.4 41.2 3.6 C 41.2 3.6 41.5 2 41.5 2 C 41.8 1.8 42.1 1.7 42.4 1.6 C 42.7 1.5 43.1 1.5 43.4 1.5 C 43.9 1.5 44.3 1.6 44.6 1.8 C 44.8 2.1 45 2.4 45 2.7 C 45 2.8 45 2.9 44.9 3 C 44.9 3.4 44.7 3.8 44.5 4 C 44.3 4.3 44 4.6 43.6 4.9 C 43.64 4.88 43.1 5.2 43.1 5.2 L 44.6 5.2 L 44.3 6.5 L 40.4 6.5 L 40.6 5.7 Z M 47.7 3.3 L 46.6 4 L 46.9 2.5 L 48.3 1.6 L 49.7 1.6 L 48.7 6.5 L 47 6.5 L 47.7 3.3 Z " stroke="none" fill="#fafafa"/>  </g></svg>