<?xml version="1.0" standalone="no"?><!DOCTYPE svg PUBLIC "-//W3C//DTD SVG 1.1//EN" "http://www.w3.org/Graphics/SVG/1.1/DTD/svg11.dtd"><svg xmlns="http://www.w3.org/2000/svg" version="1.1" width="495px" height="94px" viewBox="0 -1 495 94" style="top:-1px">  <desc>binge-fit</desc>  <defs/>  <g id="Polygon2761">    <path d="M 0.5 42.4 C 0.5 42.4 3.09 42.41 3.1 42.4 C 3.6 42.4 4 42.5 4.2 42.8 C 4.5 43 4.6 43.4 4.6 43.9 C 4.6 44.2 4.6 44.4 4.5 44.6 C 4.3 44.9 4.1 45 3.9 45.1 C 4.5 45.3 4.8 45.7 4.8 46.4 C 4.8 46.7 4.8 47 4.6 47.3 C 4.5 47.5 4.3 47.7 4 47.8 C 3.8 47.9 3.5 48 3.2 48 C 3.22 48 0.5 48 0.5 48 L 0.5 42.4 Z M 3 44.8 C 3.2 44.8 3.5 44.7 3.6 44.6 C 3.7 44.4 3.8 44.2 3.8 44 C 3.8 43.6 3.8 43.4 3.6 43.3 C 3.5 43.1 3.2 43.1 2.9 43.1 C 2.93 43.07 1.3 43.1 1.3 43.1 L 1.3 44.8 C 1.3 44.8 2.98 44.81 3 44.8 Z M 3 47.3 C 3.4 47.3 3.6 47.3 3.8 47.1 C 3.9 47 4 46.8 4 46.4 C 4 46.1 3.9 45.8 3.7 45.7 C 3.6 45.6 3.3 45.5 3 45.5 C 2.97 45.48 1.3 45.5 1.3 45.5 L 1.3 47.3 C 1.3 47.3 3.04 47.34 3 47.3 Z M 7.6 42.4 L 8.4 42.4 L 8.4 48 L 7.6 48 L 7.6 42.4 Z M 11.3 42.4 L 12.1 42.4 L 14.9 46.6 L 14.9 42.4 L 15.8 42.4 L 15.8 48 L 15 48 L 12.1 43.8 L 12.1 48 L 11.3 48 L 11.3 42.4 Z M 21.4 48.1 C 20.9 48.1 20.3 48 19.9 47.8 C 19.5 47.5 19.1 47.2 18.9 46.7 C 18.6 46.3 18.5 45.8 18.5 45.2 C 18.5 44.6 18.6 44.1 18.9 43.7 C 19.1 43.2 19.5 42.9 19.9 42.6 C 20.3 42.4 20.9 42.3 21.4 42.3 C 22.2 42.3 22.9 42.5 23.4 42.9 C 23.4 42.9 23.4 43.6 23.4 43.6 C 22.9 43.2 22.3 43 21.5 43 C 21.1 43 20.7 43.1 20.4 43.3 C 20 43.5 19.8 43.7 19.6 44.1 C 19.4 44.4 19.3 44.8 19.3 45.2 C 19.3 45.6 19.4 46 19.6 46.4 C 19.8 46.7 20 46.9 20.4 47.1 C 20.7 47.3 21.1 47.4 21.5 47.4 C 22 47.4 22.4 47.3 22.7 47.1 C 22.67 47.09 22.7 45.6 22.7 45.6 L 21.6 45.6 L 21.6 45 L 23.5 45 C 23.5 45 23.48 47.52 23.5 47.5 C 23.2 47.7 22.9 47.9 22.6 48 C 22.3 48.1 21.9 48.1 21.4 48.1 C 21.4 48.1 21.4 48.1 21.4 48.1 Z M 26.3 42.4 L 30 42.4 L 30 43.1 L 27.1 43.1 L 27.1 44.9 L 29.3 44.9 L 29.3 45.5 L 27.1 45.5 L 27.1 47.3 L 30 47.3 L 30 48 L 26.3 48 L 26.3 42.4 Z M 32.1 45.3 L 34.6 45.3 L 34.6 46 L 32.1 46 L 32.1 45.3 Z M 37.4 42.4 L 41.1 42.4 L 41.1 43.1 L 38.2 43.1 L 38.2 44.9 L 40.3 44.9 L 40.3 45.5 L 38.2 45.5 L 38.2 48 L 37.4 48 L 37.4 42.4 Z M 43.5 42.4 L 44.4 42.4 L 44.4 48 L 43.5 48 L 43.5 42.4 Z M 48.6 43.1 L 46.8 43.1 L 46.8 42.4 L 51.1 42.4 L 51.1 43.1 L 49.4 43.1 L 49.4 48 L 48.6 48 L 48.6 43.1 Z " stroke="none" fill="#141414"/>  </g></svg>