<?xml version="1.0" standalone="no"?><!DOCTYPE svg PUBLIC "-//W3C//DTD SVG 1.1//EN" "http://www.w3.org/Graphics/SVG/1.1/DTD/svg11.dtd"><svg xmlns="http://www.w3.org/2000/svg" version="1.1" width="90px" height="14.8px" viewBox="0 -2 90 14.8" style="top:-2px">  <desc>Page</desc>  <defs/>  <g id="Polygon9887">    <path d="M 44.6 6.6 C 44 6.6 43.6 6.5 43.2 6.3 C 42.9 6.1 42.7 5.8 42.7 5.4 C 42.7 5.3 42.8 5.2 42.8 5.1 C 42.8 4.8 42.9 4.6 43.1 4.4 C 43.2 4.2 43.4 4.1 43.6 4 C 43.4 3.8 43.3 3.6 43.3 3.3 C 43.3 3.2 43.4 3.1 43.4 3 C 43.5 2.5 43.7 2.1 44.1 1.9 C 44.5 1.6 45.1 1.5 45.7 1.5 C 46.2 1.5 46.6 1.6 46.9 1.8 C 47.2 2 47.4 2.3 47.4 2.7 C 47.4 2.7 47.4 2.8 47.4 3 C 47.3 3.4 47.1 3.7 46.7 4 C 46.9 4.1 46.9 4.2 47 4.3 C 47.1 4.4 47.1 4.6 47.1 4.7 C 47.1 4.9 47.1 5 47.1 5.1 C 47 5.5 46.7 5.9 46.2 6.2 C 45.8 6.5 45.2 6.6 44.6 6.6 C 44.6 6.6 44.6 6.6 44.6 6.6 Z M 45.2 3.6 C 45.4 3.6 45.5 3.5 45.6 3.4 C 45.7 3.3 45.8 3.2 45.8 3.1 C 45.8 3 45.7 2.9 45.7 2.8 C 45.6 2.8 45.5 2.7 45.4 2.7 C 45.3 2.7 45.2 2.8 45.1 2.9 C 45 3 44.9 3.1 44.9 3.3 C 44.9 3.3 44.9 3.4 45 3.5 C 45.1 3.5 45.1 3.6 45.2 3.6 C 45.2 3.6 45.2 3.6 45.2 3.6 Z M 44.9 5.4 C 45 5.4 45.2 5.3 45.3 5.2 C 45.4 5.1 45.5 4.9 45.5 4.8 C 45.5 4.7 45.4 4.6 45.4 4.5 C 45.3 4.4 45.2 4.4 45.1 4.4 C 44.9 4.4 44.8 4.5 44.6 4.6 C 44.5 4.7 44.5 4.8 44.5 5 C 44.5 5.1 44.5 5.2 44.6 5.3 C 44.6 5.3 44.7 5.4 44.9 5.4 C 44.9 5.4 44.9 5.4 44.9 5.4 Z " stroke="none" fill="#fafafa"/>  </g></svg>