<?xml version="1.0" standalone="no"?><!DOCTYPE svg PUBLIC "-//W3C//DTD SVG 1.1//EN" "http://www.w3.org/Graphics/SVG/1.1/DTD/svg11.dtd"><svg xmlns="http://www.w3.org/2000/svg" version="1.1" width="90px" height="14.8px" viewBox="0 -2 90 14.8" style="top:-2px">  <desc>Page</desc>  <defs/>  <g id="Polygon4958">    <path d="M 41.8 3.3 L 40.7 4 L 41.1 2.5 L 42.5 1.6 L 43.9 1.6 L 42.8 6.5 L 41.2 6.5 L 41.8 3.3 Z M 46.4 6.6 C 46 6.6 45.7 6.6 45.4 6.5 C 45.4 6.5 45.7 5.1 45.7 5.1 C 45.9 5.3 46.2 5.3 46.6 5.3 C 46.8 5.3 47 5.3 47.2 5.2 C 47.5 5 47.6 4.9 47.7 4.7 C 47.6 4.8 47.4 4.8 47.2 4.9 C 47.1 4.9 46.9 4.9 46.7 4.9 C 46.3 4.9 46 4.8 45.7 4.6 C 45.5 4.4 45.4 4.1 45.4 3.7 C 45.4 3.6 45.4 3.4 45.4 3.3 C 45.5 2.9 45.6 2.6 45.8 2.4 C 46 2.1 46.3 1.9 46.7 1.7 C 47 1.6 47.4 1.5 47.9 1.5 C 48.5 1.5 48.9 1.6 49.2 1.9 C 49.5 2.2 49.7 2.6 49.7 3.1 C 49.7 3.4 49.7 3.6 49.6 3.8 C 49.5 4.4 49.2 4.9 48.9 5.3 C 48.6 5.8 48.2 6.1 47.8 6.3 C 47.4 6.5 46.9 6.6 46.4 6.6 C 46.4 6.6 46.4 6.6 46.4 6.6 Z M 47.5 3.7 C 47.6 3.7 47.7 3.7 47.8 3.6 C 47.9 3.5 48 3.4 48 3.2 C 48 3.2 48 3.1 48 3.1 C 48 3 48 2.9 47.9 2.8 C 47.9 2.8 47.8 2.7 47.7 2.7 C 47.5 2.7 47.4 2.8 47.3 2.9 C 47.2 2.9 47.1 3.1 47.1 3.2 C 47.1 3.3 47.1 3.3 47.1 3.4 C 47.1 3.5 47.1 3.6 47.2 3.6 C 47.2 3.7 47.3 3.7 47.5 3.7 C 47.5 3.7 47.5 3.7 47.5 3.7 Z " stroke="none" fill="#fafafa"/>  </g></svg>