<?xml version="1.0" standalone="no"?><!DOCTYPE svg PUBLIC "-//W3C//DTD SVG 1.1//EN" "http://www.w3.org/Graphics/SVG/1.1/DTD/svg11.dtd"><svg xmlns="http://www.w3.org/2000/svg" version="1.1" width="495px" height="94px" viewBox="0 -1 495 94" style="top:-1px">  <desc>canal+</desc>  <defs/>  <g id="Polygon8890">    <path d="M 460 48.1 C 459.4 48.1 458.9 48 458.4 47.8 C 458 47.5 457.6 47.2 457.4 46.7 C 457.1 46.3 457 45.8 457 45.2 C 457 44.6 457.1 44.1 457.4 43.7 C 457.6 43.2 458 42.9 458.4 42.6 C 458.9 42.4 459.4 42.3 460 42.3 C 460.7 42.3 461.4 42.5 461.9 42.9 C 461.9 42.9 461.9 43.7 461.9 43.7 C 461.4 43.2 460.8 43 460 43 C 459.6 43 459.2 43.1 458.9 43.3 C 458.6 43.5 458.3 43.7 458.1 44.1 C 457.9 44.4 457.8 44.8 457.8 45.2 C 457.8 45.6 457.9 46 458.1 46.4 C 458.3 46.7 458.6 46.9 458.9 47.1 C 459.2 47.3 459.6 47.4 460 47.4 C 460.4 47.4 460.8 47.3 461.1 47.2 C 461.4 47.1 461.7 47 462 46.7 C 462 46.7 462 47.5 462 47.5 C 461.5 47.9 460.8 48.1 460 48.1 C 460 48.1 460 48.1 460 48.1 Z M 466.6 42.4 L 467.4 42.4 L 469.6 48 L 468.8 48 L 468.2 46.6 L 465.8 46.6 L 465.2 48 L 464.4 48 L 466.6 42.4 Z M 468 45.9 L 467 43.3 L 466 45.9 L 468 45.9 Z M 472.2 42.4 L 473 42.4 L 475.8 46.6 L 475.8 42.4 L 476.6 42.4 L 476.6 48 L 475.8 48 L 473 43.8 L 473 48 L 472.2 48 L 472.2 42.4 Z M 481.4 42.4 L 482.2 42.4 L 484.4 48 L 483.6 48 L 483 46.6 L 480.6 46.6 L 480 48 L 479.2 48 L 481.4 42.4 Z M 482.8 45.9 L 481.8 43.3 L 480.8 45.9 L 482.8 45.9 Z M 487 42.4 L 487.8 42.4 L 487.8 47.3 L 490.6 47.3 L 490.6 48 L 487 48 L 487 42.4 Z M 493 46 L 492.1 46 L 492.1 45.3 L 493 45.3 L 493 44.3 L 493.7 44.3 L 493.7 45.3 L 494.6 45.3 L 494.6 46 L 493.7 46 L 493.7 46.9 L 493 46.9 L 493 46 Z " stroke="none" fill="#141414"/>  </g></svg>