<?xml version="1.0" standalone="no"?><!DOCTYPE svg PUBLIC "-//W3C//DTD SVG 1.1//EN" "http://www.w3.org/Graphics/SVG/1.1/DTD/svg11.dtd"><svg xmlns="http://www.w3.org/2000/svg" version="1.1" width="90px" height="14.8px" viewBox="0 -2 90 14.8" style="top:-2px">  <desc>Page</desc>  <defs/>  <g id="Polygon12146">    <path d="M 40.2 5.7 C 40.2 5.7 40.93 5.13 40.9 5.1 C 41.1 5 41.3 4.9 41.5 4.7 C 41.9 4.4 42.2 4.2 42.4 4 C 42.6 3.8 42.7 3.7 42.8 3.5 C 42.8 3.5 42.8 3.4 42.8 3.4 C 42.8 3.2 42.6 3.1 42.2 3.1 C 42 3.1 41.8 3.1 41.5 3.2 C 41.3 3.3 41 3.4 40.8 3.6 C 40.8 3.6 41.2 2 41.2 2 C 41.4 1.8 41.7 1.7 42 1.6 C 42.4 1.5 42.7 1.5 43 1.5 C 43.5 1.5 43.9 1.6 44.2 1.8 C 44.5 2.1 44.6 2.4 44.6 2.7 C 44.6 2.8 44.6 2.9 44.6 3 C 44.5 3.4 44.3 3.8 44.1 4 C 43.9 4.3 43.6 4.6 43.3 4.9 C 43.26 4.88 42.8 5.2 42.8 5.2 L 44.2 5.2 L 44 6.5 L 40.1 6.5 L 40.2 5.7 Z M 48.3 2.9 L 46.4 2.9 L 46.6 1.6 L 50.3 1.6 L 50.1 2.6 L 47.5 6.5 L 45.9 6.5 L 48.3 2.9 Z " stroke="none" fill="#fafafa"/>  </g></svg>