<?xml version="1.0" standalone="no"?><!DOCTYPE svg PUBLIC "-//W3C//DTD SVG 1.1//EN" "http://www.w3.org/Graphics/SVG/1.1/DTD/svg11.dtd"><svg xmlns="http://www.w3.org/2000/svg" version="1.1" width="450px" height="286.2px" viewBox="0 -1 450 286.2" style="top:-1px">  <desc>On dezoom du plan GPS, on r alise qu’il s’affiche sur une tablette pos e sur une table basse. Nous sommes de retour d...</desc>  <defs/>  <g id="Polygon10535">    <path d="M 8.9 158.1 C 8.9 158.1 8.86 167.84 8.9 167.8 C 8.9 168.6 8.9 169.4 8.9 170.2 C 8.9 170.2 7.7 170.2 7.7 170.2 C 7.7 169.8 7.7 169.3 7.7 168.9 C 7.3 169.6 6.5 170.4 4.6 170.4 C 2.3 170.4 0.7 168.7 0.7 166.2 C 0.7 166.2 0.7 166.2 0.7 166.2 C 0.7 163.6 2.7 161.9 4.8 161.9 C 6.8 161.9 7.4 162.9 7.7 163.3 C 7.65 163.29 7.7 158.1 7.7 158.1 L 8.9 158.1 Z M 2 166.2 C 2 166.2 2 166.2 2 166.2 C 2 167.8 2.9 169.4 4.8 169.4 C 6.9 169.4 7.7 168 7.7 166.1 C 7.7 166.1 7.7 166.1 7.7 166.1 C 7.7 164.3 7.1 163 4.9 163 C 2.9 163 2 164.6 2 166.2 Z M 12.5 166.4 C 12.5 166.4 12.46 166.45 12.5 166.4 C 12.5 168.2 13.7 169.4 15.4 169.4 C 16.8 169.4 17.6 168.8 18 168 C 18.03 167.96 18 168 18 168 L 19.2 168 C 19.2 168 19.24 167.96 19.2 168 C 18.8 169.1 17.7 170.4 15.3 170.4 C 12.6 170.4 11.2 168.3 11.2 166.2 C 11.2 166.2 11.2 166.2 11.2 166.2 C 11.2 163.7 12.9 161.9 15.3 161.9 C 18.3 161.9 19.4 164.2 19.4 166.1 C 19.4 166.2 19.4 166.3 19.4 166.4 C 19.36 166.45 12.5 166.4 12.5 166.4 Z M 18.1 165.5 C 18.1 165.5 18.08 165.52 18.1 165.5 C 18 164.5 17.4 162.9 15.3 162.9 C 13.6 162.9 12.6 164 12.5 165.5 C 12.49 165.52 12.5 165.5 12.5 165.5 L 18.1 165.5 Z M 30 164.3 C 30 163.6 30 162.9 30 162.2 C 30 162.2 31.1 162.2 31.1 162.2 C 31.1 162.4 31.2 163.2 31.2 164 C 31.7 162.7 32.9 161.9 34.5 161.9 C 34.5 161.9 34.5 163.1 34.5 163.1 C 32.6 163.1 31.2 164.3 31.2 166.7 C 31.18 166.72 31.2 170.2 31.2 170.2 L 30 170.2 C 30 170.2 29.97 164.34 30 164.3 Z M 36.9 166.4 C 36.9 166.4 36.87 166.45 36.9 166.4 C 37 168.2 38.1 169.4 39.9 169.4 C 41.2 169.4 42 168.8 42.4 168 C 42.44 167.96 42.4 168 42.4 168 L 43.6 168 C 43.6 168 43.65 167.96 43.6 168 C 43.2 169.1 42.1 170.4 39.8 170.4 C 37 170.4 35.6 168.3 35.6 166.2 C 35.6 166.2 35.6 166.2 35.6 166.2 C 35.6 163.7 37.3 161.9 39.7 161.9 C 42.7 161.9 43.8 164.2 43.8 166.1 C 43.8 166.2 43.8 166.3 43.8 166.4 C 43.77 166.45 36.9 166.4 36.9 166.4 Z M 42.5 165.5 C 42.5 165.5 42.49 165.52 42.5 165.5 C 42.4 164.5 41.9 162.9 39.7 162.9 C 38 162.9 37.1 164 36.9 165.5 C 36.9 165.52 36.9 165.5 36.9 165.5 L 42.5 165.5 Z M 45 162.2 L 46.6 162.2 L 46.6 159.5 L 47.8 159.5 L 47.8 162.2 L 50 162.2 L 50 163.2 L 47.8 163.2 C 47.8 163.2 47.81 167.86 47.8 167.9 C 47.8 168.8 48.1 169.3 49 169.3 C 49.2 169.3 49.6 169.3 49.8 169.2 C 49.8 169.2 49.8 170.1 49.8 170.1 C 49.5 170.3 49.1 170.3 48.7 170.3 C 47.1 170.3 46.6 169.6 46.6 168 C 46.6 167.98 46.6 163.2 46.6 163.2 L 45 163.2 L 45 162.2 Z M 59.6 166.2 C 59.6 166.2 59.6 166.2 59.6 166.2 C 59.6 168.3 58.2 170.4 55.3 170.4 C 52.7 170.4 51.2 168.4 51.2 166.2 C 51.2 166.2 51.2 166.2 51.2 166.2 C 51.2 163.9 52.8 161.9 55.4 161.9 C 58.1 161.9 59.6 164 59.6 166.2 Z M 52.4 166.2 C 52.4 166.2 52.4 166.2 52.4 166.2 C 52.4 167.8 53.5 169.4 55.4 169.4 C 57.4 169.4 58.3 167.9 58.3 166.2 C 58.3 166.2 58.3 166.2 58.3 166.2 C 58.3 164.5 57.2 163 55.3 163 C 53.4 163 52.4 164.5 52.4 166.2 Z M 69.1 167.9 C 69.1 168.6 69.1 169.4 69.1 170.2 C 69.1 170.2 68 170.2 68 170.2 C 67.9 170 67.9 169.3 67.9 168.7 C 67.5 169.7 66.7 170.4 65 170.4 C 63.2 170.4 61.9 169.5 61.9 167.2 C 61.92 167.17 61.9 162.2 61.9 162.2 L 63.1 162.2 C 63.1 162.2 63.13 166.93 63.1 166.9 C 63.1 168.2 63.6 169.3 65.2 169.3 C 67.1 169.3 67.9 168.3 67.9 165.8 C 67.89 165.77 67.9 162.2 67.9 162.2 L 69.1 162.2 C 69.1 162.2 69.1 167.85 69.1 167.9 Z M 72 164.3 C 72 163.6 72 162.9 72 162.2 C 72 162.2 73.2 162.2 73.2 162.2 C 73.2 162.4 73.2 163.2 73.2 164 C 73.8 162.7 75 161.9 76.5 161.9 C 76.5 161.9 76.5 163.1 76.5 163.1 C 74.7 163.1 73.2 164.3 73.2 166.7 C 73.22 166.72 73.2 170.2 73.2 170.2 L 72 170.2 C 72 170.2 72.02 164.34 72 164.3 Z M 94.3 158.1 C 94.3 158.1 94.26 167.84 94.3 167.8 C 94.3 168.6 94.3 169.4 94.3 170.2 C 94.3 170.2 93.1 170.2 93.1 170.2 C 93.1 169.8 93.1 169.3 93 168.9 C 92.7 169.6 91.9 170.4 90 170.4 C 87.7 170.4 86.1 168.7 86.1 166.2 C 86.1 166.2 86.1 166.2 86.1 166.2 C 86.1 163.6 88.1 161.9 90.2 161.9 C 92.2 161.9 92.8 162.9 93 163.3 C 93.05 163.29 93 158.1 93 158.1 L 94.3 158.1 Z M 87.4 166.2 C 87.4 166.2 87.4 166.2 87.4 166.2 C 87.4 167.8 88.3 169.4 90.2 169.4 C 92.3 169.4 93.1 168 93.1 166.1 C 93.1 166.1 93.1 166.1 93.1 166.1 C 93.1 164.3 92.5 163 90.3 163 C 88.3 163 87.4 164.6 87.4 166.2 Z M 104 168.3 C 104 169 104.1 170 104.1 170.2 C 104.1 170.2 103 170.2 103 170.2 C 102.9 169.9 102.9 169.2 102.9 168.9 C 102.4 169.8 101.5 170.4 99.8 170.4 C 97.5 170.4 96.7 169 96.7 167.9 C 96.7 167.9 96.7 167.9 96.7 167.9 C 96.7 165.8 98.5 165.2 100.8 165.2 C 101.9 165.2 102.6 165.2 102.8 165.2 C 102.8 165.2 102.8 164.8 102.8 164.8 C 102.8 163.8 102.4 162.9 100.6 162.9 C 98.9 162.9 98.5 163.7 98.3 164.5 C 98.32 164.48 98.3 164.5 98.3 164.5 L 97.1 164.5 C 97.1 164.5 97.11 164.48 97.1 164.5 C 97.2 163.4 97.9 161.9 100.6 161.9 C 103.3 161.9 104 163.3 104 164.6 C 104 164.6 104 168.3 104 168.3 Z M 102.8 166.2 C 102.6 166.2 102 166.2 100.8 166.2 C 98.8 166.2 97.9 166.6 97.9 167.8 C 97.9 167.8 97.9 167.8 97.9 167.8 C 97.9 168.7 98.5 169.4 100 169.4 C 102.3 169.4 102.8 168 102.8 166.6 C 102.8 166.6 102.8 166.2 102.8 166.2 Z M 106.9 164.2 C 106.9 163.5 106.9 162.8 106.9 162.2 C 106.9 162.2 108.1 162.2 108.1 162.2 C 108.1 162.4 108.1 163.2 108.1 163.8 C 108.5 162.9 109.4 161.9 111.1 161.9 C 113 161.9 114.2 163.1 114.2 165.3 C 114.23 165.32 114.2 170.2 114.2 170.2 L 113 170.2 C 113 170.2 113.02 165.55 113 165.6 C 113 164.1 112.5 163 110.9 163 C 109 163 108.1 164.4 108.1 166.4 C 108.15 166.39 108.1 170.2 108.1 170.2 L 106.9 170.2 C 106.9 170.2 106.93 164.18 106.9 164.2 Z M 117.6 167.8 C 117.6 167.8 117.63 167.77 117.6 167.8 C 117.9 168.8 118.8 169.4 120.4 169.4 C 122.1 169.4 122.7 168.8 122.7 168 C 122.7 167.3 122.3 166.8 120.1 166.5 C 117.4 166.2 116.8 165.2 116.8 164.2 C 116.8 163.2 117.6 161.9 120.1 161.9 C 122.9 161.9 123.6 163.4 123.7 164.3 C 123.67 164.3 123.7 164.3 123.7 164.3 L 122.4 164.3 C 122.4 164.3 122.44 164.3 122.4 164.3 C 122.3 163.8 122 162.9 120 162.9 C 118.4 162.9 118 163.6 118 164.1 C 118 164.8 118.4 165.2 120.4 165.5 C 123.3 165.8 123.9 166.7 123.9 167.9 C 123.9 169.4 122.8 170.4 120.3 170.4 C 117.9 170.4 116.7 169.4 116.4 167.8 C 116.4 167.77 116.4 167.8 116.4 167.8 L 117.6 167.8 Z M 134.6 170.2 L 134.6 158.1 L 135.8 158.1 L 135.8 170.2 L 134.6 170.2 Z M 139.4 166.4 C 139.4 166.4 139.43 166.45 139.4 166.4 C 139.5 168.2 140.7 169.4 142.4 169.4 C 143.8 169.4 144.5 168.8 145 168 C 145.01 167.96 145 168 145 168 L 146.2 168 C 146.2 168 146.21 167.96 146.2 168 C 145.8 169.1 144.7 170.4 142.3 170.4 C 139.6 170.4 138.2 168.3 138.2 166.2 C 138.2 166.2 138.2 166.2 138.2 166.2 C 138.2 163.7 139.9 161.9 142.3 161.9 C 145.3 161.9 146.3 164.2 146.3 166.1 C 146.3 166.2 146.3 166.3 146.3 166.4 C 146.33 166.45 139.4 166.4 139.4 166.4 Z M 145.1 165.5 C 145.1 165.5 145.06 165.52 145.1 165.5 C 145 164.5 144.4 162.9 142.3 162.9 C 140.5 162.9 139.6 164 139.5 165.5 C 139.47 165.52 139.5 165.5 139.5 165.5 L 145.1 165.5 Z M 157.4 167.8 C 157.4 167.8 157.38 167.77 157.4 167.8 C 157.7 168.8 158.6 169.4 160.2 169.4 C 161.8 169.4 162.5 168.8 162.5 168 C 162.5 167.3 162 166.8 159.9 166.5 C 157.1 166.2 156.5 165.2 156.5 164.2 C 156.5 163.2 157.3 161.9 159.9 161.9 C 162.6 161.9 163.3 163.4 163.4 164.3 C 163.42 164.3 163.4 164.3 163.4 164.3 L 162.2 164.3 C 162.2 164.3 162.19 164.3 162.2 164.3 C 162.1 163.8 161.7 162.9 159.8 162.9 C 158.1 162.9 157.8 163.6 157.8 164.1 C 157.8 164.8 158.2 165.2 160.1 165.5 C 163.1 165.8 163.7 166.7 163.7 167.9 C 163.7 169.4 162.6 170.4 160.1 170.4 C 157.7 170.4 156.4 169.4 156.2 167.8 C 156.15 167.77 156.2 167.8 156.2 167.8 L 157.4 167.8 Z M 173 168.3 C 173 169 173 170 173 170.2 C 173 170.2 171.9 170.2 171.9 170.2 C 171.8 169.9 171.8 169.2 171.8 168.9 C 171.4 169.8 170.4 170.4 168.7 170.4 C 166.4 170.4 165.6 169 165.6 167.9 C 165.6 167.9 165.6 167.9 165.6 167.9 C 165.6 165.8 167.4 165.2 169.7 165.2 C 170.8 165.2 171.5 165.2 171.8 165.2 C 171.8 165.2 171.8 164.8 171.8 164.8 C 171.8 163.8 171.4 162.9 169.5 162.9 C 167.8 162.9 167.4 163.7 167.2 164.5 C 167.24 164.48 167.2 164.5 167.2 164.5 L 166 164.5 C 166 164.5 166.03 164.48 166 164.5 C 166.1 163.4 166.9 161.9 169.5 161.9 C 172.3 161.9 173 163.3 173 164.6 C 173 164.6 173 168.3 173 168.3 Z M 171.8 166.2 C 171.5 166.2 171 166.2 169.8 166.2 C 167.7 166.2 166.8 166.6 166.8 167.8 C 166.8 167.8 166.8 167.8 166.8 167.8 C 166.8 168.7 167.4 169.4 168.9 169.4 C 171.2 169.4 171.8 168 171.8 166.6 C 171.8 166.6 171.8 166.2 171.8 166.2 Z M 175.9 170.2 L 175.9 158.1 L 177.1 158.1 L 177.1 170.2 L 175.9 170.2 Z M 187.8 166.2 C 187.8 166.2 187.8 166.2 187.8 166.2 C 187.8 168.3 186.4 170.4 183.6 170.4 C 180.9 170.4 179.4 168.4 179.4 166.2 C 179.4 166.2 179.4 166.2 179.4 166.2 C 179.4 163.9 181 161.9 183.7 161.9 C 186.3 161.9 187.8 164 187.8 166.2 Z M 180.7 166.2 C 180.7 166.2 180.7 166.2 180.7 166.2 C 180.7 167.8 181.7 169.4 183.6 169.4 C 185.6 169.4 186.6 167.9 186.6 166.2 C 186.6 166.2 186.6 166.2 186.6 166.2 C 186.6 164.5 185.5 163 183.6 163 C 181.6 163 180.7 164.5 180.7 166.2 Z M 190.2 164.2 C 190.2 163.5 190.2 162.8 190.2 162.2 C 190.2 162.2 191.3 162.2 191.3 162.2 C 191.4 162.4 191.4 163.2 191.4 163.8 C 191.7 162.9 192.6 161.9 194.4 161.9 C 196.2 161.9 197.5 163.1 197.5 165.3 C 197.49 165.32 197.5 170.2 197.5 170.2 L 196.3 170.2 C 196.3 170.2 196.27 165.55 196.3 165.6 C 196.3 164.1 195.7 163 194.1 163 C 192.3 163 191.4 164.4 191.4 166.4 C 191.4 166.39 191.4 170.2 191.4 170.2 L 190.2 170.2 C 190.2 170.2 190.19 164.18 190.2 164.2 Z M 216.3 158.1 C 216.3 158.1 216.29 167.84 216.3 167.8 C 216.3 168.6 216.3 169.4 216.3 170.2 C 216.3 170.2 215.1 170.2 215.1 170.2 C 215.1 169.8 215.1 169.3 215.1 168.9 C 214.7 169.6 214 170.4 212 170.4 C 209.7 170.4 208.1 168.7 208.1 166.2 C 208.1 166.2 208.1 166.2 208.1 166.2 C 208.1 163.6 210.1 161.9 212.2 161.9 C 214.2 161.9 214.9 162.9 215.1 163.3 C 215.08 163.29 215.1 158.1 215.1 158.1 L 216.3 158.1 Z M 209.4 166.2 C 209.4 166.2 209.4 166.2 209.4 166.2 C 209.4 167.8 210.3 169.4 212.2 169.4 C 214.3 169.4 215.1 168 215.1 166.1 C 215.1 166.1 215.1 166.1 215.1 166.1 C 215.1 164.3 214.5 163 212.3 163 C 210.3 163 209.4 164.6 209.4 166.2 Z M 218.9 162.7 C 219.4 161.4 219.7 159.6 219.8 158.1 C 219.8 158.1 221 158.1 221 158.1 C 221 159.4 220.4 161.6 220 162.7 C 220 162.7 218.9 162.7 218.9 162.7 Z M 224.2 166.5 L 222.6 170.2 L 221.2 170.2 L 226.2 158.8 L 227.7 158.8 L 232.9 170.2 L 231.5 170.2 L 229.8 166.5 L 224.2 166.5 Z M 229.4 165.4 C 227.9 162.1 227.2 160.5 226.9 159.8 C 226.9 159.8 226.9 159.8 226.9 159.8 C 226.7 160.5 225.9 162.5 224.6 165.4 C 224.6 165.4 229.4 165.4 229.4 165.4 Z M 234.9 164.2 C 234.9 163.5 234.9 162.8 234.9 162.2 C 234.9 162.2 236.1 162.2 236.1 162.2 C 236.1 162.4 236.1 163.2 236.1 163.8 C 236.5 162.9 237.4 161.9 239.1 161.9 C 241 161.9 242.2 163.1 242.2 165.3 C 242.23 165.32 242.2 170.2 242.2 170.2 L 241 170.2 C 241 170.2 241.02 165.55 241 165.6 C 241 164.1 240.5 163 238.9 163 C 237 163 236.1 164.4 236.1 166.4 C 236.15 166.39 236.1 170.2 236.1 170.2 L 234.9 170.2 C 234.9 170.2 234.94 164.18 234.9 164.2 Z M 245.1 164.2 C 245.1 163.5 245.1 162.8 245.1 162.2 C 245.1 162.2 246.3 162.2 246.3 162.2 C 246.3 162.4 246.3 163.2 246.3 163.8 C 246.7 162.9 247.5 161.9 249.3 161.9 C 251.2 161.9 252.4 163.1 252.4 165.3 C 252.41 165.32 252.4 170.2 252.4 170.2 L 251.2 170.2 C 251.2 170.2 251.2 165.55 251.2 165.6 C 251.2 164.1 250.6 163 249 163 C 247.2 163 246.3 164.4 246.3 166.4 C 246.33 166.39 246.3 170.2 246.3 170.2 L 245.1 170.2 C 245.1 170.2 245.12 164.18 245.1 164.2 Z M 262.1 168.3 C 262.1 169 262.2 170 262.2 170.2 C 262.2 170.2 261.1 170.2 261.1 170.2 C 261 169.9 261 169.2 261 168.9 C 260.6 169.8 259.6 170.4 257.9 170.4 C 255.6 170.4 254.8 169 254.8 167.9 C 254.8 167.9 254.8 167.9 254.8 167.9 C 254.8 165.8 256.6 165.2 258.9 165.2 C 260 165.2 260.7 165.2 261 165.2 C 261 165.2 261 164.8 261 164.8 C 261 163.8 260.6 162.9 258.7 162.9 C 257 162.9 256.6 163.7 256.4 164.5 C 256.44 164.48 256.4 164.5 256.4 164.5 L 255.2 164.5 C 255.2 164.5 255.23 164.48 255.2 164.5 C 255.3 163.4 256.1 161.9 258.7 161.9 C 261.5 161.9 262.1 163.3 262.1 164.6 C 262.1 164.6 262.1 168.3 262.1 168.3 Z M 261 166.2 C 260.7 166.2 260.2 166.2 259 166.2 C 256.9 166.2 256 166.6 256 167.8 C 256 167.8 256 167.8 256 167.8 C 256 168.7 256.6 169.4 258.1 169.4 C 260.4 169.4 261 168 261 166.6 C 261 166.6 261 166.2 261 166.2 Z M 264 172.5 C 264.9 170.6 265.2 169.2 265.3 167.8 C 265.3 167.8 266.6 167.8 266.6 167.8 C 266.5 169 265.9 171.1 265.1 172.5 C 265.1 172.5 264 172.5 264 172.5 Z M 284.9 167.7 C 284.9 167.7 284.94 167.74 284.9 167.7 C 284.5 169.2 283.3 170.4 281.1 170.4 C 278.3 170.4 276.9 168.5 276.9 166.2 C 276.9 166.2 276.9 166.2 276.9 166.2 C 276.9 163.9 278.5 161.9 281.1 161.9 C 283.7 161.9 284.7 163.5 284.9 164.7 C 284.93 164.67 284.9 164.7 284.9 164.7 L 283.7 164.7 C 283.7 164.7 283.72 164.67 283.7 164.7 C 283.4 163.8 282.7 163 281.1 163 C 279.3 163 278.2 164.3 278.2 166.2 C 278.2 166.2 278.2 166.2 278.2 166.2 C 278.2 168 279.2 169.4 281.1 169.4 C 282.5 169.4 283.3 168.7 283.7 167.7 C 283.73 167.74 283.7 167.7 283.7 167.7 L 284.9 167.7 Z M 295.1 166.2 C 295.1 166.2 295.1 166.2 295.1 166.2 C 295.1 168.3 293.7 170.4 290.8 170.4 C 288.2 170.4 286.7 168.4 286.7 166.2 C 286.7 166.2 286.7 166.2 286.7 166.2 C 286.7 163.9 288.3 161.9 290.9 161.9 C 293.6 161.9 295.1 164 295.1 166.2 Z M 287.9 166.2 C 287.9 166.2 287.9 166.2 287.9 166.2 C 287.9 167.8 289 169.4 290.9 169.4 C 292.9 169.4 293.8 167.9 293.8 166.2 C 293.8 166.2 293.8 166.2 293.8 166.2 C 293.8 164.5 292.7 163 290.8 163 C 288.9 163 287.9 164.5 287.9 166.2 Z M 297.4 164.2 C 297.4 163.5 297.4 162.8 297.4 162.2 C 297.4 162.2 298.6 162.2 298.6 162.2 C 298.6 162.5 298.6 163 298.6 163.4 C 299 162.7 299.8 161.9 301.3 161.9 C 302.6 161.9 303.4 162.6 303.8 163.5 C 304.2 162.8 305 161.9 306.5 161.9 C 308.1 161.9 309.4 162.8 309.4 165.2 C 309.39 165.19 309.4 170.2 309.4 170.2 L 308.2 170.2 C 308.2 170.2 308.19 165.25 308.2 165.2 C 308.2 164.2 307.9 163 306.3 163 C 304.9 163 304 163.9 304 165.8 C 304.02 165.8 304 170.2 304 170.2 L 302.8 170.2 C 302.8 170.2 302.81 165.16 302.8 165.2 C 302.8 164.2 302.5 163 300.9 163 C 299.3 163 298.6 164.3 298.6 165.9 C 298.64 165.94 298.6 170.2 298.6 170.2 L 297.4 170.2 C 297.4 170.2 297.44 164.23 297.4 164.2 Z M 312.3 164.2 C 312.3 163.5 312.3 162.8 312.3 162.2 C 312.3 162.2 313.4 162.2 313.4 162.2 C 313.5 162.5 313.5 163 313.5 163.4 C 313.9 162.7 314.7 161.9 316.1 161.9 C 317.4 161.9 318.3 162.6 318.6 163.5 C 319 162.8 319.8 161.9 321.4 161.9 C 323 161.9 324.2 162.8 324.2 165.2 C 324.24 165.19 324.2 170.2 324.2 170.2 L 323 170.2 C 323 170.2 323.04 165.25 323 165.2 C 323 164.2 322.7 163 321.2 163 C 319.8 163 318.9 163.9 318.9 165.8 C 318.87 165.8 318.9 170.2 318.9 170.2 L 317.7 170.2 C 317.7 170.2 317.67 165.16 317.7 165.2 C 317.7 164.2 317.3 163 315.8 163 C 314.1 163 313.5 164.3 313.5 165.9 C 313.49 165.94 313.5 170.2 313.5 170.2 L 312.3 170.2 C 312.3 170.2 312.29 164.23 312.3 164.2 Z M 327.8 166.4 C 327.8 166.4 327.85 166.45 327.8 166.4 C 327.9 168.2 329.1 169.4 330.8 169.4 C 332.2 169.4 332.9 168.8 333.4 168 C 333.42 167.96 333.4 168 333.4 168 L 334.6 168 C 334.6 168 334.63 167.96 334.6 168 C 334.2 169.1 333.1 170.4 330.7 170.4 C 328 170.4 326.6 168.3 326.6 166.2 C 326.6 166.2 326.6 166.2 326.6 166.2 C 326.6 163.7 328.3 161.9 330.7 161.9 C 333.7 161.9 334.7 164.2 334.7 166.1 C 334.7 166.2 334.7 166.3 334.7 166.4 C 334.75 166.45 327.8 166.4 327.8 166.4 Z M 333.5 165.5 C 333.5 165.5 333.47 165.52 333.5 165.5 C 333.4 164.5 332.8 162.9 330.7 162.9 C 328.9 162.9 328 164 327.9 165.5 C 327.88 165.52 327.9 165.5 327.9 165.5 L 333.5 165.5 Z M 352.1 168.3 C 352.1 169 352.2 170 352.2 170.2 C 352.2 170.2 351.1 170.2 351.1 170.2 C 351 169.9 351 169.2 351 168.9 C 350.5 169.8 349.6 170.4 347.9 170.4 C 345.6 170.4 344.8 169 344.8 167.9 C 344.8 167.9 344.8 167.9 344.8 167.9 C 344.8 165.8 346.6 165.2 348.9 165.2 C 350 165.2 350.7 165.2 350.9 165.2 C 350.9 165.2 350.9 164.8 350.9 164.8 C 350.9 163.8 350.5 162.9 348.7 162.9 C 347 162.9 346.6 163.7 346.4 164.5 C 346.42 164.48 346.4 164.5 346.4 164.5 L 345.2 164.5 C 345.2 164.5 345.22 164.48 345.2 164.5 C 345.3 163.4 346 161.9 348.7 161.9 C 351.4 161.9 352.1 163.3 352.1 164.6 C 352.1 164.6 352.1 168.3 352.1 168.3 Z M 350.9 166.2 C 350.7 166.2 350.1 166.2 348.9 166.2 C 346.9 166.2 346 166.6 346 167.8 C 346 167.8 346 167.8 346 167.8 C 346 168.7 346.6 169.4 348.1 169.4 C 350.4 169.4 350.9 168 350.9 166.6 C 350.9 166.6 350.9 166.2 350.9 166.2 Z M 362.1 167.9 C 362.1 168.6 362.1 169.4 362.2 170.2 C 362.2 170.2 361 170.2 361 170.2 C 361 170 360.9 169.3 360.9 168.7 C 360.5 169.7 359.8 170.4 358 170.4 C 356.3 170.4 355 169.5 355 167.2 C 354.96 167.17 355 162.2 355 162.2 L 356.2 162.2 C 356.2 162.2 356.17 166.93 356.2 166.9 C 356.2 168.2 356.7 169.3 358.2 169.3 C 360.1 169.3 360.9 168.3 360.9 165.8 C 360.93 165.77 360.9 162.2 360.9 162.2 L 362.1 162.2 C 362.1 162.2 362.14 167.85 362.1 167.9 Z M 381 158.1 C 381 158.1 380.96 167.84 381 167.8 C 381 168.6 381 169.4 381 170.2 C 381 170.2 379.8 170.2 379.8 170.2 C 379.8 169.8 379.7 169.3 379.7 168.9 C 379.3 169.6 378.6 170.4 376.7 170.4 C 374.3 170.4 372.8 168.7 372.8 166.2 C 372.8 166.2 372.8 166.2 372.8 166.2 C 372.8 163.6 374.8 161.9 376.9 161.9 C 378.9 161.9 379.5 162.9 379.7 163.3 C 379.74 163.29 379.7 158.1 379.7 158.1 L 381 158.1 Z M 374.1 166.2 C 374.1 166.2 374.1 166.2 374.1 166.2 C 374.1 167.8 375 169.4 376.9 169.4 C 379 169.4 379.8 168 379.8 166.1 C 379.8 166.1 379.8 166.1 379.8 166.1 C 379.8 164.3 379.2 163 377 163 C 375 163 374.1 164.6 374.1 166.2 Z M 384.6 166.4 C 384.6 166.4 384.55 166.45 384.6 166.4 C 384.6 168.2 385.8 169.4 387.5 169.4 C 388.9 169.4 389.6 168.8 390.1 168 C 390.12 167.96 390.1 168 390.1 168 L 391.3 168 C 391.3 168 391.33 167.96 391.3 168 C 390.9 169.1 389.8 170.4 387.4 170.4 C 384.7 170.4 383.3 168.3 383.3 166.2 C 383.3 166.2 383.3 166.2 383.3 166.2 C 383.3 163.7 385 161.9 387.4 161.9 C 390.4 161.9 391.5 164.2 391.5 166.1 C 391.5 166.2 391.5 166.3 391.4 166.4 C 391.45 166.45 384.6 166.4 384.6 166.4 Z M 390.2 165.5 C 390.2 165.5 390.17 165.52 390.2 165.5 C 390.1 164.5 389.5 162.9 387.4 162.9 C 385.6 162.9 384.7 164 384.6 165.5 C 384.58 165.52 384.6 165.5 384.6 165.5 L 390.2 165.5 Z M 390 158 L 387.5 160.6 L 386.3 160.6 L 388.5 158 L 390 158 Z M 395 168.9 C 395.02 168.89 395 173.8 395 173.8 L 393.8 173.8 C 393.8 173.8 393.81 164.17 393.8 164.2 C 393.8 163.5 393.8 162.8 393.8 162.2 C 393.8 162.2 395 162.2 395 162.2 C 395 162.4 395 162.9 395 163.6 C 395.5 162.7 396.5 161.9 398.2 161.9 C 400.4 161.9 401.9 163.7 401.9 166 C 401.9 166 401.9 166 401.9 166 C 401.9 168.6 400.2 170.4 398 170.4 C 396.2 170.4 395.5 169.6 395 168.9 Z M 400.7 166.1 C 400.7 166.1 400.7 166.1 400.7 166.1 C 400.7 164.6 399.8 163 397.9 163 C 395.9 163 395 164.4 395 166.2 C 395 166.2 395 166.2 395 166.2 C 395 168 395.9 169.4 397.8 169.4 C 399.7 169.4 400.7 167.8 400.7 166.1 Z M 411.1 168.3 C 411.1 169 411.2 170 411.2 170.2 C 411.2 170.2 410.1 170.2 410.1 170.2 C 410 169.9 410 169.2 410 168.9 C 409.5 169.8 408.6 170.4 406.9 170.4 C 404.6 170.4 403.8 169 403.8 167.9 C 403.8 167.9 403.8 167.9 403.8 167.9 C 403.8 165.8 405.6 165.2 407.9 165.2 C 409 165.2 409.7 165.2 410 165.2 C 410 165.2 410 164.8 410 164.8 C 410 163.8 409.5 162.9 407.7 162.9 C 406 162.9 405.6 163.7 405.4 164.5 C 405.43 164.48 405.4 164.5 405.4 164.5 L 404.2 164.5 C 404.2 164.5 404.22 164.48 404.2 164.5 C 404.3 163.4 405 161.9 407.7 161.9 C 410.4 161.9 411.1 163.3 411.1 164.6 C 411.1 164.6 411.1 168.3 411.1 168.3 Z M 410 166.2 C 409.7 166.2 409.1 166.2 407.9 166.2 C 405.9 166.2 405 166.6 405 167.8 C 405 167.8 405 167.8 405 167.8 C 405 168.7 405.6 169.4 407.1 169.4 C 409.4 169.4 410 168 410 166.6 C 410 166.6 410 166.2 410 166.2 Z M 414 164.3 C 414 163.6 414 162.9 414 162.2 C 414 162.2 415.2 162.2 415.2 162.2 C 415.2 162.4 415.3 163.2 415.3 164 C 415.8 162.7 417 161.9 418.6 161.9 C 418.6 161.9 418.6 163.1 418.6 163.1 C 416.7 163.1 415.3 164.3 415.3 166.7 C 415.25 166.72 415.3 170.2 415.3 170.2 L 414 170.2 C 414 170.2 414.04 164.34 414 164.3 Z M 420 162.2 L 421.6 162.2 L 421.6 159.5 L 422.8 159.5 L 422.8 162.2 L 425 162.2 L 425 163.2 L 422.8 163.2 C 422.8 163.2 422.82 167.86 422.8 167.9 C 422.8 168.8 423.1 169.3 424 169.3 C 424.2 169.3 424.6 169.3 424.8 169.2 C 424.8 169.2 424.8 170.1 424.8 170.1 C 424.5 170.3 424.1 170.3 423.7 170.3 C 422.1 170.3 421.6 169.6 421.6 168 C 421.61 167.98 421.6 163.2 421.6 163.2 L 420 163.2 L 420 162.2 Z M 426.8 170.2 L 426.8 167.8 L 428.1 167.8 L 428.1 170.2 L 426.8 170.2 Z " stroke="none" fill="#141414"/>  </g>  <g id="Polygon10534">    <path d="M 8.5 143.5 C 8.5 144.3 8.5 145.1 8.5 145.9 C 8.5 145.9 7.4 145.9 7.4 145.9 C 7.4 145.7 7.3 145 7.3 144.4 C 6.9 145.4 6.2 146.1 4.4 146.1 C 2.7 146.1 1.3 145.2 1.3 142.8 C 1.35 142.85 1.3 137.8 1.3 137.8 L 2.6 137.8 C 2.6 137.8 2.56 142.61 2.6 142.6 C 2.6 143.9 3.1 145 4.6 145 C 6.5 145 7.3 143.9 7.3 141.4 C 7.32 141.45 7.3 137.8 7.3 137.8 L 8.5 137.8 C 8.5 137.8 8.53 143.53 8.5 143.5 Z M 11.4 139.9 C 11.4 139.2 11.4 138.4 11.4 137.8 C 11.4 137.8 12.6 137.8 12.6 137.8 C 12.6 138.1 12.7 138.8 12.7 139.5 C 13 138.6 13.9 137.6 15.6 137.6 C 17.5 137.6 18.7 138.8 18.7 141 C 18.74 141 18.7 145.9 18.7 145.9 L 17.5 145.9 C 17.5 145.9 17.53 141.23 17.5 141.2 C 17.5 139.8 17 138.7 15.4 138.7 C 13.6 138.7 12.7 140.1 12.7 142.1 C 12.66 142.07 12.7 145.9 12.7 145.9 L 11.4 145.9 C 11.4 145.9 11.44 139.86 11.4 139.9 Z M 22.3 142.1 C 22.3 142.1 22.3 142.13 22.3 142.1 C 22.4 143.8 23.5 145.1 25.3 145.1 C 26.6 145.1 27.4 144.5 27.9 143.6 C 27.87 143.64 27.9 143.6 27.9 143.6 L 29.1 143.6 C 29.1 143.6 29.08 143.64 29.1 143.6 C 28.7 144.8 27.5 146.1 25.2 146.1 C 22.4 146.1 21.1 144 21.1 141.9 C 21.1 141.9 21.1 141.9 21.1 141.9 C 21.1 139.4 22.7 137.6 25.1 137.6 C 28.2 137.6 29.2 139.9 29.2 141.8 C 29.2 141.9 29.2 142 29.2 142.1 C 29.2 142.13 22.3 142.1 22.3 142.1 Z M 27.9 141.2 C 27.9 141.2 27.92 141.2 27.9 141.2 C 27.8 140.1 27.3 138.6 25.1 138.6 C 23.4 138.6 22.5 139.7 22.3 141.2 C 22.33 141.2 22.3 141.2 22.3 141.2 L 27.9 141.2 Z M 36.4 137.8 L 38.1 137.8 L 38.1 135.2 L 39.3 135.2 L 39.3 137.8 L 41.5 137.8 L 41.5 138.8 L 39.3 138.8 C 39.3 138.8 39.29 143.54 39.3 143.5 C 39.3 144.5 39.6 145 40.5 145 C 40.7 145 41 145 41.3 144.9 C 41.3 144.9 41.3 145.8 41.3 145.8 C 40.9 145.9 40.6 146 40.1 146 C 38.6 146 38.1 145.2 38.1 143.7 C 38.08 143.66 38.1 138.8 38.1 138.8 L 36.4 138.8 L 36.4 137.8 Z M 50.3 144 C 50.3 144.7 50.4 145.7 50.4 145.9 C 50.4 145.9 49.3 145.9 49.3 145.9 C 49.2 145.6 49.2 144.9 49.2 144.6 C 48.8 145.5 47.8 146.1 46.1 146.1 C 43.8 146.1 43 144.7 43 143.5 C 43 143.5 43 143.5 43 143.5 C 43 141.5 44.8 140.9 47.1 140.9 C 48.2 140.9 48.9 140.9 49.2 140.9 C 49.2 140.9 49.2 140.4 49.2 140.4 C 49.2 139.5 48.8 138.6 46.9 138.6 C 45.2 138.6 44.8 139.3 44.6 140.2 C 44.64 140.16 44.6 140.2 44.6 140.2 L 43.4 140.2 C 43.4 140.2 43.43 140.16 43.4 140.2 C 43.5 139.1 44.3 137.6 46.9 137.6 C 49.7 137.6 50.3 139 50.3 140.3 C 50.3 140.3 50.3 144 50.3 144 Z M 49.2 141.8 C 48.9 141.8 48.4 141.8 47.2 141.8 C 45.1 141.8 44.2 142.3 44.2 143.5 C 44.2 143.5 44.2 143.5 44.2 143.5 C 44.2 144.4 44.8 145.1 46.3 145.1 C 48.6 145.1 49.2 143.7 49.2 142.3 C 49.2 142.3 49.2 141.8 49.2 141.8 Z M 53.3 133.8 L 54.5 133.8 C 54.5 133.8 54.46 139.18 54.5 139.2 C 54.9 138.5 55.8 137.6 57.5 137.6 C 59.8 137.6 61.4 139.4 61.4 141.7 C 61.4 141.7 61.4 141.7 61.4 141.7 C 61.4 144.4 59.8 146.1 57.5 146.1 C 55.7 146.1 54.9 145.3 54.4 144.5 C 54.4 145 54.4 145.6 54.4 145.9 C 54.4 145.9 53.2 145.9 53.2 145.9 C 53.3 144.9 53.3 144 53.3 143.1 C 53.25 143.09 53.3 133.8 53.3 133.8 Z M 60.1 141.8 C 60.1 141.8 60.1 141.8 60.1 141.8 C 60.1 140.3 59.3 138.7 57.3 138.7 C 55.4 138.7 54.4 140.1 54.4 141.8 C 54.4 141.8 54.4 141.8 54.4 141.8 C 54.4 143.8 55.6 145 57.3 145 C 59.4 145 60.1 143.4 60.1 141.8 Z M 63.8 145.9 L 63.8 133.8 L 65 133.8 L 65 145.9 L 63.8 145.9 Z M 68.6 142.1 C 68.6 142.1 68.62 142.13 68.6 142.1 C 68.7 143.8 69.9 145.1 71.6 145.1 C 73 145.1 73.7 144.5 74.2 143.6 C 74.2 143.64 74.2 143.6 74.2 143.6 L 75.4 143.6 C 75.4 143.6 75.4 143.64 75.4 143.6 C 75 144.8 73.9 146.1 71.5 146.1 C 68.8 146.1 67.4 144 67.4 141.9 C 67.4 141.9 67.4 141.9 67.4 141.9 C 67.4 139.4 69.1 137.6 71.5 137.6 C 74.5 137.6 75.5 139.9 75.5 141.8 C 75.5 141.9 75.5 142 75.5 142.1 C 75.52 142.13 68.6 142.1 68.6 142.1 Z M 74.2 141.2 C 74.2 141.2 74.25 141.2 74.2 141.2 C 74.2 140.1 73.6 138.6 71.5 138.6 C 69.7 138.6 68.8 139.7 68.7 141.2 C 68.66 141.2 68.7 141.2 68.7 141.2 L 74.2 141.2 Z M 76.7 137.8 L 78.4 137.8 L 78.4 135.2 L 79.6 135.2 L 79.6 137.8 L 81.7 137.8 L 81.7 138.8 L 79.6 138.8 C 79.6 138.8 79.56 143.54 79.6 143.5 C 79.6 144.5 79.8 145 80.7 145 C 81 145 81.3 145 81.6 144.9 C 81.6 144.9 81.6 145.8 81.6 145.8 C 81.2 145.9 80.8 146 80.4 146 C 78.8 146 78.4 145.2 78.4 143.7 C 78.35 143.66 78.4 138.8 78.4 138.8 L 76.7 138.8 L 76.7 137.8 Z M 83.2 137.8 L 84.9 137.8 L 84.9 135.2 L 86.1 135.2 L 86.1 137.8 L 88.2 137.8 L 88.2 138.8 L 86.1 138.8 C 86.1 138.8 86.07 143.54 86.1 143.5 C 86.1 144.5 86.3 145 87.2 145 C 87.5 145 87.8 145 88.1 144.9 C 88.1 144.9 88.1 145.8 88.1 145.8 C 87.7 145.9 87.3 146 86.9 146 C 85.3 146 84.9 145.2 84.9 143.7 C 84.86 143.66 84.9 138.8 84.9 138.8 L 83.2 138.8 L 83.2 137.8 Z M 90.7 142.1 C 90.7 142.1 90.69 142.13 90.7 142.1 C 90.8 143.8 91.9 145.1 93.7 145.1 C 95 145.1 95.8 144.5 96.3 143.6 C 96.26 143.64 96.3 143.6 96.3 143.6 L 97.5 143.6 C 97.5 143.6 97.47 143.64 97.5 143.6 C 97.1 144.8 95.9 146.1 93.6 146.1 C 90.8 146.1 89.5 144 89.5 141.9 C 89.5 141.9 89.5 141.9 89.5 141.9 C 89.5 139.4 91.1 137.6 93.5 137.6 C 96.6 137.6 97.6 139.9 97.6 141.8 C 97.6 141.9 97.6 142 97.6 142.1 C 97.59 142.13 90.7 142.1 90.7 142.1 Z M 96.3 141.2 C 96.3 141.2 96.31 141.2 96.3 141.2 C 96.2 140.1 95.7 138.6 93.5 138.6 C 91.8 138.6 90.9 139.7 90.7 141.2 C 90.73 141.2 90.7 141.2 90.7 141.2 L 96.3 141.2 Z M 107.1 144.6 C 107.13 144.57 107.1 149.4 107.1 149.4 L 105.9 149.4 C 105.9 149.4 105.92 139.85 105.9 139.8 C 105.9 139.2 105.9 138.5 105.9 137.8 C 105.9 137.8 107.1 137.8 107.1 137.8 C 107.1 138.1 107.1 138.6 107.1 139.3 C 107.6 138.4 108.6 137.6 110.3 137.6 C 112.5 137.6 114.1 139.4 114.1 141.7 C 114.1 141.7 114.1 141.7 114.1 141.7 C 114.1 144.3 112.3 146.1 110.1 146.1 C 108.3 146.1 107.6 145.3 107.1 144.6 Z M 112.8 141.8 C 112.8 141.8 112.8 141.8 112.8 141.8 C 112.8 140.3 111.9 138.7 110 138.7 C 108 138.7 107.1 140.1 107.1 141.9 C 107.1 141.9 107.1 141.9 107.1 141.9 C 107.1 143.7 108 145 109.9 145 C 111.9 145 112.8 143.5 112.8 141.8 Z M 124.3 141.9 C 124.3 141.9 124.3 141.9 124.3 141.9 C 124.3 144 122.9 146.1 120.1 146.1 C 117.4 146.1 115.9 144.1 115.9 141.9 C 115.9 141.9 115.9 141.9 115.9 141.9 C 115.9 139.5 117.5 137.6 120.2 137.6 C 122.8 137.6 124.3 139.7 124.3 141.9 Z M 117.2 141.9 C 117.2 141.9 117.2 141.9 117.2 141.9 C 117.2 143.5 118.2 145.1 120.1 145.1 C 122.1 145.1 123.1 143.6 123.1 141.9 C 123.1 141.9 123.1 141.9 123.1 141.9 C 123.1 140.1 122 138.6 120.1 138.6 C 118.1 138.6 117.2 140.1 117.2 141.9 Z M 127.2 143.5 C 127.2 143.5 127.23 143.45 127.2 143.5 C 127.5 144.5 128.4 145.1 130 145.1 C 131.7 145.1 132.3 144.5 132.3 143.7 C 132.3 143 131.9 142.4 129.7 142.2 C 127 141.9 126.4 140.9 126.4 139.9 C 126.4 138.9 127.2 137.6 129.7 137.6 C 132.5 137.6 133.2 139.1 133.3 140 C 133.27 139.98 133.3 140 133.3 140 L 132 140 C 132 140 132.05 139.98 132 140 C 131.9 139.5 131.6 138.6 129.6 138.6 C 128 138.6 127.6 139.3 127.6 139.8 C 127.6 140.5 128 140.9 130 141.1 C 132.9 141.5 133.5 142.4 133.5 143.6 C 133.5 145.1 132.4 146.1 129.9 146.1 C 127.6 146.1 126.3 145.1 126 143.5 C 126 143.45 126 143.5 126 143.5 L 127.2 143.5 Z M 136.6 142.1 C 136.6 142.1 136.56 142.13 136.6 142.1 C 136.7 143.8 137.8 145.1 139.5 145.1 C 140.9 145.1 141.7 144.5 142.1 143.6 C 142.13 143.64 142.1 143.6 142.1 143.6 L 143.3 143.6 C 143.3 143.6 143.34 143.64 143.3 143.6 C 142.9 144.8 141.8 146.1 139.5 146.1 C 136.7 146.1 135.3 144 135.3 141.9 C 135.3 141.9 135.3 141.9 135.3 141.9 C 135.3 139.4 137 137.6 139.4 137.6 C 142.4 137.6 143.5 139.9 143.5 141.8 C 143.5 141.9 143.5 142 143.5 142.1 C 143.46 142.13 136.6 142.1 136.6 142.1 Z M 142.2 141.2 C 142.2 141.2 142.18 141.2 142.2 141.2 C 142.1 140.1 141.5 138.6 139.4 138.6 C 137.7 138.6 136.8 139.7 136.6 141.2 C 136.59 141.2 136.6 141.2 136.6 141.2 L 142.2 141.2 Z M 142.1 133.7 L 139.5 136.2 L 138.3 136.2 L 140.6 133.7 L 142.1 133.7 Z M 146.5 142.1 C 146.5 142.1 146.52 142.13 146.5 142.1 C 146.6 143.8 147.7 145.1 149.5 145.1 C 150.8 145.1 151.6 144.5 152.1 143.6 C 152.09 143.64 152.1 143.6 152.1 143.6 L 153.3 143.6 C 153.3 143.6 153.3 143.64 153.3 143.6 C 152.9 144.8 151.8 146.1 149.4 146.1 C 146.6 146.1 145.3 144 145.3 141.9 C 145.3 141.9 145.3 141.9 145.3 141.9 C 145.3 139.4 146.9 137.6 149.4 137.6 C 152.4 137.6 153.4 139.9 153.4 141.8 C 153.4 141.9 153.4 142 153.4 142.1 C 153.42 142.13 146.5 142.1 146.5 142.1 Z M 152.1 141.2 C 152.1 141.2 152.14 141.2 152.1 141.2 C 152.1 140.1 151.5 138.6 149.4 138.6 C 147.6 138.6 146.7 139.7 146.5 141.2 C 146.55 141.2 146.5 141.2 146.5 141.2 L 152.1 141.2 Z M 162.2 143.5 C 162.2 143.5 162.18 143.45 162.2 143.5 C 162.5 144.5 163.4 145.1 165 145.1 C 166.6 145.1 167.3 144.5 167.3 143.7 C 167.3 143 166.8 142.4 164.7 142.2 C 161.9 141.9 161.3 140.9 161.3 139.9 C 161.3 138.9 162.1 137.6 164.7 137.6 C 167.4 137.6 168.2 139.1 168.2 140 C 168.22 139.98 168.2 140 168.2 140 L 167 140 C 167 140 167 139.98 167 140 C 166.9 139.5 166.5 138.6 164.6 138.6 C 162.9 138.6 162.6 139.3 162.6 139.8 C 162.6 140.5 163 140.9 164.9 141.1 C 167.9 141.5 168.5 142.4 168.5 143.6 C 168.5 145.1 167.4 146.1 164.9 146.1 C 162.5 146.1 161.2 145.1 161 143.5 C 160.95 143.45 161 143.5 161 143.5 L 162.2 143.5 Z M 178 143.5 C 178 144.3 178 145.1 178 145.9 C 178 145.9 176.8 145.9 176.8 145.9 C 176.8 145.7 176.8 145 176.8 144.4 C 176.4 145.4 175.6 146.1 173.8 146.1 C 172.1 146.1 170.8 145.2 170.8 142.8 C 170.81 142.85 170.8 137.8 170.8 137.8 L 172 137.8 C 172 137.8 172.02 142.61 172 142.6 C 172 143.9 172.5 145 174.1 145 C 176 145 176.8 143.9 176.8 141.4 C 176.78 141.45 176.8 137.8 176.8 137.8 L 178 137.8 C 178 137.8 177.99 143.53 178 143.5 Z M 180.9 140 C 180.9 139.3 180.9 138.6 180.9 137.8 C 180.9 137.8 182.1 137.8 182.1 137.8 C 182.1 138.1 182.1 138.9 182.1 139.7 C 182.7 138.4 183.9 137.6 185.4 137.6 C 185.4 137.6 185.4 138.8 185.4 138.8 C 183.6 138.8 182.1 140 182.1 142.4 C 182.12 142.4 182.1 145.9 182.1 145.9 L 180.9 145.9 C 180.9 145.9 180.91 140.02 180.9 140 Z M 200.5 143.5 C 200.5 144.3 200.5 145.1 200.5 145.9 C 200.5 145.9 199.4 145.9 199.4 145.9 C 199.4 145.7 199.3 145 199.3 144.4 C 198.9 145.4 198.2 146.1 196.4 146.1 C 194.7 146.1 193.4 145.2 193.4 142.8 C 193.35 142.85 193.4 137.8 193.4 137.8 L 194.6 137.8 C 194.6 137.8 194.56 142.61 194.6 142.6 C 194.6 143.9 195.1 145 196.6 145 C 198.5 145 199.3 143.9 199.3 141.4 C 199.33 141.45 199.3 137.8 199.3 137.8 L 200.5 137.8 C 200.5 137.8 200.54 143.53 200.5 143.5 Z M 203.5 139.9 C 203.5 139.2 203.5 138.4 203.4 137.8 C 203.4 137.8 204.6 137.8 204.6 137.8 C 204.6 138.1 204.7 138.8 204.7 139.5 C 205 138.6 205.9 137.6 207.6 137.6 C 209.5 137.6 210.7 138.8 210.7 141 C 210.75 141 210.7 145.9 210.7 145.9 L 209.5 145.9 C 209.5 145.9 209.53 141.23 209.5 141.2 C 209.5 139.8 209 138.7 207.4 138.7 C 205.6 138.7 204.7 140.1 204.7 142.1 C 204.66 142.07 204.7 145.9 204.7 145.9 L 203.5 145.9 C 203.5 145.9 203.45 139.86 203.5 139.9 Z M 214.3 142.1 C 214.3 142.1 214.31 142.13 214.3 142.1 C 214.4 143.8 215.5 145.1 217.3 145.1 C 218.6 145.1 219.4 144.5 219.9 143.6 C 219.88 143.64 219.9 143.6 219.9 143.6 L 221.1 143.6 C 221.1 143.6 221.08 143.64 221.1 143.6 C 220.7 144.8 219.6 146.1 217.2 146.1 C 214.4 146.1 213.1 144 213.1 141.9 C 213.1 141.9 213.1 141.9 213.1 141.9 C 213.1 139.4 214.7 137.6 217.2 137.6 C 220.2 137.6 221.2 139.9 221.2 141.8 C 221.2 141.9 221.2 142 221.2 142.1 C 221.2 142.13 214.3 142.1 214.3 142.1 Z M 219.9 141.2 C 219.9 141.2 219.93 141.2 219.9 141.2 C 219.9 140.1 219.3 138.6 217.1 138.6 C 215.4 138.6 214.5 139.7 214.3 141.2 C 214.34 141.2 214.3 141.2 214.3 141.2 L 219.9 141.2 Z M 228.4 137.8 L 230.1 137.8 L 230.1 135.2 L 231.3 135.2 L 231.3 137.8 L 233.5 137.8 L 233.5 138.8 L 231.3 138.8 C 231.3 138.8 231.29 143.54 231.3 143.5 C 231.3 144.5 231.6 145 232.5 145 C 232.7 145 233 145 233.3 144.9 C 233.3 144.9 233.3 145.8 233.3 145.8 C 232.9 145.9 232.6 146 232.1 146 C 230.6 146 230.1 145.2 230.1 143.7 C 230.08 143.66 230.1 138.8 230.1 138.8 L 228.4 138.8 L 228.4 137.8 Z M 242.4 144 C 242.4 144.7 242.4 145.7 242.4 145.9 C 242.4 145.9 241.3 145.9 241.3 145.9 C 241.2 145.6 241.2 144.9 241.2 144.6 C 240.8 145.5 239.9 146.1 238.1 146.1 C 235.8 146.1 235 144.7 235 143.5 C 235 143.5 235 143.5 235 143.5 C 235 141.5 236.9 140.9 239.1 140.9 C 240.2 140.9 240.9 140.9 241.2 140.9 C 241.2 140.9 241.2 140.4 241.2 140.4 C 241.2 139.5 240.8 138.6 238.9 138.6 C 237.2 138.6 236.8 139.3 236.6 140.2 C 236.65 140.16 236.6 140.2 236.6 140.2 L 235.4 140.2 C 235.4 140.2 235.44 140.16 235.4 140.2 C 235.5 139.1 236.3 137.6 238.9 137.6 C 241.7 137.6 242.4 139 242.4 140.3 C 242.4 140.3 242.4 144 242.4 144 Z M 241.2 141.8 C 240.9 141.8 240.4 141.8 239.2 141.8 C 237.2 141.8 236.2 142.3 236.2 143.5 C 236.2 143.5 236.2 143.5 236.2 143.5 C 236.2 144.4 236.8 145.1 238.3 145.1 C 240.6 145.1 241.2 143.7 241.2 142.3 C 241.2 142.3 241.2 141.8 241.2 141.8 Z M 245.3 133.8 L 246.5 133.8 C 246.5 133.8 246.47 139.18 246.5 139.2 C 246.9 138.5 247.8 137.6 249.5 137.6 C 251.8 137.6 253.4 139.4 253.4 141.7 C 253.4 141.7 253.4 141.7 253.4 141.7 C 253.4 144.4 251.8 146.1 249.5 146.1 C 247.7 146.1 246.9 145.3 246.4 144.5 C 246.4 145 246.4 145.6 246.4 145.9 C 246.4 145.9 245.2 145.9 245.2 145.9 C 245.3 144.9 245.3 144 245.3 143.1 C 245.26 143.09 245.3 133.8 245.3 133.8 Z M 252.2 141.8 C 252.2 141.8 252.2 141.8 252.2 141.8 C 252.2 140.3 251.3 138.7 249.3 138.7 C 247.4 138.7 246.4 140.1 246.4 141.8 C 246.4 141.8 246.4 141.8 246.4 141.8 C 246.4 143.8 247.6 145 249.3 145 C 251.4 145 252.2 143.4 252.2 141.8 Z M 255.8 145.9 L 255.8 133.8 L 257 133.8 L 257 145.9 L 255.8 145.9 Z M 260.6 142.1 C 260.6 142.1 260.63 142.13 260.6 142.1 C 260.7 143.8 261.9 145.1 263.6 145.1 C 265 145.1 265.7 144.5 266.2 143.6 C 266.2 143.64 266.2 143.6 266.2 143.6 L 267.4 143.6 C 267.4 143.6 267.41 143.64 267.4 143.6 C 267 144.8 265.9 146.1 263.5 146.1 C 260.8 146.1 259.4 144 259.4 141.9 C 259.4 141.9 259.4 141.9 259.4 141.9 C 259.4 139.4 261.1 137.6 263.5 137.6 C 266.5 137.6 267.5 139.9 267.5 141.8 C 267.5 141.9 267.5 142 267.5 142.1 C 267.53 142.13 260.6 142.1 260.6 142.1 Z M 266.3 141.2 C 266.3 141.2 266.25 141.2 266.3 141.2 C 266.2 140.1 265.6 138.6 263.5 138.6 C 261.7 138.6 260.8 139.7 260.7 141.2 C 260.66 141.2 260.7 141.2 260.7 141.2 L 266.3 141.2 Z M 275.9 133.8 L 277.1 133.8 C 277.1 133.8 277.07 139.18 277.1 139.2 C 277.5 138.5 278.4 137.6 280.1 137.6 C 282.4 137.6 284 139.4 284 141.7 C 284 141.7 284 141.7 284 141.7 C 284 144.4 282.4 146.1 280.1 146.1 C 278.3 146.1 277.5 145.3 277.1 144.5 C 277 145 277 145.6 277 145.9 C 277 145.9 275.8 145.9 275.8 145.9 C 275.9 144.9 275.9 144 275.9 143.1 C 275.86 143.09 275.9 133.8 275.9 133.8 Z M 282.8 141.8 C 282.8 141.8 282.8 141.8 282.8 141.8 C 282.8 140.3 281.9 138.7 279.9 138.7 C 278 138.7 277 140.1 277 141.8 C 277 141.8 277 141.8 277 141.8 C 277 143.8 278.2 145 279.9 145 C 282 145 282.8 143.4 282.8 141.8 Z M 293.2 144 C 293.2 144.7 293.2 145.7 293.3 145.9 C 293.3 145.9 292.1 145.9 292.1 145.9 C 292.1 145.6 292 144.9 292 144.6 C 291.6 145.5 290.7 146.1 288.9 146.1 C 286.6 146.1 285.8 144.7 285.8 143.5 C 285.8 143.5 285.8 143.5 285.8 143.5 C 285.8 141.5 287.7 140.9 290 140.9 C 291 140.9 291.7 140.9 292 140.9 C 292 140.9 292 140.4 292 140.4 C 292 139.5 291.6 138.6 289.7 138.6 C 288.1 138.6 287.7 139.3 287.5 140.2 C 287.49 140.16 287.5 140.2 287.5 140.2 L 286.3 140.2 C 286.3 140.2 286.28 140.16 286.3 140.2 C 286.4 139.1 287.1 137.6 289.7 137.6 C 292.5 137.6 293.2 139 293.2 140.3 C 293.2 140.3 293.2 144 293.2 144 Z M 292 141.8 C 291.7 141.8 291.2 141.8 290 141.8 C 288 141.8 287 142.3 287 143.5 C 287 143.5 287 143.5 287 143.5 C 287 144.4 287.7 145.1 289.1 145.1 C 291.5 145.1 292 143.7 292 142.3 C 292 142.3 292 141.8 292 141.8 Z M 296.6 143.5 C 296.6 143.5 296.61 143.45 296.6 143.5 C 296.9 144.5 297.8 145.1 299.4 145.1 C 301.1 145.1 301.7 144.5 301.7 143.7 C 301.7 143 301.3 142.4 299.1 142.2 C 296.3 141.9 295.8 140.9 295.8 139.9 C 295.8 138.9 296.6 137.6 299.1 137.6 C 301.9 137.6 302.6 139.1 302.7 140 C 302.66 139.98 302.7 140 302.7 140 L 301.4 140 C 301.4 140 301.43 139.98 301.4 140 C 301.3 139.5 301 138.6 299 138.6 C 297.4 138.6 297 139.3 297 139.8 C 297 140.5 297.4 140.9 299.4 141.1 C 302.3 141.5 302.9 142.4 302.9 143.6 C 302.9 145.1 301.8 146.1 299.3 146.1 C 296.9 146.1 295.7 145.1 295.4 143.5 C 295.38 143.45 295.4 143.5 295.4 143.5 L 296.6 143.5 Z M 305.9 143.5 C 305.9 143.5 305.94 143.45 305.9 143.5 C 306.3 144.5 307.2 145.1 308.7 145.1 C 310.4 145.1 311 144.5 311 143.7 C 311 143 310.6 142.4 308.4 142.2 C 305.7 141.9 305.1 140.9 305.1 139.9 C 305.1 138.9 305.9 137.6 308.4 137.6 C 311.2 137.6 311.9 139.1 312 140 C 311.98 139.98 312 140 312 140 L 310.8 140 C 310.8 140 310.75 139.98 310.8 140 C 310.6 139.5 310.3 138.6 308.3 138.6 C 306.7 138.6 306.3 139.3 306.3 139.8 C 306.3 140.5 306.7 140.9 308.7 141.1 C 311.6 141.5 312.2 142.4 312.2 143.6 C 312.2 145.1 311.1 146.1 308.6 146.1 C 306.3 146.1 305 145.1 304.7 143.5 C 304.71 143.45 304.7 143.5 304.7 143.5 L 305.9 143.5 Z M 315.3 142.1 C 315.3 142.1 315.27 142.13 315.3 142.1 C 315.4 143.8 316.5 145.1 318.3 145.1 C 319.6 145.1 320.4 144.5 320.8 143.6 C 320.84 143.64 320.8 143.6 320.8 143.6 L 322 143.6 C 322 143.6 322.05 143.64 322 143.6 C 321.6 144.8 320.5 146.1 318.2 146.1 C 315.4 146.1 314 144 314 141.9 C 314 141.9 314 141.9 314 141.9 C 314 139.4 315.7 137.6 318.1 137.6 C 321.1 137.6 322.2 139.9 322.2 141.8 C 322.2 141.9 322.2 142 322.2 142.1 C 322.17 142.13 315.3 142.1 315.3 142.1 Z M 320.9 141.2 C 320.9 141.2 320.89 141.2 320.9 141.2 C 320.8 140.1 320.3 138.6 318.1 138.6 C 316.4 138.6 315.5 139.7 315.3 141.2 C 315.3 141.2 315.3 141.2 315.3 141.2 L 320.9 141.2 Z M 324.3 145.9 L 324.3 143.5 L 325.6 143.5 L 325.6 145.9 L 324.3 145.9 Z M 334.5 145.9 L 334.5 134.5 C 334.5 134.5 336.06 134.48 336.1 134.5 C 338.4 137.7 342.8 143.2 343.4 144.3 C 343.4 144.3 343.4 144.3 343.4 144.3 C 343.3 142.7 343.4 141 343.4 139.2 C 343.35 139.19 343.4 134.5 343.4 134.5 L 344.6 134.5 L 344.6 145.9 C 344.6 145.9 343.1 145.88 343.1 145.9 C 341.2 143.4 336.5 137.2 335.7 135.8 C 335.7 135.8 335.6 135.8 335.6 135.8 C 335.7 137.3 335.7 138.9 335.7 140.9 C 335.73 140.94 335.7 145.9 335.7 145.9 L 334.5 145.9 Z M 355.7 141.9 C 355.7 141.9 355.7 141.9 355.7 141.9 C 355.7 144 354.4 146.1 351.5 146.1 C 348.9 146.1 347.3 144.1 347.3 141.9 C 347.3 141.9 347.3 141.9 347.3 141.9 C 347.3 139.5 349 137.6 351.6 137.6 C 354.2 137.6 355.7 139.7 355.7 141.9 Z M 348.6 141.9 C 348.6 141.9 348.6 141.9 348.6 141.9 C 348.6 143.5 349.6 145.1 351.5 145.1 C 353.5 145.1 354.5 143.6 354.5 141.9 C 354.5 141.9 354.5 141.9 354.5 141.9 C 354.5 140.1 353.4 138.6 351.5 138.6 C 349.5 138.6 348.6 140.1 348.6 141.9 Z M 365.2 143.5 C 365.2 144.3 365.2 145.1 365.3 145.9 C 365.3 145.9 364.1 145.9 364.1 145.9 C 364.1 145.7 364 145 364 144.4 C 363.6 145.4 362.9 146.1 361.1 146.1 C 359.4 146.1 358.1 145.2 358.1 142.8 C 358.06 142.85 358.1 137.8 358.1 137.8 L 359.3 137.8 C 359.3 137.8 359.27 142.61 359.3 142.6 C 359.3 143.9 359.8 145 361.3 145 C 363.2 145 364 143.9 364 141.4 C 364.04 141.45 364 137.8 364 137.8 L 365.2 137.8 C 365.2 137.8 365.25 143.53 365.2 143.5 Z M 368.7 143.5 C 368.7 143.5 368.72 143.45 368.7 143.5 C 369 144.5 369.9 145.1 371.5 145.1 C 373.2 145.1 373.8 144.5 373.8 143.7 C 373.8 143 373.4 142.4 371.2 142.2 C 368.4 141.9 367.9 140.9 367.9 139.9 C 367.9 138.9 368.7 137.6 371.2 137.6 C 374 137.6 374.7 139.1 374.8 140 C 374.76 139.98 374.8 140 374.8 140 L 373.5 140 C 373.5 140 373.53 139.98 373.5 140 C 373.4 139.5 373.1 138.6 371.1 138.6 C 369.5 138.6 369.1 139.3 369.1 139.8 C 369.1 140.5 369.5 140.9 371.5 141.1 C 374.4 141.5 375 142.4 375 143.6 C 375 145.1 373.9 146.1 371.4 146.1 C 369 146.1 367.8 145.1 367.5 143.5 C 367.49 143.45 367.5 143.5 367.5 143.5 L 368.7 143.5 Z M 383.9 143.5 C 383.9 143.5 383.86 143.45 383.9 143.5 C 384.2 144.5 385.1 145.1 386.6 145.1 C 388.3 145.1 388.9 144.5 388.9 143.7 C 388.9 143 388.5 142.4 386.3 142.2 C 383.6 141.9 383 140.9 383 139.9 C 383 138.9 383.8 137.6 386.3 137.6 C 389.1 137.6 389.8 139.1 389.9 140 C 389.9 139.98 389.9 140 389.9 140 L 388.7 140 C 388.7 140 388.67 139.98 388.7 140 C 388.5 139.5 388.2 138.6 386.2 138.6 C 384.6 138.6 384.2 139.3 384.2 139.8 C 384.2 140.5 384.7 140.9 386.6 141.1 C 389.6 141.5 390.2 142.4 390.2 143.6 C 390.2 145.1 389.1 146.1 386.6 146.1 C 384.2 146.1 382.9 145.1 382.6 143.5 C 382.63 143.45 382.6 143.5 382.6 143.5 L 383.9 143.5 Z M 400.4 141.9 C 400.4 141.9 400.4 141.9 400.4 141.9 C 400.4 144 399 146.1 396.1 146.1 C 393.5 146.1 392 144.1 392 141.9 C 392 141.9 392 141.9 392 141.9 C 392 139.5 393.6 137.6 396.2 137.6 C 398.9 137.6 400.4 139.7 400.4 141.9 Z M 393.2 141.9 C 393.2 141.9 393.2 141.9 393.2 141.9 C 393.2 143.5 394.3 145.1 396.2 145.1 C 398.1 145.1 399.1 143.6 399.1 141.9 C 399.1 141.9 399.1 141.9 399.1 141.9 C 399.1 140.1 398 138.6 396.1 138.6 C 394.2 138.6 393.2 140.1 393.2 141.9 Z M 402.7 139.9 C 402.7 139.2 402.7 138.5 402.7 137.8 C 402.7 137.8 403.9 137.8 403.9 137.8 C 403.9 138.2 403.9 138.6 403.9 139.1 C 404.3 138.4 405.1 137.6 406.6 137.6 C 407.9 137.6 408.7 138.2 409 139.2 C 409.5 138.5 410.2 137.6 411.8 137.6 C 413.4 137.6 414.7 138.5 414.7 140.9 C 414.67 140.87 414.7 145.9 414.7 145.9 L 413.5 145.9 C 413.5 145.9 413.47 140.93 413.5 140.9 C 413.5 139.9 413.2 138.7 411.6 138.7 C 410.2 138.7 409.3 139.6 409.3 141.5 C 409.3 141.48 409.3 145.9 409.3 145.9 L 408.1 145.9 C 408.1 145.9 408.1 140.84 408.1 140.8 C 408.1 139.8 407.8 138.7 406.2 138.7 C 404.6 138.7 403.9 140 403.9 141.6 C 403.93 141.62 403.9 145.9 403.9 145.9 L 402.7 145.9 C 402.7 145.9 402.72 139.91 402.7 139.9 Z M 417.6 139.9 C 417.6 139.2 417.6 138.5 417.6 137.8 C 417.6 137.8 418.7 137.8 418.7 137.8 C 418.8 138.2 418.8 138.6 418.8 139.1 C 419.2 138.4 420 137.6 421.4 137.6 C 422.7 137.6 423.5 138.2 423.9 139.2 C 424.3 138.5 425.1 137.6 426.7 137.6 C 428.2 137.6 429.5 138.5 429.5 140.9 C 429.52 140.87 429.5 145.9 429.5 145.9 L 428.3 145.9 C 428.3 145.9 428.32 140.93 428.3 140.9 C 428.3 139.9 428 138.7 426.5 138.7 C 425.1 138.7 424.2 139.6 424.2 141.5 C 424.15 141.48 424.2 145.9 424.2 145.9 L 423 145.9 C 423 145.9 422.95 140.84 423 140.8 C 423 139.8 422.6 138.7 421.1 138.7 C 419.4 138.7 418.8 140 418.8 141.6 C 418.78 141.62 418.8 145.9 418.8 145.9 L 417.6 145.9 C 417.6 145.9 417.58 139.91 417.6 139.9 Z M 433.1 142.1 C 433.1 142.1 433.13 142.13 433.1 142.1 C 433.2 143.8 434.4 145.1 436.1 145.1 C 437.5 145.1 438.2 144.5 438.7 143.6 C 438.7 143.64 438.7 143.6 438.7 143.6 L 439.9 143.6 C 439.9 143.6 439.91 143.64 439.9 143.6 C 439.5 144.8 438.4 146.1 436 146.1 C 433.3 146.1 431.9 144 431.9 141.9 C 431.9 141.9 431.9 141.9 431.9 141.9 C 431.9 139.4 433.6 137.6 436 137.6 C 439 137.6 440 139.9 440 141.8 C 440 141.9 440 142 440 142.1 C 440.03 142.13 433.1 142.1 433.1 142.1 Z M 438.8 141.2 C 438.8 141.2 438.75 141.2 438.8 141.2 C 438.7 140.1 438.1 138.6 436 138.6 C 434.2 138.6 433.3 139.7 433.2 141.2 C 433.16 141.2 433.2 141.2 433.2 141.2 L 438.8 141.2 Z M 443 143.5 C 443 143.5 442.96 143.45 443 143.5 C 443.3 144.5 444.2 145.1 445.7 145.1 C 447.4 145.1 448 144.5 448 143.7 C 448 143 447.6 142.4 445.4 142.2 C 442.7 141.9 442.1 140.9 442.1 139.9 C 442.1 138.9 442.9 137.6 445.4 137.6 C 448.2 137.6 448.9 139.1 449 140 C 449 139.98 449 140 449 140 L 447.8 140 C 447.8 140 447.77 139.98 447.8 140 C 447.6 139.5 447.3 138.6 445.3 138.6 C 443.7 138.6 443.3 139.3 443.3 139.8 C 443.3 140.5 443.8 140.9 445.7 141.1 C 448.7 141.5 449.3 142.4 449.3 143.6 C 449.3 145.1 448.2 146.1 445.7 146.1 C 443.3 146.1 442 145.1 441.7 143.5 C 441.73 143.45 441.7 143.5 441.7 143.5 L 443 143.5 Z " stroke="none" fill="#141414"/>  </g>  <g id="Polygon10533">    <path d="M 12.8 115.8 C 12.8 115.8 12.8 115.8 12.8 115.8 C 12.8 119.1 10.6 121.8 6.9 121.8 C 3.2 121.8 0.9 119.2 0.9 115.8 C 0.9 115.8 0.9 115.8 0.9 115.8 C 0.9 112.6 3.3 109.9 6.9 109.9 C 10.4 109.9 12.8 112.7 12.8 115.8 Z M 2.3 115.8 C 2.3 115.8 2.3 115.8 2.3 115.8 C 2.3 118.3 3.9 120.7 6.9 120.7 C 9.8 120.7 11.4 118.5 11.4 115.9 C 11.4 115.9 11.4 115.9 11.4 115.9 C 11.4 113.4 9.8 111 6.8 111 C 4 111 2.3 113.2 2.3 115.8 Z M 15.5 115.5 C 15.5 114.9 15.5 114.1 15.5 113.5 C 15.5 113.5 16.7 113.5 16.7 113.5 C 16.7 113.8 16.7 114.5 16.7 115.1 C 17.1 114.3 17.9 113.3 19.7 113.3 C 21.6 113.3 22.8 114.4 22.8 116.7 C 22.8 116.68 22.8 121.6 22.8 121.6 L 21.6 121.6 C 21.6 121.6 21.58 116.91 21.6 116.9 C 21.6 115.5 21 114.4 19.4 114.4 C 17.6 114.4 16.7 115.8 16.7 117.7 C 16.71 117.75 16.7 121.6 16.7 121.6 L 15.5 121.6 C 15.5 121.6 15.5 115.54 15.5 115.5 Z M 40.5 109.5 C 40.5 109.5 40.49 119.2 40.5 119.2 C 40.5 120 40.5 120.8 40.5 121.6 C 40.5 121.6 39.3 121.6 39.3 121.6 C 39.3 121.2 39.3 120.7 39.3 120.2 C 38.9 121 38.2 121.8 36.2 121.8 C 33.9 121.8 32.3 120 32.3 117.6 C 32.3 117.6 32.3 117.6 32.3 117.6 C 32.3 115 34.3 113.3 36.4 113.3 C 38.4 113.3 39.1 114.2 39.3 114.6 C 39.28 114.65 39.3 109.5 39.3 109.5 L 40.5 109.5 Z M 33.6 117.6 C 33.6 117.6 33.6 117.6 33.6 117.6 C 33.6 119.1 34.5 120.7 36.4 120.7 C 38.5 120.7 39.3 119.4 39.3 117.5 C 39.3 117.5 39.3 117.5 39.3 117.5 C 39.3 115.6 38.7 114.3 36.5 114.3 C 34.5 114.3 33.6 116 33.6 117.6 Z M 44.1 117.8 C 44.1 117.8 44.09 117.81 44.1 117.8 C 44.2 119.5 45.3 120.8 47.1 120.8 C 48.4 120.8 49.2 120.2 49.7 119.3 C 49.66 119.32 49.7 119.3 49.7 119.3 L 50.9 119.3 C 50.9 119.3 50.87 119.32 50.9 119.3 C 50.4 120.5 49.3 121.8 47 121.8 C 44.2 121.8 42.9 119.7 42.9 117.6 C 42.9 117.6 42.9 117.6 42.9 117.6 C 42.9 115.1 44.5 113.3 46.9 113.3 C 50 113.3 51 115.5 51 117.5 C 51 117.6 51 117.7 51 117.8 C 50.99 117.81 44.1 117.8 44.1 117.8 Z M 49.7 116.9 C 49.7 116.9 49.71 116.88 49.7 116.9 C 49.6 115.8 49.1 114.3 46.9 114.3 C 45.2 114.3 44.3 115.4 44.1 116.9 C 44.12 116.88 44.1 116.9 44.1 116.9 L 49.7 116.9 Z M 52.4 120.6 L 58.3 114.5 L 52.7 114.5 L 52.7 113.5 L 59.9 113.5 L 59.9 114.5 L 54 120.5 L 60.2 120.5 L 60 121.6 L 52.4 121.6 L 52.4 120.6 Z M 69.8 117.5 C 69.8 117.5 69.8 117.5 69.8 117.5 C 69.8 119.7 68.4 121.8 65.5 121.8 C 62.9 121.8 61.4 119.8 61.4 117.5 C 61.4 117.5 61.4 117.5 61.4 117.5 C 61.4 115.2 63 113.3 65.6 113.3 C 68.3 113.3 69.8 115.4 69.8 117.5 Z M 62.6 117.5 C 62.6 117.5 62.6 117.5 62.6 117.5 C 62.6 119.2 63.7 120.7 65.6 120.7 C 67.6 120.7 68.5 119.3 68.5 117.6 C 68.5 117.6 68.5 117.6 68.5 117.6 C 68.5 115.8 67.4 114.3 65.5 114.3 C 63.6 114.3 62.6 115.8 62.6 117.5 Z M 80 117.5 C 80 117.5 80 117.5 80 117.5 C 80 119.7 78.6 121.8 75.8 121.8 C 73.1 121.8 71.6 119.8 71.6 117.5 C 71.6 117.5 71.6 117.5 71.6 117.5 C 71.6 115.2 73.2 113.3 75.8 113.3 C 78.5 113.3 80 115.4 80 117.5 Z M 72.9 117.5 C 72.9 117.5 72.9 117.5 72.9 117.5 C 72.9 119.2 73.9 120.7 75.8 120.7 C 77.8 120.7 78.8 119.3 78.8 117.6 C 78.8 117.6 78.8 117.6 78.8 117.6 C 78.8 115.8 77.7 114.3 75.8 114.3 C 73.8 114.3 72.9 115.8 72.9 117.5 Z M 82.4 115.6 C 82.4 114.9 82.4 114.2 82.4 113.5 C 82.4 113.5 83.5 113.5 83.5 113.5 C 83.6 113.8 83.6 114.3 83.6 114.8 C 84 114.1 84.8 113.3 86.2 113.3 C 87.5 113.3 88.3 113.9 88.7 114.9 C 89.1 114.2 89.9 113.3 91.5 113.3 C 93 113.3 94.3 114.2 94.3 116.6 C 94.32 116.55 94.3 121.6 94.3 121.6 L 93.1 121.6 C 93.1 121.6 93.12 116.61 93.1 116.6 C 93.1 115.6 92.8 114.3 91.3 114.3 C 89.9 114.3 89 115.3 89 117.2 C 88.95 117.16 89 121.6 89 121.6 L 87.8 121.6 C 87.8 121.6 87.75 116.52 87.8 116.5 C 87.8 115.5 87.4 114.3 85.9 114.3 C 84.2 114.3 83.6 115.7 83.6 117.3 C 83.58 117.3 83.6 121.6 83.6 121.6 L 82.4 121.6 C 82.4 121.6 82.38 115.59 82.4 115.6 Z M 112 109.5 C 112 109.5 112.02 119.2 112 119.2 C 112 120 112 120.8 112 121.6 C 112 121.6 110.9 121.6 110.9 121.6 C 110.8 121.2 110.8 120.7 110.8 120.2 C 110.4 121 109.7 121.8 107.8 121.8 C 105.4 121.8 103.9 120 103.9 117.6 C 103.9 117.6 103.9 117.6 103.9 117.6 C 103.9 115 105.8 113.3 107.9 113.3 C 109.9 113.3 110.6 114.2 110.8 114.6 C 110.81 114.65 110.8 109.5 110.8 109.5 L 112 109.5 Z M 105.1 117.6 C 105.1 117.6 105.1 117.6 105.1 117.6 C 105.1 119.1 106.1 120.7 108 120.7 C 110.1 120.7 110.9 119.4 110.9 117.5 C 110.9 117.5 110.9 117.5 110.9 117.5 C 110.9 115.6 110.2 114.3 108 114.3 C 106.1 114.3 105.1 116 105.1 117.6 Z M 122.1 119.2 C 122.1 120 122.1 120.8 122.1 121.6 C 122.1 121.6 120.9 121.6 120.9 121.6 C 120.9 121.3 120.9 120.7 120.9 120.1 C 120.5 121.1 119.7 121.8 117.9 121.8 C 116.2 121.8 114.9 120.9 114.9 118.5 C 114.91 118.53 114.9 113.5 114.9 113.5 L 116.1 113.5 C 116.1 113.5 116.12 118.29 116.1 118.3 C 116.1 119.6 116.6 120.7 118.2 120.7 C 120.1 120.7 120.9 119.6 120.9 117.1 C 120.88 117.13 120.9 113.5 120.9 113.5 L 122.1 113.5 C 122.1 113.5 122.09 119.21 122.1 119.2 Z M 133.5 120.2 C 133.5 120.25 133.5 125.1 133.5 125.1 L 132.3 125.1 C 132.3 125.1 132.29 115.53 132.3 115.5 C 132.3 114.9 132.3 114.2 132.3 113.5 C 132.3 113.5 133.4 113.5 133.4 113.5 C 133.5 113.8 133.5 114.3 133.5 115 C 134 114.1 134.9 113.3 136.7 113.3 C 138.9 113.3 140.4 115.1 140.4 117.4 C 140.4 117.4 140.4 117.4 140.4 117.4 C 140.4 120 138.7 121.8 136.4 121.8 C 134.7 121.8 133.9 121 133.5 120.2 Z M 139.2 117.4 C 139.2 117.4 139.2 117.4 139.2 117.4 C 139.2 115.9 138.3 114.4 136.3 114.4 C 134.3 114.4 133.5 115.8 133.5 117.6 C 133.5 117.6 133.5 117.6 133.5 117.6 C 133.5 119.4 134.4 120.7 136.3 120.7 C 138.2 120.7 139.2 119.1 139.2 117.4 Z M 142.8 121.6 L 142.8 109.5 L 144 109.5 L 144 121.6 L 142.8 121.6 Z M 153.8 119.6 C 153.8 120.4 153.8 121.4 153.9 121.6 C 153.9 121.6 152.7 121.6 152.7 121.6 C 152.6 121.2 152.6 120.6 152.6 120.3 C 152.2 121.2 151.3 121.8 149.5 121.8 C 147.2 121.8 146.4 120.4 146.4 119.2 C 146.4 119.2 146.4 119.2 146.4 119.2 C 146.4 117.2 148.3 116.6 150.6 116.6 C 151.6 116.6 152.3 116.6 152.6 116.6 C 152.6 116.6 152.6 116.1 152.6 116.1 C 152.6 115.2 152.2 114.3 150.3 114.3 C 148.7 114.3 148.3 115 148.1 115.8 C 148.07 115.84 148.1 115.8 148.1 115.8 L 146.9 115.8 C 146.9 115.8 146.87 115.84 146.9 115.8 C 147 114.8 147.7 113.3 150.3 113.3 C 153.1 113.3 153.8 114.7 153.8 116 C 153.8 116 153.8 119.6 153.8 119.6 Z M 152.6 117.5 C 152.3 117.5 151.8 117.5 150.6 117.5 C 148.6 117.5 147.6 117.9 147.6 119.1 C 147.6 119.1 147.6 119.1 147.6 119.1 C 147.6 120 148.3 120.8 149.7 120.8 C 152.1 120.8 152.6 119.3 152.6 117.9 C 152.6 117.9 152.6 117.5 152.6 117.5 Z M 156.7 115.5 C 156.7 114.9 156.7 114.1 156.7 113.5 C 156.7 113.5 157.8 113.5 157.8 113.5 C 157.9 113.8 157.9 114.5 157.9 115.1 C 158.2 114.3 159.1 113.3 160.9 113.3 C 162.7 113.3 164 114.4 164 116.7 C 163.98 116.68 164 121.6 164 121.6 L 162.8 121.6 C 162.8 121.6 162.77 116.91 162.8 116.9 C 162.8 115.5 162.2 114.4 160.6 114.4 C 158.8 114.4 157.9 115.8 157.9 117.7 C 157.9 117.75 157.9 121.6 157.9 121.6 L 156.7 121.6 C 156.7 121.6 156.69 115.54 156.7 115.5 Z M 184.9 121.6 C 184.9 121.6 183.9 121.56 183.9 121.6 C 183.9 121.3 183.8 120.3 183.8 119.7 C 183 121.1 181.8 121.8 179.6 121.8 C 176 121.8 173.7 119.5 173.7 115.9 C 173.7 115.9 173.7 115.9 173.7 115.9 C 173.7 112.5 176 109.9 179.8 109.9 C 183.1 109.9 184.5 111.6 185 113.3 C 184.99 113.28 185 113.3 185 113.3 L 183.6 113.3 C 183.6 113.3 183.65 113.28 183.6 113.3 C 183.2 112.1 182.1 111 179.8 111 C 176.8 111 175.1 113.1 175.1 115.8 C 175.1 115.8 175.1 115.8 175.1 115.8 C 175.1 118.6 176.8 120.7 179.7 120.7 C 182.2 120.7 183.7 119.4 183.7 116.9 C 183.68 116.93 183.7 116.5 183.7 116.5 L 179.7 116.5 L 179.7 115.4 L 184.9 115.4 L 184.9 121.6 Z M 188.3 110.2 C 188.3 110.2 193.53 110.16 193.5 110.2 C 196.4 110.2 197.6 111.7 197.6 113.5 C 197.6 113.5 197.6 113.5 197.6 113.5 C 197.6 115.7 196.1 116.9 193.6 116.9 C 193.62 116.87 189.6 116.9 189.6 116.9 L 189.6 121.6 L 188.3 121.6 L 188.3 110.2 Z M 189.6 115.7 C 189.6 115.7 193.38 115.74 193.4 115.7 C 195.1 115.7 196.3 115.3 196.3 113.5 C 196.3 113.5 196.3 113.5 196.3 113.5 C 196.3 112.1 195.3 111.3 193.4 111.3 C 193.38 111.29 189.6 111.3 189.6 111.3 L 189.6 115.7 Z M 200.7 118.3 C 200.7 118.3 200.68 118.28 200.7 118.3 C 201.1 119.7 202.2 120.7 204.5 120.7 C 206.9 120.7 207.8 119.8 207.8 118.6 C 207.8 117.4 207.2 116.6 204.1 116.1 C 200.8 115.6 200 114.6 200 113 C 200 111.1 201.8 109.9 204.2 109.9 C 207.8 109.9 208.7 111.8 208.8 112.9 C 208.79 112.95 208.8 112.9 208.8 112.9 L 207.5 112.9 C 207.5 112.9 207.48 112.95 207.5 112.9 C 207.2 112.1 206.7 111 204.2 111 C 202.4 111 201.3 111.6 201.3 112.9 C 201.3 113.9 201.7 114.5 204.4 115 C 208.5 115.7 209.2 116.9 209.2 118.5 C 209.2 120.3 207.7 121.8 204.4 121.8 C 201.3 121.8 199.7 120.4 199.4 118.3 C 199.36 118.28 199.4 118.3 199.4 118.3 L 200.7 118.3 Z M 210.8 123.8 C 211.7 122 212 120.5 212.1 119.1 C 212.1 119.1 213.4 119.1 213.4 119.1 C 213.3 120.4 212.8 122.5 211.9 123.8 C 211.9 123.8 210.8 123.8 210.8 123.8 Z M 231 117.5 C 231 117.5 231 117.5 231 117.5 C 231 119.7 229.6 121.8 226.8 121.8 C 224.1 121.8 222.6 119.8 222.6 117.5 C 222.6 117.5 222.6 117.5 222.6 117.5 C 222.6 115.2 224.2 113.3 226.8 113.3 C 229.5 113.3 231 115.4 231 117.5 Z M 223.9 117.5 C 223.9 117.5 223.9 117.5 223.9 117.5 C 223.9 119.2 224.9 120.7 226.8 120.7 C 228.8 120.7 229.7 119.3 229.7 117.6 C 229.7 117.6 229.7 117.6 229.7 117.6 C 229.7 115.8 228.7 114.3 226.8 114.3 C 224.8 114.3 223.9 115.8 223.9 117.5 Z M 233.4 115.5 C 233.4 114.9 233.4 114.1 233.4 113.5 C 233.4 113.5 234.5 113.5 234.5 113.5 C 234.6 113.8 234.6 114.5 234.6 115.1 C 234.9 114.3 235.8 113.3 237.6 113.3 C 239.4 113.3 240.7 114.4 240.7 116.7 C 240.67 116.68 240.7 121.6 240.7 121.6 L 239.5 121.6 C 239.5 121.6 239.45 116.91 239.5 116.9 C 239.5 115.5 238.9 114.4 237.3 114.4 C 235.5 114.4 234.6 115.8 234.6 117.7 C 234.58 117.75 234.6 121.6 234.6 121.6 L 233.4 121.6 C 233.4 121.6 233.37 115.54 233.4 115.5 Z M 250.9 115.7 C 250.9 115 250.9 114.2 250.8 113.5 C 250.8 113.5 252 113.5 252 113.5 C 252 113.7 252.1 114.6 252.1 115.4 C 252.6 114.1 253.8 113.3 255.4 113.3 C 255.4 113.3 255.4 114.5 255.4 114.5 C 253.5 114.5 252.1 115.7 252.1 118.1 C 252.06 118.08 252.1 121.6 252.1 121.6 L 250.9 121.6 C 250.9 121.6 250.85 115.7 250.9 115.7 Z M 257.8 117.8 C 257.8 117.8 257.75 117.81 257.8 117.8 C 257.8 119.5 259 120.8 260.7 120.8 C 262.1 120.8 262.8 120.2 263.3 119.3 C 263.32 119.32 263.3 119.3 263.3 119.3 L 264.5 119.3 C 264.5 119.3 264.53 119.32 264.5 119.3 C 264.1 120.5 263 121.8 260.6 121.8 C 257.9 121.8 256.5 119.7 256.5 117.6 C 256.5 117.6 256.5 117.6 256.5 117.6 C 256.5 115.1 258.2 113.3 260.6 113.3 C 263.6 113.3 264.7 115.5 264.7 117.5 C 264.7 117.6 264.7 117.7 264.6 117.8 C 264.65 117.81 257.8 117.8 257.8 117.8 Z M 263.4 116.9 C 263.4 116.9 263.37 116.88 263.4 116.9 C 263.3 115.8 262.7 114.3 260.6 114.3 C 258.8 114.3 257.9 115.4 257.8 116.9 C 257.78 116.88 257.8 116.9 257.8 116.9 L 263.4 116.9 Z M 263.2 109.3 L 260.7 111.9 L 259.5 111.9 L 261.7 109.3 L 263.2 109.3 Z M 273.8 119.6 C 273.8 120.4 273.9 121.4 273.9 121.6 C 273.9 121.6 272.7 121.6 272.7 121.6 C 272.7 121.2 272.6 120.6 272.6 120.3 C 272.2 121.2 271.3 121.8 269.6 121.8 C 267.3 121.8 266.4 120.4 266.4 119.2 C 266.4 119.2 266.4 119.2 266.4 119.2 C 266.4 117.2 268.3 116.6 270.6 116.6 C 271.7 116.6 272.4 116.6 272.6 116.6 C 272.6 116.6 272.6 116.1 272.6 116.1 C 272.6 115.2 272.2 114.3 270.4 114.3 C 268.7 114.3 268.3 115 268.1 115.8 C 268.11 115.84 268.1 115.8 268.1 115.8 L 266.9 115.8 C 266.9 115.8 266.9 115.84 266.9 115.8 C 267 114.8 267.7 113.3 270.4 113.3 C 273.1 113.3 273.8 114.7 273.8 116 C 273.8 116 273.8 119.6 273.8 119.6 Z M 272.6 117.5 C 272.4 117.5 271.8 117.5 270.6 117.5 C 268.6 117.5 267.6 117.9 267.6 119.1 C 267.6 119.1 267.6 119.1 267.6 119.1 C 267.6 120 268.3 120.8 269.7 120.8 C 272.1 120.8 272.6 119.3 272.6 117.9 C 272.6 117.9 272.6 117.5 272.6 117.5 Z M 276.7 121.6 L 276.7 109.5 L 277.9 109.5 L 277.9 121.6 L 276.7 121.6 Z M 280.8 113.5 L 282 113.5 L 282 121.6 L 280.8 121.6 L 280.8 113.5 Z M 280.8 109.5 L 282 109.5 L 282 111.3 L 280.8 111.3 L 280.8 109.5 Z M 285.5 119.1 C 285.5 119.1 285.47 119.13 285.5 119.1 C 285.8 120.2 286.7 120.8 288.2 120.8 C 289.9 120.8 290.6 120.2 290.6 119.4 C 290.6 118.6 290.1 118.1 288 117.9 C 285.2 117.5 284.6 116.6 284.6 115.6 C 284.6 114.6 285.4 113.3 287.9 113.3 C 290.7 113.3 291.4 114.8 291.5 115.7 C 291.52 115.66 291.5 115.7 291.5 115.7 L 290.3 115.7 C 290.3 115.7 290.29 115.66 290.3 115.7 C 290.2 115.1 289.8 114.3 287.9 114.3 C 286.2 114.3 285.9 115 285.9 115.5 C 285.9 116.2 286.3 116.6 288.2 116.8 C 291.2 117.2 291.8 118.1 291.8 119.3 C 291.8 120.7 290.7 121.8 288.2 121.8 C 285.8 121.8 284.5 120.8 284.2 119.1 C 284.24 119.13 284.2 119.1 284.2 119.1 L 285.5 119.1 Z M 294.8 117.8 C 294.8 117.8 294.8 117.81 294.8 117.8 C 294.9 119.5 296 120.8 297.8 120.8 C 299.1 120.8 299.9 120.2 300.4 119.3 C 300.37 119.32 300.4 119.3 300.4 119.3 L 301.6 119.3 C 301.6 119.3 301.58 119.32 301.6 119.3 C 301.2 120.5 300 121.8 297.7 121.8 C 294.9 121.8 293.6 119.7 293.6 117.6 C 293.6 117.6 293.6 117.6 293.6 117.6 C 293.6 115.1 295.2 113.3 297.6 113.3 C 300.7 113.3 301.7 115.5 301.7 117.5 C 301.7 117.6 301.7 117.7 301.7 117.8 C 301.7 117.81 294.8 117.8 294.8 117.8 Z M 300.4 116.9 C 300.4 116.9 300.42 116.88 300.4 116.9 C 300.3 115.8 299.8 114.3 297.6 114.3 C 295.9 114.3 295 115.4 294.8 116.9 C 294.83 116.88 294.8 116.9 294.8 116.9 L 300.4 116.9 Z M 317.5 120.2 C 317.1 121 316.2 121.8 314.5 121.8 C 312.2 121.8 310.6 120 310.6 117.6 C 310.6 117.6 310.6 117.6 310.6 117.6 C 310.6 114.9 312.6 113.3 314.6 113.3 C 316.6 113.3 317.3 114.3 317.5 114.8 C 317.5 114.2 317.6 113.8 317.6 113.5 C 317.6 113.5 318.8 113.5 318.8 113.5 C 318.8 114.1 318.7 115 318.7 115.8 C 318.74 115.79 318.7 125.1 318.7 125.1 L 317.5 125.1 C 317.5 125.1 317.53 120.21 317.5 120.2 Z M 311.8 117.6 C 311.8 117.6 311.8 117.6 311.8 117.6 C 311.8 119.3 312.9 120.7 314.6 120.7 C 316.5 120.7 317.6 119.6 317.6 117.5 C 317.6 117.5 317.6 117.5 317.6 117.5 C 317.6 115.6 316.7 114.4 314.8 114.4 C 312.8 114.4 311.8 115.8 311.8 117.6 Z M 328.8 119.2 C 328.8 120 328.8 120.8 328.8 121.6 C 328.8 121.6 327.7 121.6 327.7 121.6 C 327.6 121.3 327.6 120.7 327.6 120.1 C 327.2 121.1 326.4 121.8 324.7 121.8 C 322.9 121.8 321.6 120.9 321.6 118.5 C 321.63 118.53 321.6 113.5 321.6 113.5 L 322.8 113.5 C 322.8 113.5 322.84 118.29 322.8 118.3 C 322.8 119.6 323.3 120.7 324.9 120.7 C 326.8 120.7 327.6 119.6 327.6 117.1 C 327.6 117.13 327.6 113.5 327.6 113.5 L 328.8 113.5 C 328.8 113.5 328.81 119.21 328.8 119.2 Z M 331.3 114.1 C 331.7 112.8 332 111 332.1 109.5 C 332.1 109.5 333.4 109.5 333.4 109.5 C 333.3 110.7 332.8 113 332.3 114.1 C 332.3 114.1 331.3 114.1 331.3 114.1 Z M 335.6 113.5 L 336.8 113.5 L 336.8 121.6 L 335.6 121.6 L 335.6 113.5 Z M 335.6 109.5 L 336.8 109.5 L 336.8 111.3 L 335.6 111.3 L 335.6 109.5 Z M 339.7 121.6 L 339.7 109.5 L 340.9 109.5 L 340.9 121.6 L 339.7 121.6 Z M 351.5 119.1 C 351.5 119.1 351.54 119.13 351.5 119.1 C 351.9 120.2 352.8 120.8 354.3 120.8 C 356 120.8 356.6 120.2 356.6 119.4 C 356.6 118.6 356.2 118.1 354 117.9 C 351.3 117.5 350.7 116.6 350.7 115.6 C 350.7 114.6 351.5 113.3 354 113.3 C 356.8 113.3 357.5 114.8 357.6 115.7 C 357.59 115.66 357.6 115.7 357.6 115.7 L 356.4 115.7 C 356.4 115.7 356.36 115.66 356.4 115.7 C 356.2 115.1 355.9 114.3 353.9 114.3 C 352.3 114.3 351.9 115 351.9 115.5 C 351.9 116.2 352.3 116.6 354.3 116.8 C 357.2 117.2 357.8 118.1 357.8 119.3 C 357.8 120.7 356.7 121.8 354.2 121.8 C 351.9 121.8 350.6 120.8 350.3 119.1 C 350.31 119.13 350.3 119.1 350.3 119.1 L 351.5 119.1 Z M 359.7 114.1 C 360.1 112.8 360.5 111 360.5 109.5 C 360.5 109.5 361.8 109.5 361.8 109.5 C 361.7 110.7 361.2 113 360.7 114.1 C 360.7 114.1 359.7 114.1 359.7 114.1 Z M 370.4 119.6 C 370.4 120.4 370.4 121.4 370.4 121.6 C 370.4 121.6 369.3 121.6 369.3 121.6 C 369.2 121.2 369.2 120.6 369.2 120.3 C 368.8 121.2 367.9 121.8 366.1 121.8 C 363.8 121.8 363 120.4 363 119.2 C 363 119.2 363 119.2 363 119.2 C 363 117.2 364.9 116.6 367.1 116.6 C 368.2 116.6 368.9 116.6 369.2 116.6 C 369.2 116.6 369.2 116.1 369.2 116.1 C 369.2 115.2 368.8 114.3 366.9 114.3 C 365.2 114.3 364.8 115 364.7 115.8 C 364.66 115.84 364.7 115.8 364.7 115.8 L 363.4 115.8 C 363.4 115.8 363.45 115.84 363.4 115.8 C 363.6 114.8 364.3 113.3 366.9 113.3 C 369.7 113.3 370.4 114.7 370.4 116 C 370.4 116 370.4 119.6 370.4 119.6 Z M 369.2 117.5 C 368.9 117.5 368.4 117.5 367.2 117.5 C 365.2 117.5 364.2 117.9 364.2 119.1 C 364.2 119.1 364.2 119.1 364.2 119.1 C 364.2 120 364.8 120.8 366.3 120.8 C 368.6 120.8 369.2 119.3 369.2 117.9 C 369.2 117.9 369.2 117.5 369.2 117.5 Z M 373.7 121.6 L 373.7 114.5 L 372.2 114.5 L 372.2 113.5 L 373.7 113.5 C 373.7 113.5 373.73 112.31 373.7 112.3 C 373.7 110.5 374.5 109.4 376.3 109.4 C 376.7 109.4 377 109.4 377.2 109.5 C 377.2 109.5 377.2 110.5 377.2 110.5 C 377 110.5 376.6 110.4 376.4 110.4 C 375.3 110.4 374.9 111 374.9 112.4 C 374.94 112.41 374.9 113.5 374.9 113.5 L 376.9 113.5 L 376.9 114.5 L 374.9 114.5 L 374.9 121.6 L 373.7 121.6 Z M 379.7 121.6 L 379.7 114.5 L 378.2 114.5 L 378.2 113.5 L 379.7 113.5 C 379.7 113.5 379.72 112.31 379.7 112.3 C 379.7 110.5 380.5 109.4 382.3 109.4 C 382.7 109.4 383 109.4 383.2 109.5 C 383.2 109.5 383.2 110.5 383.2 110.5 C 383 110.5 382.6 110.4 382.4 110.4 C 381.3 110.4 380.9 111 380.9 112.4 C 380.94 112.41 380.9 113.5 380.9 113.5 L 382.9 113.5 L 382.9 114.5 L 380.9 114.5 L 380.9 121.6 L 379.7 121.6 Z M 384.9 113.5 L 386.1 113.5 L 386.1 121.6 L 384.9 121.6 L 384.9 113.5 Z M 384.9 109.5 L 386.1 109.5 L 386.1 111.3 L 384.9 111.3 L 384.9 109.5 Z M 396.5 119.1 C 396.5 119.1 396.5 119.1 396.5 119.1 C 396.1 120.5 394.8 121.8 392.6 121.8 C 389.9 121.8 388.5 119.9 388.5 117.6 C 388.5 117.6 388.5 117.6 388.5 117.6 C 388.5 115.3 390 113.3 392.7 113.3 C 395.2 113.3 396.3 114.9 396.5 116 C 396.49 116.03 396.5 116 396.5 116 L 395.3 116 C 395.3 116 395.28 116.03 395.3 116 C 395 115.2 394.3 114.3 392.6 114.3 C 390.8 114.3 389.7 115.7 389.7 117.5 C 389.7 117.5 389.7 117.5 389.7 117.5 C 389.7 119.3 390.8 120.8 392.7 120.8 C 394.1 120.8 394.9 120.1 395.3 119.1 C 395.29 119.1 395.3 119.1 395.3 119.1 L 396.5 119.1 Z M 400 109.5 C 400 109.5 400 115.09 400 115.1 C 400.3 114.5 401 113.3 403.1 113.3 C 404.9 113.3 406.1 114.4 406.1 116.7 C 406.09 116.69 406.1 121.6 406.1 121.6 L 404.9 121.6 C 404.9 121.6 404.87 116.9 404.9 116.9 C 404.9 115.5 404.3 114.4 402.7 114.4 C 400.9 114.4 400 115.9 400 117.6 C 400 117.58 400 121.6 400 121.6 L 398.8 121.6 L 398.8 109.5 L 400 109.5 Z M 409.6 117.8 C 409.6 117.8 409.65 117.81 409.6 117.8 C 409.7 119.5 410.9 120.8 412.6 120.8 C 414 120.8 414.7 120.2 415.2 119.3 C 415.22 119.32 415.2 119.3 415.2 119.3 L 416.4 119.3 C 416.4 119.3 416.43 119.32 416.4 119.3 C 416 120.5 414.9 121.8 412.5 121.8 C 409.8 121.8 408.4 119.7 408.4 117.6 C 408.4 117.6 408.4 117.6 408.4 117.6 C 408.4 115.1 410.1 113.3 412.5 113.3 C 415.5 113.3 416.6 115.5 416.6 117.5 C 416.6 117.6 416.6 117.7 416.5 117.8 C 416.55 117.81 409.6 117.8 409.6 117.8 Z M 415.3 116.9 C 415.3 116.9 415.27 116.88 415.3 116.9 C 415.2 115.8 414.6 114.3 412.5 114.3 C 410.7 114.3 409.8 115.4 409.7 116.9 C 409.68 116.88 409.7 116.9 409.7 116.9 L 415.3 116.9 Z M 426.5 119.1 C 426.5 119.1 426.49 119.13 426.5 119.1 C 426.8 120.2 427.7 120.8 429.3 120.8 C 430.9 120.8 431.6 120.2 431.6 119.4 C 431.6 118.6 431.1 118.1 429 117.9 C 426.2 117.5 425.6 116.6 425.6 115.6 C 425.6 114.6 426.4 113.3 429 113.3 C 431.7 113.3 432.5 114.8 432.5 115.7 C 432.53 115.66 432.5 115.7 432.5 115.7 L 431.3 115.7 C 431.3 115.7 431.3 115.66 431.3 115.7 C 431.2 115.1 430.8 114.3 428.9 114.3 C 427.2 114.3 426.9 115 426.9 115.5 C 426.9 116.2 427.3 116.6 429.2 116.8 C 432.2 117.2 432.8 118.1 432.8 119.3 C 432.8 120.7 431.7 121.8 429.2 121.8 C 426.8 121.8 425.5 120.8 425.3 119.1 C 425.26 119.13 425.3 119.1 425.3 119.1 L 426.5 119.1 Z M 442.3 119.2 C 442.3 120 442.3 120.8 442.3 121.6 C 442.3 121.6 441.1 121.6 441.1 121.6 C 441.1 121.3 441.1 120.7 441.1 120.1 C 440.7 121.1 439.9 121.8 438.1 121.8 C 436.4 121.8 435.1 120.9 435.1 118.5 C 435.11 118.53 435.1 113.5 435.1 113.5 L 436.3 113.5 C 436.3 113.5 436.32 118.29 436.3 118.3 C 436.3 119.6 436.8 120.7 438.4 120.7 C 440.3 120.7 441.1 119.6 441.1 117.1 C 441.08 117.13 441.1 113.5 441.1 113.5 L 442.3 113.5 C 442.3 113.5 442.29 119.21 442.3 119.2 Z M 445.2 115.7 C 445.2 115 445.2 114.2 445.2 113.5 C 445.2 113.5 446.4 113.5 446.4 113.5 C 446.4 113.7 446.4 114.6 446.4 115.4 C 447 114.1 448.2 113.3 449.7 113.3 C 449.7 113.3 449.7 114.5 449.7 114.5 C 447.9 114.5 446.4 115.7 446.4 118.1 C 446.42 118.08 446.4 121.6 446.4 121.6 L 445.2 121.6 C 445.2 121.6 445.21 115.7 445.2 115.7 Z " stroke="none" fill="#141414"/>  </g></svg>