<?xml version="1.0" standalone="no"?><!DOCTYPE svg PUBLIC "-//W3C//DTD SVG 1.1//EN" "http://www.w3.org/Graphics/SVG/1.1/DTD/svg11.dtd"><svg xmlns="http://www.w3.org/2000/svg" version="1.1" width="1710px" height="612.5px" viewBox="0 -1 1710 612.5" style="top:-1px">  <desc>ANNA &amp; LE NARRATEUR VO UN CASTING EXPRESSIF</desc>  <defs/>  <g id="Polygon10855">    <path d="M 19.4 405.1 L 97.1 405.1 L 90.8 435 L 48.6 435 L 46.7 444.1 L 76.5 444.1 L 70.8 471 L 41 471 L 39 480.1 L 81.2 480.1 L 74.9 510 L -2.9 510 L 19.4 405.1 Z M 129.3 457 L 103.4 405.1 L 143.9 405.1 L 155.7 428.7 L 177.5 405.1 L 218.1 405.1 L 170 457 L 196.7 510 L 156 510 L 143.7 485.5 L 120.9 510 L 80.3 510 L 129.3 457 Z M 225.4 405.1 C 225.4 405.1 275.76 405.15 275.8 405.1 C 286.1 405.1 294.5 407.7 301.1 412.7 C 307.7 417.8 311 424.9 311 434.3 C 311 437.4 310.7 440.4 310 443.3 C 307.3 456.1 301.8 465.6 293.5 471.9 C 285.3 478.2 274 481.3 259.6 481.3 C 259.56 481.35 244.7 481.3 244.7 481.3 L 238.7 510 L 203.2 510 L 225.4 405.1 Z M 258.1 454.8 C 263.1 454.8 266.8 454 269.2 452.3 C 271.6 450.7 273.2 447.7 274.1 443.3 C 274.4 441.9 274.6 440.6 274.6 439.5 C 274.6 436.7 273.6 434.7 271.6 433.5 C 269.7 432.3 266.8 431.7 262.9 431.7 C 262.86 431.7 255.2 431.7 255.2 431.7 L 250.4 454.8 C 250.4 454.8 258.06 454.8 258.1 454.8 Z M 328.2 405.1 C 328.2 405.1 378.55 405.15 378.6 405.1 C 389.5 405.1 398.1 407.8 404.4 412.9 C 410.7 418.2 413.8 425.3 413.8 434.3 C 413.8 437.4 413.5 440.4 412.8 443.3 C 411.1 451 408.1 457.7 403.8 463.1 C 399.6 468.6 394.3 472.9 388 475.9 C 388 475.95 397.3 510 397.3 510 L 361.5 510 L 353.7 481.3 L 346.9 481.3 L 340.9 510 L 306 510 L 328.2 405.1 Z M 360.6 454.8 C 369.7 454.8 375 451 376.6 443.3 C 376.9 442 377.1 441 377.1 439.9 C 377.1 434.5 373.2 431.7 365.4 431.7 C 365.35 431.7 357.4 431.7 357.4 431.7 L 352.6 454.8 C 352.6 454.8 360.55 454.8 360.6 454.8 Z M 432.9 405.1 L 510.6 405.1 L 504.3 435 L 462.1 435 L 460.2 444.1 L 490 444.1 L 484.3 471 L 454.5 471 L 452.5 480.1 L 494.7 480.1 L 488.4 510 L 410.7 510 L 432.9 405.1 Z M 536.3 512.3 C 529.4 512.3 522.6 511.5 515.9 510.2 C 509.2 508.8 503.9 506.8 500 504.4 C 500 504.4 506.6 473.5 506.6 473.5 C 511.5 476.8 516.9 479.2 522.9 480.7 C 528.8 482.4 534.4 483.1 539.7 483.1 C 543.1 483.1 545.5 482.8 546.9 482 C 548.3 481.3 549 480.1 549 478.5 C 549 477 548.1 475.6 546.3 474.4 C 544.5 473.1 540.9 471.2 535.4 468.6 C 528.1 465 522.7 461.2 519.3 457 C 515.9 453 514.2 448.2 514.2 442.6 C 514.2 440.8 514.5 438.4 515 435.8 C 516.4 429.3 519.3 423.5 523.6 418.6 C 528 413.6 533.6 409.8 540.6 407 C 547.5 404.3 555.4 402.9 564.3 402.9 C 571.1 402.9 577.1 403.5 582.1 404.5 C 587.1 405.7 591.9 407.4 596.3 409.6 C 596.3 409.6 589.8 439.5 589.8 439.5 C 582 434.5 573.7 432 564.8 432 C 557.8 432 553.9 433.6 553.1 436.6 C 552.8 438.1 553.3 439.3 554.7 440.3 C 556 441.1 558.7 442.6 562.7 444.4 C 563.9 444.9 565.6 445.6 567.9 446.7 C 575.6 450.3 581.1 453.9 584.2 457.3 C 587.4 460.9 588.9 465.2 588.9 470.4 C 588.9 473 588.5 476.2 587.7 479.8 C 585.5 490.3 580.4 498.3 572.4 503.8 C 564.4 509.5 552.4 512.3 536.3 512.3 C 536.3 512.3 536.3 512.3 536.3 512.3 Z M 627.9 512.3 C 621 512.3 614.2 511.5 607.5 510.2 C 600.8 508.8 595.5 506.8 591.6 504.4 C 591.6 504.4 598.2 473.5 598.2 473.5 C 603.1 476.8 608.5 479.2 614.5 480.7 C 620.4 482.4 626.1 483.1 631.4 483.1 C 634.8 483.1 637.2 482.8 638.6 482 C 640 481.3 640.7 480.1 640.7 478.5 C 640.7 477 639.8 475.6 638 474.4 C 636.2 473.1 632.5 471.2 627 468.6 C 619.7 465 614.4 461.2 611 457 C 607.6 453 605.9 448.2 605.9 442.6 C 605.9 440.8 606.1 438.4 606.6 435.8 C 608 429.3 610.9 423.5 615.2 418.6 C 619.6 413.6 625.2 409.8 632.2 407 C 639.1 404.3 647.1 402.9 656 402.9 C 662.8 402.9 668.7 403.5 673.7 404.5 C 678.8 405.7 683.5 407.4 687.9 409.6 C 687.9 409.6 681.5 439.5 681.5 439.5 C 673.7 434.5 665.3 432 656.4 432 C 649.4 432 645.5 433.6 644.7 436.6 C 644.4 438.1 644.9 439.3 646.3 440.3 C 647.6 441.1 650.3 442.6 654.3 444.4 C 655.5 444.9 657.3 445.6 659.6 446.7 C 667.3 450.3 672.7 453.9 675.8 457.3 C 679 460.9 680.6 465.2 680.6 470.4 C 680.6 473 680.2 476.2 679.4 479.8 C 677.2 490.3 672.1 498.3 664.1 503.8 C 656.1 509.5 644 512.3 627.9 512.3 C 627.9 512.3 627.9 512.3 627.9 512.3 Z M 707.6 405.1 L 743.2 405.1 L 721 510 L 685.4 510 L 707.6 405.1 Z M 759.8 405.1 L 837.5 405.1 L 831.2 435 L 789.1 435 L 787.1 444.1 L 817 444.1 L 811.3 471 L 781.4 471 L 773.2 510 L 737.6 510 L 759.8 405.1 Z " stroke="none" fill="#fafafa"/>  </g>  <g id="Polygon10854">    <path d="M 46.4 401.3 C 37.4 401.3 29.9 399.6 23.7 396.4 C 17.5 393.3 12.8 388.9 9.7 383.2 C 6.5 377.7 5 371.2 5 363.8 C 5 360 5.4 355.9 6.3 351.8 C 6.3 351.75 18.6 294.1 18.6 294.1 L 54.2 294.1 C 54.2 294.1 42.15 350.7 42.2 350.7 C 41.6 353.5 41.3 356 41.3 358.2 C 41.3 361.7 42.2 364.3 44 366 C 45.9 367.7 49 368.5 53.4 368.5 C 58.6 368.5 62.7 367 65.7 364 C 68.7 361 70.8 356.6 72 350.7 C 72 350.7 84 294.1 84 294.1 L 119.7 294.1 C 119.7 294.1 107.4 351.75 107.4 351.8 C 100.4 384.7 80 401.3 46.4 401.3 C 46.4 401.3 46.4 401.3 46.4 401.3 Z M 134.7 294.1 L 166.1 294.1 L 186.9 342.9 L 197.3 294.1 L 231.3 294.1 L 209.1 399 L 177.8 399 L 156.9 350.1 L 146.6 399 L 112.5 399 L 134.7 294.1 Z M 326.6 401.3 C 317.2 401.3 308.8 399.6 301.6 396.3 C 294.3 393 288.7 388.2 284.7 381.9 C 280.7 375.6 278.7 368.2 278.7 359.7 C 278.7 355.4 279.2 351.1 280.2 346.6 C 283.8 329.4 291.6 315.9 303.7 306.3 C 315.7 296.7 331.1 291.9 349.8 291.9 C 357.5 291.9 364.2 292.6 369.8 293.8 C 375.5 295.2 380.5 297.3 384.9 300.1 C 384.9 300.1 377.7 333.8 377.7 333.8 C 374 330.6 369.6 328.3 364.5 326.8 C 359.4 325.5 353.3 324.8 346.1 324.8 C 338.3 324.8 331.7 326.6 326.5 330.4 C 321.2 334.1 317.9 339.6 316.4 346.6 C 315.8 349.2 315.5 351.5 315.5 353.7 C 315.5 358.7 317.2 362.4 320.6 364.9 C 324.1 367.3 329.5 368.5 336.8 368.5 C 343.8 368.5 350.2 367.8 356.1 366.2 C 362 364.7 367.8 362.3 373.5 359.1 C 373.5 359.1 366.5 392.5 366.5 392.5 C 355 398.4 341.7 401.3 326.6 401.3 C 326.6 401.3 326.6 401.3 326.6 401.3 Z M 433.8 294.1 L 467.4 294.1 L 487.2 399 L 451.5 399 L 448.5 380.7 L 417.3 380.7 L 406.8 399 L 369.6 399 L 433.8 294.1 Z M 446.2 354.6 L 443.7 330.4 L 430.6 354.6 L 446.2 354.6 Z M 528.7 401.3 C 521.8 401.3 515 400.5 508.3 399.2 C 501.6 397.8 496.3 395.8 492.4 393.4 C 492.4 393.4 499 362.5 499 362.5 C 503.9 365.8 509.3 368.2 515.3 369.7 C 521.2 371.4 526.9 372.1 532.2 372.1 C 535.6 372.1 538 371.8 539.4 371 C 540.8 370.3 541.5 369.1 541.5 367.5 C 541.5 366 540.6 364.6 538.8 363.4 C 537 362.1 533.3 360.2 527.8 357.6 C 520.5 354 515.2 350.2 511.8 346 C 508.4 342 506.7 337.2 506.7 331.6 C 506.7 329.8 506.9 327.4 507.4 324.8 C 508.8 318.3 511.7 312.5 516 307.6 C 520.4 302.6 526 298.8 533 296 C 539.9 293.3 547.9 291.9 556.8 291.9 C 563.6 291.9 569.5 292.5 574.5 293.5 C 579.6 294.7 584.3 296.4 588.7 298.6 C 588.7 298.6 582.3 328.5 582.3 328.5 C 574.5 323.5 566.1 321 557.2 321 C 550.2 321 546.3 322.6 545.5 325.6 C 545.2 327.1 545.7 328.3 547.1 329.3 C 548.4 330.1 551.1 331.6 555.1 333.4 C 556.3 333.9 558.1 334.6 560.4 335.7 C 568.1 339.3 573.5 342.9 576.6 346.3 C 579.8 349.9 581.4 354.2 581.4 359.4 C 581.4 362 581 365.2 580.2 368.8 C 578 379.3 572.9 387.3 564.9 392.8 C 556.9 398.5 544.8 401.3 528.7 401.3 C 528.7 401.3 528.7 401.3 528.7 401.3 Z M 617.6 324 L 590.7 324 L 597 294.1 L 686.3 294.1 L 680 324 L 653.1 324 L 637.2 399 L 601.7 399 L 617.6 324 Z M 692.1 294.1 L 727.7 294.1 L 705.5 399 L 669.9 399 L 692.1 294.1 Z M 744.3 294.1 L 775.7 294.1 L 796.5 342.9 L 806.9 294.1 L 840.9 294.1 L 818.7 399 L 787.4 399 L 766.5 350.1 L 756.2 399 L 722.1 399 L 744.3 294.1 Z M 887.3 401.3 C 877.9 401.3 869.6 399.6 862.3 396.3 C 855.1 393 849.4 388.2 845.4 381.9 C 841.4 375.6 839.4 368.2 839.4 359.7 C 839.4 355.4 839.9 351.1 840.9 346.6 C 843.3 335.4 847.8 325.6 854.2 317.4 C 860.7 309.2 868.7 302.9 878.4 298.5 C 888 294.1 898.7 291.9 910.5 291.9 C 918.3 291.9 925 292.6 930.6 293.8 C 936.1 295.2 941.1 297.3 945.6 300.1 C 945.6 300.1 938.4 333.4 938.4 333.4 C 934.8 330.3 930.5 328 925.3 326.5 C 920.2 325.2 914 324.4 906.8 324.4 C 899 324.4 892.4 326.4 887.1 330.2 C 881.8 334.1 878.4 339.6 876.9 346.6 C 876.2 349.6 875.9 352.5 875.9 355.3 C 875.9 360.3 877.4 363.9 880.4 366.4 C 883.4 368.8 888.4 370 895.5 370 C 898.4 370 901.1 369.7 903.5 368.8 C 903.5 368.85 905.6 358.9 905.6 358.9 L 894 358.9 L 898.4 338.5 L 941.1 338.5 C 941.1 338.5 929.75 392.4 929.7 392.4 C 918.2 398.3 904.1 401.3 887.3 401.3 C 887.3 401.3 887.3 401.3 887.3 401.3 Z " stroke="none" fill="#fafafa"/>  </g>  <g id="Polygon10853">    <path d="M 7.9 271.2 L 9.6 271.2 L 16.3 288 L 14.4 288 L 12.6 283.5 L 4.9 283.5 L 3.1 288 L 1.2 288 L 7.9 271.2 Z M 12.1 281.9 L 8.8 273.4 L 5.4 281.9 L 12.1 281.9 Z M 23.7 271.2 L 25.5 271.2 L 34.7 284.8 L 34.7 271.2 L 36.6 271.2 L 36.6 288 L 34.8 288 L 25.6 274.4 L 25.6 288 L 23.7 288 L 23.7 271.2 Z M 45.1 271.2 L 46.9 271.2 L 56.2 284.8 L 56.2 271.2 L 58 271.2 L 58 288 L 56.2 288 L 47 274.4 L 47 288 L 45.1 288 L 45.1 271.2 Z M 72.1 271.2 L 73.8 271.2 L 80.5 288 L 78.6 288 L 76.8 283.5 L 69.1 283.5 L 67.3 288 L 65.4 288 L 72.1 271.2 Z M 76.3 281.9 L 72.9 273.4 L 69.6 281.9 L 76.3 281.9 Z M 107.7 288.4 C 105.9 288.4 104.5 288 103.3 287.2 C 102.2 286.4 101.6 285.2 101.6 283.8 C 101.6 282.8 101.9 281.8 102.6 281 C 103.2 280.2 104.2 279.5 105.5 278.7 C 104.7 278 104.1 277.3 103.7 276.7 C 103.4 276.1 103.2 275.4 103.2 274.7 C 103.2 273.5 103.6 272.6 104.3 271.9 C 105.1 271.2 106.1 270.9 107.3 270.9 C 108.1 270.9 108.9 271 109.5 271.4 C 110.1 271.7 110.6 272.2 110.9 272.7 C 111.3 273.3 111.5 274 111.5 274.7 C 111.5 275.6 111.2 276.3 110.8 276.9 C 110.3 277.4 109.4 278.1 108.2 279 C 108.2 279 113.2 283.8 113.2 283.8 C 113.5 283.2 113.7 282.6 113.8 282 C 114 281.4 114 280.6 114 279.6 C 114 279.6 115.8 279.6 115.8 279.6 C 115.8 280.8 115.7 281.8 115.5 282.6 C 115.3 283.5 115 284.3 114.5 285 C 114.5 285.02 117.6 288 117.6 288 L 115.3 288 C 115.3 288 113.42 286.18 113.4 286.2 C 112.7 286.9 111.9 287.5 110.9 287.8 C 110 288.2 108.9 288.4 107.7 288.4 C 107.7 288.4 107.7 288.4 107.7 288.4 Z M 107 278 C 108 277.4 108.7 276.8 109.1 276.4 C 109.5 275.9 109.7 275.4 109.7 274.7 C 109.7 274 109.5 273.5 109.1 273.1 C 108.7 272.7 108.1 272.5 107.3 272.5 C 106.6 272.5 106 272.7 105.6 273 C 105.2 273.4 104.9 274 104.9 274.7 C 104.9 275.3 105.1 275.8 105.4 276.2 C 105.7 276.6 106.3 277.2 107 278 C 107 278 107 278 107 278 Z M 107.7 286.8 C 109.6 286.8 111.1 286.2 112.2 285 C 112.2 285 106.8 279.8 106.8 279.8 C 105.6 280.4 104.8 281 104.3 281.6 C 103.8 282.2 103.5 282.9 103.5 283.8 C 103.5 284.8 103.9 285.5 104.7 286 C 105.4 286.5 106.4 286.8 107.7 286.8 C 107.7 286.8 107.7 286.8 107.7 286.8 Z M 139.2 271.2 L 141.1 271.2 L 141.1 286.4 L 150 286.4 L 150 288 L 139.2 288 L 139.2 271.2 Z M 157 271.2 L 167.8 271.2 L 167.8 272.8 L 158.9 272.8 L 158.9 278.8 L 165.6 278.8 L 165.6 280.4 L 158.9 280.4 L 158.9 286.4 L 167.8 286.4 L 167.8 288 L 157 288 L 157 271.2 Z M 189.4 271.2 L 191.2 271.2 L 200.5 284.8 L 200.5 271.2 L 202.3 271.2 L 202.3 288 L 200.5 288 L 191.3 274.4 L 191.3 288 L 189.4 288 L 189.4 271.2 Z M 216.4 271.2 L 218.1 271.2 L 224.8 288 L 222.9 288 L 221.1 283.5 L 213.4 283.5 L 211.6 288 L 209.7 288 L 216.4 271.2 Z M 220.6 281.9 L 217.2 273.4 L 213.9 281.9 L 220.6 281.9 Z M 232.2 271.2 C 232.2 271.2 238.65 271.22 238.6 271.2 C 240.4 271.2 241.7 271.6 242.6 272.4 C 243.5 273.3 244 274.5 244 276.1 C 244 277.3 243.6 278.3 242.9 279.2 C 242.2 280 241.2 280.6 239.9 280.8 C 239.94 280.78 243.9 288 243.9 288 L 242 288 L 238 280.9 L 234 280.9 L 234 288 L 232.2 288 L 232.2 271.2 Z M 238.4 279.3 C 239.6 279.3 240.5 279 241.1 278.5 C 241.8 277.9 242.1 277.1 242.1 276.1 C 242.1 274.9 241.8 274 241.1 273.6 C 240.5 273.1 239.6 272.8 238.4 272.8 C 238.41 272.81 234 272.8 234 272.8 L 234 279.3 C 234 279.3 238.41 279.29 238.4 279.3 Z M 251.8 271.2 C 251.8 271.2 258.31 271.22 258.3 271.2 C 260.1 271.2 261.4 271.6 262.3 272.4 C 263.2 273.3 263.6 274.5 263.6 276.1 C 263.6 277.3 263.3 278.3 262.6 279.2 C 261.9 280 260.9 280.6 259.6 280.8 C 259.61 280.78 263.6 288 263.6 288 L 261.6 288 L 257.7 280.9 L 253.7 280.9 L 253.7 288 L 251.8 288 L 251.8 271.2 Z M 258.1 279.3 C 259.2 279.3 260.1 279 260.8 278.5 C 261.4 277.9 261.8 277.1 261.8 276.1 C 261.8 274.9 261.4 274 260.8 273.6 C 260.1 273.1 259.2 272.8 258.1 272.8 C 258.07 272.81 253.7 272.8 253.7 272.8 L 253.7 279.3 C 253.7 279.3 258.07 279.29 258.1 279.3 Z M 277.4 271.2 L 279.2 271.2 L 285.8 288 L 283.9 288 L 282.1 283.5 L 274.4 283.5 L 272.6 288 L 270.7 288 L 277.4 271.2 Z M 281.6 281.9 L 278.3 273.4 L 275 281.9 L 281.6 281.9 Z M 295.3 272.8 L 290 272.8 L 290 271.2 L 302.6 271.2 L 302.6 272.8 L 297.2 272.8 L 297.2 288 L 295.3 288 L 295.3 272.8 Z M 309.7 271.2 L 320.5 271.2 L 320.5 272.8 L 311.6 272.8 L 311.6 278.8 L 318.3 278.8 L 318.3 280.4 L 311.6 280.4 L 311.6 286.4 L 320.5 286.4 L 320.5 288 L 309.7 288 L 309.7 271.2 Z M 334.5 288.4 C 332.3 288.4 330.6 287.8 329.5 286.7 C 328.3 285.6 327.8 284 327.8 282 C 327.77 282 327.8 271.2 327.8 271.2 L 329.6 271.2 C 329.6 271.2 329.65 282.14 329.6 282.1 C 329.6 283.7 330.1 284.8 330.9 285.6 C 331.8 286.3 333 286.7 334.5 286.7 C 336 286.7 337.2 286.3 338 285.6 C 338.9 284.8 339.3 283.7 339.3 282.1 C 339.29 282.14 339.3 271.2 339.3 271.2 L 341.2 271.2 C 341.2 271.2 341.17 282 341.2 282 C 341.2 284 340.6 285.6 339.5 286.7 C 338.3 287.8 336.7 288.4 334.5 288.4 C 334.5 288.4 334.5 288.4 334.5 288.4 Z M 349.6 271.2 C 349.6 271.2 356.08 271.22 356.1 271.2 C 357.8 271.2 359.1 271.6 360 272.4 C 361 273.3 361.4 274.5 361.4 276.1 C 361.4 277.3 361 278.3 360.3 279.2 C 359.6 280 358.6 280.6 357.4 280.8 C 357.37 280.78 361.4 288 361.4 288 L 359.4 288 L 355.5 280.9 L 351.5 280.9 L 351.5 288 L 349.6 288 L 349.6 271.2 Z M 355.8 279.3 C 357 279.3 357.9 279 358.5 278.5 C 359.2 277.9 359.5 277.1 359.5 276.1 C 359.5 274.9 359.2 274 358.6 273.6 C 357.9 273.1 357 272.8 355.8 272.8 C 355.84 272.81 351.5 272.8 351.5 272.8 L 351.5 279.3 C 351.5 279.3 355.84 279.29 355.8 279.3 Z M 382.5 271.2 L 384.5 271.2 L 390.1 285.4 L 395.7 271.2 L 397.7 271.2 L 391 288 L 389.2 288 L 382.5 271.2 Z M 412.3 288.4 C 410.7 288.4 409.2 288 407.9 287.3 C 406.5 286.5 405.5 285.5 404.7 284.2 C 403.9 282.9 403.5 281.3 403.5 279.6 C 403.5 277.9 403.9 276.4 404.7 275.1 C 405.5 273.7 406.5 272.7 407.8 272 C 409.2 271.2 410.7 270.9 412.3 270.9 C 414 270.9 415.5 271.2 416.8 272 C 418.1 272.7 419.2 273.7 420 275.1 C 420.7 276.4 421.1 277.9 421.1 279.6 C 421.1 281.3 420.7 282.9 420 284.2 C 419.2 285.5 418.1 286.5 416.8 287.3 C 415.5 288 414 288.4 412.3 288.4 C 412.3 288.4 412.3 288.4 412.3 288.4 Z M 412.3 286.7 C 413.6 286.7 414.8 286.4 415.8 285.8 C 416.9 285.2 417.7 284.4 418.3 283.4 C 418.9 282.3 419.2 281 419.2 279.6 C 419.2 278.2 418.9 277 418.3 275.9 C 417.7 274.9 416.9 274 415.9 273.4 C 414.8 272.9 413.7 272.6 412.4 272.6 C 411.1 272.6 409.9 272.9 408.8 273.4 C 407.8 274 407 274.8 406.3 275.9 C 405.7 277 405.4 278.2 405.4 279.6 C 405.4 281 405.7 282.3 406.3 283.4 C 406.9 284.4 407.8 285.2 408.8 285.8 C 409.9 286.4 411 286.7 412.3 286.7 C 412.3 286.7 412.3 286.7 412.3 286.7 Z " stroke="none" fill="#fafafa"/>  </g></svg>