<?xml version="1.0" standalone="no"?><!DOCTYPE svg PUBLIC "-//W3C//DTD SVG 1.1//EN" "http://www.w3.org/Graphics/SVG/1.1/DTD/svg11.dtd"><svg xmlns="http://www.w3.org/2000/svg" version="1.1" width="90px" height="14.8px" viewBox="0 -2 90 14.8" style="top:-2px">  <desc>Page</desc>  <defs/>  <g id="Polygon11761">    <path d="M 39.9 5.7 C 39.9 5.7 40.57 5.13 40.6 5.1 C 40.7 5 40.9 4.9 41.2 4.7 C 41.6 4.4 41.9 4.2 42.1 4 C 42.3 3.8 42.4 3.7 42.4 3.5 C 42.4 3.5 42.4 3.4 42.4 3.4 C 42.4 3.2 42.2 3.1 41.9 3.1 C 41.7 3.1 41.4 3.1 41.2 3.2 C 40.9 3.3 40.7 3.4 40.5 3.6 C 40.5 3.6 40.8 2 40.8 2 C 41 1.8 41.3 1.7 41.7 1.6 C 42 1.5 42.3 1.5 42.7 1.5 C 43.2 1.5 43.6 1.6 43.8 1.8 C 44.1 2.1 44.2 2.4 44.2 2.7 C 44.2 2.8 44.2 2.9 44.2 3 C 44.1 3.4 44 3.8 43.8 4 C 43.6 4.3 43.3 4.6 42.9 4.9 C 42.9 4.88 42.4 5.2 42.4 5.2 L 43.9 5.2 L 43.6 6.5 L 39.7 6.5 L 39.9 5.7 Z M 47.6 5.6 L 45.4 5.6 L 45.6 4.6 L 48.5 1.6 L 50.1 1.6 L 49.5 4.4 L 50.1 4.4 L 49.9 5.6 L 49.2 5.6 L 49 6.5 L 47.4 6.5 L 47.6 5.6 Z M 48.1 4.4 L 48.2 3.5 L 47.5 4.4 L 48.1 4.4 Z " stroke="none" fill="#fafafa"/>  </g></svg>