<?xml version="1.0" standalone="no"?><!DOCTYPE svg PUBLIC "-//W3C//DTD SVG 1.1//EN" "http://www.w3.org/Graphics/SVG/1.1/DTD/svg11.dtd"><svg xmlns="http://www.w3.org/2000/svg" version="1.1" width="475px" height="150.2px" viewBox="-12 -18 475 150.2" style="left:-12px;top:-18px">  <desc>Le maquillage d’Anna sera super nature, et suivra son volution. Pendant le run, son teint sera naturellement plus ro...</desc>  <defs>    <filter id="shadow_11459" x="0" y="0" width="200%" height="200%">      <feOffset result="offOut" in="SourceAlpha" dx="0.70710678118655" dy="0.70710678118655"/>      <feGaussianBlur result="blurOut" in="offOut" stdDeviation="3.3"/>      <feBlend in="SourceGraphic" in2="blurOut" mode="normal"/>      <feFlood flood-color="#000" flood-opacity="1" result="offsetColor"/>      <feComposite in="offsetColor" in2="blurOut" operator="in" result="colorOut"/>      <feComponentTransfer>        <feFuncA type="linear" slope="0.75"/>      </feComponentTransfer>      <feMerge>        <feMergeNode/>        <feMergeNode in="SourceGraphic"/>      </feMerge>    </filter>    <filter id="shadow_11458" x="0" y="0" width="200%" height="200%">      <feOffset result="offOut" in="SourceAlpha" dx="0.70710678118655" dy="0.70710678118655"/>      <feGaussianBlur result="blurOut" in="offOut" stdDeviation="3.3"/>      <feBlend in="SourceGraphic" in2="blurOut" mode="normal"/>      <feFlood flood-color="#000" flood-opacity="1" result="offsetColor"/>      <feComposite in="offsetColor" in2="blurOut" operator="in" result="colorOut"/>      <feComponentTransfer>        <feFuncA type="linear" slope="0.75"/>      </feComponentTransfer>      <feMerge>        <feMergeNode/>        <feMergeNode in="SourceGraphic"/>      </feMerge>    </filter>    <filter id="shadow_11457" x="0" y="0" width="200%" height="200%">      <feOffset result="offOut" in="SourceAlpha" dx="0.70710678118655" dy="0.70710678118655"/>      <feGaussianBlur result="blurOut" in="offOut" stdDeviation="3.3"/>      <feBlend in="SourceGraphic" in2="blurOut" mode="normal"/>      <feFlood flood-color="#000" flood-opacity="1" result="offsetColor"/>      <feComposite in="offsetColor" in2="blurOut" operator="in" result="colorOut"/>      <feComponentTransfer>        <feFuncA type="linear" slope="0.75"/>      </feComponentTransfer>      <feMerge>        <feMergeNode/>        <feMergeNode in="SourceGraphic"/>      </feMerge>    </filter>    <filter id="shadow_11456" x="0" y="0" width="200%" height="200%">      <feOffset result="offOut" in="SourceAlpha" dx="0.70710678118655" dy="0.70710678118655"/>      <feGaussianBlur result="blurOut" in="offOut" stdDeviation="3.3"/>      <feBlend in="SourceGraphic" in2="blurOut" mode="normal"/>      <feFlood flood-color="#000" flood-opacity="1" result="offsetColor"/>      <feComposite in="offsetColor" in2="blurOut" operator="in" result="colorOut"/>      <feComponentTransfer>        <feFuncA type="linear" slope="0.75"/>      </feComponentTransfer>      <feMerge>        <feMergeNode/>        <feMergeNode in="SourceGraphic"/>      </feMerge>    </filter>    <filter id="shadow_11455" x="0" y="0" width="200%" height="200%">      <feOffset result="offOut" in="SourceAlpha" dx="0.70710678118655" dy="0.70710678118655"/>      <feGaussianBlur result="blurOut" in="offOut" stdDeviation="3.3"/>      <feBlend in="SourceGraphic" in2="blurOut" mode="normal"/>      <feFlood flood-color="#000" flood-opacity="1" result="offsetColor"/>      <feComposite in="offsetColor" in2="blurOut" operator="in" result="colorOut"/>      <feComponentTransfer>        <feFuncA type="linear" slope="0.75"/>      </feComponentTransfer>      <feMerge>        <feMergeNode/>        <feMergeNode in="SourceGraphic"/>      </feMerge>    </filter>  </defs>  <g id="Polygon11459">    <path d="M 7.6 107.8 C 7.2 108.6 6.3 109.3 4.6 109.3 C 2.4 109.3 0.7 107.5 0.7 105.1 C 0.7 105.1 0.7 105.1 0.7 105.1 C 0.7 102.3 2.8 100.7 4.8 100.7 C 6.7 100.7 7.4 101.7 7.6 102.1 C 7.6 101.6 7.6 101.2 7.7 100.9 C 7.7 100.9 9.2 100.9 9.2 100.9 C 9.2 101.6 9.1 102.5 9.1 103.2 C 9.14 103.22 9.1 112.6 9.1 112.6 L 7.6 112.6 C 7.6 112.6 7.62 107.8 7.6 107.8 Z M 2.3 105 C 2.3 105 2.3 105 2.3 105 C 2.3 106.7 3.3 108 4.9 108 C 6.7 108 7.7 106.9 7.7 105 C 7.7 105 7.7 105 7.7 105 C 7.7 103.2 6.9 102 5 102 C 3.2 102 2.3 103.4 2.3 105 Z M 19.4 106.7 C 19.4 107.5 19.4 108.3 19.4 109 C 19.4 109 17.9 109 17.9 109 C 17.9 108.8 17.9 108.2 17.9 107.7 C 17.5 108.6 16.7 109.3 15 109.3 C 13.2 109.3 11.9 108.3 11.9 106 C 11.92 105.97 11.9 100.9 11.9 100.9 L 13.4 100.9 C 13.4 100.9 13.44 105.69 13.4 105.7 C 13.4 106.9 13.9 108 15.4 108 C 17.1 108 17.9 107 17.9 104.6 C 17.86 104.6 17.9 100.9 17.9 100.9 L 19.4 100.9 C 19.4 100.9 19.38 106.68 19.4 106.7 Z M 22.2 100.9 L 23.7 100.9 L 23.7 109 L 22.2 109 L 22.2 100.9 Z M 22.2 97 L 23.7 97 L 23.7 98.8 L 22.2 98.8 L 22.2 97 Z M 35.2 109 L 35.2 102.1 L 33.7 102.1 L 33.7 100.9 L 35.2 100.9 C 35.2 100.9 35.24 99.85 35.2 99.9 C 35.2 98 36 96.9 37.9 96.9 C 38.3 96.9 38.7 96.9 38.9 97 C 38.9 97 38.9 98.2 38.9 98.2 C 38.7 98.2 38.4 98.2 38.2 98.2 C 37.1 98.2 36.8 98.6 36.8 99.9 C 36.76 99.93 36.8 100.9 36.8 100.9 L 38.7 100.9 L 38.7 102.1 L 36.8 102.1 L 36.8 109 L 35.2 109 Z M 48.3 105 C 48.3 105 48.3 105 48.3 105 C 48.3 107.2 46.8 109.3 43.9 109.3 C 41.2 109.3 39.7 107.2 39.7 105 C 39.7 105 39.7 105 39.7 105 C 39.7 102.7 41.3 100.7 44 100.7 C 46.8 100.7 48.3 102.8 48.3 105 Z M 41.2 105 C 41.2 105 41.2 105 41.2 105 C 41.2 106.5 42.2 108 44 108 C 45.8 108 46.7 106.6 46.7 105 C 46.7 105 46.7 105 46.7 105 C 46.7 103.4 45.8 102 44 102 C 42.1 102 41.2 103.4 41.2 105 Z M 50.6 103 C 50.6 102.3 50.6 101.5 50.6 100.9 C 50.6 100.9 52.1 100.9 52.1 100.9 C 52.1 101.2 52.1 101.9 52.1 102.4 C 52.5 101.7 53.3 100.7 55 100.7 C 56.9 100.7 58.2 101.9 58.2 104.1 C 58.18 104.11 58.2 109 58.2 109 L 56.6 109 C 56.6 109 56.64 104.38 56.6 104.4 C 56.6 103.1 56.1 102 54.6 102 C 52.9 102 52.1 103.3 52.1 105.2 C 52.12 105.16 52.1 109 52.1 109 L 50.6 109 C 50.6 109 50.59 102.98 50.6 103 Z M 59.9 100.9 L 61.5 100.9 L 61.5 98.3 L 63 98.3 L 63 100.9 L 65.1 100.9 L 65.1 102.1 L 63 102.1 C 63 102.1 62.99 106.57 63 106.6 C 63 107.5 63.2 107.9 64.1 107.9 C 64.3 107.9 64.7 107.9 64.9 107.8 C 64.9 107.8 64.9 109 64.9 109 C 64.5 109.1 64.1 109.1 63.6 109.1 C 62 109.1 61.5 108.4 61.5 106.8 C 61.46 106.77 61.5 102.1 61.5 102.1 L 59.9 102.1 L 59.9 100.9 Z M 83.1 97 C 83.1 97 83.12 106.69 83.1 106.7 C 83.1 107.5 83.1 108.3 83.1 109 C 83.1 109 81.7 109 81.7 109 C 81.6 108.7 81.6 108.2 81.6 107.8 C 81.2 108.5 80.5 109.3 78.6 109.3 C 76.3 109.3 74.7 107.5 74.7 105.1 C 74.7 105.1 74.7 105.1 74.7 105.1 C 74.7 102.4 76.7 100.7 78.8 100.7 C 80.7 100.7 81.4 101.6 81.6 102 C 81.6 101.96 81.6 97 81.6 97 L 83.1 97 Z M 76.3 105 C 76.3 105 76.3 105 76.3 105 C 76.3 106.5 77.2 108 78.9 108 C 80.9 108 81.7 106.8 81.7 105 C 81.7 105 81.7 105 81.7 105 C 81.7 103.2 81 102 79 102 C 77.2 102 76.3 103.5 76.3 105 Z M 93.4 106.7 C 93.4 107.5 93.4 108.3 93.4 109 C 93.4 109 91.9 109 91.9 109 C 91.9 108.8 91.8 108.2 91.8 107.7 C 91.4 108.6 90.7 109.3 88.9 109.3 C 87.2 109.3 85.9 108.3 85.9 106 C 85.89 105.97 85.9 100.9 85.9 100.9 L 87.4 100.9 C 87.4 100.9 87.41 105.69 87.4 105.7 C 87.4 106.9 87.9 108 89.3 108 C 91.1 108 91.8 107 91.8 104.6 C 91.84 104.6 91.8 100.9 91.8 100.9 L 93.4 100.9 C 93.4 100.9 93.36 106.68 93.4 106.7 Z M 105.2 106.6 C 105.2 106.6 105.19 106.59 105.2 106.6 C 105.5 107.5 106.3 108.1 107.8 108.1 C 109.3 108.1 109.9 107.6 109.9 106.8 C 109.9 106.2 109.5 105.7 107.4 105.5 C 104.6 105.1 104 104.1 104 103.1 C 104 102.1 104.9 100.7 107.5 100.7 C 110.3 100.7 111 102.2 111.1 103.1 C 111.13 103.14 111.1 103.1 111.1 103.1 L 109.6 103.1 C 109.6 103.1 109.6 103.14 109.6 103.1 C 109.5 102.6 109.1 101.9 107.4 101.9 C 105.9 101.9 105.6 102.5 105.6 103 C 105.6 103.6 105.9 103.9 107.8 104.2 C 110.8 104.6 111.4 105.5 111.4 106.7 C 111.4 108.2 110.3 109.3 107.7 109.3 C 105.3 109.3 103.9 108.3 103.7 106.6 C 103.66 106.59 103.7 106.6 103.7 106.6 L 105.2 106.6 Z M 115.2 107.8 C 115.21 107.84 115.2 112.6 115.2 112.6 L 113.7 112.6 C 113.7 112.6 113.69 102.96 113.7 103 C 113.7 102.3 113.7 101.6 113.7 100.9 C 113.7 100.9 115.2 100.9 115.2 100.9 C 115.2 101.2 115.2 101.7 115.2 102.3 C 115.7 101.5 116.6 100.7 118.3 100.7 C 120.5 100.7 122.1 102.5 122.1 104.9 C 122.1 104.9 122.1 104.9 122.1 104.9 C 122.1 107.5 120.3 109.3 118.1 109.3 C 116.4 109.3 115.7 108.5 115.2 107.8 Z M 120.5 104.9 C 120.5 104.9 120.5 104.9 120.5 104.9 C 120.5 103.5 119.7 102 117.9 102 C 116 102 115.2 103.3 115.2 105 C 115.2 105 115.2 105 115.2 105 C 115.2 106.7 116.1 108 117.8 108 C 119.6 108 120.5 106.5 120.5 104.9 Z M 132.6 105 C 132.6 105 132.6 105 132.6 105 C 132.6 107.2 131.1 109.3 128.2 109.3 C 125.4 109.3 123.9 107.2 123.9 105 C 123.9 105 123.9 105 123.9 105 C 123.9 102.7 125.5 100.7 128.3 100.7 C 131.1 100.7 132.6 102.8 132.6 105 Z M 125.5 105 C 125.5 105 125.5 105 125.5 105 C 125.5 106.5 126.5 108 128.2 108 C 130.1 108 131 106.6 131 105 C 131 105 131 105 131 105 C 131 103.4 130 102 128.2 102 C 126.4 102 125.5 103.4 125.5 105 Z M 134.8 103.1 C 134.8 102.4 134.8 101.7 134.8 100.9 C 134.8 100.9 136.3 100.9 136.3 100.9 C 136.3 101.2 136.4 102 136.4 102.8 C 136.9 101.5 138.1 100.7 139.6 100.7 C 139.6 100.7 139.6 102.2 139.6 102.2 C 137.8 102.2 136.4 103.3 136.4 105.7 C 136.37 105.66 136.4 109 136.4 109 L 134.8 109 C 134.8 109 134.85 103.14 134.8 103.1 Z M 141.1 100.9 L 142.7 100.9 L 142.7 98.3 L 144.2 98.3 L 144.2 100.9 L 146.3 100.9 L 146.3 102.1 L 144.2 102.1 C 144.2 102.1 144.2 106.57 144.2 106.6 C 144.2 107.5 144.4 107.9 145.3 107.9 C 145.6 107.9 145.9 107.9 146.1 107.8 C 146.1 107.8 146.1 109 146.1 109 C 145.7 109.1 145.3 109.1 144.9 109.1 C 143.2 109.1 142.7 108.4 142.7 106.8 C 142.67 106.77 142.7 102.1 142.7 102.1 L 141.1 102.1 L 141.1 100.9 Z M 156.5 103.1 C 156.5 102.4 156.5 101.7 156.5 100.9 C 156.5 100.9 158 100.9 158 100.9 C 158 101.2 158 102 158 102.8 C 158.6 101.5 159.7 100.7 161.3 100.7 C 161.3 100.7 161.3 102.2 161.3 102.2 C 159.4 102.2 158 103.3 158 105.7 C 158.03 105.66 158 109 158 109 L 156.5 109 C 156.5 109 156.51 103.14 156.5 103.1 Z M 164 105.3 C 164 105.3 163.99 105.34 164 105.3 C 164.1 106.9 165.1 108 166.8 108 C 168 108 168.7 107.5 169.2 106.7 C 169.17 106.74 169.2 106.7 169.2 106.7 L 170.7 106.7 C 170.7 106.7 170.69 106.74 170.7 106.7 C 170.3 107.9 169.1 109.3 166.7 109.3 C 163.8 109.3 162.5 107.1 162.5 105 C 162.5 105 162.5 105 162.5 105 C 162.5 102.6 164.1 100.7 166.6 100.7 C 169.7 100.7 170.8 103 170.8 104.9 C 170.8 105.1 170.8 105.2 170.8 105.3 C 170.8 105.34 164 105.3 164 105.3 Z M 169.2 104.3 C 169.2 104.3 169.22 104.26 169.2 104.3 C 169.2 103.3 168.6 101.9 166.6 101.9 C 165 101.9 164.2 102.9 164 104.3 C 164.03 104.26 164 104.3 164 104.3 L 169.2 104.3 Z M 169.5 96.8 L 166.9 99.4 L 165.5 99.4 L 167.7 96.8 L 169.5 96.8 Z M 181 108 C 181 111 180 112.8 176.7 112.8 C 173.5 112.8 172.8 111 172.7 110 C 172.69 110.03 172.7 110 172.7 110 L 174.2 110 C 174.2 110 174.24 110.03 174.2 110 C 174.5 110.9 175.1 111.6 176.8 111.6 C 179.1 111.6 179.5 110.1 179.5 108.1 C 179.5 108.1 179.5 107.6 179.5 107.6 C 179 108.6 178.2 109.2 176.5 109.2 C 174.2 109.2 172.6 107.4 172.6 105.1 C 172.6 105.1 172.6 105.1 172.6 105.1 C 172.6 102.5 174.5 100.7 176.7 100.7 C 178.5 100.7 179.3 101.6 179.5 102.2 C 179.5 101.8 179.5 101.2 179.6 100.9 C 179.6 100.9 181 100.9 181 100.9 C 181 101.7 181 102.5 181 103.3 C 181 103.3 181 108 181 108 Z M 174.2 105 C 174.2 105 174.2 105 174.2 105 C 174.2 106.7 175.3 107.9 176.8 107.9 C 178.5 107.9 179.6 106.8 179.6 104.9 C 179.6 104.9 179.6 104.9 179.6 104.9 C 179.6 103.1 178.6 102 176.9 102 C 175 102 174.2 103.5 174.2 105 Z M 191.3 106.7 C 191.3 107.5 191.3 108.3 191.3 109 C 191.3 109 189.8 109 189.8 109 C 189.8 108.8 189.7 108.2 189.7 107.7 C 189.3 108.6 188.6 109.3 186.8 109.3 C 185.1 109.3 183.8 108.3 183.8 106 C 183.79 105.97 183.8 100.9 183.8 100.9 L 185.3 100.9 C 185.3 100.9 185.31 105.69 185.3 105.7 C 185.3 106.9 185.8 108 187.2 108 C 189 108 189.7 107 189.7 104.6 C 189.73 104.6 189.7 100.9 189.7 100.9 L 191.3 100.9 C 191.3 100.9 191.26 106.68 191.3 106.7 Z M 194.1 109 L 194.1 97 L 195.6 97 L 195.6 109 L 194.1 109 Z M 198.4 100.9 L 199.9 100.9 L 199.9 109 L 198.4 109 L 198.4 100.9 Z M 198.4 97 L 199.9 97 L 199.9 98.8 L 198.4 98.8 L 198.4 97 Z M 203.7 105.3 C 203.7 105.3 203.71 105.34 203.7 105.3 C 203.8 106.9 204.8 108 206.5 108 C 207.8 108 208.4 107.5 208.9 106.7 C 208.88 106.74 208.9 106.7 208.9 106.7 L 210.4 106.7 C 210.4 106.7 210.41 106.74 210.4 106.7 C 210 107.9 208.8 109.3 206.4 109.3 C 203.5 109.3 202.2 107.1 202.2 105 C 202.2 105 202.2 105 202.2 105 C 202.2 102.6 203.8 100.7 206.4 100.7 C 209.4 100.7 210.5 103 210.5 104.9 C 210.5 105.1 210.5 105.2 210.5 105.3 C 210.52 105.34 203.7 105.3 203.7 105.3 Z M 208.9 104.3 C 208.9 104.3 208.94 104.26 208.9 104.3 C 208.9 103.3 208.4 101.9 206.4 101.9 C 204.7 101.9 203.9 102.9 203.7 104.3 C 203.74 104.26 203.7 104.3 203.7 104.3 L 208.9 104.3 Z M 205.2 96.8 L 207.5 99.4 L 206 99.4 L 203.4 96.8 L 205.2 96.8 Z M 212.8 103.1 C 212.8 102.4 212.8 101.7 212.8 100.9 C 212.8 100.9 214.3 100.9 214.3 100.9 C 214.3 101.2 214.3 102 214.3 102.8 C 214.9 101.5 216 100.7 217.6 100.7 C 217.6 100.7 217.6 102.2 217.6 102.2 C 215.7 102.2 214.3 103.3 214.3 105.7 C 214.33 105.66 214.3 109 214.3 109 L 212.8 109 C 212.8 109 212.81 103.14 212.8 103.1 Z M 220.3 105.3 C 220.3 105.3 220.29 105.34 220.3 105.3 C 220.4 106.9 221.4 108 223.1 108 C 224.3 108 225 107.5 225.5 106.7 C 225.46 106.74 225.5 106.7 225.5 106.7 L 227 106.7 C 227 106.7 226.98 106.74 227 106.7 C 226.5 107.9 225.4 109.3 223 109.3 C 220.1 109.3 218.8 107.1 218.8 105 C 218.8 105 218.8 105 218.8 105 C 218.8 102.6 220.4 100.7 222.9 100.7 C 226 100.7 227.1 103 227.1 104.9 C 227.1 105.1 227.1 105.2 227.1 105.3 C 227.1 105.34 220.3 105.3 220.3 105.3 Z M 225.5 104.3 C 225.5 104.3 225.52 104.26 225.5 104.3 C 225.4 103.3 224.9 101.9 222.9 101.9 C 221.3 101.9 220.5 102.9 220.3 104.3 C 220.32 104.26 220.3 104.3 220.3 104.3 L 225.5 104.3 Z M 229.4 103 C 229.4 102.3 229.4 101.6 229.4 100.9 C 229.4 100.9 230.8 100.9 230.8 100.9 C 230.9 101.3 230.9 101.7 230.9 102.2 C 231.3 101.5 232.1 100.7 233.5 100.7 C 234.8 100.7 235.6 101.4 236 102.3 C 236.4 101.6 237.2 100.7 238.8 100.7 C 240.4 100.7 241.7 101.6 241.7 104 C 241.66 104.04 241.7 109 241.7 109 L 240.2 109 C 240.2 109 240.16 104.09 240.2 104.1 C 240.2 103.1 239.9 102 238.4 102 C 237.1 102 236.3 102.9 236.3 104.6 C 236.28 104.6 236.3 109 236.3 109 L 234.8 109 C 234.8 109 234.77 104.02 234.8 104 C 234.8 103.1 234.4 102 233 102 C 231.5 102 230.9 103.2 230.9 104.7 C 230.89 104.71 230.9 109 230.9 109 L 229.4 109 C 229.4 109 229.38 103.03 229.4 103 Z M 245.5 105.3 C 245.5 105.3 245.51 105.34 245.5 105.3 C 245.6 106.9 246.6 108 248.3 108 C 249.5 108 250.2 107.5 250.7 106.7 C 250.68 106.74 250.7 106.7 250.7 106.7 L 252.2 106.7 C 252.2 106.7 252.2 106.74 252.2 106.7 C 251.8 107.9 250.6 109.3 248.2 109.3 C 245.3 109.3 244 107.1 244 105 C 244 105 244 105 244 105 C 244 102.6 245.6 100.7 248.2 100.7 C 251.2 100.7 252.3 103 252.3 104.9 C 252.3 105.1 252.3 105.2 252.3 105.3 C 252.31 105.34 245.5 105.3 245.5 105.3 Z M 250.7 104.3 C 250.7 104.3 250.73 104.26 250.7 104.3 C 250.7 103.3 250.2 101.9 248.2 101.9 C 246.5 101.9 245.7 102.9 245.5 104.3 C 245.54 104.26 245.5 104.3 245.5 104.3 L 250.7 104.3 Z M 254.6 103 C 254.6 102.3 254.6 101.5 254.6 100.9 C 254.6 100.9 256.1 100.9 256.1 100.9 C 256.1 101.2 256.1 101.9 256.1 102.4 C 256.5 101.7 257.3 100.7 259.1 100.7 C 261 100.7 262.2 101.9 262.2 104.1 C 262.18 104.11 262.2 109 262.2 109 L 260.7 109 C 260.7 109 260.65 104.38 260.7 104.4 C 260.7 103.1 260.1 102 258.6 102 C 257 102 256.1 103.3 256.1 105.2 C 256.12 105.16 256.1 109 256.1 109 L 254.6 109 C 254.6 109 254.6 102.98 254.6 103 Z M 263.9 100.9 L 265.5 100.9 L 265.5 98.3 L 267 98.3 L 267 100.9 L 269.1 100.9 L 269.1 102.1 L 267 102.1 C 267 102.1 267 106.57 267 106.6 C 267 107.5 267.2 107.9 268.1 107.9 C 268.3 107.9 268.7 107.9 268.9 107.8 C 268.9 107.8 268.9 109 268.9 109 C 268.5 109.1 268.1 109.1 267.7 109.1 C 266 109.1 265.5 108.4 265.5 106.8 C 265.47 106.77 265.5 102.1 265.5 102.1 L 263.9 102.1 L 263.9 100.9 Z M 270.9 109 L 270.9 106.4 L 272.6 106.4 L 272.6 109 L 270.9 109 Z " stroke="none" fill="#fafafa" filter="url(#shadow_11459)"/>  </g>  <g id="Polygon11458">    <path d="M 9.1 72.7 C 9.1 72.7 9.12 82.37 9.1 82.4 C 9.1 83.1 9.1 83.9 9.1 84.7 C 9.1 84.7 7.7 84.7 7.7 84.7 C 7.6 84.4 7.6 83.9 7.6 83.5 C 7.2 84.2 6.5 84.9 4.6 84.9 C 2.3 84.9 0.7 83.2 0.7 80.7 C 0.7 80.7 0.7 80.7 0.7 80.7 C 0.7 78.1 2.7 76.4 4.8 76.4 C 6.7 76.4 7.4 77.3 7.6 77.6 C 7.59 77.64 7.6 72.7 7.6 72.7 L 9.1 72.7 Z M 2.3 80.7 C 2.3 80.7 2.3 80.7 2.3 80.7 C 2.3 82.2 3.2 83.7 4.9 83.7 C 6.9 83.7 7.7 82.4 7.7 80.6 C 7.7 80.6 7.7 80.6 7.7 80.6 C 7.7 78.9 7 77.7 5 77.7 C 3.2 77.7 2.3 79.2 2.3 80.7 Z M 12.9 81 C 12.9 81 12.94 81.02 12.9 81 C 13 82.6 14.1 83.7 15.7 83.7 C 17 83.7 17.7 83.2 18.1 82.4 C 18.12 82.42 18.1 82.4 18.1 82.4 L 19.6 82.4 C 19.6 82.4 19.64 82.42 19.6 82.4 C 19.2 83.6 18.1 84.9 15.6 84.9 C 12.7 84.9 11.4 82.8 11.4 80.7 C 11.4 80.7 11.4 80.7 11.4 80.7 C 11.4 78.3 13 76.4 15.6 76.4 C 18.7 76.4 19.8 78.6 19.8 80.6 C 19.8 80.8 19.8 80.9 19.7 81 C 19.75 81.02 12.9 81 12.9 81 Z M 18.2 79.9 C 18.2 79.9 18.17 79.94 18.2 79.9 C 18.1 79 17.6 77.6 15.6 77.6 C 13.9 77.6 13.1 78.6 13 79.9 C 12.97 79.94 13 79.9 13 79.9 L 18.2 79.9 Z M 18.5 72.5 L 15.8 75.1 L 14.4 75.1 L 16.6 72.5 L 18.5 72.5 Z M 22 72.7 L 23.6 72.7 C 23.6 72.7 23.55 77.87 23.6 77.9 C 24 77.2 24.8 76.4 26.6 76.4 C 28.8 76.4 30.5 78.2 30.5 80.5 C 30.5 80.5 30.5 80.5 30.5 80.5 C 30.5 83.2 28.8 84.9 26.5 84.9 C 24.7 84.9 23.9 84.2 23.5 83.5 C 23.5 83.9 23.5 84.4 23.5 84.7 C 23.5 84.7 22 84.7 22 84.7 C 22 83.7 22 82.9 22 81.9 C 22.03 81.94 22 72.7 22 72.7 Z M 28.9 80.6 C 28.9 80.6 28.9 80.6 28.9 80.6 C 28.9 79.2 28.1 77.7 26.2 77.7 C 24.4 77.7 23.5 79 23.5 80.7 C 23.5 80.7 23.5 80.7 23.5 80.7 C 23.5 82.5 24.5 83.7 26.2 83.7 C 28.1 83.7 28.9 82.2 28.9 80.6 Z M 40.2 82.4 C 40.2 83.1 40.2 83.9 40.2 84.7 C 40.2 84.7 38.8 84.7 38.8 84.7 C 38.7 84.5 38.7 83.9 38.7 83.4 C 38.3 84.3 37.6 84.9 35.8 84.9 C 34.1 84.9 32.8 84 32.8 81.6 C 32.76 81.65 32.8 76.6 32.8 76.6 L 34.3 76.6 C 34.3 76.6 34.28 81.37 34.3 81.4 C 34.3 82.6 34.8 83.7 36.2 83.7 C 38 83.7 38.7 82.6 38.7 80.3 C 38.7 80.28 38.7 76.6 38.7 76.6 L 40.2 76.6 C 40.2 76.6 40.22 82.36 40.2 82.4 Z M 42.1 76.6 L 43.7 76.6 L 43.7 74 L 45.2 74 L 45.2 76.6 L 47.4 76.6 L 47.4 77.8 L 45.2 77.8 C 45.2 77.8 45.24 82.25 45.2 82.3 C 45.2 83.2 45.5 83.6 46.4 83.6 C 46.6 83.6 46.9 83.6 47.2 83.5 C 47.2 83.5 47.2 84.6 47.2 84.6 C 46.8 84.8 46.4 84.8 45.9 84.8 C 44.2 84.8 43.7 84 43.7 82.5 C 43.71 82.45 43.7 77.8 43.7 77.8 L 42.1 77.8 L 42.1 76.6 Z M 65 82.7 C 65 83.5 65 84.5 65 84.7 C 65 84.7 63.6 84.7 63.6 84.7 C 63.5 84.4 63.5 83.8 63.5 83.5 C 63.1 84.4 62.2 84.9 60.4 84.9 C 58.1 84.9 57.3 83.6 57.3 82.3 C 57.3 82.3 57.3 82.3 57.3 82.3 C 57.3 80.3 59.2 79.7 61.5 79.7 C 62.5 79.7 63.2 79.7 63.5 79.7 C 63.5 79.7 63.5 79.3 63.5 79.3 C 63.5 78.4 63.1 77.6 61.4 77.6 C 59.8 77.6 59.5 78.2 59.3 79 C 59.29 78.98 59.3 79 59.3 79 L 57.8 79 C 57.8 79 57.77 78.98 57.8 79 C 57.9 77.9 58.6 76.4 61.4 76.4 C 64.3 76.4 65 77.8 65 79.2 C 65 79.2 65 82.7 65 82.7 Z M 63.5 80.8 C 63.2 80.8 62.7 80.8 61.5 80.8 C 59.7 80.8 58.8 81.2 58.8 82.3 C 58.8 82.3 58.8 82.3 58.8 82.3 C 58.8 83.1 59.4 83.7 60.7 83.7 C 62.9 83.7 63.5 82.5 63.5 81.1 C 63.5 81.1 63.5 80.8 63.5 80.8 Z M 68.2 84.7 L 68.2 77.8 L 66.7 77.8 L 66.7 76.6 L 68.2 76.6 C 68.2 76.6 68.24 75.53 68.2 75.5 C 68.2 73.7 69 72.6 70.9 72.6 C 71.3 72.6 71.7 72.6 71.9 72.7 C 71.9 72.7 71.9 73.9 71.9 73.9 C 71.7 73.9 71.4 73.8 71.2 73.8 C 70.1 73.8 69.8 74.3 69.8 75.6 C 69.76 75.61 69.8 76.6 69.8 76.6 L 71.7 76.6 L 71.7 77.8 L 69.8 77.8 L 69.8 84.7 L 68.2 84.7 Z M 74.5 84.7 L 74.5 77.8 L 73 77.8 L 73 76.6 L 74.5 76.6 C 74.5 76.6 74.47 75.53 74.5 75.5 C 74.5 73.7 75.3 72.6 77.2 72.6 C 77.6 72.6 77.9 72.6 78.1 72.7 C 78.1 72.7 78.1 73.9 78.1 73.9 C 77.9 73.9 77.6 73.8 77.4 73.8 C 76.3 73.8 76 74.3 76 75.6 C 76 75.61 76 76.6 76 76.6 L 77.9 76.6 L 77.9 77.8 L 76 77.8 L 76 84.7 L 74.5 84.7 Z M 79.9 76.6 L 81.4 76.6 L 81.4 84.7 L 79.9 84.7 L 79.9 76.6 Z M 79.9 72.7 L 81.4 72.7 L 81.4 74.5 L 79.9 74.5 L 79.9 72.7 Z M 91.9 82.2 C 91.9 82.2 91.91 82.19 91.9 82.2 C 91.5 83.7 90.2 84.9 87.9 84.9 C 85.1 84.9 83.7 83 83.7 80.7 C 83.7 80.7 83.7 80.7 83.7 80.7 C 83.7 78.4 85.2 76.4 88 76.4 C 90.7 76.4 91.7 78.1 91.9 79.2 C 91.89 79.21 91.9 79.2 91.9 79.2 L 90.4 79.2 C 90.4 79.2 90.37 79.21 90.4 79.2 C 90.1 78.5 89.5 77.6 87.9 77.6 C 86.2 77.6 85.2 78.9 85.2 80.7 C 85.2 80.7 85.2 80.7 85.2 80.7 C 85.2 82.4 86.2 83.7 88 83.7 C 89.3 83.7 90 83.1 90.4 82.2 C 90.39 82.19 90.4 82.2 90.4 82.2 L 91.9 82.2 Z M 95.7 72.7 C 95.7 72.7 95.66 78.08 95.7 78.1 C 95.9 77.5 96.7 76.4 98.7 76.4 C 100.5 76.4 101.7 77.5 101.7 79.8 C 101.72 79.83 101.7 84.7 101.7 84.7 L 100.2 84.7 C 100.2 84.7 100.19 80.06 100.2 80.1 C 100.2 78.7 99.7 77.7 98.2 77.7 C 96.5 77.7 95.7 79 95.7 80.7 C 95.66 80.74 95.7 84.7 95.7 84.7 L 94.1 84.7 L 94.1 72.7 L 95.7 72.7 Z M 105.5 81 C 105.5 81 105.52 81.02 105.5 81 C 105.6 82.6 106.7 83.7 108.3 83.7 C 109.6 83.7 110.3 83.2 110.7 82.4 C 110.69 82.42 110.7 82.4 110.7 82.4 L 112.2 82.4 C 112.2 82.4 112.21 82.42 112.2 82.4 C 111.8 83.6 110.6 84.9 108.2 84.9 C 105.3 84.9 104 82.8 104 80.7 C 104 80.7 104 80.7 104 80.7 C 104 78.3 105.6 76.4 108.2 76.4 C 111.2 76.4 112.3 78.6 112.3 80.6 C 112.3 80.8 112.3 80.9 112.3 81 C 112.33 81.02 105.5 81 105.5 81 Z M 110.7 79.9 C 110.7 79.9 110.75 79.94 110.7 79.9 C 110.7 79 110.2 77.6 108.2 77.6 C 106.5 77.6 105.7 78.6 105.6 79.9 C 105.55 79.94 105.6 79.9 105.6 79.9 L 110.7 79.9 Z M 114.6 78.8 C 114.6 78.1 114.6 77.4 114.6 76.6 C 114.6 76.6 116.1 76.6 116.1 76.6 C 116.1 76.9 116.1 77.7 116.1 78.4 C 116.7 77.2 117.8 76.4 119.4 76.4 C 119.4 76.4 119.4 77.9 119.4 77.9 C 117.6 77.8 116.1 79 116.1 81.3 C 116.14 81.34 116.1 84.7 116.1 84.7 L 114.6 84.7 C 114.6 84.7 114.61 78.82 114.6 78.8 Z M 128.3 82.7 C 128.3 83.5 128.4 84.5 128.4 84.7 C 128.4 84.7 126.9 84.7 126.9 84.7 C 126.9 84.4 126.8 83.8 126.8 83.5 C 126.4 84.4 125.5 84.9 123.8 84.9 C 121.5 84.9 120.6 83.6 120.6 82.3 C 120.6 82.3 120.6 82.3 120.6 82.3 C 120.6 80.3 122.5 79.7 124.8 79.7 C 125.8 79.7 126.5 79.7 126.8 79.7 C 126.8 79.7 126.8 79.3 126.8 79.3 C 126.8 78.4 126.4 77.6 124.7 77.6 C 123.2 77.6 122.8 78.2 122.6 79 C 122.64 78.98 122.6 79 122.6 79 L 121.1 79 C 121.1 79 121.11 78.98 121.1 79 C 121.2 77.9 121.9 76.4 124.7 76.4 C 127.7 76.4 128.3 77.8 128.3 79.2 C 128.3 79.2 128.3 82.7 128.3 82.7 Z M 126.8 80.8 C 126.6 80.8 126 80.8 124.9 80.8 C 123 80.8 122.2 81.2 122.2 82.3 C 122.2 82.3 122.2 82.3 122.2 82.3 C 122.2 83.1 122.7 83.7 124.1 83.7 C 126.2 83.7 126.8 82.5 126.8 81.1 C 126.8 81.1 126.8 80.8 126.8 80.8 Z M 140.6 81 C 140.6 81 140.63 81.02 140.6 81 C 140.7 82.6 141.8 83.7 143.4 83.7 C 144.7 83.7 145.4 83.2 145.8 82.4 C 145.81 82.42 145.8 82.4 145.8 82.4 L 147.3 82.4 C 147.3 82.4 147.33 82.42 147.3 82.4 C 146.9 83.6 145.7 84.9 143.3 84.9 C 140.4 84.9 139.1 82.8 139.1 80.7 C 139.1 80.7 139.1 80.7 139.1 80.7 C 139.1 78.3 140.7 76.4 143.3 76.4 C 146.4 76.4 147.4 78.6 147.4 80.6 C 147.4 80.8 147.4 80.9 147.4 81 C 147.44 81.02 140.6 81 140.6 81 Z M 145.9 79.9 C 145.9 79.9 145.86 79.94 145.9 79.9 C 145.8 79 145.3 77.6 143.3 77.6 C 141.6 77.6 140.8 78.6 140.7 79.9 C 140.67 79.94 140.7 79.9 140.7 79.9 L 145.9 79.9 Z M 146.1 72.5 L 143.5 75.1 L 142.1 75.1 L 144.3 72.5 L 146.1 72.5 Z M 157.7 83.7 C 157.7 86.7 156.7 88.5 153.3 88.5 C 150.1 88.5 149.5 86.7 149.3 85.7 C 149.33 85.71 149.3 85.7 149.3 85.7 L 150.9 85.7 C 150.9 85.7 150.88 85.71 150.9 85.7 C 151.1 86.5 151.7 87.3 153.4 87.3 C 155.8 87.3 156.2 85.7 156.2 83.7 C 156.2 83.7 156.2 83.3 156.2 83.3 C 155.7 84.2 154.8 84.9 153.1 84.9 C 150.8 84.9 149.2 83.1 149.2 80.8 C 149.2 80.8 149.2 80.8 149.2 80.8 C 149.2 78.2 151.1 76.4 153.3 76.4 C 155.2 76.4 155.9 77.2 156.2 77.9 C 156.2 77.5 156.2 76.8 156.2 76.6 C 156.2 76.6 157.7 76.6 157.7 76.6 C 157.7 77.4 157.7 78.2 157.7 79 C 157.7 79 157.7 83.7 157.7 83.7 Z M 150.8 80.7 C 150.8 80.7 150.8 80.7 150.8 80.7 C 150.8 82.4 151.9 83.6 153.5 83.6 C 155.2 83.6 156.2 82.5 156.2 80.6 C 156.2 80.6 156.2 80.6 156.2 80.6 C 156.2 78.7 155.2 77.7 153.6 77.7 C 151.7 77.7 150.8 79.2 150.8 80.7 Z M 167.6 82.7 C 167.6 83.5 167.7 84.5 167.7 84.7 C 167.7 84.7 166.3 84.7 166.3 84.7 C 166.2 84.4 166.2 83.8 166.2 83.5 C 165.7 84.4 164.8 84.9 163.1 84.9 C 160.8 84.9 160 83.6 160 82.3 C 160 82.3 160 82.3 160 82.3 C 160 80.3 161.9 79.7 164.2 79.7 C 165.1 79.7 165.9 79.7 166.1 79.7 C 166.1 79.7 166.1 79.3 166.1 79.3 C 166.1 78.4 165.8 77.6 164 77.6 C 162.5 77.6 162.1 78.2 162 79 C 161.96 78.98 162 79 162 79 L 160.4 79 C 160.4 79 160.44 78.98 160.4 79 C 160.5 77.9 161.3 76.4 164 76.4 C 167 76.4 167.6 77.8 167.6 79.2 C 167.6 79.2 167.6 82.7 167.6 82.7 Z M 166.1 80.8 C 165.9 80.8 165.3 80.8 164.2 80.8 C 162.3 80.8 161.5 81.2 161.5 82.3 C 161.5 82.3 161.5 82.3 161.5 82.3 C 161.5 83.1 162.1 83.7 163.4 83.7 C 165.6 83.7 166.1 82.5 166.1 81.1 C 166.1 81.1 166.1 80.8 166.1 80.8 Z M 170.4 84.7 L 170.4 72.7 L 171.9 72.7 L 171.9 84.7 L 170.4 84.7 Z M 175.8 81 C 175.8 81 175.78 81.02 175.8 81 C 175.9 82.6 176.9 83.7 178.6 83.7 C 179.8 83.7 180.5 83.2 181 82.4 C 180.95 82.42 181 82.4 181 82.4 L 182.5 82.4 C 182.5 82.4 182.47 82.42 182.5 82.4 C 182 83.6 180.9 84.9 178.5 84.9 C 175.6 84.9 174.2 82.8 174.2 80.7 C 174.2 80.7 174.2 80.7 174.2 80.7 C 174.2 78.3 175.9 76.4 178.4 76.4 C 181.5 76.4 182.6 78.6 182.6 80.6 C 182.6 80.8 182.6 80.9 182.6 81 C 182.58 81.02 175.8 81 175.8 81 Z M 181 79.9 C 181 79.9 181 79.94 181 79.9 C 180.9 79 180.4 77.6 178.4 77.6 C 176.8 77.6 175.9 78.6 175.8 79.9 C 175.81 79.94 175.8 79.9 175.8 79.9 L 181 79.9 Z M 184.9 78.7 C 184.9 78 184.9 77.3 184.9 76.6 C 184.9 76.6 186.3 76.6 186.3 76.6 C 186.4 77 186.4 77.4 186.4 77.8 C 186.8 77.1 187.6 76.4 189 76.4 C 190.3 76.4 191.1 77 191.5 77.9 C 191.9 77.2 192.7 76.4 194.3 76.4 C 195.9 76.4 197.2 77.3 197.2 79.7 C 197.15 79.72 197.2 84.7 197.2 84.7 L 195.6 84.7 C 195.6 84.7 195.64 79.77 195.6 79.8 C 195.6 78.8 195.3 77.7 193.9 77.7 C 192.6 77.7 191.8 78.5 191.8 80.3 C 191.77 80.28 191.8 84.7 191.8 84.7 L 190.3 84.7 C 190.3 84.7 190.26 79.7 190.3 79.7 C 190.3 78.7 189.9 77.7 188.5 77.7 C 187 77.7 186.4 78.9 186.4 80.4 C 186.38 80.39 186.4 84.7 186.4 84.7 L 184.9 84.7 C 184.9 84.7 184.87 78.71 184.9 78.7 Z M 201 81 C 201 81 200.99 81.02 201 81 C 201.1 82.6 202.1 83.7 203.8 83.7 C 205 83.7 205.7 83.2 206.2 82.4 C 206.17 82.42 206.2 82.4 206.2 82.4 L 207.7 82.4 C 207.7 82.4 207.69 82.42 207.7 82.4 C 207.3 83.6 206.1 84.9 203.7 84.9 C 200.8 84.9 199.5 82.8 199.5 80.7 C 199.5 80.7 199.5 80.7 199.5 80.7 C 199.5 78.3 201.1 76.4 203.7 76.4 C 206.7 76.4 207.8 78.6 207.8 80.6 C 207.8 80.8 207.8 80.9 207.8 81 C 207.8 81.02 201 81 201 81 Z M 206.2 79.9 C 206.2 79.9 206.22 79.94 206.2 79.9 C 206.2 79 205.6 77.6 203.6 77.6 C 202 77.6 201.2 78.6 201 79.9 C 201.03 79.94 201 79.9 201 79.9 L 206.2 79.9 Z M 210.1 78.7 C 210.1 78 210.1 77.2 210.1 76.6 C 210.1 76.6 211.5 76.6 211.5 76.6 C 211.6 76.9 211.6 77.6 211.6 78.1 C 212 77.3 212.8 76.4 214.5 76.4 C 216.4 76.4 217.7 77.6 217.7 79.8 C 217.67 79.79 217.7 84.7 217.7 84.7 L 216.1 84.7 C 216.1 84.7 216.14 80.06 216.1 80.1 C 216.1 78.7 215.6 77.7 214.1 77.7 C 212.4 77.7 211.6 79 211.6 80.8 C 211.61 80.84 211.6 84.7 211.6 84.7 L 210.1 84.7 C 210.1 84.7 210.09 78.66 210.1 78.7 Z M 219.3 76.6 L 221 76.6 L 221 74 L 222.5 74 L 222.5 76.6 L 224.6 76.6 L 224.6 77.8 L 222.5 77.8 C 222.5 77.8 222.48 82.25 222.5 82.3 C 222.5 83.2 222.7 83.6 223.6 83.6 C 223.8 83.6 224.2 83.6 224.4 83.5 C 224.4 83.5 224.4 84.6 224.4 84.6 C 224 84.8 223.6 84.8 223.1 84.8 C 221.5 84.8 221 84 221 82.5 C 220.96 82.45 221 77.8 221 77.8 L 219.3 77.8 L 219.3 76.6 Z M 242.7 82.2 C 242.7 82.2 242.75 82.19 242.7 82.2 C 242.4 83.7 241.1 84.9 238.8 84.9 C 235.9 84.9 234.5 83 234.5 80.7 C 234.5 80.7 234.5 80.7 234.5 80.7 C 234.5 78.4 236.1 76.4 238.8 76.4 C 241.5 76.4 242.6 78.1 242.7 79.2 C 242.73 79.21 242.7 79.2 242.7 79.2 L 241.2 79.2 C 241.2 79.2 241.21 79.21 241.2 79.2 C 240.9 78.5 240.3 77.6 238.8 77.6 C 237.1 77.6 236.1 78.9 236.1 80.7 C 236.1 80.7 236.1 80.7 236.1 80.7 C 236.1 82.4 237 83.7 238.8 83.7 C 240.1 83.7 240.8 83.1 241.2 82.2 C 241.23 82.19 241.2 82.2 241.2 82.2 L 242.7 82.2 Z M 246 81 C 246 81 245.99 81.02 246 81 C 246.1 82.6 247.1 83.7 248.8 83.7 C 250 83.7 250.7 83.2 251.2 82.4 C 251.16 82.42 251.2 82.4 251.2 82.4 L 252.7 82.4 C 252.7 82.4 252.68 82.42 252.7 82.4 C 252.2 83.6 251.1 84.9 248.7 84.9 C 245.8 84.9 244.5 82.8 244.5 80.7 C 244.5 80.7 244.5 80.7 244.5 80.7 C 244.5 78.3 246.1 76.4 248.6 76.4 C 251.7 76.4 252.8 78.6 252.8 80.6 C 252.8 80.8 252.8 80.9 252.8 81 C 252.8 81.02 246 81 246 81 Z M 251.2 79.9 C 251.2 79.9 251.21 79.94 251.2 79.9 C 251.1 79 250.6 77.6 248.6 77.6 C 247 77.6 246.2 78.6 246 79.9 C 246.02 79.94 246 79.9 246 79.9 L 251.2 79.9 Z M 254 76.6 L 255.6 76.6 L 255.6 74 L 257.1 74 L 257.1 76.6 L 259.2 76.6 L 259.2 77.8 L 257.1 77.8 C 257.1 77.8 257.1 82.25 257.1 82.3 C 257.1 83.2 257.3 83.6 258.2 83.6 C 258.5 83.6 258.8 83.6 259 83.5 C 259 83.5 259 84.6 259 84.6 C 258.7 84.8 258.2 84.8 257.8 84.8 C 256.1 84.8 255.6 84 255.6 82.5 C 255.57 82.45 255.6 77.8 255.6 77.8 L 254 77.8 L 254 76.6 Z M 260.7 76.6 L 262.3 76.6 L 262.3 74 L 263.8 74 L 263.8 76.6 L 265.9 76.6 L 265.9 77.8 L 263.8 77.8 C 263.8 77.8 263.83 82.25 263.8 82.3 C 263.8 83.2 264.1 83.6 265 83.6 C 265.2 83.6 265.5 83.6 265.7 83.5 C 265.7 83.5 265.7 84.6 265.7 84.6 C 265.4 84.8 265 84.8 264.5 84.8 C 262.8 84.8 262.3 84 262.3 82.5 C 262.31 82.45 262.3 77.8 262.3 77.8 L 260.7 77.8 L 260.7 76.6 Z M 268.7 81 C 268.7 81 268.69 81.02 268.7 81 C 268.8 82.6 269.8 83.7 271.5 83.7 C 272.7 83.7 273.4 83.2 273.9 82.4 C 273.87 82.42 273.9 82.4 273.9 82.4 L 275.4 82.4 C 275.4 82.4 275.39 82.42 275.4 82.4 C 275 83.6 273.8 84.9 271.4 84.9 C 268.5 84.9 267.2 82.8 267.2 80.7 C 267.2 80.7 267.2 80.7 267.2 80.7 C 267.2 78.3 268.8 76.4 271.3 76.4 C 274.4 76.4 275.5 78.6 275.5 80.6 C 275.5 80.8 275.5 80.9 275.5 81 C 275.5 81.02 268.7 81 268.7 81 Z M 273.9 79.9 C 273.9 79.9 273.92 79.94 273.9 79.9 C 273.9 79 273.3 77.6 271.3 77.6 C 269.7 77.6 268.9 78.6 268.7 79.9 C 268.73 79.94 268.7 79.9 268.7 79.9 L 273.9 79.9 Z M 286.2 72.7 L 287.8 72.7 C 287.8 72.7 287.76 77.87 287.8 77.9 C 288.2 77.2 289 76.4 290.8 76.4 C 293 76.4 294.7 78.2 294.7 80.5 C 294.7 80.5 294.7 80.5 294.7 80.5 C 294.7 83.2 293 84.9 290.7 84.9 C 288.9 84.9 288.1 84.2 287.7 83.5 C 287.7 83.9 287.7 84.4 287.7 84.7 C 287.7 84.7 286.2 84.7 286.2 84.7 C 286.2 83.7 286.2 82.9 286.2 81.9 C 286.24 81.94 286.2 72.7 286.2 72.7 Z M 293.1 80.6 C 293.1 80.6 293.1 80.6 293.1 80.6 C 293.1 79.2 292.3 77.7 290.4 77.7 C 288.6 77.7 287.7 79 287.7 80.7 C 287.7 80.7 287.7 80.7 287.7 80.7 C 287.7 82.5 288.8 83.7 290.4 83.7 C 292.3 83.7 293.1 82.2 293.1 80.6 Z M 298 81 C 298 81 298.02 81.02 298 81 C 298.1 82.6 299.1 83.7 300.8 83.7 C 302.1 83.7 302.8 83.2 303.2 82.4 C 303.19 82.42 303.2 82.4 303.2 82.4 L 304.7 82.4 C 304.7 82.4 304.71 82.42 304.7 82.4 C 304.3 83.6 303.1 84.9 300.7 84.9 C 297.8 84.9 296.5 82.8 296.5 80.7 C 296.5 80.7 296.5 80.7 296.5 80.7 C 296.5 78.3 298.1 76.4 300.7 76.4 C 303.7 76.4 304.8 78.6 304.8 80.6 C 304.8 80.8 304.8 80.9 304.8 81 C 304.82 81.02 298 81 298 81 Z M 303.2 79.9 C 303.2 79.9 303.24 79.94 303.2 79.9 C 303.2 79 302.7 77.6 300.7 77.6 C 299 77.6 298.2 78.6 298 79.9 C 298.05 79.94 298 79.9 298 79.9 L 303.2 79.9 Z M 307.1 84.7 L 307.1 72.7 L 308.6 72.7 L 308.6 84.7 L 307.1 84.7 Z M 311.4 84.7 L 311.4 72.7 L 312.9 72.7 L 312.9 84.7 L 311.4 84.7 Z M 316.8 81 C 316.8 81 316.78 81.02 316.8 81 C 316.9 82.6 317.9 83.7 319.6 83.7 C 320.8 83.7 321.5 83.2 321.9 82.4 C 321.95 82.42 321.9 82.4 321.9 82.4 L 323.5 82.4 C 323.5 82.4 323.47 82.42 323.5 82.4 C 323 83.6 321.9 84.9 319.5 84.9 C 316.6 84.9 315.2 82.8 315.2 80.7 C 315.2 80.7 315.2 80.7 315.2 80.7 C 315.2 78.3 316.9 76.4 319.4 76.4 C 322.5 76.4 323.6 78.6 323.6 80.6 C 323.6 80.8 323.6 80.9 323.6 81 C 323.58 81.02 316.8 81 316.8 81 Z M 322 79.9 C 322 79.9 322 79.94 322 79.9 C 321.9 79 321.4 77.6 319.4 77.6 C 317.8 77.6 316.9 78.6 316.8 79.9 C 316.81 79.94 316.8 79.9 316.8 79.9 L 322 79.9 Z M 334.3 78.7 C 334.3 78 334.3 77.3 334.3 76.6 C 334.3 76.6 335.8 76.6 335.8 76.6 C 335.8 77 335.8 77.4 335.8 77.8 C 336.2 77.1 337 76.4 338.4 76.4 C 339.8 76.4 340.6 77 340.9 77.9 C 341.4 77.2 342.1 76.4 343.7 76.4 C 345.3 76.4 346.6 77.3 346.6 79.7 C 346.6 79.72 346.6 84.7 346.6 84.7 L 345.1 84.7 C 345.1 84.7 345.1 79.77 345.1 79.8 C 345.1 78.8 344.8 77.7 343.4 77.7 C 342.1 77.7 341.2 78.5 341.2 80.3 C 341.22 80.28 341.2 84.7 341.2 84.7 L 339.7 84.7 C 339.7 84.7 339.71 79.7 339.7 79.7 C 339.7 78.7 339.4 77.7 338 77.7 C 336.4 77.7 335.8 78.9 335.8 80.4 C 335.83 80.39 335.8 84.7 335.8 84.7 L 334.3 84.7 C 334.3 84.7 334.32 78.71 334.3 78.7 Z M 349.4 76.6 L 350.9 76.6 L 350.9 84.7 L 349.4 84.7 L 349.4 76.6 Z M 349.4 72.7 L 350.9 72.7 L 350.9 74.5 L 349.4 74.5 L 349.4 72.7 Z M 353.7 78.7 C 353.7 78 353.7 77.2 353.7 76.6 C 353.7 76.6 355.2 76.6 355.2 76.6 C 355.2 76.9 355.2 77.6 355.2 78.1 C 355.6 77.3 356.4 76.4 358.2 76.4 C 360.1 76.4 361.3 77.6 361.3 79.8 C 361.31 79.79 361.3 84.7 361.3 84.7 L 359.8 84.7 C 359.8 84.7 359.78 80.06 359.8 80.1 C 359.8 78.7 359.3 77.7 357.8 77.7 C 356.1 77.7 355.3 79 355.3 80.8 C 355.25 80.84 355.3 84.7 355.3 84.7 L 353.7 84.7 C 353.7 84.7 353.72 78.66 353.7 78.7 Z M 365.1 81 C 365.1 81 365.1 81.02 365.1 81 C 365.2 82.6 366.2 83.7 367.9 83.7 C 369.1 83.7 369.8 83.2 370.3 82.4 C 370.27 82.42 370.3 82.4 370.3 82.4 L 371.8 82.4 C 371.8 82.4 371.8 82.42 371.8 82.4 C 371.4 83.6 370.2 84.9 367.8 84.9 C 364.9 84.9 363.6 82.8 363.6 80.7 C 363.6 80.7 363.6 80.7 363.6 80.7 C 363.6 78.3 365.2 76.4 367.8 76.4 C 370.8 76.4 371.9 78.6 371.9 80.6 C 371.9 80.8 371.9 80.9 371.9 81 C 371.91 81.02 365.1 81 365.1 81 Z M 370.3 79.9 C 370.3 79.9 370.33 79.94 370.3 79.9 C 370.3 79 369.7 77.6 367.7 77.6 C 366.1 77.6 365.3 78.6 365.1 79.9 C 365.13 79.94 365.1 79.9 365.1 79.9 L 370.3 79.9 Z M 390.5 72.7 C 390.5 72.7 390.47 82.37 390.5 82.4 C 390.5 83.1 390.5 83.9 390.5 84.7 C 390.5 84.7 389 84.7 389 84.7 C 389 84.4 389 83.9 388.9 83.5 C 388.5 84.2 387.8 84.9 386 84.9 C 383.6 84.9 382 83.2 382 80.7 C 382 80.7 382 80.7 382 80.7 C 382 78.1 384.1 76.4 386.2 76.4 C 388.1 76.4 388.7 77.3 388.9 77.6 C 388.95 77.64 388.9 72.7 388.9 72.7 L 390.5 72.7 Z M 383.6 80.7 C 383.6 80.7 383.6 80.7 383.6 80.7 C 383.6 82.2 384.5 83.7 386.3 83.7 C 388.2 83.7 389 82.4 389 80.6 C 389 80.6 389 80.6 389 80.6 C 389 78.9 388.4 77.7 386.3 77.7 C 384.5 77.7 383.6 79.2 383.6 80.7 Z M 394.3 81 C 394.3 81 394.29 81.02 394.3 81 C 394.4 82.6 395.4 83.7 397.1 83.7 C 398.3 83.7 399 83.2 399.5 82.4 C 399.47 82.42 399.5 82.4 399.5 82.4 L 401 82.4 C 401 82.4 400.99 82.42 401 82.4 C 400.6 83.6 399.4 84.9 397 84.9 C 394.1 84.9 392.8 82.8 392.8 80.7 C 392.8 80.7 392.8 80.7 392.8 80.7 C 392.8 78.3 394.4 76.4 396.9 76.4 C 400 76.4 401.1 78.6 401.1 80.6 C 401.1 80.8 401.1 80.9 401.1 81 C 401.1 81.02 394.3 81 394.3 81 Z M 399.5 79.9 C 399.5 79.9 399.52 79.94 399.5 79.9 C 399.5 79 398.9 77.6 396.9 77.6 C 395.3 77.6 394.5 78.6 394.3 79.9 C 394.33 79.94 394.3 79.9 394.3 79.9 L 399.5 79.9 Z M 419.5 82.2 C 419.5 82.2 419.47 82.19 419.5 82.2 C 419.1 83.7 417.8 84.9 415.5 84.9 C 412.6 84.9 411.2 83 411.2 80.7 C 411.2 80.7 411.2 80.7 411.2 80.7 C 411.2 78.4 412.8 76.4 415.5 76.4 C 418.3 76.4 419.3 78.1 419.5 79.2 C 419.45 79.21 419.5 79.2 419.5 79.2 L 417.9 79.2 C 417.9 79.2 417.93 79.21 417.9 79.2 C 417.7 78.5 417 77.6 415.5 77.6 C 413.8 77.6 412.8 78.9 412.8 80.7 C 412.8 80.7 412.8 80.7 412.8 80.7 C 412.8 82.4 413.8 83.7 415.5 83.7 C 416.8 83.7 417.5 83.1 418 82.2 C 417.95 82.19 418 82.2 418 82.2 L 419.5 82.2 Z M 422.7 81 C 422.7 81 422.71 81.02 422.7 81 C 422.8 82.6 423.8 83.7 425.5 83.7 C 426.8 83.7 427.5 83.2 427.9 82.4 C 427.89 82.42 427.9 82.4 427.9 82.4 L 429.4 82.4 C 429.4 82.4 429.41 82.42 429.4 82.4 C 429 83.6 427.8 84.9 425.4 84.9 C 422.5 84.9 421.2 82.8 421.2 80.7 C 421.2 80.7 421.2 80.7 421.2 80.7 C 421.2 78.3 422.8 76.4 425.4 76.4 C 428.4 76.4 429.5 78.6 429.5 80.6 C 429.5 80.8 429.5 80.9 429.5 81 C 429.52 81.02 422.7 81 422.7 81 Z M 427.9 79.9 C 427.9 79.9 427.94 79.94 427.9 79.9 C 427.9 79 427.4 77.6 425.4 77.6 C 423.7 77.6 422.9 78.6 422.7 79.9 C 422.74 79.94 422.7 79.9 422.7 79.9 L 427.9 79.9 Z M 439.2 82.4 C 439.2 83.1 439.2 83.9 439.2 84.7 C 439.2 84.7 437.8 84.7 437.8 84.7 C 437.7 84.5 437.7 83.9 437.7 83.4 C 437.3 84.3 436.6 84.9 434.8 84.9 C 433.1 84.9 431.8 84 431.8 81.6 C 431.77 81.65 431.8 76.6 431.8 76.6 L 433.3 76.6 C 433.3 76.6 433.29 81.37 433.3 81.4 C 433.3 82.6 433.8 83.7 435.2 83.7 C 437 83.7 437.7 82.6 437.7 80.3 C 437.71 80.28 437.7 76.6 437.7 76.6 L 439.2 76.6 C 439.2 76.6 439.23 82.36 439.2 82.4 Z M 442.9 76.6 C 444.3 78.3 445.2 79.3 445.5 79.7 C 445.5 79.7 445.6 79.7 445.6 79.7 C 446 79.1 446.9 78 448.2 76.6 C 448.16 76.62 449.9 76.6 449.9 76.6 L 446.4 80.5 L 450 84.7 C 450 84.7 448.18 84.72 448.2 84.7 C 446.9 83.2 445.9 82.1 445.5 81.5 C 445.5 81.5 445.4 81.5 445.4 81.5 C 445.1 82 444.2 83 442.8 84.7 C 442.77 84.72 441 84.7 441 84.7 L 444.6 80.6 L 441.1 76.6 C 441.1 76.6 442.9 76.62 442.9 76.6 Z " stroke="none" fill="#fafafa" filter="url(#shadow_11458)"/>  </g>  <g id="Polygon11457">    <path d="M 2.8 59.2 C 2.82 59.2 2.8 63.9 2.8 63.9 L 1.3 63.9 C 1.3 63.9 1.3 54.32 1.3 54.3 C 1.3 53.7 1.3 53 1.3 52.3 C 1.3 52.3 2.8 52.3 2.8 52.3 C 2.8 52.5 2.8 53.1 2.8 53.7 C 3.3 52.8 4.2 52.1 5.9 52.1 C 8.1 52.1 9.7 53.9 9.7 56.2 C 9.7 56.2 9.7 56.2 9.7 56.2 C 9.7 58.9 7.9 60.6 5.7 60.6 C 4 60.6 3.3 59.9 2.8 59.2 Z M 8.1 56.3 C 8.1 56.3 8.1 56.3 8.1 56.3 C 8.1 54.8 7.3 53.4 5.5 53.4 C 3.6 53.4 2.8 54.7 2.8 56.4 C 2.8 56.4 2.8 56.4 2.8 56.4 C 2.8 58.1 3.7 59.3 5.5 59.3 C 7.2 59.3 8.1 57.9 8.1 56.3 Z M 12 60.4 L 12 48.4 L 13.5 48.4 L 13.5 60.4 L 12 60.4 Z M 23.8 58 C 23.8 58.8 23.8 59.6 23.8 60.4 C 23.8 60.4 22.3 60.4 22.3 60.4 C 22.3 60.2 22.3 59.6 22.3 59 C 21.9 59.9 21.1 60.6 19.4 60.6 C 17.6 60.6 16.3 59.7 16.3 57.3 C 16.31 57.33 16.3 52.3 16.3 52.3 L 17.8 52.3 C 17.8 52.3 17.83 57.05 17.8 57 C 17.8 58.3 18.3 59.3 19.8 59.3 C 21.5 59.3 22.3 58.3 22.3 56 C 22.25 55.96 22.3 52.3 22.3 52.3 L 23.8 52.3 C 23.8 52.3 23.77 58.04 23.8 58 Z M 27.5 57.9 C 27.5 57.9 27.47 57.95 27.5 57.9 C 27.8 58.9 28.6 59.5 30 59.5 C 31.6 59.5 32.1 58.9 32.1 58.2 C 32.1 57.5 31.7 57.1 29.7 56.8 C 26.8 56.5 26.3 55.5 26.3 54.5 C 26.3 53.4 27.1 52.1 29.7 52.1 C 32.5 52.1 33.3 53.5 33.4 54.5 C 33.41 54.5 33.4 54.5 33.4 54.5 L 31.9 54.5 C 31.9 54.5 31.88 54.5 31.9 54.5 C 31.8 54 31.4 53.2 29.6 53.2 C 28.1 53.2 27.8 53.9 27.8 54.3 C 27.8 54.9 28.2 55.3 30.1 55.5 C 33.1 55.9 33.7 56.9 33.7 58.1 C 33.7 59.5 32.6 60.6 29.9 60.6 C 27.6 60.6 26.2 59.6 25.9 57.9 C 25.93 57.95 25.9 57.9 25.9 57.9 L 27.5 57.9 Z M 47.4 54.5 C 47.4 53.8 47.4 53 47.4 52.3 C 47.4 52.3 48.9 52.3 48.9 52.3 C 48.9 52.5 49 53.4 49 54.1 C 49.5 52.9 50.7 52.1 52.2 52.1 C 52.2 52.1 52.2 53.5 52.2 53.5 C 50.4 53.5 49 54.6 49 57 C 48.96 57.02 49 60.4 49 60.4 L 47.4 60.4 C 47.4 60.4 47.43 54.5 47.4 54.5 Z M 62 56.3 C 62 56.3 62 56.3 62 56.3 C 62 58.6 60.5 60.6 57.6 60.6 C 54.9 60.6 53.4 58.6 53.4 56.4 C 53.4 56.4 53.4 56.4 53.4 56.4 C 53.4 54 55 52.1 57.7 52.1 C 60.5 52.1 62 54.2 62 56.3 Z M 54.9 56.4 C 54.9 56.4 54.9 56.4 54.9 56.4 C 54.9 57.9 55.9 59.4 57.7 59.4 C 59.5 59.4 60.4 58 60.4 56.4 C 60.4 56.4 60.4 56.4 60.4 56.4 C 60.4 54.8 59.4 53.3 57.6 53.3 C 55.8 53.3 54.9 54.7 54.9 56.4 Z M 65.2 57.9 C 65.2 57.9 65.18 57.95 65.2 57.9 C 65.5 58.9 66.3 59.5 67.8 59.5 C 69.3 59.5 69.9 58.9 69.9 58.2 C 69.9 57.5 69.5 57.1 67.4 56.8 C 64.5 56.5 64 55.5 64 54.5 C 64 53.4 64.8 52.1 67.4 52.1 C 70.2 52.1 71 53.5 71.1 54.5 C 71.12 54.5 71.1 54.5 71.1 54.5 L 69.6 54.5 C 69.6 54.5 69.59 54.5 69.6 54.5 C 69.5 54 69.1 53.2 67.4 53.2 C 65.9 53.2 65.5 53.9 65.5 54.3 C 65.5 54.9 65.9 55.3 67.8 55.5 C 70.8 55.9 71.4 56.9 71.4 58.1 C 71.4 59.5 70.3 60.6 67.7 60.6 C 65.3 60.6 63.9 59.6 63.6 57.9 C 63.64 57.95 63.6 57.9 63.6 57.9 L 65.2 57.9 Z M 74.7 56.7 C 74.7 56.7 74.66 56.7 74.7 56.7 C 74.7 58.3 75.8 59.4 77.4 59.4 C 78.7 59.4 79.4 58.9 79.8 58.1 C 79.83 58.1 79.8 58.1 79.8 58.1 L 81.4 58.1 C 81.4 58.1 81.35 58.1 81.4 58.1 C 80.9 59.3 79.8 60.6 77.3 60.6 C 74.4 60.6 73.1 58.5 73.1 56.4 C 73.1 56.4 73.1 56.4 73.1 56.4 C 73.1 53.9 74.8 52.1 77.3 52.1 C 80.4 52.1 81.5 54.3 81.5 56.3 C 81.5 56.4 81.5 56.5 81.5 56.7 C 81.46 56.7 74.7 56.7 74.7 56.7 Z M 79.9 55.6 C 79.9 55.6 79.88 55.62 79.9 55.6 C 79.8 54.7 79.3 53.3 77.3 53.3 C 75.6 53.3 74.8 54.3 74.7 55.6 C 74.69 55.62 74.7 55.6 74.7 55.6 L 79.9 55.6 Z M 80.2 48.2 L 77.6 50.8 L 76.1 50.8 L 78.3 48.2 L 80.2 48.2 Z M 83.6 60.4 L 83.6 57.8 L 85.3 57.8 L 85.3 60.4 L 83.6 60.4 Z M 99.6 49 L 101.2 49 L 101.2 59 L 108 59 L 107.8 60.4 L 99.6 60.4 L 99.6 49 Z M 110.9 56.7 C 110.9 56.7 110.86 56.7 110.9 56.7 C 110.9 58.3 112 59.4 113.6 59.4 C 114.9 59.4 115.6 58.9 116 58.1 C 116.03 58.1 116 58.1 116 58.1 L 117.6 58.1 C 117.6 58.1 117.55 58.1 117.6 58.1 C 117.1 59.3 116 60.6 113.6 60.6 C 110.7 60.6 109.3 58.5 109.3 56.4 C 109.3 56.4 109.3 56.4 109.3 56.4 C 109.3 53.9 111 52.1 113.5 52.1 C 116.6 52.1 117.7 54.3 117.7 56.3 C 117.7 56.4 117.7 56.5 117.7 56.7 C 117.67 56.7 110.9 56.7 110.9 56.7 Z M 116.1 55.6 C 116.1 55.6 116.08 55.62 116.1 55.6 C 116 54.7 115.5 53.3 113.5 53.3 C 111.8 53.3 111 54.3 110.9 55.6 C 110.89 55.62 110.9 55.6 110.9 55.6 L 116.1 55.6 Z M 132.9 59.2 C 132.9 59.2 132.9 63.9 132.9 63.9 L 131.4 63.9 C 131.4 63.9 131.38 54.32 131.4 54.3 C 131.4 53.7 131.4 53 131.4 52.3 C 131.4 52.3 132.8 52.3 132.8 52.3 C 132.9 52.5 132.9 53.1 132.9 53.7 C 133.4 52.8 134.3 52.1 136 52.1 C 138.2 52.1 139.8 53.9 139.8 56.2 C 139.8 56.2 139.8 56.2 139.8 56.2 C 139.8 58.9 138 60.6 135.8 60.6 C 134.1 60.6 133.3 59.9 132.9 59.2 Z M 138.2 56.3 C 138.2 56.3 138.2 56.3 138.2 56.3 C 138.2 54.8 137.4 53.4 135.6 53.4 C 133.7 53.4 132.9 54.7 132.9 56.4 C 132.9 56.4 132.9 56.4 132.9 56.4 C 132.9 58.1 133.8 59.3 135.5 59.3 C 137.3 59.3 138.2 57.9 138.2 56.3 Z M 142.1 60.4 L 142.1 48.4 L 143.6 48.4 L 143.6 60.4 L 142.1 60.4 Z M 153.6 58.4 C 153.6 59.2 153.6 60.2 153.7 60.4 C 153.7 60.4 152.2 60.4 152.2 60.4 C 152.1 60.1 152.1 59.5 152.1 59.2 C 151.7 60.1 150.8 60.6 149.1 60.6 C 146.8 60.6 145.9 59.2 145.9 58 C 145.9 58 145.9 58 145.9 58 C 145.9 56 147.8 55.4 150.1 55.4 C 151.1 55.4 151.8 55.4 152.1 55.4 C 152.1 55.4 152.1 54.9 152.1 54.9 C 152.1 54.1 151.7 53.2 150 53.2 C 148.4 53.2 148.1 53.9 147.9 54.7 C 147.91 54.66 147.9 54.7 147.9 54.7 L 146.4 54.7 C 146.4 54.7 146.39 54.66 146.4 54.7 C 146.5 53.6 147.2 52.1 150 52.1 C 152.9 52.1 153.6 53.5 153.6 54.9 C 153.6 54.9 153.6 58.4 153.6 58.4 Z M 152.1 56.5 C 151.8 56.5 151.3 56.5 150.2 56.5 C 148.3 56.5 147.4 56.9 147.4 57.9 C 147.4 57.9 147.4 57.9 147.4 57.9 C 147.4 58.8 148 59.4 149.4 59.4 C 151.5 59.4 152.1 58.2 152.1 56.8 C 152.1 56.8 152.1 56.5 152.1 56.5 Z M 156.4 54.3 C 156.4 53.7 156.4 52.9 156.4 52.3 C 156.4 52.3 157.8 52.3 157.8 52.3 C 157.9 52.6 157.9 53.3 157.9 53.8 C 158.2 53 159.1 52.1 160.8 52.1 C 162.7 52.1 164 53.2 164 55.5 C 163.96 55.47 164 60.4 164 60.4 L 162.4 60.4 C 162.4 60.4 162.42 55.74 162.4 55.7 C 162.4 54.4 161.9 53.4 160.4 53.4 C 158.7 53.4 157.9 54.6 157.9 56.5 C 157.89 56.52 157.9 60.4 157.9 60.4 L 156.4 60.4 C 156.4 60.4 156.37 54.34 156.4 54.3 Z M 186.1 48.4 C 186.1 48.4 186.13 58.05 186.1 58 C 186.1 58.8 186.1 59.6 186.2 60.4 C 186.2 60.4 184.7 60.4 184.7 60.4 C 184.6 60.1 184.6 59.6 184.6 59.2 C 184.2 59.9 183.5 60.6 181.6 60.6 C 179.3 60.6 177.7 58.9 177.7 56.4 C 177.7 56.4 177.7 56.4 177.7 56.4 C 177.7 53.8 179.7 52.1 181.8 52.1 C 183.7 52.1 184.4 52.9 184.6 53.3 C 184.61 53.32 184.6 48.4 184.6 48.4 L 186.1 48.4 Z M 179.3 56.4 C 179.3 56.4 179.3 56.4 179.3 56.4 C 179.3 57.9 180.2 59.4 182 59.4 C 183.9 59.4 184.7 58.1 184.7 56.3 C 184.7 56.3 184.7 56.3 184.7 56.3 C 184.7 54.5 184 53.3 182 53.3 C 180.2 53.3 179.3 54.9 179.3 56.4 Z M 190 56.7 C 190 56.7 189.96 56.7 190 56.7 C 190 58.3 191.1 59.4 192.7 59.4 C 194 59.4 194.7 58.9 195.1 58.1 C 195.13 58.1 195.1 58.1 195.1 58.1 L 196.7 58.1 C 196.7 58.1 196.65 58.1 196.7 58.1 C 196.2 59.3 195.1 60.6 192.6 60.6 C 189.7 60.6 188.4 58.5 188.4 56.4 C 188.4 56.4 188.4 56.4 188.4 56.4 C 188.4 53.9 190.1 52.1 192.6 52.1 C 195.7 52.1 196.8 54.3 196.8 56.3 C 196.8 56.4 196.8 56.5 196.8 56.7 C 196.76 56.7 190 56.7 190 56.7 Z M 195.2 55.6 C 195.2 55.6 195.18 55.62 195.2 55.6 C 195.1 54.7 194.6 53.3 192.6 53.3 C 190.9 53.3 190.1 54.3 190 55.6 C 189.99 55.62 190 55.6 190 55.6 L 195.2 55.6 Z M 211 60.4 L 211 53.5 L 209.4 53.5 L 209.4 52.3 L 211 52.3 C 211 52.3 210.95 51.21 211 51.2 C 211 49.4 211.8 48.2 213.6 48.2 C 214 48.2 214.4 48.3 214.6 48.3 C 214.6 48.3 214.6 49.6 214.6 49.6 C 214.4 49.5 214.1 49.5 213.9 49.5 C 212.8 49.5 212.5 50 212.5 51.3 C 212.48 51.29 212.5 52.3 212.5 52.3 L 214.4 52.3 L 214.4 53.5 L 212.5 53.5 L 212.5 60.4 L 211 60.4 Z M 216.3 52.3 L 217.8 52.3 L 217.8 60.4 L 216.3 60.4 L 216.3 52.3 Z M 216.3 48.4 L 217.8 48.4 L 217.8 50.2 L 216.3 50.2 L 216.3 48.4 Z M 220.6 54.3 C 220.6 53.7 220.6 52.9 220.6 52.3 C 220.6 52.3 222.1 52.3 222.1 52.3 C 222.1 52.6 222.1 53.3 222.1 53.8 C 222.5 53 223.3 52.1 225.1 52.1 C 227 52.1 228.2 53.2 228.2 55.5 C 228.21 55.47 228.2 60.4 228.2 60.4 L 226.7 60.4 C 226.7 60.4 226.68 55.74 226.7 55.7 C 226.7 54.4 226.2 53.4 224.7 53.4 C 223 53.4 222.2 54.6 222.2 56.5 C 222.15 56.52 222.2 60.4 222.2 60.4 L 220.6 60.4 C 220.6 60.4 220.62 54.34 220.6 54.3 Z M 230 62.6 C 230.9 60.7 231.2 59.2 231.4 57.8 C 231.4 57.8 232.9 57.8 232.9 57.8 C 232.8 59.2 232.2 61.3 231.4 62.6 C 231.4 62.6 230 62.6 230 62.6 Z M 248.5 59.2 C 248.47 59.2 248.5 63.9 248.5 63.9 L 247 63.9 C 247 63.9 246.95 54.32 247 54.3 C 247 53.7 247 53 246.9 52.3 C 246.9 52.3 248.4 52.3 248.4 52.3 C 248.5 52.5 248.5 53.1 248.5 53.7 C 248.9 52.8 249.9 52.1 251.6 52.1 C 253.8 52.1 255.4 53.9 255.4 56.2 C 255.4 56.2 255.4 56.2 255.4 56.2 C 255.4 58.9 253.5 60.6 251.3 60.6 C 249.7 60.6 248.9 59.9 248.5 59.2 Z M 253.8 56.3 C 253.8 56.3 253.8 56.3 253.8 56.3 C 253.8 54.8 253 53.4 251.1 53.4 C 249.3 53.4 248.4 54.7 248.4 56.4 C 248.4 56.4 248.4 56.4 248.4 56.4 C 248.4 58.1 249.3 59.3 251.1 59.3 C 252.9 59.3 253.8 57.9 253.8 56.3 Z M 264.8 58.4 C 264.8 59.2 264.8 60.2 264.9 60.4 C 264.9 60.4 263.4 60.4 263.4 60.4 C 263.4 60.1 263.3 59.5 263.3 59.2 C 262.9 60.1 262 60.6 260.3 60.6 C 258 60.6 257.1 59.2 257.1 58 C 257.1 58 257.1 58 257.1 58 C 257.1 56 259 55.4 261.3 55.4 C 262.3 55.4 263 55.4 263.3 55.4 C 263.3 55.4 263.3 54.9 263.3 54.9 C 263.3 54.1 262.9 53.2 261.2 53.2 C 259.6 53.2 259.3 53.9 259.1 54.7 C 259.12 54.66 259.1 54.7 259.1 54.7 L 257.6 54.7 C 257.6 54.7 257.6 54.66 257.6 54.7 C 257.7 53.6 258.4 52.1 261.2 52.1 C 264.1 52.1 264.8 53.5 264.8 54.9 C 264.8 54.9 264.8 58.4 264.8 58.4 Z M 263.3 56.5 C 263 56.5 262.5 56.5 261.4 56.5 C 259.5 56.5 258.6 56.9 258.6 57.9 C 258.6 57.9 258.6 57.9 258.6 57.9 C 258.6 58.8 259.2 59.4 260.6 59.4 C 262.7 59.4 263.3 58.2 263.3 56.8 C 263.3 56.8 263.3 56.5 263.3 56.5 Z M 267.6 54.5 C 267.6 53.8 267.6 53 267.6 52.3 C 267.6 52.3 269 52.3 269 52.3 C 269.1 52.5 269.1 53.4 269.1 54.1 C 269.6 52.9 270.8 52.1 272.4 52.1 C 272.4 52.1 272.4 53.5 272.4 53.5 C 270.5 53.5 269.1 54.6 269.1 57 C 269.1 57.02 269.1 60.4 269.1 60.4 L 267.6 60.4 C 267.6 60.4 267.58 54.5 267.6 54.5 Z M 285.7 54.5 C 285.7 53.8 285.7 53 285.7 52.3 C 285.7 52.3 287.2 52.3 287.2 52.3 C 287.2 52.5 287.3 53.4 287.3 54.1 C 287.8 52.9 288.9 52.1 290.5 52.1 C 290.5 52.1 290.5 53.5 290.5 53.5 C 288.7 53.5 287.3 54.6 287.3 57 C 287.25 57.02 287.3 60.4 287.3 60.4 L 285.7 60.4 C 285.7 60.4 285.73 54.5 285.7 54.5 Z M 299.4 58.4 C 299.4 59.2 299.5 60.2 299.5 60.4 C 299.5 60.4 298 60.4 298 60.4 C 298 60.1 298 59.5 298 59.2 C 297.5 60.1 296.6 60.6 294.9 60.6 C 292.6 60.6 291.8 59.2 291.8 58 C 291.8 58 291.8 58 291.8 58 C 291.8 56 293.6 55.4 296 55.4 C 296.9 55.4 297.7 55.4 297.9 55.4 C 297.9 55.4 297.9 54.9 297.9 54.9 C 297.9 54.1 297.6 53.2 295.8 53.2 C 294.3 53.2 293.9 53.9 293.8 54.7 C 293.75 54.66 293.8 54.7 293.8 54.7 L 292.2 54.7 C 292.2 54.7 292.23 54.66 292.2 54.7 C 292.3 53.6 293 52.1 295.8 52.1 C 298.8 52.1 299.4 53.5 299.4 54.9 C 299.4 54.9 299.4 58.4 299.4 58.4 Z M 297.9 56.5 C 297.7 56.5 297.1 56.5 296 56.5 C 294.1 56.5 293.3 56.9 293.3 57.9 C 293.3 57.9 293.3 57.9 293.3 57.9 C 293.3 58.8 293.9 59.4 295.2 59.4 C 297.4 59.4 297.9 58.2 297.9 56.8 C 297.9 56.8 297.9 56.5 297.9 56.5 Z M 303.7 59.2 C 303.74 59.2 303.7 63.9 303.7 63.9 L 302.2 63.9 C 302.2 63.9 302.21 54.32 302.2 54.3 C 302.2 53.7 302.2 53 302.2 52.3 C 302.2 52.3 303.7 52.3 303.7 52.3 C 303.7 52.5 303.7 53.1 303.7 53.7 C 304.2 52.8 305.2 52.1 306.9 52.1 C 309 52.1 310.6 53.9 310.6 56.2 C 310.6 56.2 310.6 56.2 310.6 56.2 C 310.6 58.9 308.8 60.6 306.6 60.6 C 304.9 60.6 304.2 59.9 303.7 59.2 Z M 309.1 56.3 C 309.1 56.3 309.1 56.3 309.1 56.3 C 309.1 54.8 308.2 53.4 306.4 53.4 C 304.5 53.4 303.7 54.7 303.7 56.4 C 303.7 56.4 303.7 56.4 303.7 56.4 C 303.7 58.1 304.6 59.3 306.4 59.3 C 308.2 59.3 309.1 57.9 309.1 56.3 Z M 314.4 59.2 C 314.45 59.2 314.4 63.9 314.4 63.9 L 312.9 63.9 C 312.9 63.9 312.93 54.32 312.9 54.3 C 312.9 53.7 312.9 53 312.9 52.3 C 312.9 52.3 314.4 52.3 314.4 52.3 C 314.4 52.5 314.4 53.1 314.4 53.7 C 314.9 52.8 315.9 52.1 317.6 52.1 C 319.7 52.1 321.3 53.9 321.3 56.2 C 321.3 56.2 321.3 56.2 321.3 56.2 C 321.3 58.9 319.5 60.6 317.3 60.6 C 315.6 60.6 314.9 59.9 314.4 59.2 Z M 319.8 56.3 C 319.8 56.3 319.8 56.3 319.8 56.3 C 319.8 54.8 318.9 53.4 317.1 53.4 C 315.2 53.4 314.4 54.7 314.4 56.4 C 314.4 56.4 314.4 56.4 314.4 56.4 C 314.4 58.1 315.3 59.3 317.1 59.3 C 318.9 59.3 319.8 57.9 319.8 56.3 Z M 331.8 56.3 C 331.8 56.3 331.8 56.3 331.8 56.3 C 331.8 58.6 330.3 60.6 327.4 60.6 C 324.7 60.6 323.2 58.6 323.2 56.4 C 323.2 56.4 323.2 56.4 323.2 56.4 C 323.2 54 324.8 52.1 327.5 52.1 C 330.3 52.1 331.8 54.2 331.8 56.3 Z M 324.7 56.4 C 324.7 56.4 324.7 56.4 324.7 56.4 C 324.7 57.9 325.7 59.4 327.5 59.4 C 329.3 59.4 330.2 58 330.2 56.4 C 330.2 56.4 330.2 56.4 330.2 56.4 C 330.2 54.8 329.2 53.3 327.4 53.3 C 325.6 53.3 324.7 54.7 324.7 56.4 Z M 334.1 54.5 C 334.1 53.8 334.1 53 334.1 52.3 C 334.1 52.3 335.5 52.3 335.5 52.3 C 335.6 52.5 335.6 53.4 335.6 54.1 C 336.1 52.9 337.3 52.1 338.9 52.1 C 338.9 52.1 338.9 53.5 338.9 53.5 C 337 53.5 335.6 54.6 335.6 57 C 335.6 57.02 335.6 60.4 335.6 60.4 L 334.1 60.4 C 334.1 60.4 334.08 54.5 334.1 54.5 Z M 340.3 52.3 L 341.9 52.3 L 341.9 49.7 L 343.4 49.7 L 343.4 52.3 L 345.5 52.3 L 345.5 53.5 L 343.4 53.5 C 343.4 53.5 343.43 57.93 343.4 57.9 C 343.4 58.9 343.7 59.3 344.6 59.3 C 344.8 59.3 345.1 59.3 345.3 59.2 C 345.3 59.2 345.3 60.3 345.3 60.3 C 345 60.5 344.6 60.5 344.1 60.5 C 342.4 60.5 341.9 59.7 341.9 58.1 C 341.9 58.13 341.9 53.5 341.9 53.5 L 340.3 53.5 L 340.3 52.3 Z M 366.1 58.4 C 366.1 59.2 366.2 60.2 366.2 60.4 C 366.2 60.4 364.8 60.4 364.8 60.4 C 364.7 60.1 364.7 59.5 364.7 59.2 C 364.2 60.1 363.3 60.6 361.6 60.6 C 359.3 60.6 358.5 59.2 358.5 58 C 358.5 58 358.5 58 358.5 58 C 358.5 56 360.4 55.4 362.7 55.4 C 363.6 55.4 364.4 55.4 364.6 55.4 C 364.6 55.4 364.6 54.9 364.6 54.9 C 364.6 54.1 364.3 53.2 362.5 53.2 C 361 53.2 360.6 53.9 360.5 54.7 C 360.45 54.66 360.5 54.7 360.5 54.7 L 358.9 54.7 C 358.9 54.7 358.93 54.66 358.9 54.7 C 359 53.6 359.7 52.1 362.5 52.1 C 365.5 52.1 366.1 53.5 366.1 54.9 C 366.1 54.9 366.1 58.4 366.1 58.4 Z M 364.6 56.5 C 364.4 56.5 363.8 56.5 362.7 56.5 C 360.8 56.5 360 56.9 360 57.9 C 360 57.9 360 57.9 360 57.9 C 360 58.8 360.6 59.4 361.9 59.4 C 364.1 59.4 364.6 58.2 364.6 56.8 C 364.6 56.8 364.6 56.5 364.6 56.5 Z M 361.4 48.2 L 363.6 50.8 L 362.2 50.8 L 359.5 48.2 L 361.4 48.2 Z M 388.1 57.9 C 388.1 57.9 388.13 57.87 388.1 57.9 C 387.7 59.3 386.5 60.6 384.2 60.6 C 381.3 60.6 379.9 58.7 379.9 56.4 C 379.9 56.4 379.9 56.4 379.9 56.4 C 379.9 54.1 381.5 52.1 384.2 52.1 C 386.9 52.1 387.9 53.8 388.1 54.9 C 388.11 54.89 388.1 54.9 388.1 54.9 L 386.6 54.9 C 386.6 54.9 386.59 54.89 386.6 54.9 C 386.3 54.1 385.7 53.3 384.2 53.3 C 382.5 53.3 381.5 54.6 381.5 56.3 C 381.5 56.3 381.5 56.3 381.5 56.3 C 381.5 58 382.4 59.4 384.2 59.4 C 385.5 59.4 386.2 58.8 386.6 57.9 C 386.61 57.87 386.6 57.9 386.6 57.9 L 388.1 57.9 Z M 391.4 56.7 C 391.4 56.7 391.37 56.7 391.4 56.7 C 391.5 58.3 392.5 59.4 394.1 59.4 C 395.4 59.4 396.1 58.9 396.5 58.1 C 396.54 58.1 396.5 58.1 396.5 58.1 L 398.1 58.1 C 398.1 58.1 398.06 58.1 398.1 58.1 C 397.6 59.3 396.5 60.6 394.1 60.6 C 391.2 60.6 389.8 58.5 389.8 56.4 C 389.8 56.4 389.8 56.4 389.8 56.4 C 389.8 53.9 391.5 52.1 394 52.1 C 397.1 52.1 398.2 54.3 398.2 56.3 C 398.2 56.4 398.2 56.5 398.2 56.7 C 398.18 56.7 391.4 56.7 391.4 56.7 Z M 396.6 55.6 C 396.6 55.6 396.6 55.62 396.6 55.6 C 396.5 54.7 396 53.3 394 53.3 C 392.4 53.3 391.5 54.3 391.4 55.6 C 391.4 55.62 391.4 55.6 391.4 55.6 L 396.6 55.6 Z M 400.5 60.4 L 400.5 48.4 L 402 48.4 L 402 60.4 L 400.5 60.4 Z M 412.2 58 C 412.2 58.8 412.2 59.6 412.2 60.4 C 412.2 60.4 410.8 60.4 410.8 60.4 C 410.7 60.2 410.7 59.6 410.7 59 C 410.3 59.9 409.6 60.6 407.8 60.6 C 406.1 60.6 404.8 59.7 404.8 57.3 C 404.76 57.33 404.8 52.3 404.8 52.3 L 406.3 52.3 C 406.3 52.3 406.28 57.05 406.3 57 C 406.3 58.3 406.8 59.3 408.2 59.3 C 410 59.3 410.7 58.3 410.7 56 C 410.7 55.96 410.7 52.3 410.7 52.3 L 412.2 52.3 C 412.2 52.3 412.22 58.04 412.2 58 Z M 415 52.3 L 416.5 52.3 L 416.5 60.4 L 415 60.4 L 415 52.3 Z M 415 48.4 L 416.5 48.4 L 416.5 50.2 L 415 50.2 L 415 48.4 Z M 438.7 48.4 C 438.7 48.4 438.72 58.05 438.7 58 C 438.7 58.8 438.7 59.6 438.7 60.4 C 438.7 60.4 437.3 60.4 437.3 60.4 C 437.2 60.1 437.2 59.6 437.2 59.2 C 436.8 59.9 436.1 60.6 434.2 60.6 C 431.9 60.6 430.3 58.9 430.3 56.4 C 430.3 56.4 430.3 56.4 430.3 56.4 C 430.3 53.8 432.3 52.1 434.4 52.1 C 436.3 52.1 437 52.9 437.2 53.3 C 437.19 53.32 437.2 48.4 437.2 48.4 L 438.7 48.4 Z M 431.9 56.4 C 431.9 56.4 431.9 56.4 431.9 56.4 C 431.9 57.9 432.8 59.4 434.5 59.4 C 436.5 59.4 437.3 58.1 437.3 56.3 C 437.3 56.3 437.3 56.3 437.3 56.3 C 437.3 54.5 436.6 53.3 434.6 53.3 C 432.8 53.3 431.9 54.9 431.9 56.4 Z M 442.5 56.7 C 442.5 56.7 442.54 56.7 442.5 56.7 C 442.6 58.3 443.7 59.4 445.3 59.4 C 446.6 59.4 447.3 58.9 447.7 58.1 C 447.72 58.1 447.7 58.1 447.7 58.1 L 449.2 58.1 C 449.2 58.1 449.24 58.1 449.2 58.1 C 448.8 59.3 447.7 60.6 445.2 60.6 C 442.3 60.6 441 58.5 441 56.4 C 441 56.4 441 56.4 441 56.4 C 441 53.9 442.6 52.1 445.2 52.1 C 448.3 52.1 449.4 54.3 449.4 56.3 C 449.4 56.4 449.4 56.5 449.3 56.7 C 449.35 56.7 442.5 56.7 442.5 56.7 Z M 447.8 55.6 C 447.8 55.6 447.77 55.62 447.8 55.6 C 447.7 54.7 447.2 53.3 445.2 53.3 C 443.5 53.3 442.7 54.3 442.6 55.6 C 442.57 55.62 442.6 55.6 442.6 55.6 L 447.8 55.6 Z " stroke="none" fill="#fafafa" filter="url(#shadow_11457)"/>  </g>  <g id="Polygon11456">    <path d="M 2.2 32.4 C 2.2 32.4 2.22 32.38 2.2 32.4 C 2.3 33.9 3.4 35.1 5 35.1 C 6.3 35.1 7 34.6 7.4 33.8 C 7.4 33.78 7.4 33.8 7.4 33.8 L 8.9 33.8 C 8.9 33.8 8.92 33.78 8.9 33.8 C 8.5 35 7.3 36.3 4.9 36.3 C 2 36.3 0.7 34.2 0.7 32.1 C 0.7 32.1 0.7 32.1 0.7 32.1 C 0.7 29.6 2.3 27.8 4.9 27.8 C 8 27.8 9 30 9 32 C 9 32.1 9 32.2 9 32.4 C 9.03 32.38 2.2 32.4 2.2 32.4 Z M 7.4 31.3 C 7.4 31.3 7.45 31.3 7.4 31.3 C 7.4 30.3 6.9 28.9 4.9 28.9 C 3.2 28.9 2.4 30 2.3 31.3 C 2.25 31.3 2.3 31.3 2.3 31.3 L 7.4 31.3 Z M 7.7 23.9 L 5.1 26.4 L 3.7 26.4 L 5.9 23.9 L 7.7 23.9 Z M 11.6 28 C 12.4 29.8 14.1 33.8 14.4 34.7 C 14.4 34.7 14.5 34.7 14.5 34.7 C 14.7 34 15.2 32.6 17.2 28 C 17.22 27.98 18.8 28 18.8 28 L 15.2 36.1 L 13.6 36.1 L 10 28 C 10 28 11.65 27.98 11.6 28 Z M 28.4 32 C 28.4 32 28.4 32 28.4 32 C 28.4 34.3 26.9 36.3 24 36.3 C 21.3 36.3 19.7 34.3 19.7 32 C 19.7 32 19.7 32 19.7 32 C 19.7 29.7 21.4 27.8 24.1 27.8 C 26.9 27.8 28.4 29.9 28.4 32 Z M 21.3 32 C 21.3 32 21.3 32 21.3 32 C 21.3 33.6 22.3 35.1 24.1 35.1 C 25.9 35.1 26.8 33.7 26.8 32.1 C 26.8 32.1 26.8 32.1 26.8 32.1 C 26.8 30.4 25.8 29 24 29 C 22.2 29 21.3 30.4 21.3 32 Z M 30.7 36.1 L 30.7 24.1 L 32.2 24.1 L 32.2 36.1 L 30.7 36.1 Z M 42.4 33.7 C 42.4 34.5 42.4 35.3 42.4 36.1 C 42.4 36.1 41 36.1 41 36.1 C 40.9 35.9 40.9 35.3 40.9 34.7 C 40.5 35.6 39.8 36.3 38 36.3 C 36.3 36.3 35 35.4 35 33 C 34.96 33.01 35 28 35 28 L 36.5 28 C 36.5 28 36.49 32.73 36.5 32.7 C 36.5 34 37 35 38.4 35 C 40.2 35 40.9 34 40.9 31.6 C 40.91 31.64 40.9 28 40.9 28 L 42.4 28 C 42.4 28 42.43 33.72 42.4 33.7 Z M 44.3 28 L 45.9 28 L 45.9 25.4 L 47.4 25.4 L 47.4 28 L 49.6 28 L 49.6 29.2 L 47.4 29.2 C 47.4 29.2 47.45 33.61 47.4 33.6 C 47.4 34.5 47.7 35 48.6 35 C 48.8 35 49.1 34.9 49.4 34.9 C 49.4 34.9 49.4 36 49.4 36 C 49 36.1 48.6 36.2 48.1 36.2 C 46.4 36.2 45.9 35.4 45.9 33.8 C 45.92 33.81 45.9 29.2 45.9 29.2 L 44.3 29.2 L 44.3 28 Z M 51.5 28 L 53.1 28 L 53.1 36.1 L 51.5 36.1 L 51.5 28 Z M 51.5 24.1 L 53.1 24.1 L 53.1 25.9 L 51.5 25.9 L 51.5 24.1 Z M 64 32 C 64 32 64 32 64 32 C 64 34.3 62.5 36.3 59.6 36.3 C 56.9 36.3 55.3 34.3 55.3 32 C 55.3 32 55.3 32 55.3 32 C 55.3 29.7 57 27.8 59.7 27.8 C 62.5 27.8 64 29.9 64 32 Z M 56.9 32 C 56.9 32 56.9 32 56.9 32 C 56.9 33.6 57.9 35.1 59.7 35.1 C 61.5 35.1 62.4 33.7 62.4 32.1 C 62.4 32.1 62.4 32.1 62.4 32.1 C 62.4 30.4 61.4 29 59.6 29 C 57.8 29 56.9 30.4 56.9 32 Z M 66.3 30 C 66.3 29.3 66.3 28.6 66.2 28 C 66.2 28 67.7 28 67.7 28 C 67.8 28.3 67.8 28.9 67.8 29.5 C 68.1 28.7 69 27.8 70.7 27.8 C 72.6 27.8 73.8 28.9 73.8 31.2 C 73.85 31.15 73.8 36.1 73.8 36.1 L 72.3 36.1 C 72.3 36.1 72.31 31.42 72.3 31.4 C 72.3 30.1 71.8 29 70.3 29 C 68.6 29 67.8 30.3 67.8 32.2 C 67.78 32.2 67.8 36.1 67.8 36.1 L 66.3 36.1 C 66.3 36.1 66.26 30.02 66.3 30 Z M 76.6 36.1 L 76.6 33.5 L 78.3 33.5 L 78.3 36.1 L 76.6 36.1 Z M 86.6 24.7 C 86.6 24.7 91.91 24.71 91.9 24.7 C 94.7 24.7 96 26.2 96 28.1 C 96 28.1 96 28.1 96 28.1 C 96 30.3 94.5 31.5 92 31.5 C 91.97 31.54 88.2 31.5 88.2 31.5 L 88.2 36.1 L 86.6 36.1 L 86.6 24.7 Z M 88.2 30.2 C 88.2 30.2 91.74 30.18 91.7 30.2 C 93.3 30.2 94.4 29.7 94.4 28.1 C 94.4 28.1 94.4 28.1 94.4 28.1 C 94.4 26.8 93.5 26.1 91.7 26.1 C 91.74 26.06 88.2 26.1 88.2 26.1 L 88.2 30.2 Z M 99 32.4 C 99 32.4 99.03 32.38 99 32.4 C 99.1 33.9 100.2 35.1 101.8 35.1 C 103.1 35.1 103.8 34.6 104.2 33.8 C 104.21 33.78 104.2 33.8 104.2 33.8 L 105.7 33.8 C 105.7 33.8 105.73 33.78 105.7 33.8 C 105.3 35 104.1 36.3 101.7 36.3 C 98.8 36.3 97.5 34.2 97.5 32.1 C 97.5 32.1 97.5 32.1 97.5 32.1 C 97.5 29.6 99.1 27.8 101.7 27.8 C 104.8 27.8 105.8 30 105.8 32 C 105.8 32.1 105.8 32.2 105.8 32.4 C 105.84 32.38 99 32.4 99 32.4 Z M 104.3 31.3 C 104.3 31.3 104.26 31.3 104.3 31.3 C 104.2 30.3 103.7 28.9 101.7 28.9 C 100 28.9 99.2 30 99.1 31.3 C 99.07 31.3 99.1 31.3 99.1 31.3 L 104.3 31.3 Z M 108.1 30 C 108.1 29.3 108.1 28.6 108.1 28 C 108.1 28 109.6 28 109.6 28 C 109.6 28.3 109.6 28.9 109.6 29.5 C 110 28.7 110.8 27.8 112.6 27.8 C 114.5 27.8 115.7 28.9 115.7 31.2 C 115.71 31.15 115.7 36.1 115.7 36.1 L 114.2 36.1 C 114.2 36.1 114.18 31.42 114.2 31.4 C 114.2 30.1 113.7 29 112.2 29 C 110.5 29 109.7 30.3 109.7 32.2 C 109.65 32.2 109.7 36.1 109.7 36.1 L 108.1 36.1 C 108.1 36.1 108.12 30.02 108.1 30 Z M 126.4 24.1 C 126.4 24.1 126.4 33.73 126.4 33.7 C 126.4 34.5 126.4 35.3 126.4 36.1 C 126.4 36.1 124.9 36.1 124.9 36.1 C 124.9 35.7 124.9 35.2 124.9 34.8 C 124.5 35.5 123.8 36.3 121.9 36.3 C 119.6 36.3 118 34.6 118 32.1 C 118 32.1 118 32.1 118 32.1 C 118 29.4 120 27.8 122.1 27.8 C 124 27.8 124.6 28.6 124.9 29 C 124.87 29 124.9 24.1 124.9 24.1 L 126.4 24.1 Z M 119.5 32.1 C 119.5 32.1 119.5 32.1 119.5 32.1 C 119.5 33.6 120.4 35 122.2 35 C 124.1 35 124.9 33.8 124.9 32 C 124.9 32 124.9 32 124.9 32 C 124.9 30.2 124.3 29 122.3 29 C 120.4 29 119.5 30.5 119.5 32.1 Z M 136.4 34.1 C 136.4 34.9 136.4 35.9 136.4 36.1 C 136.4 36.1 135 36.1 135 36.1 C 134.9 35.8 134.9 35.2 134.9 34.9 C 134.5 35.7 133.6 36.3 131.8 36.3 C 129.6 36.3 128.7 34.9 128.7 33.7 C 128.7 33.7 128.7 33.7 128.7 33.7 C 128.7 31.6 130.6 31.1 132.9 31.1 C 133.9 31.1 134.6 31.1 134.9 31.1 C 134.9 31.1 134.9 30.6 134.9 30.6 C 134.9 29.7 134.5 28.9 132.8 28.9 C 131.2 28.9 130.9 29.6 130.7 30.3 C 130.7 30.34 130.7 30.3 130.7 30.3 L 129.2 30.3 C 129.2 30.3 129.17 30.34 129.2 30.3 C 129.3 29.3 130 27.8 132.8 27.8 C 135.7 27.8 136.4 29.2 136.4 30.5 C 136.4 30.5 136.4 34.1 136.4 34.1 Z M 134.9 32.1 C 134.6 32.1 134.1 32.1 132.9 32.1 C 131.1 32.1 130.2 32.5 130.2 33.6 C 130.2 33.6 130.2 33.6 130.2 33.6 C 130.2 34.4 130.8 35.1 132.2 35.1 C 134.3 35.1 134.9 33.9 134.9 32.5 C 134.9 32.5 134.9 32.1 134.9 32.1 Z M 139.2 30 C 139.2 29.3 139.2 28.6 139.1 28 C 139.1 28 140.6 28 140.6 28 C 140.7 28.3 140.7 28.9 140.7 29.5 C 141 28.7 141.9 27.8 143.6 27.8 C 145.5 27.8 146.7 28.9 146.7 31.2 C 146.74 31.15 146.7 36.1 146.7 36.1 L 145.2 36.1 C 145.2 36.1 145.21 31.42 145.2 31.4 C 145.2 30.1 144.7 29 143.2 29 C 141.5 29 140.7 30.3 140.7 32.2 C 140.68 32.2 140.7 36.1 140.7 36.1 L 139.2 36.1 C 139.2 36.1 139.16 30.02 139.2 30 Z M 148.4 28 L 150 28 L 150 25.4 L 151.6 25.4 L 151.6 28 L 153.7 28 L 153.7 29.2 L 151.6 29.2 C 151.6 29.2 151.55 33.61 151.6 33.6 C 151.6 34.5 151.8 35 152.7 35 C 152.9 35 153.2 34.9 153.5 34.9 C 153.5 34.9 153.5 36 153.5 36 C 153.1 36.1 152.7 36.2 152.2 36.2 C 150.5 36.2 150 35.4 150 33.8 C 150.03 33.81 150 29.2 150 29.2 L 148.4 29.2 L 148.4 28 Z M 161.2 36.1 L 161.2 24.1 L 162.7 24.1 L 162.7 36.1 L 161.2 36.1 Z M 166.5 32.4 C 166.5 32.4 166.53 32.38 166.5 32.4 C 166.6 33.9 167.7 35.1 169.3 35.1 C 170.6 35.1 171.3 34.6 171.7 33.8 C 171.7 33.78 171.7 33.8 171.7 33.8 L 173.2 33.8 C 173.2 33.8 173.22 33.78 173.2 33.8 C 172.8 35 171.6 36.3 169.2 36.3 C 166.3 36.3 165 34.2 165 32.1 C 165 32.1 165 32.1 165 32.1 C 165 29.6 166.6 27.8 169.2 27.8 C 172.3 27.8 173.3 30 173.3 32 C 173.3 32.1 173.3 32.2 173.3 32.4 C 173.34 32.38 166.5 32.4 166.5 32.4 Z M 171.8 31.3 C 171.8 31.3 171.75 31.3 171.8 31.3 C 171.7 30.3 171.2 28.9 169.2 28.9 C 167.5 28.9 166.7 30 166.6 31.3 C 166.56 31.3 166.6 31.3 166.6 31.3 L 171.8 31.3 Z M 181.1 30.2 C 181.1 29.5 181.1 28.7 181 28 C 181 28 182.5 28 182.5 28 C 182.5 28.2 182.6 29.1 182.6 29.8 C 183.1 28.6 184.3 27.7 185.9 27.8 C 185.9 27.8 185.9 29.2 185.9 29.2 C 184 29.2 182.6 30.3 182.6 32.7 C 182.58 32.7 182.6 36.1 182.6 36.1 L 181.1 36.1 C 181.1 36.1 181.06 30.18 181.1 30.2 Z M 195.2 33.7 C 195.2 34.5 195.2 35.3 195.2 36.1 C 195.2 36.1 193.8 36.1 193.8 36.1 C 193.7 35.9 193.7 35.3 193.7 34.7 C 193.3 35.6 192.6 36.3 190.8 36.3 C 189.1 36.3 187.8 35.4 187.8 33 C 187.76 33.01 187.8 28 187.8 28 L 189.3 28 C 189.3 28 189.28 32.73 189.3 32.7 C 189.3 34 189.8 35 191.2 35 C 193 35 193.7 34 193.7 31.6 C 193.7 31.64 193.7 28 193.7 28 L 195.2 28 C 195.2 28 195.22 33.72 195.2 33.7 Z M 198 30 C 198 29.3 198 28.6 198 28 C 198 28 199.5 28 199.5 28 C 199.5 28.3 199.5 28.9 199.5 29.5 C 199.9 28.7 200.7 27.8 202.5 27.8 C 204.4 27.8 205.6 28.9 205.6 31.2 C 205.61 31.15 205.6 36.1 205.6 36.1 L 204.1 36.1 C 204.1 36.1 204.08 31.42 204.1 31.4 C 204.1 30.1 203.6 29 202.1 29 C 200.4 29 199.5 30.3 199.5 32.2 C 199.55 32.2 199.5 36.1 199.5 36.1 L 198 36.1 C 198 36.1 198.02 30.02 198 30 Z M 207.4 38.3 C 208.3 36.4 208.6 34.9 208.8 33.5 C 208.8 33.5 210.3 33.5 210.3 33.5 C 210.2 34.8 209.6 36.9 208.8 38.3 C 208.8 38.3 207.4 38.3 207.4 38.3 Z M 219.1 33.6 C 219.1 33.6 219.13 33.63 219.1 33.6 C 219.4 34.6 220.2 35.1 221.7 35.1 C 223.3 35.1 223.8 34.6 223.8 33.9 C 223.8 33.2 223.4 32.7 221.3 32.5 C 218.5 32.1 218 31.1 218 30.1 C 218 29.1 218.8 27.8 221.4 27.8 C 224.2 27.8 225 29.2 225.1 30.2 C 225.07 30.18 225.1 30.2 225.1 30.2 L 223.5 30.2 C 223.5 30.2 223.54 30.18 223.5 30.2 C 223.4 29.7 223.1 28.9 221.3 28.9 C 219.8 28.9 219.5 29.5 219.5 30 C 219.5 30.6 219.9 31 221.7 31.2 C 224.8 31.6 225.3 32.6 225.3 33.8 C 225.3 35.2 224.2 36.3 221.6 36.3 C 219.3 36.3 217.9 35.3 217.6 33.6 C 217.6 33.63 217.6 33.6 217.6 33.6 L 219.1 33.6 Z M 235.7 32 C 235.7 32 235.7 32 235.7 32 C 235.7 34.3 234.3 36.3 231.3 36.3 C 228.6 36.3 227.1 34.3 227.1 32 C 227.1 32 227.1 32 227.1 32 C 227.1 29.7 228.7 27.8 231.4 27.8 C 234.2 27.8 235.7 29.9 235.7 32 Z M 228.6 32 C 228.6 32 228.6 32 228.6 32 C 228.6 33.6 229.6 35.1 231.4 35.1 C 233.3 35.1 234.1 33.7 234.1 32.1 C 234.1 32.1 234.1 32.1 234.1 32.1 C 234.1 30.4 233.2 29 231.4 29 C 229.5 29 228.6 30.4 228.6 32 Z M 238 30 C 238 29.3 238 28.6 238 28 C 238 28 239.5 28 239.5 28 C 239.5 28.3 239.5 28.9 239.5 29.5 C 239.9 28.7 240.7 27.8 242.5 27.8 C 244.4 27.8 245.6 28.9 245.6 31.2 C 245.59 31.15 245.6 36.1 245.6 36.1 L 244.1 36.1 C 244.1 36.1 244.06 31.42 244.1 31.4 C 244.1 30.1 243.5 29 242 29 C 240.4 29 239.5 30.3 239.5 32.2 C 239.53 32.2 239.5 36.1 239.5 36.1 L 238 36.1 C 238 36.1 238 30.02 238 30 Z M 252.9 28 L 254.5 28 L 254.5 25.4 L 256 25.4 L 256 28 L 258.2 28 L 258.2 29.2 L 256 29.2 C 256 29.2 256.04 33.61 256 33.6 C 256 34.5 256.3 35 257.2 35 C 257.4 35 257.7 34.9 258 34.9 C 258 34.9 258 36 258 36 C 257.6 36.1 257.2 36.2 256.7 36.2 C 255 36.2 254.5 35.4 254.5 33.8 C 254.52 33.81 254.5 29.2 254.5 29.2 L 252.9 29.2 L 252.9 28 Z M 260.9 32.4 C 260.9 32.4 260.91 32.38 260.9 32.4 C 261 33.9 262 35.1 263.7 35.1 C 264.9 35.1 265.6 34.6 266.1 33.8 C 266.08 33.78 266.1 33.8 266.1 33.8 L 267.6 33.8 C 267.6 33.8 267.6 33.78 267.6 33.8 C 267.2 35 266 36.3 263.6 36.3 C 260.7 36.3 259.4 34.2 259.4 32.1 C 259.4 32.1 259.4 32.1 259.4 32.1 C 259.4 29.6 261 27.8 263.6 27.8 C 266.6 27.8 267.7 30 267.7 32 C 267.7 32.1 267.7 32.2 267.7 32.4 C 267.71 32.38 260.9 32.4 260.9 32.4 Z M 266.1 31.3 C 266.1 31.3 266.13 31.3 266.1 31.3 C 266.1 30.3 265.6 28.9 263.6 28.9 C 261.9 28.9 261.1 30 260.9 31.3 C 260.94 31.3 260.9 31.3 260.9 31.3 L 266.1 31.3 Z M 270 28 L 271.5 28 L 271.5 36.1 L 270 36.1 L 270 28 Z M 270 24.1 L 271.5 24.1 L 271.5 25.9 L 270 25.9 L 270 24.1 Z M 274.3 30 C 274.3 29.3 274.3 28.6 274.3 28 C 274.3 28 275.8 28 275.8 28 C 275.8 28.3 275.8 28.9 275.8 29.5 C 276.2 28.7 277 27.8 278.8 27.8 C 280.7 27.8 281.9 28.9 281.9 31.2 C 281.89 31.15 281.9 36.1 281.9 36.1 L 280.4 36.1 C 280.4 36.1 280.36 31.42 280.4 31.4 C 280.4 30.1 279.9 29 278.3 29 C 276.7 29 275.8 30.3 275.8 32.2 C 275.83 32.2 275.8 36.1 275.8 36.1 L 274.3 36.1 C 274.3 36.1 274.31 30.02 274.3 30 Z M 283.6 28 L 285.2 28 L 285.2 25.4 L 286.7 25.4 L 286.7 28 L 288.8 28 L 288.8 29.2 L 286.7 29.2 C 286.7 29.2 286.7 33.61 286.7 33.6 C 286.7 34.5 286.9 35 287.8 35 C 288.1 35 288.4 34.9 288.6 34.9 C 288.6 34.9 288.6 36 288.6 36 C 288.3 36.1 287.8 36.2 287.4 36.2 C 285.7 36.2 285.2 35.4 285.2 33.8 C 285.18 33.81 285.2 29.2 285.2 29.2 L 283.6 29.2 L 283.6 28 Z M 297.1 33.6 C 297.1 33.6 297.1 33.63 297.1 33.6 C 297.4 34.6 298.2 35.1 299.7 35.1 C 301.2 35.1 301.8 34.6 301.8 33.9 C 301.8 33.2 301.4 32.7 299.3 32.5 C 296.5 32.1 295.9 31.1 295.9 30.1 C 295.9 29.1 296.8 27.8 299.4 27.8 C 302.2 27.8 302.9 29.2 303 30.2 C 303.03 30.18 303 30.2 303 30.2 L 301.5 30.2 C 301.5 30.2 301.51 30.18 301.5 30.2 C 301.4 29.7 301.1 28.9 299.3 28.9 C 297.8 28.9 297.5 29.5 297.5 30 C 297.5 30.6 297.8 31 299.7 31.2 C 302.7 31.6 303.3 32.6 303.3 33.8 C 303.3 35.2 302.2 36.3 299.6 36.3 C 297.2 36.3 295.8 35.3 295.6 33.6 C 295.56 33.63 295.6 33.6 295.6 33.6 L 297.1 33.6 Z M 306.6 32.4 C 306.6 32.4 306.57 32.38 306.6 32.4 C 306.7 33.9 307.7 35.1 309.3 35.1 C 310.6 35.1 311.3 34.6 311.7 33.8 C 311.75 33.78 311.7 33.8 311.7 33.8 L 313.3 33.8 C 313.3 33.8 313.27 33.78 313.3 33.8 C 312.8 35 311.7 36.3 309.3 36.3 C 306.4 36.3 305 34.2 305 32.1 C 305 32.1 305 32.1 305 32.1 C 305 29.6 306.7 27.8 309.2 27.8 C 312.3 27.8 313.4 30 313.4 32 C 313.4 32.1 313.4 32.2 313.4 32.4 C 313.38 32.38 306.6 32.4 306.6 32.4 Z M 311.8 31.3 C 311.8 31.3 311.8 31.3 311.8 31.3 C 311.7 30.3 311.2 28.9 309.2 28.9 C 307.6 28.9 306.7 30 306.6 31.3 C 306.61 31.3 306.6 31.3 306.6 31.3 L 311.8 31.3 Z M 315.7 30.2 C 315.7 29.5 315.7 28.7 315.7 28 C 315.7 28 317.1 28 317.1 28 C 317.2 28.2 317.2 29.1 317.2 29.8 C 317.7 28.6 318.9 27.7 320.5 27.8 C 320.5 27.8 320.5 29.2 320.5 29.2 C 318.6 29.2 317.2 30.3 317.2 32.7 C 317.19 32.7 317.2 36.1 317.2 36.1 L 315.7 36.1 C 315.7 36.1 315.67 30.18 315.7 30.2 Z M 329.4 34.1 C 329.4 34.9 329.4 35.9 329.4 36.1 C 329.4 36.1 328 36.1 328 36.1 C 327.9 35.8 327.9 35.2 327.9 34.9 C 327.5 35.7 326.5 36.3 324.8 36.3 C 322.5 36.3 321.7 34.9 321.7 33.7 C 321.7 33.7 321.7 33.7 321.7 33.7 C 321.7 31.6 323.6 31.1 325.9 31.1 C 326.9 31.1 327.6 31.1 327.9 31.1 C 327.9 31.1 327.9 30.6 327.9 30.6 C 327.9 29.7 327.5 28.9 325.8 28.9 C 324.2 28.9 323.9 29.6 323.7 30.3 C 323.69 30.34 323.7 30.3 323.7 30.3 L 322.2 30.3 C 322.2 30.3 322.17 30.34 322.2 30.3 C 322.3 29.3 323 27.8 325.8 27.8 C 328.7 27.8 329.4 29.2 329.4 30.5 C 329.4 30.5 329.4 34.1 329.4 34.1 Z M 327.9 32.1 C 327.6 32.1 327.1 32.1 325.9 32.1 C 324.1 32.1 323.2 32.5 323.2 33.6 C 323.2 33.6 323.2 33.6 323.2 33.6 C 323.2 34.4 323.8 35.1 325.1 35.1 C 327.3 35.1 327.9 33.9 327.9 32.5 C 327.9 32.5 327.9 32.1 327.9 32.1 Z M 337.7 30 C 337.7 29.3 337.7 28.6 337.7 28 C 337.7 28 339.2 28 339.2 28 C 339.2 28.3 339.3 28.9 339.3 29.5 C 339.6 28.7 340.5 27.8 342.2 27.8 C 344.1 27.8 345.3 28.9 345.3 31.2 C 345.33 31.15 345.3 36.1 345.3 36.1 L 343.8 36.1 C 343.8 36.1 343.8 31.42 343.8 31.4 C 343.8 30.1 343.3 29 341.8 29 C 340.1 29 339.3 30.3 339.3 32.2 C 339.27 32.2 339.3 36.1 339.3 36.1 L 337.7 36.1 C 337.7 36.1 337.74 30.02 337.7 30 Z M 355.3 34.1 C 355.3 34.9 355.3 35.9 355.3 36.1 C 355.3 36.1 353.9 36.1 353.9 36.1 C 353.8 35.8 353.8 35.2 353.8 34.9 C 353.4 35.7 352.5 36.3 350.7 36.3 C 348.4 36.3 347.6 34.9 347.6 33.7 C 347.6 33.7 347.6 33.7 347.6 33.7 C 347.6 31.6 349.5 31.1 351.8 31.1 C 352.8 31.1 353.5 31.1 353.8 31.1 C 353.8 31.1 353.8 30.6 353.8 30.6 C 353.8 29.7 353.4 28.9 351.7 28.9 C 350.1 28.9 349.8 29.6 349.6 30.3 C 349.59 30.34 349.6 30.3 349.6 30.3 L 348.1 30.3 C 348.1 30.3 348.07 30.34 348.1 30.3 C 348.2 29.3 348.9 27.8 351.7 27.8 C 354.6 27.8 355.3 29.2 355.3 30.5 C 355.3 30.5 355.3 34.1 355.3 34.1 Z M 353.8 32.1 C 353.5 32.1 353 32.1 351.8 32.1 C 350 32.1 349.1 32.5 349.1 33.6 C 349.1 33.6 349.1 33.6 349.1 33.6 C 349.1 34.4 349.7 35.1 351 35.1 C 353.2 35.1 353.8 33.9 353.8 32.5 C 353.8 32.5 353.8 32.1 353.8 32.1 Z M 357 28 L 358.6 28 L 358.6 25.4 L 360.2 25.4 L 360.2 28 L 362.3 28 L 362.3 29.2 L 360.2 29.2 C 360.2 29.2 360.16 33.61 360.2 33.6 C 360.2 34.5 360.4 35 361.3 35 C 361.5 35 361.8 34.9 362.1 34.9 C 362.1 34.9 362.1 36 362.1 36 C 361.7 36.1 361.3 36.2 360.8 36.2 C 359.1 36.2 358.6 35.4 358.6 33.8 C 358.63 33.81 358.6 29.2 358.6 29.2 L 357 29.2 L 357 28 Z M 371.7 33.7 C 371.7 34.5 371.7 35.3 371.7 36.1 C 371.7 36.1 370.2 36.1 370.2 36.1 C 370.2 35.9 370.2 35.3 370.2 34.7 C 369.8 35.6 369.1 36.3 367.3 36.3 C 365.6 36.3 364.2 35.4 364.2 33 C 364.24 33.01 364.2 28 364.2 28 L 365.8 28 C 365.8 28 365.76 32.73 365.8 32.7 C 365.8 34 366.2 35 367.7 35 C 369.4 35 370.2 34 370.2 31.6 C 370.18 31.64 370.2 28 370.2 28 L 371.7 28 C 371.7 28 371.71 33.72 371.7 33.7 Z M 374.5 30.2 C 374.5 29.5 374.5 28.7 374.5 28 C 374.5 28 376 28 376 28 C 376 28.2 376 29.1 376 29.8 C 376.6 28.6 377.7 27.7 379.3 27.8 C 379.3 27.8 379.3 29.2 379.3 29.2 C 377.4 29.2 376 30.3 376 32.7 C 376.03 32.7 376 36.1 376 36.1 L 374.5 36.1 C 374.5 36.1 374.51 30.18 374.5 30.2 Z M 382 32.4 C 382 32.4 381.99 32.38 382 32.4 C 382.1 33.9 383.1 35.1 384.8 35.1 C 386 35.1 386.7 34.6 387.2 33.8 C 387.16 33.78 387.2 33.8 387.2 33.8 L 388.7 33.8 C 388.7 33.8 388.68 33.78 388.7 33.8 C 388.2 35 387.1 36.3 384.7 36.3 C 381.8 36.3 380.5 34.2 380.5 32.1 C 380.5 32.1 380.5 32.1 380.5 32.1 C 380.5 29.6 382.1 27.8 384.6 27.8 C 387.7 27.8 388.8 30 388.8 32 C 388.8 32.1 388.8 32.2 388.8 32.4 C 388.8 32.38 382 32.4 382 32.4 Z M 387.2 31.3 C 387.2 31.3 387.22 31.3 387.2 31.3 C 387.1 30.3 386.6 28.9 384.6 28.9 C 383 28.9 382.2 30 382 31.3 C 382.02 31.3 382 31.3 382 31.3 L 387.2 31.3 Z M 391.1 36.1 L 391.1 24.1 L 392.6 24.1 L 392.6 36.1 L 391.1 36.1 Z M 395.4 36.1 L 395.4 24.1 L 396.9 24.1 L 396.9 36.1 L 395.4 36.1 Z M 400.7 32.4 C 400.7 32.4 400.75 32.38 400.7 32.4 C 400.8 33.9 401.9 35.1 403.5 35.1 C 404.8 35.1 405.5 34.6 405.9 33.8 C 405.92 33.78 405.9 33.8 405.9 33.8 L 407.4 33.8 C 407.4 33.8 407.44 33.78 407.4 33.8 C 407 35 405.9 36.3 403.4 36.3 C 400.5 36.3 399.2 34.2 399.2 32.1 C 399.2 32.1 399.2 32.1 399.2 32.1 C 399.2 29.6 400.8 27.8 403.4 27.8 C 406.5 27.8 407.6 30 407.6 32 C 407.6 32.1 407.6 32.2 407.6 32.4 C 407.56 32.38 400.7 32.4 400.7 32.4 Z M 406 31.3 C 406 31.3 405.98 31.3 406 31.3 C 405.9 30.3 405.4 28.9 403.4 28.9 C 401.7 28.9 400.9 30 400.8 31.3 C 400.78 31.3 400.8 31.3 400.8 31.3 L 406 31.3 Z M 409.8 30.1 C 409.8 29.4 409.8 28.7 409.8 28 C 409.8 28 411.3 28 411.3 28 C 411.3 28.3 411.3 28.8 411.3 29.2 C 411.8 28.5 412.5 27.8 414 27.8 C 415.3 27.8 416.1 28.4 416.4 29.3 C 416.9 28.6 417.6 27.8 419.2 27.8 C 420.8 27.8 422.1 28.7 422.1 31.1 C 422.12 31.08 422.1 36.1 422.1 36.1 L 420.6 36.1 C 420.6 36.1 420.62 31.13 420.6 31.1 C 420.6 30.2 420.3 29 418.9 29 C 417.6 29 416.7 29.9 416.7 31.6 C 416.74 31.64 416.7 36.1 416.7 36.1 L 415.2 36.1 C 415.2 36.1 415.23 31.06 415.2 31.1 C 415.2 30.1 414.9 29 413.5 29 C 411.9 29 411.4 30.2 411.4 31.8 C 411.35 31.75 411.4 36.1 411.4 36.1 L 409.8 36.1 C 409.8 36.1 409.84 30.07 409.8 30.1 Z M 426 32.4 C 426 32.4 425.97 32.38 426 32.4 C 426.1 33.9 427.1 35.1 428.7 35.1 C 430 35.1 430.7 34.6 431.1 33.8 C 431.14 33.78 431.1 33.8 431.1 33.8 L 432.7 33.8 C 432.7 33.8 432.66 33.78 432.7 33.8 C 432.2 35 431.1 36.3 428.7 36.3 C 425.8 36.3 424.4 34.2 424.4 32.1 C 424.4 32.1 424.4 32.1 424.4 32.1 C 424.4 29.6 426.1 27.8 428.6 27.8 C 431.7 27.8 432.8 30 432.8 32 C 432.8 32.1 432.8 32.2 432.8 32.4 C 432.77 32.38 426 32.4 426 32.4 Z M 431.2 31.3 C 431.2 31.3 431.19 31.3 431.2 31.3 C 431.1 30.3 430.6 28.9 428.6 28.9 C 427 28.9 426.1 30 426 31.3 C 426 31.3 426 31.3 426 31.3 L 431.2 31.3 Z M 435.1 30 C 435.1 29.3 435.1 28.6 435 28 C 435 28 436.5 28 436.5 28 C 436.6 28.3 436.6 28.9 436.6 29.5 C 436.9 28.7 437.8 27.8 439.5 27.8 C 441.4 27.8 442.6 28.9 442.6 31.2 C 442.64 31.15 442.6 36.1 442.6 36.1 L 441.1 36.1 C 441.1 36.1 441.11 31.42 441.1 31.4 C 441.1 30.1 440.6 29 439.1 29 C 437.4 29 436.6 30.3 436.6 32.2 C 436.58 32.2 436.6 36.1 436.6 36.1 L 435.1 36.1 C 435.1 36.1 435.06 30.02 435.1 30 Z M 444.3 28 L 445.9 28 L 445.9 25.4 L 447.5 25.4 L 447.5 28 L 449.6 28 L 449.6 29.2 L 447.5 29.2 C 447.5 29.2 447.46 33.61 447.5 33.6 C 447.5 34.5 447.7 35 448.6 35 C 448.8 35 449.1 34.9 449.4 34.9 C 449.4 34.9 449.4 36 449.4 36 C 449 36.1 448.6 36.2 448.1 36.2 C 446.4 36.2 445.9 35.4 445.9 33.8 C 445.93 33.81 445.9 29.2 445.9 29.2 L 444.3 29.2 L 444.3 28 Z " stroke="none" fill="#fafafa" filter="url(#shadow_11456)"/>  </g>  <g id="Polygon11455">    <path d="M 1.6 0.4 L 3.2 0.4 L 3.2 10.4 L 10.1 10.4 L 9.8 11.8 L 1.6 11.8 L 1.6 0.4 Z M 12.9 8.1 C 12.9 8.1 12.9 8.06 12.9 8.1 C 13 9.6 14 10.8 15.7 10.8 C 16.9 10.8 17.6 10.2 18.1 9.5 C 18.07 9.46 18.1 9.5 18.1 9.5 L 19.6 9.5 C 19.6 9.5 19.59 9.46 19.6 9.5 C 19.2 10.7 18 12 15.6 12 C 12.7 12 11.4 9.9 11.4 7.7 C 11.4 7.7 11.4 7.7 11.4 7.7 C 11.4 5.3 13 3.4 15.6 3.4 C 18.6 3.4 19.7 5.7 19.7 7.7 C 19.7 7.8 19.7 7.9 19.7 8.1 C 19.7 8.06 12.9 8.1 12.9 8.1 Z M 18.1 7 C 18.1 7 18.12 6.98 18.1 7 C 18.1 6 17.5 4.6 15.5 4.6 C 13.9 4.6 13.1 5.7 12.9 7 C 12.93 6.98 12.9 7 12.9 7 L 18.1 7 Z M 27.6 5.8 C 27.6 5.1 27.6 4.4 27.6 3.7 C 27.6 3.7 29.1 3.7 29.1 3.7 C 29.1 4 29.1 4.4 29.1 4.9 C 29.6 4.2 30.3 3.4 31.8 3.4 C 33.1 3.4 33.9 4.1 34.2 5 C 34.7 4.3 35.4 3.4 37 3.4 C 38.6 3.4 39.9 4.4 39.9 6.8 C 39.92 6.76 39.9 11.8 39.9 11.8 L 38.4 11.8 C 38.4 11.8 38.42 6.81 38.4 6.8 C 38.4 5.9 38.1 4.7 36.7 4.7 C 35.4 4.7 34.5 5.6 34.5 7.3 C 34.54 7.32 34.5 11.8 34.5 11.8 L 33 11.8 C 33 11.8 33.03 6.74 33 6.7 C 33 5.8 32.7 4.7 31.3 4.7 C 29.7 4.7 29.2 5.9 29.2 7.4 C 29.15 7.43 29.2 11.8 29.2 11.8 L 27.6 11.8 C 27.6 11.8 27.64 5.75 27.6 5.8 Z M 49.9 9.8 C 49.9 10.5 49.9 11.6 50 11.8 C 50 11.8 48.5 11.8 48.5 11.8 C 48.4 11.5 48.4 10.8 48.4 10.6 C 48 11.4 47.1 12 45.4 12 C 43.1 12 42.2 10.6 42.2 9.4 C 42.2 9.4 42.2 9.4 42.2 9.4 C 42.2 7.3 44.1 6.7 46.4 6.7 C 47.4 6.7 48.1 6.7 48.4 6.7 C 48.4 6.7 48.4 6.3 48.4 6.3 C 48.4 5.4 48 4.6 46.3 4.6 C 44.7 4.6 44.4 5.3 44.2 6 C 44.21 6.02 44.2 6 44.2 6 L 42.7 6 C 42.7 6 42.69 6.02 42.7 6 C 42.8 4.9 43.5 3.4 46.3 3.4 C 49.2 3.4 49.9 4.9 49.9 6.2 C 49.9 6.2 49.9 9.8 49.9 9.8 Z M 48.4 7.8 C 48.1 7.8 47.6 7.8 46.5 7.8 C 44.6 7.8 43.7 8.2 43.7 9.3 C 43.7 9.3 43.7 9.3 43.7 9.3 C 43.7 10.1 44.3 10.8 45.7 10.8 C 47.8 10.8 48.4 9.5 48.4 8.2 C 48.4 8.2 48.4 7.8 48.4 7.8 Z M 59.1 10.5 C 58.6 11.3 57.8 12 56.1 12 C 53.8 12 52.1 10.2 52.1 7.8 C 52.1 7.8 52.1 7.8 52.1 7.8 C 52.1 5 54.2 3.4 56.2 3.4 C 58.1 3.4 58.9 4.4 59.1 4.8 C 59.1 4.3 59.1 3.9 59.1 3.7 C 59.1 3.7 60.6 3.7 60.6 3.7 C 60.6 4.3 60.6 5.2 60.6 5.9 C 60.58 5.94 60.6 15.3 60.6 15.3 L 59.1 15.3 C 59.1 15.3 59.05 10.52 59.1 10.5 Z M 53.7 7.7 C 53.7 7.7 53.7 7.7 53.7 7.7 C 53.7 9.4 54.7 10.7 56.3 10.7 C 58.1 10.7 59.1 9.7 59.1 7.7 C 59.1 7.7 59.1 7.7 59.1 7.7 C 59.1 6 58.3 4.7 56.4 4.7 C 54.6 4.7 53.7 6.1 53.7 7.7 Z M 70.8 9.4 C 70.8 10.2 70.8 11 70.8 11.8 C 70.8 11.8 69.4 11.8 69.4 11.8 C 69.3 11.5 69.3 11 69.3 10.4 C 68.9 11.3 68.2 12 66.4 12 C 64.7 12 63.3 11 63.3 8.7 C 63.35 8.69 63.3 3.7 63.3 3.7 L 64.9 3.7 C 64.9 3.7 64.87 8.41 64.9 8.4 C 64.9 9.6 65.4 10.7 66.8 10.7 C 68.6 10.7 69.3 9.7 69.3 7.3 C 69.29 7.32 69.3 3.7 69.3 3.7 L 70.8 3.7 C 70.8 3.7 70.81 9.4 70.8 9.4 Z M 73.6 3.7 L 75.1 3.7 L 75.1 11.8 L 73.6 11.8 L 73.6 3.7 Z M 73.6 -0.3 L 75.1 -0.3 L 75.1 1.6 L 73.6 1.6 L 73.6 -0.3 Z M 77.9 11.8 L 77.9 -0.3 L 79.4 -0.3 L 79.4 11.8 L 77.9 11.8 Z M 82.2 11.8 L 82.2 -0.3 L 83.7 -0.3 L 83.7 11.8 L 82.2 11.8 Z M 93.7 9.8 C 93.7 10.5 93.7 11.6 93.8 11.8 C 93.8 11.8 92.3 11.8 92.3 11.8 C 92.3 11.5 92.2 10.8 92.2 10.6 C 91.8 11.4 90.9 12 89.2 12 C 86.9 12 86 10.6 86 9.4 C 86 9.4 86 9.4 86 9.4 C 86 7.3 87.9 6.7 90.2 6.7 C 91.2 6.7 91.9 6.7 92.2 6.7 C 92.2 6.7 92.2 6.3 92.2 6.3 C 92.2 5.4 91.8 4.6 90.1 4.6 C 88.5 4.6 88.2 5.3 88 6 C 88.02 6.02 88 6 88 6 L 86.5 6 C 86.5 6 86.5 6.02 86.5 6 C 86.6 4.9 87.3 3.4 90.1 3.4 C 93 3.4 93.7 4.9 93.7 6.2 C 93.7 6.2 93.7 9.8 93.7 9.8 Z M 92.2 7.8 C 91.9 7.8 91.4 7.8 90.3 7.8 C 88.4 7.8 87.5 8.2 87.5 9.3 C 87.5 9.3 87.5 9.3 87.5 9.3 C 87.5 10.1 88.1 10.8 89.5 10.8 C 91.6 10.8 92.2 9.5 92.2 8.2 C 92.2 8.2 92.2 7.8 92.2 7.8 Z M 104.3 10.7 C 104.3 13.7 103.3 15.5 100 15.5 C 96.8 15.5 96.2 13.7 96 12.8 C 96.02 12.75 96 12.8 96 12.8 L 97.6 12.8 C 97.6 12.8 97.57 12.75 97.6 12.8 C 97.8 13.6 98.4 14.3 100.1 14.3 C 102.5 14.3 102.8 12.8 102.8 10.8 C 102.8 10.8 102.8 10.3 102.8 10.3 C 102.4 11.3 101.5 11.9 99.8 11.9 C 97.5 11.9 95.9 10.1 95.9 7.8 C 95.9 7.8 95.9 7.8 95.9 7.8 C 95.9 5.2 97.8 3.4 100 3.4 C 101.9 3.4 102.6 4.3 102.8 4.9 C 102.9 4.5 102.9 3.9 102.9 3.7 C 102.9 3.7 104.4 3.7 104.4 3.7 C 104.3 4.4 104.3 5.2 104.3 6 C 104.3 6 104.3 10.7 104.3 10.7 Z M 97.5 7.7 C 97.5 7.7 97.5 7.7 97.5 7.7 C 97.5 9.4 98.6 10.6 100.2 10.6 C 101.9 10.6 102.9 9.6 102.9 7.7 C 102.9 7.7 102.9 7.7 102.9 7.7 C 102.9 5.8 101.9 4.7 100.3 4.7 C 98.4 4.7 97.5 6.2 97.5 7.7 Z M 108.2 8.1 C 108.2 8.1 108.18 8.06 108.2 8.1 C 108.3 9.6 109.3 10.8 110.9 10.8 C 112.2 10.8 112.9 10.2 113.3 9.5 C 113.35 9.46 113.3 9.5 113.3 9.5 L 114.9 9.5 C 114.9 9.5 114.87 9.46 114.9 9.5 C 114.4 10.7 113.3 12 110.9 12 C 108 12 106.6 9.9 106.6 7.7 C 106.6 7.7 106.6 7.7 106.6 7.7 C 106.6 5.3 108.3 3.4 110.8 3.4 C 113.9 3.4 115 5.7 115 7.7 C 115 7.8 115 7.9 115 8.1 C 114.98 8.06 108.2 8.1 108.2 8.1 Z M 113.4 7 C 113.4 7 113.4 6.98 113.4 7 C 113.3 6 112.8 4.6 110.8 4.6 C 109.2 4.6 108.3 5.7 108.2 7 C 108.21 6.98 108.2 7 108.2 7 L 113.4 7 Z M 130.7 -0.3 C 130.7 -0.3 130.74 9.41 130.7 9.4 C 130.7 10.2 130.7 11 130.8 11.8 C 130.8 11.8 129.3 11.8 129.3 11.8 C 129.2 11.4 129.2 10.9 129.2 10.5 C 128.8 11.2 128.1 12 126.2 12 C 123.9 12 122.3 10.2 122.3 7.8 C 122.3 7.8 122.3 7.8 122.3 7.8 C 122.3 5.1 124.3 3.4 126.4 3.4 C 128.3 3.4 129 4.3 129.2 4.7 C 129.22 4.68 129.2 -0.3 129.2 -0.3 L 130.7 -0.3 Z M 123.9 7.7 C 123.9 7.7 123.9 7.7 123.9 7.7 C 123.9 9.2 124.8 10.7 126.6 10.7 C 128.5 10.7 129.3 9.5 129.3 7.7 C 129.3 7.7 129.3 7.7 129.3 7.7 C 129.3 5.9 128.6 4.7 126.6 4.7 C 124.8 4.7 123.9 6.2 123.9 7.7 Z M 133.3 4.4 C 133.7 3.1 134.1 1.3 134.2 -0.3 C 134.2 -0.3 135.7 -0.3 135.7 -0.3 C 135.6 1.1 135.1 3.3 134.6 4.4 C 134.6 4.4 133.3 4.4 133.3 4.4 Z M 139 8.3 L 137.5 11.8 L 135.9 11.8 L 140.8 0.4 L 142.7 0.4 L 147.8 11.8 L 146 11.8 L 144.5 8.3 L 139 8.3 Z M 144 6.9 C 142.6 3.8 141.9 2.3 141.7 1.6 C 141.7 1.6 141.7 1.6 141.7 1.6 C 141.4 2.3 140.7 4.2 139.5 6.9 C 139.5 6.9 144 6.9 144 6.9 Z M 149.7 5.7 C 149.7 5 149.7 4.3 149.7 3.7 C 149.7 3.7 151.2 3.7 151.2 3.7 C 151.2 3.9 151.2 4.6 151.2 5.2 C 151.6 4.4 152.4 3.4 154.2 3.4 C 156.1 3.4 157.3 4.6 157.3 6.8 C 157.3 6.83 157.3 11.8 157.3 11.8 L 155.8 11.8 C 155.8 11.8 155.77 7.1 155.8 7.1 C 155.8 5.8 155.3 4.7 153.8 4.7 C 152.1 4.7 151.2 6 151.2 7.9 C 151.24 7.88 151.2 11.8 151.2 11.8 L 149.7 11.8 C 149.7 11.8 149.71 5.7 149.7 5.7 Z M 160.1 5.7 C 160.1 5 160.1 4.3 160.1 3.7 C 160.1 3.7 161.5 3.7 161.5 3.7 C 161.6 3.9 161.6 4.6 161.6 5.2 C 161.9 4.4 162.8 3.4 164.5 3.4 C 166.4 3.4 167.7 4.6 167.7 6.8 C 167.66 6.83 167.7 11.8 167.7 11.8 L 166.1 11.8 C 166.1 11.8 166.13 7.1 166.1 7.1 C 166.1 5.8 165.6 4.7 164.1 4.7 C 162.4 4.7 161.6 6 161.6 7.9 C 161.6 7.88 161.6 11.8 161.6 11.8 L 160.1 11.8 C 160.1 11.8 160.07 5.7 160.1 5.7 Z M 177.6 9.8 C 177.6 10.5 177.6 11.6 177.7 11.8 C 177.7 11.8 176.2 11.8 176.2 11.8 C 176.2 11.5 176.1 10.8 176.1 10.6 C 175.7 11.4 174.8 12 173.1 12 C 170.8 12 169.9 10.6 169.9 9.4 C 169.9 9.4 169.9 9.4 169.9 9.4 C 169.9 7.3 171.8 6.7 174.1 6.7 C 175.1 6.7 175.8 6.7 176.1 6.7 C 176.1 6.7 176.1 6.3 176.1 6.3 C 176.1 5.4 175.7 4.6 174 4.6 C 172.5 4.6 172.1 5.3 171.9 6 C 171.93 6.02 171.9 6 171.9 6 L 170.4 6 C 170.4 6 170.4 6.02 170.4 6 C 170.5 4.9 171.2 3.4 174 3.4 C 176.9 3.4 177.6 4.9 177.6 6.2 C 177.6 6.2 177.6 9.8 177.6 9.8 Z M 176.1 7.8 C 175.9 7.8 175.3 7.8 174.2 7.8 C 172.3 7.8 171.4 8.2 171.4 9.3 C 171.4 9.3 171.4 9.3 171.4 9.3 C 171.4 10.1 172 10.8 173.4 10.8 C 175.5 10.8 176.1 9.5 176.1 8.2 C 176.1 8.2 176.1 7.8 176.1 7.8 Z M 187 9.3 C 187 9.3 186.97 9.31 187 9.3 C 187.3 10.3 188.1 10.8 189.5 10.8 C 191.1 10.8 191.7 10.3 191.7 9.6 C 191.7 8.9 191.2 8.4 189.2 8.2 C 186.3 7.8 185.8 6.8 185.8 5.8 C 185.8 4.8 186.6 3.4 189.2 3.4 C 192 3.4 192.8 4.9 192.9 5.9 C 192.91 5.86 192.9 5.9 192.9 5.9 L 191.4 5.9 C 191.4 5.9 191.38 5.86 191.4 5.9 C 191.3 5.4 190.9 4.6 189.1 4.6 C 187.6 4.6 187.3 5.2 187.3 5.7 C 187.3 6.3 187.7 6.6 189.6 6.9 C 192.6 7.3 193.2 8.2 193.2 9.4 C 193.2 10.9 192.1 12 189.5 12 C 187.1 12 185.7 11 185.4 9.3 C 185.44 9.31 185.4 9.3 185.4 9.3 L 187 9.3 Z M 196.5 8.1 C 196.5 8.1 196.45 8.06 196.5 8.1 C 196.5 9.6 197.6 10.8 199.2 10.8 C 200.5 10.8 201.2 10.2 201.6 9.5 C 201.62 9.46 201.6 9.5 201.6 9.5 L 203.1 9.5 C 203.1 9.5 203.14 9.46 203.1 9.5 C 202.7 10.7 201.6 12 199.1 12 C 196.2 12 194.9 9.9 194.9 7.7 C 194.9 7.7 194.9 7.7 194.9 7.7 C 194.9 5.3 196.6 3.4 199.1 3.4 C 202.2 3.4 203.3 5.7 203.3 7.7 C 203.3 7.8 203.3 7.9 203.3 8.1 C 203.26 8.06 196.5 8.1 196.5 8.1 Z M 201.7 7 C 201.7 7 201.68 6.98 201.7 7 C 201.6 6 201.1 4.6 199.1 4.6 C 197.4 4.6 196.6 5.7 196.5 7 C 196.48 6.98 196.5 7 196.5 7 L 201.7 7 Z M 205.5 5.9 C 205.5 5.1 205.5 4.4 205.5 3.7 C 205.5 3.7 207 3.7 207 3.7 C 207 3.9 207.1 4.8 207.1 5.5 C 207.6 4.2 208.8 3.4 210.3 3.4 C 210.3 3.4 210.3 4.9 210.3 4.9 C 208.5 4.9 207.1 6 207.1 8.4 C 207.07 8.38 207.1 11.8 207.1 11.8 L 205.5 11.8 C 205.5 11.8 205.55 5.86 205.5 5.9 Z M 219.2 9.8 C 219.2 10.5 219.3 11.6 219.3 11.8 C 219.3 11.8 217.9 11.8 217.9 11.8 C 217.8 11.5 217.8 10.8 217.8 10.6 C 217.3 11.4 216.4 12 214.7 12 C 212.4 12 211.6 10.6 211.6 9.4 C 211.6 9.4 211.6 9.4 211.6 9.4 C 211.6 7.3 213.5 6.7 215.8 6.7 C 216.8 6.7 217.5 6.7 217.7 6.7 C 217.7 6.7 217.7 6.3 217.7 6.3 C 217.7 5.4 217.4 4.6 215.6 4.6 C 214.1 4.6 213.7 5.3 213.6 6 C 213.57 6.02 213.6 6 213.6 6 L 212 6 C 212 6 212.04 6.02 212 6 C 212.1 4.9 212.9 3.4 215.6 3.4 C 218.6 3.4 219.2 4.9 219.2 6.2 C 219.2 6.2 219.2 9.8 219.2 9.8 Z M 217.7 7.8 C 217.5 7.8 217 7.8 215.8 7.8 C 214 7.8 213.1 8.2 213.1 9.3 C 213.1 9.3 213.1 9.3 213.1 9.3 C 213.1 10.1 213.7 10.8 215 10.8 C 217.2 10.8 217.7 9.5 217.7 8.2 C 217.7 8.2 217.7 7.8 217.7 7.8 Z M 228.6 9.3 C 228.6 9.3 228.61 9.31 228.6 9.3 C 228.9 10.3 229.7 10.8 231.2 10.8 C 232.7 10.8 233.3 10.3 233.3 9.6 C 233.3 8.9 232.9 8.4 230.8 8.2 C 228 7.8 227.4 6.8 227.4 5.8 C 227.4 4.8 228.3 3.4 230.9 3.4 C 233.7 3.4 234.5 4.9 234.6 5.9 C 234.55 5.86 234.6 5.9 234.6 5.9 L 233 5.9 C 233 5.9 233.02 5.86 233 5.9 C 232.9 5.4 232.6 4.6 230.8 4.6 C 229.3 4.6 229 5.2 229 5.7 C 229 6.3 229.4 6.6 231.2 6.9 C 234.2 7.3 234.8 8.2 234.8 9.4 C 234.8 10.9 233.7 12 231.1 12 C 228.7 12 227.4 11 227.1 9.3 C 227.08 9.31 227.1 9.3 227.1 9.3 L 228.6 9.3 Z M 244.5 9.4 C 244.5 10.2 244.5 11 244.5 11.8 C 244.5 11.8 243.1 11.8 243.1 11.8 C 243 11.5 243 11 243 10.4 C 242.6 11.3 241.9 12 240.1 12 C 238.4 12 237 11 237 8.7 C 237.04 8.69 237 3.7 237 3.7 L 238.6 3.7 C 238.6 3.7 238.56 8.41 238.6 8.4 C 238.6 9.6 239 10.7 240.5 10.7 C 242.2 10.7 243 9.7 243 7.3 C 242.99 7.32 243 3.7 243 3.7 L 244.5 3.7 C 244.5 3.7 244.51 9.4 244.5 9.4 Z M 248.8 10.6 C 248.83 10.56 248.8 15.3 248.8 15.3 L 247.3 15.3 C 247.3 15.3 247.31 5.68 247.3 5.7 C 247.3 5 247.3 4.3 247.3 3.7 C 247.3 3.7 248.8 3.7 248.8 3.7 C 248.8 3.9 248.8 4.4 248.8 5.1 C 249.3 4.2 250.3 3.4 251.9 3.4 C 254.1 3.4 255.7 5.2 255.7 7.6 C 255.7 7.6 255.7 7.6 255.7 7.6 C 255.7 10.2 253.9 12 251.7 12 C 250 12 249.3 11.3 248.8 10.6 Z M 254.2 7.6 C 254.2 7.6 254.2 7.6 254.2 7.6 C 254.2 6.2 253.3 4.7 251.5 4.7 C 249.6 4.7 248.8 6 248.8 7.7 C 248.8 7.7 248.8 7.7 248.8 7.7 C 248.8 9.4 249.7 10.7 251.5 10.7 C 253.3 10.7 254.2 9.3 254.2 7.6 Z M 259.1 8.1 C 259.1 8.1 259.07 8.06 259.1 8.1 C 259.2 9.6 260.2 10.8 261.8 10.8 C 263.1 10.8 263.8 10.2 264.2 9.5 C 264.24 9.46 264.2 9.5 264.2 9.5 L 265.8 9.5 C 265.8 9.5 265.76 9.46 265.8 9.5 C 265.3 10.7 264.2 12 261.8 12 C 258.9 12 257.5 9.9 257.5 7.7 C 257.5 7.7 257.5 7.7 257.5 7.7 C 257.5 5.3 259.2 3.4 261.7 3.4 C 264.8 3.4 265.9 5.7 265.9 7.7 C 265.9 7.8 265.9 7.9 265.9 8.1 C 265.87 8.06 259.1 8.1 259.1 8.1 Z M 264.3 7 C 264.3 7 264.29 6.98 264.3 7 C 264.2 6 263.7 4.6 261.7 4.6 C 260.1 4.6 259.2 5.7 259.1 7 C 259.1 6.98 259.1 7 259.1 7 L 264.3 7 Z M 268.2 5.9 C 268.2 5.1 268.2 4.4 268.1 3.7 C 268.1 3.7 269.6 3.7 269.6 3.7 C 269.7 3.9 269.7 4.8 269.7 5.5 C 270.2 4.2 271.4 3.4 273 3.4 C 273 3.4 273 4.9 273 4.9 C 271.1 4.9 269.7 6 269.7 8.4 C 269.68 8.38 269.7 11.8 269.7 11.8 L 268.2 11.8 C 268.2 11.8 268.16 5.86 268.2 5.9 Z M 280.5 5.7 C 280.5 5 280.5 4.3 280.5 3.7 C 280.5 3.7 282 3.7 282 3.7 C 282 3.9 282 4.6 282.1 5.2 C 282.4 4.4 283.2 3.4 285 3.4 C 286.9 3.4 288.1 4.6 288.1 6.8 C 288.12 6.83 288.1 11.8 288.1 11.8 L 286.6 11.8 C 286.6 11.8 286.59 7.1 286.6 7.1 C 286.6 5.8 286.1 4.7 284.6 4.7 C 282.9 4.7 282.1 6 282.1 7.9 C 282.06 7.88 282.1 11.8 282.1 11.8 L 280.5 11.8 C 280.5 11.8 280.53 5.7 280.5 5.7 Z M 298.1 9.8 C 298.1 10.5 298.1 11.6 298.1 11.8 C 298.1 11.8 296.7 11.8 296.7 11.8 C 296.6 11.5 296.6 10.8 296.6 10.6 C 296.2 11.4 295.2 12 293.5 12 C 291.2 12 290.4 10.6 290.4 9.4 C 290.4 9.4 290.4 9.4 290.4 9.4 C 290.4 7.3 292.3 6.7 294.6 6.7 C 295.6 6.7 296.3 6.7 296.6 6.7 C 296.6 6.7 296.6 6.3 296.6 6.3 C 296.6 5.4 296.2 4.6 294.5 4.6 C 292.9 4.6 292.5 5.3 292.4 6 C 292.38 6.02 292.4 6 292.4 6 L 290.9 6 C 290.9 6 290.86 6.02 290.9 6 C 291 4.9 291.7 3.4 294.5 3.4 C 297.4 3.4 298.1 4.9 298.1 6.2 C 298.1 6.2 298.1 9.8 298.1 9.8 Z M 296.6 7.8 C 296.3 7.8 295.8 7.8 294.6 7.8 C 292.8 7.8 291.9 8.2 291.9 9.3 C 291.9 9.3 291.9 9.3 291.9 9.3 C 291.9 10.1 292.5 10.8 293.8 10.8 C 296 10.8 296.6 9.5 296.6 8.2 C 296.6 8.2 296.6 7.8 296.6 7.8 Z M 299.8 3.7 L 301.4 3.7 L 301.4 1.1 L 302.9 1.1 L 302.9 3.7 L 305.1 3.7 L 305.1 4.9 L 302.9 4.9 C 302.9 4.9 302.95 9.29 302.9 9.3 C 302.9 10.2 303.2 10.6 304.1 10.6 C 304.3 10.6 304.6 10.6 304.9 10.6 C 304.9 10.6 304.9 11.7 304.9 11.7 C 304.5 11.8 304.1 11.8 303.6 11.8 C 301.9 11.8 301.4 11.1 301.4 9.5 C 301.42 9.49 301.4 4.9 301.4 4.9 L 299.8 4.9 L 299.8 3.7 Z M 314.5 9.4 C 314.5 10.2 314.5 11 314.5 11.8 C 314.5 11.8 313 11.8 313 11.8 C 313 11.5 313 11 313 10.4 C 312.6 11.3 311.8 12 310.1 12 C 308.4 12 307 11 307 8.7 C 307.03 8.69 307 3.7 307 3.7 L 308.6 3.7 C 308.6 3.7 308.55 8.41 308.6 8.4 C 308.6 9.6 309 10.7 310.5 10.7 C 312.2 10.7 313 9.7 313 7.3 C 312.97 7.32 313 3.7 313 3.7 L 314.5 3.7 C 314.5 3.7 314.5 9.4 314.5 9.4 Z M 317.3 5.9 C 317.3 5.1 317.3 4.4 317.3 3.7 C 317.3 3.7 318.8 3.7 318.8 3.7 C 318.8 3.9 318.8 4.8 318.8 5.5 C 319.3 4.2 320.5 3.4 322.1 3.4 C 322.1 3.4 322.1 4.9 322.1 4.9 C 320.2 4.9 318.8 6 318.8 8.4 C 318.82 8.38 318.8 11.8 318.8 11.8 L 317.3 11.8 C 317.3 11.8 317.3 5.86 317.3 5.9 Z M 324.8 8.1 C 324.8 8.1 324.78 8.06 324.8 8.1 C 324.9 9.6 325.9 10.8 327.6 10.8 C 328.8 10.8 329.5 10.2 330 9.5 C 329.95 9.46 330 9.5 330 9.5 L 331.5 9.5 C 331.5 9.5 331.47 9.46 331.5 9.5 C 331 10.7 329.9 12 327.5 12 C 324.6 12 323.3 9.9 323.3 7.7 C 323.3 7.7 323.3 7.7 323.3 7.7 C 323.3 5.3 324.9 3.4 327.4 3.4 C 330.5 3.4 331.6 5.7 331.6 7.7 C 331.6 7.8 331.6 7.9 331.6 8.1 C 331.59 8.06 324.8 8.1 324.8 8.1 Z M 330 7 C 330 7 330.01 6.98 330 7 C 329.9 6 329.4 4.6 327.4 4.6 C 325.8 4.6 325 5.7 324.8 7 C 324.81 6.98 324.8 7 324.8 7 L 330 7 Z M 332.7 13.9 C 333.6 12.1 333.9 10.5 334.1 9.1 C 334.1 9.1 335.6 9.1 335.6 9.1 C 335.5 10.5 334.9 12.6 334.1 13.9 C 334.1 13.9 332.7 13.9 332.7 13.9 Z M 344.8 8.1 C 344.8 8.1 344.79 8.06 344.8 8.1 C 344.9 9.6 345.9 10.8 347.6 10.8 C 348.8 10.8 349.5 10.2 350 9.5 C 349.96 9.46 350 9.5 350 9.5 L 351.5 9.5 C 351.5 9.5 351.48 9.46 351.5 9.5 C 351 10.7 349.9 12 347.5 12 C 344.6 12 343.3 9.9 343.3 7.7 C 343.3 7.7 343.3 7.7 343.3 7.7 C 343.3 5.3 344.9 3.4 347.4 3.4 C 350.5 3.4 351.6 5.7 351.6 7.7 C 351.6 7.8 351.6 7.9 351.6 8.1 C 351.6 8.06 344.8 8.1 344.8 8.1 Z M 350 7 C 350 7 350.02 6.98 350 7 C 349.9 6 349.4 4.6 347.4 4.6 C 345.8 4.6 345 5.7 344.8 7 C 344.82 6.98 344.8 7 344.8 7 L 350 7 Z M 352.8 3.7 L 354.4 3.7 L 354.4 1.1 L 355.9 1.1 L 355.9 3.7 L 358 3.7 L 358 4.9 L 355.9 4.9 C 355.9 4.9 355.9 9.29 355.9 9.3 C 355.9 10.2 356.1 10.6 357 10.6 C 357.3 10.6 357.6 10.6 357.8 10.6 C 357.8 10.6 357.8 11.7 357.8 11.7 C 357.5 11.8 357 11.8 356.6 11.8 C 354.9 11.8 354.4 11.1 354.4 9.5 C 354.38 9.49 354.4 4.9 354.4 4.9 L 352.8 4.9 L 352.8 3.7 Z M 366.5 9.3 C 366.5 9.3 366.51 9.31 366.5 9.3 C 366.8 10.3 367.6 10.8 369.1 10.8 C 370.6 10.8 371.2 10.3 371.2 9.6 C 371.2 8.9 370.8 8.4 368.7 8.2 C 365.9 7.8 365.3 6.8 365.3 5.8 C 365.3 4.8 366.2 3.4 368.8 3.4 C 371.6 3.4 372.4 4.9 372.4 5.9 C 372.45 5.86 372.4 5.9 372.4 5.9 L 370.9 5.9 C 370.9 5.9 370.92 5.86 370.9 5.9 C 370.8 5.4 370.5 4.6 368.7 4.6 C 367.2 4.6 366.9 5.2 366.9 5.7 C 366.9 6.3 367.3 6.6 369.1 6.9 C 372.1 7.3 372.7 8.2 372.7 9.4 C 372.7 10.9 371.6 12 369 12 C 366.6 12 365.3 11 365 9.3 C 364.98 9.31 365 9.3 365 9.3 L 366.5 9.3 Z M 382.4 9.4 C 382.4 10.2 382.4 11 382.4 11.8 C 382.4 11.8 380.9 11.8 380.9 11.8 C 380.9 11.5 380.9 11 380.9 10.4 C 380.5 11.3 379.8 12 378 12 C 376.3 12 374.9 11 374.9 8.7 C 374.94 8.69 374.9 3.7 374.9 3.7 L 376.5 3.7 C 376.5 3.7 376.46 8.41 376.5 8.4 C 376.5 9.6 376.9 10.7 378.4 10.7 C 380.1 10.7 380.9 9.7 380.9 7.3 C 380.89 7.32 380.9 3.7 380.9 3.7 L 382.4 3.7 C 382.4 3.7 382.41 9.4 382.4 9.4 Z M 385.2 3.7 L 386.7 3.7 L 386.7 11.8 L 385.2 11.8 L 385.2 3.7 Z M 385.2 -0.3 L 386.7 -0.3 L 386.7 1.6 L 385.2 1.6 L 385.2 -0.3 Z M 390.2 3.7 C 390.9 5.5 392.7 9.5 393 10.4 C 393 10.4 393 10.4 393 10.4 C 393.2 9.7 393.8 8.3 395.8 3.7 C 395.77 3.66 397.3 3.7 397.3 3.7 L 393.8 11.8 L 392.1 11.8 L 388.5 3.7 C 388.5 3.7 390.2 3.66 390.2 3.7 Z M 399.2 5.9 C 399.2 5.1 399.2 4.4 399.2 3.7 C 399.2 3.7 400.6 3.7 400.6 3.7 C 400.7 3.9 400.7 4.8 400.7 5.5 C 401.2 4.2 402.4 3.4 404 3.4 C 404 3.4 404 4.9 404 4.9 C 402.1 4.9 400.7 6 400.7 8.4 C 400.7 8.38 400.7 11.8 400.7 11.8 L 399.2 11.8 C 399.2 11.8 399.18 5.86 399.2 5.9 Z M 412.9 9.8 C 412.9 10.5 412.9 11.6 412.9 11.8 C 412.9 11.8 411.5 11.8 411.5 11.8 C 411.4 11.5 411.4 10.8 411.4 10.6 C 411 11.4 410.1 12 408.3 12 C 406.1 12 405.2 10.6 405.2 9.4 C 405.2 9.4 405.2 9.4 405.2 9.4 C 405.2 7.3 407.1 6.7 409.4 6.7 C 410.4 6.7 411.1 6.7 411.4 6.7 C 411.4 6.7 411.4 6.3 411.4 6.3 C 411.4 5.4 411 4.6 409.3 4.6 C 407.7 4.6 407.4 5.3 407.2 6 C 407.2 6.02 407.2 6 407.2 6 L 405.7 6 C 405.7 6 405.68 6.02 405.7 6 C 405.8 4.9 406.5 3.4 409.3 3.4 C 412.2 3.4 412.9 4.9 412.9 6.2 C 412.9 6.2 412.9 9.8 412.9 9.8 Z M 411.4 7.8 C 411.1 7.8 410.6 7.8 409.4 7.8 C 407.6 7.8 406.7 8.2 406.7 9.3 C 406.7 9.3 406.7 9.3 406.7 9.3 C 406.7 10.1 407.3 10.8 408.7 10.8 C 410.8 10.8 411.4 9.5 411.4 8.2 C 411.4 8.2 411.4 7.8 411.4 7.8 Z M 422.2 9.3 C 422.2 9.3 422.25 9.31 422.2 9.3 C 422.5 10.3 423.4 10.8 424.8 10.8 C 426.4 10.8 426.9 10.3 426.9 9.6 C 426.9 8.9 426.5 8.4 424.5 8.2 C 421.6 7.8 421.1 6.8 421.1 5.8 C 421.1 4.8 421.9 3.4 424.5 3.4 C 427.3 3.4 428.1 4.9 428.2 5.9 C 428.19 5.86 428.2 5.9 428.2 5.9 L 426.7 5.9 C 426.7 5.9 426.66 5.86 426.7 5.9 C 426.5 5.4 426.2 4.6 424.4 4.6 C 422.9 4.6 422.6 5.2 422.6 5.7 C 422.6 6.3 423 6.6 424.8 6.9 C 427.9 7.3 428.5 8.2 428.5 9.4 C 428.5 10.9 427.3 12 424.7 12 C 422.4 12 421 11 420.7 9.3 C 420.71 9.31 420.7 9.3 420.7 9.3 L 422.2 9.3 Z M 438.8 7.7 C 438.8 7.7 438.8 7.7 438.8 7.7 C 438.8 10 437.4 12 434.5 12 C 431.7 12 430.2 10 430.2 7.7 C 430.2 7.7 430.2 7.7 430.2 7.7 C 430.2 5.4 431.8 3.4 434.5 3.4 C 437.3 3.4 438.8 5.6 438.8 7.7 Z M 431.8 7.7 C 431.8 7.7 431.8 7.7 431.8 7.7 C 431.8 9.3 432.7 10.7 434.5 10.7 C 436.4 10.7 437.3 9.4 437.3 7.7 C 437.3 7.7 437.3 7.7 437.3 7.7 C 437.3 6.1 436.3 4.7 434.5 4.7 C 432.6 4.7 431.8 6.1 431.8 7.7 Z M 441.1 5.7 C 441.1 5 441.1 4.3 441.1 3.7 C 441.1 3.7 442.6 3.7 442.6 3.7 C 442.6 3.9 442.6 4.6 442.6 5.2 C 443 4.4 443.8 3.4 445.6 3.4 C 447.5 3.4 448.7 4.6 448.7 6.8 C 448.71 6.83 448.7 11.8 448.7 11.8 L 447.2 11.8 C 447.2 11.8 447.17 7.1 447.2 7.1 C 447.2 5.8 446.7 4.7 445.2 4.7 C 443.5 4.7 442.6 6 442.6 7.9 C 442.65 7.88 442.6 11.8 442.6 11.8 L 441.1 11.8 C 441.1 11.8 441.12 5.7 441.1 5.7 Z " stroke="none" fill="#fafafa" filter="url(#shadow_11455)"/>  </g></svg>