<?xml version="1.0" standalone="no"?><!DOCTYPE svg PUBLIC "-//W3C//DTD SVG 1.1//EN" "http://www.w3.org/Graphics/SVG/1.1/DTD/svg11.dtd"><svg xmlns="http://www.w3.org/2000/svg" version="1.1" width="1861px" height="389px" viewBox="-76 -131 1861 389" style="left:-76px;top:-131px">  <desc>d cors frais &amp; vrais</desc>  <defs>    <filter id="shadow_5148" x="0" y="0" width="200%" height="200%">      <feOffset result="offOut" in="SourceAlpha" dx="0" dy="0"/>      <feGaussianBlur result="blurOut" in="offOut" stdDeviation="19.8"/>      <feBlend in="SourceGraphic" in2="blurOut" mode="normal"/>      <feFlood flood-color="#000" flood-opacity="1" result="offsetColor"/>      <feComposite in="offsetColor" in2="blurOut" operator="in" result="colorOut"/>      <feComponentTransfer>        <feFuncA type="linear" slope="0.3"/>      </feComponentTransfer>      <feMerge>        <feMergeNode/>        <feMergeNode in="SourceGraphic"/>      </feMerge>    </filter>    <filter id="shadow_5147" x="0" y="0" width="200%" height="200%">      <feOffset result="offOut" in="SourceAlpha" dx="0" dy="0"/>      <feGaussianBlur result="blurOut" in="offOut" stdDeviation="19.8"/>      <feBlend in="SourceGraphic" in2="blurOut" mode="normal"/>      <feFlood flood-color="#000" flood-opacity="1" result="offsetColor"/>      <feComposite in="offsetColor" in2="blurOut" operator="in" result="colorOut"/>      <feComponentTransfer>        <feFuncA type="linear" slope="0.3"/>      </feComponentTransfer>      <feMerge>        <feMergeNode/>        <feMergeNode in="SourceGraphic"/>      </feMerge>    </filter>  </defs>  <g id="Polygon5148">    <path d="M 1.7 124.5 L 12.5 124.5 L 12.5 126.1 L 3.6 126.1 L 3.6 132.1 L 10.2 132.1 L 10.2 133.7 L 3.6 133.7 L 3.6 141.3 L 1.7 141.3 L 1.7 124.5 Z M 19.6 124.5 C 19.6 124.5 26.06 124.52 26.1 124.5 C 27.8 124.5 29.1 124.9 30 125.7 C 30.9 126.6 31.4 127.8 31.4 129.4 C 31.4 130.6 31 131.6 30.3 132.5 C 29.6 133.3 28.6 133.9 27.4 134.1 C 27.36 134.08 31.3 141.3 31.3 141.3 L 29.4 141.3 L 25.5 134.2 L 21.5 134.2 L 21.5 141.3 L 19.6 141.3 L 19.6 124.5 Z M 25.8 132.6 C 27 132.6 27.9 132.3 28.5 131.8 C 29.2 131.2 29.5 130.4 29.5 129.4 C 29.5 128.2 29.2 127.3 28.5 126.9 C 27.9 126.4 27 126.1 25.8 126.1 C 25.82 126.11 21.5 126.1 21.5 126.1 L 21.5 132.6 C 21.5 132.6 25.82 132.59 25.8 132.6 Z M 45.2 124.5 L 46.9 124.5 L 53.6 141.3 L 51.7 141.3 L 49.9 136.8 L 42.2 136.8 L 40.4 141.3 L 38.5 141.3 L 45.2 124.5 Z M 49.4 135.2 L 46 126.7 L 42.7 135.2 L 49.4 135.2 Z M 60.9 124.5 L 62.8 124.5 L 62.8 141.3 L 60.9 141.3 L 60.9 124.5 Z M 75.5 141.7 C 74.6 141.7 73.7 141.6 72.8 141.4 C 71.9 141.3 71.1 141 70.6 140.8 C 70.6 140.8 70.6 139 70.6 139 C 72.1 139.7 73.7 140 75.4 140 C 76.8 140 77.9 139.7 78.6 139.3 C 79.3 138.8 79.6 138.1 79.6 137.2 C 79.6 136.5 79.5 136 79.2 135.6 C 78.9 135.3 78.5 134.9 78 134.7 C 77.4 134.4 76.5 134 75.2 133.5 C 73.7 132.8 72.5 132.1 71.8 131.4 C 71.1 130.6 70.7 129.7 70.7 128.5 C 70.7 127.6 71 126.9 71.4 126.2 C 71.9 125.6 72.5 125.1 73.3 124.7 C 74.2 124.3 75.1 124.2 76.2 124.2 C 77.1 124.2 77.9 124.2 78.6 124.4 C 79.3 124.5 80 124.7 80.7 125 C 80.7 125 80.7 126.7 80.7 126.7 C 79.4 126.1 78 125.8 76.5 125.8 C 75.2 125.8 74.2 126.1 73.6 126.5 C 72.9 127 72.6 127.7 72.6 128.5 C 72.6 129 72.7 129.5 73 129.9 C 73.3 130.3 73.7 130.7 74.3 131 C 74.9 131.4 75.7 131.7 76.7 132.1 C 77.9 132.6 78.8 133 79.4 133.4 C 80.1 133.8 80.6 134.3 80.9 134.9 C 81.3 135.5 81.5 136.3 81.5 137.2 C 81.5 138.6 81 139.7 80 140.5 C 79 141.3 77.5 141.7 75.5 141.7 C 75.5 141.7 75.5 141.7 75.5 141.7 Z M 108.7 141.7 C 106.9 141.7 105.4 141.3 104.3 140.5 C 103.2 139.7 102.6 138.5 102.6 137.1 C 102.6 136.1 102.9 135.1 103.5 134.3 C 104.1 133.5 105.1 132.8 106.5 132 C 105.6 131.3 105 130.6 104.7 130 C 104.3 129.4 104.1 128.7 104.1 128 C 104.1 126.8 104.5 125.9 105.3 125.2 C 106 124.5 107 124.2 108.3 124.2 C 109.1 124.2 109.8 124.3 110.4 124.7 C 111.1 125 111.6 125.5 111.9 126 C 112.3 126.6 112.4 127.3 112.4 128 C 112.4 128.9 112.2 129.6 111.7 130.2 C 111.2 130.7 110.4 131.4 109.2 132.3 C 109.2 132.3 114.1 137.1 114.1 137.1 C 114.5 136.5 114.7 135.9 114.8 135.3 C 114.9 134.7 115 133.9 115 132.9 C 115 132.9 116.8 132.9 116.8 132.9 C 116.8 134.1 116.7 135.1 116.5 135.9 C 116.3 136.8 116 137.6 115.5 138.3 C 115.47 138.32 118.6 141.3 118.6 141.3 L 116.3 141.3 C 116.3 141.3 114.39 139.48 114.4 139.5 C 113.7 140.2 112.8 140.8 111.9 141.1 C 111 141.5 109.9 141.7 108.7 141.7 C 108.7 141.7 108.7 141.7 108.7 141.7 Z M 108 131.3 C 109 130.7 109.7 130.1 110.1 129.7 C 110.5 129.2 110.7 128.7 110.7 128 C 110.7 127.3 110.5 126.8 110 126.4 C 109.6 126 109 125.8 108.3 125.8 C 107.5 125.8 107 126 106.5 126.3 C 106.1 126.7 105.9 127.3 105.9 128 C 105.9 128.6 106.1 129.1 106.4 129.5 C 106.7 129.9 107.2 130.5 108 131.3 C 108 131.3 108 131.3 108 131.3 Z M 108.7 140.1 C 110.6 140.1 112.1 139.5 113.1 138.3 C 113.1 138.3 107.8 133.1 107.8 133.1 C 106.6 133.7 105.8 134.3 105.2 134.9 C 104.7 135.5 104.5 136.2 104.5 137.1 C 104.5 138.1 104.9 138.8 105.6 139.3 C 106.4 139.8 107.4 140.1 108.7 140.1 C 108.7 140.1 108.7 140.1 108.7 140.1 Z M 139.7 124.5 L 141.6 124.5 L 147.2 138.7 L 152.9 124.5 L 154.8 124.5 L 148.1 141.3 L 146.4 141.3 L 139.7 124.5 Z M 162.2 124.5 C 162.2 124.5 168.64 124.52 168.6 124.5 C 170.4 124.5 171.7 124.9 172.6 125.7 C 173.5 126.6 174 127.8 174 129.4 C 174 130.6 173.6 131.6 172.9 132.5 C 172.2 133.3 171.2 133.9 169.9 134.1 C 169.94 134.08 173.9 141.3 173.9 141.3 L 172 141.3 L 168 134.2 L 164 134.2 L 164 141.3 L 162.2 141.3 L 162.2 124.5 Z M 168.4 132.6 C 169.6 132.6 170.5 132.3 171.1 131.8 C 171.8 131.2 172.1 130.4 172.1 129.4 C 172.1 128.2 171.8 127.3 171.1 126.9 C 170.5 126.4 169.6 126.1 168.4 126.1 C 168.4 126.11 164 126.1 164 126.1 L 164 132.6 C 164 132.6 168.4 132.59 168.4 132.6 Z M 187.7 124.5 L 189.5 124.5 L 196.2 141.3 L 194.3 141.3 L 192.5 136.8 L 184.7 136.8 L 183 141.3 L 181 141.3 L 187.7 124.5 Z M 191.9 135.2 L 188.6 126.7 L 185.3 135.2 L 191.9 135.2 Z M 203.5 124.5 L 205.4 124.5 L 205.4 141.3 L 203.5 141.3 L 203.5 124.5 Z M 218.1 141.7 C 217.2 141.7 216.2 141.6 215.3 141.4 C 214.5 141.3 213.7 141 213.1 140.8 C 213.1 140.8 213.1 139 213.1 139 C 214.6 139.7 216.3 140 218 140 C 219.4 140 220.5 139.7 221.2 139.3 C 221.8 138.8 222.2 138.1 222.2 137.2 C 222.2 136.5 222 136 221.8 135.6 C 221.5 135.3 221.1 134.9 220.6 134.7 C 220 134.4 219.1 134 217.8 133.5 C 216.2 132.8 215.1 132.1 214.4 131.4 C 213.7 130.6 213.3 129.7 213.3 128.5 C 213.3 127.6 213.5 126.9 214 126.2 C 214.4 125.6 215.1 125.1 215.9 124.7 C 216.8 124.3 217.7 124.2 218.8 124.2 C 219.7 124.2 220.5 124.2 221.2 124.4 C 221.9 124.5 222.6 124.7 223.3 125 C 223.3 125 223.3 126.7 223.3 126.7 C 221.9 126.1 220.5 125.8 219.1 125.8 C 217.8 125.8 216.8 126.1 216.2 126.5 C 215.5 127 215.2 127.7 215.2 128.5 C 215.2 129 215.3 129.5 215.6 129.9 C 215.9 130.3 216.3 130.7 216.9 131 C 217.5 131.4 218.3 131.7 219.3 132.1 C 220.4 132.6 221.3 133 222 133.4 C 222.7 133.8 223.2 134.3 223.5 134.9 C 223.9 135.5 224.1 136.3 224.1 137.2 C 224.1 138.6 223.6 139.7 222.5 140.5 C 221.5 141.3 220.1 141.7 218.1 141.7 C 218.1 141.7 218.1 141.7 218.1 141.7 Z " stroke="none" fill="#fafafa" filter="url(#shadow_5148)"/>  </g>  <g id="Polygon5147">    <path d="M 19.4 7.6 C 19.4 7.6 58.35 7.65 58.4 7.6 C 68.3 7.6 76.9 9.4 84.4 12.8 C 91.8 16.3 97.6 21.1 101.6 27.4 C 105.7 33.6 107.7 40.9 107.7 49 C 107.7 52.6 107.3 56.2 106.7 59.5 C 103.1 77.3 95.4 90.5 83.7 99.3 C 72 108.1 56.6 112.5 37.4 112.5 C 37.35 112.5 -2.9 112.5 -2.9 112.5 L 19.4 7.6 Z M 46.7 79.5 C 53.4 79.5 58.7 77.9 62.6 74.7 C 66.3 71.5 69 66.4 70.5 59.5 C 71 56.8 71.3 54.6 71.3 52.8 C 71.3 48.8 70 45.8 67.4 43.7 C 64.9 41.7 60.7 40.6 54.9 40.6 C 54.9 40.65 47.9 40.6 47.9 40.6 L 39.6 79.5 C 39.6 79.5 46.65 79.5 46.7 79.5 Z M 166.2 -26 L 198.7 -26 L 178.8 1.2 L 150.3 1.2 L 166.2 -26 Z M 128.7 7.6 L 206.4 7.6 L 200.1 37.5 L 157.9 37.5 L 156 46.6 L 185.8 46.6 L 180.1 73.5 L 150.3 73.5 L 148.3 82.6 L 190.5 82.6 L 184.2 112.5 L 106.5 112.5 L 128.7 7.6 Z M 249.4 114.8 C 240 114.8 231.7 113.1 224.5 109.8 C 217.2 106.5 211.6 101.7 207.6 95.4 C 203.6 89.1 201.6 81.7 201.6 73.2 C 201.6 68.9 202.1 64.6 203.1 60.1 C 206.7 42.9 214.5 29.4 226.6 19.8 C 238.6 10.2 254 5.4 272.7 5.4 C 280.4 5.4 287.1 6.1 292.7 7.3 C 298.4 8.7 303.4 10.8 307.8 13.6 C 307.8 13.6 300.6 47.3 300.6 47.3 C 296.9 44.1 292.5 41.8 287.4 40.3 C 282.3 39 276.1 38.3 268.9 38.3 C 261.1 38.3 254.6 40.1 249.4 43.9 C 244.1 47.6 240.7 53.1 239.2 60.1 C 238.6 62.7 238.3 65 238.3 67.2 C 238.3 72.2 240.1 75.9 243.5 78.4 C 247 80.8 252.3 82 259.6 82 C 266.6 82 273.1 81.3 279 79.7 C 284.9 78.2 290.7 75.8 296.4 72.6 C 296.4 72.6 289.3 106 289.3 106 C 277.8 111.9 264.5 114.8 249.4 114.8 C 249.4 114.8 249.4 114.8 249.4 114.8 Z M 352.8 114.8 C 344.2 114.8 336.3 113 329.2 109.4 C 322.1 105.9 316.5 100.8 312.4 94.3 C 308.2 87.7 306.1 80.2 306.1 71.7 C 306.1 68 306.6 64.2 307.5 60.1 C 309.8 49.3 314.1 39.7 320.5 31.4 C 326.9 23.2 334.9 16.8 344.5 12.2 C 354.1 7.7 364.6 5.4 376 5.4 C 385 5.4 393.1 7.2 400.1 10.6 C 407.2 14.2 412.7 19.2 416.7 25.6 C 420.7 32.2 422.7 39.7 422.7 48.1 C 422.7 52 422.2 55.9 421.3 60.1 C 419 70.9 414.7 80.5 408.2 88.7 C 401.8 97 393.8 103.4 384.2 107.9 C 374.7 112.5 364.2 114.8 352.8 114.8 C 352.8 114.8 352.8 114.8 352.8 114.8 Z M 360 81.3 C 366 81.3 371.3 79.4 376 75.6 C 380.7 71.8 383.8 66.7 385.2 60.1 C 385.7 57.4 385.9 55.2 385.9 53.4 C 385.9 43.8 380.3 39 369 39 C 362.9 39 357.5 40.9 352.7 44.7 C 348 48.5 344.9 53.7 343.6 60.1 C 343 62.8 342.7 65.4 342.7 67.6 C 342.7 72.1 344.1 75.6 346.9 77.8 C 349.6 80.2 354 81.3 360 81.3 C 360 81.3 360 81.3 360 81.3 Z M 443.6 7.6 C 443.6 7.6 493.97 7.65 494 7.6 C 504.9 7.6 513.5 10.3 519.8 15.4 C 526.1 20.7 529.2 27.8 529.2 36.8 C 529.2 39.9 528.9 42.9 528.2 45.8 C 526.5 53.5 523.5 60.2 519.2 65.6 C 515 71.1 509.7 75.4 503.4 78.4 C 503.42 78.45 512.7 112.5 512.7 112.5 L 476.9 112.5 L 469.1 83.8 L 462.3 83.8 L 456.3 112.5 L 421.4 112.5 L 443.6 7.6 Z M 476 57.3 C 485.1 57.3 490.4 53.5 492 45.8 C 492.3 44.5 492.5 43.5 492.5 42.4 C 492.5 37 488.6 34.2 480.8 34.2 C 480.77 34.2 472.8 34.2 472.8 34.2 L 468 57.3 C 468 57.3 475.97 57.3 476 57.3 Z M 560.2 114.8 C 553.3 114.8 546.5 114 539.8 112.7 C 533.1 111.3 527.8 109.3 523.9 106.9 C 523.9 106.9 530.5 76 530.5 76 C 535.4 79.3 540.8 81.7 546.8 83.2 C 552.7 84.9 558.3 85.6 563.6 85.6 C 567 85.6 569.4 85.3 570.8 84.5 C 572.2 83.8 572.9 82.6 572.9 81 C 572.9 79.5 572 78.1 570.2 76.9 C 568.4 75.6 564.8 73.7 559.3 71.1 C 552 67.5 546.6 63.7 543.2 59.5 C 539.8 55.5 538.1 50.7 538.1 45.1 C 538.1 43.3 538.4 40.9 538.9 38.3 C 540.3 31.8 543.2 26 547.5 21.1 C 551.9 16.1 557.5 12.3 564.5 9.5 C 571.4 6.8 579.3 5.4 588.2 5.4 C 595 5.4 601 6 606 7 C 611.1 8.2 615.8 9.9 620.2 12.1 C 620.2 12.1 613.7 42 613.7 42 C 605.9 37 597.6 34.5 588.7 34.5 C 581.7 34.5 577.8 36.1 577 39.1 C 576.7 40.6 577.2 41.8 578.6 42.8 C 579.9 43.6 582.6 45.1 586.6 46.9 C 587.8 47.4 589.5 48.1 591.8 49.2 C 599.5 52.8 605 56.4 608.1 59.8 C 611.3 63.4 612.8 67.7 612.8 72.9 C 612.8 75.5 612.4 78.7 611.6 82.3 C 609.4 92.8 604.3 100.8 596.3 106.3 C 588.3 112 576.3 114.8 560.2 114.8 C 560.2 114.8 560.2 114.8 560.2 114.8 Z " stroke="none" fill="#fafafa" filter="url(#shadow_5147)"/>  </g></svg>