<?xml version="1.0" standalone="no"?><!DOCTYPE svg PUBLIC "-//W3C//DTD SVG 1.1//EN" "http://www.w3.org/Graphics/SVG/1.1/DTD/svg11.dtd"><svg xmlns="http://www.w3.org/2000/svg" version="1.1" width="90px" height="14.8px" viewBox="0 -2 90 14.8" style="top:-2px">  <desc>Page</desc>  <defs/>  <g id="Polygon5308">    <path d="M 39.6 5.7 C 39.6 5.7 40.28 5.13 40.3 5.1 C 40.4 5 40.6 4.9 40.9 4.7 C 41.3 4.4 41.6 4.2 41.8 4 C 42 3.8 42.1 3.7 42.1 3.5 C 42.1 3.5 42.1 3.4 42.1 3.4 C 42.1 3.2 41.9 3.1 41.6 3.1 C 41.4 3.1 41.1 3.1 40.9 3.2 C 40.6 3.3 40.4 3.4 40.2 3.6 C 40.2 3.6 40.5 2 40.5 2 C 40.8 1.8 41 1.7 41.4 1.6 C 41.7 1.5 42 1.5 42.4 1.5 C 42.9 1.5 43.3 1.6 43.5 1.8 C 43.8 2.1 44 2.4 44 2.7 C 44 2.8 43.9 2.9 43.9 3 C 43.8 3.4 43.7 3.8 43.5 4 C 43.3 4.3 43 4.6 42.6 4.9 C 42.61 4.88 42.1 5.2 42.1 5.2 L 43.6 5.2 L 43.3 6.5 L 39.4 6.5 L 39.6 5.7 Z M 47.4 6.6 C 46.8 6.6 46.4 6.4 46 6.1 C 45.7 5.8 45.5 5.3 45.5 4.8 C 45.5 4.5 45.5 4.3 45.6 4.1 C 45.7 3.5 45.9 3.1 46.2 2.7 C 46.4 2.3 46.8 2 47.2 1.8 C 47.6 1.6 48 1.5 48.5 1.5 C 49.1 1.5 49.6 1.7 49.9 2 C 50.3 2.3 50.4 2.7 50.4 3.3 C 50.4 3.6 50.4 3.8 50.4 4.1 C 50.2 4.6 50 5 49.8 5.4 C 49.5 5.8 49.1 6.1 48.7 6.3 C 48.3 6.5 47.9 6.6 47.4 6.6 C 47.4 6.6 47.4 6.6 47.4 6.6 Z M 47.8 5.1 C 48 5.1 48.2 5 48.3 4.8 C 48.5 4.6 48.6 4.4 48.7 4.1 C 48.7 3.9 48.7 3.8 48.7 3.6 C 48.7 3.3 48.5 3.1 48.2 3.1 C 47.9 3.1 47.8 3.2 47.6 3.3 C 47.4 3.5 47.3 3.8 47.3 4.1 C 47.2 4.2 47.2 4.4 47.2 4.5 C 47.2 4.7 47.2 4.8 47.3 4.9 C 47.4 5 47.6 5.1 47.8 5.1 C 47.8 5.1 47.8 5.1 47.8 5.1 Z " stroke="none" fill="#fafafa"/>  </g></svg>