<?xml version="1.0" standalone="no"?><!DOCTYPE svg PUBLIC "-//W3C//DTD SVG 1.1//EN" "http://www.w3.org/Graphics/SVG/1.1/DTD/svg11.dtd"><svg xmlns="http://www.w3.org/2000/svg" version="1.1" width="450px" height="726.2px" viewBox="0 -1 450 726.2" style="top:-1px">  <desc>Elle passe un petit caf parisien sur lequel on lit EPISODE 1 en lieu et place du nom du caf (alors que ses stat kil...</desc>  <defs/>  <g id="Polygon10362">    <path d="M 8.7 424.2 C 8.7 424.2 8.74 424.22 8.7 424.2 C 8.3 425.7 7.1 426.9 4.9 426.9 C 2.1 426.9 0.7 425 0.7 422.7 C 0.7 422.7 0.7 422.7 0.7 422.7 C 0.7 420.4 2.3 418.4 4.9 418.4 C 7.5 418.4 8.5 420 8.7 421.1 C 8.73 421.15 8.7 421.1 8.7 421.1 L 7.5 421.1 C 7.5 421.1 7.52 421.15 7.5 421.1 C 7.2 420.3 6.5 419.4 4.9 419.4 C 3.1 419.4 2 420.8 2 422.7 C 2 422.7 2 422.7 2 422.7 C 2 424.5 3 425.9 4.9 425.9 C 6.3 425.9 7.1 425.2 7.5 424.2 C 7.53 424.22 7.5 424.2 7.5 424.2 L 8.7 424.2 Z M 12.2 414.6 C 12.2 414.6 12.24 420.21 12.2 420.2 C 12.5 419.6 13.3 418.4 15.3 418.4 C 17.1 418.4 18.3 419.5 18.3 421.8 C 18.33 421.81 18.3 426.7 18.3 426.7 L 17.1 426.7 C 17.1 426.7 17.11 422.02 17.1 422 C 17.1 420.6 16.6 419.5 15 419.5 C 13.1 419.5 12.2 421 12.2 422.7 C 12.24 422.7 12.2 426.7 12.2 426.7 L 11 426.7 L 11 414.6 L 12.2 414.6 Z M 28.1 424.8 C 28.1 425.5 28.1 426.5 28.1 426.7 C 28.1 426.7 27 426.7 27 426.7 C 26.9 426.4 26.9 425.7 26.9 425.4 C 26.5 426.3 25.6 426.9 23.8 426.9 C 21.5 426.9 20.7 425.5 20.7 424.3 C 20.7 424.3 20.7 424.3 20.7 424.3 C 20.7 422.3 22.6 421.7 24.8 421.7 C 25.9 421.7 26.6 421.7 26.9 421.7 C 26.9 421.7 26.9 421.2 26.9 421.2 C 26.9 420.3 26.5 419.4 24.6 419.4 C 22.9 419.4 22.5 420.1 22.4 421 C 22.36 420.96 22.4 421 22.4 421 L 21.1 421 C 21.1 421 21.15 420.96 21.1 421 C 21.3 419.9 22 418.4 24.6 418.4 C 27.4 418.4 28.1 419.8 28.1 421.1 C 28.1 421.1 28.1 424.8 28.1 424.8 Z M 26.9 422.6 C 26.6 422.6 26.1 422.6 24.9 422.6 C 22.9 422.6 21.9 423.1 21.9 424.3 C 21.9 424.3 21.9 424.3 21.9 424.3 C 21.9 425.2 22.5 425.9 24 425.9 C 26.3 425.9 26.9 424.5 26.9 423.1 C 26.9 423.1 26.9 422.6 26.9 422.6 Z M 31 420.7 C 31 420 31 419.2 31 418.6 C 31 418.6 32.1 418.6 32.1 418.6 C 32.2 418.9 32.2 419.6 32.2 420.3 C 32.5 419.4 33.4 418.4 35.2 418.4 C 37 418.4 38.3 419.6 38.3 421.8 C 38.27 421.8 38.3 426.7 38.3 426.7 L 37.1 426.7 C 37.1 426.7 37.05 422.03 37.1 422 C 37.1 420.6 36.5 419.5 34.9 419.5 C 33.1 419.5 32.2 420.9 32.2 422.9 C 32.18 422.87 32.2 426.7 32.2 426.7 L 31 426.7 C 31 426.7 30.97 420.66 31 420.7 Z M 48.7 425.6 C 48.7 428.6 47.8 430.5 44.5 430.5 C 41.5 430.5 40.8 428.7 40.7 427.7 C 40.69 427.74 40.7 427.7 40.7 427.7 L 41.9 427.7 C 41.9 427.7 41.93 427.74 41.9 427.7 C 42.2 428.6 42.8 429.5 44.6 429.5 C 47.2 429.5 47.6 427.8 47.6 425.6 C 47.6 425.6 47.6 425.2 47.6 425.2 C 47.1 426.2 46.1 426.8 44.4 426.8 C 42.2 426.8 40.6 425.1 40.6 422.8 C 40.6 422.8 40.6 422.8 40.6 422.8 C 40.6 420.2 42.5 418.4 44.6 418.4 C 46.5 418.4 47.3 419.3 47.6 420 C 47.6 419.5 47.6 418.9 47.6 418.6 C 47.6 418.6 48.8 418.6 48.8 418.6 C 48.7 419.4 48.7 420.2 48.7 421 C 48.7 421 48.7 425.6 48.7 425.6 Z M 41.8 422.7 C 41.8 422.7 41.8 422.7 41.8 422.7 C 41.8 424.5 43 425.8 44.7 425.8 C 46.5 425.8 47.6 424.6 47.6 422.6 C 47.6 422.6 47.6 422.6 47.6 422.6 C 47.6 420.6 46.6 419.5 44.8 419.5 C 42.8 419.5 41.8 421.1 41.8 422.7 Z M 52.4 422.9 C 52.4 422.9 52.35 422.93 52.4 422.9 C 52.4 424.6 53.6 425.9 55.3 425.9 C 56.7 425.9 57.5 425.3 57.9 424.4 C 57.92 424.44 57.9 424.4 57.9 424.4 L 59.1 424.4 C 59.1 424.4 59.13 424.44 59.1 424.4 C 58.7 425.6 57.6 426.9 55.2 426.9 C 52.5 426.9 51.1 424.8 51.1 422.7 C 51.1 422.7 51.1 422.7 51.1 422.7 C 51.1 420.2 52.8 418.4 55.2 418.4 C 58.2 418.4 59.3 420.7 59.3 422.6 C 59.3 422.7 59.3 422.8 59.3 422.9 C 59.25 422.93 52.4 422.9 52.4 422.9 Z M 58 422 C 58 422 57.97 422 58 422 C 57.9 420.9 57.3 419.4 55.2 419.4 C 53.4 419.4 52.5 420.5 52.4 422 C 52.39 422 52.4 422 52.4 422 L 58 422 Z M 57.8 414.5 L 55.3 417 L 54.1 417 L 56.3 414.5 L 57.8 414.5 Z M 71.1 425.4 C 71.07 425.37 71.1 430.2 71.1 430.2 L 69.9 430.2 C 69.9 430.2 69.87 420.65 69.9 420.6 C 69.9 420 69.9 419.3 69.8 418.6 C 69.8 418.6 71 418.6 71 418.6 C 71.1 418.9 71.1 419.4 71.1 420.1 C 71.6 419.2 72.5 418.4 74.3 418.4 C 76.5 418.4 78 420.2 78 422.5 C 78 422.5 78 422.5 78 422.5 C 78 425.1 76.2 426.9 74 426.9 C 72.3 426.9 71.5 426.1 71.1 425.4 Z M 76.7 422.6 C 76.7 422.6 76.7 422.6 76.7 422.6 C 76.7 421.1 75.9 419.5 73.9 419.5 C 71.9 419.5 71 420.9 71 422.7 C 71 422.7 71 422.7 71 422.7 C 71 424.5 72 425.8 73.9 425.8 C 75.8 425.8 76.7 424.3 76.7 422.6 Z M 88.3 422.7 C 88.3 422.7 88.3 422.7 88.3 422.7 C 88.3 424.8 86.9 426.9 84 426.9 C 81.4 426.9 79.9 424.9 79.9 422.7 C 79.9 422.7 79.9 422.7 79.9 422.7 C 79.9 420.3 81.5 418.4 84.1 418.4 C 86.8 418.4 88.3 420.5 88.3 422.7 Z M 81.1 422.7 C 81.1 422.7 81.1 422.7 81.1 422.7 C 81.1 424.3 82.2 425.9 84.1 425.9 C 86 425.9 87 424.4 87 422.7 C 87 422.7 87 422.7 87 422.7 C 87 420.9 85.9 419.4 84 419.4 C 82.1 419.4 81.1 420.9 81.1 422.7 Z M 97.8 424.3 C 97.8 425.1 97.8 425.9 97.8 426.7 C 97.8 426.7 96.6 426.7 96.6 426.7 C 96.6 426.5 96.6 425.8 96.6 425.2 C 96.2 426.2 95.4 426.9 93.6 426.9 C 91.9 426.9 90.6 426 90.6 423.6 C 90.59 423.65 90.6 418.6 90.6 418.6 L 91.8 418.6 C 91.8 418.6 91.8 423.41 91.8 423.4 C 91.8 424.7 92.3 425.8 93.9 425.8 C 95.7 425.8 96.6 424.7 96.6 422.2 C 96.56 422.25 96.6 418.6 96.6 418.6 L 97.8 418.6 C 97.8 418.6 97.77 424.33 97.8 424.3 Z M 100.7 420.8 C 100.7 420.1 100.7 419.4 100.7 418.6 C 100.7 418.6 101.8 418.6 101.8 418.6 C 101.9 418.9 101.9 419.7 101.9 420.5 C 102.4 419.2 103.7 418.4 105.2 418.4 C 105.2 418.4 105.2 419.6 105.2 419.6 C 103.3 419.6 101.9 420.8 101.9 423.2 C 101.9 423.2 101.9 426.7 101.9 426.7 L 100.7 426.7 C 100.7 426.7 100.69 420.82 100.7 420.8 Z M 115.4 418.6 L 116.6 418.6 L 116.6 426.7 L 115.4 426.7 L 115.4 418.6 Z M 115.4 414.6 L 116.6 414.6 L 116.6 416.4 L 115.4 416.4 L 115.4 414.6 Z M 119.5 420.7 C 119.5 420 119.5 419.2 119.5 418.6 C 119.5 418.6 120.7 418.6 120.7 418.6 C 120.7 418.9 120.7 419.6 120.7 420.3 C 121.1 419.4 122 418.4 123.7 418.4 C 125.6 418.4 126.8 419.6 126.8 421.8 C 126.82 421.8 126.8 426.7 126.8 426.7 L 125.6 426.7 C 125.6 426.7 125.61 422.03 125.6 422 C 125.6 420.6 125.1 419.5 123.5 419.5 C 121.6 419.5 120.7 420.9 120.7 422.9 C 120.74 422.87 120.7 426.7 120.7 426.7 L 119.5 426.7 C 119.5 426.7 119.53 420.66 119.5 420.7 Z M 137.3 414.6 C 137.3 414.6 137.31 424.32 137.3 424.3 C 137.3 425.1 137.3 425.9 137.3 426.7 C 137.3 426.7 136.2 426.7 136.2 426.7 C 136.1 426.3 136.1 425.8 136.1 425.4 C 135.7 426.1 135 426.9 133.1 426.9 C 130.7 426.9 129.2 425.1 129.2 422.7 C 129.2 422.7 129.2 422.7 129.2 422.7 C 129.2 420.1 131.1 418.4 133.2 418.4 C 135.2 418.4 135.9 419.4 136.1 419.8 C 136.1 419.77 136.1 414.6 136.1 414.6 L 137.3 414.6 Z M 130.4 422.7 C 130.4 422.7 130.4 422.7 130.4 422.7 C 130.4 424.2 131.4 425.9 133.3 425.9 C 135.3 425.9 136.2 424.5 136.2 422.6 C 136.2 422.6 136.2 422.6 136.2 422.6 C 136.2 420.7 135.5 419.5 133.3 419.5 C 131.4 419.5 130.4 421.1 130.4 422.7 Z M 140.2 418.6 L 141.4 418.6 L 141.4 426.7 L 140.2 426.7 L 140.2 418.6 Z M 140.2 414.6 L 141.4 414.6 L 141.4 416.4 L 140.2 416.4 L 140.2 414.6 Z M 150.8 425.3 C 150.3 426.2 149.5 426.9 147.7 426.9 C 145.5 426.9 143.8 425.2 143.8 422.8 C 143.8 422.8 143.8 422.8 143.8 422.8 C 143.8 420 145.8 418.4 147.9 418.4 C 149.9 418.4 150.6 419.5 150.8 419.9 C 150.8 419.3 150.8 418.9 150.8 418.6 C 150.8 418.6 152 418.6 152 418.6 C 152 419.3 152 420.1 152 420.9 C 152 420.91 152 430.2 152 430.2 L 150.8 430.2 C 150.8 430.2 150.79 425.33 150.8 425.3 Z M 145.1 422.7 C 145.1 422.7 145.1 422.7 145.1 422.7 C 145.1 424.4 146.2 425.8 147.9 425.8 C 149.8 425.8 150.8 424.7 150.8 422.6 C 150.8 422.6 150.8 422.6 150.8 422.6 C 150.8 420.8 150 419.5 148 419.5 C 146.1 419.5 145.1 421 145.1 422.7 Z M 162.1 424.3 C 162.1 425.1 162.1 425.9 162.1 426.7 C 162.1 426.7 160.9 426.7 160.9 426.7 C 160.9 426.5 160.9 425.8 160.9 425.2 C 160.5 426.2 159.7 426.9 157.9 426.9 C 156.2 426.9 154.9 426 154.9 423.6 C 154.89 423.65 154.9 418.6 154.9 418.6 L 156.1 418.6 C 156.1 418.6 156.1 423.41 156.1 423.4 C 156.1 424.7 156.6 425.8 158.2 425.8 C 160 425.8 160.9 424.7 160.9 422.2 C 160.86 422.25 160.9 418.6 160.9 418.6 L 162.1 418.6 C 162.1 418.6 162.07 424.33 162.1 424.3 Z M 165.7 422.9 C 165.7 422.9 165.66 422.93 165.7 422.9 C 165.8 424.6 166.9 425.9 168.7 425.9 C 170 425.9 170.8 425.3 171.2 424.4 C 171.23 424.44 171.2 424.4 171.2 424.4 L 172.4 424.4 C 172.4 424.4 172.44 424.44 172.4 424.4 C 172 425.6 170.9 426.9 168.6 426.9 C 165.8 426.9 164.4 424.8 164.4 422.7 C 164.4 422.7 164.4 422.7 164.4 422.7 C 164.4 420.2 166.1 418.4 168.5 418.4 C 171.5 418.4 172.6 420.7 172.6 422.6 C 172.6 422.7 172.6 422.8 172.6 422.9 C 172.56 422.93 165.7 422.9 165.7 422.9 Z M 171.3 422 C 171.3 422 171.28 422 171.3 422 C 171.2 420.9 170.6 419.4 168.5 419.4 C 166.8 419.4 165.9 420.5 165.7 422 C 165.69 422 165.7 422 165.7 422 L 171.3 422 Z M 174.9 420.8 C 174.9 420.1 174.9 419.4 174.9 418.6 C 174.9 418.6 176.1 418.6 176.1 418.6 C 176.1 418.9 176.1 419.7 176.1 420.5 C 176.7 419.2 177.9 418.4 179.4 418.4 C 179.4 418.4 179.4 419.6 179.4 419.6 C 177.6 419.6 176.1 420.8 176.1 423.2 C 176.13 423.2 176.1 426.7 176.1 426.7 L 174.9 426.7 C 174.9 426.7 174.92 420.82 174.9 420.8 Z M 198.2 421.2 L 191.2 421.2 L 191.2 425.6 L 198.9 425.6 L 198.7 426.7 L 189.9 426.7 L 189.9 415.3 L 198.6 415.3 L 198.6 416.4 L 191.2 416.4 L 191.2 420.1 L 198.2 420.1 L 198.2 421.2 Z M 201.4 415.3 C 201.4 415.3 206.55 415.28 206.6 415.3 C 209.4 415.3 210.6 416.8 210.6 418.6 C 210.6 418.6 210.6 418.6 210.6 418.6 C 210.6 420.8 209.1 422 206.6 422 C 206.64 421.99 202.6 422 202.6 422 L 202.6 426.7 L 201.4 426.7 L 201.4 415.3 Z M 202.6 420.9 C 202.6 420.9 206.4 420.86 206.4 420.9 C 208.1 420.9 209.3 420.4 209.3 418.6 C 209.3 418.6 209.3 418.6 209.3 418.6 C 209.3 417.2 208.3 416.4 206.4 416.4 C 206.4 416.41 202.6 416.4 202.6 416.4 L 202.6 420.9 Z M 214.4 415.3 L 214.4 426.7 L 213.1 426.7 L 213.1 415.3 L 214.4 415.3 Z M 218.5 423.4 C 218.5 423.4 218.46 423.4 218.5 423.4 C 218.9 424.8 219.9 425.8 222.3 425.8 C 224.6 425.8 225.6 424.9 225.6 423.7 C 225.6 422.5 224.9 421.8 221.9 421.2 C 218.6 420.7 217.7 419.7 217.7 418.1 C 217.7 416.2 219.6 415 222 415 C 225.6 415 226.4 417 226.6 418.1 C 226.57 418.07 226.6 418.1 226.6 418.1 L 225.3 418.1 C 225.3 418.1 225.26 418.07 225.3 418.1 C 225 417.2 224.5 416.1 221.9 416.1 C 220.2 416.1 219 416.7 219 418 C 219 419 219.5 419.7 222.2 420.1 C 226.3 420.8 226.9 422.1 226.9 423.6 C 226.9 425.4 225.5 426.9 222.2 426.9 C 219.1 426.9 217.5 425.5 217.1 423.4 C 217.14 423.4 217.1 423.4 217.1 423.4 L 218.5 423.4 Z M 241 420.9 C 241 420.9 241 420.9 241 420.9 C 241 424.2 238.8 426.9 235 426.9 C 231.4 426.9 229.1 424.3 229.1 420.9 C 229.1 420.9 229.1 420.9 229.1 420.9 C 229.1 417.8 231.5 415 235.1 415 C 238.6 415 241 417.8 241 420.9 Z M 230.5 420.9 C 230.5 420.9 230.5 420.9 230.5 420.9 C 230.5 423.4 232.1 425.8 235.1 425.8 C 238 425.8 239.6 423.6 239.6 421 C 239.6 421 239.6 421 239.6 421 C 239.6 418.5 238 416.2 235 416.2 C 232.2 416.2 230.5 418.3 230.5 420.9 Z M 243.9 415.3 C 243.9 415.3 248.48 415.28 248.5 415.3 C 252.1 415.3 254.3 417.7 254.3 420.8 C 254.3 420.8 254.3 420.8 254.3 420.8 C 254.3 424.5 251.7 426.7 248.5 426.7 C 248.46 426.68 243.9 426.7 243.9 426.7 L 243.9 415.3 Z M 245.2 425.6 C 245.2 425.6 248.14 425.57 248.1 425.6 C 251.4 425.6 252.9 423.5 252.9 420.8 C 252.9 420.8 252.9 420.8 252.9 420.8 C 252.9 418.1 251 416.4 248.3 416.4 C 248.29 416.39 245.2 416.4 245.2 416.4 L 245.2 425.6 Z M 265.5 421.2 L 258.5 421.2 L 258.5 425.6 L 266.2 425.6 L 266 426.7 L 257.2 426.7 L 257.2 415.3 L 265.9 415.3 L 265.9 416.4 L 258.5 416.4 L 258.5 420.1 L 265.5 420.1 L 265.5 421.2 Z M 276.2 426.7 C 276.2 426.7 276.16 426.61 276.2 426.6 C 276.2 424.8 277.4 423.2 279.9 421.7 C 282 420.4 282.5 420 282.5 418.7 C 282.5 417.8 281.9 416.7 280.1 416.7 C 278.7 416.7 277.8 417.4 277.5 419.1 C 277.49 419.06 277.5 419.1 277.5 419.1 L 276.3 419.1 C 276.3 419.1 276.29 419.06 276.3 419.1 C 276.4 417.1 277.9 415.6 280.2 415.6 C 282.6 415.6 283.8 417.1 283.8 418.7 C 283.8 420.6 282.7 421.2 280.7 422.4 C 279 423.4 277.9 424.5 277.6 425.6 C 277.57 425.6 284.3 425.6 284.3 425.6 L 284.1 426.7 L 276.2 426.7 Z M 286.3 426.7 L 286.3 424.3 L 287.7 424.3 L 287.7 426.7 L 286.3 426.7 Z M 290.3 426.7 L 290.3 424.3 L 291.6 424.3 L 291.6 426.7 L 290.3 426.7 Z M 294.3 426.7 L 294.3 424.3 L 295.6 424.3 L 295.6 426.7 L 294.3 426.7 Z " stroke="none" fill="#141414"/>  </g>  <g id="Polygon10361">    <path d="M 1.6 391 C 1.6 391 6.84 390.96 6.8 391 C 9.7 391 10.9 392.5 10.9 394.3 C 10.9 394.3 10.9 394.3 10.9 394.3 C 10.9 396.5 9.4 397.7 6.9 397.7 C 6.92 397.67 2.9 397.7 2.9 397.7 L 2.9 402.4 L 1.6 402.4 L 1.6 391 Z M 2.9 396.5 C 2.9 396.5 6.69 396.54 6.7 396.5 C 8.4 396.5 9.6 396.1 9.6 394.3 C 9.6 394.3 9.6 394.3 9.6 394.3 C 9.6 392.9 8.6 392.1 6.7 392.1 C 6.69 392.09 2.9 392.1 2.9 392.1 L 2.9 396.5 Z M 20.3 400 C 20.3 400.8 20.3 401.6 20.3 402.4 C 20.3 402.4 19.2 402.4 19.2 402.4 C 19.2 402.1 19.1 401.5 19.1 400.9 C 18.7 401.9 18 402.6 16.2 402.6 C 14.5 402.6 13.2 401.7 13.2 399.3 C 13.15 399.33 13.2 394.3 13.2 394.3 L 14.4 394.3 C 14.4 394.3 14.36 399.09 14.4 399.1 C 14.4 400.4 14.9 401.5 16.4 401.5 C 18.3 401.5 19.1 400.4 19.1 397.9 C 19.13 397.93 19.1 394.3 19.1 394.3 L 20.3 394.3 C 20.3 394.3 20.33 400.01 20.3 400 Z M 23.2 394.3 L 24.5 394.3 L 24.5 402.4 L 23.2 402.4 L 23.2 394.3 Z M 23.2 390.3 L 24.5 390.3 L 24.5 392.1 L 23.2 392.1 L 23.2 390.3 Z M 27.9 399.9 C 27.9 399.9 27.9 399.93 27.9 399.9 C 28.2 401 29.1 401.6 30.7 401.6 C 32.4 401.6 33 401 33 400.2 C 33 399.4 32.6 398.9 30.4 398.7 C 27.6 398.3 27.1 397.4 27.1 396.4 C 27.1 395.4 27.9 394.1 30.4 394.1 C 33.1 394.1 33.9 395.6 33.9 396.5 C 33.94 396.46 33.9 396.5 33.9 396.5 L 32.7 396.5 C 32.7 396.5 32.71 396.46 32.7 396.5 C 32.6 395.9 32.2 395.1 30.3 395.1 C 28.6 395.1 28.3 395.8 28.3 396.3 C 28.3 397 28.7 397.4 30.6 397.6 C 33.6 398 34.2 398.9 34.2 400.1 C 34.2 401.5 33.1 402.6 30.6 402.6 C 28.2 402.6 26.9 401.6 26.7 399.9 C 26.66 399.93 26.7 399.9 26.7 399.9 L 27.9 399.9 Z M 53 390.3 C 53 390.3 52.95 400 53 400 C 53 400.8 53 401.6 53 402.4 C 53 402.4 51.8 402.4 51.8 402.4 C 51.8 402 51.7 401.5 51.7 401 C 51.3 401.8 50.6 402.6 48.7 402.6 C 46.3 402.6 44.8 400.8 44.8 398.4 C 44.8 398.4 44.8 398.4 44.8 398.4 C 44.8 395.8 46.8 394.1 48.9 394.1 C 50.9 394.1 51.5 395 51.7 395.4 C 51.74 395.45 51.7 390.3 51.7 390.3 L 53 390.3 Z M 46.1 398.4 C 46.1 398.4 46.1 398.4 46.1 398.4 C 46.1 399.9 47 401.5 48.9 401.5 C 51 401.5 51.8 400.2 51.8 398.3 C 51.8 398.3 51.8 398.3 51.8 398.3 C 51.8 396.4 51.2 395.1 49 395.1 C 47 395.1 46.1 396.8 46.1 398.4 Z M 56.5 398.6 C 56.5 398.6 56.55 398.61 56.5 398.6 C 56.6 400.3 57.8 401.6 59.5 401.6 C 60.9 401.6 61.6 401 62.1 400.1 C 62.12 400.12 62.1 400.1 62.1 400.1 L 63.3 400.1 C 63.3 400.1 63.33 400.12 63.3 400.1 C 62.9 401.3 61.8 402.6 59.4 402.6 C 56.7 402.6 55.3 400.5 55.3 398.4 C 55.3 398.4 55.3 398.4 55.3 398.4 C 55.3 395.9 57 394.1 59.4 394.1 C 62.4 394.1 63.5 396.3 63.5 398.3 C 63.5 398.4 63.5 398.5 63.4 398.6 C 63.45 398.61 56.5 398.6 56.5 398.6 Z M 62.2 397.7 C 62.2 397.7 62.17 397.68 62.2 397.7 C 62.1 396.6 61.5 395.1 59.4 395.1 C 57.6 395.1 56.7 396.2 56.6 397.7 C 56.58 397.68 56.6 397.7 56.6 397.7 L 62.2 397.7 Z M 65.8 394.3 C 66.4 395.8 68.5 400.4 68.8 401.2 C 68.8 401.2 68.8 401.2 68.8 401.2 C 69 400.6 69.5 399.3 71.7 394.3 C 71.74 394.31 73 394.3 73 394.3 L 69.4 402.4 L 68.1 402.4 L 64.5 394.3 C 64.5 394.3 65.8 394.31 65.8 394.3 Z M 81.4 400.4 C 81.4 401.2 81.5 402.2 81.5 402.4 C 81.5 402.4 80.3 402.4 80.3 402.4 C 80.3 402 80.2 401.4 80.2 401.1 C 79.8 402 78.9 402.6 77.1 402.6 C 74.8 402.6 74 401.2 74 400 C 74 400 74 400 74 400 C 74 398 75.9 397.4 78.2 397.4 C 79.2 397.4 79.9 397.4 80.2 397.4 C 80.2 397.4 80.2 396.9 80.2 396.9 C 80.2 396 79.8 395.1 77.9 395.1 C 76.3 395.1 75.9 395.8 75.7 396.6 C 75.7 396.64 75.7 396.6 75.7 396.6 L 74.5 396.6 C 74.5 396.6 74.49 396.64 74.5 396.6 C 74.6 395.6 75.3 394.1 77.9 394.1 C 80.7 394.1 81.4 395.5 81.4 396.8 C 81.4 396.8 81.4 400.4 81.4 400.4 Z M 80.2 398.3 C 79.9 398.3 79.4 398.3 78.2 398.3 C 76.2 398.3 75.2 398.7 75.2 399.9 C 75.2 399.9 75.2 399.9 75.2 399.9 C 75.2 400.8 75.9 401.6 77.3 401.6 C 79.7 401.6 80.2 400.1 80.2 398.7 C 80.2 398.7 80.2 398.3 80.2 398.3 Z M 84.3 396.3 C 84.3 395.7 84.3 394.9 84.3 394.3 C 84.3 394.3 85.5 394.3 85.5 394.3 C 85.5 394.6 85.5 395.3 85.5 395.9 C 85.9 395.1 86.7 394.1 88.5 394.1 C 90.4 394.1 91.6 395.2 91.6 397.5 C 91.61 397.48 91.6 402.4 91.6 402.4 L 90.4 402.4 C 90.4 402.4 90.39 397.71 90.4 397.7 C 90.4 396.3 89.8 395.2 88.2 395.2 C 86.4 395.2 85.5 396.6 85.5 398.5 C 85.52 398.55 85.5 402.4 85.5 402.4 L 84.3 402.4 C 84.3 402.4 84.31 396.34 84.3 396.3 Z M 93.3 394.3 L 95 394.3 L 95 391.7 L 96.2 391.7 L 96.2 394.3 L 98.4 394.3 L 98.4 395.3 L 96.2 395.3 C 96.2 395.3 96.19 400.02 96.2 400 C 96.2 401 96.5 401.4 97.4 401.4 C 97.6 401.4 97.9 401.4 98.2 401.4 C 98.2 401.4 98.2 402.3 98.2 402.3 C 97.8 402.4 97.5 402.4 97 402.4 C 95.5 402.4 95 401.7 95 400.1 C 94.98 400.14 95 395.3 95 395.3 L 93.3 395.3 L 93.3 394.3 Z M 109.3 402.4 L 109.3 390.3 L 110.5 390.3 L 110.5 402.4 L 109.3 402.4 Z M 114.1 398.6 C 114.1 398.6 114.11 398.61 114.1 398.6 C 114.2 400.3 115.3 401.6 117.1 401.6 C 118.4 401.6 119.2 401 119.7 400.1 C 119.69 400.12 119.7 400.1 119.7 400.1 L 120.9 400.1 C 120.9 400.1 120.89 400.12 120.9 400.1 C 120.5 401.3 119.4 402.6 117 402.6 C 114.2 402.6 112.9 400.5 112.9 398.4 C 112.9 398.4 112.9 398.4 112.9 398.4 C 112.9 395.9 114.5 394.1 117 394.1 C 120 394.1 121 396.3 121 398.3 C 121 398.4 121 398.5 121 398.6 C 121.01 398.61 114.1 398.6 114.1 398.6 Z M 119.7 397.7 C 119.7 397.7 119.74 397.68 119.7 397.7 C 119.7 396.6 119.1 395.1 116.9 395.1 C 115.2 395.1 114.3 396.2 114.1 397.7 C 114.15 397.68 114.1 397.7 114.1 397.7 L 119.7 397.7 Z M 133.4 401 C 133.4 401.05 133.4 405.9 133.4 405.9 L 132.2 405.9 C 132.2 405.9 132.19 396.33 132.2 396.3 C 132.2 395.7 132.2 395 132.2 394.3 C 132.2 394.3 133.3 394.3 133.3 394.3 C 133.4 394.6 133.4 395.1 133.4 395.8 C 133.9 394.9 134.9 394.1 136.6 394.1 C 138.8 394.1 140.3 395.9 140.3 398.2 C 140.3 398.2 140.3 398.2 140.3 398.2 C 140.3 400.8 138.6 402.6 136.3 402.6 C 134.6 402.6 133.8 401.8 133.4 401 Z M 139.1 398.2 C 139.1 398.2 139.1 398.2 139.1 398.2 C 139.1 396.7 138.2 395.2 136.2 395.2 C 134.3 395.2 133.4 396.6 133.4 398.4 C 133.4 398.4 133.4 398.4 133.4 398.4 C 133.4 400.2 134.3 401.5 136.2 401.5 C 138.1 401.5 139.1 399.9 139.1 398.2 Z M 149.5 400.4 C 149.5 401.2 149.6 402.2 149.6 402.4 C 149.6 402.4 148.4 402.4 148.4 402.4 C 148.4 402 148.3 401.4 148.3 401.1 C 147.9 402 147 402.6 145.3 402.6 C 143 402.6 142.1 401.2 142.1 400 C 142.1 400 142.1 400 142.1 400 C 142.1 398 144 397.4 146.3 397.4 C 147.4 397.4 148.1 397.4 148.3 397.4 C 148.3 397.4 148.3 396.9 148.3 396.9 C 148.3 396 147.9 395.1 146.1 395.1 C 144.4 395.1 144 395.8 143.8 396.6 C 143.81 396.64 143.8 396.6 143.8 396.6 L 142.6 396.6 C 142.6 396.6 142.6 396.64 142.6 396.6 C 142.7 395.6 143.4 394.1 146.1 394.1 C 148.8 394.1 149.5 395.5 149.5 396.8 C 149.5 396.8 149.5 400.4 149.5 400.4 Z M 148.3 398.3 C 148.1 398.3 147.5 398.3 146.3 398.3 C 144.3 398.3 143.3 398.7 143.3 399.9 C 143.3 399.9 143.3 399.9 143.3 399.9 C 143.3 400.8 144 401.6 145.4 401.6 C 147.8 401.6 148.3 400.1 148.3 398.7 C 148.3 398.7 148.3 398.3 148.3 398.3 Z M 152.4 396.3 C 152.4 395.7 152.4 394.9 152.4 394.3 C 152.4 394.3 153.6 394.3 153.6 394.3 C 153.6 394.6 153.6 395.3 153.6 395.9 C 154 395.1 154.8 394.1 156.6 394.1 C 158.5 394.1 159.7 395.2 159.7 397.5 C 159.72 397.48 159.7 402.4 159.7 402.4 L 158.5 402.4 C 158.5 402.4 158.51 397.71 158.5 397.7 C 158.5 396.3 158 395.2 156.4 395.2 C 154.5 395.2 153.6 396.6 153.6 398.5 C 153.63 398.55 153.6 402.4 153.6 402.4 L 152.4 402.4 C 152.4 402.4 152.42 396.34 152.4 396.3 Z M 162.6 396.3 C 162.6 395.7 162.6 394.9 162.6 394.3 C 162.6 394.3 163.8 394.3 163.8 394.3 C 163.8 394.6 163.8 395.3 163.8 395.9 C 164.2 395.1 165 394.1 166.8 394.1 C 168.7 394.1 169.9 395.2 169.9 397.5 C 169.9 397.48 169.9 402.4 169.9 402.4 L 168.7 402.4 C 168.7 402.4 168.69 397.71 168.7 397.7 C 168.7 396.3 168.1 395.2 166.5 395.2 C 164.7 395.2 163.8 396.6 163.8 398.5 C 163.81 398.55 163.8 402.4 163.8 402.4 L 162.6 402.4 C 162.6 402.4 162.6 396.34 162.6 396.3 Z M 173.5 398.6 C 173.5 398.6 173.46 398.61 173.5 398.6 C 173.5 400.3 174.7 401.6 176.4 401.6 C 177.8 401.6 178.6 401 179 400.1 C 179.03 400.12 179 400.1 179 400.1 L 180.2 400.1 C 180.2 400.1 180.24 400.12 180.2 400.1 C 179.8 401.3 178.7 402.6 176.3 402.6 C 173.6 402.6 172.2 400.5 172.2 398.4 C 172.2 398.4 172.2 398.4 172.2 398.4 C 172.2 395.9 173.9 394.1 176.3 394.1 C 179.3 394.1 180.4 396.3 180.4 398.3 C 180.4 398.4 180.4 398.5 180.4 398.6 C 180.36 398.61 173.5 398.6 173.5 398.6 Z M 179.1 397.7 C 179.1 397.7 179.08 397.68 179.1 397.7 C 179 396.6 178.4 395.1 176.3 395.1 C 174.5 395.1 173.6 396.2 173.5 397.7 C 173.49 397.68 173.5 397.7 173.5 397.7 L 179.1 397.7 Z M 189.5 400.4 C 189.5 401.2 189.6 402.2 189.6 402.4 C 189.6 402.4 188.4 402.4 188.4 402.4 C 188.4 402 188.4 401.4 188.4 401.1 C 187.9 402 187 402.6 185.3 402.6 C 183 402.6 182.1 401.2 182.1 400 C 182.1 400 182.1 400 182.1 400 C 182.1 398 184 397.4 186.3 397.4 C 187.4 397.4 188.1 397.4 188.3 397.4 C 188.3 397.4 188.3 396.9 188.3 396.9 C 188.3 396 187.9 395.1 186.1 395.1 C 184.4 395.1 184 395.8 183.8 396.6 C 183.82 396.64 183.8 396.6 183.8 396.6 L 182.6 396.6 C 182.6 396.6 182.61 396.64 182.6 396.6 C 182.7 395.6 183.4 394.1 186.1 394.1 C 188.8 394.1 189.5 395.5 189.5 396.8 C 189.5 396.8 189.5 400.4 189.5 400.4 Z M 188.3 398.3 C 188.1 398.3 187.5 398.3 186.3 398.3 C 184.3 398.3 183.4 398.7 183.4 399.9 C 183.4 399.9 183.4 399.9 183.4 399.9 C 183.4 400.8 184 401.6 185.5 401.6 C 187.8 401.6 188.3 400.1 188.3 398.7 C 188.3 398.7 188.3 398.3 188.3 398.3 Z M 199.5 400 C 199.5 400.8 199.5 401.6 199.6 402.4 C 199.6 402.4 198.4 402.4 198.4 402.4 C 198.4 402.1 198.3 401.5 198.3 400.9 C 197.9 401.9 197.2 402.6 195.4 402.6 C 193.7 402.6 192.4 401.7 192.4 399.3 C 192.36 399.33 192.4 394.3 192.4 394.3 L 193.6 394.3 C 193.6 394.3 193.57 399.09 193.6 399.1 C 193.6 400.4 194.1 401.5 195.6 401.5 C 197.5 401.5 198.3 400.4 198.3 397.9 C 198.33 397.93 198.3 394.3 198.3 394.3 L 199.5 394.3 C 199.5 394.3 199.54 400.01 199.5 400 Z M 218.9 390.3 C 218.9 390.3 218.91 400 218.9 400 C 218.9 400.8 218.9 401.6 218.9 402.4 C 218.9 402.4 217.8 402.4 217.8 402.4 C 217.7 402 217.7 401.5 217.7 401 C 217.3 401.8 216.6 402.6 214.7 402.6 C 212.3 402.6 210.8 400.8 210.8 398.4 C 210.8 398.4 210.8 398.4 210.8 398.4 C 210.8 395.8 212.7 394.1 214.8 394.1 C 216.8 394.1 217.5 395 217.7 395.4 C 217.7 395.45 217.7 390.3 217.7 390.3 L 218.9 390.3 Z M 212 398.4 C 212 398.4 212 398.4 212 398.4 C 212 399.9 213 401.5 214.9 401.5 C 216.9 401.5 217.8 400.2 217.8 398.3 C 217.8 398.3 217.8 398.3 217.8 398.3 C 217.8 396.4 217.1 395.1 214.9 395.1 C 213 395.1 212 396.8 212 398.4 Z M 222.5 398.6 C 222.5 398.6 222.51 398.61 222.5 398.6 C 222.6 400.3 223.7 401.6 225.5 401.6 C 226.8 401.6 227.6 401 228.1 400.1 C 228.08 400.12 228.1 400.1 228.1 400.1 L 229.3 400.1 C 229.3 400.1 229.29 400.12 229.3 400.1 C 228.9 401.3 227.8 402.6 225.4 402.6 C 222.6 402.6 221.3 400.5 221.3 398.4 C 221.3 398.4 221.3 398.4 221.3 398.4 C 221.3 395.9 222.9 394.1 225.4 394.1 C 228.4 394.1 229.4 396.3 229.4 398.3 C 229.4 398.4 229.4 398.5 229.4 398.6 C 229.41 398.61 222.5 398.6 222.5 398.6 Z M 228.1 397.7 C 228.1 397.7 228.13 397.68 228.1 397.7 C 228.1 396.6 227.5 395.1 225.3 395.1 C 223.6 395.1 222.7 396.2 222.5 397.7 C 222.54 397.68 222.5 397.7 222.5 397.7 L 228.1 397.7 Z M 241 399.9 C 241 399.9 241.01 399.93 241 399.9 C 241.3 401 242.2 401.6 243.8 401.6 C 245.5 401.6 246.1 401 246.1 400.2 C 246.1 399.4 245.7 398.9 243.5 398.7 C 240.7 398.3 240.2 397.4 240.2 396.4 C 240.2 395.4 241 394.1 243.5 394.1 C 246.3 394.1 247 395.6 247.1 396.5 C 247.06 396.46 247.1 396.5 247.1 396.5 L 245.8 396.5 C 245.8 396.5 245.83 396.46 245.8 396.5 C 245.7 395.9 245.4 395.1 243.4 395.1 C 241.8 395.1 241.4 395.8 241.4 396.3 C 241.4 397 241.8 397.4 243.8 397.6 C 246.7 398 247.3 398.9 247.3 400.1 C 247.3 401.5 246.2 402.6 243.7 402.6 C 241.3 402.6 240.1 401.6 239.8 399.9 C 239.78 399.93 239.8 399.9 239.8 399.9 L 241 399.9 Z M 257.5 398.3 C 257.5 398.3 257.5 398.3 257.5 398.3 C 257.5 400.5 256.1 402.6 253.3 402.6 C 250.6 402.6 249.1 400.6 249.1 398.3 C 249.1 398.3 249.1 398.3 249.1 398.3 C 249.1 396 250.7 394.1 253.4 394.1 C 256 394.1 257.5 396.2 257.5 398.3 Z M 250.4 398.3 C 250.4 398.3 250.4 398.3 250.4 398.3 C 250.4 400 251.4 401.5 253.3 401.5 C 255.3 401.5 256.3 400.1 256.3 398.4 C 256.3 398.4 256.3 398.4 256.3 398.4 C 256.3 396.6 255.2 395.1 253.3 395.1 C 251.3 395.1 250.4 396.6 250.4 398.3 Z M 259.9 396.3 C 259.9 395.7 259.9 394.9 259.9 394.3 C 259.9 394.3 261 394.3 261 394.3 C 261.1 394.6 261.1 395.3 261.1 395.9 C 261.4 395.1 262.3 394.1 264.1 394.1 C 265.9 394.1 267.2 395.2 267.2 397.5 C 267.18 397.48 267.2 402.4 267.2 402.4 L 266 402.4 C 266 402.4 265.97 397.71 266 397.7 C 266 396.3 265.4 395.2 263.8 395.2 C 262 395.2 261.1 396.6 261.1 398.5 C 261.09 398.55 261.1 402.4 261.1 402.4 L 259.9 402.4 C 259.9 402.4 259.88 396.34 259.9 396.3 Z M 279 396.4 C 279 395.7 279 395 279 394.3 C 279 394.3 280.2 394.3 280.2 394.3 C 280.2 394.6 280.2 395.1 280.2 395.6 C 280.6 394.9 281.4 394.1 282.9 394.1 C 284.2 394.1 285 394.7 285.4 395.7 C 285.8 395 286.5 394.1 288.1 394.1 C 289.7 394.1 291 395 291 397.4 C 290.98 397.35 291 402.4 291 402.4 L 289.8 402.4 C 289.8 402.4 289.78 397.41 289.8 397.4 C 289.8 396.4 289.5 395.1 287.9 395.1 C 286.5 395.1 285.6 396.1 285.6 398 C 285.61 397.96 285.6 402.4 285.6 402.4 L 284.4 402.4 C 284.4 402.4 284.41 397.32 284.4 397.3 C 284.4 396.3 284.1 395.1 282.5 395.1 C 280.9 395.1 280.2 396.5 280.2 398.1 C 280.24 398.1 280.2 402.4 280.2 402.4 L 279 402.4 C 279 402.4 279.03 396.39 279 396.4 Z M 294.6 398.6 C 294.6 398.6 294.59 398.61 294.6 398.6 C 294.7 400.3 295.8 401.6 297.6 401.6 C 298.9 401.6 299.7 401 300.2 400.1 C 300.16 400.12 300.2 400.1 300.2 400.1 L 301.4 400.1 C 301.4 400.1 301.37 400.12 301.4 400.1 C 300.9 401.3 299.8 402.6 297.5 402.6 C 294.7 402.6 293.4 400.5 293.4 398.4 C 293.4 398.4 293.4 398.4 293.4 398.4 C 293.4 395.9 295 394.1 297.4 394.1 C 300.5 394.1 301.5 396.3 301.5 398.3 C 301.5 398.4 301.5 398.5 301.5 398.6 C 301.49 398.61 294.6 398.6 294.6 398.6 Z M 300.2 397.7 C 300.2 397.7 300.21 397.68 300.2 397.7 C 300.1 396.6 299.6 395.1 297.4 395.1 C 295.7 395.1 294.8 396.2 294.6 397.7 C 294.62 397.68 294.6 397.7 294.6 397.7 L 300.2 397.7 Z M 300.1 390.1 L 297.6 392.7 L 296.4 392.7 L 298.6 390.1 L 300.1 390.1 Z M 302.7 394.3 L 304.3 394.3 L 304.3 391.7 L 305.5 391.7 L 305.5 394.3 L 307.7 394.3 L 307.7 395.3 L 305.5 395.3 C 305.5 395.3 305.53 400.02 305.5 400 C 305.5 401 305.8 401.4 306.7 401.4 C 306.9 401.4 307.3 401.4 307.5 401.4 C 307.5 401.4 307.5 402.3 307.5 402.3 C 307.2 402.4 306.8 402.4 306.4 402.4 C 304.8 402.4 304.3 401.7 304.3 400.1 C 304.32 400.14 304.3 395.3 304.3 395.3 L 302.7 395.3 L 302.7 394.3 Z M 309.7 396.5 C 309.7 395.8 309.7 395 309.7 394.3 C 309.7 394.3 310.9 394.3 310.9 394.3 C 310.9 394.5 310.9 395.4 310.9 396.2 C 311.5 394.9 312.7 394.1 314.2 394.1 C 314.2 394.1 314.2 395.3 314.2 395.3 C 312.4 395.3 310.9 396.5 310.9 398.9 C 310.94 398.88 310.9 402.4 310.9 402.4 L 309.7 402.4 C 309.7 402.4 309.73 396.5 309.7 396.5 Z M 323.8 398.3 C 323.8 398.3 323.8 398.3 323.8 398.3 C 323.8 400.5 322.4 402.6 319.5 402.6 C 316.9 402.6 315.4 400.6 315.4 398.3 C 315.4 398.3 315.4 398.3 315.4 398.3 C 315.4 396 317 394.1 319.6 394.1 C 322.3 394.1 323.8 396.2 323.8 398.3 Z M 316.6 398.3 C 316.6 398.3 316.6 398.3 316.6 398.3 C 316.6 400 317.7 401.5 319.6 401.5 C 321.6 401.5 322.5 400.1 322.5 398.4 C 322.5 398.4 322.5 398.4 322.5 398.4 C 322.5 396.6 321.4 395.1 319.5 395.1 C 317.6 395.1 316.6 396.6 316.6 398.3 Z M 336.2 401 C 336.2 401.05 336.2 405.9 336.2 405.9 L 335 405.9 C 335 405.9 334.99 396.33 335 396.3 C 335 395.7 335 395 335 394.3 C 335 394.3 336.2 394.3 336.2 394.3 C 336.2 394.6 336.2 395.1 336.2 395.8 C 336.7 394.9 337.7 394.1 339.4 394.1 C 341.6 394.1 343.1 395.9 343.1 398.2 C 343.1 398.2 343.1 398.2 343.1 398.2 C 343.1 400.8 341.4 402.6 339.2 402.6 C 337.4 402.6 336.7 401.8 336.2 401 Z M 341.9 398.2 C 341.9 398.2 341.9 398.2 341.9 398.2 C 341.9 396.7 341 395.2 339 395.2 C 337.1 395.2 336.2 396.6 336.2 398.4 C 336.2 398.4 336.2 398.4 336.2 398.4 C 336.2 400.2 337.1 401.5 339 401.5 C 340.9 401.5 341.9 399.9 341.9 398.2 Z M 352.3 400.4 C 352.3 401.2 352.4 402.2 352.4 402.4 C 352.4 402.4 351.2 402.4 351.2 402.4 C 351.2 402 351.2 401.4 351.1 401.1 C 350.7 402 349.8 402.6 348.1 402.6 C 345.8 402.6 344.9 401.2 344.9 400 C 344.9 400 344.9 400 344.9 400 C 344.9 398 346.8 397.4 349.1 397.4 C 350.2 397.4 350.9 397.4 351.1 397.4 C 351.1 397.4 351.1 396.9 351.1 396.9 C 351.1 396 350.7 395.1 348.9 395.1 C 347.2 395.1 346.8 395.8 346.6 396.6 C 346.62 396.64 346.6 396.6 346.6 396.6 L 345.4 396.6 C 345.4 396.6 345.41 396.64 345.4 396.6 C 345.5 395.6 346.2 394.1 348.9 394.1 C 351.6 394.1 352.3 395.5 352.3 396.8 C 352.3 396.8 352.3 400.4 352.3 400.4 Z M 351.1 398.3 C 350.9 398.3 350.3 398.3 349.1 398.3 C 347.1 398.3 346.1 398.7 346.1 399.9 C 346.1 399.9 346.1 399.9 346.1 399.9 C 346.1 400.8 346.8 401.6 348.2 401.6 C 350.6 401.6 351.1 400.1 351.1 398.7 C 351.1 398.7 351.1 398.3 351.1 398.3 Z M 355.2 396.5 C 355.2 395.8 355.2 395 355.2 394.3 C 355.2 394.3 356.4 394.3 356.4 394.3 C 356.4 394.5 356.4 395.4 356.4 396.2 C 357 394.9 358.2 394.1 359.7 394.1 C 359.7 394.1 359.7 395.3 359.7 395.3 C 357.9 395.3 356.4 396.5 356.4 398.9 C 356.44 398.88 356.4 402.4 356.4 402.4 L 355.2 402.4 C 355.2 402.4 355.23 396.5 355.2 396.5 Z M 361.7 394.3 L 362.9 394.3 L 362.9 402.4 L 361.7 402.4 L 361.7 394.3 Z M 361.7 390.3 L 362.9 390.3 L 362.9 392.1 L 361.7 392.1 L 361.7 390.3 Z M 366.3 399.9 C 366.3 399.9 366.34 399.93 366.3 399.9 C 366.6 401 367.5 401.6 369.1 401.6 C 370.8 401.6 371.4 401 371.4 400.2 C 371.4 399.4 371 398.9 368.8 398.7 C 366.1 398.3 365.5 397.4 365.5 396.4 C 365.5 395.4 366.3 394.1 368.8 394.1 C 371.6 394.1 372.3 395.6 372.4 396.5 C 372.38 396.46 372.4 396.5 372.4 396.5 L 371.1 396.5 C 371.1 396.5 371.15 396.46 371.1 396.5 C 371 395.9 370.7 395.1 368.7 395.1 C 367.1 395.1 366.7 395.8 366.7 396.3 C 366.7 397 367.1 397.4 369.1 397.6 C 372 398 372.6 398.9 372.6 400.1 C 372.6 401.5 371.5 402.6 369 402.6 C 366.7 402.6 365.4 401.6 365.1 399.9 C 365.1 399.93 365.1 399.9 365.1 399.9 L 366.3 399.9 Z M 375 394.3 L 376.2 394.3 L 376.2 402.4 L 375 402.4 L 375 394.3 Z M 375 390.3 L 376.2 390.3 L 376.2 392.1 L 375 392.1 L 375 390.3 Z M 379.9 398.6 C 379.9 398.6 379.85 398.61 379.9 398.6 C 379.9 400.3 381.1 401.6 382.8 401.6 C 384.2 401.6 385 401 385.4 400.1 C 385.42 400.12 385.4 400.1 385.4 400.1 L 386.6 400.1 C 386.6 400.1 386.63 400.12 386.6 400.1 C 386.2 401.3 385.1 402.6 382.7 402.6 C 380 402.6 378.6 400.5 378.6 398.4 C 378.6 398.4 378.6 398.4 378.6 398.4 C 378.6 395.9 380.3 394.1 382.7 394.1 C 385.7 394.1 386.8 396.3 386.8 398.3 C 386.8 398.4 386.8 398.5 386.8 398.6 C 386.75 398.61 379.9 398.6 379.9 398.6 Z M 385.5 397.7 C 385.5 397.7 385.47 397.68 385.5 397.7 C 385.4 396.6 384.8 395.1 382.7 395.1 C 380.9 395.1 380 396.2 379.9 397.7 C 379.89 397.68 379.9 397.7 379.9 397.7 L 385.5 397.7 Z M 389.1 396.3 C 389.1 395.7 389.1 394.9 389.1 394.3 C 389.1 394.3 390.3 394.3 390.3 394.3 C 390.3 394.6 390.3 395.3 390.3 395.9 C 390.7 395.1 391.5 394.1 393.3 394.1 C 395.2 394.1 396.4 395.2 396.4 397.5 C 396.4 397.48 396.4 402.4 396.4 402.4 L 395.2 402.4 C 395.2 402.4 395.19 397.71 395.2 397.7 C 395.2 396.3 394.6 395.2 393 395.2 C 391.2 395.2 390.3 396.6 390.3 398.5 C 390.32 398.55 390.3 402.4 390.3 402.4 L 389.1 402.4 C 389.1 402.4 389.11 396.34 389.1 396.3 Z M 414.6 401 C 414.1 401.8 413.3 402.6 411.5 402.6 C 409.3 402.6 407.6 400.8 407.6 398.4 C 407.6 398.4 407.6 398.4 407.6 398.4 C 407.6 395.7 409.6 394.1 411.6 394.1 C 413.6 394.1 414.4 395.1 414.6 395.6 C 414.6 395 414.6 394.6 414.6 394.3 C 414.6 394.3 415.8 394.3 415.8 394.3 C 415.8 394.9 415.8 395.8 415.8 396.6 C 415.8 396.59 415.8 405.9 415.8 405.9 L 414.6 405.9 C 414.6 405.9 414.59 401.01 414.6 401 Z M 408.9 398.4 C 408.9 398.4 408.9 398.4 408.9 398.4 C 408.9 400.1 410 401.5 411.7 401.5 C 413.6 401.5 414.6 400.4 414.6 398.3 C 414.6 398.3 414.6 398.3 414.6 398.3 C 414.6 396.4 413.8 395.2 411.8 395.2 C 409.9 395.2 408.9 396.6 408.9 398.4 Z M 425.9 400 C 425.9 400.8 425.9 401.6 425.9 402.4 C 425.9 402.4 424.7 402.4 424.7 402.4 C 424.7 402.1 424.7 401.5 424.7 400.9 C 424.3 401.9 423.5 402.6 421.7 402.6 C 420 402.6 418.7 401.7 418.7 399.3 C 418.68 399.33 418.7 394.3 418.7 394.3 L 419.9 394.3 C 419.9 394.3 419.89 399.09 419.9 399.1 C 419.9 400.4 420.4 401.5 422 401.5 C 423.8 401.5 424.7 400.4 424.7 397.9 C 424.66 397.93 424.7 394.3 424.7 394.3 L 425.9 394.3 C 425.9 394.3 425.87 400.01 425.9 400 Z M 428.8 394.3 L 430 394.3 L 430 402.4 L 428.8 402.4 L 428.8 394.3 Z M 428.8 390.3 L 430 390.3 L 430 392.1 L 428.8 392.1 L 428.8 390.3 Z M 448.6 400.4 C 448.6 401.2 448.7 402.2 448.7 402.4 C 448.7 402.4 447.5 402.4 447.5 402.4 C 447.5 402 447.5 401.4 447.4 401.1 C 447 402 446.1 402.6 444.4 402.6 C 442.1 402.6 441.2 401.2 441.2 400 C 441.2 400 441.2 400 441.2 400 C 441.2 398 443.1 397.4 445.4 397.4 C 446.5 397.4 447.2 397.4 447.4 397.4 C 447.4 397.4 447.4 396.9 447.4 396.9 C 447.4 396 447 395.1 445.2 395.1 C 443.5 395.1 443.1 395.8 442.9 396.6 C 442.92 396.64 442.9 396.6 442.9 396.6 L 441.7 396.6 C 441.7 396.6 441.71 396.64 441.7 396.6 C 441.8 395.6 442.5 394.1 445.2 394.1 C 447.9 394.1 448.6 395.5 448.6 396.8 C 448.6 396.8 448.6 400.4 448.6 400.4 Z M 447.4 398.3 C 447.2 398.3 446.6 398.3 445.4 398.3 C 443.4 398.3 442.5 398.7 442.5 399.9 C 442.5 399.9 442.5 399.9 442.5 399.9 C 442.5 400.8 443.1 401.6 444.5 401.6 C 446.9 401.6 447.4 400.1 447.4 398.7 C 447.4 398.7 447.4 398.3 447.4 398.3 Z " stroke="none" fill="#141414"/>  </g>  <g id="Polygon10360">    <path d="M 7.7 352.4 C 7.2 353.2 6.4 353.9 4.6 353.9 C 2.4 353.9 0.7 352.2 0.7 349.8 C 0.7 349.8 0.7 349.8 0.7 349.8 C 0.7 347.1 2.7 345.4 4.7 345.4 C 6.7 345.4 7.5 346.5 7.7 346.9 C 7.7 346.3 7.7 345.9 7.7 345.7 C 7.7 345.7 8.9 345.7 8.9 345.7 C 8.9 346.3 8.9 347.2 8.9 347.9 C 8.89 347.95 8.9 357.3 8.9 357.3 L 7.7 357.3 C 7.7 357.3 7.68 352.37 7.7 352.4 Z M 2 349.7 C 2 349.7 2 349.7 2 349.7 C 2 351.5 3.1 352.9 4.8 352.9 C 6.7 352.9 7.7 351.8 7.7 349.7 C 7.7 349.7 7.7 349.7 7.7 349.7 C 7.7 347.8 6.8 346.5 4.9 346.5 C 3 346.5 2 348 2 349.7 Z M 19 351.4 C 19 352.2 19 352.9 19 353.7 C 19 353.7 17.8 353.7 17.8 353.7 C 17.8 353.5 17.8 352.9 17.8 352.2 C 17.3 353.2 16.6 353.9 14.8 353.9 C 13.1 353.9 11.8 353 11.8 350.7 C 11.78 350.69 11.8 345.7 11.8 345.7 L 13 345.7 C 13 345.7 12.99 350.45 13 350.5 C 13 351.7 13.5 352.9 15.1 352.9 C 16.9 352.9 17.7 351.8 17.7 349.3 C 17.75 349.29 17.7 345.7 17.7 345.7 L 19 345.7 C 19 345.7 18.96 351.37 19 351.4 Z M 22.6 350 C 22.6 350 22.55 349.97 22.6 350 C 22.6 351.7 23.8 352.9 25.5 352.9 C 26.9 352.9 27.6 352.3 28.1 351.5 C 28.12 351.48 28.1 351.5 28.1 351.5 L 29.3 351.5 C 29.3 351.5 29.33 351.48 29.3 351.5 C 28.9 352.6 27.8 353.9 25.4 353.9 C 22.7 353.9 21.3 351.9 21.3 349.7 C 21.3 349.7 21.3 349.7 21.3 349.7 C 21.3 347.2 23 345.4 25.4 345.4 C 28.4 345.4 29.5 347.7 29.5 349.6 C 29.5 349.7 29.5 349.8 29.5 350 C 29.45 349.97 22.6 350 22.6 350 Z M 28.2 349 C 28.2 349 28.17 349.04 28.2 349 C 28.1 348 27.5 346.4 25.4 346.4 C 23.6 346.4 22.7 347.6 22.6 349 C 22.58 349.04 22.6 349 22.6 349 L 28.2 349 Z M 40.5 351.3 C 40.5 351.3 40.5 351.29 40.5 351.3 C 40.8 352.4 41.7 353 43.3 353 C 45 353 45.6 352.4 45.6 351.5 C 45.6 350.8 45.2 350.3 43 350 C 40.2 349.7 39.7 348.8 39.7 347.8 C 39.7 346.8 40.5 345.4 43 345.4 C 45.7 345.4 46.5 346.9 46.5 347.8 C 46.54 347.82 46.5 347.8 46.5 347.8 L 45.3 347.8 C 45.3 347.8 45.31 347.82 45.3 347.8 C 45.2 347.3 44.8 346.4 42.9 346.4 C 41.2 346.4 40.9 347.1 40.9 347.7 C 40.9 348.3 41.3 348.7 43.2 349 C 46.2 349.4 46.8 350.2 46.8 351.5 C 46.8 352.9 45.7 353.9 43.2 353.9 C 40.8 353.9 39.6 352.9 39.3 351.3 C 39.27 351.29 39.3 351.3 39.3 351.3 L 40.5 351.3 Z M 49.8 350 C 49.8 350 49.83 349.97 49.8 350 C 49.9 351.7 51.1 352.9 52.8 352.9 C 54.2 352.9 54.9 352.3 55.4 351.5 C 55.4 351.48 55.4 351.5 55.4 351.5 L 56.6 351.5 C 56.6 351.5 56.61 351.48 56.6 351.5 C 56.2 352.6 55.1 353.9 52.7 353.9 C 50 353.9 48.6 351.9 48.6 349.7 C 48.6 349.7 48.6 349.7 48.6 349.7 C 48.6 347.2 50.3 345.4 52.7 345.4 C 55.7 345.4 56.7 347.7 56.7 349.6 C 56.7 349.7 56.7 349.8 56.7 350 C 56.73 349.97 49.8 350 49.8 350 Z M 55.4 349 C 55.4 349 55.45 349.04 55.4 349 C 55.4 348 54.8 346.4 52.7 346.4 C 50.9 346.4 50 347.6 49.9 349 C 49.86 349.04 49.9 349 49.9 349 L 55.4 349 Z M 59.7 351.3 C 59.7 351.3 59.65 351.29 59.7 351.3 C 60 352.4 60.9 353 62.4 353 C 64.1 353 64.7 352.4 64.7 351.5 C 64.7 350.8 64.3 350.3 62.1 350 C 59.4 349.7 58.8 348.8 58.8 347.8 C 58.8 346.8 59.6 345.4 62.1 345.4 C 64.9 345.4 65.6 346.9 65.7 347.8 C 65.69 347.82 65.7 347.8 65.7 347.8 L 64.5 347.8 C 64.5 347.8 64.47 347.82 64.5 347.8 C 64.3 347.3 64 346.4 62 346.4 C 60.4 346.4 60 347.1 60 347.7 C 60 348.3 60.5 348.7 62.4 349 C 65.4 349.4 66 350.2 66 351.5 C 66 352.9 64.9 353.9 62.4 353.9 C 60 353.9 58.7 352.9 58.4 351.3 C 58.42 351.29 58.4 351.3 58.4 351.3 L 59.7 351.3 Z M 77.1 351.3 C 77.1 351.3 77.07 351.29 77.1 351.3 C 77.4 352.4 78.3 353 79.9 353 C 81.5 353 82.2 352.4 82.2 351.5 C 82.2 350.8 81.7 350.3 79.6 350 C 76.8 349.7 76.2 348.8 76.2 347.8 C 76.2 346.8 77 345.4 79.5 345.4 C 82.3 345.4 83 346.9 83.1 347.8 C 83.12 347.82 83.1 347.8 83.1 347.8 L 81.9 347.8 C 81.9 347.8 81.89 347.82 81.9 347.8 C 81.8 347.3 81.4 346.4 79.5 346.4 C 77.8 346.4 77.5 347.1 77.5 347.7 C 77.5 348.3 77.9 348.7 79.8 349 C 82.8 349.4 83.4 350.2 83.4 351.5 C 83.4 352.9 82.3 353.9 79.8 353.9 C 77.4 353.9 76.1 352.9 75.8 351.3 C 75.84 351.29 75.8 351.3 75.8 351.3 L 77.1 351.3 Z M 84.7 345.7 L 86.4 345.7 L 86.4 343 L 87.6 343 L 87.6 345.7 L 89.8 345.7 L 89.8 346.7 L 87.6 346.7 C 87.6 346.7 87.59 351.38 87.6 351.4 C 87.6 352.4 87.9 352.8 88.8 352.8 C 89 352.8 89.3 352.8 89.6 352.7 C 89.6 352.7 89.6 353.7 89.6 353.7 C 89.2 353.8 88.9 353.8 88.4 353.8 C 86.9 353.8 86.4 353.1 86.4 351.5 C 86.38 351.5 86.4 346.7 86.4 346.7 L 84.7 346.7 L 84.7 345.7 Z M 98.7 351.8 C 98.7 352.5 98.7 353.5 98.7 353.7 C 98.7 353.7 97.6 353.7 97.6 353.7 C 97.5 353.4 97.5 352.7 97.5 352.5 C 97.1 353.3 96.2 353.9 94.4 353.9 C 92.1 353.9 91.3 352.6 91.3 351.4 C 91.3 351.4 91.3 351.4 91.3 351.4 C 91.3 349.3 93.2 348.8 95.4 348.8 C 96.5 348.8 97.2 348.8 97.5 348.8 C 97.5 348.8 97.5 348.3 97.5 348.3 C 97.5 347.3 97.1 346.4 95.2 346.4 C 93.5 346.4 93.1 347.2 92.9 348 C 92.95 348 92.9 348 92.9 348 L 91.7 348 C 91.7 348 91.74 348 91.7 348 C 91.8 346.9 92.6 345.4 95.2 345.4 C 98 345.4 98.7 346.8 98.7 348.1 C 98.7 348.1 98.7 351.8 98.7 351.8 Z M 97.5 349.7 C 97.2 349.7 96.7 349.7 95.5 349.7 C 93.5 349.7 92.5 350.1 92.5 351.3 C 92.5 351.3 92.5 351.3 92.5 351.3 C 92.5 352.2 93.1 352.9 94.6 352.9 C 96.9 352.9 97.5 351.5 97.5 350.1 C 97.5 350.1 97.5 349.7 97.5 349.7 Z M 100.5 345.7 L 102.1 345.7 L 102.1 343 L 103.3 343 L 103.3 345.7 L 105.5 345.7 L 105.5 346.7 L 103.3 346.7 C 103.3 346.7 103.33 351.38 103.3 351.4 C 103.3 352.4 103.6 352.8 104.5 352.8 C 104.7 352.8 105.1 352.8 105.3 352.7 C 105.3 352.7 105.3 353.7 105.3 353.7 C 105 353.8 104.6 353.8 104.2 353.8 C 102.6 353.8 102.1 353.1 102.1 351.5 C 102.12 351.5 102.1 346.7 102.1 346.7 L 100.5 346.7 L 100.5 345.7 Z M 117.1 349.6 C 117.1 349.6 117.08 349.63 117.1 349.6 C 117.9 348.9 120.5 346.8 121.8 345.7 C 121.81 345.67 123.4 345.7 123.4 345.7 L 119.6 348.8 L 123.8 353.7 L 122.2 353.7 L 118.7 349.5 L 117.1 350.7 L 117.1 353.7 L 115.9 353.7 L 115.9 341.7 L 117.1 341.7 L 117.1 349.6 Z M 125.6 345.7 L 126.8 345.7 L 126.8 353.7 L 125.6 353.7 L 125.6 345.7 Z M 125.6 341.7 L 126.8 341.7 L 126.8 343.4 L 125.6 343.4 L 125.6 341.7 Z M 129.7 353.7 L 129.7 341.7 L 130.9 341.7 L 130.9 353.7 L 129.7 353.7 Z M 141.7 349.7 C 141.7 349.7 141.7 349.7 141.7 349.7 C 141.7 351.9 140.3 353.9 137.5 353.9 C 134.8 353.9 133.3 351.9 133.3 349.7 C 133.3 349.7 133.3 349.7 133.3 349.7 C 133.3 347.4 134.9 345.4 137.5 345.4 C 140.2 345.4 141.7 347.5 141.7 349.7 Z M 134.5 349.7 C 134.5 349.7 134.5 349.7 134.5 349.7 C 134.5 351.3 135.6 352.9 137.5 352.9 C 139.5 352.9 140.4 351.4 140.4 349.7 C 140.4 349.7 140.4 349.7 140.4 349.7 C 140.4 348 139.4 346.5 137.5 346.5 C 135.5 346.5 134.5 348 134.5 349.7 Z M 144.1 347.7 C 144.1 347.1 144.1 346.4 144 345.7 C 144 345.7 145.2 345.7 145.2 345.7 C 145.3 346 145.3 346.5 145.3 346.9 C 145.7 346.2 146.4 345.4 147.9 345.4 C 149.2 345.4 150 346.1 150.4 347.1 C 150.8 346.3 151.6 345.4 153.2 345.4 C 154.7 345.4 156 346.3 156 348.7 C 156.01 348.71 156 353.7 156 353.7 L 154.8 353.7 C 154.8 353.7 154.81 348.77 154.8 348.8 C 154.8 347.8 154.5 346.5 152.9 346.5 C 151.6 346.5 150.6 347.5 150.6 349.3 C 150.64 349.32 150.6 353.7 150.6 353.7 L 149.4 353.7 C 149.4 353.7 149.43 348.68 149.4 348.7 C 149.4 347.7 149.1 346.5 147.6 346.5 C 145.9 346.5 145.3 347.8 145.3 349.5 C 145.26 349.46 145.3 353.7 145.3 353.7 L 144.1 353.7 C 144.1 353.7 144.06 347.75 144.1 347.7 Z M 159.6 350 C 159.6 350 159.61 349.97 159.6 350 C 159.7 351.7 160.8 352.9 162.6 352.9 C 163.9 352.9 164.7 352.3 165.2 351.5 C 165.18 351.48 165.2 351.5 165.2 351.5 L 166.4 351.5 C 166.4 351.5 166.39 351.48 166.4 351.5 C 166 352.6 164.9 353.9 162.5 353.9 C 159.7 353.9 158.4 351.9 158.4 349.7 C 158.4 349.7 158.4 349.7 158.4 349.7 C 158.4 347.2 160 345.4 162.5 345.4 C 165.5 345.4 166.5 347.7 166.5 349.6 C 166.5 349.7 166.5 349.8 166.5 350 C 166.51 349.97 159.6 350 159.6 350 Z M 165.2 349 C 165.2 349 165.23 349.04 165.2 349 C 165.2 348 164.6 346.4 162.4 346.4 C 160.7 346.4 159.8 347.6 159.6 349 C 159.64 349.04 159.6 349 159.6 349 L 165.2 349 Z M 161.2 341.5 L 163.5 344.1 L 162.2 344.1 L 159.7 341.5 L 161.2 341.5 Z M 167.7 345.7 L 169.3 345.7 L 169.3 343 L 170.6 343 L 170.6 345.7 L 172.7 345.7 L 172.7 346.7 L 170.6 346.7 C 170.6 346.7 170.55 351.38 170.6 351.4 C 170.6 352.4 170.8 352.8 171.7 352.8 C 172 352.8 172.3 352.8 172.5 352.7 C 172.5 352.7 172.5 353.7 172.5 353.7 C 172.2 353.8 171.8 353.8 171.4 353.8 C 169.8 353.8 169.3 353.1 169.3 351.5 C 169.34 351.5 169.3 346.7 169.3 346.7 L 167.7 346.7 L 167.7 345.7 Z M 174.8 347.9 C 174.8 347.1 174.8 346.4 174.7 345.7 C 174.7 345.7 175.9 345.7 175.9 345.7 C 175.9 345.9 176 346.7 176 347.5 C 176.5 346.3 177.7 345.4 179.3 345.4 C 179.3 345.4 179.3 346.6 179.3 346.6 C 177.4 346.6 176 347.8 176 350.2 C 175.96 350.24 176 353.7 176 353.7 L 174.8 353.7 C 174.8 353.7 174.75 347.86 174.8 347.9 Z M 181.6 350 C 181.6 350 181.65 349.97 181.6 350 C 181.7 351.7 182.9 352.9 184.6 352.9 C 186 352.9 186.7 352.3 187.2 351.5 C 187.22 351.48 187.2 351.5 187.2 351.5 L 188.4 351.5 C 188.4 351.5 188.43 351.48 188.4 351.5 C 188 352.6 186.9 353.9 184.5 353.9 C 181.8 353.9 180.4 351.9 180.4 349.7 C 180.4 349.7 180.4 349.7 180.4 349.7 C 180.4 347.2 182.1 345.4 184.5 345.4 C 187.5 345.4 188.5 347.7 188.5 349.6 C 188.5 349.7 188.5 349.8 188.5 350 C 188.55 349.97 181.6 350 181.6 350 Z M 187.3 349 C 187.3 349 187.27 349.04 187.3 349 C 187.2 348 186.6 346.4 184.5 346.4 C 182.7 346.4 181.8 347.6 181.7 349 C 181.68 349.04 181.7 349 181.7 349 L 187.3 349 Z M 191.5 351.3 C 191.5 351.3 191.47 351.29 191.5 351.3 C 191.8 352.4 192.7 353 194.2 353 C 195.9 353 196.6 352.4 196.6 351.5 C 196.6 350.8 196.1 350.3 194 350 C 191.2 349.7 190.6 348.8 190.6 347.8 C 190.6 346.8 191.4 345.4 193.9 345.4 C 196.7 345.4 197.4 346.9 197.5 347.8 C 197.52 347.82 197.5 347.8 197.5 347.8 L 196.3 347.8 C 196.3 347.8 196.29 347.82 196.3 347.8 C 196.2 347.3 195.8 346.4 193.9 346.4 C 192.2 346.4 191.9 347.1 191.9 347.7 C 191.9 348.3 192.3 348.7 194.2 349 C 197.2 349.4 197.8 350.2 197.8 351.5 C 197.8 352.9 196.7 353.9 194.2 353.9 C 191.8 353.9 190.5 352.9 190.2 351.3 C 190.24 351.29 190.2 351.3 190.2 351.3 L 191.5 351.3 Z M 209 350 C 209 350 209.04 349.97 209 350 C 209.1 351.7 210.3 352.9 212 352.9 C 213.4 352.9 214.1 352.3 214.6 351.5 C 214.61 351.48 214.6 351.5 214.6 351.5 L 215.8 351.5 C 215.8 351.5 215.82 351.48 215.8 351.5 C 215.4 352.6 214.3 353.9 211.9 353.9 C 209.2 353.9 207.8 351.9 207.8 349.7 C 207.8 349.7 207.8 349.7 207.8 349.7 C 207.8 347.2 209.5 345.4 211.9 345.4 C 214.9 345.4 215.9 347.7 215.9 349.6 C 215.9 349.7 215.9 349.8 215.9 350 C 215.94 349.97 209 350 209 350 Z M 214.7 349 C 214.7 349 214.66 349.04 214.7 349 C 214.6 348 214 346.4 211.9 346.4 C 210.1 346.4 209.2 347.6 209.1 349 C 209.07 349.04 209.1 349 209.1 349 L 214.7 349 Z M 217.1 345.7 L 218.8 345.7 L 218.8 343 L 220 343 L 220 345.7 L 222.1 345.7 L 222.1 346.7 L 220 346.7 C 220 346.7 219.98 351.38 220 351.4 C 220 352.4 220.2 352.8 221.1 352.8 C 221.4 352.8 221.7 352.8 222 352.7 C 222 352.7 222 353.7 222 353.7 C 221.6 353.8 221.3 353.8 220.8 353.8 C 219.3 353.8 218.8 353.1 218.8 351.5 C 218.77 351.5 218.8 346.7 218.8 346.7 L 217.1 346.7 L 217.1 345.7 Z M 239.9 351.3 C 239.9 351.3 239.91 351.26 239.9 351.3 C 239.5 352.7 238.2 353.9 236.1 353.9 C 233.3 353.9 231.9 352 231.9 349.7 C 231.9 349.7 231.9 349.7 231.9 349.7 C 231.9 347.4 233.4 345.4 236.1 345.4 C 238.7 345.4 239.7 347.1 239.9 348.2 C 239.9 348.19 239.9 348.2 239.9 348.2 L 238.7 348.2 C 238.7 348.2 238.69 348.19 238.7 348.2 C 238.4 347.3 237.7 346.5 236.1 346.5 C 234.2 346.5 233.1 347.8 233.1 349.7 C 233.1 349.7 233.1 349.7 233.1 349.7 C 233.1 351.5 234.2 352.9 236.1 352.9 C 237.5 352.9 238.3 352.2 238.7 351.3 C 238.7 351.26 238.7 351.3 238.7 351.3 L 239.9 351.3 Z M 249.1 351.8 C 249.1 352.5 249.2 353.5 249.2 353.7 C 249.2 353.7 248 353.7 248 353.7 C 248 353.4 247.9 352.7 247.9 352.5 C 247.5 353.3 246.6 353.9 244.9 353.9 C 242.6 353.9 241.7 352.6 241.7 351.4 C 241.7 351.4 241.7 351.4 241.7 351.4 C 241.7 349.3 243.6 348.8 245.9 348.8 C 247 348.8 247.7 348.8 247.9 348.8 C 247.9 348.8 247.9 348.3 247.9 348.3 C 247.9 347.3 247.5 346.4 245.7 346.4 C 244 346.4 243.6 347.2 243.4 348 C 243.41 348 243.4 348 243.4 348 L 242.2 348 C 242.2 348 242.2 348 242.2 348 C 242.3 346.9 243 345.4 245.7 345.4 C 248.4 345.4 249.1 346.8 249.1 348.1 C 249.1 348.1 249.1 351.8 249.1 351.8 Z M 247.9 349.7 C 247.7 349.7 247.1 349.7 245.9 349.7 C 243.9 349.7 242.9 350.1 242.9 351.3 C 242.9 351.3 242.9 351.3 242.9 351.3 C 242.9 352.2 243.6 352.9 245 352.9 C 247.4 352.9 247.9 351.5 247.9 350.1 C 247.9 350.1 247.9 349.7 247.9 349.7 Z M 252 353.7 L 252 341.7 L 253.2 341.7 L 253.2 353.7 L 252 353.7 Z M 264 349.7 C 264 349.7 264 349.7 264 349.7 C 264 351.9 262.6 353.9 259.8 353.9 C 257.1 353.9 255.6 351.9 255.6 349.7 C 255.6 349.7 255.6 349.7 255.6 349.7 C 255.6 347.4 257.2 345.4 259.8 345.4 C 262.5 345.4 264 347.5 264 349.7 Z M 256.8 349.7 C 256.8 349.7 256.8 349.7 256.8 349.7 C 256.8 351.3 257.9 352.9 259.8 352.9 C 261.8 352.9 262.7 351.4 262.7 349.7 C 262.7 349.7 262.7 349.7 262.7 349.7 C 262.7 348 261.7 346.5 259.8 346.5 C 257.8 346.5 256.8 348 256.8 349.7 Z M 266.4 347.9 C 266.4 347.1 266.4 346.4 266.3 345.7 C 266.3 345.7 267.5 345.7 267.5 345.7 C 267.5 345.9 267.6 346.7 267.6 347.5 C 268.1 346.3 269.3 345.4 270.9 345.4 C 270.9 345.4 270.9 346.6 270.9 346.6 C 269 346.6 267.6 347.8 267.6 350.2 C 267.57 350.24 267.6 353.7 267.6 353.7 L 266.4 353.7 C 266.4 353.7 266.36 347.86 266.4 347.9 Z M 272.8 345.7 L 274 345.7 L 274 353.7 L 272.8 353.7 L 272.8 345.7 Z M 272.8 341.7 L 274 341.7 L 274 343.4 L 272.8 343.4 L 272.8 341.7 Z M 277.6 350 C 277.6 350 277.64 349.97 277.6 350 C 277.7 351.7 278.9 352.9 280.6 352.9 C 282 352.9 282.7 352.3 283.2 351.5 C 283.21 351.48 283.2 351.5 283.2 351.5 L 284.4 351.5 C 284.4 351.5 284.42 351.48 284.4 351.5 C 284 352.6 282.9 353.9 280.5 353.9 C 277.8 353.9 276.4 351.9 276.4 349.7 C 276.4 349.7 276.4 349.7 276.4 349.7 C 276.4 347.2 278.1 345.4 280.5 345.4 C 283.5 345.4 284.5 347.7 284.5 349.6 C 284.5 349.7 284.5 349.8 284.5 350 C 284.54 349.97 277.6 350 277.6 350 Z M 283.3 349 C 283.3 349 283.26 349.04 283.3 349 C 283.2 348 282.6 346.4 280.5 346.4 C 278.7 346.4 277.8 347.6 277.7 349 C 277.67 349.04 277.7 349 277.7 349 L 283.3 349 Z M 287.5 351.3 C 287.5 351.3 287.47 351.29 287.5 351.3 C 287.8 352.4 288.7 353 290.2 353 C 291.9 353 292.5 352.4 292.5 351.5 C 292.5 350.8 292.1 350.3 290 350 C 287.2 349.7 286.6 348.8 286.6 347.8 C 286.6 346.8 287.4 345.4 289.9 345.4 C 292.7 345.4 293.4 346.9 293.5 347.8 C 293.51 347.82 293.5 347.8 293.5 347.8 L 292.3 347.8 C 292.3 347.8 292.28 347.82 292.3 347.8 C 292.2 347.3 291.8 346.4 289.9 346.4 C 288.2 346.4 287.9 347.1 287.9 347.7 C 287.9 348.3 288.3 348.7 290.2 349 C 293.2 349.4 293.8 350.2 293.8 351.5 C 293.8 352.9 292.7 353.9 290.2 353.9 C 287.8 353.9 286.5 352.9 286.2 351.3 C 286.24 351.29 286.2 351.3 286.2 351.3 L 287.5 351.3 Z M 304.5 347.7 C 304.5 347.1 304.5 346.4 304.4 345.7 C 304.4 345.7 305.6 345.7 305.6 345.7 C 305.6 346 305.7 346.5 305.7 346.9 C 306.1 346.2 306.8 345.4 308.3 345.4 C 309.6 345.4 310.4 346.1 310.8 347.1 C 311.2 346.3 312 345.4 313.6 345.4 C 315.1 345.4 316.4 346.3 316.4 348.7 C 316.4 348.71 316.4 353.7 316.4 353.7 L 315.2 353.7 C 315.2 353.7 315.2 348.77 315.2 348.8 C 315.2 347.8 314.9 346.5 313.3 346.5 C 311.9 346.5 311 347.5 311 349.3 C 311.03 349.32 311 353.7 311 353.7 L 309.8 353.7 C 309.8 353.7 309.83 348.68 309.8 348.7 C 309.8 347.7 309.5 346.5 307.9 346.5 C 306.3 346.5 305.7 347.8 305.7 349.5 C 305.66 349.46 305.7 353.7 305.7 353.7 L 304.5 353.7 C 304.5 353.7 304.45 347.75 304.5 347.7 Z M 327.1 349.7 C 327.1 349.7 327.1 349.7 327.1 349.7 C 327.1 351.9 325.8 353.9 322.9 353.9 C 320.3 353.9 318.8 351.9 318.8 349.7 C 318.8 349.7 318.8 349.7 318.8 349.7 C 318.8 347.4 320.4 345.4 323 345.4 C 325.7 345.4 327.1 347.5 327.1 349.7 Z M 320 349.7 C 320 349.7 320 349.7 320 349.7 C 320 351.3 321.1 352.9 323 352.9 C 324.9 352.9 325.9 351.4 325.9 349.7 C 325.9 349.7 325.9 349.7 325.9 349.7 C 325.9 348 324.8 346.5 322.9 346.5 C 321 346.5 320 348 320 349.7 Z M 329.5 347.7 C 329.5 347 329.5 346.3 329.5 345.7 C 329.5 345.7 330.7 345.7 330.7 345.7 C 330.7 346 330.7 346.7 330.7 347.3 C 331.1 346.5 331.9 345.4 333.7 345.4 C 335.6 345.4 336.8 346.6 336.8 348.8 C 336.82 348.84 336.8 353.7 336.8 353.7 L 335.6 353.7 C 335.6 353.7 335.6 349.07 335.6 349.1 C 335.6 347.6 335.1 346.5 333.4 346.5 C 331.6 346.5 330.7 347.9 330.7 349.9 C 330.73 349.91 330.7 353.7 330.7 353.7 L 329.5 353.7 C 329.5 353.7 329.52 347.7 329.5 347.7 Z M 338.5 345.7 L 340.2 345.7 L 340.2 343 L 341.4 343 L 341.4 345.7 L 343.6 345.7 L 343.6 346.7 L 341.4 346.7 C 341.4 346.7 341.4 351.38 341.4 351.4 C 341.4 352.4 341.7 352.8 342.6 352.8 C 342.8 352.8 343.2 352.8 343.4 352.7 C 343.4 352.7 343.4 353.7 343.4 353.7 C 343 353.8 342.7 353.8 342.3 353.8 C 340.7 353.8 340.2 353.1 340.2 351.5 C 340.19 351.5 340.2 346.7 340.2 346.7 L 338.5 346.7 L 338.5 345.7 Z M 346 350 C 346 350 346.03 349.97 346 350 C 346.1 351.7 347.3 352.9 349 352.9 C 350.4 352.9 351.1 352.3 351.6 351.5 C 351.6 351.48 351.6 351.5 351.6 351.5 L 352.8 351.5 C 352.8 351.5 352.81 351.48 352.8 351.5 C 352.4 352.6 351.3 353.9 348.9 353.9 C 346.2 353.9 344.8 351.9 344.8 349.7 C 344.8 349.7 344.8 349.7 344.8 349.7 C 344.8 347.2 346.5 345.4 348.9 345.4 C 351.9 345.4 352.9 347.7 352.9 349.6 C 352.9 349.7 352.9 349.8 352.9 350 C 352.93 349.97 346 350 346 350 Z M 351.6 349 C 351.6 349 351.65 349.04 351.6 349 C 351.6 348 351 346.4 348.9 346.4 C 347.1 346.4 346.2 347.6 346.1 349 C 346.06 349.04 346.1 349 346.1 349 L 351.6 349 Z M 355.3 347.7 C 355.3 347 355.3 346.3 355.3 345.7 C 355.3 345.7 356.4 345.7 356.4 345.7 C 356.5 346 356.5 346.7 356.5 347.3 C 356.8 346.5 357.7 345.4 359.5 345.4 C 361.3 345.4 362.6 346.6 362.6 348.8 C 362.58 348.84 362.6 353.7 362.6 353.7 L 361.4 353.7 C 361.4 353.7 361.36 349.07 361.4 349.1 C 361.4 347.6 360.8 346.5 359.2 346.5 C 357.4 346.5 356.5 347.9 356.5 349.9 C 356.49 349.91 356.5 353.7 356.5 353.7 L 355.3 353.7 C 355.3 353.7 355.28 347.7 355.3 347.7 Z M 364.3 345.7 L 365.9 345.7 L 365.9 343 L 367.2 343 L 367.2 345.7 L 369.3 345.7 L 369.3 346.7 L 367.2 346.7 C 367.2 346.7 367.16 351.38 367.2 351.4 C 367.2 352.4 367.4 352.8 368.3 352.8 C 368.6 352.8 368.9 352.8 369.2 352.7 C 369.2 352.7 369.2 353.7 369.2 353.7 C 368.8 353.8 368.4 353.8 368 353.8 C 366.4 353.8 365.9 353.1 365.9 351.5 C 365.95 351.5 365.9 346.7 365.9 346.7 L 364.3 346.7 L 364.3 345.7 Z M 370.1 356.2 C 371.8 354.4 373.1 352.1 373.1 349 C 373.1 346.1 372 343.8 370.1 341.7 C 370.1 341.7 371.4 341.7 371.4 341.7 C 372.9 343.2 374.3 345.8 374.3 349.1 C 374.3 352.4 372.8 354.8 371.4 356.2 C 371.4 356.2 370.1 356.2 370.1 356.2 Z M 376.7 353.7 L 376.7 351.3 L 378 351.3 L 378 353.7 L 376.7 353.7 Z " stroke="none" fill="#141414"/>  </g>  <g id="Polygon10359">    <path d="M 9.9 324 L 2.9 324 L 2.9 328.3 L 10.6 328.3 L 10.4 329.4 L 1.6 329.4 L 1.6 318 L 10.3 318 L 10.3 319.1 L 2.9 319.1 L 2.9 322.8 L 9.9 322.8 L 9.9 324 Z M 13.1 318 C 13.1 318 18.25 318 18.3 318 C 21.1 318 22.3 319.5 22.3 321.3 C 22.3 321.3 22.3 321.3 22.3 321.3 C 22.3 323.5 20.8 324.7 18.3 324.7 C 18.34 324.71 14.3 324.7 14.3 324.7 L 14.3 329.4 L 13.1 329.4 L 13.1 318 Z M 14.3 323.6 C 14.3 323.6 18.1 323.58 18.1 323.6 C 19.8 323.6 21 323.1 21 321.3 C 21 321.3 21 321.3 21 321.3 C 21 319.9 20 319.1 18.1 319.1 C 18.1 319.13 14.3 319.1 14.3 319.1 L 14.3 323.6 Z M 26.1 318 L 26.1 329.4 L 24.8 329.4 L 24.8 318 L 26.1 318 Z M 30.2 326.1 C 30.2 326.1 30.16 326.12 30.2 326.1 C 30.6 327.5 31.6 328.6 34 328.6 C 36.3 328.6 37.3 327.6 37.3 326.5 C 37.3 325.2 36.6 324.5 33.6 324 C 30.3 323.4 29.4 322.4 29.4 320.8 C 29.4 318.9 31.3 317.8 33.7 317.8 C 37.3 317.8 38.1 319.7 38.3 320.8 C 38.27 320.79 38.3 320.8 38.3 320.8 L 37 320.8 C 37 320.8 36.96 320.79 37 320.8 C 36.7 320 36.2 318.8 33.6 318.8 C 31.9 318.8 30.8 319.4 30.8 320.7 C 30.8 321.7 31.2 322.4 33.9 322.8 C 38 323.5 38.6 324.8 38.6 326.3 C 38.6 328.1 37.2 329.6 33.9 329.6 C 30.8 329.6 29.2 328.2 28.8 326.1 C 28.84 326.12 28.8 326.1 28.8 326.1 L 30.2 326.1 Z M 52.7 323.7 C 52.7 323.7 52.7 323.7 52.7 323.7 C 52.7 326.9 50.5 329.6 46.7 329.6 C 43.1 329.6 40.8 327 40.8 323.7 C 40.8 323.7 40.8 323.7 40.8 323.7 C 40.8 320.5 43.2 317.8 46.8 317.8 C 50.3 317.8 52.7 320.5 52.7 323.7 Z M 42.2 323.6 C 42.2 323.6 42.2 323.6 42.2 323.6 C 42.2 326.1 43.8 328.5 46.8 328.5 C 49.7 328.5 51.3 326.4 51.3 323.7 C 51.3 323.7 51.3 323.7 51.3 323.7 C 51.3 321.2 49.7 318.9 46.7 318.9 C 43.9 318.9 42.2 321.1 42.2 323.6 Z M 55.6 318 C 55.6 318 60.18 318 60.2 318 C 63.8 318 66 320.4 66 323.5 C 66 323.5 66 323.5 66 323.5 C 66 327.2 63.4 329.4 60.2 329.4 C 60.16 329.4 55.6 329.4 55.6 329.4 L 55.6 318 Z M 56.9 328.3 C 56.9 328.3 59.85 328.29 59.8 328.3 C 63.1 328.3 64.6 326.2 64.6 323.6 C 64.6 323.6 64.6 323.6 64.6 323.6 C 64.6 320.8 62.7 319.1 60 319.1 C 60 319.11 56.9 319.1 56.9 319.1 L 56.9 328.3 Z M 77.2 324 L 70.2 324 L 70.2 328.3 L 77.9 328.3 L 77.7 329.4 L 68.9 329.4 L 68.9 318 L 77.6 318 L 77.6 319.1 L 70.2 319.1 L 70.2 322.8 L 77.2 322.8 L 77.2 324 Z M 92.1 329.4 C 92.1 329.4 92.12 320.13 92.1 320.1 C 91.5 320.6 90.1 321.2 89.5 321.3 C 89.5 321.3 89.5 320.3 89.5 320.3 C 90.7 319.9 91.8 319.2 92.4 318.5 C 92.41 318.55 93.3 318.5 93.3 318.5 L 93.3 329.4 L 92.1 329.4 Z M 107.3 325.6 C 107.3 325.6 107.29 325.65 107.3 325.6 C 107.4 327.4 108.5 328.6 110.3 328.6 C 111.6 328.6 112.4 328 112.9 327.2 C 112.86 327.16 112.9 327.2 112.9 327.2 L 114.1 327.2 C 114.1 327.2 114.07 327.16 114.1 327.2 C 113.7 328.3 112.5 329.6 110.2 329.6 C 107.4 329.6 106.1 327.5 106.1 325.4 C 106.1 325.4 106.1 325.4 106.1 325.4 C 106.1 322.9 107.7 321.1 110.1 321.1 C 113.2 321.1 114.2 323.4 114.2 325.3 C 114.2 325.4 114.2 325.5 114.2 325.6 C 114.19 325.65 107.3 325.6 107.3 325.6 Z M 112.9 324.7 C 112.9 324.7 112.91 324.72 112.9 324.7 C 112.8 323.7 112.3 322.1 110.1 322.1 C 108.4 322.1 107.5 323.2 107.3 324.7 C 107.32 324.72 107.3 324.7 107.3 324.7 L 112.9 324.7 Z M 116.5 323.4 C 116.5 322.7 116.5 322 116.5 321.4 C 116.5 321.4 117.7 321.4 117.7 321.4 C 117.7 321.6 117.8 322.4 117.8 323 C 118.1 322.1 119 321.1 120.7 321.1 C 122.6 321.1 123.8 322.3 123.8 324.5 C 123.84 324.52 123.8 329.4 123.8 329.4 L 122.6 329.4 C 122.6 329.4 122.63 324.75 122.6 324.8 C 122.6 323.3 122.1 322.2 120.5 322.2 C 118.7 322.2 117.8 323.6 117.8 325.6 C 117.76 325.59 117.8 329.4 117.8 329.4 L 116.5 329.4 C 116.5 329.4 116.54 323.38 116.5 323.4 Z M 136.9 329.4 L 136.9 317.3 L 138.1 317.3 L 138.1 329.4 L 136.9 329.4 Z M 141 321.4 L 142.2 321.4 L 142.2 329.4 L 141 329.4 L 141 321.4 Z M 141 317.3 L 142.2 317.3 L 142.2 319.1 L 141 319.1 L 141 317.3 Z M 145.9 325.6 C 145.9 325.6 145.86 325.65 145.9 325.6 C 145.9 327.4 147.1 328.6 148.8 328.6 C 150.2 328.6 151 328 151.4 327.2 C 151.43 327.16 151.4 327.2 151.4 327.2 L 152.6 327.2 C 152.6 327.2 152.64 327.16 152.6 327.2 C 152.2 328.3 151.1 329.6 148.7 329.6 C 146 329.6 144.6 327.5 144.6 325.4 C 144.6 325.4 144.6 325.4 144.6 325.4 C 144.6 322.9 146.3 321.1 148.7 321.1 C 151.7 321.1 152.8 323.4 152.8 325.3 C 152.8 325.4 152.8 325.5 152.8 325.6 C 152.76 325.65 145.9 325.6 145.9 325.6 Z M 151.5 324.7 C 151.5 324.7 151.48 324.72 151.5 324.7 C 151.4 323.7 150.8 322.1 148.7 322.1 C 146.9 322.1 146 323.2 145.9 324.7 C 145.89 324.72 145.9 324.7 145.9 324.7 L 151.5 324.7 Z M 162.3 327.1 C 162.3 327.8 162.3 328.6 162.3 329.4 C 162.3 329.4 161.1 329.4 161.1 329.4 C 161.1 329.2 161.1 328.5 161.1 327.9 C 160.6 328.9 159.9 329.6 158.1 329.6 C 156.4 329.6 155.1 328.7 155.1 326.4 C 155.08 326.37 155.1 321.4 155.1 321.4 L 156.3 321.4 C 156.3 321.4 156.29 326.13 156.3 326.1 C 156.3 327.4 156.8 328.5 158.4 328.5 C 160.2 328.5 161 327.5 161 325 C 161.05 324.97 161 321.4 161 321.4 L 162.3 321.4 C 162.3 321.4 162.26 327.05 162.3 327.1 Z M 175.9 325.6 C 175.9 325.6 175.94 325.65 175.9 325.6 C 176 327.4 177.2 328.6 178.9 328.6 C 180.3 328.6 181 328 181.5 327.2 C 181.51 327.16 181.5 327.2 181.5 327.2 L 182.7 327.2 C 182.7 327.2 182.72 327.16 182.7 327.2 C 182.3 328.3 181.2 329.6 178.8 329.6 C 176.1 329.6 174.7 327.5 174.7 325.4 C 174.7 325.4 174.7 325.4 174.7 325.4 C 174.7 322.9 176.4 321.1 178.8 321.1 C 181.8 321.1 182.8 323.4 182.8 325.3 C 182.8 325.4 182.8 325.5 182.8 325.6 C 182.84 325.65 175.9 325.6 175.9 325.6 Z M 181.6 324.7 C 181.6 324.7 181.56 324.72 181.6 324.7 C 181.5 323.7 180.9 322.1 178.8 322.1 C 177 322.1 176.1 323.2 176 324.7 C 175.97 324.72 176 324.7 176 324.7 L 181.6 324.7 Z M 184 321.4 L 185.7 321.4 L 185.7 318.7 L 186.9 318.7 L 186.9 321.4 L 189 321.4 L 189 322.4 L 186.9 322.4 C 186.9 322.4 186.88 327.06 186.9 327.1 C 186.9 328 187.1 328.5 188 328.5 C 188.3 328.5 188.6 328.5 188.9 328.4 C 188.9 328.4 188.9 329.3 188.9 329.3 C 188.5 329.5 188.2 329.5 187.7 329.5 C 186.2 329.5 185.7 328.8 185.7 327.2 C 185.67 327.18 185.7 322.4 185.7 322.4 L 184 322.4 L 184 321.4 Z M 202.4 328.1 C 202.43 328.09 202.4 333 202.4 333 L 201.2 333 C 201.2 333 201.22 323.37 201.2 323.4 C 201.2 322.7 201.2 322 201.2 321.4 C 201.2 321.4 202.4 321.4 202.4 321.4 C 202.4 321.6 202.4 322.1 202.4 322.8 C 202.9 321.9 203.9 321.1 205.6 321.1 C 207.8 321.1 209.4 322.9 209.4 325.2 C 209.4 325.2 209.4 325.2 209.4 325.2 C 209.4 327.8 207.6 329.6 205.4 329.6 C 203.6 329.6 202.9 328.8 202.4 328.1 Z M 208.1 325.3 C 208.1 325.3 208.1 325.3 208.1 325.3 C 208.1 323.8 207.2 322.2 205.3 322.2 C 203.3 322.2 202.4 323.6 202.4 325.4 C 202.4 325.4 202.4 325.4 202.4 325.4 C 202.4 327.2 203.3 328.6 205.2 328.6 C 207.2 328.6 208.1 327 208.1 325.3 Z M 211.7 329.4 L 211.7 317.3 L 213 317.3 L 213 329.4 L 211.7 329.4 Z M 222.7 327.5 C 222.7 328.2 222.8 329.2 222.8 329.4 C 222.8 329.4 221.6 329.4 221.6 329.4 C 221.6 329.1 221.5 328.4 221.5 328.1 C 221.1 329 220.2 329.6 218.5 329.6 C 216.2 329.6 215.3 328.2 215.3 327.1 C 215.3 327.1 215.3 327.1 215.3 327.1 C 215.3 325 217.2 324.4 219.5 324.4 C 220.6 324.4 221.3 324.4 221.5 324.4 C 221.5 324.4 221.5 324 221.5 324 C 221.5 323 221.1 322.1 219.3 322.1 C 217.6 322.1 217.2 322.9 217 323.7 C 217.01 323.68 217 323.7 217 323.7 L 215.8 323.7 C 215.8 323.7 215.8 323.68 215.8 323.7 C 215.9 322.6 216.6 321.1 219.3 321.1 C 222 321.1 222.7 322.5 222.7 323.8 C 222.7 323.8 222.7 327.5 222.7 327.5 Z M 221.5 325.4 C 221.3 325.4 220.7 325.4 219.5 325.4 C 217.5 325.4 216.5 325.8 216.5 327 C 216.5 327 216.5 327 216.5 327 C 216.5 327.9 217.2 328.6 218.6 328.6 C 221 328.6 221.5 327.2 221.5 325.8 C 221.5 325.8 221.5 325.4 221.5 325.4 Z M 233.1 326.9 C 233.1 326.9 233.09 326.94 233.1 326.9 C 232.7 328.4 231.4 329.6 229.2 329.6 C 226.5 329.6 225.1 327.7 225.1 325.4 C 225.1 325.4 225.1 325.4 225.1 325.4 C 225.1 323.1 226.6 321.1 229.3 321.1 C 231.8 321.1 232.9 322.7 233.1 323.9 C 233.08 323.87 233.1 323.9 233.1 323.9 L 231.9 323.9 C 231.9 323.9 231.87 323.87 231.9 323.9 C 231.6 323 230.9 322.2 229.2 322.2 C 227.4 322.2 226.3 323.5 226.3 325.4 C 226.3 325.4 226.3 325.4 226.3 325.4 C 226.3 327.2 227.4 328.6 229.2 328.6 C 230.7 328.6 231.5 327.9 231.9 326.9 C 231.88 326.94 231.9 326.9 231.9 326.9 L 233.1 326.9 Z M 236.1 325.6 C 236.1 325.6 236.06 325.65 236.1 325.6 C 236.1 327.4 237.3 328.6 239 328.6 C 240.4 328.6 241.2 328 241.6 327.2 C 241.63 327.16 241.6 327.2 241.6 327.2 L 242.8 327.2 C 242.8 327.2 242.84 327.16 242.8 327.2 C 242.4 328.3 241.3 329.6 238.9 329.6 C 236.2 329.6 234.8 327.5 234.8 325.4 C 234.8 325.4 234.8 325.4 234.8 325.4 C 234.8 322.9 236.5 321.1 238.9 321.1 C 241.9 321.1 243 323.4 243 325.3 C 243 325.4 243 325.5 243 325.6 C 242.96 325.65 236.1 325.6 236.1 325.6 Z M 241.7 324.7 C 241.7 324.7 241.68 324.72 241.7 324.7 C 241.6 323.7 241 322.1 238.9 322.1 C 237.1 322.1 236.2 323.2 236.1 324.7 C 236.09 324.72 236.1 324.7 236.1 324.7 L 241.7 324.7 Z M 262.9 317.3 C 262.9 317.3 262.88 327.04 262.9 327 C 262.9 327.8 262.9 328.6 262.9 329.4 C 262.9 329.4 261.7 329.4 261.7 329.4 C 261.7 329 261.7 328.5 261.7 328.1 C 261.3 328.8 260.5 329.6 258.6 329.6 C 256.3 329.6 254.7 327.9 254.7 325.4 C 254.7 325.4 254.7 325.4 254.7 325.4 C 254.7 322.8 256.7 321.1 258.8 321.1 C 260.8 321.1 261.4 322.1 261.7 322.5 C 261.67 322.49 261.7 317.3 261.7 317.3 L 262.9 317.3 Z M 256 325.4 C 256 325.4 256 325.4 256 325.4 C 256 327 256.9 328.6 258.8 328.6 C 260.9 328.6 261.7 327.2 261.7 325.3 C 261.7 325.3 261.7 325.3 261.7 325.3 C 261.7 323.5 261.1 322.2 258.9 322.2 C 256.9 322.2 256 323.8 256 325.4 Z M 272.9 327.1 C 272.9 327.8 272.9 328.6 273 329.4 C 273 329.4 271.8 329.4 271.8 329.4 C 271.8 329.2 271.7 328.5 271.7 327.9 C 271.3 328.9 270.6 329.6 268.8 329.6 C 267.1 329.6 265.8 328.7 265.8 326.4 C 265.76 326.37 265.8 321.4 265.8 321.4 L 267 321.4 C 267 321.4 266.97 326.13 267 326.1 C 267 327.4 267.5 328.5 269 328.5 C 270.9 328.5 271.7 327.5 271.7 325 C 271.74 324.97 271.7 321.4 271.7 321.4 L 272.9 321.4 C 272.9 321.4 272.95 327.05 272.9 327.1 Z M 286 323.4 C 286 322.7 286 322 286 321.4 C 286 321.4 287.2 321.4 287.2 321.4 C 287.2 321.6 287.2 322.4 287.3 323 C 287.6 322.1 288.5 321.1 290.2 321.1 C 292.1 321.1 293.3 322.3 293.3 324.5 C 293.34 324.52 293.3 329.4 293.3 329.4 L 292.1 329.4 C 292.1 329.4 292.13 324.75 292.1 324.8 C 292.1 323.3 291.6 322.2 290 322.2 C 288.2 322.2 287.3 323.6 287.3 325.6 C 287.25 325.59 287.3 329.4 287.3 329.4 L 286 329.4 C 286 329.4 286.04 323.38 286 323.4 Z M 304.1 325.4 C 304.1 325.4 304.1 325.4 304.1 325.4 C 304.1 327.5 302.7 329.6 299.8 329.6 C 297.2 329.6 295.7 327.6 295.7 325.4 C 295.7 325.4 295.7 325.4 295.7 325.4 C 295.7 323.1 297.3 321.1 299.9 321.1 C 302.6 321.1 304.1 323.2 304.1 325.4 Z M 296.9 325.4 C 296.9 325.4 296.9 325.4 296.9 325.4 C 296.9 327 298 328.6 299.9 328.6 C 301.9 328.6 302.8 327.1 302.8 325.4 C 302.8 325.4 302.8 325.4 302.8 325.4 C 302.8 323.7 301.7 322.2 299.8 322.2 C 297.9 322.2 296.9 323.7 296.9 325.4 Z M 306.4 323.4 C 306.4 322.7 306.4 322 306.4 321.4 C 306.4 321.4 307.6 321.4 307.6 321.4 C 307.6 321.7 307.6 322.2 307.6 322.6 C 308 321.9 308.8 321.1 310.3 321.1 C 311.6 321.1 312.4 321.8 312.8 322.7 C 313.2 322 313.9 321.1 315.5 321.1 C 317.1 321.1 318.4 322 318.4 324.4 C 318.39 324.39 318.4 329.4 318.4 329.4 L 317.2 329.4 C 317.2 329.4 317.18 324.45 317.2 324.4 C 317.2 323.4 316.9 322.2 315.3 322.2 C 313.9 322.2 313 323.1 313 325 C 313.01 325 313 329.4 313 329.4 L 311.8 329.4 C 311.8 329.4 311.81 324.36 311.8 324.4 C 311.8 323.4 311.5 322.2 309.9 322.2 C 308.3 322.2 307.6 323.5 307.6 325.1 C 307.64 325.14 307.6 329.4 307.6 329.4 L 306.4 329.4 C 306.4 329.4 306.44 323.43 306.4 323.4 Z M 339 317.3 C 339 317.3 338.99 327.04 339 327 C 339 327.8 339 328.6 339 329.4 C 339 329.4 337.8 329.4 337.8 329.4 C 337.8 329 337.8 328.5 337.8 328.1 C 337.4 328.8 336.7 329.6 334.7 329.6 C 332.4 329.6 330.8 327.9 330.8 325.4 C 330.8 325.4 330.8 325.4 330.8 325.4 C 330.8 322.8 332.8 321.1 334.9 321.1 C 336.9 321.1 337.6 322.1 337.8 322.5 C 337.78 322.49 337.8 317.3 337.8 317.3 L 339 317.3 Z M 332.1 325.4 C 332.1 325.4 332.1 325.4 332.1 325.4 C 332.1 327 333 328.6 334.9 328.6 C 337 328.6 337.8 327.2 337.8 325.3 C 337.8 325.3 337.8 325.3 337.8 325.3 C 337.8 323.5 337.2 322.2 335 322.2 C 333 322.2 332.1 323.8 332.1 325.4 Z M 349.1 327.1 C 349.1 327.8 349.1 328.6 349.1 329.4 C 349.1 329.4 347.9 329.4 347.9 329.4 C 347.9 329.2 347.9 328.5 347.9 327.9 C 347.5 328.9 346.7 329.6 344.9 329.6 C 343.2 329.6 341.9 328.7 341.9 326.4 C 341.88 326.37 341.9 321.4 341.9 321.4 L 343.1 321.4 C 343.1 321.4 343.09 326.13 343.1 326.1 C 343.1 327.4 343.6 328.5 345.2 328.5 C 347 328.5 347.9 327.5 347.9 325 C 347.85 324.97 347.9 321.4 347.9 321.4 L 349.1 321.4 C 349.1 321.4 349.06 327.05 349.1 327.1 Z M 369.5 326.9 C 369.5 326.9 369.54 326.94 369.5 326.9 C 369.1 328.4 367.9 329.6 365.7 329.6 C 362.9 329.6 361.5 327.7 361.5 325.4 C 361.5 325.4 361.5 325.4 361.5 325.4 C 361.5 323.1 363.1 321.1 365.7 321.1 C 368.3 321.1 369.3 322.7 369.5 323.9 C 369.53 323.87 369.5 323.9 369.5 323.9 L 368.3 323.9 C 368.3 323.9 368.32 323.87 368.3 323.9 C 368 323 367.3 322.2 365.7 322.2 C 363.9 322.2 362.8 323.5 362.8 325.4 C 362.8 325.4 362.8 325.4 362.8 325.4 C 362.8 327.2 363.8 328.6 365.7 328.6 C 367.1 328.6 367.9 327.9 368.3 326.9 C 368.33 326.94 368.3 326.9 368.3 326.9 L 369.5 326.9 Z M 378.8 327.5 C 378.8 328.2 378.8 329.2 378.8 329.4 C 378.8 329.4 377.7 329.4 377.7 329.4 C 377.6 329.1 377.6 328.4 377.6 328.1 C 377.2 329 376.3 329.6 374.5 329.6 C 372.2 329.6 371.4 328.2 371.4 327.1 C 371.4 327.1 371.4 327.1 371.4 327.1 C 371.4 325 373.2 324.4 375.5 324.4 C 376.6 324.4 377.3 324.4 377.6 324.4 C 377.6 324.4 377.6 324 377.6 324 C 377.6 323 377.2 322.1 375.3 322.1 C 373.6 322.1 373.2 322.9 373 323.7 C 373.05 323.68 373 323.7 373 323.7 L 371.8 323.7 C 371.8 323.7 371.84 323.68 371.8 323.7 C 371.9 322.6 372.7 321.1 375.3 321.1 C 378.1 321.1 378.8 322.5 378.8 323.8 C 378.8 323.8 378.8 327.5 378.8 327.5 Z M 377.6 325.4 C 377.3 325.4 376.8 325.4 375.6 325.4 C 373.6 325.4 372.6 325.8 372.6 327 C 372.6 327 372.6 327 372.6 327 C 372.6 327.9 373.2 328.6 374.7 328.6 C 377 328.6 377.6 327.2 377.6 325.8 C 377.6 325.8 377.6 325.4 377.6 325.4 Z M 382.1 329.4 L 382.1 322.4 L 380.6 322.4 L 380.6 321.4 L 382.1 321.4 C 382.1 321.4 382.12 320.15 382.1 320.1 C 382.1 318.4 382.9 317.2 384.7 317.2 C 385.1 317.2 385.4 317.2 385.6 317.3 C 385.6 317.3 385.6 318.4 385.6 318.4 C 385.4 318.3 385 318.3 384.8 318.3 C 383.7 318.3 383.3 318.8 383.3 320.3 C 383.33 320.25 383.3 321.4 383.3 321.4 L 385.3 321.4 L 385.3 322.4 L 383.3 322.4 L 383.3 329.4 L 382.1 329.4 Z M 387.5 325.6 C 387.5 325.6 387.54 325.65 387.5 325.6 C 387.6 327.4 388.8 328.6 390.5 328.6 C 391.9 328.6 392.6 328 393.1 327.2 C 393.11 327.16 393.1 327.2 393.1 327.2 L 394.3 327.2 C 394.3 327.2 394.32 327.16 394.3 327.2 C 393.9 328.3 392.8 329.6 390.4 329.6 C 387.7 329.6 386.3 327.5 386.3 325.4 C 386.3 325.4 386.3 325.4 386.3 325.4 C 386.3 322.9 388 321.1 390.4 321.1 C 393.4 321.1 394.4 323.4 394.4 325.3 C 394.4 325.4 394.4 325.5 394.4 325.6 C 394.44 325.65 387.5 325.6 387.5 325.6 Z M 393.2 324.7 C 393.2 324.7 393.16 324.72 393.2 324.7 C 393.1 323.7 392.5 322.1 390.4 322.1 C 388.6 322.1 387.7 323.2 387.6 324.7 C 387.57 324.72 387.6 324.7 387.6 324.7 L 393.2 324.7 Z M 393 317.2 L 390.5 319.8 L 389.3 319.8 L 391.5 317.2 L 393 317.2 Z M 410.7 317.3 C 408.9 319.2 407.6 321.4 407.6 324.5 C 407.6 327.5 408.7 329.7 410.7 331.9 C 410.7 331.9 409.3 331.9 409.3 331.9 C 407.9 330.4 406.5 327.8 406.5 324.5 C 406.5 321.2 408 318.8 409.3 317.3 C 409.3 317.3 410.7 317.3 410.7 317.3 Z M 418.7 327.5 C 418.7 328.2 418.8 329.2 418.8 329.4 C 418.8 329.4 417.6 329.4 417.6 329.4 C 417.6 329.1 417.5 328.4 417.5 328.1 C 417.1 329 416.2 329.6 414.5 329.6 C 412.2 329.6 411.3 328.2 411.3 327.1 C 411.3 327.1 411.3 327.1 411.3 327.1 C 411.3 325 413.2 324.4 415.5 324.4 C 416.6 324.4 417.3 324.4 417.5 324.4 C 417.5 324.4 417.5 324 417.5 324 C 417.5 323 417.1 322.1 415.3 322.1 C 413.6 322.1 413.2 322.9 413 323.7 C 413.01 323.68 413 323.7 413 323.7 L 411.8 323.7 C 411.8 323.7 411.8 323.68 411.8 323.7 C 411.9 322.6 412.6 321.1 415.3 321.1 C 418 321.1 418.7 322.5 418.7 323.8 C 418.7 323.8 418.7 327.5 418.7 327.5 Z M 417.5 325.4 C 417.3 325.4 416.7 325.4 415.5 325.4 C 413.5 325.4 412.5 325.8 412.5 327 C 412.5 327 412.5 327 412.5 327 C 412.5 327.9 413.2 328.6 414.6 328.6 C 417 328.6 417.5 327.2 417.5 325.8 C 417.5 325.8 417.5 325.4 417.5 325.4 Z M 421.6 329.4 L 421.6 317.3 L 422.8 317.3 L 422.8 329.4 L 421.6 329.4 Z M 433.6 325.4 C 433.6 325.4 433.6 325.4 433.6 325.4 C 433.6 327.5 432.2 329.6 429.4 329.6 C 426.7 329.6 425.2 327.6 425.2 325.4 C 425.2 325.4 425.2 325.4 425.2 325.4 C 425.2 323.1 426.8 321.1 429.4 321.1 C 432.1 321.1 433.6 323.2 433.6 325.4 Z M 426.4 325.4 C 426.4 325.4 426.4 325.4 426.4 325.4 C 426.4 327 427.5 328.6 429.4 328.6 C 431.4 328.6 432.3 327.1 432.3 325.4 C 432.3 325.4 432.3 325.4 432.3 325.4 C 432.3 323.7 431.3 322.2 429.4 322.2 C 427.4 322.2 426.4 323.7 426.4 325.4 Z M 436 323.5 C 436 322.8 436 322.1 435.9 321.4 C 435.9 321.4 437.1 321.4 437.1 321.4 C 437.1 321.6 437.2 322.4 437.2 323.2 C 437.7 321.9 438.9 321.1 440.5 321.1 C 440.5 321.1 440.5 322.3 440.5 322.3 C 438.6 322.3 437.2 323.5 437.2 325.9 C 437.17 325.92 437.2 329.4 437.2 329.4 L 436 329.4 C 436 329.4 435.96 323.54 436 323.5 Z M 443 327 C 443 327 442.96 326.97 443 327 C 443.3 328 444.2 328.6 445.7 328.6 C 447.4 328.6 448 328 448 327.2 C 448 326.5 447.6 326 445.4 325.7 C 442.7 325.4 442.1 324.4 442.1 323.4 C 442.1 322.4 442.9 321.1 445.4 321.1 C 448.2 321.1 448.9 322.6 449 323.5 C 449 323.5 449 323.5 449 323.5 L 447.8 323.5 C 447.8 323.5 447.77 323.5 447.8 323.5 C 447.6 323 447.3 322.1 445.3 322.1 C 443.7 322.1 443.3 322.8 443.3 323.3 C 443.3 324 443.8 324.4 445.7 324.7 C 448.7 325 449.3 325.9 449.3 327.1 C 449.3 328.6 448.2 329.6 445.7 329.6 C 443.3 329.6 442 328.6 441.7 327 C 441.73 326.97 441.7 327 441.7 327 L 443 327 Z " stroke="none" fill="#141414"/>  </g>  <g id="Polygon10358">    <path d="M 9.9 299.6 L 2.9 299.6 L 2.9 304 L 10.6 304 L 10.4 305.1 L 1.6 305.1 L 1.6 293.7 L 10.3 293.7 L 10.3 294.8 L 2.9 294.8 L 2.9 298.5 L 9.9 298.5 L 9.9 299.6 Z M 12.8 305.1 L 12.8 293 L 14 293 L 14 305.1 L 12.8 305.1 Z M 16.9 305.1 L 16.9 293 L 18.1 293 L 18.1 305.1 L 16.9 305.1 Z M 21.7 301.3 C 21.7 301.3 21.75 301.33 21.7 301.3 C 21.8 303 23 304.3 24.7 304.3 C 26.1 304.3 26.8 303.7 27.3 302.8 C 27.32 302.84 27.3 302.8 27.3 302.8 L 28.5 302.8 C 28.5 302.8 28.53 302.84 28.5 302.8 C 28.1 304 27 305.3 24.6 305.3 C 21.9 305.3 20.5 303.2 20.5 301.1 C 20.5 301.1 20.5 301.1 20.5 301.1 C 20.5 298.6 22.2 296.8 24.6 296.8 C 27.6 296.8 28.6 299.1 28.6 301 C 28.6 301.1 28.6 301.2 28.6 301.3 C 28.65 301.33 21.7 301.3 21.7 301.3 Z M 27.4 300.4 C 27.4 300.4 27.37 300.4 27.4 300.4 C 27.3 299.3 26.7 297.8 24.6 297.8 C 22.8 297.8 21.9 298.9 21.8 300.4 C 21.78 300.4 21.8 300.4 21.8 300.4 L 27.4 300.4 Z M 44 303.8 C 44.05 303.77 44 308.6 44 308.6 L 42.8 308.6 C 42.8 308.6 42.84 299.05 42.8 299 C 42.8 298.4 42.8 297.7 42.8 297 C 42.8 297 44 297 44 297 C 44 297.3 44 297.8 44 298.5 C 44.5 297.6 45.5 296.8 47.2 296.8 C 49.4 296.8 51 298.6 51 300.9 C 51 300.9 51 300.9 51 300.9 C 51 303.5 49.2 305.3 47 305.3 C 45.2 305.3 44.5 304.5 44 303.8 Z M 49.7 301 C 49.7 301 49.7 301 49.7 301 C 49.7 299.5 48.9 297.9 46.9 297.9 C 44.9 297.9 44 299.3 44 301.1 C 44 301.1 44 301.1 44 301.1 C 44 302.9 44.9 304.2 46.9 304.2 C 48.8 304.2 49.7 302.7 49.7 301 Z M 60.2 303.2 C 60.2 303.9 60.2 304.9 60.2 305.1 C 60.2 305.1 59.1 305.1 59.1 305.1 C 59 304.8 59 304.1 59 303.8 C 58.6 304.7 57.7 305.3 55.9 305.3 C 53.6 305.3 52.8 303.9 52.8 302.7 C 52.8 302.7 52.8 302.7 52.8 302.7 C 52.8 300.7 54.7 300.1 56.9 300.1 C 58 300.1 58.7 300.1 59 300.1 C 59 300.1 59 299.6 59 299.6 C 59 298.7 58.6 297.8 56.7 297.8 C 55 297.8 54.6 298.5 54.5 299.4 C 54.46 299.36 54.5 299.4 54.5 299.4 L 53.3 299.4 C 53.3 299.4 53.25 299.36 53.3 299.4 C 53.4 298.3 54.1 296.8 56.7 296.8 C 59.5 296.8 60.2 298.2 60.2 299.5 C 60.2 299.5 60.2 303.2 60.2 303.2 Z M 59 301 C 58.7 301 58.2 301 57 301 C 55 301 54 301.5 54 302.7 C 54 302.7 54 302.7 54 302.7 C 54 303.6 54.6 304.3 56.1 304.3 C 58.4 304.3 59 302.9 59 301.5 C 59 301.5 59 301 59 301 Z M 63.6 302.7 C 63.6 302.7 63.58 302.65 63.6 302.7 C 63.9 303.7 64.8 304.3 66.4 304.3 C 68 304.3 68.7 303.7 68.7 302.9 C 68.7 302.2 68.2 301.6 66.1 301.4 C 63.3 301.1 62.7 300.1 62.7 299.1 C 62.7 298.1 63.5 296.8 66.1 296.8 C 68.8 296.8 69.5 298.3 69.6 299.2 C 69.62 299.18 69.6 299.2 69.6 299.2 L 68.4 299.2 C 68.4 299.2 68.39 299.18 68.4 299.2 C 68.3 298.7 67.9 297.8 66 297.8 C 64.3 297.8 64 298.5 64 299 C 64 299.7 64.4 300.1 66.3 300.3 C 69.3 300.7 69.9 301.6 69.9 302.8 C 69.9 304.3 68.8 305.3 66.3 305.3 C 63.9 305.3 62.6 304.3 62.3 302.7 C 62.35 302.65 62.3 302.7 62.3 302.7 L 63.6 302.7 Z M 72.9 302.7 C 72.9 302.7 72.91 302.65 72.9 302.7 C 73.2 303.7 74.1 304.3 75.7 304.3 C 77.4 304.3 78 303.7 78 302.9 C 78 302.2 77.6 301.6 75.4 301.4 C 72.6 301.1 72.1 300.1 72.1 299.1 C 72.1 298.1 72.9 296.8 75.4 296.8 C 78.2 296.8 78.9 298.3 78.9 299.2 C 78.95 299.18 78.9 299.2 78.9 299.2 L 77.7 299.2 C 77.7 299.2 77.72 299.18 77.7 299.2 C 77.6 298.7 77.3 297.8 75.3 297.8 C 73.7 297.8 73.3 298.5 73.3 299 C 73.3 299.7 73.7 300.1 75.7 300.3 C 78.6 300.7 79.2 301.6 79.2 302.8 C 79.2 304.3 78.1 305.3 75.6 305.3 C 73.2 305.3 72 304.3 71.7 302.7 C 71.67 302.65 71.7 302.7 71.7 302.7 L 72.9 302.7 Z M 82.2 301.3 C 82.2 301.3 82.23 301.33 82.2 301.3 C 82.3 303 83.5 304.3 85.2 304.3 C 86.6 304.3 87.3 303.7 87.8 302.8 C 87.8 302.84 87.8 302.8 87.8 302.8 L 89 302.8 C 89 302.8 89.01 302.84 89 302.8 C 88.6 304 87.5 305.3 85.1 305.3 C 82.4 305.3 81 303.2 81 301.1 C 81 301.1 81 301.1 81 301.1 C 81 298.6 82.7 296.8 85.1 296.8 C 88.1 296.8 89.1 299.1 89.1 301 C 89.1 301.1 89.1 301.2 89.1 301.3 C 89.13 301.33 82.2 301.3 82.2 301.3 Z M 87.9 300.4 C 87.9 300.4 87.85 300.4 87.9 300.4 C 87.8 299.3 87.2 297.8 85.1 297.8 C 83.3 297.8 82.4 298.9 82.3 300.4 C 82.27 300.4 82.3 300.4 82.3 300.4 L 87.9 300.4 Z M 110.5 302.7 C 110.5 303.5 110.5 304.3 110.5 305.1 C 110.5 305.1 109.4 305.1 109.4 305.1 C 109.3 304.9 109.3 304.2 109.3 303.6 C 108.9 304.6 108.1 305.3 106.4 305.3 C 104.6 305.3 103.3 304.4 103.3 302 C 103.32 302.05 103.3 297 103.3 297 L 104.5 297 C 104.5 297 104.53 301.81 104.5 301.8 C 104.5 303.1 105 304.2 106.6 304.2 C 108.5 304.2 109.3 303.1 109.3 300.6 C 109.29 300.65 109.3 297 109.3 297 L 110.5 297 C 110.5 297 110.5 302.73 110.5 302.7 Z M 113.4 299.1 C 113.4 298.4 113.4 297.6 113.4 297 C 113.4 297 114.6 297 114.6 297 C 114.6 297.3 114.6 298 114.6 298.7 C 115 297.8 115.8 296.8 117.6 296.8 C 119.5 296.8 120.7 298 120.7 300.2 C 120.71 300.2 120.7 305.1 120.7 305.1 L 119.5 305.1 C 119.5 305.1 119.5 300.43 119.5 300.4 C 119.5 299 118.9 297.9 117.3 297.9 C 115.5 297.9 114.6 299.3 114.6 301.3 C 114.62 301.27 114.6 305.1 114.6 305.1 L 113.4 305.1 C 113.4 305.1 113.41 299.06 113.4 299.1 Z M 136.8 303.8 C 136.79 303.77 136.8 308.6 136.8 308.6 L 135.6 308.6 C 135.6 308.6 135.58 299.05 135.6 299 C 135.6 298.4 135.6 297.7 135.6 297 C 135.6 297 136.7 297 136.7 297 C 136.8 297.3 136.8 297.8 136.8 298.5 C 137.3 297.6 138.2 296.8 140 296.8 C 142.2 296.8 143.7 298.6 143.7 300.9 C 143.7 300.9 143.7 300.9 143.7 300.9 C 143.7 303.5 142 305.3 139.7 305.3 C 138 305.3 137.2 304.5 136.8 303.8 Z M 142.5 301 C 142.5 301 142.5 301 142.5 301 C 142.5 299.5 141.6 297.9 139.6 297.9 C 137.6 297.9 136.8 299.3 136.8 301.1 C 136.8 301.1 136.8 301.1 136.8 301.1 C 136.8 302.9 137.7 304.2 139.6 304.2 C 141.5 304.2 142.5 302.7 142.5 301 Z M 146.8 301.3 C 146.8 301.3 146.8 301.33 146.8 301.3 C 146.9 303 148 304.3 149.8 304.3 C 151.1 304.3 151.9 303.7 152.4 302.8 C 152.37 302.84 152.4 302.8 152.4 302.8 L 153.6 302.8 C 153.6 302.8 153.58 302.84 153.6 302.8 C 153.2 304 152 305.3 149.7 305.3 C 146.9 305.3 145.6 303.2 145.6 301.1 C 145.6 301.1 145.6 301.1 145.6 301.1 C 145.6 298.6 147.2 296.8 149.6 296.8 C 152.7 296.8 153.7 299.1 153.7 301 C 153.7 301.1 153.7 301.2 153.7 301.3 C 153.7 301.33 146.8 301.3 146.8 301.3 Z M 152.4 300.4 C 152.4 300.4 152.42 300.4 152.4 300.4 C 152.3 299.3 151.8 297.8 149.6 297.8 C 147.9 297.8 147 298.9 146.8 300.4 C 146.83 300.4 146.8 300.4 146.8 300.4 L 152.4 300.4 Z M 154.9 297 L 156.5 297 L 156.5 294.4 L 157.7 294.4 L 157.7 297 L 159.9 297 L 159.9 298 L 157.7 298 C 157.7 298 157.74 302.74 157.7 302.7 C 157.7 303.7 158 304.2 158.9 304.2 C 159.1 304.2 159.5 304.2 159.7 304.1 C 159.7 304.1 159.7 305 159.7 305 C 159.4 305.1 159 305.2 158.6 305.2 C 157 305.2 156.5 304.4 156.5 302.9 C 156.53 302.86 156.5 298 156.5 298 L 154.9 298 L 154.9 297 Z M 161.9 297 L 163.1 297 L 163.1 305.1 L 161.9 305.1 L 161.9 297 Z M 161.9 293 L 163.1 293 L 163.1 294.8 L 161.9 294.8 L 161.9 293 Z M 165.1 297 L 166.7 297 L 166.7 294.4 L 167.9 294.4 L 167.9 297 L 170.1 297 L 170.1 298 L 167.9 298 C 167.9 298 167.92 302.74 167.9 302.7 C 167.9 303.7 168.2 304.2 169.1 304.2 C 169.3 304.2 169.7 304.2 169.9 304.1 C 169.9 304.1 169.9 305 169.9 305 C 169.6 305.1 169.2 305.2 168.8 305.2 C 167.2 305.2 166.7 304.4 166.7 302.9 C 166.71 302.86 166.7 298 166.7 298 L 165.1 298 L 165.1 297 Z M 191.4 302.6 C 191.4 302.6 191.43 302.62 191.4 302.6 C 191 304.1 189.8 305.3 187.6 305.3 C 184.8 305.3 183.4 303.4 183.4 301.1 C 183.4 301.1 183.4 301.1 183.4 301.1 C 183.4 298.8 185 296.8 187.6 296.8 C 190.2 296.8 191.2 298.4 191.4 299.5 C 191.42 299.55 191.4 299.5 191.4 299.5 L 190.2 299.5 C 190.2 299.5 190.21 299.55 190.2 299.5 C 189.9 298.7 189.2 297.8 187.6 297.8 C 185.8 297.8 184.6 299.2 184.6 301.1 C 184.6 301.1 184.6 301.1 184.6 301.1 C 184.6 302.9 185.7 304.3 187.6 304.3 C 189 304.3 189.8 303.6 190.2 302.6 C 190.22 302.62 190.2 302.6 190.2 302.6 L 191.4 302.6 Z M 200.6 303.2 C 200.6 303.9 200.7 304.9 200.7 305.1 C 200.7 305.1 199.6 305.1 199.6 305.1 C 199.5 304.8 199.5 304.1 199.5 303.8 C 199 304.7 198.1 305.3 196.4 305.3 C 194.1 305.3 193.3 303.9 193.3 302.7 C 193.3 302.7 193.3 302.7 193.3 302.7 C 193.3 300.7 195.1 300.1 197.4 300.1 C 198.5 300.1 199.2 300.1 199.5 300.1 C 199.5 300.1 199.5 299.6 199.5 299.6 C 199.5 298.7 199 297.8 197.2 297.8 C 195.5 297.8 195.1 298.5 194.9 299.4 C 194.93 299.36 194.9 299.4 194.9 299.4 L 193.7 299.4 C 193.7 299.4 193.72 299.36 193.7 299.4 C 193.8 298.3 194.5 296.8 197.2 296.8 C 199.9 296.8 200.6 298.2 200.6 299.5 C 200.6 299.5 200.6 303.2 200.6 303.2 Z M 199.5 301 C 199.2 301 198.6 301 197.4 301 C 195.4 301 194.5 301.5 194.5 302.7 C 194.5 302.7 194.5 302.7 194.5 302.7 C 194.5 303.6 195.1 304.3 196.6 304.3 C 198.9 304.3 199.5 302.9 199.5 301.5 C 199.5 301.5 199.5 301 199.5 301 Z M 204 305.1 L 204 298 L 202.5 298 L 202.5 297 L 204 297 C 204 297 204.01 295.83 204 295.8 C 204 294 204.7 292.9 206.6 292.9 C 207 292.9 207.3 292.9 207.5 293 C 207.5 293 207.5 294 207.5 294 C 207.3 294 206.9 294 206.7 294 C 205.6 294 205.2 294.5 205.2 295.9 C 205.22 295.93 205.2 297 205.2 297 L 207.2 297 L 207.2 298 L 205.2 298 L 205.2 305.1 L 204 305.1 Z M 209.4 301.3 C 209.4 301.3 209.43 301.33 209.4 301.3 C 209.5 303 210.7 304.3 212.4 304.3 C 213.8 304.3 214.5 303.7 215 302.8 C 215 302.84 215 302.8 215 302.8 L 216.2 302.8 C 216.2 302.8 216.21 302.84 216.2 302.8 C 215.8 304 214.7 305.3 212.3 305.3 C 209.6 305.3 208.2 303.2 208.2 301.1 C 208.2 301.1 208.2 301.1 208.2 301.1 C 208.2 298.6 209.9 296.8 212.3 296.8 C 215.3 296.8 216.3 299.1 216.3 301 C 216.3 301.1 216.3 301.2 216.3 301.3 C 216.33 301.33 209.4 301.3 209.4 301.3 Z M 215 300.4 C 215 300.4 215.05 300.4 215 300.4 C 215 299.3 214.4 297.8 212.3 297.8 C 210.5 297.8 209.6 298.9 209.5 300.4 C 209.46 300.4 209.5 300.4 209.5 300.4 L 215 300.4 Z M 214.9 292.9 L 212.4 295.4 L 211.2 295.4 L 213.4 292.9 L 214.9 292.9 Z M 231.7 303.8 C 231.73 303.77 231.7 308.6 231.7 308.6 L 230.5 308.6 C 230.5 308.6 230.52 299.05 230.5 299 C 230.5 298.4 230.5 297.7 230.5 297 C 230.5 297 231.7 297 231.7 297 C 231.7 297.3 231.7 297.8 231.7 298.5 C 232.2 297.6 233.2 296.8 234.9 296.8 C 237.1 296.8 238.7 298.6 238.7 300.9 C 238.7 300.9 238.7 300.9 238.7 300.9 C 238.7 303.5 236.9 305.3 234.7 305.3 C 232.9 305.3 232.2 304.5 231.7 303.8 Z M 237.4 301 C 237.4 301 237.4 301 237.4 301 C 237.4 299.5 236.5 297.9 234.6 297.9 C 232.6 297.9 231.7 299.3 231.7 301.1 C 231.7 301.1 231.7 301.1 231.7 301.1 C 231.7 302.9 232.6 304.2 234.5 304.2 C 236.5 304.2 237.4 302.7 237.4 301 Z M 247.8 303.2 C 247.8 303.9 247.9 304.9 247.9 305.1 C 247.9 305.1 246.8 305.1 246.8 305.1 C 246.7 304.8 246.7 304.1 246.7 303.8 C 246.3 304.7 245.3 305.3 243.6 305.3 C 241.3 305.3 240.5 303.9 240.5 302.7 C 240.5 302.7 240.5 302.7 240.5 302.7 C 240.5 300.7 242.3 300.1 244.6 300.1 C 245.7 300.1 246.4 300.1 246.7 300.1 C 246.7 300.1 246.7 299.6 246.7 299.6 C 246.7 298.7 246.3 297.8 244.4 297.8 C 242.7 297.8 242.3 298.5 242.1 299.4 C 242.14 299.36 242.1 299.4 242.1 299.4 L 240.9 299.4 C 240.9 299.4 240.93 299.36 240.9 299.4 C 241 298.3 241.8 296.8 244.4 296.8 C 247.2 296.8 247.8 298.2 247.8 299.5 C 247.8 299.5 247.8 303.2 247.8 303.2 Z M 246.7 301 C 246.4 301 245.9 301 244.7 301 C 242.6 301 241.7 301.5 241.7 302.7 C 241.7 302.7 241.7 302.7 241.7 302.7 C 241.7 303.6 242.3 304.3 243.8 304.3 C 246.1 304.3 246.7 302.9 246.7 301.5 C 246.7 301.5 246.7 301 246.7 301 Z M 250.8 299.2 C 250.8 298.5 250.8 297.8 250.7 297 C 250.7 297 251.9 297 251.9 297 C 251.9 297.3 252 298.1 252 298.9 C 252.5 297.6 253.7 296.8 255.3 296.8 C 255.3 296.8 255.3 298 255.3 298 C 253.4 298 252 299.2 252 301.6 C 251.96 301.6 252 305.1 252 305.1 L 250.8 305.1 C 250.8 305.1 250.75 299.22 250.8 299.2 Z M 257.2 297 L 258.4 297 L 258.4 305.1 L 257.2 305.1 L 257.2 297 Z M 257.2 293 L 258.4 293 L 258.4 294.8 L 257.2 294.8 L 257.2 293 Z M 261.9 302.7 C 261.9 302.7 261.86 302.65 261.9 302.7 C 262.2 303.7 263.1 304.3 264.6 304.3 C 266.3 304.3 266.9 303.7 266.9 302.9 C 266.9 302.2 266.5 301.6 264.3 301.4 C 261.6 301.1 261 300.1 261 299.1 C 261 298.1 261.8 296.8 264.3 296.8 C 267.1 296.8 267.8 298.3 267.9 299.2 C 267.9 299.18 267.9 299.2 267.9 299.2 L 266.7 299.2 C 266.7 299.2 266.67 299.18 266.7 299.2 C 266.5 298.7 266.2 297.8 264.3 297.8 C 262.6 297.8 262.2 298.5 262.2 299 C 262.2 299.7 262.7 300.1 264.6 300.3 C 267.6 300.7 268.2 301.6 268.2 302.8 C 268.2 304.3 267.1 305.3 264.6 305.3 C 262.2 305.3 260.9 304.3 260.6 302.7 C 260.63 302.65 260.6 302.7 260.6 302.7 L 261.9 302.7 Z M 270.6 297 L 271.8 297 L 271.8 305.1 L 270.6 305.1 L 270.6 297 Z M 270.6 293 L 271.8 293 L 271.8 294.8 L 270.6 294.8 L 270.6 293 Z M 275.4 301.3 C 275.4 301.3 275.38 301.33 275.4 301.3 C 275.5 303 276.6 304.3 278.4 304.3 C 279.7 304.3 280.5 303.7 280.9 302.8 C 280.95 302.84 280.9 302.8 280.9 302.8 L 282.2 302.8 C 282.2 302.8 282.16 302.84 282.2 302.8 C 281.7 304 280.6 305.3 278.3 305.3 C 275.5 305.3 274.2 303.2 274.2 301.1 C 274.2 301.1 274.2 301.1 274.2 301.1 C 274.2 298.6 275.8 296.8 278.2 296.8 C 281.3 296.8 282.3 299.1 282.3 301 C 282.3 301.1 282.3 301.2 282.3 301.3 C 282.28 301.33 275.4 301.3 275.4 301.3 Z M 281 300.4 C 281 300.4 281 300.4 281 300.4 C 280.9 299.3 280.4 297.8 278.2 297.8 C 276.5 297.8 275.6 298.9 275.4 300.4 C 275.41 300.4 275.4 300.4 275.4 300.4 L 281 300.4 Z M 284.6 299.1 C 284.6 298.4 284.6 297.6 284.6 297 C 284.6 297 285.8 297 285.8 297 C 285.8 297.3 285.8 298 285.8 298.7 C 286.2 297.8 287.1 296.8 288.8 296.8 C 290.7 296.8 291.9 298 291.9 300.2 C 291.93 300.2 291.9 305.1 291.9 305.1 L 290.7 305.1 C 290.7 305.1 290.72 300.43 290.7 300.4 C 290.7 299 290.2 297.9 288.6 297.9 C 286.7 297.9 285.8 299.3 285.8 301.3 C 285.84 301.27 285.8 305.1 285.8 305.1 L 284.6 305.1 C 284.6 305.1 284.63 299.06 284.6 299.1 Z M 307.2 302.7 C 307.2 302.7 307.24 302.65 307.2 302.7 C 307.5 303.7 308.4 304.3 310 304.3 C 311.7 304.3 312.3 303.7 312.3 302.9 C 312.3 302.2 311.9 301.6 309.7 301.4 C 307 301.1 306.4 300.1 306.4 299.1 C 306.4 298.1 307.2 296.8 309.7 296.8 C 312.5 296.8 313.2 298.3 313.3 299.2 C 313.28 299.18 313.3 299.2 313.3 299.2 L 312 299.2 C 312 299.2 312.05 299.18 312 299.2 C 311.9 298.7 311.6 297.8 309.6 297.8 C 308 297.8 307.6 298.5 307.6 299 C 307.6 299.7 308 300.1 310 300.3 C 312.9 300.7 313.5 301.6 313.5 302.8 C 313.5 304.3 312.4 305.3 309.9 305.3 C 307.6 305.3 306.3 304.3 306 302.7 C 306 302.65 306 302.7 306 302.7 L 307.2 302.7 Z M 323 302.7 C 323 303.5 323 304.3 323.1 305.1 C 323.1 305.1 321.9 305.1 321.9 305.1 C 321.9 304.9 321.8 304.2 321.8 303.6 C 321.4 304.6 320.7 305.3 318.9 305.3 C 317.2 305.3 315.9 304.4 315.9 302 C 315.86 302.05 315.9 297 315.9 297 L 317.1 297 C 317.1 297 317.07 301.81 317.1 301.8 C 317.1 303.1 317.6 304.2 319.1 304.2 C 321 304.2 321.8 303.1 321.8 300.6 C 321.83 300.65 321.8 297 321.8 297 L 323 297 C 323 297 323.04 302.73 323 302.7 Z M 326 299.2 C 326 298.5 326 297.8 325.9 297 C 325.9 297 327.1 297 327.1 297 C 327.1 297.3 327.2 298.1 327.2 298.9 C 327.7 297.6 328.9 296.8 330.5 296.8 C 330.5 296.8 330.5 298 330.5 298 C 328.6 298 327.2 299.2 327.2 301.6 C 327.17 301.6 327.2 305.1 327.2 305.1 L 326 305.1 C 326 305.1 325.96 299.22 326 299.2 Z M 344.3 305.1 L 344.3 293 L 345.5 293 L 345.5 305.1 L 344.3 305.1 Z M 349.1 301.3 C 349.1 301.3 349.09 301.33 349.1 301.3 C 349.2 303 350.3 304.3 352.1 304.3 C 353.4 304.3 354.2 303.7 354.7 302.8 C 354.66 302.84 354.7 302.8 354.7 302.8 L 355.9 302.8 C 355.9 302.8 355.87 302.84 355.9 302.8 C 355.5 304 354.3 305.3 352 305.3 C 349.2 305.3 347.9 303.2 347.9 301.1 C 347.9 301.1 347.9 301.1 347.9 301.1 C 347.9 298.6 349.5 296.8 351.9 296.8 C 355 296.8 356 299.1 356 301 C 356 301.1 356 301.2 356 301.3 C 355.99 301.33 349.1 301.3 349.1 301.3 Z M 354.7 300.4 C 354.7 300.4 354.71 300.4 354.7 300.4 C 354.6 299.3 354.1 297.8 351.9 297.8 C 350.2 297.8 349.3 298.9 349.1 300.4 C 349.12 300.4 349.1 300.4 349.1 300.4 L 354.7 300.4 Z M 364.8 303.7 C 364.3 304.6 363.5 305.3 361.7 305.3 C 359.5 305.3 357.8 303.6 357.8 301.2 C 357.8 301.2 357.8 301.2 357.8 301.2 C 357.8 298.4 359.8 296.8 361.9 296.8 C 363.9 296.8 364.6 297.9 364.8 298.3 C 364.8 297.7 364.8 297.3 364.8 297 C 364.8 297 366 297 366 297 C 366 297.7 366 298.5 366 299.3 C 366 299.31 366 308.6 366 308.6 L 364.8 308.6 C 364.8 308.6 364.79 303.73 364.8 303.7 Z M 359.1 301.1 C 359.1 301.1 359.1 301.1 359.1 301.1 C 359.1 302.8 360.2 304.2 361.9 304.2 C 363.8 304.2 364.8 303.1 364.8 301 C 364.8 301 364.8 301 364.8 301 C 364.8 299.2 364 297.9 362 297.9 C 360.1 297.9 359.1 299.4 359.1 301.1 Z M 376.1 302.7 C 376.1 303.5 376.1 304.3 376.1 305.1 C 376.1 305.1 374.9 305.1 374.9 305.1 C 374.9 304.9 374.9 304.2 374.9 303.6 C 374.5 304.6 373.7 305.3 371.9 305.3 C 370.2 305.3 368.9 304.4 368.9 302 C 368.89 302.05 368.9 297 368.9 297 L 370.1 297 C 370.1 297 370.1 301.81 370.1 301.8 C 370.1 303.1 370.6 304.2 372.2 304.2 C 374 304.2 374.9 303.1 374.9 300.6 C 374.86 300.65 374.9 297 374.9 297 L 376.1 297 C 376.1 297 376.07 302.73 376.1 302.7 Z M 379.7 301.3 C 379.7 301.3 379.66 301.33 379.7 301.3 C 379.8 303 380.9 304.3 382.7 304.3 C 384 304.3 384.8 303.7 385.2 302.8 C 385.23 302.84 385.2 302.8 385.2 302.8 L 386.4 302.8 C 386.4 302.8 386.44 302.84 386.4 302.8 C 386 304 384.9 305.3 382.6 305.3 C 379.8 305.3 378.4 303.2 378.4 301.1 C 378.4 301.1 378.4 301.1 378.4 301.1 C 378.4 298.6 380.1 296.8 382.5 296.8 C 385.5 296.8 386.6 299.1 386.6 301 C 386.6 301.1 386.6 301.2 386.6 301.3 C 386.56 301.33 379.7 301.3 379.7 301.3 Z M 385.3 300.4 C 385.3 300.4 385.28 300.4 385.3 300.4 C 385.2 299.3 384.7 297.8 382.5 297.8 C 380.8 297.8 379.9 298.9 379.7 300.4 C 379.7 300.4 379.7 300.4 379.7 300.4 L 385.3 300.4 Z M 388.9 305.1 L 388.9 293 L 390.1 293 L 390.1 305.1 L 388.9 305.1 Z M 412.8 301.1 C 412.8 301.1 412.8 301.1 412.8 301.1 C 412.8 303.2 411.4 305.3 408.5 305.3 C 405.9 305.3 404.4 303.3 404.4 301.1 C 404.4 301.1 404.4 301.1 404.4 301.1 C 404.4 298.7 406 296.8 408.6 296.8 C 411.3 296.8 412.8 298.9 412.8 301.1 Z M 405.6 301.1 C 405.6 301.1 405.6 301.1 405.6 301.1 C 405.6 302.7 406.7 304.3 408.6 304.3 C 410.6 304.3 411.5 302.8 411.5 301.1 C 411.5 301.1 411.5 301.1 411.5 301.1 C 411.5 299.3 410.4 297.8 408.5 297.8 C 406.6 297.8 405.6 299.3 405.6 301.1 Z M 415.1 299.1 C 415.1 298.4 415.1 297.6 415.1 297 C 415.1 297 416.3 297 416.3 297 C 416.3 297.3 416.3 298 416.3 298.7 C 416.7 297.8 417.6 296.8 419.3 296.8 C 421.2 296.8 422.4 298 422.4 300.2 C 422.43 300.2 422.4 305.1 422.4 305.1 L 421.2 305.1 C 421.2 305.1 421.22 300.43 421.2 300.4 C 421.2 299 420.7 297.9 419.1 297.9 C 417.2 297.9 416.3 299.3 416.3 301.3 C 416.35 301.27 416.3 305.1 416.3 305.1 L 415.1 305.1 C 415.1 305.1 415.13 299.06 415.1 299.1 Z M 437.3 305.1 L 437.3 293 L 438.5 293 L 438.5 305.1 L 437.3 305.1 Z M 441.4 297 L 442.6 297 L 442.6 305.1 L 441.4 305.1 L 441.4 297 Z M 441.4 293 L 442.6 293 L 442.6 294.8 L 441.4 294.8 L 441.4 293 Z M 444.5 297 L 446.2 297 L 446.2 294.4 L 447.4 294.4 L 447.4 297 L 449.6 297 L 449.6 298 L 447.4 298 C 447.4 298 447.4 302.74 447.4 302.7 C 447.4 303.7 447.7 304.2 448.6 304.2 C 448.8 304.2 449.2 304.2 449.4 304.1 C 449.4 304.1 449.4 305 449.4 305 C 449 305.1 448.7 305.2 448.2 305.2 C 446.7 305.2 446.2 304.4 446.2 302.9 C 446.19 302.86 446.2 298 446.2 298 L 444.5 298 L 444.5 297 Z " stroke="none" fill="#141414"/>  </g></svg>