<?xml version="1.0" standalone="no"?><!DOCTYPE svg PUBLIC "-//W3C//DTD SVG 1.1//EN" "http://www.w3.org/Graphics/SVG/1.1/DTD/svg11.dtd"><svg xmlns="http://www.w3.org/2000/svg" version="1.1" width="90px" height="14.8px" viewBox="0 -2 90 14.8" style="top:-2px">  <desc>Page</desc>  <defs/>  <g id="Polygon4098">    <path d="M 44.6 6.6 C 44.3 6.6 44 6.5 43.7 6.4 C 43.5 6.2 43.2 6 43.1 5.8 C 43 5.5 42.9 5.2 42.9 4.8 C 42.9 4.7 42.9 4.5 42.9 4.3 C 43.1 3.7 43.3 3.2 43.6 2.8 C 43.9 2.4 44.3 2 44.7 1.8 C 45.2 1.6 45.6 1.5 46.1 1.5 C 46.5 1.5 46.8 1.6 47.1 1.7 C 47.1 1.7 46.8 3 46.8 3 C 46.6 2.9 46.3 2.8 46 2.8 C 45.7 2.8 45.5 2.8 45.3 2.9 C 45.1 3.1 44.9 3.2 44.8 3.4 C 44.9 3.3 45.1 3.3 45.3 3.2 C 45.5 3.2 45.7 3.2 45.9 3.2 C 46.3 3.2 46.6 3.3 46.8 3.5 C 47.1 3.7 47.2 4 47.2 4.4 C 47.2 4.5 47.2 4.7 47.1 4.8 C 47.1 5.1 46.9 5.4 46.7 5.7 C 46.5 6 46.2 6.2 45.8 6.4 C 45.5 6.5 45.1 6.6 44.6 6.6 C 44.6 6.6 44.6 6.6 44.6 6.6 Z M 44.9 5.4 C 45 5.4 45.2 5.3 45.3 5.2 C 45.4 5.2 45.4 5 45.5 4.9 C 45.5 4.8 45.5 4.8 45.5 4.7 C 45.5 4.5 45.3 4.4 45.1 4.4 C 44.9 4.4 44.8 4.4 44.7 4.5 C 44.6 4.6 44.5 4.7 44.5 4.9 C 44.5 4.9 44.5 5 44.5 5 C 44.5 5.1 44.5 5.2 44.6 5.3 C 44.7 5.3 44.8 5.4 44.9 5.4 C 44.9 5.4 44.9 5.4 44.9 5.4 Z " stroke="none" fill="#fafafa"/>  </g></svg>