<?xml version="1.0" standalone="no"?><!DOCTYPE svg PUBLIC "-//W3C//DTD SVG 1.1//EN" "http://www.w3.org/Graphics/SVG/1.1/DTD/svg11.dtd"><svg xmlns="http://www.w3.org/2000/svg" version="1.1" width="90px" height="14.8px" viewBox="0 -2 90 14.8" style="top:-2px">  <desc>Page</desc>  <defs/>  <g id="Polygon11488">    <path d="M 40 5.7 C 40 5.7 40.71 5.13 40.7 5.1 C 40.8 5 41 4.9 41.3 4.7 C 41.7 4.4 42 4.2 42.2 4 C 42.4 3.8 42.5 3.7 42.5 3.5 C 42.6 3.5 42.6 3.4 42.6 3.4 C 42.6 3.2 42.4 3.1 42 3.1 C 41.8 3.1 41.6 3.1 41.3 3.2 C 41 3.3 40.8 3.4 40.6 3.6 C 40.6 3.6 40.9 2 40.9 2 C 41.2 1.8 41.5 1.7 41.8 1.6 C 42.1 1.5 42.5 1.5 42.8 1.5 C 43.3 1.5 43.7 1.6 44 1.8 C 44.2 2.1 44.4 2.4 44.4 2.7 C 44.4 2.8 44.4 2.9 44.3 3 C 44.3 3.4 44.1 3.8 43.9 4 C 43.7 4.3 43.4 4.6 43 4.9 C 43.03 4.88 42.5 5.2 42.5 5.2 L 44 5.2 L 43.7 6.5 L 39.8 6.5 L 40 5.7 Z M 45.7 5.7 C 45.7 5.7 46.38 5.13 46.4 5.1 C 46.5 5 46.7 4.9 47 4.7 C 47.4 4.4 47.7 4.2 47.9 4 C 48.1 3.8 48.2 3.7 48.2 3.5 C 48.2 3.5 48.2 3.4 48.2 3.4 C 48.2 3.2 48 3.1 47.7 3.1 C 47.5 3.1 47.2 3.1 47 3.2 C 46.7 3.3 46.5 3.4 46.3 3.6 C 46.3 3.6 46.6 2 46.6 2 C 46.9 1.8 47.1 1.7 47.5 1.6 C 47.8 1.5 48.1 1.5 48.5 1.5 C 49 1.5 49.4 1.6 49.6 1.8 C 49.9 2.1 50 2.4 50 2.7 C 50 2.8 50 2.9 50 3 C 49.9 3.4 49.8 3.8 49.6 4 C 49.4 4.3 49.1 4.6 48.7 4.9 C 48.7 4.88 48.2 5.2 48.2 5.2 L 49.7 5.2 L 49.4 6.5 L 45.5 6.5 L 45.7 5.7 Z " stroke="none" fill="#fafafa"/>  </g></svg>