<?xml version="1.0" standalone="no"?><!DOCTYPE svg PUBLIC "-//W3C//DTD SVG 1.1//EN" "http://www.w3.org/Graphics/SVG/1.1/DTD/svg11.dtd"><svg xmlns="http://www.w3.org/2000/svg" version="1.1" width="450px" height="286.2px" viewBox="0 -1 450 286.2" style="top:-1px">  <desc>Anna passe devant une petite boutique du quartier, dans la vitrine, elle remarque un petit n on « Mood (episode1) », ...</desc>  <defs/>  <g id="Polygon10023">    <path d="M 5.2 158.1 C 3.4 160 2.1 162.2 2.1 165.3 C 2.1 168.3 3.2 170.5 5.2 172.7 C 5.2 172.7 3.8 172.7 3.8 172.7 C 2.4 171.2 1 168.6 1 165.3 C 1 162 2.5 159.6 3.8 158.1 C 3.8 158.1 5.2 158.1 5.2 158.1 Z M 7 166.4 C 7 166.4 7.04 166.45 7 166.4 C 7.1 168.2 8.3 169.4 10 169.4 C 11.4 169.4 12.1 168.8 12.6 168 C 12.61 167.96 12.6 168 12.6 168 L 13.8 168 C 13.8 168 13.82 167.96 13.8 168 C 13.4 169.1 12.3 170.4 9.9 170.4 C 7.2 170.4 5.8 168.3 5.8 166.2 C 5.8 166.2 5.8 166.2 5.8 166.2 C 5.8 163.7 7.5 161.9 9.9 161.9 C 12.9 161.9 13.9 164.2 13.9 166.1 C 13.9 166.2 13.9 166.3 13.9 166.4 C 13.94 166.45 7 166.4 7 166.4 Z M 12.7 165.5 C 12.7 165.5 12.66 165.52 12.7 165.5 C 12.6 164.5 12 162.9 9.9 162.9 C 8.1 162.9 7.2 164 7.1 165.5 C 7.07 165.52 7.1 165.5 7.1 165.5 L 12.7 165.5 Z M 17.5 168.9 C 17.51 168.89 17.5 173.8 17.5 173.8 L 16.3 173.8 C 16.3 173.8 16.3 164.17 16.3 164.2 C 16.3 163.5 16.3 162.8 16.3 162.2 C 16.3 162.2 17.5 162.2 17.5 162.2 C 17.5 162.4 17.5 162.9 17.5 163.6 C 18 162.7 19 161.9 20.7 161.9 C 22.9 161.9 24.4 163.7 24.4 166 C 24.4 166 24.4 166 24.4 166 C 24.4 168.6 22.7 170.4 20.5 170.4 C 18.7 170.4 18 169.6 17.5 168.9 Z M 23.2 166.1 C 23.2 166.1 23.2 166.1 23.2 166.1 C 23.2 164.6 22.3 163 20.4 163 C 18.4 163 17.5 164.4 17.5 166.2 C 17.5 166.2 17.5 166.2 17.5 166.2 C 17.5 168 18.4 169.4 20.3 169.4 C 22.2 169.4 23.2 167.8 23.2 166.1 Z M 26.8 162.2 L 28 162.2 L 28 170.2 L 26.8 170.2 L 26.8 162.2 Z M 26.8 158.1 L 28 158.1 L 28 159.9 L 26.8 159.9 L 26.8 158.1 Z M 31.5 167.8 C 31.5 167.8 31.47 167.77 31.5 167.8 C 31.8 168.8 32.7 169.4 34.2 169.4 C 35.9 169.4 36.5 168.8 36.5 168 C 36.5 167.3 36.1 166.8 34 166.5 C 31.2 166.2 30.6 165.2 30.6 164.2 C 30.6 163.2 31.4 161.9 33.9 161.9 C 36.7 161.9 37.4 163.4 37.5 164.3 C 37.51 164.3 37.5 164.3 37.5 164.3 L 36.3 164.3 C 36.3 164.3 36.28 164.3 36.3 164.3 C 36.2 163.8 35.8 162.9 33.9 162.9 C 32.2 162.9 31.9 163.6 31.9 164.1 C 31.9 164.8 32.3 165.2 34.2 165.5 C 37.2 165.8 37.8 166.7 37.8 167.9 C 37.8 169.4 36.7 170.4 34.2 170.4 C 31.8 170.4 30.5 169.4 30.2 167.8 C 30.24 167.77 30.2 167.8 30.2 167.8 L 31.5 167.8 Z M 48 166.2 C 48 166.2 48 166.2 48 166.2 C 48 168.3 46.6 170.4 43.7 170.4 C 41.1 170.4 39.6 168.4 39.6 166.2 C 39.6 166.2 39.6 166.2 39.6 166.2 C 39.6 163.9 41.2 161.9 43.8 161.9 C 46.5 161.9 48 164 48 166.2 Z M 40.8 166.2 C 40.8 166.2 40.8 166.2 40.8 166.2 C 40.8 167.8 41.9 169.4 43.8 169.4 C 45.8 169.4 46.7 167.9 46.7 166.2 C 46.7 166.2 46.7 166.2 46.7 166.2 C 46.7 164.5 45.6 163 43.7 163 C 41.8 163 40.8 164.5 40.8 166.2 Z M 58 158.1 C 58 158.1 57.97 167.84 58 167.8 C 58 168.6 58 169.4 58 170.2 C 58 170.2 56.8 170.2 56.8 170.2 C 56.8 169.8 56.8 169.3 56.8 168.9 C 56.4 169.6 55.6 170.4 53.7 170.4 C 51.4 170.4 49.8 168.7 49.8 166.2 C 49.8 166.2 49.8 166.2 49.8 166.2 C 49.8 163.6 51.8 161.9 53.9 161.9 C 55.9 161.9 56.5 162.9 56.8 163.3 C 56.76 163.29 56.8 158.1 56.8 158.1 L 58 158.1 Z M 51.1 166.2 C 51.1 166.2 51.1 166.2 51.1 166.2 C 51.1 167.8 52 169.4 53.9 169.4 C 56 169.4 56.8 168 56.8 166.1 C 56.8 166.1 56.8 166.1 56.8 166.1 C 56.8 164.3 56.2 163 54 163 C 52 163 51.1 164.6 51.1 166.2 Z M 61.6 166.4 C 61.6 166.4 61.57 166.45 61.6 166.4 C 61.7 168.2 62.8 169.4 64.6 169.4 C 65.9 169.4 66.7 168.8 67.1 168 C 67.14 167.96 67.1 168 67.1 168 L 68.3 168 C 68.3 168 68.35 167.96 68.3 168 C 67.9 169.1 66.8 170.4 64.5 170.4 C 61.7 170.4 60.3 168.3 60.3 166.2 C 60.3 166.2 60.3 166.2 60.3 166.2 C 60.3 163.7 62 161.9 64.4 161.9 C 67.4 161.9 68.5 164.2 68.5 166.1 C 68.5 166.2 68.5 166.3 68.5 166.4 C 68.47 166.45 61.6 166.4 61.6 166.4 Z M 67.2 165.5 C 67.2 165.5 67.19 165.52 67.2 165.5 C 67.1 164.5 66.6 162.9 64.4 162.9 C 62.7 162.9 61.8 164 61.6 165.5 C 61.6 165.52 61.6 165.5 61.6 165.5 L 67.2 165.5 Z M 72.2 170.2 C 72.2 170.2 72.16 160.93 72.2 160.9 C 71.5 161.4 70.1 162 69.5 162.1 C 69.5 162.1 69.5 161.1 69.5 161.1 C 70.7 160.7 71.8 160 72.4 159.3 C 72.45 159.35 73.4 159.3 73.4 159.3 L 73.4 170.2 L 72.2 170.2 Z M 75.3 172.7 C 77.1 170.9 78.4 168.6 78.4 165.5 C 78.4 162.6 77.3 160.3 75.3 158.1 C 75.3 158.1 76.6 158.1 76.6 158.1 C 78.1 159.7 79.5 162.3 79.5 165.5 C 79.5 168.8 78 171.3 76.6 172.7 C 76.6 172.7 75.3 172.7 75.3 172.7 Z M 91.2 166 L 88.5 162.7 L 89.8 162.7 L 92.5 166 L 89.8 169.3 L 88.5 169.3 L 91.2 166 Z M 87.8 166 L 85.1 162.7 L 86.4 162.7 L 89.1 166 L 86.4 169.3 L 85.1 169.3 L 87.8 166 Z M 93.3 172.5 C 94.2 170.6 94.6 169.2 94.7 167.8 C 94.7 167.8 95.9 167.8 95.9 167.8 C 95.8 169 95.3 171.1 94.4 172.5 C 94.4 172.5 93.3 172.5 93.3 172.5 Z M 108.1 168.9 C 108.08 168.89 108.1 173.8 108.1 173.8 L 106.9 173.8 C 106.9 173.8 106.87 164.17 106.9 164.2 C 106.9 163.5 106.9 162.8 106.9 162.2 C 106.9 162.2 108 162.2 108 162.2 C 108.1 162.4 108.1 162.9 108.1 163.6 C 108.6 162.7 109.5 161.9 111.3 161.9 C 113.5 161.9 115 163.7 115 166 C 115 166 115 166 115 166 C 115 168.6 113.2 170.4 111 170.4 C 109.3 170.4 108.5 169.6 108.1 168.9 Z M 113.8 166.1 C 113.8 166.1 113.8 166.1 113.8 166.1 C 113.8 164.6 112.9 163 110.9 163 C 108.9 163 108 164.4 108 166.2 C 108 166.2 108 166.2 108 166.2 C 108 168 109 169.4 110.9 169.4 C 112.8 169.4 113.8 167.8 113.8 166.1 Z M 124.2 168.3 C 124.2 169 124.2 170 124.3 170.2 C 124.3 170.2 123.1 170.2 123.1 170.2 C 123.1 169.9 123 169.2 123 168.9 C 122.6 169.8 121.7 170.4 119.9 170.4 C 117.6 170.4 116.8 169 116.8 167.9 C 116.8 167.9 116.8 167.9 116.8 167.9 C 116.8 165.8 118.7 165.2 121 165.2 C 122 165.2 122.7 165.2 123 165.2 C 123 165.2 123 164.8 123 164.8 C 123 163.8 122.6 162.9 120.7 162.9 C 119.1 162.9 118.7 163.7 118.5 164.5 C 118.49 164.48 118.5 164.5 118.5 164.5 L 117.3 164.5 C 117.3 164.5 117.28 164.48 117.3 164.5 C 117.4 163.4 118.1 161.9 120.7 161.9 C 123.5 161.9 124.2 163.3 124.2 164.6 C 124.2 164.6 124.2 168.3 124.2 168.3 Z M 123 166.2 C 122.7 166.2 122.2 166.2 121 166.2 C 119 166.2 118 166.6 118 167.8 C 118 167.8 118 167.8 118 167.8 C 118 168.7 118.7 169.4 120.1 169.4 C 122.5 169.4 123 168 123 166.6 C 123 166.6 123 166.2 123 166.2 Z M 127.6 167.8 C 127.6 167.8 127.61 167.77 127.6 167.8 C 127.9 168.8 128.8 169.4 130.4 169.4 C 132.1 169.4 132.7 168.8 132.7 168 C 132.7 167.3 132.3 166.8 130.1 166.5 C 127.3 166.2 126.8 165.2 126.8 164.2 C 126.8 163.2 127.6 161.9 130.1 161.9 C 132.9 161.9 133.6 163.4 133.7 164.3 C 133.66 164.3 133.7 164.3 133.7 164.3 L 132.4 164.3 C 132.4 164.3 132.43 164.3 132.4 164.3 C 132.3 163.8 132 162.9 130 162.9 C 128.4 162.9 128 163.6 128 164.1 C 128 164.8 128.4 165.2 130.4 165.5 C 133.3 165.8 133.9 166.7 133.9 167.9 C 133.9 169.4 132.8 170.4 130.3 170.4 C 127.9 170.4 126.7 169.4 126.4 167.8 C 126.38 167.77 126.4 167.8 126.4 167.8 L 127.6 167.8 Z M 144.6 164.2 C 144.6 163.5 144.6 162.8 144.6 162.2 C 144.6 162.2 145.8 162.2 145.8 162.2 C 145.8 162.5 145.8 163 145.8 163.4 C 146.2 162.7 147 161.9 148.4 161.9 C 149.7 161.9 150.6 162.6 150.9 163.5 C 151.4 162.8 152.1 161.9 153.7 161.9 C 155.3 161.9 156.5 162.8 156.5 165.2 C 156.55 165.19 156.5 170.2 156.5 170.2 L 155.3 170.2 C 155.3 170.2 155.35 165.25 155.3 165.2 C 155.3 164.2 155 163 153.5 163 C 152.1 163 151.2 163.9 151.2 165.8 C 151.18 165.8 151.2 170.2 151.2 170.2 L 150 170.2 C 150 170.2 149.97 165.16 150 165.2 C 150 164.2 149.6 163 148.1 163 C 146.4 163 145.8 164.3 145.8 165.9 C 145.8 165.94 145.8 170.2 145.8 170.2 L 144.6 170.2 C 144.6 170.2 144.6 164.23 144.6 164.2 Z M 166.3 168.3 C 166.3 169 166.3 170 166.4 170.2 C 166.4 170.2 165.2 170.2 165.2 170.2 C 165.2 169.9 165.1 169.2 165.1 168.9 C 164.7 169.8 163.8 170.4 162 170.4 C 159.7 170.4 158.9 169 158.9 167.9 C 158.9 167.9 158.9 167.9 158.9 167.9 C 158.9 165.8 160.8 165.2 163.1 165.2 C 164.1 165.2 164.8 165.2 165.1 165.2 C 165.1 165.2 165.1 164.8 165.1 164.8 C 165.1 163.8 164.7 162.9 162.8 162.9 C 161.2 162.9 160.8 163.7 160.6 164.5 C 160.59 164.48 160.6 164.5 160.6 164.5 L 159.4 164.5 C 159.4 164.5 159.38 164.48 159.4 164.5 C 159.5 163.4 160.2 161.9 162.8 161.9 C 165.6 161.9 166.3 163.3 166.3 164.6 C 166.3 164.6 166.3 168.3 166.3 168.3 Z M 165.1 166.2 C 164.8 166.2 164.3 166.2 163.1 166.2 C 161.1 166.2 160.1 166.6 160.1 167.8 C 160.1 167.8 160.1 167.8 160.1 167.8 C 160.1 168.7 160.8 169.4 162.2 169.4 C 164.6 169.4 165.1 168 165.1 166.6 C 165.1 166.6 165.1 166.2 165.1 166.2 Z M 169.2 170.2 L 169.2 158.1 L 170.4 158.1 L 170.4 170.2 L 169.2 170.2 Z M 182.6 166.2 L 182.5 160.6 L 182.5 158.8 L 183.8 158.8 L 183.8 160.6 L 183.7 166.2 L 182.6 166.2 Z M 182.5 170.2 L 182.5 167.9 L 183.7 167.9 L 183.7 170.2 L 182.5 170.2 Z " stroke="none" fill="#141414"/>  </g>  <g id="Polygon10022">    <path d="M 8.9 133.8 C 8.9 133.8 8.86 143.52 8.9 143.5 C 8.9 144.3 8.9 145.1 8.9 145.9 C 8.9 145.9 7.7 145.9 7.7 145.9 C 7.7 145.5 7.7 145 7.7 144.6 C 7.3 145.3 6.5 146.1 4.6 146.1 C 2.3 146.1 0.7 144.3 0.7 141.9 C 0.7 141.9 0.7 141.9 0.7 141.9 C 0.7 139.3 2.7 137.6 4.8 137.6 C 6.8 137.6 7.4 138.6 7.7 139 C 7.65 138.97 7.7 133.8 7.7 133.8 L 8.9 133.8 Z M 2 141.9 C 2 141.9 2 141.9 2 141.9 C 2 143.4 2.9 145.1 4.8 145.1 C 6.9 145.1 7.7 143.7 7.7 141.8 C 7.7 141.8 7.7 141.8 7.7 141.8 C 7.7 139.9 7.1 138.7 4.9 138.7 C 2.9 138.7 2 140.3 2 141.9 Z M 18.6 144 C 18.6 144.7 18.7 145.7 18.7 145.9 C 18.7 145.9 17.6 145.9 17.6 145.9 C 17.5 145.6 17.5 144.9 17.5 144.6 C 17 145.5 16.1 146.1 14.4 146.1 C 12.1 146.1 11.3 144.7 11.3 143.5 C 11.3 143.5 11.3 143.5 11.3 143.5 C 11.3 141.5 13.1 140.9 15.4 140.9 C 16.5 140.9 17.2 140.9 17.5 140.9 C 17.5 140.9 17.5 140.4 17.5 140.4 C 17.5 139.5 17 138.6 15.2 138.6 C 13.5 138.6 13.1 139.3 12.9 140.2 C 12.93 140.16 12.9 140.2 12.9 140.2 L 11.7 140.2 C 11.7 140.2 11.72 140.16 11.7 140.2 C 11.8 139.1 12.5 137.6 15.2 137.6 C 17.9 137.6 18.6 139 18.6 140.3 C 18.6 140.3 18.6 144 18.6 144 Z M 17.5 141.8 C 17.2 141.8 16.6 141.8 15.4 141.8 C 13.4 141.8 12.5 142.3 12.5 143.5 C 12.5 143.5 12.5 143.5 12.5 143.5 C 12.5 144.4 13.1 145.1 14.6 145.1 C 16.9 145.1 17.5 143.7 17.5 142.3 C 17.5 142.3 17.5 141.8 17.5 141.8 Z M 21.5 139.9 C 21.5 139.2 21.5 138.4 21.5 137.8 C 21.5 137.8 22.7 137.8 22.7 137.8 C 22.7 138.1 22.7 138.8 22.7 139.5 C 23.1 138.6 24 137.6 25.7 137.6 C 27.6 137.6 28.8 138.8 28.8 141 C 28.84 141 28.8 145.9 28.8 145.9 L 27.6 145.9 C 27.6 145.9 27.62 141.23 27.6 141.2 C 27.6 139.8 27.1 138.7 25.5 138.7 C 23.7 138.7 22.8 140.1 22.8 142.1 C 22.75 142.07 22.8 145.9 22.8 145.9 L 21.5 145.9 C 21.5 145.9 21.54 139.86 21.5 139.9 Z M 32.2 143.5 C 32.2 143.5 32.23 143.45 32.2 143.5 C 32.5 144.5 33.4 145.1 35 145.1 C 36.7 145.1 37.3 144.5 37.3 143.7 C 37.3 143 36.9 142.4 34.7 142.2 C 32 141.9 31.4 140.9 31.4 139.9 C 31.4 138.9 32.2 137.6 34.7 137.6 C 37.5 137.6 38.2 139.1 38.3 140 C 38.27 139.98 38.3 140 38.3 140 L 37 140 C 37 140 37.05 139.98 37 140 C 36.9 139.5 36.6 138.6 34.6 138.6 C 33 138.6 32.6 139.3 32.6 139.8 C 32.6 140.5 33 140.9 35 141.1 C 37.9 141.5 38.5 142.4 38.5 143.6 C 38.5 145.1 37.4 146.1 34.9 146.1 C 32.6 146.1 31.3 145.1 31 143.5 C 31 143.45 31 143.5 31 143.5 L 32.2 143.5 Z M 50.9 145.9 L 50.9 133.8 L 52.1 133.8 L 52.1 145.9 L 50.9 145.9 Z M 61.9 144 C 61.9 144.7 61.9 145.7 61.9 145.9 C 61.9 145.9 60.8 145.9 60.8 145.9 C 60.7 145.6 60.7 144.9 60.7 144.6 C 60.3 145.5 59.4 146.1 57.6 146.1 C 55.3 146.1 54.5 144.7 54.5 143.5 C 54.5 143.5 54.5 143.5 54.5 143.5 C 54.5 141.5 56.4 140.9 58.6 140.9 C 59.7 140.9 60.4 140.9 60.7 140.9 C 60.7 140.9 60.7 140.4 60.7 140.4 C 60.7 139.5 60.3 138.6 58.4 138.6 C 56.7 138.6 56.3 139.3 56.1 140.2 C 56.15 140.16 56.1 140.2 56.1 140.2 L 54.9 140.2 C 54.9 140.2 54.94 140.16 54.9 140.2 C 55 139.1 55.8 137.6 58.4 137.6 C 61.2 137.6 61.9 139 61.9 140.3 C 61.9 140.3 61.9 144 61.9 144 Z M 60.7 141.8 C 60.4 141.8 59.9 141.8 58.7 141.8 C 56.7 141.8 55.7 142.3 55.7 143.5 C 55.7 143.5 55.7 143.5 55.7 143.5 C 55.7 144.4 56.3 145.1 57.8 145.1 C 60.1 145.1 60.7 143.7 60.7 142.3 C 60.7 142.3 60.7 141.8 60.7 141.8 Z M 75 137.8 C 75.7 139.3 77.7 143.9 78 144.7 C 78 144.7 78.1 144.7 78.1 144.7 C 78.3 144.1 78.8 142.8 81 137.8 C 80.99 137.83 82.2 137.8 82.2 137.8 L 78.7 145.9 L 77.4 145.9 L 73.7 137.8 C 73.7 137.8 75.05 137.83 75 137.8 Z M 84.2 137.8 L 85.4 137.8 L 85.4 145.9 L 84.2 145.9 L 84.2 137.8 Z M 84.2 133.8 L 85.4 133.8 L 85.4 135.6 L 84.2 135.6 L 84.2 133.8 Z M 87.3 137.8 L 89 137.8 L 89 135.2 L 90.2 135.2 L 90.2 137.8 L 92.3 137.8 L 92.3 138.8 L 90.2 138.8 C 90.2 138.8 90.16 143.54 90.2 143.5 C 90.2 144.5 90.4 145 91.3 145 C 91.6 145 91.9 145 92.2 144.9 C 92.2 144.9 92.2 145.8 92.2 145.8 C 91.8 145.9 91.4 146 91 146 C 89.4 146 89 145.2 89 143.7 C 88.95 143.66 89 138.8 89 138.8 L 87.3 138.8 L 87.3 137.8 Z M 94.4 140 C 94.4 139.3 94.4 138.6 94.3 137.8 C 94.3 137.8 95.5 137.8 95.5 137.8 C 95.5 138.1 95.6 138.9 95.6 139.7 C 96.1 138.4 97.3 137.6 98.9 137.6 C 98.9 137.6 98.9 138.8 98.9 138.8 C 97 138.8 95.6 140 95.6 142.4 C 95.57 142.4 95.6 145.9 95.6 145.9 L 94.4 145.9 C 94.4 145.9 94.36 140.02 94.4 140 Z M 100.8 137.8 L 102 137.8 L 102 145.9 L 100.8 145.9 L 100.8 137.8 Z M 100.8 133.8 L 102 133.8 L 102 135.6 L 100.8 135.6 L 100.8 133.8 Z M 104.9 139.9 C 104.9 139.2 104.9 138.4 104.9 137.8 C 104.9 137.8 106.1 137.8 106.1 137.8 C 106.1 138.1 106.1 138.8 106.1 139.5 C 106.5 138.6 107.3 137.6 109.1 137.6 C 111 137.6 112.2 138.8 112.2 141 C 112.22 141 112.2 145.9 112.2 145.9 L 111 145.9 C 111 145.9 111.01 141.23 111 141.2 C 111 139.8 110.5 138.7 108.9 138.7 C 107 138.7 106.1 140.1 106.1 142.1 C 106.14 142.07 106.1 145.9 106.1 145.9 L 104.9 145.9 C 104.9 145.9 104.92 139.86 104.9 139.9 Z M 115.8 142.1 C 115.8 142.1 115.78 142.13 115.8 142.1 C 115.9 143.8 117 145.1 118.8 145.1 C 120.1 145.1 120.9 144.5 121.3 143.6 C 121.35 143.64 121.3 143.6 121.3 143.6 L 122.6 143.6 C 122.6 143.6 122.56 143.64 122.6 143.6 C 122.1 144.8 121 146.1 118.7 146.1 C 115.9 146.1 114.6 144 114.6 141.9 C 114.6 141.9 114.6 141.9 114.6 141.9 C 114.6 139.4 116.2 137.6 118.6 137.6 C 121.7 137.6 122.7 139.9 122.7 141.8 C 122.7 141.9 122.7 142 122.7 142.1 C 122.68 142.13 115.8 142.1 115.8 142.1 Z M 121.4 141.2 C 121.4 141.2 121.4 141.2 121.4 141.2 C 121.3 140.1 120.8 138.6 118.6 138.6 C 116.9 138.6 116 139.7 115.8 141.2 C 115.81 141.2 115.8 141.2 115.8 141.2 L 121.4 141.2 Z M 123.8 148.2 C 124.7 146.3 125 144.9 125.1 143.5 C 125.1 143.5 126.4 143.5 126.4 143.5 C 126.3 144.7 125.8 146.8 124.9 148.2 C 124.9 148.2 123.8 148.2 123.8 148.2 Z M 139.6 142.1 C 139.6 142.1 139.6 142.13 139.6 142.1 C 139.7 143.8 140.8 145.1 142.6 145.1 C 143.9 145.1 144.7 144.5 145.2 143.6 C 145.17 143.64 145.2 143.6 145.2 143.6 L 146.4 143.6 C 146.4 143.6 146.38 143.64 146.4 143.6 C 146 144.8 144.8 146.1 142.5 146.1 C 139.7 146.1 138.4 144 138.4 141.9 C 138.4 141.9 138.4 141.9 138.4 141.9 C 138.4 139.4 140 137.6 142.4 137.6 C 145.5 137.6 146.5 139.9 146.5 141.8 C 146.5 141.9 146.5 142 146.5 142.1 C 146.5 142.13 139.6 142.1 139.6 142.1 Z M 145.2 141.2 C 145.2 141.2 145.22 141.2 145.2 141.2 C 145.1 140.1 144.6 138.6 142.4 138.6 C 140.7 138.6 139.8 139.7 139.6 141.2 C 139.63 141.2 139.6 141.2 139.6 141.2 L 145.2 141.2 Z M 148.9 145.9 L 148.9 133.8 L 150.1 133.8 L 150.1 145.9 L 148.9 145.9 Z M 153 145.9 L 153 133.8 L 154.2 133.8 L 154.2 145.9 L 153 145.9 Z M 157.8 142.1 C 157.8 142.1 157.79 142.13 157.8 142.1 C 157.9 143.8 159 145.1 160.8 145.1 C 162.1 145.1 162.9 144.5 163.4 143.6 C 163.36 143.64 163.4 143.6 163.4 143.6 L 164.6 143.6 C 164.6 143.6 164.57 143.64 164.6 143.6 C 164.1 144.8 163 146.1 160.7 146.1 C 157.9 146.1 156.6 144 156.6 141.9 C 156.6 141.9 156.6 141.9 156.6 141.9 C 156.6 139.4 158.2 137.6 160.6 137.6 C 163.7 137.6 164.7 139.9 164.7 141.8 C 164.7 141.9 164.7 142 164.7 142.1 C 164.69 142.13 157.8 142.1 157.8 142.1 Z M 163.4 141.2 C 163.4 141.2 163.41 141.2 163.4 141.2 C 163.3 140.1 162.8 138.6 160.6 138.6 C 158.9 138.6 158 139.7 157.8 141.2 C 157.82 141.2 157.8 141.2 157.8 141.2 L 163.4 141.2 Z M 177 140 C 177 139.3 177 138.6 176.9 137.8 C 176.9 137.8 178.1 137.8 178.1 137.8 C 178.1 138.1 178.2 138.9 178.2 139.7 C 178.7 138.4 179.9 137.6 181.5 137.6 C 181.5 137.6 181.5 138.8 181.5 138.8 C 179.6 138.8 178.2 140 178.2 142.4 C 178.17 142.4 178.2 145.9 178.2 145.9 L 177 145.9 C 177 145.9 176.96 140.02 177 140 Z M 183.9 142.1 C 183.9 142.1 183.86 142.13 183.9 142.1 C 184 143.8 185.1 145.1 186.8 145.1 C 188.2 145.1 189 144.5 189.4 143.6 C 189.43 143.64 189.4 143.6 189.4 143.6 L 190.6 143.6 C 190.6 143.6 190.64 143.64 190.6 143.6 C 190.2 144.8 189.1 146.1 186.8 146.1 C 184 146.1 182.6 144 182.6 141.9 C 182.6 141.9 182.6 141.9 182.6 141.9 C 182.6 139.4 184.3 137.6 186.7 137.6 C 189.7 137.6 190.8 139.9 190.8 141.8 C 190.8 141.9 190.8 142 190.8 142.1 C 190.76 142.13 183.9 142.1 183.9 142.1 Z M 189.5 141.2 C 189.5 141.2 189.48 141.2 189.5 141.2 C 189.4 140.1 188.8 138.6 186.7 138.6 C 185 138.6 184.1 139.7 183.9 141.2 C 183.89 141.2 183.9 141.2 183.9 141.2 L 189.5 141.2 Z M 193.1 139.9 C 193.1 139.2 193.1 138.5 193.1 137.8 C 193.1 137.8 194.3 137.8 194.3 137.8 C 194.3 138.2 194.3 138.6 194.3 139.1 C 194.7 138.4 195.5 137.6 197 137.6 C 198.3 137.6 199.1 138.2 199.4 139.2 C 199.9 138.5 200.6 137.6 202.2 137.6 C 203.8 137.6 205.1 138.5 205.1 140.9 C 205.06 140.87 205.1 145.9 205.1 145.9 L 203.9 145.9 C 203.9 145.9 203.86 140.93 203.9 140.9 C 203.9 139.9 203.5 138.7 202 138.7 C 200.6 138.7 199.7 139.6 199.7 141.5 C 199.69 141.48 199.7 145.9 199.7 145.9 L 198.5 145.9 C 198.5 145.9 198.49 140.84 198.5 140.8 C 198.5 139.8 198.1 138.7 196.6 138.7 C 195 138.7 194.3 140 194.3 141.6 C 194.32 141.62 194.3 145.9 194.3 145.9 L 193.1 145.9 C 193.1 145.9 193.11 139.91 193.1 139.9 Z M 214.8 144 C 214.8 144.7 214.9 145.7 214.9 145.9 C 214.9 145.9 213.7 145.9 213.7 145.9 C 213.7 145.6 213.6 144.9 213.6 144.6 C 213.2 145.5 212.3 146.1 210.6 146.1 C 208.3 146.1 207.4 144.7 207.4 143.5 C 207.4 143.5 207.4 143.5 207.4 143.5 C 207.4 141.5 209.3 140.9 211.6 140.9 C 212.7 140.9 213.4 140.9 213.6 140.9 C 213.6 140.9 213.6 140.4 213.6 140.4 C 213.6 139.5 213.2 138.6 211.4 138.6 C 209.7 138.6 209.3 139.3 209.1 140.2 C 209.11 140.16 209.1 140.2 209.1 140.2 L 207.9 140.2 C 207.9 140.2 207.9 140.16 207.9 140.2 C 208 139.1 208.7 137.6 211.4 137.6 C 214.1 137.6 214.8 139 214.8 140.3 C 214.8 140.3 214.8 144 214.8 144 Z M 213.6 141.8 C 213.4 141.8 212.8 141.8 211.6 141.8 C 209.6 141.8 208.6 142.3 208.6 143.5 C 208.6 143.5 208.6 143.5 208.6 143.5 C 208.6 144.4 209.3 145.1 210.7 145.1 C 213.1 145.1 213.6 143.7 213.6 142.3 C 213.6 142.3 213.6 141.8 213.6 141.8 Z M 217.7 140 C 217.7 139.3 217.7 138.6 217.7 137.8 C 217.7 137.8 218.9 137.8 218.9 137.8 C 218.9 138.1 218.9 138.9 218.9 139.7 C 219.5 138.4 220.7 137.6 222.2 137.6 C 222.2 137.6 222.2 138.8 222.2 138.8 C 220.4 138.8 218.9 140 218.9 142.4 C 218.93 142.4 218.9 145.9 218.9 145.9 L 217.7 145.9 C 217.7 145.9 217.72 140.02 217.7 140 Z M 230.3 144.5 C 229.9 145.4 229 146.1 227.3 146.1 C 225 146.1 223.4 144.4 223.4 142 C 223.4 142 223.4 142 223.4 142 C 223.4 139.2 225.4 137.6 227.4 137.6 C 229.4 137.6 230.1 138.7 230.3 139.1 C 230.4 138.5 230.4 138.1 230.4 137.8 C 230.4 137.8 231.6 137.8 231.6 137.8 C 231.6 138.5 231.5 139.3 231.5 140.1 C 231.54 140.11 231.5 149.4 231.5 149.4 L 230.3 149.4 C 230.3 149.4 230.33 144.53 230.3 144.5 Z M 224.6 141.9 C 224.6 141.9 224.6 141.9 224.6 141.9 C 224.6 143.6 225.7 145 227.4 145 C 229.3 145 230.4 143.9 230.4 141.8 C 230.4 141.8 230.4 141.8 230.4 141.8 C 230.4 140 229.5 138.7 227.6 138.7 C 225.6 138.7 224.6 140.2 224.6 141.9 Z M 241.6 143.5 C 241.6 144.3 241.6 145.1 241.6 145.9 C 241.6 145.9 240.5 145.9 240.5 145.9 C 240.4 145.7 240.4 145 240.4 144.4 C 240 145.4 239.2 146.1 237.5 146.1 C 235.8 146.1 234.4 145.2 234.4 142.8 C 234.43 142.85 234.4 137.8 234.4 137.8 L 235.6 137.8 C 235.6 137.8 235.64 142.61 235.6 142.6 C 235.6 143.9 236.1 145 237.7 145 C 239.6 145 240.4 143.9 240.4 141.4 C 240.4 141.45 240.4 137.8 240.4 137.8 L 241.6 137.8 C 241.6 137.8 241.61 143.53 241.6 143.5 Z M 245.2 142.1 C 245.2 142.1 245.2 142.13 245.2 142.1 C 245.3 143.8 246.4 145.1 248.2 145.1 C 249.5 145.1 250.3 144.5 250.8 143.6 C 250.77 143.64 250.8 143.6 250.8 143.6 L 252 143.6 C 252 143.6 251.98 143.64 252 143.6 C 251.6 144.8 250.4 146.1 248.1 146.1 C 245.3 146.1 244 144 244 141.9 C 244 141.9 244 141.9 244 141.9 C 244 139.4 245.6 137.6 248.1 137.6 C 251.1 137.6 252.1 139.9 252.1 141.8 C 252.1 141.9 252.1 142 252.1 142.1 C 252.1 142.13 245.2 142.1 245.2 142.1 Z M 250.8 141.2 C 250.8 141.2 250.83 141.2 250.8 141.2 C 250.8 140.1 250.2 138.6 248 138.6 C 246.3 138.6 245.4 139.7 245.2 141.2 C 245.24 141.2 245.2 141.2 245.2 141.2 L 250.8 141.2 Z M 271.6 143.5 C 271.6 144.3 271.6 145.1 271.6 145.9 C 271.6 145.9 270.4 145.9 270.4 145.9 C 270.4 145.7 270.4 145 270.4 144.4 C 269.9 145.4 269.2 146.1 267.4 146.1 C 265.7 146.1 264.4 145.2 264.4 142.8 C 264.38 142.85 264.4 137.8 264.4 137.8 L 265.6 137.8 C 265.6 137.8 265.58 142.61 265.6 142.6 C 265.6 143.9 266.1 145 267.6 145 C 269.5 145 270.3 143.9 270.3 141.4 C 270.35 141.45 270.3 137.8 270.3 137.8 L 271.6 137.8 C 271.6 137.8 271.56 143.53 271.6 143.5 Z M 274.5 139.9 C 274.5 139.2 274.5 138.4 274.5 137.8 C 274.5 137.8 275.6 137.8 275.6 137.8 C 275.7 138.1 275.7 138.8 275.7 139.5 C 276 138.6 276.9 137.6 278.7 137.6 C 280.5 137.6 281.8 138.8 281.8 141 C 281.77 141 281.8 145.9 281.8 145.9 L 280.6 145.9 C 280.6 145.9 280.56 141.23 280.6 141.2 C 280.6 139.8 280 138.7 278.4 138.7 C 276.6 138.7 275.7 140.1 275.7 142.1 C 275.68 142.07 275.7 145.9 275.7 145.9 L 274.5 145.9 C 274.5 145.9 274.47 139.86 274.5 139.9 Z M 295.9 144.6 C 295.94 144.57 295.9 149.4 295.9 149.4 L 294.7 149.4 C 294.7 149.4 294.73 139.85 294.7 139.8 C 294.7 139.2 294.7 138.5 294.7 137.8 C 294.7 137.8 295.9 137.8 295.9 137.8 C 295.9 138.1 295.9 138.6 295.9 139.3 C 296.4 138.4 297.4 137.6 299.1 137.6 C 301.3 137.6 302.9 139.4 302.9 141.7 C 302.9 141.7 302.9 141.7 302.9 141.7 C 302.9 144.3 301.1 146.1 298.9 146.1 C 297.1 146.1 296.4 145.3 295.9 144.6 Z M 301.6 141.8 C 301.6 141.8 301.6 141.8 301.6 141.8 C 301.6 140.3 300.7 138.7 298.8 138.7 C 296.8 138.7 295.9 140.1 295.9 141.9 C 295.9 141.9 295.9 141.9 295.9 141.9 C 295.9 143.7 296.8 145 298.7 145 C 300.7 145 301.6 143.5 301.6 141.8 Z M 305.9 142.1 C 305.9 142.1 305.95 142.13 305.9 142.1 C 306 143.8 307.2 145.1 308.9 145.1 C 310.3 145.1 311 144.5 311.5 143.6 C 311.52 143.64 311.5 143.6 311.5 143.6 L 312.7 143.6 C 312.7 143.6 312.73 143.64 312.7 143.6 C 312.3 144.8 311.2 146.1 308.8 146.1 C 306.1 146.1 304.7 144 304.7 141.9 C 304.7 141.9 304.7 141.9 304.7 141.9 C 304.7 139.4 306.4 137.6 308.8 137.6 C 311.8 137.6 312.8 139.9 312.8 141.8 C 312.8 141.9 312.8 142 312.8 142.1 C 312.85 142.13 305.9 142.1 305.9 142.1 Z M 311.6 141.2 C 311.6 141.2 311.57 141.2 311.6 141.2 C 311.5 140.1 310.9 138.6 308.8 138.6 C 307 138.6 306.1 139.7 306 141.2 C 305.98 141.2 306 141.2 306 141.2 L 311.6 141.2 Z M 314 137.8 L 315.7 137.8 L 315.7 135.2 L 316.9 135.2 L 316.9 137.8 L 319.1 137.8 L 319.1 138.8 L 316.9 138.8 C 316.9 138.8 316.89 143.54 316.9 143.5 C 316.9 144.5 317.1 145 318.1 145 C 318.3 145 318.6 145 318.9 144.9 C 318.9 144.9 318.9 145.8 318.9 145.8 C 318.5 145.9 318.2 146 317.7 146 C 316.2 146 315.7 145.2 315.7 143.7 C 315.67 143.66 315.7 138.8 315.7 138.8 L 314 138.8 L 314 137.8 Z M 321.1 137.8 L 322.3 137.8 L 322.3 145.9 L 321.1 145.9 L 321.1 137.8 Z M 321.1 133.8 L 322.3 133.8 L 322.3 135.6 L 321.1 135.6 L 321.1 133.8 Z M 324.2 137.8 L 325.9 137.8 L 325.9 135.2 L 327.1 135.2 L 327.1 137.8 L 329.2 137.8 L 329.2 138.8 L 327.1 138.8 C 327.1 138.8 327.07 143.54 327.1 143.5 C 327.1 144.5 327.3 145 328.2 145 C 328.5 145 328.8 145 329.1 144.9 C 329.1 144.9 329.1 145.8 329.1 145.8 C 328.7 145.9 328.3 146 327.9 146 C 326.3 146 325.9 145.2 325.9 143.7 C 325.86 143.66 325.9 138.8 325.9 138.8 L 324.2 138.8 L 324.2 137.8 Z M 341.3 139.9 C 341.3 139.2 341.3 138.4 341.3 137.8 C 341.3 137.8 342.4 137.8 342.4 137.8 C 342.5 138.1 342.5 138.8 342.5 139.5 C 342.8 138.6 343.7 137.6 345.5 137.6 C 347.3 137.6 348.6 138.8 348.6 141 C 348.57 141 348.6 145.9 348.6 145.9 L 347.4 145.9 C 347.4 145.9 347.36 141.23 347.4 141.2 C 347.4 139.8 346.8 138.7 345.2 138.7 C 343.4 138.7 342.5 140.1 342.5 142.1 C 342.49 142.07 342.5 145.9 342.5 145.9 L 341.3 145.9 C 341.3 145.9 341.27 139.86 341.3 139.9 Z M 352.1 142.1 C 352.1 142.1 352.13 142.13 352.1 142.1 C 352.2 143.8 353.4 145.1 355.1 145.1 C 356.5 145.1 357.2 144.5 357.7 143.6 C 357.7 143.64 357.7 143.6 357.7 143.6 L 358.9 143.6 C 358.9 143.6 358.91 143.64 358.9 143.6 C 358.5 144.8 357.4 146.1 355 146.1 C 352.3 146.1 350.9 144 350.9 141.9 C 350.9 141.9 350.9 141.9 350.9 141.9 C 350.9 139.4 352.6 137.6 355 137.6 C 358 137.6 359 139.9 359 141.8 C 359 141.9 359 142 359 142.1 C 359.03 142.13 352.1 142.1 352.1 142.1 Z M 357.8 141.2 C 357.8 141.2 357.75 141.2 357.8 141.2 C 357.7 140.1 357.1 138.6 355 138.6 C 353.2 138.6 352.3 139.7 352.2 141.2 C 352.16 141.2 352.2 141.2 352.2 141.2 L 357.8 141.2 Z M 357.6 133.7 L 355.1 136.2 L 353.9 136.2 L 356.1 133.7 L 357.6 133.7 Z M 369.3 141.9 C 369.3 141.9 369.3 141.9 369.3 141.9 C 369.3 144 367.9 146.1 365 146.1 C 362.4 146.1 360.9 144.1 360.9 141.9 C 360.9 141.9 360.9 141.9 360.9 141.9 C 360.9 139.5 362.5 137.6 365.1 137.6 C 367.8 137.6 369.3 139.7 369.3 141.9 Z M 362.1 141.9 C 362.1 141.9 362.1 141.9 362.1 141.9 C 362.1 143.5 363.2 145.1 365.1 145.1 C 367.1 145.1 368 143.6 368 141.9 C 368 141.9 368 141.9 368 141.9 C 368 140.1 366.9 138.6 365 138.6 C 363.1 138.6 362.1 140.1 362.1 141.9 Z M 371.6 139.9 C 371.6 139.2 371.6 138.4 371.6 137.8 C 371.6 137.8 372.8 137.8 372.8 137.8 C 372.8 138.1 372.8 138.8 372.8 139.5 C 373.2 138.6 374 137.6 375.8 137.6 C 377.7 137.6 378.9 138.8 378.9 141 C 378.92 141 378.9 145.9 378.9 145.9 L 377.7 145.9 C 377.7 145.9 377.71 141.23 377.7 141.2 C 377.7 139.8 377.2 138.7 375.6 138.7 C 373.7 138.7 372.8 140.1 372.8 142.1 C 372.84 142.07 372.8 145.9 372.8 145.9 L 371.6 145.9 C 371.6 145.9 371.63 139.86 371.6 139.9 Z M 392.6 141.7 L 395.3 145 L 394.1 145 L 391.3 141.7 L 394.1 138.4 L 395.3 138.4 L 392.6 141.7 Z M 396 141.7 L 398.7 145 L 397.4 145 L 394.7 141.7 L 397.4 138.4 L 398.7 138.4 L 396 141.7 Z M 416 140.8 C 416 138.6 416 136.6 416 135.4 C 416 135.4 416 135.4 416 135.4 C 415.5 137 413.2 142 411.5 145.9 C 411.5 145.9 410.4 145.9 410.4 145.9 C 409.1 142.8 406.7 137.1 406.1 135.4 C 406.1 135.4 406 135.4 406 135.4 C 406.2 136.7 406.2 139.2 406.2 141.1 C 406.2 141.13 406.2 145.9 406.2 145.9 L 405 145.9 L 405 134.5 C 405 134.5 406.82 134.48 406.8 134.5 C 408.5 138.3 410.7 143.4 411 144.3 C 411 144.3 411.1 144.3 411.1 144.3 C 411.6 143 413.8 138 415.4 134.5 C 415.37 134.48 417.2 134.5 417.2 134.5 L 417.2 145.9 L 416 145.9 C 416 145.9 415.97 140.81 416 140.8 Z M 428.4 141.9 C 428.4 141.9 428.4 141.9 428.4 141.9 C 428.4 144 427 146.1 424.2 146.1 C 421.5 146.1 420 144.1 420 141.9 C 420 141.9 420 141.9 420 141.9 C 420 139.5 421.6 137.6 424.2 137.6 C 426.9 137.6 428.4 139.7 428.4 141.9 Z M 421.2 141.9 C 421.2 141.9 421.2 141.9 421.2 141.9 C 421.2 143.5 422.3 145.1 424.2 145.1 C 426.2 145.1 427.1 143.6 427.1 141.9 C 427.1 141.9 427.1 141.9 427.1 141.9 C 427.1 140.1 426.1 138.6 424.2 138.6 C 422.2 138.6 421.2 140.1 421.2 141.9 Z M 438.6 141.9 C 438.6 141.9 438.6 141.9 438.6 141.9 C 438.6 144 437.3 146.1 434.4 146.1 C 431.8 146.1 430.2 144.1 430.2 141.9 C 430.2 141.9 430.2 141.9 430.2 141.9 C 430.2 139.5 431.9 137.6 434.5 137.6 C 437.2 137.6 438.6 139.7 438.6 141.9 Z M 431.5 141.9 C 431.5 141.9 431.5 141.9 431.5 141.9 C 431.5 143.5 432.5 145.1 434.4 145.1 C 436.4 145.1 437.4 143.6 437.4 141.9 C 437.4 141.9 437.4 141.9 437.4 141.9 C 437.4 140.1 436.3 138.6 434.4 138.6 C 432.4 138.6 431.5 140.1 431.5 141.9 Z M 448.6 133.8 C 448.6 133.8 448.64 143.52 448.6 143.5 C 448.6 144.3 448.6 145.1 448.7 145.9 C 448.7 145.9 447.5 145.9 447.5 145.9 C 447.4 145.5 447.4 145 447.4 144.6 C 447 145.3 446.3 146.1 444.4 146.1 C 442 146.1 440.5 144.3 440.5 141.9 C 440.5 141.9 440.5 141.9 440.5 141.9 C 440.5 139.3 442.4 137.6 444.6 137.6 C 446.5 137.6 447.2 138.6 447.4 139 C 447.43 138.97 447.4 133.8 447.4 133.8 L 448.6 133.8 Z M 441.7 141.9 C 441.7 141.9 441.7 141.9 441.7 141.9 C 441.7 143.4 442.7 145.1 444.6 145.1 C 446.7 145.1 447.5 143.7 447.5 141.8 C 447.5 141.8 447.5 141.8 447.5 141.8 C 447.5 139.9 446.8 138.7 444.6 138.7 C 442.7 138.7 441.7 140.3 441.7 141.9 Z " stroke="none" fill="#141414"/>  </g>  <g id="Polygon10021">    <path d="M 3.2 117.9 L 1.6 121.6 L 0.2 121.6 L 5.2 110.2 L 6.7 110.2 L 11.9 121.6 L 10.5 121.6 L 8.8 117.9 L 3.2 117.9 Z M 8.4 116.7 C 6.9 113.4 6.2 111.9 5.9 111.2 C 5.9 111.2 5.9 111.2 5.9 111.2 C 5.7 111.9 4.9 113.9 3.6 116.7 C 3.6 116.7 8.4 116.7 8.4 116.7 Z M 14 115.5 C 14 114.9 14 114.1 13.9 113.5 C 13.9 113.5 15.1 113.5 15.1 113.5 C 15.1 113.8 15.2 114.5 15.2 115.1 C 15.5 114.3 16.4 113.3 18.1 113.3 C 20 113.3 21.2 114.4 21.2 116.7 C 21.25 116.68 21.2 121.6 21.2 121.6 L 20 121.6 C 20 121.6 20.03 116.91 20 116.9 C 20 115.5 19.5 114.4 17.9 114.4 C 16.1 114.4 15.2 115.8 15.2 117.7 C 15.16 117.75 15.2 121.6 15.2 121.6 L 14 121.6 C 14 121.6 13.95 115.54 14 115.5 Z M 24.1 115.5 C 24.1 114.9 24.1 114.1 24.1 113.5 C 24.1 113.5 25.3 113.5 25.3 113.5 C 25.3 113.8 25.3 114.5 25.3 115.1 C 25.7 114.3 26.6 113.3 28.3 113.3 C 30.2 113.3 31.4 114.4 31.4 116.7 C 31.43 116.68 31.4 121.6 31.4 121.6 L 30.2 121.6 C 30.2 121.6 30.21 116.91 30.2 116.9 C 30.2 115.5 29.7 114.4 28.1 114.4 C 26.2 114.4 25.3 115.8 25.3 117.7 C 25.34 117.75 25.3 121.6 25.3 121.6 L 24.1 121.6 C 24.1 121.6 24.13 115.54 24.1 115.5 Z M 41.2 119.6 C 41.2 120.4 41.2 121.4 41.2 121.6 C 41.2 121.6 40.1 121.6 40.1 121.6 C 40 121.2 40 120.6 40 120.3 C 39.6 121.2 38.7 121.8 36.9 121.8 C 34.6 121.8 33.8 120.4 33.8 119.2 C 33.8 119.2 33.8 119.2 33.8 119.2 C 33.8 117.2 35.7 116.6 37.9 116.6 C 39 116.6 39.7 116.6 40 116.6 C 40 116.6 40 116.1 40 116.1 C 40 115.2 39.6 114.3 37.7 114.3 C 36 114.3 35.6 115 35.5 115.8 C 35.45 115.84 35.5 115.8 35.5 115.8 L 34.2 115.8 C 34.2 115.8 34.24 115.84 34.2 115.8 C 34.3 114.8 35.1 113.3 37.7 113.3 C 40.5 113.3 41.2 114.7 41.2 116 C 41.2 116 41.2 119.6 41.2 119.6 Z M 40 117.5 C 39.7 117.5 39.2 117.5 38 117.5 C 36 117.5 35 117.9 35 119.1 C 35 119.1 35 119.1 35 119.1 C 35 120 35.6 120.8 37.1 120.8 C 39.4 120.8 40 119.3 40 117.9 C 40 117.9 40 117.5 40 117.5 Z M 55.2 120.2 C 55.2 120.25 55.2 125.1 55.2 125.1 L 54 125.1 C 54 125.1 53.99 115.53 54 115.5 C 54 114.9 54 114.2 54 113.5 C 54 113.5 55.1 113.5 55.1 113.5 C 55.2 113.8 55.2 114.3 55.2 115 C 55.7 114.1 56.7 113.3 58.4 113.3 C 60.6 113.3 62.1 115.1 62.1 117.4 C 62.1 117.4 62.1 117.4 62.1 117.4 C 62.1 120 60.4 121.8 58.1 121.8 C 56.4 121.8 55.6 121 55.2 120.2 Z M 60.9 117.4 C 60.9 117.4 60.9 117.4 60.9 117.4 C 60.9 115.9 60 114.4 58 114.4 C 56 114.4 55.2 115.8 55.2 117.6 C 55.2 117.6 55.2 117.6 55.2 117.6 C 55.2 119.4 56.1 120.7 58 120.7 C 59.9 120.7 60.9 119.1 60.9 117.4 Z M 71.3 119.6 C 71.3 120.4 71.4 121.4 71.4 121.6 C 71.4 121.6 70.2 121.6 70.2 121.6 C 70.2 121.2 70.1 120.6 70.1 120.3 C 69.7 121.2 68.8 121.8 67.1 121.8 C 64.8 121.8 63.9 120.4 63.9 119.2 C 63.9 119.2 63.9 119.2 63.9 119.2 C 63.9 117.2 65.8 116.6 68.1 116.6 C 69.2 116.6 69.9 116.6 70.1 116.6 C 70.1 116.6 70.1 116.1 70.1 116.1 C 70.1 115.2 69.7 114.3 67.9 114.3 C 66.2 114.3 65.8 115 65.6 115.8 C 65.61 115.84 65.6 115.8 65.6 115.8 L 64.4 115.8 C 64.4 115.8 64.4 115.84 64.4 115.8 C 64.5 114.8 65.2 113.3 67.9 113.3 C 70.6 113.3 71.3 114.7 71.3 116 C 71.3 116 71.3 119.6 71.3 119.6 Z M 70.1 117.5 C 69.9 117.5 69.3 117.5 68.1 117.5 C 66.1 117.5 65.1 117.9 65.1 119.1 C 65.1 119.1 65.1 119.1 65.1 119.1 C 65.1 120 65.8 120.8 67.2 120.8 C 69.6 120.8 70.1 119.3 70.1 117.9 C 70.1 117.9 70.1 117.5 70.1 117.5 Z M 74.7 119.1 C 74.7 119.1 74.73 119.13 74.7 119.1 C 75 120.2 75.9 120.8 77.5 120.8 C 79.2 120.8 79.8 120.2 79.8 119.4 C 79.8 118.6 79.4 118.1 77.2 117.9 C 74.5 117.5 73.9 116.6 73.9 115.6 C 73.9 114.6 74.7 113.3 77.2 113.3 C 80 113.3 80.7 114.8 80.8 115.7 C 80.77 115.66 80.8 115.7 80.8 115.7 L 79.5 115.7 C 79.5 115.7 79.54 115.66 79.5 115.7 C 79.4 115.1 79.1 114.3 77.1 114.3 C 75.5 114.3 75.1 115 75.1 115.5 C 75.1 116.2 75.5 116.6 77.5 116.8 C 80.4 117.2 81 118.1 81 119.3 C 81 120.7 79.9 121.8 77.4 121.8 C 75 121.8 73.8 120.8 73.5 119.1 C 73.5 119.13 73.5 119.1 73.5 119.1 L 74.7 119.1 Z M 84.1 119.1 C 84.1 119.1 84.06 119.13 84.1 119.1 C 84.4 120.2 85.3 120.8 86.8 120.8 C 88.5 120.8 89.1 120.2 89.1 119.4 C 89.1 118.6 88.7 118.1 86.5 117.9 C 83.8 117.5 83.2 116.6 83.2 115.6 C 83.2 114.6 84 113.3 86.5 113.3 C 89.3 113.3 90 114.8 90.1 115.7 C 90.1 115.66 90.1 115.7 90.1 115.7 L 88.9 115.7 C 88.9 115.7 88.87 115.66 88.9 115.7 C 88.7 115.1 88.4 114.3 86.4 114.3 C 84.8 114.3 84.4 115 84.4 115.5 C 84.4 116.2 84.9 116.6 86.8 116.8 C 89.8 117.2 90.4 118.1 90.4 119.3 C 90.4 120.7 89.3 121.8 86.8 121.8 C 84.4 121.8 83.1 120.8 82.8 119.1 C 82.82 119.13 82.8 119.1 82.8 119.1 L 84.1 119.1 Z M 93.4 117.8 C 93.4 117.8 93.38 117.81 93.4 117.8 C 93.5 119.5 94.6 120.8 96.4 120.8 C 97.7 120.8 98.5 120.2 99 119.3 C 98.95 119.32 99 119.3 99 119.3 L 100.2 119.3 C 100.2 119.3 100.16 119.32 100.2 119.3 C 99.7 120.5 98.6 121.8 96.3 121.8 C 93.5 121.8 92.2 119.7 92.2 117.6 C 92.2 117.6 92.2 117.6 92.2 117.6 C 92.2 115.1 93.8 113.3 96.2 113.3 C 99.3 113.3 100.3 115.5 100.3 117.5 C 100.3 117.6 100.3 117.7 100.3 117.8 C 100.28 117.81 93.4 117.8 93.4 117.8 Z M 99 116.9 C 99 116.9 99 116.88 99 116.9 C 98.9 115.8 98.4 114.3 96.2 114.3 C 94.5 114.3 93.6 115.4 93.4 116.9 C 93.42 116.88 93.4 116.9 93.4 116.9 L 99 116.9 Z M 119.9 109.5 C 119.9 109.5 119.91 119.2 119.9 119.2 C 119.9 120 119.9 120.8 119.9 121.6 C 119.9 121.6 118.8 121.6 118.8 121.6 C 118.7 121.2 118.7 120.7 118.7 120.2 C 118.3 121 117.6 121.8 115.7 121.8 C 113.3 121.8 111.8 120 111.8 117.6 C 111.8 117.6 111.8 117.6 111.8 117.6 C 111.8 115 113.7 113.3 115.8 113.3 C 117.8 113.3 118.5 114.2 118.7 114.6 C 118.7 114.65 118.7 109.5 118.7 109.5 L 119.9 109.5 Z M 113 117.6 C 113 117.6 113 117.6 113 117.6 C 113 119.1 114 120.7 115.9 120.7 C 117.9 120.7 118.8 119.4 118.8 117.5 C 118.8 117.5 118.8 117.5 118.8 117.5 C 118.8 115.6 118.1 114.3 115.9 114.3 C 114 114.3 113 116 113 117.6 Z M 123.5 117.8 C 123.5 117.8 123.51 117.81 123.5 117.8 C 123.6 119.5 124.7 120.8 126.5 120.8 C 127.8 120.8 128.6 120.2 129.1 119.3 C 129.08 119.32 129.1 119.3 129.1 119.3 L 130.3 119.3 C 130.3 119.3 130.29 119.32 130.3 119.3 C 129.9 120.5 128.8 121.8 126.4 121.8 C 123.6 121.8 122.3 119.7 122.3 117.6 C 122.3 117.6 122.3 117.6 122.3 117.6 C 122.3 115.1 123.9 113.3 126.4 113.3 C 129.4 113.3 130.4 115.5 130.4 117.5 C 130.4 117.6 130.4 117.7 130.4 117.8 C 130.41 117.81 123.5 117.8 123.5 117.8 Z M 129.1 116.9 C 129.1 116.9 129.13 116.88 129.1 116.9 C 129.1 115.8 128.5 114.3 126.3 114.3 C 124.6 114.3 123.7 115.4 123.5 116.9 C 123.54 116.88 123.5 116.9 123.5 116.9 L 129.1 116.9 Z M 132.8 113.5 C 133.4 115 135.4 119.6 135.7 120.4 C 135.7 120.4 135.8 120.4 135.8 120.4 C 136 119.8 136.5 118.5 138.7 113.5 C 138.7 113.51 139.9 113.5 139.9 113.5 L 136.4 121.6 L 135.1 121.6 L 131.4 113.5 C 131.4 113.5 132.76 113.51 132.8 113.5 Z M 148.4 119.6 C 148.4 120.4 148.4 121.4 148.4 121.6 C 148.4 121.6 147.3 121.6 147.3 121.6 C 147.2 121.2 147.2 120.6 147.2 120.3 C 146.8 121.2 145.9 121.8 144.1 121.8 C 141.8 121.8 141 120.4 141 119.2 C 141 119.2 141 119.2 141 119.2 C 141 117.2 142.9 116.6 145.1 116.6 C 146.2 116.6 146.9 116.6 147.2 116.6 C 147.2 116.6 147.2 116.1 147.2 116.1 C 147.2 115.2 146.8 114.3 144.9 114.3 C 143.2 114.3 142.8 115 142.7 115.8 C 142.65 115.84 142.7 115.8 142.7 115.8 L 141.4 115.8 C 141.4 115.8 141.45 115.84 141.4 115.8 C 141.5 114.8 142.3 113.3 144.9 113.3 C 147.7 113.3 148.4 114.7 148.4 116 C 148.4 116 148.4 119.6 148.4 119.6 Z M 147.2 117.5 C 146.9 117.5 146.4 117.5 145.2 117.5 C 143.2 117.5 142.2 117.9 142.2 119.1 C 142.2 119.1 142.2 119.1 142.2 119.1 C 142.2 120 142.8 120.8 144.3 120.8 C 146.6 120.8 147.2 119.3 147.2 117.9 C 147.2 117.9 147.2 117.5 147.2 117.5 Z M 151.3 115.5 C 151.3 114.9 151.3 114.1 151.2 113.5 C 151.2 113.5 152.4 113.5 152.4 113.5 C 152.5 113.8 152.5 114.5 152.5 115.1 C 152.8 114.3 153.7 113.3 155.5 113.3 C 157.3 113.3 158.6 114.4 158.6 116.7 C 158.56 116.68 158.6 121.6 158.6 121.6 L 157.3 121.6 C 157.3 121.6 157.35 116.91 157.3 116.9 C 157.3 115.5 156.8 114.4 155.2 114.4 C 153.4 114.4 152.5 115.8 152.5 117.7 C 152.48 117.75 152.5 121.6 152.5 121.6 L 151.3 121.6 C 151.3 121.6 151.27 115.54 151.3 115.5 Z M 160.3 113.5 L 161.9 113.5 L 161.9 110.9 L 163.1 110.9 L 163.1 113.5 L 165.3 113.5 L 165.3 114.5 L 163.1 114.5 C 163.1 114.5 163.15 119.22 163.1 119.2 C 163.1 120.2 163.4 120.6 164.3 120.6 C 164.6 120.6 164.9 120.6 165.1 120.6 C 165.1 120.6 165.1 121.5 165.1 121.5 C 164.8 121.6 164.4 121.6 164 121.6 C 162.4 121.6 161.9 120.9 161.9 119.3 C 161.94 119.34 161.9 114.5 161.9 114.5 L 160.3 114.5 L 160.3 113.5 Z M 184.4 119.2 C 184.4 120 184.4 120.8 184.4 121.6 C 184.4 121.6 183.2 121.6 183.2 121.6 C 183.2 121.3 183.2 120.7 183.2 120.1 C 182.8 121.1 182 121.8 180.2 121.8 C 178.5 121.8 177.2 120.9 177.2 118.5 C 177.19 118.53 177.2 113.5 177.2 113.5 L 178.4 113.5 C 178.4 113.5 178.4 118.29 178.4 118.3 C 178.4 119.6 178.9 120.7 180.5 120.7 C 182.3 120.7 183.2 119.6 183.2 117.1 C 183.16 117.13 183.2 113.5 183.2 113.5 L 184.4 113.5 C 184.4 113.5 184.37 119.21 184.4 119.2 Z M 187.3 115.5 C 187.3 114.9 187.3 114.1 187.3 113.5 C 187.3 113.5 188.4 113.5 188.4 113.5 C 188.5 113.8 188.5 114.5 188.5 115.1 C 188.8 114.3 189.7 113.3 191.5 113.3 C 193.3 113.3 194.6 114.4 194.6 116.7 C 194.59 116.68 194.6 121.6 194.6 121.6 L 193.4 121.6 C 193.4 121.6 193.37 116.91 193.4 116.9 C 193.4 115.5 192.8 114.4 191.2 114.4 C 189.4 114.4 188.5 115.8 188.5 117.7 C 188.5 117.75 188.5 121.6 188.5 121.6 L 187.3 121.6 C 187.3 121.6 187.29 115.54 187.3 115.5 Z M 198.1 117.8 C 198.1 117.8 198.14 117.81 198.1 117.8 C 198.2 119.5 199.4 120.8 201.1 120.8 C 202.5 120.8 203.2 120.2 203.7 119.3 C 203.71 119.32 203.7 119.3 203.7 119.3 L 204.9 119.3 C 204.9 119.3 204.92 119.32 204.9 119.3 C 204.5 120.5 203.4 121.8 201 121.8 C 198.3 121.8 196.9 119.7 196.9 117.6 C 196.9 117.6 196.9 117.6 196.9 117.6 C 196.9 115.1 198.6 113.3 201 113.3 C 204 113.3 205 115.5 205 117.5 C 205 117.6 205 117.7 205 117.8 C 205.04 117.81 198.1 117.8 198.1 117.8 Z M 203.8 116.9 C 203.8 116.9 203.76 116.88 203.8 116.9 C 203.7 115.8 203.1 114.3 201 114.3 C 199.2 114.3 198.3 115.4 198.2 116.9 C 198.17 116.88 198.2 116.9 198.2 116.9 L 203.8 116.9 Z M 218.4 120.2 C 218.37 120.25 218.4 125.1 218.4 125.1 L 217.2 125.1 C 217.2 125.1 217.16 115.53 217.2 115.5 C 217.2 114.9 217.2 114.2 217.1 113.5 C 217.1 113.5 218.3 113.5 218.3 113.5 C 218.4 113.8 218.4 114.3 218.4 115 C 218.8 114.1 219.8 113.3 221.6 113.3 C 223.7 113.3 225.3 115.1 225.3 117.4 C 225.3 117.4 225.3 117.4 225.3 117.4 C 225.3 120 223.5 121.8 221.3 121.8 C 219.6 121.8 218.8 121 218.4 120.2 Z M 224 117.4 C 224 117.4 224 117.4 224 117.4 C 224 115.9 223.2 114.4 221.2 114.4 C 219.2 114.4 218.3 115.8 218.3 117.6 C 218.3 117.6 218.3 117.6 218.3 117.6 C 218.3 119.4 219.3 120.7 221.2 120.7 C 223.1 120.7 224 119.1 224 117.4 Z M 228.4 117.8 C 228.4 117.8 228.38 117.81 228.4 117.8 C 228.5 119.5 229.6 120.8 231.4 120.8 C 232.7 120.8 233.5 120.2 233.9 119.3 C 233.95 119.32 233.9 119.3 233.9 119.3 L 235.2 119.3 C 235.2 119.3 235.16 119.32 235.2 119.3 C 234.7 120.5 233.6 121.8 231.3 121.8 C 228.5 121.8 227.2 119.7 227.2 117.6 C 227.2 117.6 227.2 117.6 227.2 117.6 C 227.2 115.1 228.8 113.3 231.2 113.3 C 234.3 113.3 235.3 115.5 235.3 117.5 C 235.3 117.6 235.3 117.7 235.3 117.8 C 235.28 117.81 228.4 117.8 228.4 117.8 Z M 234 116.9 C 234 116.9 234 116.88 234 116.9 C 233.9 115.8 233.4 114.3 231.2 114.3 C 229.5 114.3 228.6 115.4 228.4 116.9 C 228.41 116.88 228.4 116.9 228.4 116.9 L 234 116.9 Z M 236.5 113.5 L 238.1 113.5 L 238.1 110.9 L 239.3 110.9 L 239.3 113.5 L 241.5 113.5 L 241.5 114.5 L 239.3 114.5 C 239.3 114.5 239.32 119.22 239.3 119.2 C 239.3 120.2 239.6 120.6 240.5 120.6 C 240.7 120.6 241.1 120.6 241.3 120.6 C 241.3 120.6 241.3 121.5 241.3 121.5 C 241 121.6 240.6 121.6 240.2 121.6 C 238.6 121.6 238.1 120.9 238.1 119.3 C 238.11 119.34 238.1 114.5 238.1 114.5 L 236.5 114.5 L 236.5 113.5 Z M 243.5 113.5 L 244.7 113.5 L 244.7 121.6 L 243.5 121.6 L 243.5 113.5 Z M 243.5 109.5 L 244.7 109.5 L 244.7 111.3 L 243.5 111.3 L 243.5 109.5 Z M 246.6 113.5 L 248.3 113.5 L 248.3 110.9 L 249.5 110.9 L 249.5 113.5 L 251.7 113.5 L 251.7 114.5 L 249.5 114.5 C 249.5 114.5 249.5 119.22 249.5 119.2 C 249.5 120.2 249.8 120.6 250.7 120.6 C 250.9 120.6 251.3 120.6 251.5 120.6 C 251.5 120.6 251.5 121.5 251.5 121.5 C 251.1 121.6 250.8 121.6 250.4 121.6 C 248.8 121.6 248.3 120.9 248.3 119.3 C 248.29 119.34 248.3 114.5 248.3 114.5 L 246.6 114.5 L 246.6 113.5 Z M 254.1 117.8 C 254.1 117.8 254.13 117.81 254.1 117.8 C 254.2 119.5 255.4 120.8 257.1 120.8 C 258.5 120.8 259.2 120.2 259.7 119.3 C 259.7 119.32 259.7 119.3 259.7 119.3 L 260.9 119.3 C 260.9 119.3 260.91 119.32 260.9 119.3 C 260.5 120.5 259.4 121.8 257 121.8 C 254.3 121.8 252.9 119.7 252.9 117.6 C 252.9 117.6 252.9 117.6 252.9 117.6 C 252.9 115.1 254.6 113.3 257 113.3 C 260 113.3 261 115.5 261 117.5 C 261 117.6 261 117.7 261 117.8 C 261.03 117.81 254.1 117.8 254.1 117.8 Z M 259.7 116.9 C 259.7 116.9 259.75 116.88 259.7 116.9 C 259.7 115.8 259.1 114.3 257 114.3 C 255.2 114.3 254.3 115.4 254.2 116.9 C 254.16 116.88 254.2 116.9 254.2 116.9 L 259.7 116.9 Z M 273.1 109.5 L 274.4 109.5 C 274.4 109.5 274.35 114.86 274.4 114.9 C 274.8 114.2 275.7 113.3 277.4 113.3 C 279.7 113.3 281.3 115.1 281.3 117.4 C 281.3 117.4 281.3 117.4 281.3 117.4 C 281.3 120.1 279.7 121.8 277.4 121.8 C 275.6 121.8 274.8 121 274.3 120.2 C 274.3 120.7 274.3 121.2 274.3 121.6 C 274.3 121.6 273.1 121.6 273.1 121.6 C 273.1 120.6 273.1 119.7 273.1 118.8 C 273.14 118.77 273.1 109.5 273.1 109.5 Z M 280 117.4 C 280 117.4 280 117.4 280 117.4 C 280 116 279.2 114.4 277.2 114.4 C 275.2 114.4 274.3 115.7 274.3 117.5 C 274.3 117.5 274.3 117.5 274.3 117.5 C 274.3 119.5 275.4 120.7 277.2 120.7 C 279.3 120.7 280 119.1 280 117.4 Z M 291.5 117.5 C 291.5 117.5 291.5 117.5 291.5 117.5 C 291.5 119.7 290.2 121.8 287.3 121.8 C 284.7 121.8 283.1 119.8 283.1 117.5 C 283.1 117.5 283.1 117.5 283.1 117.5 C 283.1 115.2 284.8 113.3 287.4 113.3 C 290.1 113.3 291.5 115.4 291.5 117.5 Z M 284.4 117.5 C 284.4 117.5 284.4 117.5 284.4 117.5 C 284.4 119.2 285.4 120.7 287.3 120.7 C 289.3 120.7 290.3 119.3 290.3 117.6 C 290.3 117.6 290.3 117.6 290.3 117.6 C 290.3 115.8 289.2 114.3 287.3 114.3 C 285.3 114.3 284.4 115.8 284.4 117.5 Z M 301.1 119.2 C 301.1 120 301.1 120.8 301.1 121.6 C 301.1 121.6 299.9 121.6 299.9 121.6 C 299.9 121.3 299.8 120.7 299.8 120.1 C 299.4 121.1 298.7 121.8 296.9 121.8 C 295.2 121.8 293.9 120.9 293.9 118.5 C 293.87 118.53 293.9 113.5 293.9 113.5 L 295.1 113.5 C 295.1 113.5 295.08 118.29 295.1 118.3 C 295.1 119.6 295.6 120.7 297.1 120.7 C 299 120.7 299.8 119.6 299.8 117.1 C 299.84 117.13 299.8 113.5 299.8 113.5 L 301.1 113.5 C 301.1 113.5 301.05 119.21 301.1 119.2 Z M 303 113.5 L 304.6 113.5 L 304.6 110.9 L 305.9 110.9 L 305.9 113.5 L 308 113.5 L 308 114.5 L 305.9 114.5 C 305.9 114.5 305.85 119.22 305.9 119.2 C 305.9 120.2 306.1 120.6 307 120.6 C 307.3 120.6 307.6 120.6 307.8 120.6 C 307.8 120.6 307.8 121.5 307.8 121.5 C 307.5 121.6 307.1 121.6 306.7 121.6 C 305.1 121.6 304.6 120.9 304.6 119.3 C 304.64 119.34 304.6 114.5 304.6 114.5 L 303 114.5 L 303 113.5 Z M 310 113.5 L 311.3 113.5 L 311.3 121.6 L 310 121.6 L 310 113.5 Z M 310 109.5 L 311.3 109.5 L 311.3 111.3 L 310 111.3 L 310 109.5 Z M 320.6 120.2 C 320.1 121 319.3 121.8 317.5 121.8 C 315.3 121.8 313.6 120 313.6 117.6 C 313.6 117.6 313.6 117.6 313.6 117.6 C 313.6 114.9 315.7 113.3 317.7 113.3 C 319.7 113.3 320.4 114.3 320.6 114.8 C 320.6 114.2 320.6 113.8 320.6 113.5 C 320.6 113.5 321.8 113.5 321.8 113.5 C 321.8 114.1 321.8 115 321.8 115.8 C 321.82 115.79 321.8 125.1 321.8 125.1 L 320.6 125.1 C 320.6 125.1 320.61 120.21 320.6 120.2 Z M 314.9 117.6 C 314.9 117.6 314.9 117.6 314.9 117.6 C 314.9 119.3 316 120.7 317.7 120.7 C 319.6 120.7 320.6 119.6 320.6 117.5 C 320.6 117.5 320.6 117.5 320.6 117.5 C 320.6 115.6 319.8 114.4 317.8 114.4 C 315.9 114.4 314.9 115.8 314.9 117.6 Z M 331.9 119.2 C 331.9 120 331.9 120.8 331.9 121.6 C 331.9 121.6 330.7 121.6 330.7 121.6 C 330.7 121.3 330.7 120.7 330.7 120.1 C 330.3 121.1 329.5 121.8 327.7 121.8 C 326 121.8 324.7 120.9 324.7 118.5 C 324.71 118.53 324.7 113.5 324.7 113.5 L 325.9 113.5 C 325.9 113.5 325.92 118.29 325.9 118.3 C 325.9 119.6 326.4 120.7 328 120.7 C 329.9 120.7 330.7 119.6 330.7 117.1 C 330.68 117.13 330.7 113.5 330.7 113.5 L 331.9 113.5 C 331.9 113.5 331.89 119.21 331.9 119.2 Z M 335.5 117.8 C 335.5 117.8 335.48 117.81 335.5 117.8 C 335.6 119.5 336.7 120.8 338.5 120.8 C 339.8 120.8 340.6 120.2 341.1 119.3 C 341.05 119.32 341.1 119.3 341.1 119.3 L 342.3 119.3 C 342.3 119.3 342.26 119.32 342.3 119.3 C 341.8 120.5 340.7 121.8 338.4 121.8 C 335.6 121.8 334.3 119.7 334.3 117.6 C 334.3 117.6 334.3 117.6 334.3 117.6 C 334.3 115.1 335.9 113.3 338.3 113.3 C 341.4 113.3 342.4 115.5 342.4 117.5 C 342.4 117.6 342.4 117.7 342.4 117.8 C 342.38 117.81 335.5 117.8 335.5 117.8 Z M 341.1 116.9 C 341.1 116.9 341.1 116.88 341.1 116.9 C 341 115.8 340.5 114.3 338.3 114.3 C 336.6 114.3 335.7 115.4 335.5 116.9 C 335.51 116.88 335.5 116.9 335.5 116.9 L 341.1 116.9 Z M 362 109.5 C 362 109.5 362.01 119.2 362 119.2 C 362 120 362 120.8 362 121.6 C 362 121.6 360.9 121.6 360.9 121.6 C 360.8 121.2 360.8 120.7 360.8 120.2 C 360.4 121 359.7 121.8 357.8 121.8 C 355.4 121.8 353.9 120 353.9 117.6 C 353.9 117.6 353.9 117.6 353.9 117.6 C 353.9 115 355.8 113.3 357.9 113.3 C 359.9 113.3 360.6 114.2 360.8 114.6 C 360.8 114.65 360.8 109.5 360.8 109.5 L 362 109.5 Z M 355.1 117.6 C 355.1 117.6 355.1 117.6 355.1 117.6 C 355.1 119.1 356.1 120.7 358 120.7 C 360 120.7 360.9 119.4 360.9 117.5 C 360.9 117.5 360.9 117.5 360.9 117.5 C 360.9 115.6 360.2 114.3 358 114.3 C 356.1 114.3 355.1 116 355.1 117.6 Z M 372.1 119.2 C 372.1 120 372.1 120.8 372.1 121.6 C 372.1 121.6 370.9 121.6 370.9 121.6 C 370.9 121.3 370.9 120.7 370.9 120.1 C 370.5 121.1 369.7 121.8 367.9 121.8 C 366.2 121.8 364.9 120.9 364.9 118.5 C 364.9 118.53 364.9 113.5 364.9 113.5 L 366.1 113.5 C 366.1 113.5 366.11 118.29 366.1 118.3 C 366.1 119.6 366.6 120.7 368.2 120.7 C 370.1 120.7 370.9 119.6 370.9 117.1 C 370.87 117.13 370.9 113.5 370.9 113.5 L 372.1 113.5 C 372.1 113.5 372.08 119.21 372.1 119.2 Z M 391.2 120.2 C 390.8 121 389.9 121.8 388.1 121.8 C 385.9 121.8 384.2 120 384.2 117.6 C 384.2 117.6 384.2 117.6 384.2 117.6 C 384.2 114.9 386.3 113.3 388.3 113.3 C 390.3 113.3 391 114.3 391.2 114.8 C 391.2 114.2 391.2 113.8 391.3 113.5 C 391.3 113.5 392.4 113.5 392.4 113.5 C 392.4 114.1 392.4 115 392.4 115.8 C 392.42 115.79 392.4 125.1 392.4 125.1 L 391.2 125.1 C 391.2 125.1 391.21 120.21 391.2 120.2 Z M 385.5 117.6 C 385.5 117.6 385.5 117.6 385.5 117.6 C 385.5 119.3 386.6 120.7 388.3 120.7 C 390.2 120.7 391.2 119.6 391.2 117.5 C 391.2 117.5 391.2 117.5 391.2 117.5 C 391.2 115.6 390.4 114.4 388.4 114.4 C 386.5 114.4 385.5 115.8 385.5 117.6 Z M 402.5 119.2 C 402.5 120 402.5 120.8 402.5 121.6 C 402.5 121.6 401.3 121.6 401.3 121.6 C 401.3 121.3 401.3 120.7 401.3 120.1 C 400.9 121.1 400.1 121.8 398.3 121.8 C 396.6 121.8 395.3 120.9 395.3 118.5 C 395.31 118.53 395.3 113.5 395.3 113.5 L 396.5 113.5 C 396.5 113.5 396.52 118.29 396.5 118.3 C 396.5 119.6 397 120.7 398.6 120.7 C 400.5 120.7 401.3 119.6 401.3 117.1 C 401.28 117.13 401.3 113.5 401.3 113.5 L 402.5 113.5 C 402.5 113.5 402.49 119.21 402.5 119.2 Z M 412.3 119.6 C 412.3 120.4 412.3 121.4 412.3 121.6 C 412.3 121.6 411.2 121.6 411.2 121.6 C 411.1 121.2 411.1 120.6 411.1 120.3 C 410.7 121.2 409.8 121.8 408 121.8 C 405.7 121.8 404.9 120.4 404.9 119.2 C 404.9 119.2 404.9 119.2 404.9 119.2 C 404.9 117.2 406.8 116.6 409 116.6 C 410.1 116.6 410.8 116.6 411.1 116.6 C 411.1 116.6 411.1 116.1 411.1 116.1 C 411.1 115.2 410.7 114.3 408.8 114.3 C 407.1 114.3 406.7 115 406.6 115.8 C 406.55 115.84 406.6 115.8 406.6 115.8 L 405.3 115.8 C 405.3 115.8 405.34 115.84 405.3 115.8 C 405.4 114.8 406.2 113.3 408.8 113.3 C 411.6 113.3 412.3 114.7 412.3 116 C 412.3 116 412.3 119.6 412.3 119.6 Z M 411.1 117.5 C 410.8 117.5 410.3 117.5 409.1 117.5 C 407.1 117.5 406.1 117.9 406.1 119.1 C 406.1 119.1 406.1 119.1 406.1 119.1 C 406.1 120 406.7 120.8 408.2 120.8 C 410.5 120.8 411.1 119.3 411.1 117.9 C 411.1 117.9 411.1 117.5 411.1 117.5 Z M 415.2 115.7 C 415.2 115 415.2 114.2 415.2 113.5 C 415.2 113.5 416.3 113.5 416.3 113.5 C 416.3 113.7 416.4 114.6 416.4 115.4 C 416.9 114.1 418.1 113.3 419.7 113.3 C 419.7 113.3 419.7 114.5 419.7 114.5 C 417.8 114.5 416.4 115.7 416.4 118.1 C 416.38 118.08 416.4 121.6 416.4 121.6 L 415.2 121.6 C 415.2 121.6 415.17 115.7 415.2 115.7 Z M 421.1 113.5 L 422.7 113.5 L 422.7 110.9 L 423.9 110.9 L 423.9 113.5 L 426.1 113.5 L 426.1 114.5 L 423.9 114.5 C 423.9 114.5 423.94 119.22 423.9 119.2 C 423.9 120.2 424.2 120.6 425.1 120.6 C 425.3 120.6 425.7 120.6 425.9 120.6 C 425.9 120.6 425.9 121.5 425.9 121.5 C 425.6 121.6 425.2 121.6 424.8 121.6 C 423.2 121.6 422.7 120.9 422.7 119.3 C 422.73 119.34 422.7 114.5 422.7 114.5 L 421.1 114.5 L 421.1 113.5 Z M 428.1 113.5 L 429.3 113.5 L 429.3 121.6 L 428.1 121.6 L 428.1 113.5 Z M 428.1 109.5 L 429.3 109.5 L 429.3 111.3 L 428.1 111.3 L 428.1 109.5 Z M 433 117.8 C 433 117.8 432.95 117.81 433 117.8 C 433 119.5 434.2 120.8 435.9 120.8 C 437.3 120.8 438 120.2 438.5 119.3 C 438.52 119.32 438.5 119.3 438.5 119.3 L 439.7 119.3 C 439.7 119.3 439.73 119.32 439.7 119.3 C 439.3 120.5 438.2 121.8 435.8 121.8 C 433.1 121.8 431.7 119.7 431.7 117.6 C 431.7 117.6 431.7 117.6 431.7 117.6 C 431.7 115.1 433.4 113.3 435.8 113.3 C 438.8 113.3 439.9 115.5 439.9 117.5 C 439.9 117.6 439.9 117.7 439.9 117.8 C 439.85 117.81 433 117.8 433 117.8 Z M 438.6 116.9 C 438.6 116.9 438.57 116.88 438.6 116.9 C 438.5 115.8 437.9 114.3 435.8 114.3 C 434 114.3 433.1 115.4 433 116.9 C 432.98 116.88 433 116.9 433 116.9 L 438.6 116.9 Z M 442.2 115.7 C 442.2 115 442.2 114.2 442.2 113.5 C 442.2 113.5 443.4 113.5 443.4 113.5 C 443.4 113.7 443.4 114.6 443.4 115.4 C 444 114.1 445.2 113.3 446.7 113.3 C 446.7 113.3 446.7 114.5 446.7 114.5 C 444.9 114.5 443.4 115.7 443.4 118.1 C 443.42 118.08 443.4 121.6 443.4 121.6 L 442.2 121.6 C 442.2 121.6 442.21 115.7 442.2 115.7 Z M 446.4 123.8 C 447.3 122 447.6 120.5 447.7 119.1 C 447.7 119.1 449 119.1 449 119.1 C 448.9 120.4 448.3 122.5 447.5 123.8 C 447.5 123.8 446.4 123.8 446.4 123.8 Z " stroke="none" fill="#141414"/>  </g></svg>