<?xml version="1.0" standalone="no"?><!DOCTYPE svg PUBLIC "-//W3C//DTD SVG 1.1//EN" "http://www.w3.org/Graphics/SVG/1.1/DTD/svg11.dtd"><svg xmlns="http://www.w3.org/2000/svg" version="1.1" width="450px" height="286.2px" viewBox="0 -1 450 286.2" style="top:-1px">  <desc>Des stats apparaissent en graphisme dans la foul e de la miss, donnant la distance parcourue et les calories br l es,...</desc>  <defs/>  <g id="Polygon3663">    <path d="M 1.4 158.1 L 2.6 158.1 C 2.6 158.1 2.56 163.5 2.6 163.5 C 3 162.8 3.9 161.9 5.6 161.9 C 7.9 161.9 9.5 163.7 9.5 166 C 9.5 166 9.5 166 9.5 166 C 9.5 168.7 7.9 170.4 5.6 170.4 C 3.8 170.4 3 169.6 2.5 168.9 C 2.5 169.3 2.5 169.9 2.5 170.2 C 2.5 170.2 1.3 170.2 1.3 170.2 C 1.4 169.2 1.4 168.3 1.4 167.4 C 1.35 167.41 1.4 158.1 1.4 158.1 Z M 8.2 166.1 C 8.2 166.1 8.2 166.1 8.2 166.1 C 8.2 164.6 7.4 163 5.4 163 C 3.5 163 2.5 164.4 2.5 166.2 C 2.5 166.2 2.5 166.2 2.5 166.2 C 2.5 168.2 3.7 169.4 5.4 169.4 C 7.5 169.4 8.2 167.8 8.2 166.1 Z M 11.9 164.3 C 11.9 163.6 11.9 162.9 11.9 162.2 C 11.9 162.2 13.1 162.2 13.1 162.2 C 13.1 162.4 13.1 163.2 13.1 164 C 13.6 162.7 14.9 161.9 16.4 161.9 C 16.4 161.9 16.4 163.1 16.4 163.1 C 14.5 163.1 13.1 164.3 13.1 166.7 C 13.1 166.72 13.1 170.2 13.1 170.2 L 11.9 170.2 C 11.9 170.2 11.9 164.34 11.9 164.3 Z M 25.5 167.9 C 25.5 168.6 25.5 169.4 25.6 170.2 C 25.6 170.2 24.4 170.2 24.4 170.2 C 24.4 170 24.3 169.3 24.3 168.7 C 23.9 169.7 23.2 170.4 21.4 170.4 C 19.7 170.4 18.4 169.5 18.4 167.2 C 18.36 167.17 18.4 162.2 18.4 162.2 L 19.6 162.2 C 19.6 162.2 19.57 166.93 19.6 166.9 C 19.6 168.2 20.1 169.3 21.6 169.3 C 23.5 169.3 24.3 168.3 24.3 165.8 C 24.33 165.77 24.3 162.2 24.3 162.2 L 25.5 162.2 C 25.5 162.2 25.54 167.85 25.5 167.9 Z M 22.6 158 L 24.6 160.6 L 23.5 160.6 L 21.9 158.7 L 20.4 160.6 L 19.2 160.6 L 21.3 158 L 22.6 158 Z M 28.4 170.2 L 28.4 158.1 L 29.7 158.1 L 29.7 170.2 L 28.4 170.2 Z M 33.3 166.4 C 33.3 166.4 33.27 166.45 33.3 166.4 C 33.4 168.2 34.5 169.4 36.3 169.4 C 37.6 169.4 38.4 168.8 38.8 168 C 38.84 167.96 38.8 168 38.8 168 L 40.1 168 C 40.1 168 40.05 167.96 40.1 168 C 39.6 169.1 38.5 170.4 36.2 170.4 C 33.4 170.4 32.1 168.3 32.1 166.2 C 32.1 166.2 32.1 166.2 32.1 166.2 C 32.1 163.7 33.7 161.9 36.1 161.9 C 39.2 161.9 40.2 164.2 40.2 166.1 C 40.2 166.2 40.2 166.3 40.2 166.4 C 40.17 166.45 33.3 166.4 33.3 166.4 Z M 38.9 165.5 C 38.9 165.5 38.89 165.52 38.9 165.5 C 38.8 164.5 38.3 162.9 36.1 162.9 C 34.4 162.9 33.5 164 33.3 165.5 C 33.3 165.52 33.3 165.5 33.3 165.5 L 38.9 165.5 Z M 38.8 158 L 36.2 160.6 L 35 160.6 L 37.3 158 L 38.8 158 Z M 43.2 166.4 C 43.2 166.4 43.23 166.45 43.2 166.4 C 43.3 168.2 44.5 169.4 46.2 169.4 C 47.6 169.4 48.3 168.8 48.8 168 C 48.8 167.96 48.8 168 48.8 168 L 50 168 C 50 168 50.01 167.96 50 168 C 49.6 169.1 48.5 170.4 46.1 170.4 C 43.4 170.4 42 168.3 42 166.2 C 42 166.2 42 166.2 42 166.2 C 42 163.7 43.7 161.9 46.1 161.9 C 49.1 161.9 50.1 164.2 50.1 166.1 C 50.1 166.2 50.1 166.3 50.1 166.4 C 50.13 166.45 43.2 166.4 43.2 166.4 Z M 48.9 165.5 C 48.9 165.5 48.85 165.52 48.9 165.5 C 48.8 164.5 48.2 162.9 46.1 162.9 C 44.3 162.9 43.4 164 43.3 165.5 C 43.26 165.52 43.3 165.5 43.3 165.5 L 48.9 165.5 Z M 53.1 167.8 C 53.1 167.8 53.06 167.77 53.1 167.8 C 53.4 168.8 54.3 169.4 55.8 169.4 C 57.5 169.4 58.1 168.8 58.1 168 C 58.1 167.3 57.7 166.8 55.5 166.5 C 52.8 166.2 52.2 165.2 52.2 164.2 C 52.2 163.2 53 161.9 55.5 161.9 C 58.3 161.9 59 163.4 59.1 164.3 C 59.1 164.3 59.1 164.3 59.1 164.3 L 57.9 164.3 C 57.9 164.3 57.87 164.3 57.9 164.3 C 57.7 163.8 57.4 162.9 55.4 162.9 C 53.8 162.9 53.4 163.6 53.4 164.1 C 53.4 164.8 53.9 165.2 55.8 165.5 C 58.8 165.8 59.4 166.7 59.4 167.9 C 59.4 169.4 58.3 170.4 55.8 170.4 C 53.4 170.4 52.1 169.4 51.8 167.8 C 51.83 167.77 51.8 167.8 51.8 167.8 L 53.1 167.8 Z M 60.7 172.5 C 61.6 170.6 62 169.2 62.1 167.8 C 62.1 167.8 63.3 167.8 63.3 167.8 C 63.2 169 62.7 171.1 61.8 172.5 C 61.8 172.5 60.7 172.5 60.7 172.5 Z M 81.7 167.7 C 81.7 167.7 81.66 167.74 81.7 167.7 C 81.2 169.2 80 170.4 77.8 170.4 C 75 170.4 73.6 168.5 73.6 166.2 C 73.6 166.2 73.6 166.2 73.6 166.2 C 73.6 163.9 75.2 161.9 77.8 161.9 C 80.4 161.9 81.4 163.5 81.6 164.7 C 81.65 164.67 81.6 164.7 81.6 164.7 L 80.4 164.7 C 80.4 164.7 80.44 164.67 80.4 164.7 C 80.1 163.8 79.4 163 77.8 163 C 76 163 74.9 164.3 74.9 166.2 C 74.9 166.2 74.9 166.2 74.9 166.2 C 74.9 168 75.9 169.4 77.8 169.4 C 79.2 169.4 80 168.7 80.4 167.7 C 80.45 167.74 80.4 167.7 80.4 167.7 L 81.7 167.7 Z M 91.8 166.2 C 91.8 166.2 91.8 166.2 91.8 166.2 C 91.8 168.3 90.4 170.4 87.6 170.4 C 84.9 170.4 83.4 168.4 83.4 166.2 C 83.4 166.2 83.4 166.2 83.4 166.2 C 83.4 163.9 85 161.9 87.6 161.9 C 90.3 161.9 91.8 164 91.8 166.2 Z M 84.6 166.2 C 84.6 166.2 84.6 166.2 84.6 166.2 C 84.6 167.8 85.7 169.4 87.6 169.4 C 89.6 169.4 90.5 167.9 90.5 166.2 C 90.5 166.2 90.5 166.2 90.5 166.2 C 90.5 164.5 89.5 163 87.6 163 C 85.6 163 84.6 164.5 84.6 166.2 Z M 94.2 164.2 C 94.2 163.5 94.2 162.8 94.1 162.2 C 94.1 162.2 95.3 162.2 95.3 162.2 C 95.4 162.5 95.4 163 95.4 163.4 C 95.8 162.7 96.5 161.9 98 161.9 C 99.3 161.9 100.1 162.6 100.5 163.5 C 100.9 162.8 101.7 161.9 103.3 161.9 C 104.8 161.9 106.1 162.8 106.1 165.2 C 106.11 165.19 106.1 170.2 106.1 170.2 L 104.9 170.2 C 104.9 170.2 104.91 165.25 104.9 165.2 C 104.9 164.2 104.6 163 103 163 C 101.7 163 100.7 163.9 100.7 165.8 C 100.74 165.8 100.7 170.2 100.7 170.2 L 99.5 170.2 C 99.5 170.2 99.54 165.16 99.5 165.2 C 99.5 164.2 99.2 163 97.7 163 C 96 163 95.4 164.3 95.4 165.9 C 95.36 165.94 95.4 170.2 95.4 170.2 L 94.2 170.2 C 94.2 170.2 94.16 164.23 94.2 164.2 Z M 109 164.2 C 109 163.5 109 162.8 109 162.2 C 109 162.2 110.2 162.2 110.2 162.2 C 110.2 162.5 110.2 163 110.2 163.4 C 110.6 162.7 111.4 161.9 112.9 161.9 C 114.2 161.9 115 162.6 115.3 163.5 C 115.8 162.8 116.5 161.9 118.1 161.9 C 119.7 161.9 121 162.8 121 165.2 C 120.96 165.19 121 170.2 121 170.2 L 119.8 170.2 C 119.8 170.2 119.76 165.25 119.8 165.2 C 119.8 164.2 119.4 163 117.9 163 C 116.5 163 115.6 163.9 115.6 165.8 C 115.59 165.8 115.6 170.2 115.6 170.2 L 114.4 170.2 C 114.4 170.2 114.39 165.16 114.4 165.2 C 114.4 164.2 114 163 112.5 163 C 110.8 163 110.2 164.3 110.2 165.9 C 110.21 165.94 110.2 170.2 110.2 170.2 L 109 170.2 C 109 170.2 109.01 164.23 109 164.2 Z M 124.6 166.4 C 124.6 166.4 124.57 166.45 124.6 166.4 C 124.7 168.2 125.8 169.4 127.6 169.4 C 128.9 169.4 129.7 168.8 130.1 168 C 130.14 167.96 130.1 168 130.1 168 L 131.3 168 C 131.3 168 131.35 167.96 131.3 168 C 130.9 169.1 129.8 170.4 127.5 170.4 C 124.7 170.4 123.3 168.3 123.3 166.2 C 123.3 166.2 123.3 166.2 123.3 166.2 C 123.3 163.7 125 161.9 127.4 161.9 C 130.4 161.9 131.5 164.2 131.5 166.1 C 131.5 166.2 131.5 166.3 131.5 166.4 C 131.47 166.45 124.6 166.4 124.6 166.4 Z M 130.2 165.5 C 130.2 165.5 130.19 165.52 130.2 165.5 C 130.1 164.5 129.6 162.9 127.4 162.9 C 125.7 162.9 124.8 164 124.6 165.5 C 124.6 165.52 124.6 165.5 124.6 165.5 L 130.2 165.5 Z M 142.5 167.8 C 142.5 167.8 142.51 167.77 142.5 167.8 C 142.8 168.8 143.7 169.4 145.3 169.4 C 147 169.4 147.6 168.8 147.6 168 C 147.6 167.3 147.2 166.8 145 166.5 C 142.2 166.2 141.7 165.2 141.7 164.2 C 141.7 163.2 142.5 161.9 145 161.9 C 147.8 161.9 148.5 163.4 148.6 164.3 C 148.55 164.3 148.6 164.3 148.6 164.3 L 147.3 164.3 C 147.3 164.3 147.33 164.3 147.3 164.3 C 147.2 163.8 146.9 162.9 144.9 162.9 C 143.3 162.9 142.9 163.6 142.9 164.1 C 142.9 164.8 143.3 165.2 145.3 165.5 C 148.2 165.8 148.8 166.7 148.8 167.9 C 148.8 169.4 147.7 170.4 145.2 170.4 C 142.8 170.4 141.6 169.4 141.3 167.8 C 141.28 167.77 141.3 167.8 141.3 167.8 L 142.5 167.8 Z M 158.3 167.9 C 158.3 168.6 158.3 169.4 158.3 170.2 C 158.3 170.2 157.2 170.2 157.2 170.2 C 157.1 170 157.1 169.3 157.1 168.7 C 156.7 169.7 156 170.4 154.2 170.4 C 152.5 170.4 151.1 169.5 151.1 167.2 C 151.14 167.17 151.1 162.2 151.1 162.2 L 152.3 162.2 C 152.3 162.2 152.35 166.93 152.3 166.9 C 152.3 168.2 152.9 169.3 154.4 169.3 C 156.3 169.3 157.1 168.3 157.1 165.8 C 157.11 165.77 157.1 162.2 157.1 162.2 L 158.3 162.2 C 158.3 162.2 158.32 167.85 158.3 167.9 Z M 161.2 164.3 C 161.2 163.6 161.2 162.9 161.2 162.2 C 161.2 162.2 162.4 162.2 162.4 162.2 C 162.4 162.4 162.4 163.2 162.4 164 C 163 162.7 164.2 161.9 165.7 161.9 C 165.7 161.9 165.7 163.1 165.7 163.1 C 163.9 163.1 162.4 164.3 162.4 166.7 C 162.45 166.72 162.4 170.2 162.4 170.2 L 161.2 170.2 C 161.2 170.2 161.24 164.34 161.2 164.3 Z M 183.1 167.9 C 183.1 168.6 183.1 169.4 183.2 170.2 C 183.2 170.2 182 170.2 182 170.2 C 182 170 181.9 169.3 181.9 168.7 C 181.5 169.7 180.8 170.4 179 170.4 C 177.3 170.4 176 169.5 176 167.2 C 175.97 167.17 176 162.2 176 162.2 L 177.2 162.2 C 177.2 162.2 177.17 166.93 177.2 166.9 C 177.2 168.2 177.7 169.3 179.2 169.3 C 181.1 169.3 181.9 168.3 181.9 165.8 C 181.94 165.77 181.9 162.2 181.9 162.2 L 183.1 162.2 C 183.1 162.2 183.15 167.85 183.1 167.9 Z M 186.1 164.2 C 186.1 163.5 186.1 162.8 186 162.2 C 186 162.2 187.2 162.2 187.2 162.2 C 187.2 162.4 187.3 163.2 187.3 163.8 C 187.6 162.9 188.5 161.9 190.3 161.9 C 192.1 161.9 193.4 163.1 193.4 165.3 C 193.36 165.32 193.4 170.2 193.4 170.2 L 192.1 170.2 C 192.1 170.2 192.15 165.55 192.1 165.6 C 192.1 164.1 191.6 163 190 163 C 188.2 163 187.3 164.4 187.3 166.4 C 187.27 166.39 187.3 170.2 187.3 170.2 L 186.1 170.2 C 186.1 170.2 186.06 164.18 186.1 164.2 Z M 196.9 166.4 C 196.9 166.4 196.92 166.45 196.9 166.4 C 197 168.2 198.1 169.4 199.9 169.4 C 201.2 169.4 202 168.8 202.5 168 C 202.49 167.96 202.5 168 202.5 168 L 203.7 168 C 203.7 168 203.7 167.96 203.7 168 C 203.3 169.1 202.2 170.4 199.8 170.4 C 197 170.4 195.7 168.3 195.7 166.2 C 195.7 166.2 195.7 166.2 195.7 166.2 C 195.7 163.7 197.3 161.9 199.8 161.9 C 202.8 161.9 203.8 164.2 203.8 166.1 C 203.8 166.2 203.8 166.3 203.8 166.4 C 203.82 166.45 196.9 166.4 196.9 166.4 Z M 202.5 165.5 C 202.5 165.5 202.54 165.52 202.5 165.5 C 202.5 164.5 201.9 162.9 199.8 162.9 C 198 162.9 197.1 164 196.9 165.5 C 196.95 165.52 196.9 165.5 196.9 165.5 L 202.5 165.5 Z M 221.2 168.3 C 221.2 169 221.3 170 221.3 170.2 C 221.3 170.2 220.1 170.2 220.1 170.2 C 220.1 169.9 220 169.2 220 168.9 C 219.6 169.8 218.7 170.4 216.9 170.4 C 214.6 170.4 213.8 169 213.8 167.9 C 213.8 167.9 213.8 167.9 213.8 167.9 C 213.8 165.8 215.7 165.2 218 165.2 C 219 165.2 219.7 165.2 220 165.2 C 220 165.2 220 164.8 220 164.8 C 220 163.8 219.6 162.9 217.7 162.9 C 216.1 162.9 215.7 163.7 215.5 164.5 C 215.49 164.48 215.5 164.5 215.5 164.5 L 214.3 164.5 C 214.3 164.5 214.29 164.48 214.3 164.5 C 214.4 163.4 215.1 161.9 217.7 161.9 C 220.5 161.9 221.2 163.3 221.2 164.6 C 221.2 164.6 221.2 168.3 221.2 168.3 Z M 220 166.2 C 219.7 166.2 219.2 166.2 218 166.2 C 216 166.2 215 166.6 215 167.8 C 215 167.8 215 167.8 215 167.8 C 215 168.7 215.7 169.4 217.1 169.4 C 219.5 169.4 220 168 220 166.6 C 220 166.6 220 166.2 220 166.2 Z M 225.3 168.9 C 225.32 168.89 225.3 173.8 225.3 173.8 L 224.1 173.8 C 224.1 173.8 224.11 164.17 224.1 164.2 C 224.1 163.5 224.1 162.8 224.1 162.2 C 224.1 162.2 225.3 162.2 225.3 162.2 C 225.3 162.4 225.3 162.9 225.3 163.6 C 225.8 162.7 226.8 161.9 228.5 161.9 C 230.7 161.9 232.2 163.7 232.2 166 C 232.2 166 232.2 166 232.2 166 C 232.2 168.6 230.5 170.4 228.3 170.4 C 226.5 170.4 225.8 169.6 225.3 168.9 Z M 231 166.1 C 231 166.1 231 166.1 231 166.1 C 231 164.6 230.1 163 228.2 163 C 226.2 163 225.3 164.4 225.3 166.2 C 225.3 166.2 225.3 166.2 225.3 166.2 C 225.3 168 226.2 169.4 228.1 169.4 C 230 169.4 231 167.8 231 166.1 Z M 235.8 168.9 C 235.83 168.89 235.8 173.8 235.8 173.8 L 234.6 173.8 C 234.6 173.8 234.62 164.17 234.6 164.2 C 234.6 163.5 234.6 162.8 234.6 162.2 C 234.6 162.2 235.8 162.2 235.8 162.2 C 235.8 162.4 235.8 162.9 235.8 163.6 C 236.3 162.7 237.3 161.9 239 161.9 C 241.2 161.9 242.8 163.7 242.8 166 C 242.8 166 242.8 166 242.8 166 C 242.8 168.6 241 170.4 238.8 170.4 C 237 170.4 236.3 169.6 235.8 168.9 Z M 241.5 166.1 C 241.5 166.1 241.5 166.1 241.5 166.1 C 241.5 164.6 240.6 163 238.7 163 C 236.7 163 235.8 164.4 235.8 166.2 C 235.8 166.2 235.8 166.2 235.8 166.2 C 235.8 168 236.7 169.4 238.6 169.4 C 240.6 169.4 241.5 167.8 241.5 166.1 Z M 245.1 170.2 L 245.1 158.1 L 246.4 158.1 L 246.4 170.2 L 245.1 170.2 Z M 249.3 162.2 L 250.5 162.2 L 250.5 170.2 L 249.3 170.2 L 249.3 162.2 Z M 249.3 158.1 L 250.5 158.1 L 250.5 159.9 L 249.3 159.9 L 249.3 158.1 Z M 269.3 158.1 C 269.3 158.1 269.27 167.84 269.3 167.8 C 269.3 168.6 269.3 169.4 269.3 170.2 C 269.3 170.2 268.1 170.2 268.1 170.2 C 268.1 169.8 268.1 169.3 268.1 168.9 C 267.7 169.6 266.9 170.4 265 170.4 C 262.7 170.4 261.1 168.7 261.1 166.2 C 261.1 166.2 261.1 166.2 261.1 166.2 C 261.1 163.6 263.1 161.9 265.2 161.9 C 267.2 161.9 267.8 162.9 268.1 163.3 C 268.06 163.29 268.1 158.1 268.1 158.1 L 269.3 158.1 Z M 262.4 166.2 C 262.4 166.2 262.4 166.2 262.4 166.2 C 262.4 167.8 263.3 169.4 265.2 169.4 C 267.3 169.4 268.1 168 268.1 166.1 C 268.1 166.1 268.1 166.1 268.1 166.1 C 268.1 164.3 267.5 163 265.3 163 C 263.3 163 262.4 164.6 262.4 166.2 Z M 272.9 166.4 C 272.9 166.4 272.87 166.45 272.9 166.4 C 273 168.2 274.1 169.4 275.9 169.4 C 277.2 169.4 278 168.8 278.4 168 C 278.44 167.96 278.4 168 278.4 168 L 279.6 168 C 279.6 168 279.65 167.96 279.6 168 C 279.2 169.1 278.1 170.4 275.8 170.4 C 273 170.4 271.6 168.3 271.6 166.2 C 271.6 166.2 271.6 166.2 271.6 166.2 C 271.6 163.7 273.3 161.9 275.7 161.9 C 278.7 161.9 279.8 164.2 279.8 166.1 C 279.8 166.2 279.8 166.3 279.8 166.4 C 279.77 166.45 272.9 166.4 272.9 166.4 Z M 278.5 165.5 C 278.5 165.5 278.49 165.52 278.5 165.5 C 278.4 164.5 277.9 162.9 275.7 162.9 C 274 162.9 273.1 164 272.9 165.5 C 272.9 165.52 272.9 165.5 272.9 165.5 L 278.5 165.5 Z M 297.8 167.7 C 297.8 167.7 297.76 167.74 297.8 167.7 C 297.3 169.2 296.1 170.4 293.9 170.4 C 291.1 170.4 289.7 168.5 289.7 166.2 C 289.7 166.2 289.7 166.2 289.7 166.2 C 289.7 163.9 291.3 161.9 293.9 161.9 C 296.5 161.9 297.5 163.5 297.7 164.7 C 297.75 164.67 297.7 164.7 297.7 164.7 L 296.5 164.7 C 296.5 164.7 296.54 164.67 296.5 164.7 C 296.2 163.8 295.5 163 293.9 163 C 292.1 163 291 164.3 291 166.2 C 291 166.2 291 166.2 291 166.2 C 291 168 292.1 169.4 293.9 169.4 C 295.3 169.4 296.1 168.7 296.6 167.7 C 296.55 167.74 296.6 167.7 296.6 167.7 L 297.8 167.7 Z M 307.9 166.2 C 307.9 166.2 307.9 166.2 307.9 166.2 C 307.9 168.3 306.5 170.4 303.7 170.4 C 301 170.4 299.5 168.4 299.5 166.2 C 299.5 166.2 299.5 166.2 299.5 166.2 C 299.5 163.9 301.1 161.9 303.7 161.9 C 306.4 161.9 307.9 164 307.9 166.2 Z M 300.7 166.2 C 300.7 166.2 300.7 166.2 300.7 166.2 C 300.7 167.8 301.8 169.4 303.7 169.4 C 305.7 169.4 306.6 167.9 306.6 166.2 C 306.6 166.2 306.6 166.2 306.6 166.2 C 306.6 164.5 305.6 163 303.7 163 C 301.7 163 300.7 164.5 300.7 166.2 Z M 317.4 167.9 C 317.4 168.6 317.4 169.4 317.4 170.2 C 317.4 170.2 316.3 170.2 316.3 170.2 C 316.2 170 316.2 169.3 316.2 168.7 C 315.8 169.7 315 170.4 313.3 170.4 C 311.6 170.4 310.2 169.5 310.2 167.2 C 310.23 167.17 310.2 162.2 310.2 162.2 L 311.4 162.2 C 311.4 162.2 311.44 166.93 311.4 166.9 C 311.4 168.2 311.9 169.3 313.5 169.3 C 315.4 169.3 316.2 168.3 316.2 165.8 C 316.2 165.77 316.2 162.2 316.2 162.2 L 317.4 162.2 C 317.4 162.2 317.41 167.85 317.4 167.9 Z M 320.3 164.3 C 320.3 163.6 320.3 162.9 320.3 162.2 C 320.3 162.2 321.5 162.2 321.5 162.2 C 321.5 162.4 321.5 163.2 321.5 164 C 322.1 162.7 323.3 161.9 324.8 161.9 C 324.8 161.9 324.8 163.1 324.8 163.1 C 323 163.1 321.5 164.3 321.5 166.7 C 321.54 166.72 321.5 170.2 321.5 170.2 L 320.3 170.2 C 320.3 170.2 320.33 164.34 320.3 164.3 Z M 327.3 167.8 C 327.3 167.8 327.33 167.77 327.3 167.8 C 327.6 168.8 328.5 169.4 330.1 169.4 C 331.8 169.4 332.4 168.8 332.4 168 C 332.4 167.3 332 166.8 329.8 166.5 C 327.1 166.2 326.5 165.2 326.5 164.2 C 326.5 163.2 327.3 161.9 329.8 161.9 C 332.6 161.9 333.3 163.4 333.4 164.3 C 333.37 164.3 333.4 164.3 333.4 164.3 L 332.1 164.3 C 332.1 164.3 332.14 164.3 332.1 164.3 C 332 163.8 331.7 162.9 329.7 162.9 C 328.1 162.9 327.7 163.6 327.7 164.1 C 327.7 164.8 328.1 165.2 330.1 165.5 C 333 165.8 333.6 166.7 333.6 167.9 C 333.6 169.4 332.5 170.4 330 170.4 C 327.6 170.4 326.4 169.4 326.1 167.8 C 326.1 167.77 326.1 167.8 326.1 167.8 L 327.3 167.8 Z M 336.7 166.4 C 336.7 166.4 336.66 166.45 336.7 166.4 C 336.7 168.2 337.9 169.4 339.6 169.4 C 341 169.4 341.8 168.8 342.2 168 C 342.23 167.96 342.2 168 342.2 168 L 343.4 168 C 343.4 168 343.44 167.96 343.4 168 C 343 169.1 341.9 170.4 339.5 170.4 C 336.8 170.4 335.4 168.3 335.4 166.2 C 335.4 166.2 335.4 166.2 335.4 166.2 C 335.4 163.7 337.1 161.9 339.5 161.9 C 342.5 161.9 343.6 164.2 343.6 166.1 C 343.6 166.2 343.6 166.3 343.6 166.4 C 343.56 166.45 336.7 166.4 336.7 166.4 Z M 342.3 165.5 C 342.3 165.5 342.28 165.52 342.3 165.5 C 342.2 164.5 341.6 162.9 339.5 162.9 C 337.8 162.9 336.8 164 336.7 165.5 C 336.69 165.52 336.7 165.5 336.7 165.5 L 342.3 165.5 Z M 345.7 170.2 L 345.7 167.8 L 347 167.8 L 347 170.2 L 345.7 170.2 Z " stroke="none" fill="#141414"/>  </g>  <g id="Polygon3662">    <path d="M 1.4 145.9 L 1.4 133.8 L 2.6 133.8 L 2.6 145.9 L 1.4 145.9 Z M 12.3 144 C 12.3 144.7 12.4 145.7 12.4 145.9 C 12.4 145.9 11.2 145.9 11.2 145.9 C 11.2 145.6 11.2 144.9 11.2 144.6 C 10.7 145.5 9.8 146.1 8.1 146.1 C 5.8 146.1 4.9 144.7 4.9 143.5 C 4.9 143.5 4.9 143.5 4.9 143.5 C 4.9 141.5 6.8 140.9 9.1 140.9 C 10.2 140.9 10.9 140.9 11.1 140.9 C 11.1 140.9 11.1 140.4 11.1 140.4 C 11.1 139.5 10.7 138.6 8.9 138.6 C 7.2 138.6 6.8 139.3 6.6 140.2 C 6.62 140.16 6.6 140.2 6.6 140.2 L 5.4 140.2 C 5.4 140.2 5.41 140.16 5.4 140.2 C 5.5 139.1 6.2 137.6 8.9 137.6 C 11.6 137.6 12.3 139 12.3 140.3 C 12.3 140.3 12.3 144 12.3 144 Z M 11.1 141.8 C 10.9 141.8 10.3 141.8 9.1 141.8 C 7.1 141.8 6.2 142.3 6.2 143.5 C 6.2 143.5 6.2 143.5 6.2 143.5 C 6.2 144.4 6.8 145.1 8.2 145.1 C 10.6 145.1 11.1 143.7 11.1 142.3 C 11.1 142.3 11.1 141.8 11.1 141.8 Z M 22.7 139.9 C 22.7 139.2 22.7 138.5 22.7 137.8 C 22.7 137.8 23.8 137.8 23.8 137.8 C 23.9 138.2 23.9 138.6 23.9 139.1 C 24.3 138.4 25.1 137.6 26.5 137.6 C 27.8 137.6 28.6 138.2 29 139.2 C 29.4 138.5 30.2 137.6 31.8 137.6 C 33.3 137.6 34.6 138.5 34.6 140.9 C 34.62 140.87 34.6 145.9 34.6 145.9 L 33.4 145.9 C 33.4 145.9 33.42 140.93 33.4 140.9 C 33.4 139.9 33.1 138.7 31.6 138.7 C 30.2 138.7 29.2 139.6 29.2 141.5 C 29.25 141.48 29.2 145.9 29.2 145.9 L 28 145.9 C 28 145.9 28.04 140.84 28 140.8 C 28 139.8 27.7 138.7 26.2 138.7 C 24.5 138.7 23.9 140 23.9 141.6 C 23.87 141.62 23.9 145.9 23.9 145.9 L 22.7 145.9 C 22.7 145.9 22.67 139.91 22.7 139.9 Z M 37.5 137.8 L 38.8 137.8 L 38.8 145.9 L 37.5 145.9 L 37.5 137.8 Z M 37.5 133.8 L 38.8 133.8 L 38.8 135.6 L 37.5 135.6 L 37.5 133.8 Z M 42.2 143.5 C 42.2 143.5 42.19 143.45 42.2 143.5 C 42.5 144.5 43.4 145.1 45 145.1 C 46.6 145.1 47.3 144.5 47.3 143.7 C 47.3 143 46.8 142.4 44.7 142.2 C 41.9 141.9 41.3 140.9 41.3 139.9 C 41.3 138.9 42.2 137.6 44.7 137.6 C 47.4 137.6 48.2 139.1 48.2 140 C 48.23 139.98 48.2 140 48.2 140 L 47 140 C 47 140 47 139.98 47 140 C 46.9 139.5 46.5 138.6 44.6 138.6 C 42.9 138.6 42.6 139.3 42.6 139.8 C 42.6 140.5 43 140.9 44.9 141.1 C 47.9 141.5 48.5 142.4 48.5 143.6 C 48.5 145.1 47.4 146.1 44.9 146.1 C 42.5 146.1 41.2 145.1 41 143.5 C 40.96 143.45 41 143.5 41 143.5 L 42.2 143.5 Z M 51.5 143.5 C 51.5 143.5 51.51 143.45 51.5 143.5 C 51.8 144.5 52.7 145.1 54.3 145.1 C 56 145.1 56.6 144.5 56.6 143.7 C 56.6 143 56.2 142.4 54 142.2 C 51.2 141.9 50.7 140.9 50.7 139.9 C 50.7 138.9 51.5 137.6 54 137.6 C 56.8 137.6 57.5 139.1 57.6 140 C 57.55 139.98 57.6 140 57.6 140 L 56.3 140 C 56.3 140 56.33 139.98 56.3 140 C 56.2 139.5 55.9 138.6 53.9 138.6 C 52.3 138.6 51.9 139.3 51.9 139.8 C 51.9 140.5 52.3 140.9 54.3 141.1 C 57.2 141.5 57.8 142.4 57.8 143.6 C 57.8 145.1 56.7 146.1 54.2 146.1 C 51.8 146.1 50.6 145.1 50.3 143.5 C 50.28 143.45 50.3 143.5 50.3 143.5 L 51.5 143.5 Z M 59.2 148.2 C 60.1 146.3 60.4 144.9 60.5 143.5 C 60.5 143.5 61.8 143.5 61.8 143.5 C 61.7 144.7 61.1 146.8 60.3 148.2 C 60.3 148.2 59.2 148.2 59.2 148.2 Z M 79.3 133.8 C 79.3 133.8 79.27 143.52 79.3 143.5 C 79.3 144.3 79.3 145.1 79.3 145.9 C 79.3 145.9 78.1 145.9 78.1 145.9 C 78.1 145.5 78.1 145 78.1 144.6 C 77.7 145.3 76.9 146.1 75 146.1 C 72.7 146.1 71.1 144.3 71.1 141.9 C 71.1 141.9 71.1 141.9 71.1 141.9 C 71.1 139.3 73.1 137.6 75.2 137.6 C 77.2 137.6 77.8 138.6 78.1 139 C 78.06 138.97 78.1 133.8 78.1 133.8 L 79.3 133.8 Z M 72.4 141.9 C 72.4 141.9 72.4 141.9 72.4 141.9 C 72.4 143.4 73.3 145.1 75.2 145.1 C 77.3 145.1 78.1 143.7 78.1 141.8 C 78.1 141.8 78.1 141.8 78.1 141.8 C 78.1 139.9 77.5 138.7 75.3 138.7 C 73.3 138.7 72.4 140.3 72.4 141.9 Z M 90 141.9 C 90 141.9 90 141.9 90 141.9 C 90 144 88.7 146.1 85.8 146.1 C 83.2 146.1 81.6 144.1 81.6 141.9 C 81.6 141.9 81.6 141.9 81.6 141.9 C 81.6 139.5 83.3 137.6 85.9 137.6 C 88.6 137.6 90 139.7 90 141.9 Z M 82.9 141.9 C 82.9 141.9 82.9 141.9 82.9 141.9 C 82.9 143.5 83.9 145.1 85.8 145.1 C 87.8 145.1 88.8 143.6 88.8 141.9 C 88.8 141.9 88.8 141.9 88.8 141.9 C 88.8 140.1 87.7 138.6 85.8 138.6 C 83.8 138.6 82.9 140.1 82.9 141.9 Z M 92.4 139.9 C 92.4 139.2 92.4 138.4 92.4 137.8 C 92.4 137.8 93.6 137.8 93.6 137.8 C 93.6 138.1 93.6 138.8 93.6 139.5 C 94 138.6 94.8 137.6 96.6 137.6 C 98.5 137.6 99.7 138.8 99.7 141 C 99.7 141 99.7 145.9 99.7 145.9 L 98.5 145.9 C 98.5 145.9 98.48 141.23 98.5 141.2 C 98.5 139.8 97.9 138.7 96.3 138.7 C 94.5 138.7 93.6 140.1 93.6 142.1 C 93.61 142.07 93.6 145.9 93.6 145.9 L 92.4 145.9 C 92.4 145.9 92.4 139.86 92.4 139.9 Z M 102.6 139.9 C 102.6 139.2 102.6 138.4 102.6 137.8 C 102.6 137.8 103.7 137.8 103.7 137.8 C 103.8 138.1 103.8 138.8 103.8 139.5 C 104.1 138.6 105 137.6 106.8 137.6 C 108.6 137.6 109.9 138.8 109.9 141 C 109.88 141 109.9 145.9 109.9 145.9 L 108.7 145.9 C 108.7 145.9 108.66 141.23 108.7 141.2 C 108.7 139.8 108.1 138.7 106.5 138.7 C 104.7 138.7 103.8 140.1 103.8 142.1 C 103.79 142.07 103.8 145.9 103.8 145.9 L 102.6 145.9 C 102.6 145.9 102.58 139.86 102.6 139.9 Z M 119.6 144 C 119.6 144.7 119.7 145.7 119.7 145.9 C 119.7 145.9 118.5 145.9 118.5 145.9 C 118.5 145.6 118.4 144.9 118.4 144.6 C 118 145.5 117.1 146.1 115.3 146.1 C 113.1 146.1 112.2 144.7 112.2 143.5 C 112.2 143.5 112.2 143.5 112.2 143.5 C 112.2 141.5 114.1 140.9 116.4 140.9 C 117.5 140.9 118.2 140.9 118.4 140.9 C 118.4 140.9 118.4 140.4 118.4 140.4 C 118.4 139.5 118 138.6 116.2 138.6 C 114.5 138.6 114.1 139.3 113.9 140.2 C 113.9 140.16 113.9 140.2 113.9 140.2 L 112.7 140.2 C 112.7 140.2 112.7 140.16 112.7 140.2 C 112.8 139.1 113.5 137.6 116.2 137.6 C 118.9 137.6 119.6 139 119.6 140.3 C 119.6 140.3 119.6 144 119.6 144 Z M 118.4 141.8 C 118.2 141.8 117.6 141.8 116.4 141.8 C 114.4 141.8 113.4 142.3 113.4 143.5 C 113.4 143.5 113.4 143.5 113.4 143.5 C 113.4 144.4 114.1 145.1 115.5 145.1 C 117.9 145.1 118.4 143.7 118.4 142.3 C 118.4 142.3 118.4 141.8 118.4 141.8 Z M 122.5 139.9 C 122.5 139.2 122.5 138.4 122.5 137.8 C 122.5 137.8 123.7 137.8 123.7 137.8 C 123.7 138.1 123.7 138.8 123.7 139.5 C 124.1 138.6 124.9 137.6 126.7 137.6 C 128.6 137.6 129.8 138.8 129.8 141 C 129.81 141 129.8 145.9 129.8 145.9 L 128.6 145.9 C 128.6 145.9 128.6 141.23 128.6 141.2 C 128.6 139.8 128 138.7 126.4 138.7 C 124.6 138.7 123.7 140.1 123.7 142.1 C 123.73 142.07 123.7 145.9 123.7 145.9 L 122.5 145.9 C 122.5 145.9 122.52 139.86 122.5 139.9 Z M 131.5 137.8 L 133.2 137.8 L 133.2 135.2 L 134.4 135.2 L 134.4 137.8 L 136.6 137.8 L 136.6 138.8 L 134.4 138.8 C 134.4 138.8 134.4 143.54 134.4 143.5 C 134.4 144.5 134.7 145 135.6 145 C 135.8 145 136.1 145 136.4 144.9 C 136.4 144.9 136.4 145.8 136.4 145.8 C 136 145.9 135.7 146 135.2 146 C 133.7 146 133.2 145.2 133.2 143.7 C 133.19 143.66 133.2 138.8 133.2 138.8 L 131.5 138.8 L 131.5 137.8 Z M 146 145.9 L 146 133.8 L 147.2 133.8 L 147.2 145.9 L 146 145.9 Z M 156.9 144 C 156.9 144.7 157 145.7 157 145.9 C 157 145.9 155.9 145.9 155.9 145.9 C 155.8 145.6 155.8 144.9 155.8 144.6 C 155.3 145.5 154.4 146.1 152.7 146.1 C 150.4 146.1 149.6 144.7 149.6 143.5 C 149.6 143.5 149.6 143.5 149.6 143.5 C 149.6 141.5 151.4 140.9 153.7 140.9 C 154.8 140.9 155.5 140.9 155.8 140.9 C 155.8 140.9 155.8 140.4 155.8 140.4 C 155.8 139.5 155.3 138.6 153.5 138.6 C 151.8 138.6 151.4 139.3 151.2 140.2 C 151.23 140.16 151.2 140.2 151.2 140.2 L 150 140.2 C 150 140.2 150.02 140.16 150 140.2 C 150.1 139.1 150.8 137.6 153.5 137.6 C 156.2 137.6 156.9 139 156.9 140.3 C 156.9 140.3 156.9 144 156.9 144 Z M 155.8 141.8 C 155.5 141.8 154.9 141.8 153.7 141.8 C 151.7 141.8 150.8 142.3 150.8 143.5 C 150.8 143.5 150.8 143.5 150.8 143.5 C 150.8 144.4 151.4 145.1 152.9 145.1 C 155.2 145.1 155.8 143.7 155.8 142.3 C 155.8 142.3 155.8 141.8 155.8 141.8 Z M 174.8 133.8 C 174.8 133.8 174.8 143.52 174.8 143.5 C 174.8 144.3 174.8 145.1 174.8 145.9 C 174.8 145.9 173.6 145.9 173.6 145.9 C 173.6 145.5 173.6 145 173.6 144.6 C 173.2 145.3 172.5 146.1 170.5 146.1 C 168.2 146.1 166.6 144.3 166.6 141.9 C 166.6 141.9 166.6 141.9 166.6 141.9 C 166.6 139.3 168.6 137.6 170.7 137.6 C 172.7 137.6 173.4 138.6 173.6 139 C 173.58 138.97 173.6 133.8 173.6 133.8 L 174.8 133.8 Z M 167.9 141.9 C 167.9 141.9 167.9 141.9 167.9 141.9 C 167.9 143.4 168.8 145.1 170.7 145.1 C 172.8 145.1 173.6 143.7 173.6 141.8 C 173.6 141.8 173.6 141.8 173.6 141.8 C 173.6 139.9 173 138.7 170.8 138.7 C 168.8 138.7 167.9 140.3 167.9 141.9 Z M 177.7 137.8 L 178.9 137.8 L 178.9 145.9 L 177.7 145.9 L 177.7 137.8 Z M 177.7 133.8 L 178.9 133.8 L 178.9 135.6 L 177.7 135.6 L 177.7 133.8 Z M 182.4 143.5 C 182.4 143.5 182.36 143.45 182.4 143.5 C 182.7 144.5 183.6 145.1 185.1 145.1 C 186.8 145.1 187.4 144.5 187.4 143.7 C 187.4 143 187 142.4 184.8 142.2 C 182.1 141.9 181.5 140.9 181.5 139.9 C 181.5 138.9 182.3 137.6 184.8 137.6 C 187.6 137.6 188.3 139.1 188.4 140 C 188.4 139.98 188.4 140 188.4 140 L 187.2 140 C 187.2 140 187.17 139.98 187.2 140 C 187 139.5 186.7 138.6 184.7 138.6 C 183.1 138.6 182.7 139.3 182.7 139.8 C 182.7 140.5 183.2 140.9 185.1 141.1 C 188.1 141.5 188.7 142.4 188.7 143.6 C 188.7 145.1 187.6 146.1 185.1 146.1 C 182.7 146.1 181.4 145.1 181.1 143.5 C 181.13 143.45 181.1 143.5 181.1 143.5 L 182.4 143.5 Z M 190 137.8 L 191.7 137.8 L 191.7 135.2 L 192.9 135.2 L 192.9 137.8 L 195 137.8 L 195 138.8 L 192.9 138.8 C 192.9 138.8 192.88 143.54 192.9 143.5 C 192.9 144.5 193.1 145 194 145 C 194.3 145 194.6 145 194.9 144.9 C 194.9 144.9 194.9 145.8 194.9 145.8 C 194.5 145.9 194.2 146 193.7 146 C 192.2 146 191.7 145.2 191.7 143.7 C 191.67 143.66 191.7 138.8 191.7 138.8 L 190 138.8 L 190 137.8 Z M 203.9 144 C 203.9 144.7 204 145.7 204 145.9 C 204 145.9 202.9 145.9 202.9 145.9 C 202.8 145.6 202.8 144.9 202.8 144.6 C 202.3 145.5 201.4 146.1 199.7 146.1 C 197.4 146.1 196.6 144.7 196.6 143.5 C 196.6 143.5 196.6 143.5 196.6 143.5 C 196.6 141.5 198.4 140.9 200.7 140.9 C 201.8 140.9 202.5 140.9 202.8 140.9 C 202.8 140.9 202.8 140.4 202.8 140.4 C 202.8 139.5 202.3 138.6 200.5 138.6 C 198.8 138.6 198.4 139.3 198.2 140.2 C 198.23 140.16 198.2 140.2 198.2 140.2 L 197 140.2 C 197 140.2 197.02 140.16 197 140.2 C 197.1 139.1 197.8 137.6 200.5 137.6 C 203.2 137.6 203.9 139 203.9 140.3 C 203.9 140.3 203.9 144 203.9 144 Z M 202.8 141.8 C 202.5 141.8 201.9 141.8 200.7 141.8 C 198.7 141.8 197.8 142.3 197.8 143.5 C 197.8 143.5 197.8 143.5 197.8 143.5 C 197.8 144.4 198.4 145.1 199.9 145.1 C 202.2 145.1 202.8 143.7 202.8 142.3 C 202.8 142.3 202.8 141.8 202.8 141.8 Z M 206.8 139.9 C 206.8 139.2 206.8 138.4 206.8 137.8 C 206.8 137.8 208 137.8 208 137.8 C 208 138.1 208 138.8 208 139.5 C 208.4 138.6 209.3 137.6 211 137.6 C 212.9 137.6 214.1 138.8 214.1 141 C 214.14 141 214.1 145.9 214.1 145.9 L 212.9 145.9 C 212.9 145.9 212.92 141.23 212.9 141.2 C 212.9 139.8 212.4 138.7 210.8 138.7 C 209 138.7 208.1 140.1 208.1 142.1 C 208.05 142.07 208.1 145.9 208.1 145.9 L 206.8 145.9 C 206.8 145.9 206.84 139.86 206.8 139.9 Z M 224.5 143.4 C 224.5 143.4 224.5 143.42 224.5 143.4 C 224.1 144.9 222.8 146.1 220.6 146.1 C 217.9 146.1 216.5 144.2 216.5 141.9 C 216.5 141.9 216.5 141.9 216.5 141.9 C 216.5 139.6 218 137.6 220.7 137.6 C 223.2 137.6 224.3 139.2 224.5 140.3 C 224.49 140.35 224.5 140.3 224.5 140.3 L 223.3 140.3 C 223.3 140.3 223.28 140.35 223.3 140.3 C 223 139.5 222.3 138.6 220.6 138.6 C 218.8 138.6 217.7 140 217.7 141.9 C 217.7 141.9 217.7 141.9 217.7 141.9 C 217.7 143.7 218.8 145.1 220.7 145.1 C 222.1 145.1 222.9 144.4 223.3 143.4 C 223.29 143.42 223.3 143.4 223.3 143.4 L 224.5 143.4 Z M 227.5 142.1 C 227.5 142.1 227.46 142.13 227.5 142.1 C 227.6 143.8 228.7 145.1 230.4 145.1 C 231.8 145.1 232.6 144.5 233 143.6 C 233.03 143.64 233 143.6 233 143.6 L 234.2 143.6 C 234.2 143.6 234.24 143.64 234.2 143.6 C 233.8 144.8 232.7 146.1 230.4 146.1 C 227.6 146.1 226.2 144 226.2 141.9 C 226.2 141.9 226.2 141.9 226.2 141.9 C 226.2 139.4 227.9 137.6 230.3 137.6 C 233.3 137.6 234.4 139.9 234.4 141.8 C 234.4 141.9 234.4 142 234.4 142.1 C 234.36 142.13 227.5 142.1 227.5 142.1 Z M 233.1 141.2 C 233.1 141.2 233.08 141.2 233.1 141.2 C 233 140.1 232.4 138.6 230.3 138.6 C 228.6 138.6 227.7 139.7 227.5 141.2 C 227.49 141.2 227.5 141.2 227.5 141.2 L 233.1 141.2 Z M 245.2 144.6 C 245.21 144.57 245.2 149.4 245.2 149.4 L 244 149.4 C 244 149.4 244 139.85 244 139.8 C 244 139.2 244 138.5 244 137.8 C 244 137.8 245.2 137.8 245.2 137.8 C 245.2 138.1 245.2 138.6 245.2 139.3 C 245.7 138.4 246.7 137.6 248.4 137.6 C 250.6 137.6 252.1 139.4 252.1 141.7 C 252.1 141.7 252.1 141.7 252.1 141.7 C 252.1 144.3 250.4 146.1 248.2 146.1 C 246.4 146.1 245.7 145.3 245.2 144.6 Z M 250.9 141.8 C 250.9 141.8 250.9 141.8 250.9 141.8 C 250.9 140.3 250 138.7 248.1 138.7 C 246.1 138.7 245.2 140.1 245.2 141.9 C 245.2 141.9 245.2 141.9 245.2 141.9 C 245.2 143.7 246.1 145 248 145 C 249.9 145 250.9 143.5 250.9 141.8 Z M 261.3 144 C 261.3 144.7 261.4 145.7 261.4 145.9 C 261.4 145.9 260.3 145.9 260.3 145.9 C 260.2 145.6 260.2 144.9 260.2 144.6 C 259.7 145.5 258.8 146.1 257.1 146.1 C 254.8 146.1 253.9 144.7 253.9 143.5 C 253.9 143.5 253.9 143.5 253.9 143.5 C 253.9 141.5 255.8 140.9 258.1 140.9 C 259.2 140.9 259.9 140.9 260.1 140.9 C 260.1 140.9 260.1 140.4 260.1 140.4 C 260.1 139.5 259.7 138.6 257.9 138.6 C 256.2 138.6 255.8 139.3 255.6 140.2 C 255.62 140.16 255.6 140.2 255.6 140.2 L 254.4 140.2 C 254.4 140.2 254.41 140.16 254.4 140.2 C 254.5 139.1 255.2 137.6 257.9 137.6 C 260.6 137.6 261.3 139 261.3 140.3 C 261.3 140.3 261.3 144 261.3 144 Z M 260.1 141.8 C 259.9 141.8 259.3 141.8 258.1 141.8 C 256.1 141.8 255.2 142.3 255.2 143.5 C 255.2 143.5 255.2 143.5 255.2 143.5 C 255.2 144.4 255.8 145.1 257.3 145.1 C 259.6 145.1 260.1 143.7 260.1 142.3 C 260.1 142.3 260.1 141.8 260.1 141.8 Z M 264.2 140 C 264.2 139.3 264.2 138.6 264.2 137.8 C 264.2 137.8 265.4 137.8 265.4 137.8 C 265.4 138.1 265.4 138.9 265.4 139.7 C 266 138.4 267.2 137.6 268.7 137.6 C 268.7 137.6 268.7 138.8 268.7 138.8 C 266.9 138.8 265.4 140 265.4 142.4 C 265.45 142.4 265.4 145.9 265.4 145.9 L 264.2 145.9 C 264.2 145.9 264.24 140.02 264.2 140 Z M 277.9 143.4 C 277.9 143.4 277.92 143.42 277.9 143.4 C 277.5 144.9 276.3 146.1 274.1 146.1 C 271.3 146.1 269.9 144.2 269.9 141.9 C 269.9 141.9 269.9 141.9 269.9 141.9 C 269.9 139.6 271.5 137.6 274.1 137.6 C 276.7 137.6 277.7 139.2 277.9 140.3 C 277.91 140.35 277.9 140.3 277.9 140.3 L 276.7 140.3 C 276.7 140.3 276.7 140.35 276.7 140.3 C 276.4 139.5 275.7 138.6 274.1 138.6 C 272.3 138.6 271.1 140 271.1 141.9 C 271.1 141.9 271.1 141.9 271.1 141.9 C 271.1 143.7 272.2 145.1 274.1 145.1 C 275.5 145.1 276.3 144.4 276.7 143.4 C 276.71 143.42 276.7 143.4 276.7 143.4 L 277.9 143.4 Z M 288.1 141.9 C 288.1 141.9 288.1 141.9 288.1 141.9 C 288.1 144 286.7 146.1 283.8 146.1 C 281.2 146.1 279.7 144.1 279.7 141.9 C 279.7 141.9 279.7 141.9 279.7 141.9 C 279.7 139.5 281.3 137.6 283.9 137.6 C 286.6 137.6 288.1 139.7 288.1 141.9 Z M 280.9 141.9 C 280.9 141.9 280.9 141.9 280.9 141.9 C 280.9 143.5 282 145.1 283.9 145.1 C 285.8 145.1 286.8 143.6 286.8 141.9 C 286.8 141.9 286.8 141.9 286.8 141.9 C 286.8 140.1 285.7 138.6 283.8 138.6 C 281.9 138.6 280.9 140.1 280.9 141.9 Z M 297.6 143.5 C 297.6 144.3 297.6 145.1 297.6 145.9 C 297.6 145.9 296.4 145.9 296.4 145.9 C 296.4 145.7 296.4 145 296.4 144.4 C 296 145.4 295.2 146.1 293.4 146.1 C 291.7 146.1 290.4 145.2 290.4 142.8 C 290.39 142.85 290.4 137.8 290.4 137.8 L 291.6 137.8 C 291.6 137.8 291.6 142.61 291.6 142.6 C 291.6 143.9 292.1 145 293.7 145 C 295.5 145 296.4 143.9 296.4 141.4 C 296.36 141.45 296.4 137.8 296.4 137.8 L 297.6 137.8 C 297.6 137.8 297.57 143.53 297.6 143.5 Z M 300.5 140 C 300.5 139.3 300.5 138.6 300.5 137.8 C 300.5 137.8 301.6 137.8 301.6 137.8 C 301.7 138.1 301.7 138.9 301.7 139.7 C 302.2 138.4 303.5 137.6 305 137.6 C 305 137.6 305 138.8 305 138.8 C 303.1 138.8 301.7 140 301.7 142.4 C 301.7 142.4 301.7 145.9 301.7 145.9 L 300.5 145.9 C 300.5 145.9 300.49 140.02 300.5 140 Z M 314.1 143.5 C 314.1 144.3 314.1 145.1 314.1 145.9 C 314.1 145.9 313 145.9 313 145.9 C 313 145.7 312.9 145 312.9 144.4 C 312.5 145.4 311.8 146.1 310 146.1 C 308.3 146.1 307 145.2 307 142.8 C 306.95 142.85 307 137.8 307 137.8 L 308.2 137.8 C 308.2 137.8 308.16 142.61 308.2 142.6 C 308.2 143.9 308.7 145 310.2 145 C 312.1 145 312.9 143.9 312.9 141.4 C 312.92 141.45 312.9 137.8 312.9 137.8 L 314.1 137.8 C 314.1 137.8 314.13 143.53 314.1 143.5 Z M 317.7 142.1 C 317.7 142.1 317.73 142.13 317.7 142.1 C 317.8 143.8 319 145.1 320.7 145.1 C 322.1 145.1 322.8 144.5 323.3 143.6 C 323.3 143.64 323.3 143.6 323.3 143.6 L 324.5 143.6 C 324.5 143.6 324.5 143.64 324.5 143.6 C 324.1 144.8 323 146.1 320.6 146.1 C 317.9 146.1 316.5 144 316.5 141.9 C 316.5 141.9 316.5 141.9 316.5 141.9 C 316.5 139.4 318.2 137.6 320.6 137.6 C 323.6 137.6 324.6 139.9 324.6 141.8 C 324.6 141.9 324.6 142 324.6 142.1 C 324.62 142.13 317.7 142.1 317.7 142.1 Z M 323.3 141.2 C 323.3 141.2 323.35 141.2 323.3 141.2 C 323.3 140.1 322.7 138.6 320.6 138.6 C 318.8 138.6 317.9 139.7 317.8 141.2 C 317.76 141.2 317.8 141.2 317.8 141.2 L 323.3 141.2 Z M 334.8 142.1 C 334.8 142.1 334.84 142.13 334.8 142.1 C 334.9 143.8 336.1 145.1 337.8 145.1 C 339.2 145.1 339.9 144.5 340.4 143.6 C 340.42 143.64 340.4 143.6 340.4 143.6 L 341.6 143.6 C 341.6 143.6 341.62 143.64 341.6 143.6 C 341.2 144.8 340.1 146.1 337.7 146.1 C 335 146.1 333.6 144 333.6 141.9 C 333.6 141.9 333.6 141.9 333.6 141.9 C 333.6 139.4 335.3 137.6 337.7 137.6 C 340.7 137.6 341.7 139.9 341.7 141.8 C 341.7 141.9 341.7 142 341.7 142.1 C 341.74 142.13 334.8 142.1 334.8 142.1 Z M 340.5 141.2 C 340.5 141.2 340.47 141.2 340.5 141.2 C 340.4 140.1 339.8 138.6 337.7 138.6 C 335.9 138.6 335 139.7 334.9 141.2 C 334.88 141.2 334.9 141.2 334.9 141.2 L 340.5 141.2 Z M 342.9 137.8 L 344.6 137.8 L 344.6 135.2 L 345.8 135.2 L 345.8 137.8 L 348 137.8 L 348 138.8 L 345.8 138.8 C 345.8 138.8 345.78 143.54 345.8 143.5 C 345.8 144.5 346 145 347 145 C 347.2 145 347.5 145 347.8 144.9 C 347.8 144.9 347.8 145.8 347.8 145.8 C 347.4 145.9 347.1 146 346.6 146 C 345.1 146 344.6 145.2 344.6 143.7 C 344.57 143.66 344.6 138.8 344.6 138.8 L 342.9 138.8 L 342.9 137.8 Z M 357.4 145.9 L 357.4 133.8 L 358.6 133.8 L 358.6 145.9 L 357.4 145.9 Z M 362.2 142.1 C 362.2 142.1 362.17 142.13 362.2 142.1 C 362.3 143.8 363.4 145.1 365.2 145.1 C 366.5 145.1 367.3 144.5 367.7 143.6 C 367.75 143.64 367.7 143.6 367.7 143.6 L 369 143.6 C 369 143.6 368.95 143.64 369 143.6 C 368.5 144.8 367.4 146.1 365.1 146.1 C 362.3 146.1 361 144 361 141.9 C 361 141.9 361 141.9 361 141.9 C 361 139.4 362.6 137.6 365 137.6 C 368.1 137.6 369.1 139.9 369.1 141.8 C 369.1 141.9 369.1 142 369.1 142.1 C 369.07 142.13 362.2 142.1 362.2 142.1 Z M 367.8 141.2 C 367.8 141.2 367.8 141.2 367.8 141.2 C 367.7 140.1 367.2 138.6 365 138.6 C 363.3 138.6 362.4 139.7 362.2 141.2 C 362.21 141.2 362.2 141.2 362.2 141.2 L 367.8 141.2 Z M 372 143.5 C 372 143.5 372 143.45 372 143.5 C 372.3 144.5 373.2 145.1 374.8 145.1 C 376.5 145.1 377.1 144.5 377.1 143.7 C 377.1 143 376.7 142.4 374.5 142.2 C 371.7 141.9 371.2 140.9 371.2 139.9 C 371.2 138.9 372 137.6 374.5 137.6 C 377.2 137.6 378 139.1 378 140 C 378.04 139.98 378 140 378 140 L 376.8 140 C 376.8 140 376.81 139.98 376.8 140 C 376.7 139.5 376.3 138.6 374.4 138.6 C 372.7 138.6 372.4 139.3 372.4 139.8 C 372.4 140.5 372.8 140.9 374.7 141.1 C 377.7 141.5 378.3 142.4 378.3 143.6 C 378.3 145.1 377.2 146.1 374.7 146.1 C 372.3 146.1 371.1 145.1 370.8 143.5 C 370.77 143.45 370.8 143.5 370.8 143.5 L 372 143.5 Z M 395.4 143.4 C 395.4 143.4 395.4 143.42 395.4 143.4 C 395 144.9 393.7 146.1 391.5 146.1 C 388.8 146.1 387.4 144.2 387.4 141.9 C 387.4 141.9 387.4 141.9 387.4 141.9 C 387.4 139.6 388.9 137.6 391.6 137.6 C 394.1 137.6 395.2 139.2 395.4 140.3 C 395.39 140.35 395.4 140.3 395.4 140.3 L 394.2 140.3 C 394.2 140.3 394.18 140.35 394.2 140.3 C 393.9 139.5 393.2 138.6 391.5 138.6 C 389.7 138.6 388.6 140 388.6 141.9 C 388.6 141.9 388.6 141.9 388.6 141.9 C 388.6 143.7 389.7 145.1 391.6 145.1 C 393 145.1 393.8 144.4 394.2 143.4 C 394.19 143.42 394.2 143.4 394.2 143.4 L 395.4 143.4 Z M 404.6 144 C 404.6 144.7 404.7 145.7 404.7 145.9 C 404.7 145.9 403.5 145.9 403.5 145.9 C 403.5 145.6 403.4 144.9 403.4 144.6 C 403 145.5 402.1 146.1 400.3 146.1 C 398 146.1 397.2 144.7 397.2 143.5 C 397.2 143.5 397.2 143.5 397.2 143.5 C 397.2 141.5 399.1 140.9 401.4 140.9 C 402.5 140.9 403.2 140.9 403.4 140.9 C 403.4 140.9 403.4 140.4 403.4 140.4 C 403.4 139.5 403 138.6 401.1 138.6 C 399.5 138.6 399.1 139.3 398.9 140.2 C 398.9 140.16 398.9 140.2 398.9 140.2 L 397.7 140.2 C 397.7 140.2 397.69 140.16 397.7 140.2 C 397.8 139.1 398.5 137.6 401.2 137.6 C 403.9 137.6 404.6 139 404.6 140.3 C 404.6 140.3 404.6 144 404.6 144 Z M 403.4 141.8 C 403.2 141.8 402.6 141.8 401.4 141.8 C 399.4 141.8 398.4 142.3 398.4 143.5 C 398.4 143.5 398.4 143.5 398.4 143.5 C 398.4 144.4 399.1 145.1 400.5 145.1 C 402.9 145.1 403.4 143.7 403.4 142.3 C 403.4 142.3 403.4 141.8 403.4 141.8 Z M 407.5 145.9 L 407.5 133.8 L 408.7 133.8 L 408.7 145.9 L 407.5 145.9 Z M 419.5 141.9 C 419.5 141.9 419.5 141.9 419.5 141.9 C 419.5 144 418.1 146.1 415.2 146.1 C 412.6 146.1 411.1 144.1 411.1 141.9 C 411.1 141.9 411.1 141.9 411.1 141.9 C 411.1 139.5 412.7 137.6 415.3 137.6 C 418 137.6 419.5 139.7 419.5 141.9 Z M 412.3 141.9 C 412.3 141.9 412.3 141.9 412.3 141.9 C 412.3 143.5 413.4 145.1 415.3 145.1 C 417.3 145.1 418.2 143.6 418.2 141.9 C 418.2 141.9 418.2 141.9 418.2 141.9 C 418.2 140.1 417.1 138.6 415.2 138.6 C 413.3 138.6 412.3 140.1 412.3 141.9 Z M 421.9 140 C 421.9 139.3 421.9 138.6 421.8 137.8 C 421.8 137.8 423 137.8 423 137.8 C 423 138.1 423.1 138.9 423.1 139.7 C 423.6 138.4 424.8 137.6 426.4 137.6 C 426.4 137.6 426.4 138.8 426.4 138.8 C 424.5 138.8 423.1 140 423.1 142.4 C 423.06 142.4 423.1 145.9 423.1 145.9 L 421.9 145.9 C 421.9 145.9 421.85 140.02 421.9 140 Z M 428.3 137.8 L 429.5 137.8 L 429.5 145.9 L 428.3 145.9 L 428.3 137.8 Z M 428.3 133.8 L 429.5 133.8 L 429.5 135.6 L 428.3 135.6 L 428.3 133.8 Z M 433.1 142.1 C 433.1 142.1 433.13 142.13 433.1 142.1 C 433.2 143.8 434.4 145.1 436.1 145.1 C 437.5 145.1 438.2 144.5 438.7 143.6 C 438.7 143.64 438.7 143.6 438.7 143.6 L 439.9 143.6 C 439.9 143.6 439.91 143.64 439.9 143.6 C 439.5 144.8 438.4 146.1 436 146.1 C 433.3 146.1 431.9 144 431.9 141.9 C 431.9 141.9 431.9 141.9 431.9 141.9 C 431.9 139.4 433.6 137.6 436 137.6 C 439 137.6 440 139.9 440 141.8 C 440 141.9 440 142 440 142.1 C 440.03 142.13 433.1 142.1 433.1 142.1 Z M 438.8 141.2 C 438.8 141.2 438.75 141.2 438.8 141.2 C 438.7 140.1 438.1 138.6 436 138.6 C 434.2 138.6 433.3 139.7 433.2 141.2 C 433.16 141.2 433.2 141.2 433.2 141.2 L 438.8 141.2 Z M 443 143.5 C 443 143.5 442.96 143.45 443 143.5 C 443.3 144.5 444.2 145.1 445.7 145.1 C 447.4 145.1 448 144.5 448 143.7 C 448 143 447.6 142.4 445.4 142.2 C 442.7 141.9 442.1 140.9 442.1 139.9 C 442.1 138.9 442.9 137.6 445.4 137.6 C 448.2 137.6 448.9 139.1 449 140 C 449 139.98 449 140 449 140 L 447.8 140 C 447.8 140 447.77 139.98 447.8 140 C 447.6 139.5 447.3 138.6 445.3 138.6 C 443.7 138.6 443.3 139.3 443.3 139.8 C 443.3 140.5 443.8 140.9 445.7 141.1 C 448.7 141.5 449.3 142.4 449.3 143.6 C 449.3 145.1 448.2 146.1 445.7 146.1 C 443.3 146.1 442 145.1 441.7 143.5 C 441.73 143.45 441.7 143.5 441.7 143.5 L 443 143.5 Z " stroke="none" fill="#141414"/>  </g>  <g id="Polygon3661">    <path d="M 1.6 110.2 C 1.6 110.2 6.19 110.16 6.2 110.2 C 9.8 110.2 12 112.5 12 115.7 C 12 115.7 12 115.7 12 115.7 C 12 119.3 9.5 121.6 6.2 121.6 C 6.17 121.56 1.6 121.6 1.6 121.6 L 1.6 110.2 Z M 2.9 120.5 C 2.9 120.5 5.86 120.45 5.9 120.5 C 9.1 120.5 10.6 118.4 10.6 115.7 C 10.6 115.7 10.6 115.7 10.6 115.7 C 10.6 112.9 8.7 111.3 6 111.3 C 6.01 111.27 2.9 111.3 2.9 111.3 L 2.9 120.5 Z M 15.3 117.8 C 15.3 117.8 15.28 117.81 15.3 117.8 C 15.4 119.5 16.5 120.8 18.3 120.8 C 19.6 120.8 20.4 120.2 20.8 119.3 C 20.85 119.32 20.8 119.3 20.8 119.3 L 22.1 119.3 C 22.1 119.3 22.06 119.32 22.1 119.3 C 21.6 120.5 20.5 121.8 18.2 121.8 C 15.4 121.8 14.1 119.7 14.1 117.6 C 14.1 117.6 14.1 117.6 14.1 117.6 C 14.1 115.1 15.7 113.3 18.1 113.3 C 21.2 113.3 22.2 115.5 22.2 117.5 C 22.2 117.6 22.2 117.7 22.2 117.8 C 22.18 117.81 15.3 117.8 15.3 117.8 Z M 20.9 116.9 C 20.9 116.9 20.9 116.88 20.9 116.9 C 20.8 115.8 20.3 114.3 18.1 114.3 C 16.4 114.3 15.5 115.4 15.3 116.9 C 15.31 116.88 15.3 116.9 15.3 116.9 L 20.9 116.9 Z M 25.1 119.1 C 25.1 119.1 25.1 119.13 25.1 119.1 C 25.4 120.2 26.3 120.8 27.9 120.8 C 29.6 120.8 30.2 120.2 30.2 119.4 C 30.2 118.6 29.8 118.1 27.6 117.9 C 24.8 117.5 24.3 116.6 24.3 115.6 C 24.3 114.6 25.1 113.3 27.6 113.3 C 30.3 113.3 31.1 114.8 31.1 115.7 C 31.15 115.66 31.1 115.7 31.1 115.7 L 29.9 115.7 C 29.9 115.7 29.92 115.66 29.9 115.7 C 29.8 115.1 29.5 114.3 27.5 114.3 C 25.9 114.3 25.5 115 25.5 115.5 C 25.5 116.2 25.9 116.6 27.8 116.8 C 30.8 117.2 31.4 118.1 31.4 119.3 C 31.4 120.7 30.3 121.8 27.8 121.8 C 25.4 121.8 24.2 120.8 23.9 119.1 C 23.87 119.13 23.9 119.1 23.9 119.1 L 25.1 119.1 Z M 39.7 119.1 C 39.7 119.1 39.71 119.13 39.7 119.1 C 40 120.2 40.9 120.8 42.5 120.8 C 44.2 120.8 44.8 120.2 44.8 119.4 C 44.8 118.6 44.4 118.1 42.2 117.9 C 39.4 117.5 38.9 116.6 38.9 115.6 C 38.9 114.6 39.7 113.3 42.2 113.3 C 45 113.3 45.7 114.8 45.7 115.7 C 45.75 115.66 45.7 115.7 45.7 115.7 L 44.5 115.7 C 44.5 115.7 44.52 115.66 44.5 115.7 C 44.4 115.1 44.1 114.3 42.1 114.3 C 40.5 114.3 40.1 115 40.1 115.5 C 40.1 116.2 40.5 116.6 42.5 116.8 C 45.4 117.2 46 118.1 46 119.3 C 46 120.7 44.9 121.8 42.4 121.8 C 40 121.8 38.8 120.8 38.5 119.1 C 38.48 119.13 38.5 119.1 38.5 119.1 L 39.7 119.1 Z M 47.4 113.5 L 49 113.5 L 49 110.9 L 50.2 110.9 L 50.2 113.5 L 52.4 113.5 L 52.4 114.5 L 50.2 114.5 C 50.2 114.5 50.23 119.22 50.2 119.2 C 50.2 120.2 50.5 120.6 51.4 120.6 C 51.6 120.6 52 120.6 52.2 120.6 C 52.2 120.6 52.2 121.5 52.2 121.5 C 51.9 121.6 51.5 121.6 51.1 121.6 C 49.5 121.6 49 120.9 49 119.3 C 49.02 119.34 49 114.5 49 114.5 L 47.4 114.5 L 47.4 113.5 Z M 61.3 119.6 C 61.3 120.4 61.3 121.4 61.4 121.6 C 61.4 121.6 60.2 121.6 60.2 121.6 C 60.1 121.2 60.1 120.6 60.1 120.3 C 59.7 121.2 58.8 121.8 57 121.8 C 54.7 121.8 53.9 120.4 53.9 119.2 C 53.9 119.2 53.9 119.2 53.9 119.2 C 53.9 117.2 55.8 116.6 58.1 116.6 C 59.1 116.6 59.8 116.6 60.1 116.6 C 60.1 116.6 60.1 116.1 60.1 116.1 C 60.1 115.2 59.7 114.3 57.8 114.3 C 56.2 114.3 55.8 115 55.6 115.8 C 55.58 115.84 55.6 115.8 55.6 115.8 L 54.4 115.8 C 54.4 115.8 54.37 115.84 54.4 115.8 C 54.5 114.8 55.2 113.3 57.8 113.3 C 60.6 113.3 61.3 114.7 61.3 116 C 61.3 116 61.3 119.6 61.3 119.6 Z M 60.1 117.5 C 59.8 117.5 59.3 117.5 58.1 117.5 C 56.1 117.5 55.1 117.9 55.1 119.1 C 55.1 119.1 55.1 119.1 55.1 119.1 C 55.1 120 55.8 120.8 57.2 120.8 C 59.6 120.8 60.1 119.3 60.1 117.9 C 60.1 117.9 60.1 117.5 60.1 117.5 Z M 63.1 113.5 L 64.7 113.5 L 64.7 110.9 L 66 110.9 L 66 113.5 L 68.1 113.5 L 68.1 114.5 L 66 114.5 C 66 114.5 65.96 119.22 66 119.2 C 66 120.2 66.2 120.6 67.1 120.6 C 67.4 120.6 67.7 120.6 68 120.6 C 68 120.6 68 121.5 68 121.5 C 67.6 121.6 67.2 121.6 66.8 121.6 C 65.2 121.6 64.7 120.9 64.7 119.3 C 64.75 119.34 64.7 114.5 64.7 114.5 L 63.1 114.5 L 63.1 113.5 Z M 70.7 119.1 C 70.7 119.1 70.69 119.13 70.7 119.1 C 71 120.2 71.9 120.8 73.5 120.8 C 75.1 120.8 75.8 120.2 75.8 119.4 C 75.8 118.6 75.3 118.1 73.2 117.9 C 70.4 117.5 69.9 116.6 69.9 115.6 C 69.9 114.6 70.7 113.3 73.2 113.3 C 75.9 113.3 76.7 114.8 76.7 115.7 C 76.73 115.66 76.7 115.7 76.7 115.7 L 75.5 115.7 C 75.5 115.7 75.5 115.66 75.5 115.7 C 75.4 115.1 75 114.3 73.1 114.3 C 71.4 114.3 71.1 115 71.1 115.5 C 71.1 116.2 71.5 116.6 73.4 116.8 C 76.4 117.2 77 118.1 77 119.3 C 77 120.7 75.9 121.8 73.4 121.8 C 71 121.8 69.7 120.8 69.5 119.1 C 69.46 119.13 69.5 119.1 69.5 119.1 L 70.7 119.1 Z M 91.6 119.6 C 91.6 120.4 91.7 121.4 91.7 121.6 C 91.7 121.6 90.6 121.6 90.6 121.6 C 90.5 121.2 90.5 120.6 90.5 120.3 C 90 121.2 89.1 121.8 87.4 121.8 C 85.1 121.8 84.3 120.4 84.3 119.2 C 84.3 119.2 84.3 119.2 84.3 119.2 C 84.3 117.2 86.1 116.6 88.4 116.6 C 89.5 116.6 90.2 116.6 90.4 116.6 C 90.4 116.6 90.4 116.1 90.4 116.1 C 90.4 115.2 90 114.3 88.2 114.3 C 86.5 114.3 86.1 115 85.9 115.8 C 85.93 115.84 85.9 115.8 85.9 115.8 L 84.7 115.8 C 84.7 115.8 84.72 115.84 84.7 115.8 C 84.8 114.8 85.5 113.3 88.2 113.3 C 90.9 113.3 91.6 114.7 91.6 116 C 91.6 116 91.6 119.6 91.6 119.6 Z M 90.4 117.5 C 90.2 117.5 89.6 117.5 88.4 117.5 C 86.4 117.5 85.5 117.9 85.5 119.1 C 85.5 119.1 85.5 119.1 85.5 119.1 C 85.5 120 86.1 120.8 87.6 120.8 C 89.9 120.8 90.4 119.3 90.4 117.9 C 90.4 117.9 90.4 117.5 90.4 117.5 Z M 95.7 120.2 C 95.75 120.25 95.7 125.1 95.7 125.1 L 94.5 125.1 C 94.5 125.1 94.54 115.53 94.5 115.5 C 94.5 114.9 94.5 114.2 94.5 113.5 C 94.5 113.5 95.7 113.5 95.7 113.5 C 95.7 113.8 95.7 114.3 95.7 115 C 96.2 114.1 97.2 113.3 98.9 113.3 C 101.1 113.3 102.7 115.1 102.7 117.4 C 102.7 117.4 102.7 117.4 102.7 117.4 C 102.7 120 100.9 121.8 98.7 121.8 C 96.9 121.8 96.2 121 95.7 120.2 Z M 101.4 117.4 C 101.4 117.4 101.4 117.4 101.4 117.4 C 101.4 115.9 100.6 114.4 98.6 114.4 C 96.6 114.4 95.7 115.8 95.7 117.6 C 95.7 117.6 95.7 117.6 95.7 117.6 C 95.7 119.4 96.7 120.7 98.6 120.7 C 100.5 120.7 101.4 119.1 101.4 117.4 Z M 106.3 120.2 C 106.26 120.25 106.3 125.1 106.3 125.1 L 105.1 125.1 C 105.1 125.1 105.05 115.53 105.1 115.5 C 105.1 114.9 105.1 114.2 105 113.5 C 105 113.5 106.2 113.5 106.2 113.5 C 106.2 113.8 106.3 114.3 106.3 115 C 106.7 114.1 107.7 113.3 109.4 113.3 C 111.6 113.3 113.2 115.1 113.2 117.4 C 113.2 117.4 113.2 117.4 113.2 117.4 C 113.2 120 111.4 121.8 109.2 121.8 C 107.4 121.8 106.7 121 106.3 120.2 Z M 111.9 117.4 C 111.9 117.4 111.9 117.4 111.9 117.4 C 111.9 115.9 111.1 114.4 109.1 114.4 C 107.1 114.4 106.2 115.8 106.2 117.6 C 106.2 117.6 106.2 117.6 106.2 117.6 C 106.2 119.4 107.2 120.7 109.1 120.7 C 111 120.7 111.9 119.1 111.9 117.4 Z M 122.4 119.6 C 122.4 120.4 122.4 121.4 122.5 121.6 C 122.5 121.6 121.3 121.6 121.3 121.6 C 121.2 121.2 121.2 120.6 121.2 120.3 C 120.8 121.2 119.9 121.8 118.1 121.8 C 115.8 121.8 115 120.4 115 119.2 C 115 119.2 115 119.2 115 119.2 C 115 117.2 116.9 116.6 119.2 116.6 C 120.2 116.6 120.9 116.6 121.2 116.6 C 121.2 116.6 121.2 116.1 121.2 116.1 C 121.2 115.2 120.8 114.3 118.9 114.3 C 117.3 114.3 116.9 115 116.7 115.8 C 116.68 115.84 116.7 115.8 116.7 115.8 L 115.5 115.8 C 115.5 115.8 115.47 115.84 115.5 115.8 C 115.6 114.8 116.3 113.3 118.9 113.3 C 121.7 113.3 122.4 114.7 122.4 116 C 122.4 116 122.4 119.6 122.4 119.6 Z M 121.2 117.5 C 120.9 117.5 120.4 117.5 119.2 117.5 C 117.2 117.5 116.2 117.9 116.2 119.1 C 116.2 119.1 116.2 119.1 116.2 119.1 C 116.2 120 116.9 120.8 118.3 120.8 C 120.7 120.8 121.2 119.3 121.2 117.9 C 121.2 117.9 121.2 117.5 121.2 117.5 Z M 125.3 115.7 C 125.3 115 125.3 114.2 125.3 113.5 C 125.3 113.5 126.4 113.5 126.4 113.5 C 126.5 113.7 126.5 114.6 126.5 115.4 C 127 114.1 128.3 113.3 129.8 113.3 C 129.8 113.3 129.8 114.5 129.8 114.5 C 127.9 114.5 126.5 115.7 126.5 118.1 C 126.5 118.08 126.5 121.6 126.5 121.6 L 125.3 121.6 C 125.3 121.6 125.29 115.7 125.3 115.7 Z M 138.4 119.6 C 138.4 120.4 138.5 121.4 138.5 121.6 C 138.5 121.6 137.4 121.6 137.4 121.6 C 137.3 121.2 137.3 120.6 137.3 120.3 C 136.8 121.2 135.9 121.8 134.2 121.8 C 131.9 121.8 131 120.4 131 119.2 C 131 119.2 131 119.2 131 119.2 C 131 117.2 132.9 116.6 135.2 116.6 C 136.3 116.6 137 116.6 137.2 116.6 C 137.2 116.6 137.2 116.1 137.2 116.1 C 137.2 115.2 136.8 114.3 135 114.3 C 133.3 114.3 132.9 115 132.7 115.8 C 132.72 115.84 132.7 115.8 132.7 115.8 L 131.5 115.8 C 131.5 115.8 131.51 115.84 131.5 115.8 C 131.6 114.8 132.3 113.3 135 113.3 C 137.7 113.3 138.4 114.7 138.4 116 C 138.4 116 138.4 119.6 138.4 119.6 Z M 137.2 117.5 C 137 117.5 136.4 117.5 135.2 117.5 C 133.2 117.5 132.3 117.9 132.3 119.1 C 132.3 119.1 132.3 119.1 132.3 119.1 C 132.3 120 132.9 120.8 134.4 120.8 C 136.7 120.8 137.2 119.3 137.2 117.9 C 137.2 117.9 137.2 117.5 137.2 117.5 Z M 141.3 113.5 L 142.5 113.5 L 142.5 121.6 L 141.3 121.6 L 141.3 113.5 Z M 141.3 109.5 L 142.5 109.5 L 142.5 111.3 L 141.3 111.3 L 141.3 109.5 Z M 146 119.1 C 146 119.1 145.98 119.13 146 119.1 C 146.3 120.2 147.2 120.8 148.8 120.8 C 150.4 120.8 151.1 120.2 151.1 119.4 C 151.1 118.6 150.6 118.1 148.5 117.9 C 145.7 117.5 145.1 116.6 145.1 115.6 C 145.1 114.6 145.9 113.3 148.5 113.3 C 151.2 113.3 151.9 114.8 152 115.7 C 152.02 115.66 152 115.7 152 115.7 L 150.8 115.7 C 150.8 115.7 150.79 115.66 150.8 115.7 C 150.7 115.1 150.3 114.3 148.4 114.3 C 146.7 114.3 146.4 115 146.4 115.5 C 146.4 116.2 146.8 116.6 148.7 116.8 C 151.7 117.2 152.3 118.1 152.3 119.3 C 152.3 120.7 151.2 121.8 148.7 121.8 C 146.3 121.8 145 120.8 144.7 119.1 C 144.75 119.13 144.7 119.1 144.7 119.1 L 146 119.1 Z M 155.3 119.1 C 155.3 119.1 155.31 119.13 155.3 119.1 C 155.6 120.2 156.5 120.8 158.1 120.8 C 159.8 120.8 160.4 120.2 160.4 119.4 C 160.4 118.6 160 118.1 157.8 117.9 C 155 117.5 154.5 116.6 154.5 115.6 C 154.5 114.6 155.3 113.3 157.8 113.3 C 160.5 113.3 161.3 114.8 161.3 115.7 C 161.35 115.66 161.3 115.7 161.3 115.7 L 160.1 115.7 C 160.1 115.7 160.12 115.66 160.1 115.7 C 160 115.1 159.7 114.3 157.7 114.3 C 156.1 114.3 155.7 115 155.7 115.5 C 155.7 116.2 156.1 116.6 158.1 116.8 C 161 117.2 161.6 118.1 161.6 119.3 C 161.6 120.7 160.5 121.8 158 121.8 C 155.6 121.8 154.4 120.8 154.1 119.1 C 154.07 119.13 154.1 119.1 154.1 119.1 L 155.3 119.1 Z M 164.6 117.8 C 164.6 117.8 164.63 117.81 164.6 117.8 C 164.7 119.5 165.9 120.8 167.6 120.8 C 169 120.8 169.7 120.2 170.2 119.3 C 170.2 119.32 170.2 119.3 170.2 119.3 L 171.4 119.3 C 171.4 119.3 171.41 119.32 171.4 119.3 C 171 120.5 169.9 121.8 167.5 121.8 C 164.8 121.8 163.4 119.7 163.4 117.6 C 163.4 117.6 163.4 117.6 163.4 117.6 C 163.4 115.1 165.1 113.3 167.5 113.3 C 170.5 113.3 171.5 115.5 171.5 117.5 C 171.5 117.6 171.5 117.7 171.5 117.8 C 171.53 117.81 164.6 117.8 164.6 117.8 Z M 170.3 116.9 C 170.3 116.9 170.25 116.88 170.3 116.9 C 170.2 115.8 169.6 114.3 167.5 114.3 C 165.7 114.3 164.8 115.4 164.7 116.9 C 164.67 116.88 164.7 116.9 164.7 116.9 L 170.3 116.9 Z M 173.9 115.5 C 173.9 114.9 173.9 114.1 173.9 113.5 C 173.9 113.5 175 113.5 175 113.5 C 175.1 113.8 175.1 114.5 175.1 115.1 C 175.4 114.3 176.3 113.3 178.1 113.3 C 179.9 113.3 181.2 114.4 181.2 116.7 C 181.18 116.68 181.2 121.6 181.2 121.6 L 180 121.6 C 180 121.6 179.97 116.91 180 116.9 C 180 115.5 179.4 114.4 177.8 114.4 C 176 114.4 175.1 115.8 175.1 117.7 C 175.1 117.75 175.1 121.6 175.1 121.6 L 173.9 121.6 C 173.9 121.6 173.89 115.54 173.9 115.5 Z M 182.9 113.5 L 184.6 113.5 L 184.6 110.9 L 185.8 110.9 L 185.8 113.5 L 187.9 113.5 L 187.9 114.5 L 185.8 114.5 C 185.8 114.5 185.77 119.22 185.8 119.2 C 185.8 120.2 186 120.6 186.9 120.6 C 187.2 120.6 187.5 120.6 187.8 120.6 C 187.8 120.6 187.8 121.5 187.8 121.5 C 187.4 121.6 187 121.6 186.6 121.6 C 185 121.6 184.6 120.9 184.6 119.3 C 184.56 119.34 184.6 114.5 184.6 114.5 L 182.9 114.5 L 182.9 113.5 Z M 196.1 117.8 C 196.1 117.8 196.08 117.81 196.1 117.8 C 196.2 119.5 197.3 120.8 199.1 120.8 C 200.4 120.8 201.2 120.2 201.6 119.3 C 201.65 119.32 201.6 119.3 201.6 119.3 L 202.9 119.3 C 202.9 119.3 202.85 119.32 202.9 119.3 C 202.4 120.5 201.3 121.8 199 121.8 C 196.2 121.8 194.9 119.7 194.9 117.6 C 194.9 117.6 194.9 117.6 194.9 117.6 C 194.9 115.1 196.5 113.3 198.9 113.3 C 202 113.3 203 115.5 203 117.5 C 203 117.6 203 117.7 203 117.8 C 202.97 117.81 196.1 117.8 196.1 117.8 Z M 201.7 116.9 C 201.7 116.9 201.7 116.88 201.7 116.9 C 201.6 115.8 201.1 114.3 198.9 114.3 C 197.2 114.3 196.3 115.4 196.1 116.9 C 196.11 116.88 196.1 116.9 196.1 116.9 L 201.7 116.9 Z M 205.3 115.5 C 205.3 114.9 205.3 114.1 205.3 113.5 C 205.3 113.5 206.5 113.5 206.5 113.5 C 206.5 113.8 206.5 114.5 206.5 115.1 C 206.9 114.3 207.8 113.3 209.5 113.3 C 211.4 113.3 212.6 114.4 212.6 116.7 C 212.63 116.68 212.6 121.6 212.6 121.6 L 211.4 121.6 C 211.4 121.6 211.41 116.91 211.4 116.9 C 211.4 115.5 210.9 114.4 209.3 114.4 C 207.4 114.4 206.5 115.8 206.5 117.7 C 206.54 117.75 206.5 121.6 206.5 121.6 L 205.3 121.6 C 205.3 121.6 205.33 115.54 205.3 115.5 Z M 228.6 120.5 C 228.6 123.5 227.7 125.3 224.4 125.3 C 221.4 125.3 220.7 123.6 220.5 122.6 C 220.54 122.62 220.5 122.6 220.5 122.6 L 221.8 122.6 C 221.8 122.6 221.78 122.62 221.8 122.6 C 222 123.5 222.7 124.3 224.5 124.3 C 227 124.3 227.4 122.7 227.4 120.5 C 227.4 120.5 227.4 120 227.4 120 C 226.9 121.1 226 121.7 224.3 121.7 C 222 121.7 220.4 119.9 220.4 117.6 C 220.4 117.6 220.4 117.6 220.4 117.6 C 220.4 115 222.3 113.3 224.5 113.3 C 226.4 113.3 227.2 114.2 227.4 114.8 C 227.4 114.4 227.4 113.7 227.5 113.5 C 227.5 113.5 228.6 113.5 228.6 113.5 C 228.6 114.3 228.6 115.1 228.6 115.8 C 228.6 115.8 228.6 120.5 228.6 120.5 Z M 221.7 117.6 C 221.7 117.6 221.7 117.6 221.7 117.6 C 221.7 119.4 222.9 120.6 224.6 120.6 C 226.4 120.6 227.4 119.5 227.4 117.5 C 227.4 117.5 227.4 117.5 227.4 117.5 C 227.4 115.4 226.4 114.4 224.6 114.4 C 222.6 114.4 221.7 116 221.7 117.6 Z M 231.5 115.7 C 231.5 115 231.5 114.2 231.5 113.5 C 231.5 113.5 232.7 113.5 232.7 113.5 C 232.7 113.7 232.7 114.6 232.7 115.4 C 233.3 114.1 234.5 113.3 236 113.3 C 236 113.3 236 114.5 236 114.5 C 234.2 114.5 232.7 115.7 232.7 118.1 C 232.74 118.08 232.7 121.6 232.7 121.6 L 231.5 121.6 C 231.5 121.6 231.53 115.7 231.5 115.7 Z M 244.7 119.6 C 244.7 120.4 244.7 121.4 244.7 121.6 C 244.7 121.6 243.6 121.6 243.6 121.6 C 243.5 121.2 243.5 120.6 243.5 120.3 C 243.1 121.2 242.2 121.8 240.4 121.8 C 238.1 121.8 237.3 120.4 237.3 119.2 C 237.3 119.2 237.3 119.2 237.3 119.2 C 237.3 117.2 239.2 116.6 241.4 116.6 C 242.5 116.6 243.2 116.6 243.5 116.6 C 243.5 116.6 243.5 116.1 243.5 116.1 C 243.5 115.2 243.1 114.3 241.2 114.3 C 239.5 114.3 239.1 115 239 115.8 C 238.96 115.84 239 115.8 239 115.8 L 237.8 115.8 C 237.8 115.8 237.75 115.84 237.8 115.8 C 237.9 114.8 238.6 113.3 241.2 113.3 C 244 113.3 244.7 114.7 244.7 116 C 244.7 116 244.7 119.6 244.7 119.6 Z M 243.5 117.5 C 243.2 117.5 242.7 117.5 241.5 117.5 C 239.5 117.5 238.5 117.9 238.5 119.1 C 238.5 119.1 238.5 119.1 238.5 119.1 C 238.5 120 239.1 120.8 240.6 120.8 C 242.9 120.8 243.5 119.3 243.5 117.9 C 243.5 117.9 243.5 117.5 243.5 117.5 Z M 248.8 120.2 C 248.78 120.25 248.8 125.1 248.8 125.1 L 247.6 125.1 C 247.6 125.1 247.57 115.53 247.6 115.5 C 247.6 114.9 247.6 114.2 247.6 113.5 C 247.6 113.5 248.7 113.5 248.7 113.5 C 248.8 113.8 248.8 114.3 248.8 115 C 249.3 114.1 250.2 113.3 252 113.3 C 254.2 113.3 255.7 115.1 255.7 117.4 C 255.7 117.4 255.7 117.4 255.7 117.4 C 255.7 120 253.9 121.8 251.7 121.8 C 250 121.8 249.2 121 248.8 120.2 Z M 254.5 117.4 C 254.5 117.4 254.5 117.4 254.5 117.4 C 254.5 115.9 253.6 114.4 251.6 114.4 C 249.6 114.4 248.7 115.8 248.7 117.6 C 248.7 117.6 248.7 117.6 248.7 117.6 C 248.7 119.4 249.7 120.7 251.6 120.7 C 253.5 120.7 254.5 119.1 254.5 117.4 Z M 259.3 109.5 C 259.3 109.5 259.31 115.09 259.3 115.1 C 259.6 114.5 260.3 113.3 262.4 113.3 C 264.2 113.3 265.4 114.4 265.4 116.7 C 265.4 116.69 265.4 121.6 265.4 121.6 L 264.2 121.6 C 264.2 121.6 264.19 116.9 264.2 116.9 C 264.2 115.5 263.6 114.4 262 114.4 C 260.2 114.4 259.3 115.9 259.3 117.6 C 259.31 117.58 259.3 121.6 259.3 121.6 L 258.1 121.6 L 258.1 109.5 L 259.3 109.5 Z M 268.3 113.5 L 269.5 113.5 L 269.5 121.6 L 268.3 121.6 L 268.3 113.5 Z M 268.3 109.5 L 269.5 109.5 L 269.5 111.3 L 268.3 111.3 L 268.3 109.5 Z M 272.9 119.1 C 272.9 119.1 272.95 119.13 272.9 119.1 C 273.3 120.2 274.2 120.8 275.7 120.8 C 277.4 120.8 278 120.2 278 119.4 C 278 118.6 277.6 118.1 275.4 117.9 C 272.7 117.5 272.1 116.6 272.1 115.6 C 272.1 114.6 272.9 113.3 275.4 113.3 C 278.2 113.3 278.9 114.8 279 115.7 C 278.99 115.66 279 115.7 279 115.7 L 277.8 115.7 C 277.8 115.7 277.76 115.66 277.8 115.7 C 277.6 115.1 277.3 114.3 275.3 114.3 C 273.7 114.3 273.3 115 273.3 115.5 C 273.3 116.2 273.8 116.6 275.7 116.8 C 278.6 117.2 279.3 118.1 279.3 119.3 C 279.3 120.7 278.2 121.8 275.7 121.8 C 273.3 121.8 272 120.8 271.7 119.1 C 271.72 119.13 271.7 119.1 271.7 119.1 L 272.9 119.1 Z M 281.6 115.6 C 281.6 114.9 281.6 114.2 281.6 113.5 C 281.6 113.5 282.8 113.5 282.8 113.5 C 282.8 113.8 282.8 114.3 282.8 114.8 C 283.2 114.1 284 113.3 285.5 113.3 C 286.8 113.3 287.6 113.9 288 114.9 C 288.4 114.2 289.1 113.3 290.7 113.3 C 292.3 113.3 293.6 114.2 293.6 116.6 C 293.59 116.55 293.6 121.6 293.6 121.6 L 292.4 121.6 C 292.4 121.6 292.38 116.61 292.4 116.6 C 292.4 115.6 292.1 114.3 290.5 114.3 C 289.1 114.3 288.2 115.3 288.2 117.2 C 288.22 117.16 288.2 121.6 288.2 121.6 L 287 121.6 C 287 121.6 287.01 116.52 287 116.5 C 287 115.5 286.7 114.3 285.1 114.3 C 283.5 114.3 282.8 115.7 282.8 117.3 C 282.84 117.3 282.8 121.6 282.8 121.6 L 281.6 121.6 C 281.6 121.6 281.64 115.59 281.6 115.6 Z M 297.2 117.8 C 297.2 117.8 297.19 117.81 297.2 117.8 C 297.3 119.5 298.4 120.8 300.2 120.8 C 301.5 120.8 302.3 120.2 302.8 119.3 C 302.76 119.32 302.8 119.3 302.8 119.3 L 304 119.3 C 304 119.3 303.97 119.32 304 119.3 C 303.6 120.5 302.4 121.8 300.1 121.8 C 297.3 121.8 296 119.7 296 117.6 C 296 117.6 296 117.6 296 117.6 C 296 115.1 297.6 113.3 300 113.3 C 303.1 113.3 304.1 115.5 304.1 117.5 C 304.1 117.6 304.1 117.7 304.1 117.8 C 304.09 117.81 297.2 117.8 297.2 117.8 Z M 302.8 116.9 C 302.8 116.9 302.81 116.88 302.8 116.9 C 302.7 115.8 302.2 114.3 300 114.3 C 298.3 114.3 297.4 115.4 297.2 116.9 C 297.22 116.88 297.2 116.9 297.2 116.9 L 302.8 116.9 Z M 319.4 109.5 C 319.4 109.5 319.4 119.2 319.4 119.2 C 319.4 120 319.4 120.8 319.4 121.6 C 319.4 121.6 318.2 121.6 318.2 121.6 C 318.2 121.2 318.2 120.7 318.2 120.2 C 317.8 121 317.1 121.8 315.1 121.8 C 312.8 121.8 311.2 120 311.2 117.6 C 311.2 117.6 311.2 117.6 311.2 117.6 C 311.2 115 313.2 113.3 315.3 113.3 C 317.3 113.3 318 114.2 318.2 114.6 C 318.18 114.65 318.2 109.5 318.2 109.5 L 319.4 109.5 Z M 312.5 117.6 C 312.5 117.6 312.5 117.6 312.5 117.6 C 312.5 119.1 313.4 120.7 315.3 120.7 C 317.4 120.7 318.2 119.4 318.2 117.5 C 318.2 117.5 318.2 117.5 318.2 117.5 C 318.2 115.6 317.6 114.3 315.4 114.3 C 313.4 114.3 312.5 116 312.5 117.6 Z M 329.2 119.6 C 329.2 120.4 329.2 121.4 329.2 121.6 C 329.2 121.6 328.1 121.6 328.1 121.6 C 328 121.2 328 120.6 328 120.3 C 327.6 121.2 326.7 121.8 324.9 121.8 C 322.6 121.8 321.8 120.4 321.8 119.2 C 321.8 119.2 321.8 119.2 321.8 119.2 C 321.8 117.2 323.7 116.6 325.9 116.6 C 327 116.6 327.7 116.6 328 116.6 C 328 116.6 328 116.1 328 116.1 C 328 115.2 327.6 114.3 325.7 114.3 C 324 114.3 323.6 115 323.5 115.8 C 323.46 115.84 323.5 115.8 323.5 115.8 L 322.2 115.8 C 322.2 115.8 322.25 115.84 322.2 115.8 C 322.4 114.8 323.1 113.3 325.7 113.3 C 328.5 113.3 329.2 114.7 329.2 116 C 329.2 116 329.2 119.6 329.2 119.6 Z M 328 117.5 C 327.7 117.5 327.2 117.5 326 117.5 C 324 117.5 323 117.9 323 119.1 C 323 119.1 323 119.1 323 119.1 C 323 120 323.6 120.8 325.1 120.8 C 327.4 120.8 328 119.3 328 117.9 C 328 117.9 328 117.5 328 117.5 Z M 332.1 115.5 C 332.1 114.9 332.1 114.1 332.1 113.5 C 332.1 113.5 333.2 113.5 333.2 113.5 C 333.3 113.8 333.3 114.5 333.3 115.1 C 333.6 114.3 334.5 113.3 336.3 113.3 C 338.1 113.3 339.4 114.4 339.4 116.7 C 339.37 116.68 339.4 121.6 339.4 121.6 L 338.2 121.6 C 338.2 121.6 338.15 116.91 338.2 116.9 C 338.2 115.5 337.6 114.4 336 114.4 C 334.2 114.4 333.3 115.8 333.3 117.7 C 333.28 117.75 333.3 121.6 333.3 121.6 L 332.1 121.6 C 332.1 121.6 332.07 115.54 332.1 115.5 Z M 342.8 119.1 C 342.8 119.1 342.76 119.13 342.8 119.1 C 343.1 120.2 344 120.8 345.5 120.8 C 347.2 120.8 347.8 120.2 347.8 119.4 C 347.8 118.6 347.4 118.1 345.2 117.9 C 342.5 117.5 341.9 116.6 341.9 115.6 C 341.9 114.6 342.7 113.3 345.2 113.3 C 348 113.3 348.7 114.8 348.8 115.7 C 348.8 115.66 348.8 115.7 348.8 115.7 L 347.6 115.7 C 347.6 115.7 347.58 115.66 347.6 115.7 C 347.5 115.1 347.1 114.3 345.2 114.3 C 343.5 114.3 343.2 115 343.2 115.5 C 343.2 116.2 343.6 116.6 345.5 116.8 C 348.5 117.2 349.1 118.1 349.1 119.3 C 349.1 120.7 348 121.8 345.5 121.8 C 343.1 121.8 341.8 120.8 341.5 119.1 C 341.53 119.13 341.5 119.1 341.5 119.1 L 342.8 119.1 Z M 356.9 121.6 L 356.9 109.5 L 358.1 109.5 L 358.1 121.6 L 356.9 121.6 Z M 367.9 119.6 C 367.9 120.4 368 121.4 368 121.6 C 368 121.6 366.8 121.6 366.8 121.6 C 366.8 121.2 366.7 120.6 366.7 120.3 C 366.3 121.2 365.4 121.8 363.6 121.8 C 361.3 121.8 360.5 120.4 360.5 119.2 C 360.5 119.2 360.5 119.2 360.5 119.2 C 360.5 117.2 362.4 116.6 364.7 116.6 C 365.7 116.6 366.4 116.6 366.7 116.6 C 366.7 116.6 366.7 116.1 366.7 116.1 C 366.7 115.2 366.3 114.3 364.4 114.3 C 362.8 114.3 362.4 115 362.2 115.8 C 362.2 115.84 362.2 115.8 362.2 115.8 L 361 115.8 C 361 115.8 360.99 115.84 361 115.8 C 361.1 114.8 361.8 113.3 364.4 113.3 C 367.2 113.3 367.9 114.7 367.9 116 C 367.9 116 367.9 119.6 367.9 119.6 Z M 366.7 117.5 C 366.4 117.5 365.9 117.5 364.7 117.5 C 362.7 117.5 361.7 117.9 361.7 119.1 C 361.7 119.1 361.7 119.1 361.7 119.1 C 361.7 120 362.4 120.8 363.8 120.8 C 366.2 120.8 366.7 119.3 366.7 117.9 C 366.7 117.9 366.7 117.5 366.7 117.5 Z M 376.9 121.6 L 376.9 114.5 L 375.3 114.5 L 375.3 113.5 L 376.9 113.5 C 376.9 113.5 376.86 112.31 376.9 112.3 C 376.9 110.5 377.6 109.4 379.4 109.4 C 379.8 109.4 380.1 109.4 380.3 109.5 C 380.3 109.5 380.3 110.5 380.3 110.5 C 380.1 110.5 379.8 110.4 379.6 110.4 C 378.4 110.4 378.1 111 378.1 112.4 C 378.07 112.41 378.1 113.5 378.1 113.5 L 380 113.5 L 380 114.5 L 378.1 114.5 L 378.1 121.6 L 376.9 121.6 Z M 389.4 117.5 C 389.4 117.5 389.4 117.5 389.4 117.5 C 389.4 119.7 388.1 121.8 385.2 121.8 C 382.5 121.8 381 119.8 381 117.5 C 381 117.5 381 117.5 381 117.5 C 381 115.2 382.7 113.3 385.3 113.3 C 387.9 113.3 389.4 115.4 389.4 117.5 Z M 382.3 117.5 C 382.3 117.5 382.3 117.5 382.3 117.5 C 382.3 119.2 383.3 120.7 385.2 120.7 C 387.2 120.7 388.2 119.3 388.2 117.6 C 388.2 117.6 388.2 117.6 388.2 117.6 C 388.2 115.8 387.1 114.3 385.2 114.3 C 383.2 114.3 382.3 115.8 382.3 117.5 Z M 398.9 119.2 C 398.9 120 398.9 120.8 399 121.6 C 399 121.6 397.8 121.6 397.8 121.6 C 397.8 121.3 397.7 120.7 397.7 120.1 C 397.3 121.1 396.6 121.8 394.8 121.8 C 393.1 121.8 391.8 120.9 391.8 118.5 C 391.76 118.53 391.8 113.5 391.8 113.5 L 393 113.5 C 393 113.5 392.97 118.29 393 118.3 C 393 119.6 393.5 120.7 395 120.7 C 396.9 120.7 397.7 119.6 397.7 117.1 C 397.73 117.13 397.7 113.5 397.7 113.5 L 398.9 113.5 C 398.9 113.5 398.94 119.21 398.9 119.2 Z M 401.9 121.6 L 401.9 109.5 L 403.1 109.5 L 403.1 121.6 L 401.9 121.6 Z M 406.7 117.8 C 406.7 117.8 406.68 117.81 406.7 117.8 C 406.8 119.5 407.9 120.8 409.7 120.8 C 411 120.8 411.8 120.2 412.2 119.3 C 412.25 119.32 412.2 119.3 412.2 119.3 L 413.5 119.3 C 413.5 119.3 413.46 119.32 413.5 119.3 C 413 120.5 411.9 121.8 409.6 121.8 C 406.8 121.8 405.5 119.7 405.5 117.6 C 405.5 117.6 405.5 117.6 405.5 117.6 C 405.5 115.1 407.1 113.3 409.5 113.3 C 412.6 113.3 413.6 115.5 413.6 117.5 C 413.6 117.6 413.6 117.7 413.6 117.8 C 413.58 117.81 406.7 117.8 406.7 117.8 Z M 412.3 116.9 C 412.3 116.9 412.3 116.88 412.3 116.9 C 412.2 115.8 411.7 114.3 409.5 114.3 C 407.8 114.3 406.9 115.4 406.7 116.9 C 406.71 116.88 406.7 116.9 406.7 116.9 L 412.3 116.9 Z M 412.2 109.3 L 409.6 111.9 L 408.4 111.9 L 410.7 109.3 L 412.2 109.3 Z M 416.6 117.8 C 416.6 117.8 416.63 117.81 416.6 117.8 C 416.7 119.5 417.9 120.8 419.6 120.8 C 421 120.8 421.7 120.2 422.2 119.3 C 422.2 119.32 422.2 119.3 422.2 119.3 L 423.4 119.3 C 423.4 119.3 423.41 119.32 423.4 119.3 C 423 120.5 421.9 121.8 419.5 121.8 C 416.8 121.8 415.4 119.7 415.4 117.6 C 415.4 117.6 415.4 117.6 415.4 117.6 C 415.4 115.1 417.1 113.3 419.5 113.3 C 422.5 113.3 423.5 115.5 423.5 117.5 C 423.5 117.6 423.5 117.7 423.5 117.8 C 423.53 117.81 416.6 117.8 416.6 117.8 Z M 422.3 116.9 C 422.3 116.9 422.25 116.88 422.3 116.9 C 422.2 115.8 421.6 114.3 419.5 114.3 C 417.7 114.3 416.8 115.4 416.7 116.9 C 416.67 116.88 416.7 116.9 416.7 116.9 L 422.3 116.9 Z M 438.8 109.5 C 438.8 109.5 438.84 119.2 438.8 119.2 C 438.8 120 438.8 120.8 438.9 121.6 C 438.9 121.6 437.7 121.6 437.7 121.6 C 437.6 121.2 437.6 120.7 437.6 120.2 C 437.2 121 436.5 121.8 434.6 121.8 C 432.2 121.8 430.7 120 430.7 117.6 C 430.7 117.6 430.7 117.6 430.7 117.6 C 430.7 115 432.6 113.3 434.8 113.3 C 436.7 113.3 437.4 114.2 437.6 114.6 C 437.63 114.65 437.6 109.5 437.6 109.5 L 438.8 109.5 Z M 431.9 117.6 C 431.9 117.6 431.9 117.6 431.9 117.6 C 431.9 119.1 432.9 120.7 434.8 120.7 C 436.9 120.7 437.7 119.4 437.7 117.5 C 437.7 117.5 437.7 117.5 437.7 117.5 C 437.7 115.6 437 114.3 434.8 114.3 C 432.9 114.3 431.9 116 431.9 117.6 Z M 442.4 117.8 C 442.4 117.8 442.43 117.81 442.4 117.8 C 442.5 119.5 443.7 120.8 445.4 120.8 C 446.8 120.8 447.5 120.2 448 119.3 C 448 119.32 448 119.3 448 119.3 L 449.2 119.3 C 449.2 119.3 449.21 119.32 449.2 119.3 C 448.8 120.5 447.7 121.8 445.3 121.8 C 442.6 121.8 441.2 119.7 441.2 117.6 C 441.2 117.6 441.2 117.6 441.2 117.6 C 441.2 115.1 442.9 113.3 445.3 113.3 C 448.3 113.3 449.3 115.5 449.3 117.5 C 449.3 117.6 449.3 117.7 449.3 117.8 C 449.33 117.81 442.4 117.8 442.4 117.8 Z M 448.1 116.9 C 448.1 116.9 448.05 116.88 448.1 116.9 C 448 115.8 447.4 114.3 445.3 114.3 C 443.5 114.3 442.6 115.4 442.5 116.9 C 442.46 116.88 442.5 116.9 442.5 116.9 L 448.1 116.9 Z " stroke="none" fill="#141414"/>  </g></svg>