<?xml version="1.0" standalone="no"?><!DOCTYPE svg PUBLIC "-//W3C//DTD SVG 1.1//EN" "http://www.w3.org/Graphics/SVG/1.1/DTD/svg11.dtd"><svg xmlns="http://www.w3.org/2000/svg" version="1.1" width="90px" height="14.8px" viewBox="0 -2 90 14.8" style="top:-2px">  <desc>Page</desc>  <defs/>  <g id="Polygon10905">    <path d="M 41.8 3.3 L 40.7 4 L 41.1 2.5 L 42.5 1.6 L 43.9 1.6 L 42.8 6.5 L 41.2 6.5 L 41.8 3.3 Z M 46.9 6.6 C 46.5 6.6 46.2 6.5 46 6.4 C 45.7 6.2 45.5 6 45.4 5.8 C 45.2 5.5 45.1 5.2 45.1 4.8 C 45.1 4.7 45.2 4.5 45.2 4.3 C 45.3 3.7 45.5 3.2 45.9 2.8 C 46.2 2.4 46.6 2 47 1.8 C 47.4 1.6 47.9 1.5 48.4 1.5 C 48.8 1.5 49.1 1.6 49.4 1.7 C 49.4 1.7 49.1 3 49.1 3 C 48.9 2.9 48.6 2.8 48.2 2.8 C 48 2.8 47.8 2.8 47.5 2.9 C 47.3 3.1 47.2 3.2 47.1 3.4 C 47.2 3.3 47.4 3.3 47.6 3.2 C 47.8 3.2 48 3.2 48.2 3.2 C 48.5 3.2 48.9 3.3 49.1 3.5 C 49.3 3.7 49.4 4 49.4 4.4 C 49.4 4.5 49.4 4.7 49.4 4.8 C 49.3 5.1 49.2 5.4 49 5.7 C 48.7 6 48.5 6.2 48.1 6.4 C 47.7 6.5 47.3 6.6 46.9 6.6 C 46.9 6.6 46.9 6.6 46.9 6.6 Z M 47.1 5.4 C 47.3 5.4 47.4 5.3 47.5 5.2 C 47.6 5.2 47.7 5 47.7 4.9 C 47.7 4.8 47.7 4.8 47.7 4.7 C 47.7 4.5 47.6 4.4 47.3 4.4 C 47.2 4.4 47.1 4.4 47 4.5 C 46.9 4.6 46.8 4.7 46.8 4.9 C 46.8 4.9 46.8 5 46.8 5 C 46.8 5.1 46.8 5.2 46.9 5.3 C 46.9 5.3 47 5.4 47.1 5.4 C 47.1 5.4 47.1 5.4 47.1 5.4 Z " stroke="none" fill="#fafafa"/>  </g></svg>