<?xml version="1.0" standalone="no"?><!DOCTYPE svg PUBLIC "-//W3C//DTD SVG 1.1//EN" "http://www.w3.org/Graphics/SVG/1.1/DTD/svg11.dtd"><svg xmlns="http://www.w3.org/2000/svg" version="1.1" width="495px" height="95px" viewBox="0 -1 495 95" style="top:-1px">  <desc>rani boudarene</desc>  <defs/>  <g id="Polygon9073">    <path d="M 403.3 43 C 403.3 43 405.56 42.98 405.6 43 C 406.2 43 406.6 43.1 406.9 43.4 C 407.3 43.7 407.4 44.1 407.4 44.7 C 407.4 45.1 407.3 45.4 407.1 45.7 C 406.9 46 406.6 46.2 406.2 46.3 C 406.16 46.3 407.4 48.6 407.4 48.6 L 406.5 48.6 L 405.4 46.4 L 404.1 46.4 L 404.1 48.6 L 403.3 48.6 L 403.3 43 Z M 405.4 45.7 C 405.8 45.7 406.1 45.6 406.3 45.4 C 406.5 45.3 406.6 45 406.6 44.7 C 406.6 44.3 406.5 44.1 406.3 43.9 C 406.1 43.7 405.8 43.7 405.4 43.7 C 405.43 43.67 404.1 43.7 404.1 43.7 L 404.1 45.7 C 404.1 45.7 405.43 45.68 405.4 45.7 Z M 412.1 43 L 412.9 43 L 415.1 48.6 L 414.3 48.6 L 413.7 47.2 L 411.3 47.2 L 410.7 48.6 L 409.9 48.6 L 412.1 43 Z M 413.5 46.5 L 412.5 43.9 L 411.5 46.5 L 413.5 46.5 Z M 417.7 43 L 418.5 43 L 421.3 47.2 L 421.3 43 L 422.1 43 L 422.1 48.6 L 421.3 48.6 L 418.5 44.4 L 418.5 48.6 L 417.7 48.6 L 417.7 43 Z M 425.1 43 L 425.9 43 L 425.9 48.6 L 425.1 48.6 L 425.1 43 Z M 433.1 43 C 433.1 43 435.64 42.98 435.6 43 C 436.1 43 436.5 43.1 436.8 43.4 C 437.1 43.6 437.2 44 437.2 44.5 C 437.2 44.8 437.1 45 437 45.2 C 436.9 45.4 436.7 45.6 436.5 45.7 C 437.1 45.9 437.4 46.3 437.4 47 C 437.4 47.3 437.3 47.6 437.2 47.8 C 437 48.1 436.8 48.3 436.6 48.4 C 436.3 48.5 436.1 48.6 435.8 48.6 C 435.78 48.57 433.1 48.6 433.1 48.6 L 433.1 43 Z M 435.5 45.4 C 435.8 45.4 436 45.3 436.2 45.2 C 436.3 45 436.4 44.8 436.4 44.5 C 436.4 44.2 436.3 44 436.2 43.8 C 436 43.7 435.8 43.6 435.5 43.6 C 435.48 43.65 433.9 43.6 433.9 43.6 L 433.9 45.4 C 433.9 45.4 435.54 45.38 435.5 45.4 Z M 435.6 47.9 C 435.9 47.9 436.1 47.8 436.3 47.7 C 436.5 47.6 436.6 47.3 436.6 47 C 436.6 46.7 436.5 46.4 436.3 46.3 C 436.1 46.1 435.9 46.1 435.5 46.1 C 435.52 46.05 433.9 46.1 433.9 46.1 L 433.9 47.9 C 433.9 47.9 435.59 47.91 435.6 47.9 Z M 442.8 48.7 C 442.2 48.7 441.7 48.6 441.3 48.3 C 440.8 48.1 440.5 47.7 440.2 47.3 C 440 46.9 439.9 46.4 439.9 45.8 C 439.9 45.2 440 44.7 440.2 44.3 C 440.5 43.8 440.8 43.5 441.3 43.2 C 441.7 43 442.2 42.9 442.8 42.9 C 443.4 42.9 443.9 43 444.3 43.2 C 444.7 43.5 445.1 43.8 445.4 44.3 C 445.6 44.7 445.7 45.2 445.7 45.8 C 445.7 46.4 445.6 46.9 445.4 47.3 C 445.1 47.7 444.7 48.1 444.3 48.3 C 443.9 48.6 443.4 48.7 442.8 48.7 C 442.8 48.7 442.8 48.7 442.8 48.7 Z M 442.8 48 C 443.2 48 443.6 47.9 443.9 47.7 C 444.2 47.5 444.5 47.3 444.6 46.9 C 444.8 46.6 444.9 46.2 444.9 45.8 C 444.9 45.4 444.8 45 444.6 44.6 C 444.5 44.3 444.2 44.1 443.9 43.9 C 443.6 43.7 443.2 43.6 442.8 43.6 C 442.4 43.6 442.1 43.7 441.7 43.9 C 441.4 44.1 441.2 44.3 441 44.6 C 440.8 45 440.7 45.4 440.7 45.8 C 440.7 46.2 440.8 46.6 441 46.9 C 441.1 47.3 441.4 47.5 441.7 47.7 C 442 47.9 442.4 48 442.8 48 C 442.8 48 442.8 48 442.8 48 Z M 450.7 48.7 C 449.9 48.7 449.4 48.5 449 48.1 C 448.6 47.7 448.4 47.2 448.4 46.5 C 448.4 46.49 448.4 43 448.4 43 L 449.2 43 C 449.2 43 449.21 46.52 449.2 46.5 C 449.2 47 449.3 47.4 449.6 47.6 C 449.9 47.8 450.2 48 450.7 48 C 451.2 48 451.5 47.8 451.8 47.6 C 452.1 47.4 452.2 47 452.2 46.5 C 452.2 46.52 452.2 43 452.2 43 L 453 43 C 453 43 453.01 46.49 453 46.5 C 453 47.2 452.8 47.7 452.4 48.1 C 452 48.5 451.5 48.7 450.7 48.7 C 450.7 48.7 450.7 48.7 450.7 48.7 Z M 455.9 43 C 455.9 43 457.7 42.98 457.7 43 C 458.3 43 458.8 43.1 459.3 43.3 C 459.7 43.5 460.1 43.9 460.3 44.3 C 460.5 44.7 460.6 45.2 460.6 45.8 C 460.6 46.7 460.4 47.4 459.8 47.9 C 459.3 48.3 458.6 48.6 457.6 48.6 C 457.59 48.57 455.9 48.6 455.9 48.6 L 455.9 43 Z M 457.6 47.9 C 458.3 47.9 458.9 47.7 459.3 47.3 C 459.6 47 459.8 46.4 459.8 45.8 C 459.8 45.1 459.6 44.6 459.3 44.2 C 458.9 43.9 458.4 43.7 457.7 43.7 C 457.71 43.67 456.7 43.7 456.7 43.7 L 456.7 47.9 C 456.7 47.9 457.58 47.89 457.6 47.9 Z M 465 43 L 465.8 43 L 468 48.6 L 467.2 48.6 L 466.6 47.2 L 464.1 47.2 L 463.6 48.6 L 462.8 48.6 L 465 43 Z M 466.4 46.5 L 465.4 43.9 L 464.4 46.5 L 466.4 46.5 Z M 470.6 43 C 470.6 43 472.8 42.98 472.8 43 C 473.4 43 473.9 43.1 474.2 43.4 C 474.5 43.7 474.7 44.1 474.7 44.7 C 474.7 45.1 474.5 45.4 474.3 45.7 C 474.1 46 473.8 46.2 473.4 46.3 C 473.4 46.3 474.6 48.6 474.6 48.6 L 473.8 48.6 L 472.6 46.4 L 471.4 46.4 L 471.4 48.6 L 470.6 48.6 L 470.6 43 Z M 472.7 45.7 C 473 45.7 473.3 45.6 473.5 45.4 C 473.7 45.3 473.8 45 473.8 44.7 C 473.8 44.3 473.7 44.1 473.5 43.9 C 473.3 43.7 473 43.7 472.7 43.7 C 472.67 43.67 471.4 43.7 471.4 43.7 L 471.4 45.7 C 471.4 45.7 472.67 45.68 472.7 45.7 Z M 477.4 43 L 481.1 43 L 481.1 43.7 L 478.2 43.7 L 478.2 45.4 L 480.3 45.4 L 480.3 46.1 L 478.2 46.1 L 478.2 47.9 L 481.1 47.9 L 481.1 48.6 L 477.4 48.6 L 477.4 43 Z M 483.6 43 L 484.4 43 L 487.2 47.2 L 487.2 43 L 488.1 43 L 488.1 48.6 L 487.3 48.6 L 484.4 44.4 L 484.4 48.6 L 483.6 48.6 L 483.6 43 Z M 491 43 L 494.7 43 L 494.7 43.7 L 491.8 43.7 L 491.8 45.4 L 494 45.4 L 494 46.1 L 491.8 46.1 L 491.8 47.9 L 494.7 47.9 L 494.7 48.6 L 491 48.6 L 491 43 Z " stroke="none" fill="#141414"/>  </g></svg>