<?xml version="1.0" standalone="no"?><!DOCTYPE svg PUBLIC "-//W3C//DTD SVG 1.1//EN" "http://www.w3.org/Graphics/SVG/1.1/DTD/svg11.dtd"><svg xmlns="http://www.w3.org/2000/svg" version="1.1" width="450px" height="286.2px" viewBox="0 -1 450 286.2" style="top:-1px">  <desc>On sent qu’elle emprunte ses chemins quotidiens, mais qui prennent une tout autre tournure maintenant qu’ils lui per...</desc>  <defs/>  <g id="Polygon10097">    <path d="M 1.8 192.1 C 1.8 192.1 1.79 192.09 1.8 192.1 C 2.1 193.2 3 193.8 4.6 193.8 C 6.2 193.8 6.9 193.2 6.9 192.3 C 6.9 191.6 6.4 191.1 4.3 190.8 C 1.5 190.5 1 189.6 1 188.6 C 1 187.6 1.8 186.2 4.3 186.2 C 7 186.2 7.8 187.7 7.8 188.6 C 7.83 188.62 7.8 188.6 7.8 188.6 L 6.6 188.6 C 6.6 188.6 6.6 188.62 6.6 188.6 C 6.5 188.1 6.1 187.2 4.2 187.2 C 2.5 187.2 2.2 187.9 2.2 188.5 C 2.2 189.1 2.6 189.5 4.5 189.8 C 7.5 190.2 8.1 191 8.1 192.3 C 8.1 193.7 7 194.7 4.5 194.7 C 2.1 194.7 0.8 193.7 0.6 192.1 C 0.56 192.09 0.6 192.1 0.6 192.1 L 1.8 192.1 Z M 11.1 190.8 C 11.1 190.8 11.12 190.77 11.1 190.8 C 11.2 192.5 12.3 193.7 14.1 193.7 C 15.4 193.7 16.2 193.1 16.7 192.3 C 16.69 192.28 16.7 192.3 16.7 192.3 L 17.9 192.3 C 17.9 192.3 17.9 192.28 17.9 192.3 C 17.5 193.4 16.4 194.7 14 194.7 C 11.2 194.7 9.9 192.7 9.9 190.5 C 9.9 190.5 9.9 190.5 9.9 190.5 C 9.9 188 11.5 186.2 14 186.2 C 17 186.2 18 188.5 18 190.4 C 18 190.5 18 190.6 18 190.8 C 18.02 190.77 11.1 190.8 11.1 190.8 Z M 16.7 189.8 C 16.7 189.8 16.74 189.84 16.7 189.8 C 16.7 188.8 16.1 187.2 14 187.2 C 12.2 187.2 11.3 188.4 11.1 189.8 C 11.15 189.84 11.1 189.8 11.1 189.8 L 16.7 189.8 Z M 16.6 182.3 L 14.1 184.9 L 12.9 184.9 L 15.1 182.3 L 16.6 182.3 Z M 20.4 188.7 C 20.4 187.9 20.4 187.2 20.4 186.5 C 20.4 186.5 21.5 186.5 21.5 186.5 C 21.5 186.7 21.6 187.5 21.6 188.3 C 22.1 187.1 23.3 186.2 24.9 186.2 C 24.9 186.2 24.9 187.4 24.9 187.4 C 23 187.4 21.6 188.6 21.6 191 C 21.58 191.04 21.6 194.5 21.6 194.5 L 20.4 194.5 C 20.4 194.5 20.37 188.66 20.4 188.7 Z M 26.8 186.5 L 28 186.5 L 28 194.5 L 26.8 194.5 L 26.8 186.5 Z M 26.8 182.5 L 28 182.5 L 28 184.2 L 26.8 184.2 L 26.8 182.5 Z M 31.7 190.8 C 31.7 190.8 31.65 190.77 31.7 190.8 C 31.7 192.5 32.9 193.7 34.6 193.7 C 36 193.7 36.7 193.1 37.2 192.3 C 37.22 192.28 37.2 192.3 37.2 192.3 L 38.4 192.3 C 38.4 192.3 38.43 192.28 38.4 192.3 C 38 193.4 36.9 194.7 34.5 194.7 C 31.8 194.7 30.4 192.7 30.4 190.5 C 30.4 190.5 30.4 190.5 30.4 190.5 C 30.4 188 32.1 186.2 34.5 186.2 C 37.5 186.2 38.6 188.5 38.6 190.4 C 38.6 190.5 38.6 190.6 38.6 190.8 C 38.55 190.77 31.7 190.8 31.7 190.8 Z M 37.3 189.8 C 37.3 189.8 37.27 189.84 37.3 189.8 C 37.2 188.8 36.6 187.2 34.5 187.2 C 32.7 187.2 31.8 188.4 31.7 189.8 C 31.68 189.84 31.7 189.8 31.7 189.8 L 37.3 189.8 Z M 41.5 192.1 C 41.5 192.1 41.48 192.09 41.5 192.1 C 41.8 193.2 42.7 193.8 44.3 193.8 C 45.9 193.8 46.6 193.2 46.6 192.3 C 46.6 191.6 46.1 191.1 44 190.8 C 41.2 190.5 40.6 189.6 40.6 188.6 C 40.6 187.6 41.4 186.2 44 186.2 C 46.7 186.2 47.4 187.7 47.5 188.6 C 47.52 188.62 47.5 188.6 47.5 188.6 L 46.3 188.6 C 46.3 188.6 46.29 188.62 46.3 188.6 C 46.2 188.1 45.8 187.2 43.9 187.2 C 42.2 187.2 41.9 187.9 41.9 188.5 C 41.9 189.1 42.3 189.5 44.2 189.8 C 47.2 190.2 47.8 191 47.8 192.3 C 47.8 193.7 46.7 194.7 44.2 194.7 C 41.8 194.7 40.5 193.7 40.2 192.1 C 40.25 192.09 40.2 192.1 40.2 192.1 L 41.5 192.1 Z M 59.7 193.2 C 59.67 193.21 59.7 198.1 59.7 198.1 L 58.5 198.1 C 58.5 198.1 58.46 188.49 58.5 188.5 C 58.5 187.8 58.5 187.1 58.4 186.5 C 58.4 186.5 59.6 186.5 59.6 186.5 C 59.7 186.7 59.7 187.3 59.7 188 C 60.2 187.1 61.1 186.2 62.9 186.2 C 65.1 186.2 66.6 188 66.6 190.4 C 66.6 190.4 66.6 190.4 66.6 190.4 C 66.6 192.9 64.8 194.7 62.6 194.7 C 60.9 194.7 60.1 194 59.7 193.2 Z M 65.3 190.4 C 65.3 190.4 65.3 190.4 65.3 190.4 C 65.3 188.9 64.5 187.3 62.5 187.3 C 60.5 187.3 59.6 188.7 59.6 190.5 C 59.6 190.5 59.6 190.5 59.6 190.5 C 59.6 192.3 60.6 193.7 62.5 193.7 C 64.4 193.7 65.3 192.1 65.3 190.4 Z M 69 188.7 C 69 187.9 69 187.2 69 186.5 C 69 186.5 70.1 186.5 70.1 186.5 C 70.2 186.7 70.2 187.5 70.2 188.3 C 70.7 187.1 71.9 186.2 73.5 186.2 C 73.5 186.2 73.5 187.4 73.5 187.4 C 71.6 187.4 70.2 188.6 70.2 191 C 70.19 191.04 70.2 194.5 70.2 194.5 L 69 194.5 C 69 194.5 68.98 188.66 69 188.7 Z M 75.9 190.8 C 75.9 190.8 75.88 190.77 75.9 190.8 C 76 192.5 77.1 193.7 78.9 193.7 C 80.2 193.7 81 193.1 81.4 192.3 C 81.45 192.28 81.4 192.3 81.4 192.3 L 82.7 192.3 C 82.7 192.3 82.66 192.28 82.7 192.3 C 82.2 193.4 81.1 194.7 78.8 194.7 C 76 194.7 74.7 192.7 74.7 190.5 C 74.7 190.5 74.7 190.5 74.7 190.5 C 74.7 188 76.3 186.2 78.7 186.2 C 81.8 186.2 82.8 188.5 82.8 190.4 C 82.8 190.5 82.8 190.6 82.8 190.8 C 82.78 190.77 75.9 190.8 75.9 190.8 Z M 81.5 189.8 C 81.5 189.8 81.5 189.84 81.5 189.8 C 81.4 188.8 80.9 187.2 78.7 187.2 C 77 187.2 76.1 188.4 75.9 189.8 C 75.91 189.84 75.9 189.8 75.9 189.8 L 81.5 189.8 Z M 81.4 182.3 L 78.8 184.9 L 77.6 184.9 L 79.9 182.3 L 81.4 182.3 Z M 85.5 194.5 L 85.5 187.5 L 84 187.5 L 84 186.5 L 85.5 186.5 C 85.5 186.5 85.51 185.27 85.5 185.3 C 85.5 183.5 86.3 182.3 88.1 182.3 C 88.5 182.3 88.8 182.4 89 182.4 C 89 182.4 89 183.5 89 183.5 C 88.8 183.4 88.4 183.4 88.2 183.4 C 87.1 183.4 86.7 183.9 86.7 185.4 C 86.72 185.37 86.7 186.5 86.7 186.5 L 88.7 186.5 L 88.7 187.5 L 86.7 187.5 L 86.7 194.5 L 85.5 194.5 Z M 90.9 190.8 C 90.9 190.8 90.93 190.77 90.9 190.8 C 91 192.5 92.2 193.7 93.9 193.7 C 95.3 193.7 96 193.1 96.5 192.3 C 96.5 192.28 96.5 192.3 96.5 192.3 L 97.7 192.3 C 97.7 192.3 97.71 192.28 97.7 192.3 C 97.3 193.4 96.2 194.7 93.8 194.7 C 91.1 194.7 89.7 192.7 89.7 190.5 C 89.7 190.5 89.7 190.5 89.7 190.5 C 89.7 188 91.4 186.2 93.8 186.2 C 96.8 186.2 97.8 188.5 97.8 190.4 C 97.8 190.5 97.8 190.6 97.8 190.8 C 97.83 190.77 90.9 190.8 90.9 190.8 Z M 96.6 189.8 C 96.6 189.8 96.55 189.84 96.6 189.8 C 96.5 188.8 95.9 187.2 93.8 187.2 C 92 187.2 91.1 188.4 91 189.8 C 90.96 189.84 91 189.8 91 189.8 L 96.6 189.8 Z M 96.4 182.3 L 93.9 184.9 L 92.7 184.9 L 94.9 182.3 L 96.4 182.3 Z M 100.2 188.7 C 100.2 187.9 100.2 187.2 100.2 186.5 C 100.2 186.5 101.3 186.5 101.3 186.5 C 101.4 186.7 101.4 187.5 101.4 188.3 C 101.9 187.1 103.2 186.2 104.7 186.2 C 104.7 186.2 104.7 187.4 104.7 187.4 C 102.8 187.4 101.4 188.6 101.4 191 C 101.4 191.04 101.4 194.5 101.4 194.5 L 100.2 194.5 C 100.2 194.5 100.19 188.66 100.2 188.7 Z M 107.1 190.8 C 107.1 190.8 107.08 190.77 107.1 190.8 C 107.2 192.5 108.3 193.7 110.1 193.7 C 111.4 193.7 112.2 193.1 112.7 192.3 C 112.65 192.28 112.7 192.3 112.7 192.3 L 113.9 192.3 C 113.9 192.3 113.86 192.28 113.9 192.3 C 113.4 193.4 112.3 194.7 110 194.7 C 107.2 194.7 105.9 192.7 105.9 190.5 C 105.9 190.5 105.9 190.5 105.9 190.5 C 105.9 188 107.5 186.2 109.9 186.2 C 113 186.2 114 188.5 114 190.4 C 114 190.5 114 190.6 114 190.8 C 113.98 190.77 107.1 190.8 107.1 190.8 Z M 112.7 189.8 C 112.7 189.8 112.71 189.84 112.7 189.8 C 112.6 188.8 112.1 187.2 109.9 187.2 C 108.2 187.2 107.3 188.4 107.1 189.8 C 107.12 189.84 107.1 189.8 107.1 189.8 L 112.7 189.8 Z M 112.6 182.3 L 110 184.9 L 108.9 184.9 L 111.1 182.3 L 112.6 182.3 Z M 117 190.8 C 117 190.8 117.04 190.77 117 190.8 C 117.1 192.5 118.3 193.7 120 193.7 C 121.4 193.7 122.1 193.1 122.6 192.3 C 122.61 192.28 122.6 192.3 122.6 192.3 L 123.8 192.3 C 123.8 192.3 123.82 192.28 123.8 192.3 C 123.4 193.4 122.3 194.7 119.9 194.7 C 117.2 194.7 115.8 192.7 115.8 190.5 C 115.8 190.5 115.8 190.5 115.8 190.5 C 115.8 188 117.5 186.2 119.9 186.2 C 122.9 186.2 123.9 188.5 123.9 190.4 C 123.9 190.5 123.9 190.6 123.9 190.8 C 123.94 190.77 117 190.8 117 190.8 Z M 122.7 189.8 C 122.7 189.8 122.66 189.84 122.7 189.8 C 122.6 188.8 122 187.2 119.9 187.2 C 118.1 187.2 117.2 188.4 117.1 189.8 C 117.07 189.84 117.1 189.8 117.1 189.8 L 122.7 189.8 Z M 126.9 192.1 C 126.9 192.1 126.87 192.09 126.9 192.1 C 127.2 193.2 128.1 193.8 129.6 193.8 C 131.3 193.8 131.9 193.2 131.9 192.3 C 131.9 191.6 131.5 191.1 129.4 190.8 C 126.6 190.5 126 189.6 126 188.6 C 126 187.6 126.8 186.2 129.3 186.2 C 132.1 186.2 132.8 187.7 132.9 188.6 C 132.91 188.62 132.9 188.6 132.9 188.6 L 131.7 188.6 C 131.7 188.6 131.68 188.62 131.7 188.6 C 131.6 188.1 131.2 187.2 129.3 187.2 C 127.6 187.2 127.3 187.9 127.3 188.5 C 127.3 189.1 127.7 189.5 129.6 189.8 C 132.6 190.2 133.2 191 133.2 192.3 C 133.2 193.7 132.1 194.7 129.6 194.7 C 127.2 194.7 125.9 193.7 125.6 192.1 C 125.64 192.09 125.6 192.1 125.6 192.1 L 126.9 192.1 Z M 135.6 194.5 L 135.6 192.1 L 136.9 192.1 L 136.9 194.5 L 135.6 194.5 Z " stroke="none" fill="#141414"/>  </g>  <g id="Polygon10096">    <path d="M 7.7 168.9 C 7.2 169.7 6.4 170.4 4.6 170.4 C 2.4 170.4 0.7 168.7 0.7 166.3 C 0.7 166.3 0.7 166.3 0.7 166.3 C 0.7 163.5 2.7 161.9 4.7 161.9 C 6.7 161.9 7.5 163 7.7 163.4 C 7.7 162.8 7.7 162.4 7.7 162.2 C 7.7 162.2 8.9 162.2 8.9 162.2 C 8.9 162.8 8.9 163.7 8.9 164.4 C 8.89 164.43 8.9 173.8 8.9 173.8 L 7.7 173.8 C 7.7 173.8 7.68 168.85 7.7 168.9 Z M 2 166.2 C 2 166.2 2 166.2 2 166.2 C 2 168 3.1 169.4 4.8 169.4 C 6.7 169.4 7.7 168.3 7.7 166.1 C 7.7 166.1 7.7 166.1 7.7 166.1 C 7.7 164.3 6.8 163 4.9 163 C 3 163 2 164.5 2 166.2 Z M 19 167.9 C 19 168.6 19 169.4 19 170.2 C 19 170.2 17.8 170.2 17.8 170.2 C 17.8 170 17.8 169.3 17.8 168.7 C 17.3 169.7 16.6 170.4 14.8 170.4 C 13.1 170.4 11.8 169.5 11.8 167.2 C 11.78 167.17 11.8 162.2 11.8 162.2 L 13 162.2 C 13 162.2 12.99 166.93 13 166.9 C 13 168.2 13.5 169.3 15.1 169.3 C 16.9 169.3 17.7 168.3 17.7 165.8 C 17.75 165.77 17.7 162.2 17.7 162.2 L 19 162.2 C 19 162.2 18.96 167.85 19 167.9 Z M 21.4 162.7 C 21.8 161.4 22.2 159.6 22.3 158.1 C 22.3 158.1 23.5 158.1 23.5 158.1 C 23.4 159.4 22.9 161.6 22.4 162.7 C 22.4 162.7 21.4 162.7 21.4 162.7 Z M 25.8 162.2 L 27 162.2 L 27 170.2 L 25.8 170.2 L 25.8 162.2 Z M 25.8 158.1 L 27 158.1 L 27 159.9 L 25.8 159.9 L 25.8 158.1 Z M 29.9 170.2 L 29.9 158.1 L 31.1 158.1 L 31.1 170.2 L 29.9 170.2 Z M 34.5 167.8 C 34.5 167.8 34.5 167.77 34.5 167.8 C 34.8 168.8 35.7 169.4 37.3 169.4 C 39 169.4 39.6 168.8 39.6 168 C 39.6 167.3 39.2 166.8 37 166.5 C 34.2 166.2 33.7 165.2 33.7 164.2 C 33.7 163.2 34.5 161.9 37 161.9 C 39.7 161.9 40.5 163.4 40.5 164.3 C 40.55 164.3 40.5 164.3 40.5 164.3 L 39.3 164.3 C 39.3 164.3 39.32 164.3 39.3 164.3 C 39.2 163.8 38.9 162.9 36.9 162.9 C 35.3 162.9 34.9 163.6 34.9 164.1 C 34.9 164.8 35.3 165.2 37.2 165.5 C 40.2 165.8 40.8 166.7 40.8 167.9 C 40.8 169.4 39.7 170.4 37.2 170.4 C 34.8 170.4 33.6 169.4 33.3 167.8 C 33.27 167.77 33.3 167.8 33.3 167.8 L 34.5 167.8 Z M 49.7 170.2 L 49.7 158.1 L 50.9 158.1 L 50.9 170.2 L 49.7 170.2 Z M 61 167.9 C 61 168.6 61 169.4 61 170.2 C 61 170.2 59.8 170.2 59.8 170.2 C 59.8 170 59.8 169.3 59.8 168.7 C 59.4 169.7 58.6 170.4 56.8 170.4 C 55.1 170.4 53.8 169.5 53.8 167.2 C 53.78 167.17 53.8 162.2 53.8 162.2 L 55 162.2 C 55 162.2 54.99 166.93 55 166.9 C 55 168.2 55.5 169.3 57.1 169.3 C 58.9 169.3 59.8 168.3 59.8 165.8 C 59.76 165.77 59.8 162.2 59.8 162.2 L 61 162.2 C 61 162.2 60.97 167.85 61 167.9 Z M 63.9 162.2 L 65.1 162.2 L 65.1 170.2 L 63.9 170.2 L 63.9 162.2 Z M 63.9 158.1 L 65.1 158.1 L 65.1 159.9 L 63.9 159.9 L 63.9 158.1 Z M 75.8 168.9 C 75.8 168.89 75.8 173.8 75.8 173.8 L 74.6 173.8 C 74.6 173.8 74.59 164.17 74.6 164.2 C 74.6 163.5 74.6 162.8 74.6 162.2 C 74.6 162.2 75.7 162.2 75.7 162.2 C 75.8 162.4 75.8 162.9 75.8 163.6 C 76.3 162.7 77.3 161.9 79 161.9 C 81.2 161.9 82.7 163.7 82.7 166 C 82.7 166 82.7 166 82.7 166 C 82.7 168.6 81 170.4 78.7 170.4 C 77 170.4 76.2 169.6 75.8 168.9 Z M 81.5 166.1 C 81.5 166.1 81.5 166.1 81.5 166.1 C 81.5 164.6 80.6 163 78.6 163 C 76.7 163 75.8 164.4 75.8 166.2 C 75.8 166.2 75.8 166.2 75.8 166.2 C 75.8 168 76.7 169.4 78.6 169.4 C 80.5 169.4 81.5 167.8 81.5 166.1 Z M 85.8 166.4 C 85.8 166.4 85.81 166.45 85.8 166.4 C 85.9 168.2 87 169.4 88.8 169.4 C 90.1 169.4 90.9 168.8 91.4 168 C 91.38 167.96 91.4 168 91.4 168 L 92.6 168 C 92.6 168 92.59 167.96 92.6 168 C 92.2 169.1 91.1 170.4 88.7 170.4 C 85.9 170.4 84.6 168.3 84.6 166.2 C 84.6 166.2 84.6 166.2 84.6 166.2 C 84.6 163.7 86.2 161.9 88.7 161.9 C 91.7 161.9 92.7 164.2 92.7 166.1 C 92.7 166.2 92.7 166.3 92.7 166.4 C 92.71 166.45 85.8 166.4 85.8 166.4 Z M 91.4 165.5 C 91.4 165.5 91.43 165.52 91.4 165.5 C 91.4 164.5 90.8 162.9 88.6 162.9 C 86.9 162.9 86 164 85.8 165.5 C 85.84 165.52 85.8 165.5 85.8 165.5 L 91.4 165.5 Z M 95.1 164.3 C 95.1 163.6 95.1 162.9 95 162.2 C 95 162.2 96.2 162.2 96.2 162.2 C 96.2 162.4 96.3 163.2 96.3 164 C 96.8 162.7 98 161.9 99.6 161.9 C 99.6 161.9 99.6 163.1 99.6 163.1 C 97.7 163.1 96.3 164.3 96.3 166.7 C 96.27 166.72 96.3 170.2 96.3 170.2 L 95.1 170.2 C 95.1 170.2 95.06 164.34 95.1 164.3 Z M 101.5 164.2 C 101.5 163.5 101.5 162.8 101.5 162.2 C 101.5 162.2 102.7 162.2 102.7 162.2 C 102.7 162.5 102.7 163 102.7 163.4 C 103.1 162.7 103.9 161.9 105.4 161.9 C 106.7 161.9 107.5 162.6 107.9 163.5 C 108.3 162.8 109 161.9 110.6 161.9 C 112.2 161.9 113.5 162.8 113.5 165.2 C 113.48 165.19 113.5 170.2 113.5 170.2 L 112.3 170.2 C 112.3 170.2 112.28 165.25 112.3 165.2 C 112.3 164.2 112 163 110.4 163 C 109 163 108.1 163.9 108.1 165.8 C 108.11 165.8 108.1 170.2 108.1 170.2 L 106.9 170.2 C 106.9 170.2 106.9 165.16 106.9 165.2 C 106.9 164.2 106.6 163 105 163 C 103.4 163 102.7 164.3 102.7 165.9 C 102.73 165.94 102.7 170.2 102.7 170.2 L 101.5 170.2 C 101.5 170.2 101.53 164.23 101.5 164.2 Z M 117.1 166.4 C 117.1 166.4 117.08 166.45 117.1 166.4 C 117.2 168.2 118.3 169.4 120.1 169.4 C 121.4 169.4 122.2 168.8 122.7 168 C 122.65 167.96 122.7 168 122.7 168 L 123.9 168 C 123.9 168 123.86 167.96 123.9 168 C 123.4 169.1 122.3 170.4 120 170.4 C 117.2 170.4 115.9 168.3 115.9 166.2 C 115.9 166.2 115.9 166.2 115.9 166.2 C 115.9 163.7 117.5 161.9 119.9 161.9 C 123 161.9 124 164.2 124 166.1 C 124 166.2 124 166.3 124 166.4 C 123.98 166.45 117.1 166.4 117.1 166.4 Z M 122.7 165.5 C 122.7 165.5 122.7 165.52 122.7 165.5 C 122.6 164.5 122.1 162.9 119.9 162.9 C 118.2 162.9 117.3 164 117.1 165.5 C 117.11 165.52 117.1 165.5 117.1 165.5 L 122.7 165.5 Z M 125.2 162.2 L 126.8 162.2 L 126.8 159.5 L 128 159.5 L 128 162.2 L 130.2 162.2 L 130.2 163.2 L 128 163.2 C 128 163.2 128.02 167.86 128 167.9 C 128 168.8 128.3 169.3 129.2 169.3 C 129.4 169.3 129.8 169.3 130 169.2 C 130 169.2 130 170.1 130 170.1 C 129.7 170.3 129.3 170.3 128.9 170.3 C 127.3 170.3 126.8 169.6 126.8 168 C 126.81 167.98 126.8 163.2 126.8 163.2 L 125.2 163.2 L 125.2 162.2 Z M 131.7 162.2 L 133.3 162.2 L 133.3 159.5 L 134.5 159.5 L 134.5 162.2 L 136.7 162.2 L 136.7 163.2 L 134.5 163.2 C 134.5 163.2 134.53 167.86 134.5 167.9 C 134.5 168.8 134.8 169.3 135.7 169.3 C 135.9 169.3 136.3 169.3 136.5 169.2 C 136.5 169.2 136.5 170.1 136.5 170.1 C 136.2 170.3 135.8 170.3 135.4 170.3 C 133.8 170.3 133.3 169.6 133.3 168 C 133.31 167.98 133.3 163.2 133.3 163.2 L 131.7 163.2 L 131.7 162.2 Z M 139.2 166.4 C 139.2 166.4 139.15 166.45 139.2 166.4 C 139.2 168.2 140.4 169.4 142.1 169.4 C 143.5 169.4 144.2 168.8 144.7 168 C 144.72 167.96 144.7 168 144.7 168 L 145.9 168 C 145.9 168 145.93 167.96 145.9 168 C 145.5 169.1 144.4 170.4 142 170.4 C 139.3 170.4 137.9 168.3 137.9 166.2 C 137.9 166.2 137.9 166.2 137.9 166.2 C 137.9 163.7 139.6 161.9 142 161.9 C 145 161.9 146.1 164.2 146.1 166.1 C 146.1 166.2 146.1 166.3 146.1 166.4 C 146.05 166.45 139.2 166.4 139.2 166.4 Z M 144.8 165.5 C 144.8 165.5 144.77 165.52 144.8 165.5 C 144.7 164.5 144.1 162.9 142 162.9 C 140.2 162.9 139.3 164 139.2 165.5 C 139.18 165.52 139.2 165.5 139.2 165.5 L 144.8 165.5 Z M 148.4 164.2 C 148.4 163.5 148.4 162.8 148.4 162.2 C 148.4 162.2 149.6 162.2 149.6 162.2 C 149.6 162.4 149.6 163.2 149.6 163.8 C 150 162.9 150.8 161.9 152.6 161.9 C 154.5 161.9 155.7 163.1 155.7 165.3 C 155.7 165.32 155.7 170.2 155.7 170.2 L 154.5 170.2 C 154.5 170.2 154.49 165.55 154.5 165.6 C 154.5 164.1 153.9 163 152.3 163 C 150.5 163 149.6 164.4 149.6 166.4 C 149.62 166.39 149.6 170.2 149.6 170.2 L 148.4 170.2 C 148.4 170.2 148.4 164.18 148.4 164.2 Z M 157.4 162.2 L 159.1 162.2 L 159.1 159.5 L 160.3 159.5 L 160.3 162.2 L 162.5 162.2 L 162.5 163.2 L 160.3 163.2 C 160.3 163.2 160.29 167.86 160.3 167.9 C 160.3 168.8 160.5 169.3 161.5 169.3 C 161.7 169.3 162 169.3 162.3 169.2 C 162.3 169.2 162.3 170.1 162.3 170.1 C 161.9 170.3 161.6 170.3 161.1 170.3 C 159.6 170.3 159.1 169.6 159.1 168 C 159.07 167.98 159.1 163.2 159.1 163.2 L 157.4 163.2 L 157.4 162.2 Z M 178.5 158.1 C 178.5 158.1 178.54 167.84 178.5 167.8 C 178.5 168.6 178.5 169.4 178.6 170.2 C 178.6 170.2 177.4 170.2 177.4 170.2 C 177.3 169.8 177.3 169.3 177.3 168.9 C 176.9 169.6 176.2 170.4 174.3 170.4 C 171.9 170.4 170.4 168.7 170.4 166.2 C 170.4 166.2 170.4 166.2 170.4 166.2 C 170.4 163.6 172.3 161.9 174.5 161.9 C 176.4 161.9 177.1 162.9 177.3 163.3 C 177.33 163.29 177.3 158.1 177.3 158.1 L 178.5 158.1 Z M 171.6 166.2 C 171.6 166.2 171.6 166.2 171.6 166.2 C 171.6 167.8 172.6 169.4 174.5 169.4 C 176.6 169.4 177.4 168 177.4 166.1 C 177.4 166.1 177.4 166.1 177.4 166.1 C 177.4 164.3 176.7 163 174.5 163 C 172.6 163 171.6 164.6 171.6 166.2 Z M 182.1 166.4 C 182.1 166.4 182.13 166.45 182.1 166.4 C 182.2 168.2 183.4 169.4 185.1 169.4 C 186.5 169.4 187.2 168.8 187.7 168 C 187.7 167.96 187.7 168 187.7 168 L 188.9 168 C 188.9 168 188.91 167.96 188.9 168 C 188.5 169.1 187.4 170.4 185 170.4 C 182.3 170.4 180.9 168.3 180.9 166.2 C 180.9 166.2 180.9 166.2 180.9 166.2 C 180.9 163.7 182.6 161.9 185 161.9 C 188 161.9 189 164.2 189 166.1 C 189 166.2 189 166.3 189 166.4 C 189.03 166.45 182.1 166.4 182.1 166.4 Z M 187.8 165.5 C 187.8 165.5 187.76 165.52 187.8 165.5 C 187.7 164.5 187.1 162.9 185 162.9 C 183.2 162.9 182.3 164 182.2 165.5 C 182.17 165.52 182.2 165.5 182.2 165.5 L 187.8 165.5 Z M 205.4 158.1 C 205.4 158.1 205.36 167.84 205.4 167.8 C 205.4 168.6 205.4 169.4 205.4 170.2 C 205.4 170.2 204.2 170.2 204.2 170.2 C 204.2 169.8 204.1 169.3 204.1 168.9 C 203.7 169.6 203 170.4 201.1 170.4 C 198.7 170.4 197.2 168.7 197.2 166.2 C 197.2 166.2 197.2 166.2 197.2 166.2 C 197.2 163.6 199.2 161.9 201.3 161.9 C 203.3 161.9 203.9 162.9 204.1 163.3 C 204.14 163.29 204.1 158.1 204.1 158.1 L 205.4 158.1 Z M 198.5 166.2 C 198.5 166.2 198.5 166.2 198.5 166.2 C 198.5 167.8 199.4 169.4 201.3 169.4 C 203.4 169.4 204.2 168 204.2 166.1 C 204.2 166.1 204.2 166.1 204.2 166.1 C 204.2 164.3 203.6 163 201.4 163 C 199.4 163 198.5 164.6 198.5 166.2 Z M 209 166.4 C 209 166.4 208.95 166.45 209 166.4 C 209 168.2 210.2 169.4 211.9 169.4 C 213.3 169.4 214 168.8 214.5 168 C 214.52 167.96 214.5 168 214.5 168 L 215.7 168 C 215.7 168 215.73 167.96 215.7 168 C 215.3 169.1 214.2 170.4 211.8 170.4 C 209.1 170.4 207.7 168.3 207.7 166.2 C 207.7 166.2 207.7 166.2 207.7 166.2 C 207.7 163.7 209.4 161.9 211.8 161.9 C 214.8 161.9 215.9 164.2 215.9 166.1 C 215.9 166.2 215.9 166.3 215.9 166.4 C 215.85 166.45 209 166.4 209 166.4 Z M 214.6 165.5 C 214.6 165.5 214.57 165.52 214.6 165.5 C 214.5 164.5 213.9 162.9 211.8 162.9 C 210 162.9 209.1 164 209 165.5 C 208.98 165.52 209 165.5 209 165.5 L 214.6 165.5 Z M 214.4 158 L 211.9 160.6 L 210.7 160.6 L 212.9 158 L 214.4 158 Z M 218.2 158.1 L 219.4 158.1 C 219.4 158.1 219.41 163.5 219.4 163.5 C 219.8 162.8 220.7 161.9 222.5 161.9 C 224.8 161.9 226.4 163.7 226.4 166 C 226.4 166 226.4 166 226.4 166 C 226.4 168.7 224.7 170.4 222.4 170.4 C 220.6 170.4 219.8 169.6 219.4 168.9 C 219.4 169.3 219.4 169.9 219.3 170.2 C 219.3 170.2 218.2 170.2 218.2 170.2 C 218.2 169.2 218.2 168.3 218.2 167.4 C 218.2 167.41 218.2 158.1 218.2 158.1 Z M 225.1 166.1 C 225.1 166.1 225.1 166.1 225.1 166.1 C 225.1 164.6 224.3 163 222.3 163 C 220.3 163 219.3 164.4 219.3 166.2 C 219.3 166.2 219.3 166.2 219.3 166.2 C 219.3 168.2 220.5 169.4 222.3 169.4 C 224.3 169.4 225.1 167.8 225.1 166.1 Z M 228.8 170.2 L 228.8 158.1 L 230 158.1 L 230 170.2 L 228.8 170.2 Z M 240.7 166.2 C 240.7 166.2 240.7 166.2 240.7 166.2 C 240.7 168.3 239.4 170.4 236.5 170.4 C 233.8 170.4 232.3 168.4 232.3 166.2 C 232.3 166.2 232.3 166.2 232.3 166.2 C 232.3 163.9 234 161.9 236.6 161.9 C 239.2 161.9 240.7 164 240.7 166.2 Z M 233.6 166.2 C 233.6 166.2 233.6 166.2 233.6 166.2 C 233.6 167.8 234.6 169.4 236.5 169.4 C 238.5 169.4 239.5 167.9 239.5 166.2 C 239.5 166.2 239.5 166.2 239.5 166.2 C 239.5 164.5 238.4 163 236.5 163 C 234.5 163 233.6 164.5 233.6 166.2 Z M 249.5 168.9 C 249.1 169.7 248.2 170.4 246.5 170.4 C 244.2 170.4 242.6 168.7 242.6 166.3 C 242.6 166.3 242.6 166.3 242.6 166.3 C 242.6 163.5 244.6 161.9 246.6 161.9 C 248.6 161.9 249.4 163 249.5 163.4 C 249.6 162.8 249.6 162.4 249.6 162.2 C 249.6 162.2 250.8 162.2 250.8 162.2 C 250.8 162.8 250.8 163.7 250.8 164.4 C 250.75 164.43 250.8 173.8 250.8 173.8 L 249.5 173.8 C 249.5 173.8 249.54 168.85 249.5 168.9 Z M 243.8 166.2 C 243.8 166.2 243.8 166.2 243.8 166.2 C 243.8 168 244.9 169.4 246.6 169.4 C 248.5 169.4 249.6 168.3 249.6 166.1 C 249.6 166.1 249.6 166.1 249.6 166.1 C 249.6 164.3 248.7 163 246.8 163 C 244.8 163 243.8 164.5 243.8 166.2 Z M 260.8 167.9 C 260.8 168.6 260.8 169.4 260.8 170.2 C 260.8 170.2 259.7 170.2 259.7 170.2 C 259.6 170 259.6 169.3 259.6 168.7 C 259.2 169.7 258.5 170.4 256.7 170.4 C 255 170.4 253.6 169.5 253.6 167.2 C 253.64 167.17 253.6 162.2 253.6 162.2 L 254.8 162.2 C 254.8 162.2 254.85 166.93 254.8 166.9 C 254.8 168.2 255.4 169.3 256.9 169.3 C 258.8 169.3 259.6 168.3 259.6 165.8 C 259.61 165.77 259.6 162.2 259.6 162.2 L 260.8 162.2 C 260.8 162.2 260.82 167.85 260.8 167.9 Z M 264.4 166.4 C 264.4 166.4 264.41 166.45 264.4 166.4 C 264.5 168.2 265.6 169.4 267.4 169.4 C 268.7 169.4 269.5 168.8 270 168 C 269.98 167.96 270 168 270 168 L 271.2 168 C 271.2 168 271.19 167.96 271.2 168 C 270.8 169.1 269.7 170.4 267.3 170.4 C 264.5 170.4 263.2 168.3 263.2 166.2 C 263.2 166.2 263.2 166.2 263.2 166.2 C 263.2 163.7 264.8 161.9 267.3 161.9 C 270.3 161.9 271.3 164.2 271.3 166.1 C 271.3 166.2 271.3 166.3 271.3 166.4 C 271.31 166.45 264.4 166.4 264.4 166.4 Z M 270 165.5 C 270 165.5 270.03 165.52 270 165.5 C 270 164.5 269.4 162.9 267.2 162.9 C 265.5 162.9 264.6 164 264.4 165.5 C 264.45 165.52 264.4 165.5 264.4 165.5 L 270 165.5 Z M 273.7 164.3 C 273.7 163.6 273.7 162.9 273.7 162.2 C 273.7 162.2 274.8 162.2 274.8 162.2 C 274.8 162.4 274.9 163.2 274.9 164 C 275.4 162.7 276.6 161.9 278.2 161.9 C 278.2 161.9 278.2 163.1 278.2 163.1 C 276.3 163.1 274.9 164.3 274.9 166.7 C 274.88 166.72 274.9 170.2 274.9 170.2 L 273.7 170.2 C 273.7 170.2 273.67 164.34 273.7 164.3 Z M 286.6 170.2 L 286.6 158.1 L 287.8 158.1 L 287.8 170.2 L 286.6 170.2 Z M 291.4 166.4 C 291.4 166.4 291.42 166.45 291.4 166.4 C 291.5 168.2 292.7 169.4 294.4 169.4 C 295.8 169.4 296.5 168.8 297 168 C 296.99 167.96 297 168 297 168 L 298.2 168 C 298.2 168 298.2 167.96 298.2 168 C 297.8 169.1 296.7 170.4 294.3 170.4 C 291.5 170.4 290.2 168.3 290.2 166.2 C 290.2 166.2 290.2 166.2 290.2 166.2 C 290.2 163.7 291.8 161.9 294.3 161.9 C 297.3 161.9 298.3 164.2 298.3 166.1 C 298.3 166.2 298.3 166.3 298.3 166.4 C 298.32 166.45 291.4 166.4 291.4 166.4 Z M 297 165.5 C 297 165.5 297.04 165.52 297 165.5 C 297 164.5 296.4 162.9 294.3 162.9 C 292.5 162.9 291.6 164 291.5 165.5 C 291.45 165.52 291.5 165.5 291.5 165.5 L 297 165.5 Z M 301.2 167.8 C 301.2 167.8 301.25 167.77 301.2 167.8 C 301.6 168.8 302.5 169.4 304 169.4 C 305.7 169.4 306.3 168.8 306.3 168 C 306.3 167.3 305.9 166.8 303.7 166.5 C 301 166.2 300.4 165.2 300.4 164.2 C 300.4 163.2 301.2 161.9 303.7 161.9 C 306.5 161.9 307.2 163.4 307.3 164.3 C 307.29 164.3 307.3 164.3 307.3 164.3 L 306.1 164.3 C 306.1 164.3 306.06 164.3 306.1 164.3 C 305.9 163.8 305.6 162.9 303.6 162.9 C 302 162.9 301.6 163.6 301.6 164.1 C 301.6 164.8 302.1 165.2 304 165.5 C 306.9 165.8 307.6 166.7 307.6 167.9 C 307.6 169.4 306.5 170.4 304 170.4 C 301.6 170.4 300.3 169.4 300 167.8 C 300.02 167.77 300 167.8 300 167.8 L 301.2 167.8 Z M 317 166.4 C 317 166.4 317.02 166.45 317 166.4 C 317.1 168.2 318.2 169.4 320 169.4 C 321.3 169.4 322.1 168.8 322.6 168 C 322.59 167.96 322.6 168 322.6 168 L 323.8 168 C 323.8 168 323.8 167.96 323.8 168 C 323.4 169.1 322.3 170.4 319.9 170.4 C 317.1 170.4 315.8 168.3 315.8 166.2 C 315.8 166.2 315.8 166.2 315.8 166.2 C 315.8 163.7 317.4 161.9 319.9 161.9 C 322.9 161.9 323.9 164.2 323.9 166.1 C 323.9 166.2 323.9 166.3 323.9 166.4 C 323.92 166.45 317 166.4 317 166.4 Z M 322.6 165.5 C 322.6 165.5 322.64 165.52 322.6 165.5 C 322.6 164.5 322 162.9 319.9 162.9 C 318.1 162.9 317.2 164 317 165.5 C 317.05 165.52 317 165.5 317 165.5 L 322.6 165.5 Z M 322.5 158 L 320 160.6 L 318.8 160.6 L 321 158 L 322.5 158 Z M 327.5 168.9 C 327.48 168.89 327.5 173.8 327.5 173.8 L 326.3 173.8 C 326.3 173.8 326.27 164.17 326.3 164.2 C 326.3 163.5 326.3 162.8 326.3 162.2 C 326.3 162.2 327.4 162.2 327.4 162.2 C 327.5 162.4 327.5 162.9 327.5 163.6 C 328 162.7 328.9 161.9 330.7 161.9 C 332.9 161.9 334.4 163.7 334.4 166 C 334.4 166 334.4 166 334.4 166 C 334.4 168.6 332.6 170.4 330.4 170.4 C 328.7 170.4 327.9 169.6 327.5 168.9 Z M 333.2 166.1 C 333.2 166.1 333.2 166.1 333.2 166.1 C 333.2 164.6 332.3 163 330.3 163 C 328.3 163 327.4 164.4 327.4 166.2 C 327.4 166.2 327.4 166.2 327.4 166.2 C 327.4 168 328.4 169.4 330.3 169.4 C 332.2 169.4 333.2 167.8 333.2 166.1 Z M 336.8 162.2 L 338 162.2 L 338 170.2 L 336.8 170.2 L 336.8 162.2 Z M 336.8 158.1 L 338 158.1 L 338 159.9 L 336.8 159.9 L 336.8 158.1 Z M 341.4 167.8 C 341.4 167.8 341.44 167.77 341.4 167.8 C 341.8 168.8 342.7 169.4 344.2 169.4 C 345.9 169.4 346.5 168.8 346.5 168 C 346.5 167.3 346.1 166.8 343.9 166.5 C 341.2 166.2 340.6 165.2 340.6 164.2 C 340.6 163.2 341.4 161.9 343.9 161.9 C 346.7 161.9 347.4 163.4 347.5 164.3 C 347.48 164.3 347.5 164.3 347.5 164.3 L 346.3 164.3 C 346.3 164.3 346.26 164.3 346.3 164.3 C 346.1 163.8 345.8 162.9 343.8 162.9 C 342.2 162.9 341.8 163.6 341.8 164.1 C 341.8 164.8 342.2 165.2 344.2 165.5 C 347.1 165.8 347.7 166.7 347.7 167.9 C 347.7 169.4 346.6 170.4 344.1 170.4 C 341.8 170.4 340.5 169.4 340.2 167.8 C 340.21 167.77 340.2 167.8 340.2 167.8 L 341.4 167.8 Z M 357.9 166.2 C 357.9 166.2 357.9 166.2 357.9 166.2 C 357.9 168.3 356.6 170.4 353.7 170.4 C 351.1 170.4 349.6 168.4 349.6 166.2 C 349.6 166.2 349.6 166.2 349.6 166.2 C 349.6 163.9 351.2 161.9 353.8 161.9 C 356.5 161.9 357.9 164 357.9 166.2 Z M 350.8 166.2 C 350.8 166.2 350.8 166.2 350.8 166.2 C 350.8 167.8 351.9 169.4 353.8 169.4 C 355.7 169.4 356.7 167.9 356.7 166.2 C 356.7 166.2 356.7 166.2 356.7 166.2 C 356.7 164.5 355.6 163 353.7 163 C 351.7 163 350.8 164.5 350.8 166.2 Z M 367.9 158.1 C 367.9 158.1 367.94 167.84 367.9 167.8 C 367.9 168.6 367.9 169.4 368 170.2 C 368 170.2 366.8 170.2 366.8 170.2 C 366.8 169.8 366.7 169.3 366.7 168.9 C 366.3 169.6 365.6 170.4 363.7 170.4 C 361.3 170.4 359.8 168.7 359.8 166.2 C 359.8 166.2 359.8 166.2 359.8 166.2 C 359.8 163.6 361.7 161.9 363.9 161.9 C 365.9 161.9 366.5 162.9 366.7 163.3 C 366.73 163.29 366.7 158.1 366.7 158.1 L 367.9 158.1 Z M 361 166.2 C 361 166.2 361 166.2 361 166.2 C 361 167.8 362 169.4 363.9 169.4 C 366 169.4 366.8 168 366.8 166.1 C 366.8 166.1 366.8 166.1 366.8 166.1 C 366.8 164.3 366.1 163 364 163 C 362 163 361 164.6 361 166.2 Z M 371.5 166.4 C 371.5 166.4 371.54 166.45 371.5 166.4 C 371.6 168.2 372.8 169.4 374.5 169.4 C 375.9 169.4 376.6 168.8 377.1 168 C 377.11 167.96 377.1 168 377.1 168 L 378.3 168 C 378.3 168 378.32 167.96 378.3 168 C 377.9 169.1 376.8 170.4 374.4 170.4 C 371.7 170.4 370.3 168.3 370.3 166.2 C 370.3 166.2 370.3 166.2 370.3 166.2 C 370.3 163.7 372 161.9 374.4 161.9 C 377.4 161.9 378.4 164.2 378.4 166.1 C 378.4 166.2 378.4 166.3 378.4 166.4 C 378.44 166.45 371.5 166.4 371.5 166.4 Z M 377.2 165.5 C 377.2 165.5 377.16 165.52 377.2 165.5 C 377.1 164.5 376.5 162.9 374.4 162.9 C 372.6 162.9 371.7 164 371.6 165.5 C 371.57 165.52 371.6 165.5 371.6 165.5 L 377.2 165.5 Z M 381.4 167.8 C 381.4 167.8 381.37 167.77 381.4 167.8 C 381.7 168.8 382.6 169.4 384.1 169.4 C 385.8 169.4 386.4 168.8 386.4 168 C 386.4 167.3 386 166.8 383.9 166.5 C 381.1 166.2 380.5 165.2 380.5 164.2 C 380.5 163.2 381.3 161.9 383.8 161.9 C 386.6 161.9 387.3 163.4 387.4 164.3 C 387.41 164.3 387.4 164.3 387.4 164.3 L 386.2 164.3 C 386.2 164.3 386.18 164.3 386.2 164.3 C 386.1 163.8 385.7 162.9 383.8 162.9 C 382.1 162.9 381.8 163.6 381.8 164.1 C 381.8 164.8 382.2 165.2 384.1 165.5 C 387.1 165.8 387.7 166.7 387.7 167.9 C 387.7 169.4 386.6 170.4 384.1 170.4 C 381.7 170.4 380.4 169.4 380.1 167.8 C 380.14 167.77 380.1 167.8 380.1 167.8 L 381.4 167.8 Z M 404.1 158.1 C 404.1 158.1 404.06 167.84 404.1 167.8 C 404.1 168.6 404.1 169.4 404.1 170.2 C 404.1 170.2 402.9 170.2 402.9 170.2 C 402.9 169.8 402.9 169.3 402.9 168.9 C 402.5 169.6 401.7 170.4 399.8 170.4 C 397.5 170.4 395.9 168.7 395.9 166.2 C 395.9 166.2 395.9 166.2 395.9 166.2 C 395.9 163.6 397.9 161.9 400 161.9 C 402 161.9 402.6 162.9 402.9 163.3 C 402.85 163.29 402.9 158.1 402.9 158.1 L 404.1 158.1 Z M 397.2 166.2 C 397.2 166.2 397.2 166.2 397.2 166.2 C 397.2 167.8 398.1 169.4 400 169.4 C 402.1 169.4 402.9 168 402.9 166.1 C 402.9 166.1 402.9 166.1 402.9 166.1 C 402.9 164.3 402.3 163 400.1 163 C 398.1 163 397.2 164.6 397.2 166.2 Z M 407.7 166.4 C 407.7 166.4 407.66 166.45 407.7 166.4 C 407.7 168.2 408.9 169.4 410.6 169.4 C 412 169.4 412.8 168.8 413.2 168 C 413.23 167.96 413.2 168 413.2 168 L 414.4 168 C 414.4 168 414.44 167.96 414.4 168 C 414 169.1 412.9 170.4 410.5 170.4 C 407.8 170.4 406.4 168.3 406.4 166.2 C 406.4 166.2 406.4 166.2 406.4 166.2 C 406.4 163.7 408.1 161.9 410.5 161.9 C 413.5 161.9 414.6 164.2 414.6 166.1 C 414.6 166.2 414.6 166.3 414.6 166.4 C 414.56 166.45 407.7 166.4 407.7 166.4 Z M 413.3 165.5 C 413.3 165.5 413.28 165.52 413.3 165.5 C 413.2 164.5 412.6 162.9 410.5 162.9 C 408.7 162.9 407.8 164 407.7 165.5 C 407.69 165.52 407.7 165.5 407.7 165.5 L 413.3 165.5 Z M 423.8 167.8 C 423.8 167.8 423.8 167.77 423.8 167.8 C 424.1 168.8 425 169.4 426.6 169.4 C 428.3 169.4 428.9 168.8 428.9 168 C 428.9 167.3 428.5 166.8 426.3 166.5 C 423.5 166.2 423 165.2 423 164.2 C 423 163.2 423.8 161.9 426.3 161.9 C 429 161.9 429.8 163.4 429.8 164.3 C 429.84 164.3 429.8 164.3 429.8 164.3 L 428.6 164.3 C 428.6 164.3 428.62 164.3 428.6 164.3 C 428.5 163.8 428.1 162.9 426.2 162.9 C 424.5 162.9 424.2 163.6 424.2 164.1 C 424.2 164.8 424.6 165.2 426.5 165.5 C 429.5 165.8 430.1 166.7 430.1 167.9 C 430.1 169.4 429 170.4 426.5 170.4 C 424.1 170.4 422.9 169.4 422.6 167.8 C 422.57 167.77 422.6 167.8 422.6 167.8 L 423.8 167.8 Z M 433.1 166.4 C 433.1 166.4 433.13 166.45 433.1 166.4 C 433.2 168.2 434.4 169.4 436.1 169.4 C 437.5 169.4 438.2 168.8 438.7 168 C 438.7 167.96 438.7 168 438.7 168 L 439.9 168 C 439.9 168 439.91 167.96 439.9 168 C 439.5 169.1 438.4 170.4 436 170.4 C 433.3 170.4 431.9 168.3 431.9 166.2 C 431.9 166.2 431.9 166.2 431.9 166.2 C 431.9 163.7 433.6 161.9 436 161.9 C 439 161.9 440 164.2 440 166.1 C 440 166.2 440 166.3 440 166.4 C 440.03 166.45 433.1 166.4 433.1 166.4 Z M 438.8 165.5 C 438.8 165.5 438.75 165.52 438.8 165.5 C 438.7 164.5 438.1 162.9 436 162.9 C 434.2 162.9 433.3 164 433.2 165.5 C 433.16 165.52 433.2 165.5 433.2 165.5 L 438.8 165.5 Z M 443 167.8 C 443 167.8 442.96 167.77 443 167.8 C 443.3 168.8 444.2 169.4 445.7 169.4 C 447.4 169.4 448 168.8 448 168 C 448 167.3 447.6 166.8 445.4 166.5 C 442.7 166.2 442.1 165.2 442.1 164.2 C 442.1 163.2 442.9 161.9 445.4 161.9 C 448.2 161.9 448.9 163.4 449 164.3 C 449 164.3 449 164.3 449 164.3 L 447.8 164.3 C 447.8 164.3 447.77 164.3 447.8 164.3 C 447.6 163.8 447.3 162.9 445.3 162.9 C 443.7 162.9 443.3 163.6 443.3 164.1 C 443.3 164.8 443.8 165.2 445.7 165.5 C 448.7 165.8 449.3 166.7 449.3 167.9 C 449.3 169.4 448.2 170.4 445.7 170.4 C 443.3 170.4 442 169.4 441.7 167.8 C 441.73 167.77 441.7 167.8 441.7 167.8 L 443 167.8 Z " stroke="none" fill="#141414"/>  </g>  <g id="Polygon10095">    <path d="M 1.4 139.9 C 1.4 139.2 1.4 138.5 1.3 137.8 C 1.3 137.8 2.5 137.8 2.5 137.8 C 2.5 138.2 2.6 138.6 2.6 139.1 C 3 138.4 3.7 137.6 5.2 137.6 C 6.5 137.6 7.3 138.2 7.7 139.2 C 8.1 138.5 8.9 137.6 10.5 137.6 C 12 137.6 13.3 138.5 13.3 140.9 C 13.3 140.87 13.3 145.9 13.3 145.9 L 12.1 145.9 C 12.1 145.9 12.1 140.93 12.1 140.9 C 12.1 139.9 11.8 138.7 10.2 138.7 C 8.8 138.7 7.9 139.6 7.9 141.5 C 7.93 141.48 7.9 145.9 7.9 145.9 L 6.7 145.9 C 6.7 145.9 6.73 140.84 6.7 140.8 C 6.7 139.8 6.4 138.7 4.8 138.7 C 3.2 138.7 2.6 140 2.6 141.6 C 2.56 141.62 2.6 145.9 2.6 145.9 L 1.4 145.9 C 1.4 145.9 1.35 139.91 1.4 139.9 Z M 23.1 144 C 23.1 144.7 23.1 145.7 23.1 145.9 C 23.1 145.9 22 145.9 22 145.9 C 21.9 145.6 21.9 144.9 21.9 144.6 C 21.5 145.5 20.6 146.1 18.8 146.1 C 16.5 146.1 15.7 144.7 15.7 143.5 C 15.7 143.5 15.7 143.5 15.7 143.5 C 15.7 141.5 17.6 140.9 19.8 140.9 C 20.9 140.9 21.6 140.9 21.9 140.9 C 21.9 140.9 21.9 140.4 21.9 140.4 C 21.9 139.5 21.5 138.6 19.6 138.6 C 17.9 138.6 17.5 139.3 17.3 140.2 C 17.35 140.16 17.3 140.2 17.3 140.2 L 16.1 140.2 C 16.1 140.2 16.14 140.16 16.1 140.2 C 16.2 139.1 17 137.6 19.6 137.6 C 22.4 137.6 23.1 139 23.1 140.3 C 23.1 140.3 23.1 144 23.1 144 Z M 21.9 141.8 C 21.6 141.8 21.1 141.8 19.9 141.8 C 17.9 141.8 16.9 142.3 16.9 143.5 C 16.9 143.5 16.9 143.5 16.9 143.5 C 16.9 144.4 17.5 145.1 19 145.1 C 21.3 145.1 21.9 143.7 21.9 142.3 C 21.9 142.3 21.9 141.8 21.9 141.8 Z M 26 137.8 L 27.2 137.8 L 27.2 145.9 L 26 145.9 L 26 137.8 Z M 26 133.8 L 27.2 133.8 L 27.2 135.6 L 26 135.6 L 26 133.8 Z M 30.6 143.5 C 30.6 143.5 30.61 143.45 30.6 143.5 C 30.9 144.5 31.8 145.1 33.4 145.1 C 35.1 145.1 35.7 144.5 35.7 143.7 C 35.7 143 35.3 142.4 33.1 142.2 C 30.3 141.9 29.8 140.9 29.8 139.9 C 29.8 138.9 30.6 137.6 33.1 137.6 C 35.9 137.6 36.6 139.1 36.6 140 C 36.65 139.98 36.6 140 36.6 140 L 35.4 140 C 35.4 140 35.42 139.98 35.4 140 C 35.3 139.5 35 138.6 33 138.6 C 31.4 138.6 31 139.3 31 139.8 C 31 140.5 31.4 140.9 33.4 141.1 C 36.3 141.5 36.9 142.4 36.9 143.6 C 36.9 145.1 35.8 146.1 33.3 146.1 C 30.9 146.1 29.7 145.1 29.4 143.5 C 29.37 143.45 29.4 143.5 29.4 143.5 L 30.6 143.5 Z M 52.9 144.5 C 52.5 145.4 51.6 146.1 49.8 146.1 C 47.6 146.1 46 144.4 46 142 C 46 142 46 142 46 142 C 46 139.2 48 137.6 50 137.6 C 52 137.6 52.7 138.7 52.9 139.1 C 52.9 138.5 52.9 138.1 53 137.8 C 53 137.8 54.1 137.8 54.1 137.8 C 54.1 138.5 54.1 139.3 54.1 140.1 C 54.13 140.11 54.1 149.4 54.1 149.4 L 52.9 149.4 C 52.9 149.4 52.92 144.53 52.9 144.5 Z M 47.2 141.9 C 47.2 141.9 47.2 141.9 47.2 141.9 C 47.2 143.6 48.3 145 50 145 C 51.9 145 52.9 143.9 52.9 141.8 C 52.9 141.8 52.9 141.8 52.9 141.8 C 52.9 140 52.1 138.7 50.1 138.7 C 48.2 138.7 47.2 140.2 47.2 141.9 Z M 64.2 143.5 C 64.2 144.3 64.2 145.1 64.2 145.9 C 64.2 145.9 63.1 145.9 63.1 145.9 C 63 145.7 63 145 63 144.4 C 62.6 145.4 61.8 146.1 60 146.1 C 58.3 146.1 57 145.2 57 142.8 C 57.02 142.85 57 137.8 57 137.8 L 58.2 137.8 C 58.2 137.8 58.22 142.61 58.2 142.6 C 58.2 143.9 58.7 145 60.3 145 C 62.2 145 63 143.9 63 141.4 C 62.99 141.45 63 137.8 63 137.8 L 64.2 137.8 C 64.2 137.8 64.2 143.53 64.2 143.5 Z M 67.1 137.8 L 68.3 137.8 L 68.3 145.9 L 67.1 145.9 L 67.1 137.8 Z M 67.1 133.8 L 68.3 133.8 L 68.3 135.6 L 67.1 135.6 L 67.1 133.8 Z M 79.8 144.6 C 79.83 144.57 79.8 149.4 79.8 149.4 L 78.6 149.4 C 78.6 149.4 78.62 139.85 78.6 139.8 C 78.6 139.2 78.6 138.5 78.6 137.8 C 78.6 137.8 79.8 137.8 79.8 137.8 C 79.8 138.1 79.8 138.6 79.8 139.3 C 80.3 138.4 81.3 137.6 83 137.6 C 85.2 137.6 86.8 139.4 86.8 141.7 C 86.8 141.7 86.8 141.7 86.8 141.7 C 86.8 144.3 85 146.1 82.8 146.1 C 81 146.1 80.3 145.3 79.8 144.6 Z M 85.5 141.8 C 85.5 141.8 85.5 141.8 85.5 141.8 C 85.5 140.3 84.6 138.7 82.7 138.7 C 80.7 138.7 79.8 140.1 79.8 141.9 C 79.8 141.9 79.8 141.9 79.8 141.9 C 79.8 143.7 80.7 145 82.6 145 C 84.6 145 85.5 143.5 85.5 141.8 Z M 89.1 140 C 89.1 139.3 89.1 138.6 89.1 137.8 C 89.1 137.8 90.3 137.8 90.3 137.8 C 90.3 138.1 90.3 138.9 90.3 139.7 C 90.9 138.4 92.1 137.6 93.6 137.6 C 93.6 137.6 93.6 138.8 93.6 138.8 C 91.8 138.8 90.3 140 90.3 142.4 C 90.34 142.4 90.3 145.9 90.3 145.9 L 89.1 145.9 C 89.1 145.9 89.13 140.02 89.1 140 Z M 96 142.1 C 96 142.1 96.03 142.13 96 142.1 C 96.1 143.8 97.3 145.1 99 145.1 C 100.4 145.1 101.1 144.5 101.6 143.6 C 101.6 143.64 101.6 143.6 101.6 143.6 L 102.8 143.6 C 102.8 143.6 102.81 143.64 102.8 143.6 C 102.4 144.8 101.3 146.1 98.9 146.1 C 96.2 146.1 94.8 144 94.8 141.9 C 94.8 141.9 94.8 141.9 94.8 141.9 C 94.8 139.4 96.5 137.6 98.9 137.6 C 101.9 137.6 102.9 139.9 102.9 141.8 C 102.9 141.9 102.9 142 102.9 142.1 C 102.93 142.13 96 142.1 96 142.1 Z M 101.7 141.2 C 101.7 141.2 101.65 141.2 101.7 141.2 C 101.6 140.1 101 138.6 98.9 138.6 C 97.1 138.6 96.2 139.7 96.1 141.2 C 96.06 141.2 96.1 141.2 96.1 141.2 L 101.7 141.2 Z M 105.3 139.9 C 105.3 139.2 105.3 138.4 105.3 137.8 C 105.3 137.8 106.4 137.8 106.4 137.8 C 106.5 138.1 106.5 138.8 106.5 139.5 C 106.8 138.6 107.7 137.6 109.5 137.6 C 111.3 137.6 112.6 138.8 112.6 141 C 112.58 141 112.6 145.9 112.6 145.9 L 111.4 145.9 C 111.4 145.9 111.37 141.23 111.4 141.2 C 111.4 139.8 110.8 138.7 109.2 138.7 C 107.4 138.7 106.5 140.1 106.5 142.1 C 106.5 142.07 106.5 145.9 106.5 145.9 L 105.3 145.9 C 105.3 145.9 105.28 139.86 105.3 139.9 Z M 115.5 139.9 C 115.5 139.2 115.5 138.4 115.4 137.8 C 115.4 137.8 116.6 137.8 116.6 137.8 C 116.7 138.1 116.7 138.8 116.7 139.5 C 117 138.6 117.9 137.6 119.7 137.6 C 121.5 137.6 122.8 138.8 122.8 141 C 122.76 141 122.8 145.9 122.8 145.9 L 121.5 145.9 C 121.5 145.9 121.55 141.23 121.5 141.2 C 121.5 139.8 121 138.7 119.4 138.7 C 117.6 138.7 116.7 140.1 116.7 142.1 C 116.68 142.07 116.7 145.9 116.7 145.9 L 115.5 145.9 C 115.5 145.9 115.46 139.86 115.5 139.9 Z M 126.3 142.1 C 126.3 142.1 126.32 142.13 126.3 142.1 C 126.4 143.8 127.5 145.1 129.3 145.1 C 130.7 145.1 131.4 144.5 131.9 143.6 C 131.89 143.64 131.9 143.6 131.9 143.6 L 133.1 143.6 C 133.1 143.6 133.1 143.64 133.1 143.6 C 132.7 144.8 131.6 146.1 129.2 146.1 C 126.4 146.1 125.1 144 125.1 141.9 C 125.1 141.9 125.1 141.9 125.1 141.9 C 125.1 139.4 126.7 137.6 129.2 137.6 C 132.2 137.6 133.2 139.9 133.2 141.8 C 133.2 141.9 133.2 142 133.2 142.1 C 133.22 142.13 126.3 142.1 126.3 142.1 Z M 131.9 141.2 C 131.9 141.2 131.94 141.2 131.9 141.2 C 131.9 140.1 131.3 138.6 129.2 138.6 C 127.4 138.6 126.5 139.7 126.4 141.2 C 126.35 141.2 126.4 141.2 126.4 141.2 L 131.9 141.2 Z M 135.6 139.9 C 135.6 139.2 135.6 138.4 135.6 137.8 C 135.6 137.8 136.7 137.8 136.7 137.8 C 136.8 138.1 136.8 138.8 136.8 139.5 C 137.1 138.6 138 137.6 139.8 137.6 C 141.6 137.6 142.9 138.8 142.9 141 C 142.87 141 142.9 145.9 142.9 145.9 L 141.7 145.9 C 141.7 145.9 141.66 141.23 141.7 141.2 C 141.7 139.8 141.1 138.7 139.5 138.7 C 137.7 138.7 136.8 140.1 136.8 142.1 C 136.78 142.07 136.8 145.9 136.8 145.9 L 135.6 145.9 C 135.6 145.9 135.57 139.86 135.6 139.9 Z M 144.6 137.8 L 146.2 137.8 L 146.2 135.2 L 147.5 135.2 L 147.5 137.8 L 149.6 137.8 L 149.6 138.8 L 147.5 138.8 C 147.5 138.8 147.45 143.54 147.5 143.5 C 147.5 144.5 147.7 145 148.6 145 C 148.9 145 149.2 145 149.4 144.9 C 149.4 144.9 149.4 145.8 149.4 145.8 C 149.1 145.9 148.7 146 148.3 146 C 146.7 146 146.2 145.2 146.2 143.7 C 146.24 143.66 146.2 138.8 146.2 138.8 L 144.6 138.8 L 144.6 137.8 Z M 166.2 143.5 C 166.2 144.3 166.2 145.1 166.2 145.9 C 166.2 145.9 165 145.9 165 145.9 C 165 145.7 165 145 165 144.4 C 164.6 145.4 163.8 146.1 162 146.1 C 160.3 146.1 159 145.2 159 142.8 C 158.99 142.85 159 137.8 159 137.8 L 160.2 137.8 C 160.2 137.8 160.2 142.61 160.2 142.6 C 160.2 143.9 160.7 145 162.3 145 C 164.1 145 165 143.9 165 141.4 C 164.96 141.45 165 137.8 165 137.8 L 166.2 137.8 C 166.2 137.8 166.17 143.53 166.2 143.5 Z M 169.1 139.9 C 169.1 139.2 169.1 138.4 169.1 137.8 C 169.1 137.8 170.2 137.8 170.2 137.8 C 170.3 138.1 170.3 138.8 170.3 139.5 C 170.6 138.6 171.5 137.6 173.3 137.6 C 175.1 137.6 176.4 138.8 176.4 141 C 176.39 141 176.4 145.9 176.4 145.9 L 175.2 145.9 C 175.2 145.9 175.17 141.23 175.2 141.2 C 175.2 139.8 174.6 138.7 173 138.7 C 171.2 138.7 170.3 140.1 170.3 142.1 C 170.3 142.07 170.3 145.9 170.3 145.9 L 169.1 145.9 C 169.1 145.9 169.09 139.86 169.1 139.9 Z M 179.9 142.1 C 179.9 142.1 179.94 142.13 179.9 142.1 C 180 143.8 181.2 145.1 182.9 145.1 C 184.3 145.1 185 144.5 185.5 143.6 C 185.51 143.64 185.5 143.6 185.5 143.6 L 186.7 143.6 C 186.7 143.6 186.72 143.64 186.7 143.6 C 186.3 144.8 185.2 146.1 182.8 146.1 C 180.1 146.1 178.7 144 178.7 141.9 C 178.7 141.9 178.7 141.9 178.7 141.9 C 178.7 139.4 180.4 137.6 182.8 137.6 C 185.8 137.6 186.8 139.9 186.8 141.8 C 186.8 141.9 186.8 142 186.8 142.1 C 186.84 142.13 179.9 142.1 179.9 142.1 Z M 185.6 141.2 C 185.6 141.2 185.56 141.2 185.6 141.2 C 185.5 140.1 184.9 138.6 182.8 138.6 C 181 138.6 180.1 139.7 180 141.2 C 179.97 141.2 180 141.2 180 141.2 L 185.6 141.2 Z M 195.4 137.8 L 197 137.8 L 197 135.2 L 198.2 135.2 L 198.2 137.8 L 200.4 137.8 L 200.4 138.8 L 198.2 138.8 C 198.2 138.8 198.21 143.54 198.2 143.5 C 198.2 144.5 198.5 145 199.4 145 C 199.6 145 200 145 200.2 144.9 C 200.2 144.9 200.2 145.8 200.2 145.8 C 199.9 145.9 199.5 146 199.1 146 C 197.5 146 197 145.2 197 143.7 C 197 143.66 197 138.8 197 138.8 L 195.4 138.8 L 195.4 137.8 Z M 210 141.9 C 210 141.9 210 141.9 210 141.9 C 210 144 208.6 146.1 205.8 146.1 C 203.1 146.1 201.6 144.1 201.6 141.9 C 201.6 141.9 201.6 141.9 201.6 141.9 C 201.6 139.5 203.2 137.6 205.8 137.6 C 208.5 137.6 210 139.7 210 141.9 Z M 202.8 141.9 C 202.8 141.9 202.8 141.9 202.8 141.9 C 202.8 143.5 203.9 145.1 205.8 145.1 C 207.8 145.1 208.7 143.6 208.7 141.9 C 208.7 141.9 208.7 141.9 208.7 141.9 C 208.7 140.1 207.7 138.6 205.8 138.6 C 203.8 138.6 202.8 140.1 202.8 141.9 Z M 219.5 143.5 C 219.5 144.3 219.5 145.1 219.5 145.9 C 219.5 145.9 218.4 145.9 218.4 145.9 C 218.3 145.7 218.3 145 218.3 144.4 C 217.9 145.4 217.1 146.1 215.4 146.1 C 213.6 146.1 212.3 145.2 212.3 142.8 C 212.32 142.85 212.3 137.8 212.3 137.8 L 213.5 137.8 C 213.5 137.8 213.53 142.61 213.5 142.6 C 213.5 143.9 214 145 215.6 145 C 217.5 145 218.3 143.9 218.3 141.4 C 218.29 141.45 218.3 137.8 218.3 137.8 L 219.5 137.8 C 219.5 137.8 219.5 143.53 219.5 143.5 Z M 221.4 137.8 L 223.1 137.8 L 223.1 135.2 L 224.3 135.2 L 224.3 137.8 L 226.5 137.8 L 226.5 138.8 L 224.3 138.8 C 224.3 138.8 224.3 143.54 224.3 143.5 C 224.3 144.5 224.6 145 225.5 145 C 225.7 145 226.1 145 226.3 144.9 C 226.3 144.9 226.3 145.8 226.3 145.8 C 226 145.9 225.6 146 225.2 146 C 223.6 146 223.1 145.2 223.1 143.7 C 223.09 143.66 223.1 138.8 223.1 138.8 L 221.4 138.8 L 221.4 137.8 Z M 242.6 144 C 242.6 144.7 242.7 145.7 242.7 145.9 C 242.7 145.9 241.5 145.9 241.5 145.9 C 241.5 145.6 241.4 144.9 241.4 144.6 C 241 145.5 240.1 146.1 238.4 146.1 C 236.1 146.1 235.2 144.7 235.2 143.5 C 235.2 143.5 235.2 143.5 235.2 143.5 C 235.2 141.5 237.1 140.9 239.4 140.9 C 240.5 140.9 241.2 140.9 241.4 140.9 C 241.4 140.9 241.4 140.4 241.4 140.4 C 241.4 139.5 241 138.6 239.2 138.6 C 237.5 138.6 237.1 139.3 236.9 140.2 C 236.91 140.16 236.9 140.2 236.9 140.2 L 235.7 140.2 C 235.7 140.2 235.7 140.16 235.7 140.2 C 235.8 139.1 236.5 137.6 239.2 137.6 C 241.9 137.6 242.6 139 242.6 140.3 C 242.6 140.3 242.6 144 242.6 144 Z M 241.4 141.8 C 241.2 141.8 240.6 141.8 239.4 141.8 C 237.4 141.8 236.4 142.3 236.4 143.5 C 236.4 143.5 236.4 143.5 236.4 143.5 C 236.4 144.4 237.1 145.1 238.5 145.1 C 240.9 145.1 241.4 143.7 241.4 142.3 C 241.4 142.3 241.4 141.8 241.4 141.8 Z M 252.6 143.5 C 252.6 144.3 252.6 145.1 252.6 145.9 C 252.6 145.9 251.5 145.9 251.5 145.9 C 251.5 145.7 251.4 145 251.4 144.4 C 251 145.4 250.3 146.1 248.5 146.1 C 246.8 146.1 245.5 145.2 245.5 142.8 C 245.45 142.85 245.5 137.8 245.5 137.8 L 246.7 137.8 C 246.7 137.8 246.66 142.61 246.7 142.6 C 246.7 143.9 247.2 145 248.7 145 C 250.6 145 251.4 143.9 251.4 141.4 C 251.42 141.45 251.4 137.8 251.4 137.8 L 252.6 137.8 C 252.6 137.8 252.63 143.53 252.6 143.5 Z M 254.6 137.8 L 256.2 137.8 L 256.2 135.2 L 257.4 135.2 L 257.4 137.8 L 259.6 137.8 L 259.6 138.8 L 257.4 138.8 C 257.4 138.8 257.43 143.54 257.4 143.5 C 257.4 144.5 257.7 145 258.6 145 C 258.8 145 259.2 145 259.4 144.9 C 259.4 144.9 259.4 145.8 259.4 145.8 C 259.1 145.9 258.7 146 258.3 146 C 256.7 146 256.2 145.2 256.2 143.7 C 256.22 143.66 256.2 138.8 256.2 138.8 L 254.6 138.8 L 254.6 137.8 Z M 261.6 140 C 261.6 139.3 261.6 138.6 261.6 137.8 C 261.6 137.8 262.8 137.8 262.8 137.8 C 262.8 138.1 262.8 138.9 262.8 139.7 C 263.4 138.4 264.6 137.6 266.1 137.6 C 266.1 137.6 266.1 138.8 266.1 138.8 C 264.3 138.8 262.8 140 262.8 142.4 C 262.84 142.4 262.8 145.9 262.8 145.9 L 261.6 145.9 C 261.6 145.9 261.63 140.02 261.6 140 Z M 268.5 142.1 C 268.5 142.1 268.53 142.13 268.5 142.1 C 268.6 143.8 269.8 145.1 271.5 145.1 C 272.9 145.1 273.6 144.5 274.1 143.6 C 274.1 143.64 274.1 143.6 274.1 143.6 L 275.3 143.6 C 275.3 143.6 275.31 143.64 275.3 143.6 C 274.9 144.8 273.8 146.1 271.4 146.1 C 268.7 146.1 267.3 144 267.3 141.9 C 267.3 141.9 267.3 141.9 267.3 141.9 C 267.3 139.4 269 137.6 271.4 137.6 C 274.4 137.6 275.4 139.9 275.4 141.8 C 275.4 141.9 275.4 142 275.4 142.1 C 275.43 142.13 268.5 142.1 268.5 142.1 Z M 274.1 141.2 C 274.1 141.2 274.15 141.2 274.1 141.2 C 274.1 140.1 273.5 138.6 271.4 138.6 C 269.6 138.6 268.7 139.7 268.6 141.2 C 268.56 141.2 268.6 141.2 268.6 141.2 L 274.1 141.2 Z M 283.9 137.8 L 285.6 137.8 L 285.6 135.2 L 286.8 135.2 L 286.8 137.8 L 289 137.8 L 289 138.8 L 286.8 138.8 C 286.8 138.8 286.8 143.54 286.8 143.5 C 286.8 144.5 287.1 145 288 145 C 288.2 145 288.5 145 288.8 144.9 C 288.8 144.9 288.8 145.8 288.8 145.8 C 288.4 145.9 288.1 146 287.6 146 C 286.1 146 285.6 145.2 285.6 143.7 C 285.59 143.66 285.6 138.8 285.6 138.8 L 283.9 138.8 L 283.9 137.8 Z M 298.6 141.9 C 298.6 141.9 298.6 141.9 298.6 141.9 C 298.6 144 297.2 146.1 294.3 146.1 C 291.7 146.1 290.2 144.1 290.2 141.9 C 290.2 141.9 290.2 141.9 290.2 141.9 C 290.2 139.5 291.8 137.6 294.4 137.6 C 297.1 137.6 298.6 139.7 298.6 141.9 Z M 291.4 141.9 C 291.4 141.9 291.4 141.9 291.4 141.9 C 291.4 143.5 292.5 145.1 294.4 145.1 C 296.4 145.1 297.3 143.6 297.3 141.9 C 297.3 141.9 297.3 141.9 297.3 141.9 C 297.3 140.1 296.2 138.6 294.3 138.6 C 292.4 138.6 291.4 140.1 291.4 141.9 Z M 308.1 143.5 C 308.1 144.3 308.1 145.1 308.1 145.9 C 308.1 145.9 306.9 145.9 306.9 145.9 C 306.9 145.7 306.9 145 306.9 144.4 C 306.5 145.4 305.7 146.1 303.9 146.1 C 302.2 146.1 300.9 145.2 300.9 142.8 C 300.91 142.85 300.9 137.8 300.9 137.8 L 302.1 137.8 C 302.1 137.8 302.12 142.61 302.1 142.6 C 302.1 143.9 302.6 145 304.2 145 C 306.1 145 306.9 143.9 306.9 141.4 C 306.88 141.45 306.9 137.8 306.9 137.8 L 308.1 137.8 C 308.1 137.8 308.09 143.53 308.1 143.5 Z M 311 140 C 311 139.3 311 138.6 311 137.8 C 311 137.8 312.2 137.8 312.2 137.8 C 312.2 138.1 312.2 138.9 312.2 139.7 C 312.8 138.4 314 137.6 315.5 137.6 C 315.5 137.6 315.5 138.8 315.5 138.8 C 313.7 138.8 312.2 140 312.2 142.4 C 312.22 142.4 312.2 145.9 312.2 145.9 L 311 145.9 C 311 145.9 311.01 140.02 311 140 Z M 317.5 139.9 C 317.5 139.2 317.5 138.4 317.5 137.8 C 317.5 137.8 318.6 137.8 318.6 137.8 C 318.7 138.1 318.7 138.8 318.7 139.5 C 319 138.6 319.9 137.6 321.7 137.6 C 323.5 137.6 324.8 138.8 324.8 141 C 324.77 141 324.8 145.9 324.8 145.9 L 323.6 145.9 C 323.6 145.9 323.55 141.23 323.6 141.2 C 323.6 139.8 323 138.7 321.4 138.7 C 319.6 138.7 318.7 140.1 318.7 142.1 C 318.68 142.07 318.7 145.9 318.7 145.9 L 317.5 145.9 C 317.5 145.9 317.47 139.86 317.5 139.9 Z M 334.8 143.5 C 334.8 144.3 334.8 145.1 334.8 145.9 C 334.8 145.9 333.6 145.9 333.6 145.9 C 333.6 145.7 333.6 145 333.6 144.4 C 333.2 145.4 332.4 146.1 330.6 146.1 C 328.9 146.1 327.6 145.2 327.6 142.8 C 327.61 142.85 327.6 137.8 327.6 137.8 L 328.8 137.8 C 328.8 137.8 328.82 142.61 328.8 142.6 C 328.8 143.9 329.3 145 330.9 145 C 332.8 145 333.6 143.9 333.6 141.4 C 333.58 141.45 333.6 137.8 333.6 137.8 L 334.8 137.8 C 334.8 137.8 334.79 143.53 334.8 143.5 Z M 337.7 140 C 337.7 139.3 337.7 138.6 337.7 137.8 C 337.7 137.8 338.9 137.8 338.9 137.8 C 338.9 138.1 338.9 138.9 338.9 139.7 C 339.5 138.4 340.7 137.6 342.2 137.6 C 342.2 137.6 342.2 138.8 342.2 138.8 C 340.4 138.8 338.9 140 338.9 142.4 C 338.91 142.4 338.9 145.9 338.9 145.9 L 337.7 145.9 C 337.7 145.9 337.7 140.02 337.7 140 Z M 344.6 142.1 C 344.6 142.1 344.6 142.13 344.6 142.1 C 344.7 143.8 345.8 145.1 347.6 145.1 C 348.9 145.1 349.7 144.5 350.2 143.6 C 350.17 143.64 350.2 143.6 350.2 143.6 L 351.4 143.6 C 351.4 143.6 351.38 143.64 351.4 143.6 C 351 144.8 349.8 146.1 347.5 146.1 C 344.7 146.1 343.4 144 343.4 141.9 C 343.4 141.9 343.4 141.9 343.4 141.9 C 343.4 139.4 345 137.6 347.4 137.6 C 350.5 137.6 351.5 139.9 351.5 141.8 C 351.5 141.9 351.5 142 351.5 142.1 C 351.5 142.13 344.6 142.1 344.6 142.1 Z M 350.2 141.2 C 350.2 141.2 350.22 141.2 350.2 141.2 C 350.1 140.1 349.6 138.6 347.4 138.6 C 345.7 138.6 344.8 139.7 344.6 141.2 C 344.63 141.2 344.6 141.2 344.6 141.2 L 350.2 141.2 Z M 361.1 139.9 C 361.1 139.2 361.1 138.5 361.1 137.8 C 361.1 137.8 362.3 137.8 362.3 137.8 C 362.3 138.2 362.3 138.6 362.3 139.1 C 362.7 138.4 363.5 137.6 365 137.6 C 366.3 137.6 367.1 138.2 367.4 139.2 C 367.9 138.5 368.6 137.6 370.2 137.6 C 371.8 137.6 373.1 138.5 373.1 140.9 C 373.06 140.87 373.1 145.9 373.1 145.9 L 371.9 145.9 C 371.9 145.9 371.86 140.93 371.9 140.9 C 371.9 139.9 371.5 138.7 370 138.7 C 368.6 138.7 367.7 139.6 367.7 141.5 C 367.69 141.48 367.7 145.9 367.7 145.9 L 366.5 145.9 C 366.5 145.9 366.49 140.84 366.5 140.8 C 366.5 139.8 366.1 138.7 364.6 138.7 C 362.9 138.7 362.3 140 362.3 141.6 C 362.31 141.62 362.3 145.9 362.3 145.9 L 361.1 145.9 C 361.1 145.9 361.11 139.91 361.1 139.9 Z M 382.8 144 C 382.8 144.7 382.9 145.7 382.9 145.9 C 382.9 145.9 381.7 145.9 381.7 145.9 C 381.7 145.6 381.6 144.9 381.6 144.6 C 381.2 145.5 380.3 146.1 378.5 146.1 C 376.3 146.1 375.4 144.7 375.4 143.5 C 375.4 143.5 375.4 143.5 375.4 143.5 C 375.4 141.5 377.3 140.9 379.6 140.9 C 380.7 140.9 381.4 140.9 381.6 140.9 C 381.6 140.9 381.6 140.4 381.6 140.4 C 381.6 139.5 381.2 138.6 379.4 138.6 C 377.7 138.6 377.3 139.3 377.1 140.2 C 377.11 140.16 377.1 140.2 377.1 140.2 L 375.9 140.2 C 375.9 140.2 375.9 140.16 375.9 140.2 C 376 139.1 376.7 137.6 379.4 137.6 C 382.1 137.6 382.8 139 382.8 140.3 C 382.8 140.3 382.8 144 382.8 144 Z M 381.6 141.8 C 381.4 141.8 380.8 141.8 379.6 141.8 C 377.6 141.8 376.6 142.3 376.6 143.5 C 376.6 143.5 376.6 143.5 376.6 143.5 C 376.6 144.4 377.3 145.1 378.7 145.1 C 381.1 145.1 381.6 143.7 381.6 142.3 C 381.6 142.3 381.6 141.8 381.6 141.8 Z M 385.7 137.8 L 386.9 137.8 L 386.9 145.9 L 385.7 145.9 L 385.7 137.8 Z M 385.7 133.8 L 386.9 133.8 L 386.9 135.6 L 385.7 135.6 L 385.7 133.8 Z M 389.8 139.9 C 389.8 139.2 389.8 138.4 389.8 137.8 C 389.8 137.8 391 137.8 391 137.8 C 391 138.1 391 138.8 391 139.5 C 391.4 138.6 392.2 137.6 394 137.6 C 395.9 137.6 397.1 138.8 397.1 141 C 397.12 141 397.1 145.9 397.1 145.9 L 395.9 145.9 C 395.9 145.9 395.91 141.23 395.9 141.2 C 395.9 139.8 395.4 138.7 393.8 138.7 C 391.9 138.7 391 140.1 391 142.1 C 391.03 142.07 391 145.9 391 145.9 L 389.8 145.9 C 389.8 145.9 389.82 139.86 389.8 139.9 Z M 398.8 137.8 L 400.5 137.8 L 400.5 135.2 L 401.7 135.2 L 401.7 137.8 L 403.9 137.8 L 403.9 138.8 L 401.7 138.8 C 401.7 138.8 401.7 143.54 401.7 143.5 C 401.7 144.5 402 145 402.9 145 C 403.1 145 403.5 145 403.7 144.9 C 403.7 144.9 403.7 145.8 403.7 145.8 C 403.4 145.9 403 146 402.6 146 C 401 146 400.5 145.2 400.5 143.7 C 400.49 143.66 400.5 138.8 400.5 138.8 L 398.8 138.8 L 398.8 137.8 Z M 406.3 142.1 C 406.3 142.1 406.33 142.13 406.3 142.1 C 406.4 143.8 407.6 145.1 409.3 145.1 C 410.7 145.1 411.4 144.5 411.9 143.6 C 411.9 143.64 411.9 143.6 411.9 143.6 L 413.1 143.6 C 413.1 143.6 413.11 143.64 413.1 143.6 C 412.7 144.8 411.6 146.1 409.2 146.1 C 406.5 146.1 405.1 144 405.1 141.9 C 405.1 141.9 405.1 141.9 405.1 141.9 C 405.1 139.4 406.8 137.6 409.2 137.6 C 412.2 137.6 413.2 139.9 413.2 141.8 C 413.2 141.9 413.2 142 413.2 142.1 C 413.23 142.13 406.3 142.1 406.3 142.1 Z M 412 141.2 C 412 141.2 411.95 141.2 412 141.2 C 411.9 140.1 411.3 138.6 409.2 138.6 C 407.4 138.6 406.5 139.7 406.4 141.2 C 406.36 141.2 406.4 141.2 406.4 141.2 L 412 141.2 Z M 415.6 139.9 C 415.6 139.2 415.6 138.4 415.6 137.8 C 415.6 137.8 416.7 137.8 416.7 137.8 C 416.8 138.1 416.8 138.8 416.8 139.5 C 417.1 138.6 418 137.6 419.8 137.6 C 421.6 137.6 422.9 138.8 422.9 141 C 422.88 141 422.9 145.9 422.9 145.9 L 421.7 145.9 C 421.7 145.9 421.67 141.23 421.7 141.2 C 421.7 139.8 421.1 138.7 419.5 138.7 C 417.7 138.7 416.8 140.1 416.8 142.1 C 416.79 142.07 416.8 145.9 416.8 145.9 L 415.6 145.9 C 415.6 145.9 415.58 139.86 415.6 139.9 Z M 432.6 144 C 432.6 144.7 432.7 145.7 432.7 145.9 C 432.7 145.9 431.5 145.9 431.5 145.9 C 431.5 145.6 431.4 144.9 431.4 144.6 C 431 145.5 430.1 146.1 428.4 146.1 C 426.1 146.1 425.2 144.7 425.2 143.5 C 425.2 143.5 425.2 143.5 425.2 143.5 C 425.2 141.5 427.1 140.9 429.4 140.9 C 430.5 140.9 431.2 140.9 431.4 140.9 C 431.4 140.9 431.4 140.4 431.4 140.4 C 431.4 139.5 431 138.6 429.2 138.6 C 427.5 138.6 427.1 139.3 426.9 140.2 C 426.91 140.16 426.9 140.2 426.9 140.2 L 425.7 140.2 C 425.7 140.2 425.7 140.16 425.7 140.2 C 425.8 139.1 426.5 137.6 429.2 137.6 C 431.9 137.6 432.6 139 432.6 140.3 C 432.6 140.3 432.6 144 432.6 144 Z M 431.4 141.8 C 431.2 141.8 430.6 141.8 429.4 141.8 C 427.4 141.8 426.4 142.3 426.4 143.5 C 426.4 143.5 426.4 143.5 426.4 143.5 C 426.4 144.4 427.1 145.1 428.5 145.1 C 430.9 145.1 431.4 143.7 431.4 142.3 C 431.4 142.3 431.4 141.8 431.4 141.8 Z M 435.5 139.9 C 435.5 139.2 435.5 138.4 435.5 137.8 C 435.5 137.8 436.7 137.8 436.7 137.8 C 436.7 138.1 436.7 138.8 436.7 139.5 C 437.1 138.6 437.9 137.6 439.7 137.6 C 441.6 137.6 442.8 138.8 442.8 141 C 442.82 141 442.8 145.9 442.8 145.9 L 441.6 145.9 C 441.6 145.9 441.6 141.23 441.6 141.2 C 441.6 139.8 441.1 138.7 439.4 138.7 C 437.6 138.7 436.7 140.1 436.7 142.1 C 436.73 142.07 436.7 145.9 436.7 145.9 L 435.5 145.9 C 435.5 145.9 435.52 139.86 435.5 139.9 Z M 444.5 137.8 L 446.2 137.8 L 446.2 135.2 L 447.4 135.2 L 447.4 137.8 L 449.6 137.8 L 449.6 138.8 L 447.4 138.8 C 447.4 138.8 447.4 143.54 447.4 143.5 C 447.4 144.5 447.7 145 448.6 145 C 448.8 145 449.2 145 449.4 144.9 C 449.4 144.9 449.4 145.8 449.4 145.8 C 449 145.9 448.7 146 448.2 146 C 446.7 146 446.2 145.2 446.2 143.7 C 446.19 143.66 446.2 138.8 446.2 138.8 L 444.5 138.8 L 444.5 137.8 Z " stroke="none" fill="#141414"/>  </g>  <g id="Polygon10094">    <path d="M 12.8 115.8 C 12.8 115.8 12.8 115.8 12.8 115.8 C 12.8 119.1 10.6 121.8 6.9 121.8 C 3.2 121.8 0.9 119.2 0.9 115.8 C 0.9 115.8 0.9 115.8 0.9 115.8 C 0.9 112.6 3.3 109.9 6.9 109.9 C 10.4 109.9 12.8 112.7 12.8 115.8 Z M 2.3 115.8 C 2.3 115.8 2.3 115.8 2.3 115.8 C 2.3 118.3 3.9 120.7 6.9 120.7 C 9.8 120.7 11.4 118.5 11.4 115.9 C 11.4 115.9 11.4 115.9 11.4 115.9 C 11.4 113.4 9.8 111 6.8 111 C 4 111 2.3 113.2 2.3 115.8 Z M 15.5 115.5 C 15.5 114.9 15.5 114.1 15.5 113.5 C 15.5 113.5 16.7 113.5 16.7 113.5 C 16.7 113.8 16.7 114.5 16.7 115.1 C 17.1 114.3 17.9 113.3 19.7 113.3 C 21.6 113.3 22.8 114.4 22.8 116.7 C 22.8 116.68 22.8 121.6 22.8 121.6 L 21.6 121.6 C 21.6 121.6 21.58 116.91 21.6 116.9 C 21.6 115.5 21 114.4 19.4 114.4 C 17.6 114.4 16.7 115.8 16.7 117.7 C 16.71 117.75 16.7 121.6 16.7 121.6 L 15.5 121.6 C 15.5 121.6 15.5 115.54 15.5 115.5 Z M 38.9 119.1 C 38.9 119.1 38.88 119.13 38.9 119.1 C 39.2 120.2 40.1 120.8 41.7 120.8 C 43.3 120.8 44 120.2 44 119.4 C 44 118.6 43.5 118.1 41.4 117.9 C 38.6 117.5 38 116.6 38 115.6 C 38 114.6 38.8 113.3 41.4 113.3 C 44.1 113.3 44.8 114.8 44.9 115.7 C 44.92 115.66 44.9 115.7 44.9 115.7 L 43.7 115.7 C 43.7 115.7 43.69 115.66 43.7 115.7 C 43.6 115.1 43.2 114.3 41.3 114.3 C 39.6 114.3 39.3 115 39.3 115.5 C 39.3 116.2 39.7 116.6 41.6 116.8 C 44.6 117.2 45.2 118.1 45.2 119.3 C 45.2 120.7 44.1 121.8 41.6 121.8 C 39.2 121.8 37.9 120.8 37.7 119.1 C 37.65 119.13 37.7 119.1 37.7 119.1 L 38.9 119.1 Z M 48.2 117.8 C 48.2 117.8 48.21 117.81 48.2 117.8 C 48.3 119.5 49.4 120.8 51.2 120.8 C 52.5 120.8 53.3 120.2 53.8 119.3 C 53.78 119.32 53.8 119.3 53.8 119.3 L 55 119.3 C 55 119.3 54.99 119.32 55 119.3 C 54.6 120.5 53.5 121.8 51.1 121.8 C 48.3 121.8 47 119.7 47 117.6 C 47 117.6 47 117.6 47 117.6 C 47 115.1 48.6 113.3 51.1 113.3 C 54.1 113.3 55.1 115.5 55.1 117.5 C 55.1 117.6 55.1 117.7 55.1 117.8 C 55.11 117.81 48.2 117.8 48.2 117.8 Z M 53.8 116.9 C 53.8 116.9 53.83 116.88 53.8 116.9 C 53.8 115.8 53.2 114.3 51 114.3 C 49.3 114.3 48.4 115.4 48.2 116.9 C 48.24 116.88 48.2 116.9 48.2 116.9 L 53.8 116.9 Z M 57.5 115.5 C 57.5 114.9 57.5 114.1 57.4 113.5 C 57.4 113.5 58.6 113.5 58.6 113.5 C 58.7 113.8 58.7 114.5 58.7 115.1 C 59 114.3 59.9 113.3 61.7 113.3 C 63.5 113.3 64.8 114.4 64.8 116.7 C 64.76 116.68 64.8 121.6 64.8 121.6 L 63.5 121.6 C 63.5 121.6 63.55 116.91 63.5 116.9 C 63.5 115.5 63 114.4 61.4 114.4 C 59.6 114.4 58.7 115.8 58.7 117.7 C 58.67 117.75 58.7 121.6 58.7 121.6 L 57.5 121.6 C 57.5 121.6 57.46 115.54 57.5 115.5 Z M 66.5 113.5 L 68.1 113.5 L 68.1 110.9 L 69.3 110.9 L 69.3 113.5 L 71.5 113.5 L 71.5 114.5 L 69.3 114.5 C 69.3 114.5 69.34 119.22 69.3 119.2 C 69.3 120.2 69.6 120.6 70.5 120.6 C 70.7 120.6 71.1 120.6 71.3 120.6 C 71.3 120.6 71.3 121.5 71.3 121.5 C 71 121.6 70.6 121.6 70.2 121.6 C 68.6 121.6 68.1 120.9 68.1 119.3 C 68.13 119.34 68.1 114.5 68.1 114.5 L 66.5 114.5 L 66.5 113.5 Z M 92.6 120.2 C 92.1 121 91.3 121.8 89.5 121.8 C 87.3 121.8 85.6 120 85.6 117.6 C 85.6 117.6 85.6 117.6 85.6 117.6 C 85.6 114.9 87.6 113.3 89.6 113.3 C 91.6 113.3 92.4 114.3 92.6 114.8 C 92.6 114.2 92.6 113.8 92.6 113.5 C 92.6 113.5 93.8 113.5 93.8 113.5 C 93.8 114.1 93.8 115 93.8 115.8 C 93.78 115.79 93.8 125.1 93.8 125.1 L 92.6 125.1 C 92.6 125.1 92.57 120.21 92.6 120.2 Z M 86.9 117.6 C 86.9 117.6 86.9 117.6 86.9 117.6 C 86.9 119.3 88 120.7 89.6 120.7 C 91.6 120.7 92.6 119.6 92.6 117.5 C 92.6 117.5 92.6 117.5 92.6 117.5 C 92.6 115.6 91.7 114.4 89.8 114.4 C 87.9 114.4 86.9 115.8 86.9 117.6 Z M 103.8 119.2 C 103.8 120 103.8 120.8 103.9 121.6 C 103.9 121.6 102.7 121.6 102.7 121.6 C 102.7 121.3 102.6 120.7 102.6 120.1 C 102.2 121.1 101.5 121.8 99.7 121.8 C 98 121.8 96.7 120.9 96.7 118.5 C 96.67 118.53 96.7 113.5 96.7 113.5 L 97.9 113.5 C 97.9 113.5 97.88 118.29 97.9 118.3 C 97.9 119.6 98.4 120.7 99.9 120.7 C 101.8 120.7 102.6 119.6 102.6 117.1 C 102.64 117.13 102.6 113.5 102.6 113.5 L 103.8 113.5 C 103.8 113.5 103.85 119.21 103.8 119.2 Z M 106.3 114.1 C 106.7 112.8 107.1 111 107.2 109.5 C 107.2 109.5 108.4 109.5 108.4 109.5 C 108.3 110.7 107.8 113 107.3 114.1 C 107.3 114.1 106.3 114.1 106.3 114.1 Z M 110.8 117.8 C 110.8 117.8 110.81 117.81 110.8 117.8 C 110.9 119.5 112 120.8 113.8 120.8 C 115.1 120.8 115.9 120.2 116.4 119.3 C 116.38 119.32 116.4 119.3 116.4 119.3 L 117.6 119.3 C 117.6 119.3 117.59 119.32 117.6 119.3 C 117.2 120.5 116.1 121.8 113.7 121.8 C 110.9 121.8 109.6 119.7 109.6 117.6 C 109.6 117.6 109.6 117.6 109.6 117.6 C 109.6 115.1 111.2 113.3 113.7 113.3 C 116.7 113.3 117.7 115.5 117.7 117.5 C 117.7 117.6 117.7 117.7 117.7 117.8 C 117.71 117.81 110.8 117.8 110.8 117.8 Z M 116.4 116.9 C 116.4 116.9 116.43 116.88 116.4 116.9 C 116.4 115.8 115.8 114.3 113.6 114.3 C 111.9 114.3 111 115.4 110.8 116.9 C 110.84 116.88 110.8 116.9 110.8 116.9 L 116.4 116.9 Z M 120.1 121.6 L 120.1 109.5 L 121.3 109.5 L 121.3 121.6 L 120.1 121.6 Z M 124.2 121.6 L 124.2 109.5 L 125.4 109.5 L 125.4 121.6 L 124.2 121.6 Z M 129 117.8 C 129 117.8 129 117.81 129 117.8 C 129.1 119.5 130.2 120.8 132 120.8 C 133.3 120.8 134.1 120.2 134.6 119.3 C 134.57 119.32 134.6 119.3 134.6 119.3 L 135.8 119.3 C 135.8 119.3 135.78 119.32 135.8 119.3 C 135.4 120.5 134.2 121.8 131.9 121.8 C 129.1 121.8 127.8 119.7 127.8 117.6 C 127.8 117.6 127.8 117.6 127.8 117.6 C 127.8 115.1 129.4 113.3 131.8 113.3 C 134.9 113.3 135.9 115.5 135.9 117.5 C 135.9 117.6 135.9 117.7 135.9 117.8 C 135.9 117.81 129 117.8 129 117.8 Z M 134.6 116.9 C 134.6 116.9 134.62 116.88 134.6 116.9 C 134.5 115.8 134 114.3 131.8 114.3 C 130.1 114.3 129.2 115.4 129 116.9 C 129.03 116.88 129 116.9 129 116.9 L 134.6 116.9 Z M 151.4 117.8 C 151.4 117.8 151.45 117.81 151.4 117.8 C 151.5 119.5 152.7 120.8 154.4 120.8 C 155.8 120.8 156.5 120.2 157 119.3 C 157.02 119.32 157 119.3 157 119.3 L 158.2 119.3 C 158.2 119.3 158.23 119.32 158.2 119.3 C 157.8 120.5 156.7 121.8 154.3 121.8 C 151.6 121.8 150.2 119.7 150.2 117.6 C 150.2 117.6 150.2 117.6 150.2 117.6 C 150.2 115.1 151.9 113.3 154.3 113.3 C 157.3 113.3 158.4 115.5 158.4 117.5 C 158.4 117.6 158.4 117.7 158.3 117.8 C 158.35 117.81 151.4 117.8 151.4 117.8 Z M 157.1 116.9 C 157.1 116.9 157.07 116.88 157.1 116.9 C 157 115.8 156.4 114.3 154.3 114.3 C 152.5 114.3 151.6 115.4 151.5 116.9 C 151.48 116.88 151.5 116.9 151.5 116.9 L 157.1 116.9 Z M 160.7 115.6 C 160.7 114.9 160.7 114.2 160.7 113.5 C 160.7 113.5 161.9 113.5 161.9 113.5 C 161.9 113.8 161.9 114.3 161.9 114.8 C 162.3 114.1 163.1 113.3 164.5 113.3 C 165.8 113.3 166.7 113.9 167 114.9 C 167.5 114.2 168.2 113.3 169.8 113.3 C 171.4 113.3 172.7 114.2 172.7 116.6 C 172.65 116.55 172.7 121.6 172.7 121.6 L 171.5 121.6 C 171.5 121.6 171.45 116.61 171.5 116.6 C 171.5 115.6 171.1 114.3 169.6 114.3 C 168.2 114.3 167.3 115.3 167.3 117.2 C 167.28 117.16 167.3 121.6 167.3 121.6 L 166.1 121.6 C 166.1 121.6 166.08 116.52 166.1 116.5 C 166.1 115.5 165.7 114.3 164.2 114.3 C 162.5 114.3 161.9 115.7 161.9 117.3 C 161.91 117.3 161.9 121.6 161.9 121.6 L 160.7 121.6 C 160.7 121.6 160.7 115.59 160.7 115.6 Z M 176.8 120.2 C 176.76 120.25 176.8 125.1 176.8 125.1 L 175.6 125.1 C 175.6 125.1 175.56 115.53 175.6 115.5 C 175.6 114.9 175.6 114.2 175.5 113.5 C 175.5 113.5 176.7 113.5 176.7 113.5 C 176.7 113.8 176.8 114.3 176.8 115 C 177.2 114.1 178.2 113.3 179.9 113.3 C 182.1 113.3 183.7 115.1 183.7 117.4 C 183.7 117.4 183.7 117.4 183.7 117.4 C 183.7 120 181.9 121.8 179.7 121.8 C 177.9 121.8 177.2 121 176.8 120.2 Z M 182.4 117.4 C 182.4 117.4 182.4 117.4 182.4 117.4 C 182.4 115.9 181.6 114.4 179.6 114.4 C 177.6 114.4 176.7 115.8 176.7 117.6 C 176.7 117.6 176.7 117.6 176.7 117.6 C 176.7 119.4 177.7 120.7 179.6 120.7 C 181.5 120.7 182.4 119.1 182.4 117.4 Z M 186.1 115.7 C 186.1 115 186.1 114.2 186.1 113.5 C 186.1 113.5 187.2 113.5 187.2 113.5 C 187.2 113.7 187.3 114.6 187.3 115.4 C 187.8 114.1 189 113.3 190.6 113.3 C 190.6 113.3 190.6 114.5 190.6 114.5 C 188.7 114.5 187.3 115.7 187.3 118.1 C 187.28 118.08 187.3 121.6 187.3 121.6 L 186.1 121.6 C 186.1 121.6 186.07 115.7 186.1 115.7 Z M 199.7 119.2 C 199.7 120 199.7 120.8 199.7 121.6 C 199.7 121.6 198.6 121.6 198.6 121.6 C 198.5 121.3 198.5 120.7 198.5 120.1 C 198.1 121.1 197.3 121.8 195.6 121.8 C 193.9 121.8 192.5 120.9 192.5 118.5 C 192.53 118.53 192.5 113.5 192.5 113.5 L 193.7 113.5 C 193.7 113.5 193.74 118.29 193.7 118.3 C 193.7 119.6 194.2 120.7 195.8 120.7 C 197.7 120.7 198.5 119.6 198.5 117.1 C 198.51 117.13 198.5 113.5 198.5 113.5 L 199.7 113.5 C 199.7 113.5 199.71 119.21 199.7 119.2 Z M 202.6 115.5 C 202.6 114.9 202.6 114.1 202.6 113.5 C 202.6 113.5 203.8 113.5 203.8 113.5 C 203.8 113.8 203.8 114.5 203.8 115.1 C 204.2 114.3 205.1 113.3 206.8 113.3 C 208.7 113.3 209.9 114.4 209.9 116.7 C 209.93 116.68 209.9 121.6 209.9 121.6 L 208.7 121.6 C 208.7 121.6 208.71 116.91 208.7 116.9 C 208.7 115.5 208.2 114.4 206.6 114.4 C 204.7 114.4 203.8 115.8 203.8 117.7 C 203.84 117.75 203.8 121.6 203.8 121.6 L 202.6 121.6 C 202.6 121.6 202.63 115.54 202.6 115.5 Z M 211.7 113.5 L 213.3 113.5 L 213.3 110.9 L 214.5 110.9 L 214.5 113.5 L 216.7 113.5 L 216.7 114.5 L 214.5 114.5 C 214.5 114.5 214.51 119.22 214.5 119.2 C 214.5 120.2 214.8 120.6 215.7 120.6 C 215.9 120.6 216.3 120.6 216.5 120.6 C 216.5 120.6 216.5 121.5 216.5 121.5 C 216.2 121.6 215.8 121.6 215.4 121.6 C 213.8 121.6 213.3 120.9 213.3 119.3 C 213.3 119.34 213.3 114.5 213.3 114.5 L 211.7 114.5 L 211.7 113.5 Z M 219.1 117.8 C 219.1 117.8 219.14 117.81 219.1 117.8 C 219.2 119.5 220.4 120.8 222.1 120.8 C 223.5 120.8 224.2 120.2 224.7 119.3 C 224.71 119.32 224.7 119.3 224.7 119.3 L 225.9 119.3 C 225.9 119.3 225.92 119.32 225.9 119.3 C 225.5 120.5 224.4 121.8 222 121.8 C 219.3 121.8 217.9 119.7 217.9 117.6 C 217.9 117.6 217.9 117.6 217.9 117.6 C 217.9 115.1 219.6 113.3 222 113.3 C 225 113.3 226 115.5 226 117.5 C 226 117.6 226 117.7 226 117.8 C 226.04 117.81 219.1 117.8 219.1 117.8 Z M 224.8 116.9 C 224.8 116.9 224.76 116.88 224.8 116.9 C 224.7 115.8 224.1 114.3 222 114.3 C 220.2 114.3 219.3 115.4 219.2 116.9 C 219.17 116.88 219.2 116.9 219.2 116.9 L 224.8 116.9 Z M 241.4 119.1 C 241.4 119.1 241.44 119.13 241.4 119.1 C 241.8 120.2 242.7 120.8 244.2 120.8 C 245.9 120.8 246.5 120.2 246.5 119.4 C 246.5 118.6 246.1 118.1 243.9 117.9 C 241.2 117.5 240.6 116.6 240.6 115.6 C 240.6 114.6 241.4 113.3 243.9 113.3 C 246.7 113.3 247.4 114.8 247.5 115.7 C 247.48 115.66 247.5 115.7 247.5 115.7 L 246.3 115.7 C 246.3 115.7 246.25 115.66 246.3 115.7 C 246.1 115.1 245.8 114.3 243.8 114.3 C 242.2 114.3 241.8 115 241.8 115.5 C 241.8 116.2 242.2 116.6 244.2 116.8 C 247.1 117.2 247.7 118.1 247.7 119.3 C 247.7 120.7 246.6 121.8 244.1 121.8 C 241.8 121.8 240.5 120.8 240.2 119.1 C 240.21 119.13 240.2 119.1 240.2 119.1 L 241.4 119.1 Z M 250.8 117.8 C 250.8 117.8 250.77 117.81 250.8 117.8 C 250.9 119.5 252 120.8 253.8 120.8 C 255.1 120.8 255.9 120.2 256.3 119.3 C 256.34 119.32 256.3 119.3 256.3 119.3 L 257.5 119.3 C 257.5 119.3 257.55 119.32 257.5 119.3 C 257.1 120.5 256 121.8 253.7 121.8 C 250.9 121.8 249.5 119.7 249.5 117.6 C 249.5 117.6 249.5 117.6 249.5 117.6 C 249.5 115.1 251.2 113.3 253.6 113.3 C 256.6 113.3 257.7 115.5 257.7 117.5 C 257.7 117.6 257.7 117.7 257.7 117.8 C 257.67 117.81 250.8 117.8 250.8 117.8 Z M 256.4 116.9 C 256.4 116.9 256.39 116.88 256.4 116.9 C 256.3 115.8 255.8 114.3 253.6 114.3 C 251.9 114.3 251 115.4 250.8 116.9 C 250.8 116.88 250.8 116.9 250.8 116.9 L 256.4 116.9 Z M 260.6 119.1 C 260.6 119.1 260.59 119.13 260.6 119.1 C 260.9 120.2 261.8 120.8 263.4 120.8 C 265.1 120.8 265.7 120.2 265.7 119.4 C 265.7 118.6 265.3 118.1 263.1 117.9 C 260.3 117.5 259.8 116.6 259.8 115.6 C 259.8 114.6 260.6 113.3 263.1 113.3 C 265.8 113.3 266.6 114.8 266.6 115.7 C 266.64 115.66 266.6 115.7 266.6 115.7 L 265.4 115.7 C 265.4 115.7 265.41 115.66 265.4 115.7 C 265.3 115.1 264.9 114.3 263 114.3 C 261.3 114.3 261 115 261 115.5 C 261 116.2 261.4 116.6 263.3 116.8 C 266.3 117.2 266.9 118.1 266.9 119.3 C 266.9 120.7 265.8 121.8 263.3 121.8 C 260.9 121.8 259.6 120.8 259.4 119.1 C 259.36 119.13 259.4 119.1 259.4 119.1 L 260.6 119.1 Z M 289.3 119.1 C 289.3 119.1 289.32 119.1 289.3 119.1 C 288.9 120.5 287.7 121.8 285.5 121.8 C 282.7 121.8 281.3 119.9 281.3 117.6 C 281.3 117.6 281.3 117.6 281.3 117.6 C 281.3 115.3 282.9 113.3 285.5 113.3 C 288.1 113.3 289.1 114.9 289.3 116 C 289.31 116.03 289.3 116 289.3 116 L 288.1 116 C 288.1 116 288.1 116.03 288.1 116 C 287.8 115.2 287.1 114.3 285.5 114.3 C 283.7 114.3 282.5 115.7 282.5 117.5 C 282.5 117.5 282.5 117.5 282.5 117.5 C 282.5 119.3 283.6 120.8 285.5 120.8 C 286.9 120.8 287.7 120.1 288.1 119.1 C 288.11 119.1 288.1 119.1 288.1 119.1 L 289.3 119.1 Z M 292.8 109.5 C 292.8 109.5 292.82 115.09 292.8 115.1 C 293.1 114.5 293.9 113.3 295.9 113.3 C 297.7 113.3 298.9 114.4 298.9 116.7 C 298.91 116.69 298.9 121.6 298.9 121.6 L 297.7 121.6 C 297.7 121.6 297.7 116.9 297.7 116.9 C 297.7 115.5 297.1 114.4 295.5 114.4 C 293.7 114.4 292.8 115.9 292.8 117.6 C 292.82 117.58 292.8 121.6 292.8 121.6 L 291.6 121.6 L 291.6 109.5 L 292.8 109.5 Z M 302.5 117.8 C 302.5 117.8 302.47 117.81 302.5 117.8 C 302.6 119.5 303.7 120.8 305.5 120.8 C 306.8 120.8 307.6 120.2 308 119.3 C 308.04 119.32 308 119.3 308 119.3 L 309.2 119.3 C 309.2 119.3 309.25 119.32 309.2 119.3 C 308.8 120.5 307.7 121.8 305.4 121.8 C 302.6 121.8 301.2 119.7 301.2 117.6 C 301.2 117.6 301.2 117.6 301.2 117.6 C 301.2 115.1 302.9 113.3 305.3 113.3 C 308.3 113.3 309.4 115.5 309.4 117.5 C 309.4 117.6 309.4 117.7 309.4 117.8 C 309.37 117.81 302.5 117.8 302.5 117.8 Z M 308.1 116.9 C 308.1 116.9 308.09 116.88 308.1 116.9 C 308 115.8 307.5 114.3 305.3 114.3 C 303.6 114.3 302.7 115.4 302.5 116.9 C 302.5 116.88 302.5 116.9 302.5 116.9 L 308.1 116.9 Z M 311.7 115.6 C 311.7 114.9 311.7 114.2 311.7 113.5 C 311.7 113.5 312.9 113.5 312.9 113.5 C 312.9 113.8 312.9 114.3 312.9 114.8 C 313.3 114.1 314.1 113.3 315.6 113.3 C 316.9 113.3 317.7 113.9 318 114.9 C 318.5 114.2 319.2 113.3 320.8 113.3 C 322.4 113.3 323.7 114.2 323.7 116.6 C 323.67 116.55 323.7 121.6 323.7 121.6 L 322.5 121.6 C 322.5 121.6 322.47 116.61 322.5 116.6 C 322.5 115.6 322.1 114.3 320.6 114.3 C 319.2 114.3 318.3 115.3 318.3 117.2 C 318.3 117.16 318.3 121.6 318.3 121.6 L 317.1 121.6 C 317.1 121.6 317.1 116.52 317.1 116.5 C 317.1 115.5 316.8 114.3 315.2 114.3 C 313.6 114.3 312.9 115.7 312.9 117.3 C 312.93 117.3 312.9 121.6 312.9 121.6 L 311.7 121.6 C 311.7 121.6 311.72 115.59 311.7 115.6 Z M 326.6 113.5 L 327.8 113.5 L 327.8 121.6 L 326.6 121.6 L 326.6 113.5 Z M 326.6 109.5 L 327.8 109.5 L 327.8 111.3 L 326.6 111.3 L 326.6 109.5 Z M 330.7 115.5 C 330.7 114.9 330.7 114.1 330.7 113.5 C 330.7 113.5 331.9 113.5 331.9 113.5 C 331.9 113.8 331.9 114.5 331.9 115.1 C 332.3 114.3 333.1 113.3 334.9 113.3 C 336.8 113.3 338 114.4 338 116.7 C 338 116.68 338 121.6 338 121.6 L 336.8 121.6 C 336.8 121.6 336.78 116.91 336.8 116.9 C 336.8 115.5 336.2 114.4 334.6 114.4 C 332.8 114.4 331.9 115.8 331.9 117.7 C 331.91 117.75 331.9 121.6 331.9 121.6 L 330.7 121.6 C 330.7 121.6 330.7 115.54 330.7 115.5 Z M 341.4 119.1 C 341.4 119.1 341.39 119.13 341.4 119.1 C 341.7 120.2 342.6 120.8 344.2 120.8 C 345.9 120.8 346.5 120.2 346.5 119.4 C 346.5 118.6 346.1 118.1 343.9 117.9 C 341.1 117.5 340.6 116.6 340.6 115.6 C 340.6 114.6 341.4 113.3 343.9 113.3 C 346.6 113.3 347.4 114.8 347.4 115.7 C 347.43 115.66 347.4 115.7 347.4 115.7 L 346.2 115.7 C 346.2 115.7 346.21 115.66 346.2 115.7 C 346.1 115.1 345.7 114.3 343.8 114.3 C 342.1 114.3 341.8 115 341.8 115.5 C 341.8 116.2 342.2 116.6 344.1 116.8 C 347.1 117.2 347.7 118.1 347.7 119.3 C 347.7 120.7 346.6 121.8 344.1 121.8 C 341.7 121.8 340.4 120.8 340.2 119.1 C 340.16 119.13 340.2 119.1 340.2 119.1 L 341.4 119.1 Z M 369.1 120.2 C 368.6 121 367.8 121.8 366 121.8 C 363.8 121.8 362.1 120 362.1 117.6 C 362.1 117.6 362.1 117.6 362.1 117.6 C 362.1 114.9 364.1 113.3 366.1 113.3 C 368.1 113.3 368.9 114.3 369.1 114.8 C 369.1 114.2 369.1 113.8 369.1 113.5 C 369.1 113.5 370.3 113.5 370.3 113.5 C 370.3 114.1 370.3 115 370.3 115.8 C 370.27 115.79 370.3 125.1 370.3 125.1 L 369.1 125.1 C 369.1 125.1 369.06 120.21 369.1 120.2 Z M 363.3 117.6 C 363.3 117.6 363.3 117.6 363.3 117.6 C 363.3 119.3 364.4 120.7 366.1 120.7 C 368 120.7 369.1 119.6 369.1 117.5 C 369.1 117.5 369.1 117.5 369.1 117.5 C 369.1 115.6 368.2 114.4 366.3 114.4 C 364.3 114.4 363.3 115.8 363.3 117.6 Z M 380.3 119.2 C 380.3 120 380.3 120.8 380.4 121.6 C 380.4 121.6 379.2 121.6 379.2 121.6 C 379.2 121.3 379.1 120.7 379.1 120.1 C 378.7 121.1 378 121.8 376.2 121.8 C 374.5 121.8 373.2 120.9 373.2 118.5 C 373.16 118.53 373.2 113.5 373.2 113.5 L 374.4 113.5 C 374.4 113.5 374.37 118.29 374.4 118.3 C 374.4 119.6 374.9 120.7 376.4 120.7 C 378.3 120.7 379.1 119.6 379.1 117.1 C 379.13 117.13 379.1 113.5 379.1 113.5 L 380.3 113.5 C 380.3 113.5 380.34 119.21 380.3 119.2 Z M 391.1 117.5 C 391.1 117.5 391.1 117.5 391.1 117.5 C 391.1 119.7 389.7 121.8 386.9 121.8 C 384.2 121.8 382.7 119.8 382.7 117.5 C 382.7 117.5 382.7 117.5 382.7 117.5 C 382.7 115.2 384.3 113.3 386.9 113.3 C 389.6 113.3 391.1 115.4 391.1 117.5 Z M 384 117.5 C 384 117.5 384 117.5 384 117.5 C 384 119.2 385 120.7 386.9 120.7 C 388.9 120.7 389.9 119.3 389.9 117.6 C 389.9 117.6 389.9 117.6 389.9 117.6 C 389.9 115.8 388.8 114.3 386.9 114.3 C 384.9 114.3 384 115.8 384 117.5 Z M 392.2 113.5 L 393.9 113.5 L 393.9 110.9 L 395.1 110.9 L 395.1 113.5 L 397.3 113.5 L 397.3 114.5 L 395.1 114.5 C 395.1 114.5 395.1 119.22 395.1 119.2 C 395.1 120.2 395.4 120.6 396.3 120.6 C 396.5 120.6 396.9 120.6 397.1 120.6 C 397.1 120.6 397.1 121.5 397.1 121.5 C 396.8 121.6 396.4 121.6 396 121.6 C 394.4 121.6 393.9 120.9 393.9 119.3 C 393.89 119.34 393.9 114.5 393.9 114.5 L 392.2 114.5 L 392.2 113.5 Z M 399.3 113.5 L 400.5 113.5 L 400.5 121.6 L 399.3 121.6 L 399.3 113.5 Z M 399.3 109.5 L 400.5 109.5 L 400.5 111.3 L 399.3 111.3 L 399.3 109.5 Z M 411 109.5 C 411 109.5 411.04 119.2 411 119.2 C 411 120 411 120.8 411.1 121.6 C 411.1 121.6 409.9 121.6 409.9 121.6 C 409.9 121.2 409.8 120.7 409.8 120.2 C 409.4 121 408.7 121.8 406.8 121.8 C 404.4 121.8 402.9 120 402.9 117.6 C 402.9 117.6 402.9 117.6 402.9 117.6 C 402.9 115 404.8 113.3 407 113.3 C 408.9 113.3 409.6 114.2 409.8 114.6 C 409.83 114.65 409.8 109.5 409.8 109.5 L 411 109.5 Z M 404.1 117.6 C 404.1 117.6 404.1 117.6 404.1 117.6 C 404.1 119.1 405.1 120.7 407 120.7 C 409.1 120.7 409.9 119.4 409.9 117.5 C 409.9 117.5 409.9 117.5 409.9 117.5 C 409.9 115.6 409.2 114.3 407.1 114.3 C 405.1 114.3 404.1 116 404.1 117.6 Z M 414 113.5 L 415.2 113.5 L 415.2 121.6 L 414 121.6 L 414 113.5 Z M 414 109.5 L 415.2 109.5 L 415.2 111.3 L 414 111.3 L 414 109.5 Z M 418.8 117.8 C 418.8 117.8 418.78 117.81 418.8 117.8 C 418.9 119.5 420 120.8 421.8 120.8 C 423.1 120.8 423.9 120.2 424.3 119.3 C 424.35 119.32 424.3 119.3 424.3 119.3 L 425.6 119.3 C 425.6 119.3 425.56 119.32 425.6 119.3 C 425.1 120.5 424 121.8 421.7 121.8 C 418.9 121.8 417.6 119.7 417.6 117.6 C 417.6 117.6 417.6 117.6 417.6 117.6 C 417.6 115.1 419.2 113.3 421.6 113.3 C 424.7 113.3 425.7 115.5 425.7 117.5 C 425.7 117.6 425.7 117.7 425.7 117.8 C 425.68 117.81 418.8 117.8 418.8 117.8 Z M 424.4 116.9 C 424.4 116.9 424.4 116.88 424.4 116.9 C 424.3 115.8 423.8 114.3 421.6 114.3 C 419.9 114.3 419 115.4 418.8 116.9 C 418.81 116.88 418.8 116.9 418.8 116.9 L 424.4 116.9 Z M 428 115.5 C 428 114.9 428 114.1 428 113.5 C 428 113.5 429.2 113.5 429.2 113.5 C 429.2 113.8 429.2 114.5 429.2 115.1 C 429.6 114.3 430.5 113.3 432.2 113.3 C 434.1 113.3 435.3 114.4 435.3 116.7 C 435.33 116.68 435.3 121.6 435.3 121.6 L 434.1 121.6 C 434.1 121.6 434.12 116.91 434.1 116.9 C 434.1 115.5 433.6 114.4 432 114.4 C 430.1 114.4 429.2 115.8 429.2 117.7 C 429.24 117.75 429.2 121.6 429.2 121.6 L 428 121.6 C 428 121.6 428.03 115.54 428 115.5 Z M 438.7 119.1 C 438.7 119.1 438.73 119.13 438.7 119.1 C 439 120.2 439.9 120.8 441.5 120.8 C 443.2 120.8 443.8 120.2 443.8 119.4 C 443.8 118.6 443.4 118.1 441.2 117.9 C 438.5 117.5 437.9 116.6 437.9 115.6 C 437.9 114.6 438.7 113.3 441.2 113.3 C 444 113.3 444.7 114.8 444.8 115.7 C 444.77 115.66 444.8 115.7 444.8 115.7 L 443.5 115.7 C 443.5 115.7 443.54 115.66 443.5 115.7 C 443.4 115.1 443.1 114.3 441.1 114.3 C 439.5 114.3 439.1 115 439.1 115.5 C 439.1 116.2 439.5 116.6 441.5 116.8 C 444.4 117.2 445 118.1 445 119.3 C 445 120.7 443.9 121.8 441.4 121.8 C 439 121.8 437.8 120.8 437.5 119.1 C 437.5 119.13 437.5 119.1 437.5 119.1 L 438.7 119.1 Z M 446.4 123.8 C 447.3 122 447.6 120.5 447.7 119.1 C 447.7 119.1 449 119.1 449 119.1 C 448.9 120.4 448.3 122.5 447.5 123.8 C 447.5 123.8 446.4 123.8 446.4 123.8 Z " stroke="none" fill="#141414"/>  </g></svg>