<?xml version="1.0" standalone="no"?><!DOCTYPE svg PUBLIC "-//W3C//DTD SVG 1.1//EN" "http://www.w3.org/Graphics/SVG/1.1/DTD/svg11.dtd"><svg xmlns="http://www.w3.org/2000/svg" version="1.1" width="1710px" height="510px" viewBox="0 -1 1710 510" style="top:-1px">  <desc>stylisme &amp; make up r alistes &amp; authentiques</desc>  <defs/>  <g id="Polygon4635">    <path d="M 1270.2 451.2 C 1270.2 451.2 1276.66 451.22 1276.7 451.2 C 1278.4 451.2 1279.7 451.6 1280.6 452.4 C 1281.5 453.3 1282 454.5 1282 456.1 C 1282 457.3 1281.6 458.3 1280.9 459.2 C 1280.2 460 1279.2 460.6 1278 460.8 C 1277.95 460.78 1281.9 468 1281.9 468 L 1280 468 L 1276.1 460.9 L 1272.1 460.9 L 1272.1 468 L 1270.2 468 L 1270.2 451.2 Z M 1276.4 459.3 C 1277.6 459.3 1278.5 459 1279.1 458.5 C 1279.8 457.9 1280.1 457.1 1280.1 456.1 C 1280.1 454.9 1279.8 454 1279.1 453.6 C 1278.5 453.1 1277.6 452.8 1276.4 452.8 C 1276.42 452.81 1272.1 452.8 1272.1 452.8 L 1272.1 459.3 C 1272.1 459.3 1276.42 459.29 1276.4 459.3 Z M 1295.8 446.1 L 1297.7 446.1 L 1295.8 450.2 L 1294.1 450.2 L 1295.8 446.1 Z M 1289.8 451.2 L 1300.6 451.2 L 1300.6 452.8 L 1291.7 452.8 L 1291.7 458.8 L 1298.4 458.8 L 1298.4 460.4 L 1291.7 460.4 L 1291.7 466.4 L 1300.6 466.4 L 1300.6 468 L 1289.8 468 L 1289.8 451.2 Z M 1314.4 451.2 L 1316.2 451.2 L 1322.9 468 L 1321 468 L 1319.2 463.5 L 1311.4 463.5 L 1309.7 468 L 1307.7 468 L 1314.4 451.2 Z M 1318.6 461.9 L 1315.3 453.4 L 1312 461.9 L 1318.6 461.9 Z M 1330.2 451.2 L 1332.1 451.2 L 1332.1 466.4 L 1341 466.4 L 1341 468 L 1330.2 468 L 1330.2 451.2 Z M 1348.1 451.2 L 1349.9 451.2 L 1349.9 468 L 1348.1 468 L 1348.1 451.2 Z M 1362.6 468.4 C 1361.7 468.4 1360.8 468.3 1359.9 468.1 C 1359 468 1358.3 467.7 1357.7 467.5 C 1357.7 467.5 1357.7 465.7 1357.7 465.7 C 1359.2 466.4 1360.8 466.7 1362.5 466.7 C 1364 466.7 1365 466.4 1365.7 466 C 1366.4 465.5 1366.7 464.8 1366.7 463.9 C 1366.7 463.2 1366.6 462.7 1366.3 462.3 C 1366 462 1365.6 461.6 1365.1 461.4 C 1364.6 461.1 1363.7 460.7 1362.4 460.2 C 1360.8 459.5 1359.6 458.8 1358.9 458.1 C 1358.2 457.3 1357.9 456.4 1357.9 455.2 C 1357.9 454.3 1358.1 453.6 1358.5 452.9 C 1359 452.3 1359.6 451.8 1360.5 451.4 C 1361.3 451 1362.3 450.9 1363.4 450.9 C 1364.2 450.9 1365 450.9 1365.7 451.1 C 1366.5 451.2 1367.2 451.4 1367.8 451.7 C 1367.8 451.7 1367.8 453.4 1367.8 453.4 C 1366.5 452.8 1365.1 452.5 1363.6 452.5 C 1362.3 452.5 1361.4 452.8 1360.7 453.2 C 1360.1 453.7 1359.7 454.4 1359.7 455.2 C 1359.7 455.7 1359.9 456.2 1360.1 456.6 C 1360.4 457 1360.8 457.4 1361.4 457.7 C 1362 458.1 1362.8 458.4 1363.8 458.8 C 1365 459.3 1365.9 459.7 1366.5 460.1 C 1367.2 460.5 1367.7 461 1368.1 461.6 C 1368.4 462.2 1368.6 463 1368.6 463.9 C 1368.6 465.3 1368.1 466.4 1367.1 467.2 C 1366.1 468 1364.6 468.4 1362.6 468.4 C 1362.6 468.4 1362.6 468.4 1362.6 468.4 Z M 1380.5 452.8 L 1375.1 452.8 L 1375.1 451.2 L 1387.7 451.2 L 1387.7 452.8 L 1382.3 452.8 L 1382.3 468 L 1380.5 468 L 1380.5 452.8 Z M 1394.8 451.2 L 1405.6 451.2 L 1405.6 452.8 L 1396.7 452.8 L 1396.7 458.8 L 1403.4 458.8 L 1403.4 460.4 L 1396.7 460.4 L 1396.7 466.4 L 1405.6 466.4 L 1405.6 468 L 1394.8 468 L 1394.8 451.2 Z M 1417.7 468.4 C 1416.7 468.4 1415.8 468.3 1414.9 468.1 C 1414 468 1413.3 467.7 1412.7 467.5 C 1412.7 467.5 1412.7 465.7 1412.7 465.7 C 1414.2 466.4 1415.8 466.7 1417.6 466.7 C 1419 466.7 1420.1 466.4 1420.7 466 C 1421.4 465.5 1421.8 464.8 1421.8 463.9 C 1421.8 463.2 1421.6 462.7 1421.3 462.3 C 1421.1 462 1420.7 461.6 1420.1 461.4 C 1419.6 461.1 1418.7 460.7 1417.4 460.2 C 1415.8 459.5 1414.7 458.8 1413.9 458.1 C 1413.2 457.3 1412.9 456.4 1412.9 455.2 C 1412.9 454.3 1413.1 453.6 1413.6 452.9 C 1414 452.3 1414.7 451.8 1415.5 451.4 C 1416.3 451 1417.3 450.9 1418.4 450.9 C 1419.3 450.9 1420.1 450.9 1420.8 451.1 C 1421.5 451.2 1422.2 451.4 1422.9 451.7 C 1422.9 451.7 1422.9 453.4 1422.9 453.4 C 1421.5 452.8 1420.1 452.5 1418.6 452.5 C 1417.4 452.5 1416.4 452.8 1415.7 453.2 C 1415.1 453.7 1414.8 454.4 1414.8 455.2 C 1414.8 455.7 1414.9 456.2 1415.2 456.6 C 1415.4 457 1415.9 457.4 1416.4 457.7 C 1417 458.1 1417.8 458.4 1418.9 458.8 C 1420 459.3 1420.9 459.7 1421.6 460.1 C 1422.2 460.5 1422.7 461 1423.1 461.6 C 1423.5 462.2 1423.6 463 1423.6 463.9 C 1423.6 465.3 1423.1 466.4 1422.1 467.2 C 1421.1 468 1419.6 468.4 1417.7 468.4 C 1417.7 468.4 1417.7 468.4 1417.7 468.4 Z M 1450.8 468.4 C 1449 468.4 1447.6 468 1446.4 467.2 C 1445.3 466.4 1444.8 465.2 1444.8 463.8 C 1444.8 462.8 1445.1 461.8 1445.7 461 C 1446.3 460.2 1447.3 459.5 1448.6 458.7 C 1447.8 458 1447.2 457.3 1446.8 456.7 C 1446.5 456.1 1446.3 455.4 1446.3 454.7 C 1446.3 453.5 1446.7 452.6 1447.4 451.9 C 1448.2 451.2 1449.2 450.9 1450.5 450.9 C 1451.3 450.9 1452 451 1452.6 451.4 C 1453.2 451.7 1453.7 452.2 1454.1 452.7 C 1454.4 453.3 1454.6 454 1454.6 454.7 C 1454.6 455.6 1454.4 456.3 1453.9 456.9 C 1453.4 457.4 1452.5 458.1 1451.3 459 C 1451.3 459 1456.3 463.8 1456.3 463.8 C 1456.6 463.2 1456.8 462.6 1457 462 C 1457.1 461.4 1457.1 460.6 1457.1 459.6 C 1457.1 459.6 1459 459.6 1459 459.6 C 1459 460.8 1458.9 461.8 1458.7 462.6 C 1458.5 463.5 1458.1 464.3 1457.6 465 C 1457.62 465.02 1460.7 468 1460.7 468 L 1458.4 468 C 1458.4 468 1456.54 466.18 1456.5 466.2 C 1455.8 466.9 1455 467.5 1454.1 467.8 C 1453.1 468.2 1452 468.4 1450.8 468.4 C 1450.8 468.4 1450.8 468.4 1450.8 468.4 Z M 1450.2 458 C 1451.1 457.4 1451.8 456.8 1452.2 456.4 C 1452.6 455.9 1452.8 455.4 1452.8 454.7 C 1452.8 454 1452.6 453.5 1452.2 453.1 C 1451.8 452.7 1451.2 452.5 1450.5 452.5 C 1449.7 452.5 1449.1 452.7 1448.7 453 C 1448.3 453.4 1448.1 454 1448.1 454.7 C 1448.1 455.3 1448.2 455.8 1448.5 456.2 C 1448.8 456.6 1449.4 457.2 1450.2 458 C 1450.2 458 1450.2 458 1450.2 458 Z M 1450.8 466.8 C 1452.8 466.8 1454.2 466.2 1455.3 465 C 1455.3 465 1449.9 459.8 1449.9 459.8 C 1448.7 460.4 1447.9 461 1447.4 461.6 C 1446.9 462.2 1446.6 462.9 1446.6 463.8 C 1446.6 464.8 1447 465.5 1447.8 466 C 1448.5 466.5 1449.6 466.8 1450.8 466.8 C 1450.8 466.8 1450.8 466.8 1450.8 466.8 Z M 1488.5 451.2 L 1490.3 451.2 L 1497 468 L 1495.1 468 L 1493.3 463.5 L 1485.5 463.5 L 1483.8 468 L 1481.8 468 L 1488.5 451.2 Z M 1492.7 461.9 L 1489.4 453.4 L 1486.1 461.9 L 1492.7 461.9 Z M 1510.2 468.4 C 1508 468.4 1506.4 467.8 1505.2 466.7 C 1504.1 465.6 1503.5 464 1503.5 462 C 1503.53 462 1503.5 451.2 1503.5 451.2 L 1505.4 451.2 C 1505.4 451.2 1505.41 462.14 1505.4 462.1 C 1505.4 463.7 1505.8 464.8 1506.7 465.6 C 1507.5 466.3 1508.7 466.7 1510.2 466.7 C 1511.8 466.7 1512.9 466.3 1513.8 465.6 C 1514.6 464.8 1515.1 463.7 1515.1 462.1 C 1515.05 462.14 1515.1 451.2 1515.1 451.2 L 1516.9 451.2 C 1516.9 451.2 1516.93 462 1516.9 462 C 1516.9 464 1516.4 465.6 1515.2 466.7 C 1514.1 467.8 1512.4 468.4 1510.2 468.4 C 1510.2 468.4 1510.2 468.4 1510.2 468.4 Z M 1529.3 452.8 L 1524 452.8 L 1524 451.2 L 1536.6 451.2 L 1536.6 452.8 L 1531.2 452.8 L 1531.2 468 L 1529.3 468 L 1529.3 452.8 Z M 1543.7 451.2 L 1545.6 451.2 L 1545.6 458.7 L 1555 458.7 L 1555 451.2 L 1556.9 451.2 L 1556.9 468 L 1555 468 L 1555 460.2 L 1545.6 460.2 L 1545.6 468 L 1543.7 468 L 1543.7 451.2 Z M 1565.4 451.2 L 1576.2 451.2 L 1576.2 452.8 L 1567.3 452.8 L 1567.3 458.8 L 1574 458.8 L 1574 460.4 L 1567.3 460.4 L 1567.3 466.4 L 1576.2 466.4 L 1576.2 468 L 1565.4 468 L 1565.4 451.2 Z M 1583.5 451.2 L 1585.3 451.2 L 1594.6 464.8 L 1594.6 451.2 L 1596.5 451.2 L 1596.5 468 L 1594.7 468 L 1585.4 454.4 L 1585.4 468 L 1583.5 468 L 1583.5 451.2 Z M 1608.9 452.8 L 1603.6 452.8 L 1603.6 451.2 L 1616.2 451.2 L 1616.2 452.8 L 1610.8 452.8 L 1610.8 468 L 1608.9 468 L 1608.9 452.8 Z M 1623.3 451.2 L 1625.2 451.2 L 1625.2 468 L 1623.3 468 L 1623.3 451.2 Z M 1642.2 468 C 1640.4 468 1638.9 467.7 1637.5 467 C 1636.1 466.3 1635 465.3 1634.2 464 C 1633.4 462.8 1633 461.3 1633 459.6 C 1633 457.9 1633.4 456.4 1634.2 455 C 1634.9 453.7 1636 452.7 1637.3 452 C 1638.6 451.2 1640.1 450.9 1641.8 450.9 C 1643.4 450.9 1644.9 451.2 1646.3 452 C 1647.6 452.7 1648.6 453.7 1649.4 455 C 1650.2 456.4 1650.5 457.9 1650.5 459.6 C 1650.5 461.2 1650.2 462.5 1649.5 463.7 C 1648.8 464.9 1647.8 465.8 1646.6 466.4 C 1646.59 466.42 1650.8 466.4 1650.8 466.4 L 1650.8 468 L 1642.2 468 C 1642.2 468 1642.24 468 1642.2 468 Z M 1641.8 466.3 C 1643.1 466.3 1644.2 466 1645.3 465.5 C 1646.3 465 1647.1 464.2 1647.7 463.2 C 1648.3 462.2 1648.6 461 1648.6 459.6 C 1648.6 458.2 1648.3 457 1647.7 455.9 C 1647.1 454.9 1646.3 454 1645.3 453.5 C 1644.2 452.9 1643.1 452.6 1641.8 452.6 C 1640.5 452.6 1639.3 452.9 1638.3 453.5 C 1637.2 454 1636.4 454.9 1635.8 455.9 C 1635.2 457 1634.9 458.2 1634.9 459.6 C 1634.9 461 1635.2 462.2 1635.8 463.2 C 1636.4 464.2 1637.2 465 1638.2 465.5 C 1639.3 466 1640.5 466.3 1641.8 466.3 C 1641.8 466.3 1641.8 466.3 1641.8 466.3 Z M 1664.9 468.4 C 1662.6 468.4 1661 467.8 1659.9 466.7 C 1658.7 465.6 1658.2 464 1658.2 462 C 1658.16 462 1658.2 451.2 1658.2 451.2 L 1660 451.2 C 1660 451.2 1660.03 462.14 1660 462.1 C 1660 463.7 1660.5 464.8 1661.3 465.6 C 1662.2 466.3 1663.3 466.7 1664.9 466.7 C 1666.4 466.7 1667.6 466.3 1668.4 465.6 C 1669.3 464.8 1669.7 463.7 1669.7 462.1 C 1669.68 462.14 1669.7 451.2 1669.7 451.2 L 1671.6 451.2 C 1671.6 451.2 1671.55 462 1671.6 462 C 1671.6 464 1671 465.6 1669.9 466.7 C 1668.7 467.8 1667.1 468.4 1664.9 468.4 C 1664.9 468.4 1664.9 468.4 1664.9 468.4 Z M 1680 451.2 L 1690.8 451.2 L 1690.8 452.8 L 1681.9 452.8 L 1681.9 458.8 L 1688.5 458.8 L 1688.5 460.4 L 1681.9 460.4 L 1681.9 466.4 L 1690.8 466.4 L 1690.8 468 L 1680 468 L 1680 451.2 Z M 1702.8 468.4 C 1701.9 468.4 1701 468.3 1700.1 468.1 C 1699.2 468 1698.5 467.7 1697.9 467.5 C 1697.9 467.5 1697.9 465.7 1697.9 465.7 C 1699.4 466.4 1701 466.7 1702.7 466.7 C 1704.2 466.7 1705.2 466.4 1705.9 466 C 1706.6 465.5 1706.9 464.8 1706.9 463.9 C 1706.9 463.2 1706.8 462.7 1706.5 462.3 C 1706.2 462 1705.8 461.6 1705.3 461.4 C 1704.8 461.1 1703.9 460.7 1702.6 460.2 C 1701 459.5 1699.8 458.8 1699.1 458.1 C 1698.4 457.3 1698 456.4 1698 455.2 C 1698 454.3 1698.3 453.6 1698.7 452.9 C 1699.2 452.3 1699.8 451.8 1700.7 451.4 C 1701.5 451 1702.5 450.9 1703.5 450.9 C 1704.4 450.9 1705.2 450.9 1705.9 451.1 C 1706.6 451.2 1707.3 451.4 1708 451.7 C 1708 451.7 1708 453.4 1708 453.4 C 1706.7 452.8 1705.3 452.5 1703.8 452.5 C 1702.5 452.5 1701.6 452.8 1700.9 453.2 C 1700.2 453.7 1699.9 454.4 1699.9 455.2 C 1699.9 455.7 1700.1 456.2 1700.3 456.6 C 1700.6 457 1701 457.4 1701.6 457.7 C 1702.2 458.1 1703 458.4 1704 458.8 C 1705.2 459.3 1706.1 459.7 1706.7 460.1 C 1707.4 460.5 1707.9 461 1708.3 461.6 C 1708.6 462.2 1708.8 463 1708.8 463.9 C 1708.8 465.3 1708.3 466.4 1707.3 467.2 C 1706.3 468 1704.8 468.4 1702.8 468.4 C 1702.8 468.4 1702.8 468.4 1702.8 468.4 Z " stroke="none" fill="#fafafa"/>  </g>  <g id="Polygon4634">    <path d="M 842.4 441.5 C 831.8 441.5 823.4 439.4 817.3 435.1 C 811.2 431 808.2 425.1 808.2 417.6 C 808.2 415.8 808.4 413.5 808.9 410.8 C 810.2 404.5 812.7 399 816.3 394.6 C 819.9 390.1 824.9 386 831.4 382.2 C 829.7 379.8 828.4 377.4 827.6 374.9 C 826.7 372.5 826.3 369.7 826.3 366.7 C 826.3 364.2 826.6 361.8 827.1 359.7 C 828.9 351.5 833.5 344.8 840.9 339.7 C 848.3 334.6 857.5 332.1 868.6 332.1 C 877.9 332.1 885.1 334.1 890.1 338.2 C 895.2 342.2 897.7 347.5 897.7 354.1 C 897.7 356.2 897.5 358 897.1 359.7 C 895.9 365.5 893.8 370.3 890.7 374.2 C 887.6 378 883.2 381.7 877.5 385.3 C 877.5 385.3 887.7 397.5 887.7 397.5 C 889.4 394.6 890.9 389.9 892.3 383.4 C 892.3 383.4 920.4 383.4 920.4 383.4 C 918.7 391.5 916.7 398.1 914.4 403 C 912.1 408.1 908.9 413.1 904.9 418 C 904.92 418.05 922.3 439.2 922.3 439.2 L 880.9 439.2 C 880.9 439.2 876.27 434.1 876.3 434.1 C 868.2 439 856.9 441.5 842.4 441.5 C 842.4 441.5 842.4 441.5 842.4 441.5 Z M 860.2 370.3 C 863.2 368.5 865.4 366.8 866.8 365 C 868.2 363.3 868.9 361.3 868.9 359.2 C 868.9 357.9 868.5 356.8 867.6 356 C 866.7 355.2 865.4 354.7 863.8 354.7 C 859.7 354.7 857.2 357 856.3 361.3 C 855.8 363.9 857.1 366.9 860.2 370.3 C 860.2 370.3 860.2 370.3 860.2 370.3 Z M 849.3 419 C 853.6 419 857.2 417.7 860.2 415.3 C 860.2 415.3 849.7 402.3 849.7 402.3 C 847.1 403.3 845.2 404.7 843.9 406.4 C 842.6 408.2 841.9 410.2 841.9 412.6 C 841.9 414.6 842.6 416.1 843.9 417.2 C 845.3 418.4 847.1 419 849.3 419 C 849.3 419 849.3 419 849.3 419 Z M 1003 334.3 L 1033.6 334.3 L 1048.3 389.8 L 1086.7 334.3 L 1118.8 334.3 L 1096.6 439.2 L 1063.8 439.2 L 1072 400.3 L 1044.4 439.2 L 1033 439.2 L 1021.9 400.3 L 1013.7 439.2 L 980.8 439.2 L 1003 334.3 Z M 1167.6 334.3 L 1201.2 334.3 L 1221 439.2 L 1185.3 439.2 L 1182.3 420.9 L 1151.1 420.9 L 1140.6 439.2 L 1103.4 439.2 L 1167.6 334.3 Z M 1180.1 394.8 L 1177.5 370.6 L 1164.5 394.8 L 1180.1 394.8 Z M 1249.7 334.3 L 1285.2 334.3 L 1277.1 372.3 L 1314.6 334.3 L 1355.4 334.3 L 1305.3 385 L 1335.9 439.2 L 1294.2 439.2 L 1271.7 398.2 L 1263 439.2 L 1227.5 439.2 L 1249.7 334.3 Z M 1364.6 334.3 L 1442.3 334.3 L 1436 364.2 L 1393.8 364.2 L 1391.9 373.3 L 1421.7 373.3 L 1416 400.2 L 1386.2 400.2 L 1384.2 409.3 L 1426.4 409.3 L 1420.1 439.2 L 1342.4 439.2 L 1364.6 334.3 Z M 1529.3 441.5 C 1520.4 441.5 1512.8 439.8 1506.6 436.6 C 1500.4 433.5 1495.8 429.1 1492.6 423.4 C 1489.5 417.9 1487.9 411.4 1487.9 404 C 1487.9 400.2 1488.3 396.1 1489.2 392 C 1489.24 391.95 1501.5 334.3 1501.5 334.3 L 1537.1 334.3 C 1537.1 334.3 1525.09 390.9 1525.1 390.9 C 1524.5 393.7 1524.2 396.2 1524.2 398.4 C 1524.2 401.9 1525.1 404.5 1527 406.2 C 1528.8 407.9 1531.9 408.7 1536.3 408.7 C 1541.5 408.7 1545.6 407.2 1548.6 404.2 C 1551.6 401.2 1553.7 396.8 1554.9 390.9 C 1554.94 390.9 1566.9 334.3 1566.9 334.3 L 1602.6 334.3 C 1602.6 334.3 1590.34 391.95 1590.3 392 C 1583.3 424.9 1563 441.5 1529.3 441.5 C 1529.3 441.5 1529.3 441.5 1529.3 441.5 Z M 1617.7 334.3 C 1617.7 334.3 1668.05 334.35 1668.1 334.3 C 1678.4 334.3 1686.8 336.9 1693.4 341.9 C 1700 347 1703.3 354.1 1703.3 363.5 C 1703.3 366.6 1703 369.6 1702.3 372.5 C 1699.6 385.3 1694.1 394.8 1685.8 401.1 C 1677.6 407.4 1666.3 410.5 1651.9 410.5 C 1651.85 410.55 1637 410.5 1637 410.5 L 1631 439.2 L 1595.5 439.2 L 1617.7 334.3 Z M 1650.4 384 C 1655.4 384 1659.1 383.2 1661.5 381.5 C 1663.9 379.9 1665.5 376.9 1666.4 372.5 C 1666.7 371.1 1666.9 369.8 1666.9 368.7 C 1666.9 365.9 1665.9 363.9 1663.9 362.7 C 1662 361.5 1659.1 360.9 1655.2 360.9 C 1655.15 360.9 1647.5 360.9 1647.5 360.9 L 1642.7 384 C 1642.7 384 1650.35 384 1650.4 384 Z " stroke="none" fill="#fafafa"/>  </g>  <g id="Polygon4633">    <path d="M 993.4 329.5 C 986.5 329.5 979.7 328.7 973 327.4 C 966.3 326 961 324 957.1 321.6 C 957.1 321.6 963.7 290.7 963.7 290.7 C 968.6 294 974 296.4 980 297.9 C 985.9 299.6 991.6 300.3 996.9 300.3 C 1000.3 300.3 1002.7 300 1004.1 299.2 C 1005.5 298.5 1006.2 297.3 1006.2 295.7 C 1006.2 294.2 1005.3 292.8 1003.5 291.6 C 1001.7 290.3 998 288.4 992.5 285.8 C 985.2 282.2 979.9 278.4 976.5 274.2 C 973.1 270.2 971.4 265.4 971.4 259.8 C 971.4 258 971.6 255.6 972.1 253 C 973.5 246.5 976.4 240.7 980.7 235.8 C 985.1 230.8 990.7 227 997.7 224.2 C 1004.6 221.5 1012.6 220.1 1021.5 220.1 C 1028.3 220.1 1034.2 220.7 1039.2 221.7 C 1044.3 222.9 1049 224.6 1053.4 226.8 C 1053.4 226.8 1047 256.7 1047 256.7 C 1039.2 251.7 1030.8 249.2 1021.9 249.2 C 1014.9 249.2 1011 250.8 1010.2 253.8 C 1009.9 255.3 1010.4 256.5 1011.8 257.5 C 1013.1 258.3 1015.8 259.8 1019.8 261.6 C 1021 262.1 1022.8 262.8 1025.1 263.9 C 1032.8 267.5 1038.2 271.1 1041.3 274.5 C 1044.5 278.1 1046.1 282.4 1046.1 287.6 C 1046.1 290.2 1045.7 293.4 1044.9 297 C 1042.7 307.5 1037.6 315.5 1029.6 321 C 1021.6 326.7 1009.5 329.5 993.4 329.5 C 993.4 329.5 993.4 329.5 993.4 329.5 Z M 1082.3 252.2 L 1055.4 252.2 L 1061.7 222.3 L 1151 222.3 L 1144.7 252.2 L 1117.8 252.2 L 1101.9 327.2 L 1066.4 327.2 L 1082.3 252.2 Z M 1179.1 287.1 L 1155 222.3 L 1191.6 222.3 L 1202.4 255.5 L 1228.8 222.3 L 1267.9 222.3 L 1214.7 287.1 L 1206.3 327.2 L 1170.7 327.2 L 1179.1 287.1 Z M 1274.8 222.3 L 1310.4 222.3 L 1294.5 297.3 L 1333.6 297.3 L 1327.3 327.2 L 1252.6 327.2 L 1274.8 222.3 Z M 1355.1 222.3 L 1390.6 222.3 L 1368.4 327.2 L 1332.9 327.2 L 1355.1 222.3 Z M 1419.1 329.5 C 1412.2 329.5 1405.4 328.7 1398.7 327.4 C 1392 326 1386.7 324 1382.8 321.6 C 1382.8 321.6 1389.4 290.7 1389.4 290.7 C 1394.3 294 1399.7 296.4 1405.7 297.9 C 1411.6 299.6 1417.2 300.3 1422.5 300.3 C 1425.9 300.3 1428.3 300 1429.7 299.2 C 1431.1 298.5 1431.8 297.3 1431.8 295.7 C 1431.8 294.2 1430.9 292.8 1429.1 291.6 C 1427.3 290.3 1423.7 288.4 1418.2 285.8 C 1410.9 282.2 1405.5 278.4 1402.1 274.2 C 1398.7 270.2 1397 265.4 1397 259.8 C 1397 258 1397.3 255.6 1397.8 253 C 1399.2 246.5 1402.1 240.7 1406.4 235.8 C 1410.8 230.8 1416.4 227 1423.4 224.2 C 1430.3 221.5 1438.2 220.1 1447.1 220.1 C 1453.9 220.1 1459.9 220.7 1464.9 221.7 C 1470 222.9 1474.7 224.6 1479.1 226.8 C 1479.1 226.8 1472.6 256.7 1472.6 256.7 C 1464.8 251.7 1456.5 249.2 1447.6 249.2 C 1440.6 249.2 1436.7 250.8 1435.9 253.8 C 1435.6 255.3 1436.1 256.5 1437.5 257.5 C 1438.8 258.3 1441.5 259.8 1445.5 261.6 C 1446.7 262.1 1448.4 262.8 1450.7 263.9 C 1458.4 267.5 1463.9 271.1 1467 274.5 C 1470.2 278.1 1471.7 282.4 1471.7 287.6 C 1471.7 290.2 1471.3 293.4 1470.5 297 C 1468.3 307.5 1463.2 315.5 1455.2 321 C 1447.2 326.7 1435.2 329.5 1419.1 329.5 C 1419.1 329.5 1419.1 329.5 1419.1 329.5 Z M 1498.8 222.3 L 1529.4 222.3 L 1544.1 277.8 L 1582.5 222.3 L 1614.6 222.3 L 1592.4 327.2 L 1559.6 327.2 L 1567.8 288.3 L 1540.2 327.2 L 1528.8 327.2 L 1517.7 288.3 L 1509.5 327.2 L 1476.6 327.2 L 1498.8 222.3 Z M 1631.2 222.3 L 1708.9 222.3 L 1702.6 252.2 L 1660.4 252.2 L 1658.5 261.3 L 1688.3 261.3 L 1682.6 288.2 L 1652.8 288.2 L 1650.8 297.3 L 1693 297.3 L 1686.7 327.2 L 1609 327.2 L 1631.2 222.3 Z " stroke="none" fill="#fafafa"/>  </g></svg>